<?xml version="1.0" encoding="UTF-8" standalone="no"?><!DOCTYPE svg PUBLIC "-//W3C//DTD SVG 1.1//EN" "http://www.w3.org/Graphics/SVG/1.1/DTD/svg11.dtd"><svg viewBox="0 0 24 24" xmlns="http://www.w3.org/2000/svg" fill-rule="evenodd" clip-rule="evenodd" stroke-linejoin="round" stroke-miterlimit="1.414" width="24" height="24"><path d="M9.027 6.954l.034.002.034.002.034.004.033.005.034.006.033.007.034.009.033.009.032.011.033.012.032.013.032.014.031.015.031.017.03.017.03.019.028.019.028.02.027.022.027.022.025.022.025.024.023.025.023.025.022.026.021.026.02.028.019.028.018.028.017.029.017.03.015.03.014.031.013.031.012.032.011.032.01.033.009.033.007.033.007.034.005.034.005.035.003.034.001.035.001.035v9.096l-.001.035-.001.035-.003.034-.005.035-.005.034-.007.034-.007.033-.009.033-.01.033-.011.032-.012.032-.013.031-.014.031-.015.03-.017.03-.017.029-.018.028-.019.028-.02.028-.021.026-.022.026-.023.025-.023.025-.025.024-.025.022-.027.022-.027.022-.028.02-.028.019-.03.019-.03.017-.031.017-.031.015-.032.014-.032.013-.033.012-.032.011-.033.009-.034.009-.033.007-.034.006-.033.005-.034.004-.034.002-.034.002h-.034l-.034-.001-.033-.002-.034-.003-.034-.004-.033-.006-.033-.006-.033-.008-.033-.009-.033-.01-.032-.011-.032-.012-.031-.013-.032-.015-.03-.015-.031-.017-.029-.018-.03-.019-.028-.02-6.298-4.548-.024-.018-.023-.018-.023-.02-.022-.019-.022-.021-.02-.021-.02-.021-.02-.022-.019-.023-.018-.023-.017-.024-.017-.024-.016-.024-.015-.025-.014-.026-.014-.026-.013-.026-.012-.026-.011-.027-.011-.028-.01-.027-.009-.028-.008-.028-.007-.029-.007-.028-.005-.029-.005-.03-.004-.029-.003-.029-.003-.03-.001-.03v-.06l.001-.03.003-.03.003-.029.004-.029.005-.03.005-.029.007-.028.007-.029.008-.028.009-.028.01-.027.011-.028.011-.027.012-.026.013-.026.014-.026.014-.026.015-.025.016-.024.017-.024.017-.024.018-.023.019-.023.02-.022.02-.021.02-.021.022-.021.022-.019.023-.02.023-.018.024-.018 6.298-4.548.028-.02.03-.019.029-.018.031-.017.03-.015.032-.015.031-.013.032-.012.032-.011.033-.01.033-.009.033-.008.033-.006.033-.006.034-.004.034-.003.033-.002.034-.001h.034zM4.416 12.5L8 15.089V9.911L4.416 12.5zM20.027 6.954l.034.002.034.002.034.004.033.005.034.006.033.007.034.009.033.009.032.011.033.012.032.013.032.014.031.015.031.017.03.017.03.019.028.019.028.02.027.022.027.022.025.022.025.024.023.025.023.025.022.026.021.026.02.028.019.028.018.028.017.029.017.03.015.03.014.031.013.031.012.032.011.032.01.033.009.033.007.033.007.034.005.034.005.035.003.034.001.035.001.035v9.096l-.001.035-.001.035-.003.034-.005.035-.005.034-.007.034-.007.033-.009.033-.01.033-.011.032-.012.032-.013.031-.014.031-.015.03-.017.03-.017.029-.018.028-.019.028-.02.028-.021.026-.022.026-.023.025-.023.025-.025.024-.025.022-.027.022-.027.022-.028.02-.028.019-.03.019-.03.017-.031.017-.031.015-.032.014-.032.013-.033.012-.032.011-.033.009-.034.009-.033.007-.034.006-.033.005-.034.004-.034.002-.034.002h-.034l-.034-.001-.033-.002-.034-.003-.034-.004-.033-.006-.033-.006-.033-.008-.033-.009-.033-.01-.032-.011-.032-.012-.031-.013-.032-.015-.03-.015-.031-.017-.029-.018-.03-.019-.028-.02-6.308-4.555-.024-.018-.023-.018-.023-.02-.022-.019-.021-.02-.02-.021-.02-.021-.02-.022-.018-.023-.018-.023-.017-.023-.017-.024-.016-.024-.015-.025-.014-.025-.013-.026-.013-.026-.012-.026-.012-.027-.01-.027-.01-.027-.009-.028-.008-.028-.007-.028-.007-.028-.005-.029-.005-.029-.004-.029-.003-.029-.002-.03-.001-.029-.001-.03.001-.03.001-.029.002-.03.003-.029.004-.029.005-.029.005-.029.007-.028.007-.028.008-.028.009-.028.01-.027.01-.027.012-.027.012-.026.013-.026.013-.026.014-.025.015-.025.016-.024.017-.024.017-.023.018-.023.018-.023.02-.022.02-.021.02-.021.021-.02.022-.019.023-.02.023-.018.024-.018 6.308-4.555.028-.02.03-.019.029-.018.031-.017.03-.015.032-.015.031-.013.032-.012.032-.011.033-.01.033-.009.033-.008.033-.006.033-.006.034-.004.034-.003.033-.002.034-.001h.034zM15.416 12.5L19 15.088V9.912L15.416 12.5z"/></svg>