<?xml version="1.0" encoding="UTF-8" standalone="no"?><!DOCTYPE svg PUBLIC "-//W3C//DTD SVG 1.1//EN" "http://www.w3.org/Graphics/SVG/1.1/DTD/svg11.dtd"><svg viewBox="0 0 24 24" xmlns="http://www.w3.org/2000/svg" fill-rule="evenodd" clip-rule="evenodd" stroke-linejoin="round" stroke-miterlimit="1.414" width="24" height="24"><path d="M15.552 4.001l.052.005.052.007.053.009.052.013.053.014.052.018.053.019.053.022.052.023.053.026.052.028.052.029.052.031.052.033.052.035.051.035.051.038.051.038.05.04.05.041.049.042.049.042.049.044.047.044.048.045.046.046.046.045.09.093.087.094.084.094.081.093.076.091.073.089.068.086.063.083.059.078.054.074.049.067.042.06.068.099.042.064.015.022H20l.052.001.051.002.051.003.05.004.051.006.049.007.05.008.049.01.048.01.049.012.047.013.047.014.047.015.046.016.046.018.045.018.045.02.044.02.043.022.043.023.042.023.042.025.041.025.04.027.039.027.039.029.038.029.038.03.037.031.035.032.036.033.034.033.033.034.033.036.032.035.031.037.03.038.029.038.029.039.027.039.027.04.025.041.025.042.023.042.023.043.022.043.02.044.02.045.018.045.018.046.016.046.015.047.014.047.013.047.012.049.01.048.01.049.008.05.007.049.006.051.004.05.003.051.002.051L22 8v10l-.001.052-.002.051-.003.051-.004.05-.006.051-.007.049-.008.05-.01.049-.01.048-.012.049-.013.047-.014.047-.015.047-.016.046-.018.046-.018.045-.02.045-.02.044-.022.043-.023.043-.023.042-.025.042-.025.041-.027.04-.027.039-.029.039-.029.038-.03.038-.031.037-.032.035-.033.036-.033.034-.034.033-.036.033-.035.032-.037.031-.038.03-.038.029-.039.029-.039.027-.04.027-.041.025-.042.025-.042.023-.043.023-.043.022-.044.02-.045.02-.045.018-.046.018-.046.016-.047.015-.047.014-.047.013-.049.012-.048.01-.049.01-.05.008-.049.007-.051.006-.05.004-.051.003-.051.002L20 20H4l-.052-.001-.051-.002-.051-.003-.05-.004-.051-.006-.049-.007-.05-.008-.049-.01-.048-.01-.049-.012-.047-.013-.047-.014-.047-.015-.046-.016-.046-.018-.045-.018-.045-.02-.044-.02-.043-.022-.043-.023-.042-.023-.042-.025-.041-.025-.04-.027-.039-.027-.039-.029-.038-.029-.038-.03-.037-.031-.035-.032-.036-.033-.034-.033-.033-.034-.033-.036-.032-.035-.031-.037-.03-.038-.029-.038-.029-.039-.027-.039-.027-.04-.025-.041-.025-.042-.023-.042-.023-.043-.022-.043-.02-.044-.02-.045-.018-.045-.018-.046-.016-.046-.015-.047-.014-.047-.013-.047-.012-.049-.01-.048-.01-.049-.008-.05-.007-.049-.006-.051-.004-.05-.003-.051-.002-.051L2 18V8l.001-.052.002-.051.003-.051.004-.05.006-.051.007-.049.008-.05.01-.049.01-.048.012-.049.013-.047.014-.047.015-.047.016-.046.018-.046.018-.045.02-.045.02-.044.022-.043.023-.043.023-.042.025-.042.025-.041.027-.04.027-.039.029-.039.029-.038.03-.038.031-.037.032-.035.033-.036.033-.034.034-.033.036-.033.035-.032.037-.031.038-.03.038-.029.039-.029.039-.027.04-.027.041-.025.042-.025.042-.023.043-.023.043-.022.044-.02.045-.02.045-.018.046-.018.046-.016.047-.015.047-.014.047-.013.049-.012.048-.01.049-.01.05-.008.049-.007.051-.006.05-.004.051-.003.051-.002L4 6h2.125l.015-.022.042-.064.068-.099.042-.06.049-.067.054-.074.059-.078.063-.083.068-.086.073-.089.076-.091.081-.093L6.899 5l.087-.094.09-.093.046-.045.046-.046.048-.045.047-.044.049-.044.049-.042.049-.042.05-.041.05-.04.051-.038.051-.038.051-.035.052-.035.052-.033.052-.031.052-.029.052-.028.053-.026.052-.023.053-.022.053-.019.052-.018.053-.014.052-.013.053-.009.052-.007.052-.005L8.5 4h7l.052.001zM8.742 6l-.006.005-.022.017-.024.02-.025.02-.026.023-.027.025-.029.027-.028.026-.028.028-.026.026-.065.067-.06.064-.059.066-.059.069-.057.068-.055.067-.052.066-.049.063-.046.061-.041.057-.037.051-.03.042-.053.077-.026.039-.007.011-.071.102-.077.098-.083.093-.088.088-.094.082-.099.076-.104.069-.107.063-.112.057-.114.049-.118.042-.119.034-.122.027-.123.019-.124.012L6.125 8H4v9.999l.001.001H20V8h-2.125l-.125-.004-.124-.012-.123-.019-.122-.027-.119-.034-.118-.042-.114-.049-.112-.057-.107-.063-.104-.069-.099-.076-.094-.082-.088-.088-.083-.093-.077-.098-.071-.102-.007-.011-.026-.039-.053-.077-.03-.042-.037-.051-.041-.057-.046-.061-.049-.063-.052-.066-.055-.067-.057-.068-.059-.069-.059-.066-.06-.064-.065-.067-.026-.026-.028-.028-.028-.026-.029-.027-.027-.025-.026-.023-.025-.02-.024-.02-.022-.017L15.258 6H8.742z"/><path d="M12.103 9.001l.103.004.102.007.101.009.1.011.1.014.099.017.098.018.097.022.096.023.096.026.094.028.093.03.093.033.091.035.09.037.09.039.088.041.086.043.086.045.084.047.083.049.082.052.081.053.079.054.078.057.076.059.075.06.073.062.072.064.07.065.069.067.067.069.065.07.064.072.062.073.06.075.059.076.057.078.054.079.053.081.052.082.049.083.047.084.045.086.043.086.041.088.039.09.037.09.035.091.033.093.03.093.028.094.026.096.023.096.022.097.018.098.017.099.014.1.011.1.009.101.007.102.004.103L16 13l-.001.103-.004.103-.007.102-.009.101-.011.1-.014.1-.017.099-.018.098-.022.097-.023.096-.026.096-.028.094-.03.093-.033.093-.035.091-.037.09-.039.09-.041.088-.043.086-.045.086-.047.084-.049.083-.052.082-.053.081-.054.079-.057.078-.059.076-.06.075-.062.073-.064.072-.065.07-.067.069-.069.067-.07.065-.072.064-.073.062-.075.06-.076.059-.078.057-.079.054-.081.053-.082.052-.083.049-.084.047-.086.045-.086.043-.088.041-.09.039-.09.037-.091.035-.093.033-.093.03-.094.028-.096.026-.096.023-.097.022-.098.018-.099.017-.1.014-.1.011-.101.009-.102.007-.103.004L12 17l-.103-.001-.103-.004-.102-.007-.101-.009-.1-.011-.1-.014-.099-.017-.098-.018-.097-.022-.096-.023-.096-.026-.094-.028-.093-.03-.093-.033-.091-.035-.09-.037-.09-.039-.088-.041-.086-.043-.086-.045-.084-.047-.083-.049-.082-.052-.081-.053-.079-.054-.078-.057-.076-.059-.075-.06-.073-.062-.072-.064-.07-.065-.069-.067-.067-.069-.065-.07-.064-.072-.062-.073-.06-.075-.059-.076-.057-.078-.054-.079-.053-.081-.052-.082-.049-.083-.047-.084-.045-.086-.043-.086-.041-.088-.039-.09-.037-.09-.035-.091-.033-.093-.03-.093-.028-.094-.026-.096-.023-.096-.022-.097-.018-.098-.017-.099-.014-.1-.011-.1-.009-.101-.007-.102-.004-.103L8 13l.001-.103.004-.103.007-.102.009-.101.011-.1.014-.1.017-.099.018-.098.022-.097.023-.096.026-.096.028-.094.03-.093.033-.093.035-.091.037-.09.039-.09.041-.088.043-.086.045-.086.047-.084.049-.083.052-.082.053-.081.054-.079.057-.078.059-.076.06-.075.062-.073.064-.072.065-.07.067-.069.069-.067.07-.065.072-.064.073-.062.075-.06.076-.059.078-.057.079-.054.081-.053.082-.052.083-.049.084-.047.086-.045.086-.043.088-.041.09-.039.09-.037.091-.035.093-.033.093-.03.094-.028.096-.026.096-.023.097-.022.098-.018.099-.017.1-.014.1-.011.101-.009.102-.007.103-.004L12 9l.103.001zm-.156 2l-.051.002-.052.003-.05.005-.051.005-.049.007-.05.008-.048.01-.048.01-.049.012-.047.013-.046.014-.047.015-.045.016-.046.017-.045.019-.044.019-.044.02-.043.022-.043.022-.042.024-.042.025-.041.025-.04.027-.039.027-.039.029-.039.029-.038.031-.037.031-.035.031-.035.033-.036.035-.034.035-.032.034-.032.037-.032.037-.03.037-.029.038-.028.038-.028.041-.027.041-.026.042-.024.04-.024.042-.022.043-.021.042-.021.044-.02.046-.018.045-.017.043-.016.046-.016.049-.013.046-.013.045-.011.048-.011.05-.009.048-.009.05-.007.051-.006.05-.004.049-.003.05-.002.053L10 13l.001.053.002.053.003.05.004.049.006.05.007.051.009.05.009.048.011.05.011.048.013.045.013.046.016.049.016.046.017.043.018.045.02.046.021.044.021.042.022.043.024.042.024.04.026.042.027.041.028.041.028.038.029.038.03.037.032.037.032.037.032.034.034.035.036.035.035.033.035.031.037.031.038.031.039.029.039.029.039.027.04.027.041.025.042.025.042.024.043.022.043.022.044.02.044.019.045.019.046.017.045.016.047.015.046.014.047.013.049.012.048.01.048.01.05.008.049.007.051.005.05.005.052.003.051.002L12 15l.053-.001.051-.002.052-.003.05-.005.051-.005.049-.007.05-.008.048-.01.048-.01.049-.012.047-.013.046-.014.047-.015.045-.016.046-.017.045-.019.044-.019.044-.02.043-.022.043-.022.042-.024.042-.025.041-.025.04-.027.039-.027.039-.029.039-.029.038-.031.037-.031.035-.031.035-.033.036-.035.034-.035.032-.034.032-.037.032-.037.03-.037.029-.038.028-.038.028-.041.027-.041.026-.042.024-.04.024-.042.022-.043.021-.042.021-.044.02-.046.018-.045.017-.043.016-.046.016-.049.013-.046.013-.045.011-.048.011-.05.009-.048.009-.05.007-.051.006-.05.004-.049.003-.05.002-.053L14 13l-.001-.053-.002-.053-.003-.05-.004-.049-.006-.05-.007-.051-.009-.05-.009-.048-.011-.05-.011-.048-.013-.045-.013-.046-.016-.049-.016-.046-.017-.043-.018-.045-.02-.046-.021-.044-.021-.042-.022-.043-.024-.042-.024-.04-.026-.042-.027-.041-.028-.041-.028-.038-.029-.038-.03-.037-.032-.037-.032-.037-.032-.034-.034-.035-.036-.035-.035-.033-.035-.031-.037-.031-.038-.031-.039-.029-.039-.029-.039-.027-.04-.027-.041-.025-.042-.025-.042-.024-.043-.022-.043-.022-.044-.02-.044-.019-.045-.019-.046-.017-.045-.016-.047-.015-.046-.014-.047-.013-.049-.012-.048-.01-.048-.01-.05-.008-.049-.007-.051-.005-.05-.005-.052-.003-.051-.002L12 11l-.053.001z"/></svg>