<?xml version="1.0" encoding="UTF-8" standalone="no"?><!DOCTYPE svg PUBLIC "-//W3C//DTD SVG 1.1//EN" "http://www.w3.org/Graphics/SVG/1.1/DTD/svg11.dtd"><svg viewBox="0 0 24 24" xmlns="http://www.w3.org/2000/svg" fill-rule="evenodd" clip-rule="evenodd" stroke-linejoin="round" stroke-miterlimit="1.414" width="24" height="24"><path d="M6 19H2v.599c0 .371.148.728.41.991.263.262.62.41.991.41h1.198c.371 0 .728-.148.991-.41.262-.263.41-.62.41-.991V19zM22 19h-4v.599c0 .371.148.728.41.991.263.262.62.41.991.41h1.198c.371 0 .728-.148.991-.41.262-.263.41-.62.41-.991V19zM18.227 3l.04.001.039.002.039.004.038.005.039.007.037.008.038.009.036.011.037.012.035.013.035.015.035.016.034.018.033.018.032.02.032.021.031.022.03.023.029.024.028.025.027.027.027.027.025.029.024.029.024.031.022.031.021.033.02.033.018.034.018.035.016.036.015.036L22 10v9H2v-9l2.819-6.345.015-.036.016-.036.018-.035.018-.034.02-.033.021-.033.022-.031.024-.031.024-.029.025-.029.027-.027.027-.027.028-.025.029-.024.03-.023.031-.022.032-.021.032-.02.033-.018.034-.018.035-.016.035-.015.035-.013.037-.012.036-.011.038-.009.037-.008.039-.007.038-.005.039-.004.039-.002.04-.001h12.454zM4 12v5h16v-5H4zm2.419-8.011L4.077 10h15.846l-2.401-6.011H6.419z"/><circle cx="7.5" cy="14.5" r="1.5"/><circle cx="16.5" cy="14.5" r="1.5"/></svg>