<?xml version="1.0" encoding="UTF-8" standalone="no"?><!DOCTYPE svg PUBLIC "-//W3C//DTD SVG 1.1//EN" "http://www.w3.org/Graphics/SVG/1.1/DTD/svg11.dtd"><svg viewBox="0 0 24 24" xmlns="http://www.w3.org/2000/svg" fill-rule="evenodd" clip-rule="evenodd" stroke-linejoin="round" stroke-miterlimit="1.414" width="24" height="24"><path d="M12.549 5.81l.073.002.073.002.073.004.072.005.072.006.071.007.071.008.071.009.071.011.07.011.07.012.07.013.069.015.069.015.068.016.068.017.068.018.067.02.067.02.066.021.066.022.066.023.065.024.065.024.064.026.064.027.063.027.063.029.062.029.062.03.062.031.06.032.061.033.06.033.059.035.059.035.058.036.057.037.057.037.057.039.056.039.055.04.055.041.054.041.053.042.053.043.052.044.052.044.051.046.05.046.05.046.049.047.048.048.048.049.047.049.046.05.045.051.045.051.044.052.044.053.042.053.042.054.041.054.114-.008.116-.007.115-.003.117-.002.068.001.067.001.067.002.067.003.067.004.067.005.066.005.066.006.066.007.066.008.065.009.065.01.065.01.065.011.064.012.064.013.064.013.063.015.063.015.063.015.063.017.062.017.062.018.062.019.061.019.061.021.061.021.06.021.06.023.06.023.059.024.059.024.059.025.058.026.058.027.057.027.057.028.057.029.056.029.056.03.055.03.055.032.055.032.054.032.054.033.053.034.053.034.053.035.052.036.051.036.051.037.051.037.05.038.05.039.049.039.049.04.048.04.048.041.094.084.092.085.09.088.088.09.086.092.083.094.041.048.04.048.04.049.039.049.039.05.038.05.037.051.037.051.036.052.036.052.035.052.034.053.034.053.033.054.033.054.032.055.031.055.03.055.03.056.03.057.028.056.028.057.027.058.027.058.026.058.025.058.025.059.023.06.024.059.022.06.022.06.021.061.02.061.019.061.019.062.018.062.017.062.017.063.016.063.015.063.014.064.014.063.012.064.012.065.011.064.011.065.009.065.009.066.008.065.007.066.006.066.006.067.004.066.004.067.003.067.002.067.002.068v.135l-.002.067-.002.068-.003.067-.004.067-.004.066-.006.067-.006.066-.007.066-.008.065-.009.066-.009.065-.011.065-.011.064-.012.064-.012.064-.014.064-.014.064-.015.063-.016.063-.017.062-.017.063-.018.062-.019.061-.019.062-.02.061-.021.06-.022.061-.022.06-.024.059-.023.06-.025.058-.025.059-.026.058-.027.058-.027.057-.028.058-.028.056-.03.056-.03.056-.03.056-.031.055-.032.054-.033.055-.033.053-.034.054-.034.053-.035.052-.036.052-.036.052-.037.051-.037.051-.038.05-.039.049-.039.05-.04.048-.04.049-.041.048-.083.094-.086.092-.088.09-.09.087-.092.086-.094.084-.048.04-.048.041-.049.039-.049.04-.05.038-.05.038-.051.038-.051.037-.051.036-.052.035-.053.035-.053.035-.053.034-.054.033-.054.032-.055.032-.055.031-.055.031-.056.03-.056.029-.057.029-.057.028-.057.027-.058.026-.058.026-.059.026-.059.024-.059.024-.06.023-.06.022-.06.022-.061.021-.061.02-.061.02-.062.019-.062.018-.062.017-.063.016-.063.016-.063.015-.063.014-.064.014-.064.013-.064.012-.065.011-.065.01-.065.01-.065.008-.066.008-.066.007-.066.007-.066.005-.067.005-.067.004-.067.003-.067.002-.067.001h-.068l-2.137-.001-2.861-.003-1.474-.001H8.909l-1.196.002-.5.001-.42.002H6.7l-.061-.001-.061-.002-.061-.003-.061-.003-.06-.004-.061-.005-.06-.006-.06-.007-.059-.007-.06-.008-.059-.008-.059-.01-.059-.01-.116-.022-.116-.026-.115-.028-.113-.03-.112-.034-.112-.036-.11-.039-.108-.041-.108-.044-.106-.046-.105-.049-.103-.052-.102-.054-.101-.056-.099-.058-.097-.061-.096-.063-.094-.066-.092-.067-.091-.07-.089-.071-.088-.074-.085-.076-.084-.078-.082-.08-.079-.082-.078-.083-.076-.086-.074-.087-.072-.089-.069-.091-.068-.093-.065-.094-.063-.096-.061-.097-.059-.099-.056-.1-.054-.102-.051-.104-.049-.104-.047-.107-.043-.107-.042-.109-.039-.11-.036-.111-.033-.112-.031-.114-.028-.115-.025-.115-.023-.117-.01-.059-.009-.059-.009-.059-.008-.059-.007-.06-.006-.06-.006-.06-.005-.06-.004-.061-.004-.061-.003-.06-.001-.062L2 13.49v-.123l.002-.061.001-.061.003-.061.004-.061.004-.061.005-.06.006-.06.006-.06.007-.06.008-.059.009-.059.009-.059.01-.059.023-.117.025-.115.028-.115.031-.113.033-.113.036-.111.039-.11.042-.109.043-.107.047-.106.049-.105.051-.104.054-.101.056-.101.059-.099.061-.097.063-.096.065-.094.068-.093.069-.091.072-.089.074-.087.076-.086.078-.083.079-.082.082-.08.084-.078.085-.076.088-.073.089-.072.091-.07.092-.067.094-.066.096-.063.097-.061.099-.058.101-.056.102-.054.103-.051.105-.049.106-.047.108-.044.108-.041.11-.039.112-.036.112-.034.113-.03.115-.028.116-.026.116-.022.059-.01.059-.009.059-.009.06-.008.059-.007.06-.007.06-.005.061-.005.06-.005.061-.003.061-.003.061-.002.061-.001h.093l.08.001.081.002.08.004.08.005.079.007.079.008.079.009.078.01.078.012.077.013.077.014.077.015.076.016.075.018.076.019.074.02.034-.083.034-.081.036-.082.038-.08.039-.08.041-.078.042-.078.043-.077.045-.076.046-.075.047-.075.049-.073.05-.072.052-.072.052-.07.054-.069.055-.069.057-.067.057-.066.059-.065.06-.065.061-.062.062-.062.064-.061.064-.059.066-.059.066-.057.068-.056.069-.055.07-.053.07-.052.072-.051.073-.05.073-.048.075-.047.076-.046.076-.044.077-.043.078-.041.079-.04.08-.039.081-.037.081-.036.083-.034.083-.032.084-.032.084-.029.085-.028.086-.027.087-.025.087-.023.088-.022.088-.02.09-.018.089-.017.091-.015.091-.013.091-.012.092-.01.092-.008.093-.006.094-.005.094-.003H12.549zm-.128 2l-.055.002-.055.002-.054.004-.054.005-.053.006-.053.006-.053.008-.052.009-.052.009-.052.011-.05.012-.051.012-.05.014-.05.014-.05.015-.049.016-.049.018-.048.017-.047.019-.049.02-.047.021-.046.021-.046.022-.046.024-.045.024-.045.025-.045.025-.043.027-.043.027-.043.028-.043.029-.041.029-.042.031-.04.031-.04.032-.04.032-.039.034-.037.033-.038.035-.037.035-.036.036-.036.038-.035.037-.034.038-.034.038-.033.04-.032.039-.031.041-.031.041-.03.041-.029.042-.028.043-.028.043-.026.044-.026.044-.026.044-.024.045-.023.046-.023.046-.022.047-.021.046-.02.047-.026.066-.051.116-.058.112-.064.108-.072.104-.078.099-.084.094-.09.089-.095.083-.101.076-.105.07-.109.064-.113.056-.116.049-.119.042-.122.034-.123.026-.125.019-.126.01-.126.003-.126-.005-.126-.013-.124-.022-.123-.029-.059-.015-.043-.011-.044-.011-.043-.009-.045-.009-.045-.008-.044-.007-.046-.007-.045-.006-.045-.005-.046-.005-.046-.004-.047-.003-.047-.002-.047-.002h-.101l-.036.001-.036.001-.036.001-.035.002-.035.003-.036.003-.035.003-.034.004-.035.004-.034.005-.034.004-.034.006-.028.005-.074.014-.067.015-.066.016-.065.017-.065.02-.064.02-.064.023-.062.024-.062.025-.061.027-.061.028-.06.03-.059.031-.058.033-.057.034-.057.035-.056.037-.055.038-.053.039-.053.04-.052.042-.051.043-.05.044-.049.046-.047.046-.047.048-.045.049-.045.05-.043.051-.042.052-.04.052-.039.054-.038.055-.037.056-.035.056-.034.057-.032.059-.032.059-.029.06-.029.06-.027.061-.025.062-.024.063-.022.064-.021.064-.019.065-.018.065-.016.066-.015.067-.014.073-.005.028-.005.034-.005.035-.005.034-.004.035-.004.034-.003.035-.003.036-.002.035-.002.035-.002.035-.001.037-.001.036v.072l.001.035.001.037.002.035.002.035.002.036.003.035.003.035.004.034.004.035.005.035.005.034.005.034.005.028.014.073.015.067.016.066.018.066.019.065.021.064.022.063.024.063.025.062.027.061.029.061.029.059.031.059.033.059.034.057.035.057.037.055.038.055.039.054.041.053.042.052.042.05.045.05.045.049.047.048.047.046.049.046.05.044.051.043.052.042.052.04.054.04.055.037.056.037.057.036.057.033.058.033.059.031.06.03.06.028.062.027.062.025.063.024.063.023.064.02.065.02.065.017.067.017.066.014.074.014.027.005.034.005.035.006.034.004.035.004.035.004.034.003.035.003.036.003.036.002.036.001.034.002h.095l.42-.002.504-.001 1.199-.002h1.383l1.476.001 2.861.003 2.129.001h.048l.042-.001.042-.001.042-.002.042-.002.041-.003.041-.004.042-.003.039-.005.041-.005.04-.005.041-.006.04-.006.039-.007.04-.008.04-.007.039-.009.039-.008.039-.01.039-.009.038-.011.038-.01.038-.011.039-.012.037-.012.038-.012.037-.013.036-.013.037-.014.037-.014.037-.015.037-.016.035-.015.036-.016.036-.016.035-.017.035-.017.036-.018.035-.018.034-.018.034-.019.034-.019.034-.02.034-.021.032-.02.033-.021.034-.021.032-.022.033-.022.031-.022.031-.023.032-.023.031-.024.031-.024.03-.024.031-.024.03-.026.025-.022.063-.055.057-.053.056-.055.054-.055.053-.058.056-.062.022-.026.025-.03.024-.03.024-.03.025-.031.023-.032.024-.031.022-.032.023-.031.022-.033.022-.032.021-.033.021-.033.02-.033.02-.034.02-.033.019-.035.019-.034.019-.034.018-.035.017-.035.018-.036.016-.035.017-.035.016-.036.015-.036.015-.037.015-.036.014-.036.014-.038.013-.037.013-.037.013-.038.012-.037.011-.038.011-.038.011-.038.01-.039.01-.039.009-.039.009-.038.008-.04.008-.039.007-.04.007-.04.007-.04.005-.04.006-.04.005-.041.004-.041.004-.041.003-.041.003-.041.003-.041.002-.042.001-.042.001-.042V12.91l-.001-.042-.001-.042-.002-.042-.003-.041-.003-.041-.003-.042-.004-.04-.004-.041-.005-.041-.006-.04-.005-.04-.007-.041-.007-.04-.007-.039-.008-.039-.008-.04-.009-.039-.009-.038-.01-.039-.01-.039-.011-.038-.011-.038-.011-.038-.012-.038-.013-.037-.013-.038-.013-.037-.014-.037-.014-.036-.015-.037-.015-.036-.015-.036-.016-.036-.017-.036-.016-.035-.018-.036-.017-.034-.018-.035-.019-.034-.019-.035-.019-.034-.02-.033-.02-.034-.021-.034-.02-.032-.021-.033-.022-.033-.022-.032-.023-.032-.022-.031-.024-.032-.023-.031-.025-.031-.024-.03-.024-.03-.025-.03-.022-.026-.056-.063-.053-.057-.054-.055-.056-.055-.057-.053-.063-.056-.025-.021-.03-.026-.031-.024-.03-.024-.031-.024-.031-.024-.032-.023-.031-.023-.032-.023-.032-.022-.032-.021-.034-.022-.033-.021-.032-.02-.034-.02-.034-.02-.034-.019-.034-.019-.034-.018-.035-.018-.036-.018-.035-.017-.035-.017-.036-.017-.036-.016-.035-.015-.037-.015-.037-.015-.036-.014-.037-.014-.038-.013-.037-.013-.037-.012-.037-.012-.039-.012-.038-.011-.038-.011-.038-.01-.039-.01-.04-.009-.037-.008-.04-.009-.04-.008-.04-.007-.04-.007-.039-.006-.041-.006-.039-.005-.041-.005-.041-.005-.042-.004-.04-.003-.041-.003-.042-.002-.042-.002-.042-.002h-.041l-.038-.001-.078.001-.072.003-.072.003-.092.008-.125.005-.125-.002-.124-.01-.124-.018-.123-.025-.121-.033-.118-.041-.116-.048-.112-.055-.109-.062-.104-.068-.101-.075-.095-.081-.09-.087-.084-.093-.079-.097-.032-.043-.025-.032-.024-.03-.025-.031-.026-.03-.026-.03-.027-.03-.026-.028-.028-.03-.028-.028-.028-.028-.028-.027-.029-.027-.029-.027-.031-.027-.03-.026-.03-.025-.031-.025-.031-.025-.031-.024-.032-.023-.032-.024-.033-.023-.033-.022-.033-.022-.033-.021-.034-.021-.034-.02-.035-.021-.034-.019-.035-.019-.036-.019-.035-.017-.035-.018-.037-.017-.036-.016-.036-.016-.037-.015-.037-.015-.037-.014-.038-.014-.039-.014-.038-.012-.037-.012-.039-.012-.038-.011-.04-.011-.04-.01-.039-.009-.039-.009-.039-.008-.041-.007-.041-.007-.04-.007-.042-.006-.041-.005-.041-.005-.041-.004-.042-.003-.042-.003-.042-.002-.043-.002-.043-.001h-.098z"/></svg>