<?xml version="1.0" encoding="UTF-8" standalone="no"?><!DOCTYPE svg PUBLIC "-//W3C//DTD SVG 1.1//EN" "http://www.w3.org/Graphics/SVG/1.1/DTD/svg11.dtd"><svg viewBox="0 0 24 24" xmlns="http://www.w3.org/2000/svg" fill-rule="evenodd" clip-rule="evenodd" stroke-linejoin="round" stroke-miterlimit="1.414" width="24" height="24"><path d="M21.954 6.585L11.665 16.761l-4.284-4.332L17.669 2.253l4.285 4.332zm-11.745 5.86l1.472 1.487 7.444-7.362-1.471-1.488-7.445 7.363zM5.956 17.985v-5.096l4.979 5.096H5.956z"/><path d="M14.763 4.988l4.284 4.332 2.447-2.42-4.285-4.332-2.446 2.42z"/><path d="M17.999 19.121a3.085 3.085 0 0 1-.154.872 2.982 2.982 0 0 1-1.715 1.801 3.035 3.035 0 0 1-1.009.205c-3.414.046-6.828.046-10.242 0a3.035 3.035 0 0 1-1.009-.205 2.982 2.982 0 0 1-1.715-1.801 3.085 3.085 0 0 1-.154-.872c-.06-4.747-.06-9.495 0-14.242.012-.322.068-.637.179-.94a2.98 2.98 0 0 1 1.691-1.734 3.053 3.053 0 0 1 1.008-.204L4.948 2H13v2c-2.698 0-5.399-.101-8.095.001A.965.965 0 0 0 4 4.93c-.059 4.721-.178 9.447.001 14.165A.962.962 0 0 0 4.93 20c3.388.045 6.779.128 10.165-.001a.962.962 0 0 0 .905-.96V15h2c0 1.374.017 2.747-.001 4.121z" fill-rule="nonzero"/></svg>