<?xml version="1.0" encoding="UTF-8" standalone="no"?><!DOCTYPE svg PUBLIC "-//W3C//DTD SVG 1.1//EN" "http://www.w3.org/Graphics/SVG/1.1/DTD/svg11.dtd"><svg viewBox="0 0 24 24" xmlns="http://www.w3.org/2000/svg" fill-rule="evenodd" clip-rule="evenodd" stroke-linejoin="round" stroke-miterlimit="1.414" width="24" height="24"><path d="M12.122 4.001a9.079 9.079 0 0 1 2.518.393c.64.194 1.257.459 1.841.784.364.204.714.43 1.05.678 1.795 1.327 3.116 3.236 3.831 5.343a12.095 12.095 0 0 1 .637 3.77C22.004 15.98 22 16.99 22 18a1.003 1.003 0 0 1-.598.916 1.008 1.008 0 0 1-1.282-.44 1.014 1.014 0 0 1-.106-.311c-.013-.073-.011-.092-.014-.165 0-1.003.005-2.006-.001-3.008-.007-.43-.036-.859-.094-1.285a9.955 9.955 0 0 0-.846-2.88 9.067 9.067 0 0 0-1.944-2.714 7.886 7.886 0 0 0-2.317-1.536 7.116 7.116 0 0 0-5.883.121 7.697 7.697 0 0 0-1.275.766c-1.589 1.175-2.712 2.912-3.258 4.801a10.394 10.394 0 0 0-.399 2.727c-.006 1.002-.001 2.005-.001 3.008-.003.073-.001.092-.014.165a1.014 1.014 0 0 1-.106.311 1.012 1.012 0 0 1-.963.521 1.04 1.04 0 0 1-.319-.081A1.003 1.003 0 0 1 1.982 18c0-1.01-.005-2.02.001-3.031a12.067 12.067 0 0 1 .681-3.896c.346-.984.823-1.922 1.421-2.776.892-1.274 2.057-2.36 3.416-3.119a9.42 9.42 0 0 1 1.841-.784 9.079 9.079 0 0 1 2.518-.393h.262z" fill-rule="nonzero"/><path d="M8.982 15.5a1.5 1.5 0 0 0-1.5-1.5h-.91a1.5 1.5 0 0 0-1.5 1.5v4a1.5 1.5 0 0 0 1.5 1.5h.91a1.5 1.5 0 0 0 1.5-1.5v-4zM19.072 15.5a1.5 1.5 0 0 0-1.5-1.5h-1a1.5 1.5 0 0 0-1.5 1.5v4a1.5 1.5 0 0 0 1.5 1.5h1a1.5 1.5 0 0 0 1.5-1.5v-4z"/></svg>