<?xml version="1.0" encoding="UTF-8" standalone="no"?><!DOCTYPE svg PUBLIC "-//W3C//DTD SVG 1.1//EN" "http://www.w3.org/Graphics/SVG/1.1/DTD/svg11.dtd"><svg viewBox="0 0 24 24" xmlns="http://www.w3.org/2000/svg" fill-rule="evenodd" clip-rule="evenodd" stroke-linejoin="round" stroke-miterlimit="1.414" width="24" height="24"><path d="M20.053 2.001l.051.002.051.003.051.004.05.006.05.007.049.008.049.01.049.01.048.012.047.013.048.014.046.015.046.016.046.018.045.018.045.02.044.02.043.022.043.022.042.024.041.024.041.026.041.026.039.028.039.028.038.029.037.031.037.031.036.031.035.033.034.034.034.034.033.035.031.036.031.037.031.037.029.038.028.039.028.039.026.041.026.041.024.041.024.042.022.043.022.043.02.044.02.045.018.045.018.046.016.046.015.046.014.048.013.047.012.048.01.049.01.049.008.049.007.05.006.05.004.051.003.051.002.051.001.051v16.004l-.001.051-.002.051-.003.051-.004.051-.006.05-.007.05-.008.049-.01.049-.01.049-.012.048-.013.047-.014.048-.015.046-.016.046-.018.046-.018.045-.02.045-.02.044-.022.043-.022.043-.024.042-.024.041-.026.041-.026.041-.028.039-.028.039-.029.038-.031.037-.031.037-.031.036-.033.035-.034.034-.034.034-.035.033-.036.031-.037.031-.037.031-.038.029-.039.028-.039.028-.041.026-.041.026-.041.024-.042.024-.043.022-.043.022-.044.02-.045.02-.045.018-.046.018-.046.016-.046.015-.048.014-.047.013-.048.012-.049.01-.049.01-.049.008-.05.007-.05.006-.051.004-.051.003-.051.002-.051.001H3.998l-.051-.001-.051-.002-.051-.003-.051-.004-.05-.006-.05-.007-.049-.008-.049-.01-.049-.01-.048-.012-.047-.013-.048-.014-.046-.015-.046-.016-.046-.018-.045-.018-.045-.02-.044-.02-.043-.022-.043-.022-.042-.024-.041-.024-.041-.026-.041-.026-.039-.028-.039-.028-.038-.029-.037-.031-.037-.031-.036-.031-.035-.033-.034-.034-.034-.034-.033-.035-.031-.036-.031-.037-.031-.037-.029-.038-.028-.039-.028-.039-.026-.041-.026-.041-.024-.041-.024-.042-.022-.043-.022-.043-.02-.044-.02-.045-.018-.045-.018-.046-.016-.046-.015-.046-.014-.048-.013-.047-.012-.048-.01-.049-.01-.049-.008-.049-.007-.05-.006-.05-.004-.051-.003-.051-.002-.051L2 20.002V3.998l.001-.051.002-.051.003-.051.004-.051.006-.05.007-.05.008-.049.01-.049.01-.049.012-.048.013-.047.014-.048.015-.046.016-.046.018-.046.018-.045.02-.045.02-.044.022-.043.022-.043.024-.042.024-.041.026-.041.026-.041.028-.039.028-.039.029-.038.031-.037.031-.037.031-.036.033-.035.034-.034.034-.034.035-.033.036-.031.037-.031.037-.031.038-.029.039-.028.039-.028.041-.026.041-.026.041-.024.042-.024.043-.022.043-.022.044-.02.045-.02.045-.018.046-.018.046-.016.046-.015.048-.014.047-.013.048-.012.049-.01.049-.01.049-.008.05-.007.05-.006.051-.004.051-.003.051-.002L3.998 2h16.004l.051.001zM4.011 4H4V20H20V4H4.011z"/><path d="M8.169 13.014a.981.981 0 0 1 .58.324c.04.045.048.058.083.107L10 15.197l3.168-4.752.039-.055c.088-.106.186-.196.306-.264.3-.167.674-.167.974 0 .12.068.218.158.306.264 1.413 1.972 2.693 4.037 4.039 6.055.032.052.041.064.068.119a1.012 1.012 0 0 1 .055.731c-.102.331-.375.59-.711.675a.991.991 0 0 1-1.076-.415L14 12.803l-3.168 4.752-.039.055a1.105 1.105 0 0 1-.306.264 1.01 1.01 0 0 1-1.032-.035 1.092 1.092 0 0 1-.287-.284L8 15.803l-1.168 1.752-.04.055a1.06 1.06 0 0 1-.369.296 1.01 1.01 0 0 1-1.086-.157 1.023 1.023 0 0 1-.324-.586 1.011 1.011 0 0 1 .119-.66c.644-1.041 1.357-2.039 2.036-3.058a1.004 1.004 0 0 1 .866-.444c.068.004.067.004.135.013z" fill-rule="nonzero"/></svg>