<?xml version="1.0" encoding="UTF-8" standalone="no"?><!DOCTYPE svg PUBLIC "-//W3C//DTD SVG 1.1//EN" "http://www.w3.org/Graphics/SVG/1.1/DTD/svg11.dtd"><svg viewBox="0 0 24 24" xmlns="http://www.w3.org/2000/svg" fill-rule="evenodd" clip-rule="evenodd" stroke-linejoin="round" stroke-miterlimit="1.414" width="24" height="24"><path d="M11.082 6l.729.001.367.001.109.003.101.004.1.006.1.006.1.008.1.009.099.011.099.011.099.013.098.014.098.015.097.017.097.017.097.019.096.02.096.021.096.022.094.023.095.024.094.026.094.027.093.027.093.029.092.03.092.031.091.032.09.033.091.035.09.035.089.036.088.037.088.039.088.039.087.041.086.041.086.042.085.044.084.044.085.046.083.046.082.047.083.048.081.049.081.05.08.051.08.053.079.052.078.054.077.054.077.056.076.056.076.058.075.058.074.059.073.06.073.06.071.062.072.062.07.063.07.065.069.065.068.065.067.066.067.068.065.068.065.068.064.07.064.07.062.071.062.072.061.073.06.073.059.073.058.075.058.076.056.075.056.077.055.078.054.078.052.078.052.079.052.081.05.081.049.081.049.082.047.083.046.083.046.084.045.085.043.084.043.087.041.086.041.086.04.088.038.088.037.088.037.089.035.09.035.09.033.09.032.092.032.091.03.092.029.093.028.093.026.093.026.094.025.095.023.096.023.095.021.095.02.096.019.097.017.097.017.097.015.098.015.098.013.1.011.098.011.099.009.099.008.101.007.099.006.1.004.102.004.101.001.102L20 14l-.001.103-.002.103-.003.102-.004.103-.006.101-.007.102-.009.102-.009.101-.011.1-.012.1-.014.101-.014.099-.016.099-.017.098-.018.099-.02.098-.02.097-.022.097-.023.097-.024.096-.025.095-.027.096-.027.095-.029.094-.03.094-.031.093-.032.093-.033.092-.034.091-.036.091-.036.091-.038.091-.038.089-.039.088-.042.09-.041.087-.042.087-.044.087-.045.086-.046.085-.046.085-.048.084-.049.084-.049.082-.051.082-.052.082-.052.081-.053.079-.055.08-.055.079-.057.078-.057.077-.058.077-.059.076-.059.075-.061.074-.062.074-.062.072-.063.073-.064.071-.065.071-.066.07-.067.069-.067.067-.068.068-.069.067-.07.065-.071.066-.072.064-.071.063-.073.062-.073.062-.075.06-.075.061-.076.058-.077.058-.078.058-.078.056-.078.055-.079.054-.081.054-.08.052-.082.052-.082.051-.083.049-.083.049-.084.048-.085.046-.085.046-.086.045-.087.044-.087.042-.088.042-.088.04-.089.04-.089.038-.091.038-.09.036-.091.036-.092.034-.092.033-.093.032-.093.031-.094.03-.094.029-.095.027-.095.027-.096.025-.096.024-.097.023-.097.022-.097.02-.098.02-.098.018-.099.017-.1.016-.099.014-.1.014-.1.012-.1.011-.101.009-.102.009-.101.007-.102.006-.102.004-.103.003-.103.002L12 22l-.103-.001-.103-.002-.102-.003-.103-.004-.102-.006-.101-.007-.101-.009-.101-.009-.101-.011-.1-.012-.1-.014-.1-.014-.099-.016-.098-.017-.099-.018-.098-.02-.097-.02-.097-.022-.097-.023-.096-.024-.095-.025-.096-.027-.095-.027-.094-.029-.094-.03-.093-.031-.093-.032-.092-.033-.091-.034-.092-.036-.091-.036-.089-.038-.09-.038-.089-.04-.088-.04-.088-.042-.087-.043-.087-.043-.085-.045-.086-.046-.085-.047-.084-.047-.083-.049-.083-.05-.082-.05-.081-.052-.081-.052-.081-.054-.079-.054-.079-.055-.078-.057-.077-.057-.077-.058-.075-.058-.076-.061-.074-.06-.074-.061-.073-.063-.072-.063-.071-.065-.071-.064-.07-.066-.069-.067-.068-.067-.067-.068-.067-.07-.066-.069-.064-.071-.064-.071-.064-.072-.063-.073-.061-.074-.06-.074-.06-.075-.059-.076-.058-.076-.058-.078-.056-.079-.055-.078-.054-.079-.054-.08-.052-.082-.052-.081-.05-.081-.05-.083-.049-.085-.047-.083-.047-.085-.046-.085-.045-.086-.043-.087-.043-.087-.042-.088-.04-.088-.04-.089-.039-.09-.037-.09-.036-.09-.036-.091-.034-.093-.033-.091-.032-.093-.031-.094-.03-.093-.029-.094-.027-.095-.027-.096-.025-.095-.024-.095-.023-.097-.022-.099-.02-.097-.02-.097-.018-.098-.017-.099-.016-.1-.014-.098-.014-.1-.012-.101-.011-.101-.009-.1-.009-.102-.007-.101-.006-.102-.004-.103-.003-.102-.002-.103L4 14.008l2-.016.001.086.001.077.002.077.004.077.004.077.006.077.006.075.007.077.008.075.009.074.01.075.011.076.012.073.013.073.014.075.014.074.016.073.016.071.017.072.018.073.019.072.02.071.02.071.022.071.022.07.023.069.024.069.025.07.025.068.027.068.027.068.029.068.028.067.03.066.03.067.031.065.032.065.033.065.034.065.034.064.035.063.036.064.036.062.037.062.039.062.038.061.04.06.039.06.042.061.041.059.042.058.043.057.044.059.044.057.045.056.046.056.046.055.047.055.047.054.048.054.049.053.05.053.049.051.051.052.052.051.051.049.053.05.053.049.054.048.054.047.054.047.056.046.056.046.056.045.057.044.058.044.058.043.059.042.059.042.059.04.06.04.061.04.061.039.062.038.062.036.062.037.064.036.063.035.064.034.065.034.064.033.065.031.066.032.066.03.067.03.067.029.068.028.067.027.069.026.068.026.069.025.07.024.07.023.07.022.07.022.071.02.071.02.072.019.072.018.072.017.073.017.073.015.073.015.073.013.075.013.074.012.074.011.075.01.075.009.076.008.076.007.076.006.076.006.077.004.077.004.077.002.077.001L12 20l.078-.001.077-.001.077-.002.077-.004.077-.004.076-.006.076-.006.076-.007.076-.008.075-.009.075-.01.074-.011.075-.012.073-.013.074-.013.073-.015.073-.015.073-.017.072-.017.072-.018.072-.019.071-.02.071-.02.07-.022.07-.022.07-.023.07-.024.069-.025.068-.026.068-.026.069-.027.067-.028.067-.029.066-.03.067-.03.065-.031.066-.033.065-.032.064-.034.064-.034.064-.035.062-.036.063-.036.062-.038.062-.037.061-.039.061-.04.06-.04.059-.04.06-.042.058-.043.058-.042.058-.044.057-.044.056-.045.056-.045.055-.047.055-.047.055-.048.053-.048.053-.048.053-.05.052-.05.05-.05.051-.052.051-.052.049-.052.049-.053.048-.053.047-.054.047-.056.047-.055.045-.056.045-.056.044-.057.044-.058.043-.058.042-.059.042-.059.04-.059.04-.061.04-.06.039-.061.037-.062.038-.062.036-.063.036-.063.035-.063.034-.064.034-.065.032-.064.033-.066.031-.066.03-.065.03-.067.029-.067.028-.068.027-.067.026-.068.026-.07.025-.069.024-.069.023-.07.022-.069.022-.071.02-.071.02-.071.019-.072.018-.072.017-.072.017-.073.015-.073.015-.073.013-.074.013-.074.012-.074.011-.075.01-.074.009-.075.008-.076.007-.076.006-.075.006-.076.004-.078.004-.077.002-.077.001-.077L18 14l-.001-.077-.001-.076-.002-.076-.004-.075-.004-.076-.005-.076-.006-.074-.007-.075-.008-.076-.009-.074-.01-.073-.01-.073-.012-.073-.012-.074-.013-.072-.015-.072-.015-.073-.016-.072-.016-.072-.018-.07-.018-.07-.019-.07-.021-.071-.021-.07-.021-.068-.023-.07-.023-.068-.024-.068-.025-.069-.026-.067-.026-.067-.027-.066-.029-.067-.029-.066-.029-.065-.031-.065-.031-.065-.031-.063-.033-.065-.034-.063-.034-.063-.035-.063-.035-.061-.037-.062-.037-.061-.037-.06-.038-.06-.039-.06-.041-.06-.04-.058-.041-.058-.041-.057-.043-.058-.043-.056-.044-.056-.045-.056-.045-.055-.045-.054-.046-.054-.048-.054-.047-.052-.048-.053-.049-.051-.05-.051-.05-.051-.05-.05-.052-.049-.051-.049-.052-.048-.054-.048-.053-.046-.054-.047-.055-.045-.055-.045-.055-.045-.056-.043-.057-.043-.057-.042-.058-.042-.058-.041-.059-.041-.059-.039-.06-.039-.06-.038-.061-.038-.061-.037-.061-.036-.063-.036-.062-.034-.063-.034-.063-.033-.064-.033-.064-.032-.065-.031-.065-.03-.066-.029-.065-.029-.067-.028-.067-.027-.067-.027-.067-.025-.068-.025-.068-.024-.069-.023-.069-.023-.069-.021-.07-.021-.07-.02-.07-.019-.071-.018-.071-.018-.072-.016-.072-.016-.072-.015-.072-.014-.073-.013-.073-.012-.073-.012-.074-.01-.074-.01-.074-.008-.074-.008-.075-.007-.075-.006-.075-.005-.076-.004-.076-.003-.069-.002-.339-.001L11.081 8H10V6h1.082z"/><path d="M6 7l5-4v8L6 7z"/></svg>