<?xml version="1.0" encoding="UTF-8" standalone="no"?><!DOCTYPE svg PUBLIC "-//W3C//DTD SVG 1.1//EN" "http://www.w3.org/Graphics/SVG/1.1/DTD/svg11.dtd"><svg viewBox="0 0 24 24" xmlns="http://www.w3.org/2000/svg" fill-rule="evenodd" clip-rule="evenodd" stroke-linejoin="round" stroke-miterlimit="1.414" width="24" height="24"><path d="M14.001 7h-1.082l-.727.001-.339.001-.069.002-.076.003-.076.004-.075.005-.075.006-.075.007-.074.008-.074.008-.074.01-.074.01-.073.012-.073.012-.073.013-.072.014-.073.015-.071.016-.072.016-.07.018-.071.018-.071.019-.07.02-.07.021-.069.021-.069.023-.069.023-.068.024-.068.025-.067.025-.067.027-.067.027-.066.028-.066.029-.066.029-.065.03-.064.031-.065.032-.064.032-.063.034-.063.034-.063.035-.061.035-.062.036-.061.037-.061.037-.06.039-.06.039-.059.039-.059.041-.058.041-.058.042-.057.042-.056.043-.057.044-.056.044-.054.045-.055.045-.054.047-.053.046-.054.048-.052.048-.051.049-.052.049-.05.05-.05.051-.05.051-.049.051-.048.053-.048.052-.046.053-.047.055-.046.054-.044.055-.045.055-.044.057-.043.057-.042.056-.042.058-.041.058-.041.059-.039.059-.039.059-.039.061-.038.06-.037.062-.036.061-.035.061-.035.063-.034.063-.034.063-.032.064-.032.064-.032.065-.03.065-.029.065-.029.066-.029.067-.027.066-.026.067-.026.067-.025.068-.024.069-.024.069-.022.068-.021.069-.022.071-.019.069-.02.07-.018.072-.018.07-.016.071-.016.072-.015.072-.014.073-.014.073-.012.072-.011.073-.011.074-.01.074-.009.074-.008.075-.007.075-.006.074-.005.075-.004.076-.004.076-.002.077-.002.076v.154l.002.077.002.077.004.077.004.077.006.076.006.076.007.077.008.075.009.075.01.075.011.074.012.074.013.074.013.074.015.073.015.073.017.072.017.073.018.073.019.07.02.072.02.071.022.07.022.071.023.07.024.068.025.069.026.07.026.068.027.067.028.068.029.066.03.067.03.067.032.066.031.064.033.065.034.065.034.064.035.063.036.063.037.064.037.061.037.062.039.061.04.06.04.061.04.059.042.059.042.059.043.058.044.058.044.057.045.056.045.056.047.056.047.054.047.055.049.053.048.053.049.052.051.053.05.051.052.05.052.051.052.049.053.048.054.049.054.047.055.047.055.046.056.046.057.045.056.044.058.043.058.044.059.042.059.042.059.04.06.04.061.04.061.039.062.037.062.038.062.036.064.036.063.035.064.034.065.034.064.032.066.033.065.031.067.03.066.03.067.029.067.028.068.027.069.026.069.026.068.025.07.024.069.023.07.022.071.022.071.02.071.02.072.019.072.018.072.017.073.017.073.015.073.015.074.013.073.013.075.012.074.011.075.01.075.009.076.008.076.007.076.006.076.006.077.004.077.004.077.002.077.001L12 19l.078-.001.077-.001.077-.002.077-.004.077-.004.076-.006.076-.006.076-.007.076-.008.075-.009.075-.01.074-.011.075-.012.073-.013.074-.013.073-.015.073-.015.073-.017.072-.017.072-.018.072-.019.071-.02.071-.02.071-.022.07-.022.069-.023.07-.024.068-.025.069-.026.069-.026.068-.027.067-.028.067-.029.066-.03.067-.03.065-.031.066-.033.064-.032.065-.034.064-.034.063-.035.064-.036.062-.036.062-.038.062-.037.061-.039.061-.04.06-.04.059-.04.059-.042.059-.042.058-.044.058-.043.056-.044.057-.045.056-.046.055-.046.055-.047.054-.047.054-.049.053-.048.052-.049.052-.051.052-.05.05-.051.051-.053.049-.052.048-.053.049-.053.047-.055.047-.054.047-.056.045-.056.045-.056.044-.057.044-.058.043-.058.042-.059.042-.059.04-.059.04-.061.04-.06.039-.061.037-.062.037-.061.037-.064.036-.063.035-.063.034-.064.034-.065.033-.065.031-.064.032-.066.03-.067.03-.067.029-.066.028-.068.027-.067.026-.068.026-.07.025-.069.024-.068.023-.07.022-.071.022-.07.02-.071.02-.072.019-.07.018-.073.017-.073.017-.072.015-.073.015-.073.013-.074.013-.074.012-.074.011-.074.01-.075.009-.075.008-.075.007-.077.006-.076.006-.076.004-.077.004-.077.002-.077.002-.077v-.084l2 .012-.001.097-.002.103-.003.102-.004.103-.006.102-.007.102-.009.101-.009.1-.011.101-.012.1-.013.1-.015.1-.016.099-.017.098-.018.099-.02.098-.02.097-.022.098-.023.096-.024.095-.025.097-.027.095-.027.095-.029.094-.03.093-.031.093-.032.094-.033.092-.034.091-.035.091-.037.091-.038.091-.038.09-.04.088-.04.088-.042.088-.043.087-.043.087-.045.086-.046.085-.046.085-.048.084-.049.083-.049.083-.051.082-.052.082-.052.081-.053.079-.055.08-.055.079-.056.078-.058.077-.058.077-.059.076-.059.075-.061.074-.062.074-.062.073-.063.072-.064.071-.066.071-.065.07-.066.068-.068.069-.068.067-.069.067-.07.066-.071.065-.071.064-.072.063-.073.062-.074.062-.075.061-.074.059-.076.059-.077.059-.077.056-.078.057-.079.055-.079.054-.081.054-.08.052-.082.052-.082.051-.083.049-.083.049-.084.048-.085.046-.085.046-.086.045-.087.044-.087.042-.088.042-.088.04-.089.04-.089.038-.091.038-.091.036-.091.036-.091.034-.092.033-.093.032-.093.031-.094.03-.094.029-.095.027-.095.027-.096.025-.096.024-.097.023-.097.022-.097.02-.098.02-.098.018-.099.017-.099.016-.1.014-.1.014-.1.012-.101.011-.101.009-.101.009-.101.007-.102.006-.103.004-.102.003-.103.002L12 21l-.103-.001-.103-.002-.102-.003-.103-.004-.102-.006-.101-.007-.101-.009-.101-.009-.101-.011-.1-.012-.1-.014-.1-.014-.099-.016-.099-.017-.098-.018-.098-.02-.097-.02-.097-.022-.097-.023-.096-.024-.096-.025-.095-.027-.095-.027-.094-.029-.094-.03-.093-.031-.093-.032-.092-.033-.091-.034-.091-.036-.091-.036-.091-.038-.089-.038-.089-.04-.088-.04-.088-.042-.087-.042-.087-.044-.086-.045-.085-.046-.085-.046-.084-.048-.083-.049-.083-.049-.082-.051-.082-.052-.08-.052-.081-.054-.079-.054-.079-.055-.078-.057-.077-.056-.077-.059-.076-.059-.074-.059-.075-.061-.074-.062-.073-.062-.072-.063-.071-.064-.071-.065-.07-.066-.069-.067-.068-.067-.068-.069-.066-.068-.065-.07-.066-.071-.064-.071-.063-.072-.062-.073-.062-.074-.061-.074-.059-.075-.059-.076-.058-.077-.058-.077-.056-.078-.055-.079-.055-.08-.053-.079-.052-.081-.052-.082-.051-.082-.049-.083-.049-.083-.048-.084-.046-.085-.046-.085-.045-.086-.043-.087-.043-.087-.042-.088-.04-.088-.04-.088-.038-.09-.038-.091-.037-.091-.035-.091-.034-.091-.033-.092-.032-.094-.031-.093-.03-.093-.029-.094-.027-.095-.027-.095-.025-.097-.024-.095-.023-.096-.022-.098-.02-.097-.02-.098-.018-.099-.017-.098-.016-.099-.015-.1-.013-.1-.012-.1-.011-.101-.009-.1-.009-.101-.007-.102-.006-.102-.004-.103-.003-.102-.002-.103L4 13l.001-.102.002-.102.003-.1.004-.101.006-.1.007-.1.008-.101.009-.099.011-.1.012-.098.013-.099.014-.097.015-.098.017-.099.017-.096.019-.096.02-.097.021-.095.023-.096.023-.096.025-.093.025-.094.027-.094.028-.093.029-.092.031-.094.031-.09.032-.091.033-.091.035-.09.035-.09.037-.089.037-.088.038-.088.04-.088.041-.087.041-.085.043-.086.043-.085.045-.085.046-.084.046-.083.047-.083.049-.082.049-.081.05-.081.051-.08.052-.079.054-.08.054-.078.054-.076.055-.077.058-.077.057-.075.058-.074.059-.074.06-.074.061-.072.061-.072.063-.071.064-.07.064-.07.065-.068.065-.068.067-.068.067-.066.068-.065.069-.065.07-.065.07-.063.071-.062.072-.062.073-.06.073-.06.074-.059.075-.058.075-.057.077-.057.077-.056.077-.054.078-.054.079-.053.08-.052.08-.05.081-.051.081-.049.082-.048.083-.047.084-.047.083-.045.085-.044.085-.044.086-.042.086-.041.088-.041.087-.039.088-.038.088-.038.09-.036.089-.035.09-.035.091-.033.091-.032.092-.031.092-.03.093-.029.093-.027.094-.027.094-.025.094-.025.095-.023.096-.022.096-.021.096-.02.097-.019.097-.017.097-.017.098-.015.098-.014.099-.013.099-.011.099-.011.1-.009.1-.008.1-.006.101-.006.1-.004.109-.003.367-.001.729-.001H14l.001 2z"/><path d="M18 6l-5-4v8l5-4z"/></svg>