<?xml version="1.0" encoding="UTF-8" standalone="no"?><!DOCTYPE svg PUBLIC "-//W3C//DTD SVG 1.1//EN" "http://www.w3.org/Graphics/SVG/1.1/DTD/svg11.dtd"><svg viewBox="0 0 24 24" xmlns="http://www.w3.org/2000/svg" fill-rule="evenodd" clip-rule="evenodd" stroke-linejoin="round" stroke-miterlimit="1.414" width="24" height="24"><path d="M12.09 2l.091.002.089.002.09.004.089.004.089.006.089.006.088.007.088.008.088.009.087.01.087.011.087.012.086.013.086.013.086.015.085.015.085.017.084.017.085.018.083.019.083.02.083.02.083.022.082.022.081.023.081.024.081.025.08.026.08.026.079.028.079.028.078.029.078.029.077.031.077.031.076.032.076.033.075.033.074.035.075.035.073.035.073.037.073.037.071.038.072.039.071.039.07.04.069.041.069.042.068.042.068.043.067.043.067.044.065.045.066.046.064.046.064.047.063.047.063.048.061.049.062.05.06.05.06.05.059.051.058.052.058.053.057.053.056.053.055.054.055.055.054.055.053.056.052.057.052.057.051.057.05.058.049.059.048.059.048.059.047.06.046.061.045.061.044.062.043.062.043.062.042.063.041.064.04.064.039.064.038.065.037.066.037.066.035.066.035.066.034.067.032.068.032.068.031.068.03.069.029.069.028.069.027.07.026.071.025.07.024.071.023.072.022.071.022.072.02.073.019.072.018.073.017.074.016.073.014.074.014.075.013.074.012.075.01.075.01.076.008.076.008.076.006.076.005.076.004.077.003.077.001.078L19 8l-.001.098-.003.1-.004.103-.006.104-.008.106-.009.108-.012.11-.012.111-.015.114-.016.115-.017.116-.02.119-.02.12-.022.121-.024.123-.025.124-.027.125-.028.127-.029.129-.031.129-.032.131-.033.132-.035.132-.036.134-.037.136-.039.136-.039.136-.041.138-.042.139-.044.139-.044.141-.045.141-.047.141-.048.142-.048.143-.05.143-.051.144-.052.144-.052.145-.054.145-.11.291-.113.292-.117.292-.119.293-.123.292-.126.292-.128.29-.13.29-.133.288-.135.286-.137.284-.138.281-.14.278-.142.274-.142.271-.144.267-.144.262-.146.257-.072.127-.073.126-.073.124-.073.122-.073.122-.073.119-.073.118-.073.117-.073.115-.073.113-.073.111-.073.11-.072.108-.073.106-.072.104-.072.102-.072.1-.071.098-.071.096-.071.094-.071.091-.07.089-.07.088-.07.084-.069.083-.069.08-.068.077-.068.075-.067.073-.067.07-.067.067-.065.065-.065.062-.065.059-.064.056-.063.053-.063.051-.062.048-.061.044-.061.042-.059.039-.059.035-.059.032-.057.029-.057.026-.055.023-.055.019-.027.008-.027.008-.027.006-.026.006-.026.005-.026.004-.026.003-.025.002-.025.002h-.05l-.025-.002-.025-.002-.026-.003-.026-.004-.026-.004-.053-.012-.054-.015-.055-.018-.055-.021-.057-.025-.057-.027-.059-.031-.059-.034-.059-.036-.061-.04-.061-.042-.062-.045-.063-.049-.063-.05-.064-.054-.065-.056-.065-.059-.065-.062-.067-.064-.067-.067-.067-.069-.068-.071-.068-.074-.069-.077-.069-.079-.07-.081-.07-.083-.07-.085-.071-.088-.071-.09-.071-.092-.071-.094-.072-.096-.072-.098-.072-.1-.073-.101-.072-.104-.073-.106-.073-.107-.073-.109-.073-.11-.073-.113-.073-.114-.073-.115-.073-.117-.073-.119-.073-.12-.073-.121-.072-.123-.073-.124-.073-.126-.072-.126-.072-.128-.072-.129-.072-.13-.142-.264-.142-.268-.14-.271-.138-.275-.137-.278-.135-.281-.133-.283-.13-.286-.128-.287-.063-.144-.063-.145-.062-.145-.061-.145-.06-.145-.059-.146-.059-.145-.058-.146-.057-.146-.056-.146-.056-.146-.054-.145-.054-.146-.052-.145-.052-.146-.051-.145-.05-.145-.048-.144-.048-.144-.047-.144-.045-.144-.044-.143-.044-.142-.042-.142-.041-.141-.039-.141-.039-.14-.037-.139-.036-.139-.035-.138-.033-.137-.032-.136-.031-.135-.029-.135-.028-.133-.027-.132-.025-.131-.024-.131-.022-.129-.02-.127-.02-.127-.017-.125-.016-.124-.015-.123-.012-.122-.012-.119-.009-.119-.008-.117-.006-.115-.004-.114-.003-.112L5 8l.001-.077.001-.078.003-.077.004-.077.005-.076.006-.076.008-.076.008-.076.01-.076.01-.075.012-.075.013-.074.014-.075.014-.074.016-.073.017-.074.018-.073.019-.072.02-.073.022-.072.022-.071.023-.072.024-.071.025-.07.026-.071.027-.07.028-.069.029-.069.03-.069.031-.068.032-.068.032-.068.034-.067.035-.066.035-.066.037-.066.037-.066.038-.065.039-.064.04-.064.041-.064.042-.063.043-.062.043-.062.044-.062.045-.061.046-.061.047-.06.048-.059.048-.059.049-.059.05-.058.051-.057.052-.057.052-.057.053-.056.054-.055.055-.055.055-.054.056-.053.057-.053.058-.053.058-.052.059-.051.06-.05.06-.05.062-.05.061-.049.063-.048.063-.047.064-.047.064-.046.066-.046.065-.045.067-.044.067-.043.068-.043.068-.042.069-.042.069-.041.07-.04.071-.039.072-.039.071-.038.073-.037.073-.037.073-.035.075-.035.074-.035.075-.033.076-.033.076-.032.077-.031.077-.031.078-.029.078-.029.079-.028.079-.028.08-.026.08-.026.081-.025.081-.024.081-.023.082-.022.083-.022.083-.02.083-.02.083-.019.085-.018.084-.017.085-.017.085-.015.086-.015.086-.013.086-.013.087-.012.087-.011.087-.01.088-.009.088-.008.088-.007.089-.006.089-.006.089-.004.09-.004.089-.002L11.91 2h.18zm-.159 2l-.068.002-.068.001-.068.003-.068.003-.067.004-.067.005-.067.006-.066.006-.066.006-.066.008-.066.008-.064.009-.065.01-.065.01-.064.011-.064.011-.064.013-.062.012-.063.014-.064.014-.061.015-.062.015-.061.016-.061.017-.06.017-.061.018-.06.019-.059.019-.059.019-.058.02-.059.021-.057.021-.057.022-.057.022-.057.023-.056.024-.056.024-.054.025-.055.024-.054.026-.053.026-.054.027-.053.027-.051.027-.052.028-.052.029-.05.029-.051.03-.049.029-.049.03-.048.031-.049.031-.047.032-.047.032-.047.033-.044.032-.046.033-.046.035-.044.034-.043.034-.042.034-.043.035-.043.036-.041.036-.039.035-.041.037-.039.037-.039.036-.038.038-.039.038-.037.038-.035.038-.036.038-.035.039-.035.04-.034.039-.033.039-.032.039-.032.04-.031.041-.032.041-.029.04-.029.04-.029.041-.029.043-.027.041-.027.041-.026.042-.025.042-.025.041-.024.043-.024.043-.022.042-.023.043-.021.042-.021.044-.02.044-.02.043-.019.043-.018.044-.018.044-.017.043-.016.044-.016.044-.015.045-.014.045-.014.043-.013.045-.013.046-.011.044-.011.045-.011.047-.01.045-.009.044-.008.045-.008.048-.008.046-.006.045-.006.046-.005.047-.004.046-.004.047-.003.048-.003.048-.002.046L7 7.952V8l.001.079.002.081.003.084.005.089.006.09.007.091.009.096.01.098.012.098.013.102.015.105.016.106.017.107.019.11.02.112.022.113.023.115.024.117.026.118.027.119.029.121.029.122.031.123.033.125.033.126.035.126.036.128.038.128.038.13.04.13.04.131.042.132.043.133.044.133.045.134.046.133.047.135.048.136.049.134.05.136.051.136.052.136.052.137.053.135.055.137.055.137.055.136.057.137.057.136.058.136.059.136.058.133.122.272.122.268.125.267.127.263.128.262.13.257.131.255.133.25.134.249.066.119.066.119.067.119.068.118.067.117.067.114.067.113.067.112.067.11.067.109.067.107.066.105.066.103.067.102.065.1.066.097.065.096.064.094.064.091.065.091.062.087.062.084.062.082.061.081.06.077.06.075.059.073.057.07.056.066.055.065.054.061.052.058.051.056.016.016.028-.031.053-.059.052-.062.055-.065.056-.069.057-.07.058-.074.059-.077.06-.079.061-.082.062-.085.063-.087.062-.088.064-.092.065-.095.064-.096.065-.099.066-.1.066-.102.066-.104.067-.107.067-.108.066-.109.068-.113.068-.113.067-.114.068-.117.066-.115.136-.243.136-.245.134-.25.134-.254.134-.259.132-.263.13-.265.13-.268.127-.27.126-.273.123-.274.121-.275.119-.275.116-.277.113-.276.11-.275.107-.274.104-.276.049-.134.049-.134.049-.135.047-.135.046-.133.045-.133.045-.132.043-.132.042-.129.041-.13.04-.128.038-.127.038-.126.036-.125.035-.123.033-.122.033-.121.031-.119.03-.117.028-.117.027-.113.026-.112.024-.111.023-.109.022-.107.02-.104.019-.102.017-.1.015-.097.015-.095.013-.093.011-.088.01-.088.009-.083.007-.079.005-.078.005-.075.003-.07.001-.065.001-.064v-.047l-.001-.048-.002-.046-.003-.048-.003-.048-.004-.047-.004-.046-.005-.047-.006-.046-.006-.045-.008-.046-.008-.048-.008-.045-.009-.044-.01-.045-.011-.047-.011-.045-.011-.044-.013-.046-.013-.045-.014-.043-.014-.045-.015-.045-.016-.044-.016-.044-.017-.043-.018-.044-.018-.044-.019-.043-.02-.043-.02-.044-.021-.044-.021-.042-.023-.043-.022-.042-.024-.043-.024-.043-.025-.041-.025-.042-.026-.042-.027-.041-.027-.041-.029-.043-.029-.041-.029-.04-.029-.04-.032-.041-.031-.041-.032-.04-.032-.039-.033-.039-.034-.039-.035-.04-.035-.039-.036-.038-.035-.038-.037-.038-.039-.038-.038-.038-.039-.036-.039-.037-.041-.037-.039-.035-.041-.036-.043-.036-.043-.035-.042-.034-.043-.034-.044-.034-.046-.035-.046-.033-.044-.032-.047-.033-.047-.032-.047-.032-.049-.031-.048-.031-.049-.03-.049-.029-.051-.03-.05-.029-.052-.029-.052-.028-.051-.027-.053-.027-.054-.027-.053-.026-.054-.026-.055-.024-.054-.025-.056-.024-.056-.024-.057-.023-.057-.022-.057-.022-.057-.021-.059-.021-.058-.02-.059-.019-.059-.019-.06-.019-.061-.018-.06-.017-.061-.017-.061-.016-.062-.015-.061-.015-.064-.014-.063-.014-.062-.012-.064-.013-.064-.011L13 4.081l-.065-.01-.065-.01-.064-.009-.066-.008-.066-.008-.066-.006-.066-.006-.067-.006-.067-.005-.067-.004-.068-.003-.068-.003-.068-.001L12.069 4h-.138z"/><circle cx="12" cy="9" r="3"/></svg>