<?xml version="1.0" encoding="UTF-8" standalone="no"?><!DOCTYPE svg PUBLIC "-//W3C//DTD SVG 1.1//EN" "http://www.w3.org/Graphics/SVG/1.1/DTD/svg11.dtd"><svg viewBox="0 0 24 24" xmlns="http://www.w3.org/2000/svg" fill-rule="evenodd" clip-rule="evenodd" stroke-linejoin="round" stroke-miterlimit="1.414" width="24" height="24"><path d="M12.897 2.001l.128.002.128.004.128.006.128.007.127.009.126.011.127.012.125.013.126.015.125.017.124.018.124.02.123.021.123.023.122.024.122.026.122.027.12.029.12.03.12.032.119.033.118.034.118.036.117.037.117.039.116.04.115.041.115.043.114.045.113.045.112.047.112.048.111.049.111.051.109.052.11.054.108.054.107.056.107.057.106.059.105.059.104.061.103.062.103.063.102.065.101.066.1.066.099.068.099.069.097.071.097.071.096.073.095.073.094.075.093.076.092.077.091.078.09.079.089.08.089.081.087.083.086.083.086.084.084.085.083.087.082.087.081.088.081.09.079.09.078.091.077.092.076.093.074.094.074.095.073.096.071.096.07.098.069.098.068.1.067.1.066.101.064.102.064.102.062.104.06.104.06.105.059.106.057.107.056.107.054.108.053.109.053.11.05.11.05.112.048.111.047.113.045.113.044.114.043.115.042.115.04.116.038.117.038.117.036.117.034.119.033.119.032.119.03.121.029.12.027.122.025.121.025.123.023.123.021.123.02.124.018.124.016.125.016.125.013.126.012.126.011.127.009.127.007.128.005.127.004.128.003.129.001.129-.001.129-.003.129-.004.128-.005.127-.007.128-.009.127-.011.127-.012.126-.013.126-.016.125-.016.125-.018.124-.02.124-.021.123-.023.123-.025.123-.025.121-.027.122-.029.12-.03.12-.032.12-.033.119-.034.119-.036.118-.038.117-.038.116-.04.116-.042.115-.043.115-.044.114-.045.113-.047.113-.048.111-.05.112-.05.11-.053.11-.053.109-.054.108-.056.107-.058.107-.058.106-.06.105-.06.104-.062.104-.064.102-.064.102-.066.101-.067.1-.068.1-.069.098-.07.098-.071.096-.073.096-.074.095-.074.094-.076.093-.077.092-.078.091-.079.09-.08.09-.082.088-.082.087-.083.086-.084.086-.086.084-.086.083-.087.082-.089.082-.089.08-.09.079-.091.078-.092.077-.093.076-.094.075-.095.073-.096.073-.097.071-.097.07-.098.07-.1.068-.1.067-.101.065-.102.065-.103.063-.103.062-.104.061-.105.059-.106.059-.107.057-.107.056-.109.054-.109.054-.109.052-.111.051-.111.049-.112.048-.112.047-.114.046-.113.044-.115.042-.115.042-.116.04-.117.039-.117.037-.118.036-.118.034-.119.033-.12.032-.12.03-.121.029-.121.027-.122.026-.122.024-.123.023-.123.021-.124.02-.125.018-.124.017-.126.015-.125.013-.127.012-.126.011-.127.009-.128.007-.128.006-.128.004-.128.002-.129.001-.129-.001-.129-.002-.128-.004-.128-.006-.127-.007-.127-.009-.127-.011-.126-.012-.126-.013-.125-.015-.125-.017-.124-.018-.124-.02-.123-.021-.123-.023-.123-.024-.122-.026-.121-.027-.121-.029-.12-.03-.119-.032-.119-.033-.119-.034-.118-.036-.117-.037-.116-.039-.116-.04-.116-.042-.114-.042-.114-.044-.113-.046-.113-.047-.112-.048-.111-.049-.11-.051-.11-.052-.109-.054-.108-.054-.108-.056-.106-.057-.106-.059-.105-.059-.105-.061-.103-.062-.103-.063-.102-.065-.1-.065-.101-.067-.099-.068-.099-.07-.097-.07-.097-.071-.095-.073-.095-.073-.094-.075-.093-.076-.092-.077-.091-.078-.091-.079-.089-.08-.088-.081-.087-.083-.087-.083-.085-.084-.084-.085-.084-.087-.082-.087-.081-.088-.08-.09-.079-.09-.078-.091-.077-.092-.076-.093-.075-.094-.073-.095-.073-.096-.071-.096-.071-.098-.069-.098-.068-.099-.067-.101-.065-.101-.065-.102-.063-.102-.062-.104-.061-.104-.059-.105-.059-.106-.057-.107-.056-.107-.055-.108-.053-.109-.052-.11-.051-.11-.049-.112-.048-.111-.047-.113-.046-.113-.044-.114-.043-.115-.041-.115-.04-.116-.039-.116-.037-.118-.036-.118-.034-.118-.034-.119-.031-.12-.03-.12-.029-.12-.027-.122-.026-.122-.024-.122-.023-.122-.021-.124-.02-.124-.018-.124-.017-.125-.015-.125-.014-.126-.012-.127-.01-.126-.009-.127-.007-.127-.006-.128-.004-.129-.002-.128-.001-.123 2-.012v.11l.002.103.004.103.004.102.006.102.007.102.009.102.009.1.011.101.012.1.013.1.015.1.016.099.017.098.018.098.019.098.021.097.022.097.023.097.024.096.025.095.026.095.028.095.029.094.029.093.031.093.032.093.033.092.034.092.036.09.036.091.037.09.039.089.039.089.041.089.042.087.042.087.044.087.045.086.045.085.047.085.048.084.048.083.05.083.051.082.051.082.053.08.053.08.055.08.055.079.056.078.057.077.059.077.059.076.059.075.061.075.062.074.062.073.064.072.064.072.065.07.066.07.067.069.067.069.068.067.07.067.07.066.07.065.072.064.072.063.073.063.074.062.074.06.076.06.076.059.076.058.078.057.078.057.079.055.079.055.08.053.081.053.082.051.082.051.083.049.083.049.084.048.085.046.085.046.086.045.086.043.088.043.087.042.088.04.089.04.09.038.09.038.09.036.091.035.092.035.092.033.092.032.093.03.094.03.094.029.095.027.095.027.095.025.096.024.096.023.097.022.098.02.097.02.098.018.099.017.099.016.099.014.1.014.101.012.1.011.101.009.102.009.101.007.102.006.103.004.103.003.103.002.104.001.103-.001.103-.002.103-.003.103-.004.102-.006.102-.007.101-.009.101-.009.101-.011.1-.012.1-.014.099-.014.099-.016.099-.017.098-.018.098-.02.097-.02.097-.022.096-.023.096-.024.096-.025.095-.027.094-.027.094-.029.094-.03.093-.03.093-.032.092-.033.091-.035.091-.035.091-.036.09-.038.089-.038.089-.04.088-.04.088-.042.087-.043.086-.043.086-.045.086-.046.084-.046.084-.048.084-.049.083-.049.082-.051.081-.051.081-.053.08-.053.08-.055.079-.055.078-.057.077-.057.077-.058.076-.059.075-.06.074-.06.074-.062.074-.063.072-.063.071-.064.071-.065.07-.066.069-.067.068-.067.068-.069.067-.069.066-.07.065-.07.064-.072.063-.072.063-.073.061-.074.061-.075.06-.075.059-.076.058-.076.057-.078.057-.078.055-.079.054-.079.054-.081.052-.08.052-.082.05-.082.05-.083.049-.084.048-.083.046-.085.046-.085.045-.086.043-.087.043-.087.042-.088.04-.088.04-.089.038-.089.038-.09.036-.09.035-.091.034-.092.033-.092.032-.092.031-.094.03-.093.029-.094.027-.095.027-.095.025-.095.024-.096.023-.097.022-.097.02-.097.02-.098.018-.098.017-.098.015-.099.015-.1.013-.1.012-.1.011-.101.01-.101.008-.101.007-.102.006-.102.005-.102.003-.103.002-.104.001-.103-.001-.103-.002-.104-.003-.103-.005-.102-.006-.102-.007-.102-.008-.101-.01-.101-.011-.101-.012-.1-.013-.1-.015-.1-.015-.099-.017-.098-.018-.098-.02-.098-.02-.098-.022-.096-.023-.097-.024-.096-.025-.095-.027-.095-.027-.095-.029-.094-.03-.093-.031-.094-.032-.092-.033-.092-.034-.092-.035-.091-.036-.09-.038-.09-.038-.089-.04-.089-.04-.088-.042-.088-.043-.087-.043-.087-.045-.086-.046-.085-.046-.085-.048-.084-.049-.083-.05-.083-.05-.082-.052-.082-.052-.081-.054-.08-.054-.079-.055-.079-.057-.078-.057-.078-.058-.076-.059-.076-.06-.075-.061-.075-.061-.074-.063-.073-.063-.072-.064-.071-.065-.071-.066-.07-.067-.069-.068-.069-.068-.067-.069-.067-.07-.066-.071-.065-.071-.064-.072-.063-.074-.063-.073-.062-.075-.06-.075-.06-.076-.059-.077-.058-.077-.057-.078-.057-.079-.055-.08-.055-.08-.053-.081-.053-.081-.051-.082-.051-.083-.049-.084-.049-.084-.048-.084-.046-.086-.046-.086-.045-.086-.044-.087-.042-.088-.042-.088-.04-.089-.04-.089-.038-.09-.038-.091-.036-.091-.035-.091-.034-.092-.034-.093-.032-.093-.031-.093-.029-.094-.029-.095-.027-.095-.027-.096-.025-.096-.024-.096-.023-.097-.022-.097-.02-.098-.02-.098-.018-.099-.017-.099-.016-.099-.014-.1-.014-.1-.012-.101-.011-.101-.009-.101-.009-.102-.007-.102-.006-.103-.004-.102-.003-.104-.002L12.769 4l-.139.001-.137.004-.137.005-.136.008-.135.011-.135.012-.134.015-.133.017-.133.019-.132.021-.131.024-.13.025-.129.028-.129.03-.128.032-.127.033-.127.036-.125.038-.124.04-.124.042-.123.044-.122.045-.121.048-.12.05-.118.051-.118.053-.117.055-.116.057-.115.059-.114.061-.113.062-.111.064-.111.066-.109.068-.108.069-.107.071-.106.073-.104.074-.104.076-.102.077-.101.079-.099.081-.098.082-.097.084-.096.085-.094.087-.092.088-.092.09-.089.091-.089.093-.087.094-.085.095-.084.097-.082.098-.081.099-.08.101-.077.102-.076.103-.075.105-.072.105-.072.107-.069.108-.068.109-.07.117-1.716-1.026.078-.131.085-.137.087-.135.088-.133.091-.132.093-.131.095-.129.097-.127.099-.126.101-.123.103-.123.105-.121.106-.119.109-.117.11-.115.112-.114.114-.112.116-.11.117-.109.119-.106.121-.104.123-.103.124-.101.126-.099.127-.096.129-.095.131-.093.132-.091.134-.089.135-.086.136-.084.138-.083.14-.08.141-.078.142-.076.144-.073.145-.072.146-.069.148-.066.149-.065.15-.062.151-.059.153-.058.153-.054.155-.053.156-.05.157-.047.158-.045.16-.043.16-.039.161-.037.162-.035.163-.032.164-.029.165-.027.166-.024.166-.021.168-.018.168-.016.169-.013.17-.01.17-.007.171-.005.171-.001.13.001z"/><path d="M4.053 8.005l6.311-.444-5.657-5.657-.654 6.101z"/><path fill-rule="nonzero" d="M12 12h6v2h-6z"/><path fill-rule="nonzero" d="M12 8h2v6h-2z"/></svg>