<?xml version="1.0" encoding="UTF-8" standalone="no"?><!DOCTYPE svg PUBLIC "-//W3C//DTD SVG 1.1//EN" "http://www.w3.org/Graphics/SVG/1.1/DTD/svg11.dtd"><svg viewBox="0 0 24 24" xmlns="http://www.w3.org/2000/svg" fill-rule="evenodd" clip-rule="evenodd" stroke-linejoin="round" stroke-miterlimit="1.414" width="24" height="24"><path d="M12.939 2.001l.171.005.171.007.169.01.169.013.169.016.167.018.167.021.165.024.165.027.164.029.164.032.162.035.161.037.16.039.159.043.158.045.157.047.156.05.155.053.154.054.152.058.152.059.15.062.149.065.147.066.147.069.145.072.143.073.143.076.141.078.139.08.138.082.137.085.135.087.133.088.133.091.13.093.129.094.128.097.126.099.124.101.122.103.121.104.119.106.118.109.115.11.114.112.112.114.111.115.108.117.107.119.105.121.102.122.101.124.099.126.097.127.095.129.093.131.091.132.089.133.087.135.084.137.079.131-1.717 1.026-.07-.117-.067-.109-.07-.108-.071-.107-.073-.105-.074-.105-.076-.103-.078-.102-.079-.101-.081-.099-.082-.098-.084-.097-.086-.095-.087-.094-.088-.093-.09-.091-.091-.09-.093-.088-.094-.087-.095-.085-.097-.084-.098-.082-.1-.081-.101-.079-.102-.077-.103-.076-.105-.074-.105-.073-.107-.071-.109-.069-.109-.068-.11-.066-.112-.064-.113-.062-.113-.061-.115-.059-.116-.057-.117-.055-.118-.053-.119-.051-.12-.05-.121-.048-.122-.045-.123-.044-.123-.042-.125-.04-.125-.038-.126-.036-.127-.033-.128-.032-.129-.03-.13-.028-.13-.025-.131-.024-.132-.021-.132-.019-.134-.017-.134-.015-.134-.012-.135-.011-.136-.008-.137-.005-.137-.004L12.767 4l-.103.001-.103.002-.103.003-.102.004-.102.006-.102.007-.102.009-.101.009-.1.011-.101.012-.099.014-.1.014-.099.016-.099.017-.098.018-.098.02-.097.02-.096.022-.097.023-.096.024-.095.025-.095.027-.095.027-.094.029-.094.03-.093.03-.092.032-.092.034-.092.034-.091.035-.09.036-.09.038-.09.038-.089.04-.088.04-.087.042-.087.042-.087.044-.086.045-.085.046-.085.046-.084.048-.083.049-.083.049-.082.051-.082.051-.081.053-.08.053-.079.055-.079.055-.078.056-.077.058-.077.058-.076.059-.076.06-.074.061-.074.061-.073.063-.072.063-.072.064-.07.065-.07.066-.069.067-.069.067-.067.069-.067.069-.066.07-.065.071-.064.071-.064.072-.062.073-.062.074-.06.075-.06.075-.059.076-.059.077-.057.077-.056.078-.055.079-.055.079-.053.081-.053.08-.051.082-.051.082-.05.083-.048.083-.048.084-.047.085-.045.085-.045.086-.044.087-.042.087-.042.088-.041.088-.039.089-.039.089-.037.09-.036.09-.036.091-.034.092-.033.092-.032.093-.031.093-.029.093-.029.094-.028.095-.026.095-.025.095-.024.096-.023.097-.022.096-.021.098-.019.098-.018.098-.017.098-.016.1-.015.099-.013.1-.012.1-.011.101-.009.1-.009.102-.007.102-.006.102-.004.102-.004.103-.002.103v.208l.002.103.004.103.004.102.006.102.007.102.009.102.009.1.011.101.012.1.013.1.015.099.016.1.017.098.018.098.019.098.021.097.022.097.023.097.024.096.025.095.026.095.028.095.029.094.029.093.031.093.032.093.033.092.034.092.036.09.036.091.037.09.039.089.039.089.041.088.042.088.042.087.044.087.045.086.045.085.047.085.048.084.048.083.05.083.051.082.051.082.053.08.053.081.055.079.055.079.056.078.057.077.059.077.059.076.059.075.061.075.062.074.062.073.064.072.064.071.065.071.066.07.067.069.067.069.068.067.07.067.07.066.07.065.072.064.072.063.073.063.074.062.074.06.076.06.076.059.076.058.078.058.078.056.079.055.079.055.08.053.081.053.082.051.082.051.083.049.083.049.084.048.085.046.085.046.086.045.087.044.087.042.087.042.088.04.089.04.09.038.09.038.09.036.091.035.092.035.092.033.092.032.093.03.094.03.094.029.095.027.095.027.095.025.096.024.096.023.097.022.098.02.097.02.098.018.099.017.099.016.099.014.1.014.101.012.1.011.101.009.102.009.101.007.102.006.103.004.103.003.103.002.104.001.103-.001.103-.002.103-.003.103-.004.102-.006.102-.007.101-.009.101-.009.101-.011.1-.012.1-.014.1-.014.098-.016.099-.017.098-.018.098-.02.097-.02.097-.022.096-.023.096-.024.096-.025.095-.027.094-.027.094-.029.094-.03.093-.03.093-.032.092-.033.091-.035.091-.035.091-.036.09-.038.089-.038.089-.04.088-.04.088-.042.087-.042.086-.044.086-.045.086-.046.084-.046.084-.048.084-.049.083-.049.082-.051.081-.051.081-.053.08-.054.08-.054.079-.055.078-.057.077-.057.077-.058.076-.059.075-.06.074-.06.074-.062.074-.063.072-.063.071-.064.071-.065.07-.066.069-.067.068-.067.068-.069.067-.069.066-.07.065-.07.064-.072.063-.072.063-.073.061-.074.061-.075.06-.075.059-.076.058-.076.057-.078.057-.078.055-.079.054-.079.054-.081.052-.08.052-.082.05-.082.05-.083.049-.084.048-.083.046-.085.046-.085.045-.086.043-.087.043-.087.042-.088.04-.088.04-.089.038-.089.038-.09.036-.09.035-.091.034-.092.033-.092.032-.092.031-.094.03-.093.029-.094.027-.095.027-.095.025-.095.024-.096.023-.097.022-.097.02-.097.02-.098.018-.098.017-.098.015-.099.015-.1.013-.1.013-.1.01-.101.01-.101.008-.101.007-.102.006-.102.005-.102.003-.103.002-.104.001-.109 2 .012-.001.123-.003.129-.004.128-.005.127-.007.128-.009.127-.011.127-.012.126-.013.126-.016.125-.016.125-.018.124-.02.124-.021.123-.023.123-.025.123-.025.121-.027.122-.029.12-.03.12-.032.12-.033.119-.034.119-.036.118-.038.117-.038.116-.04.116-.042.115-.043.115-.044.114-.045.113-.047.113-.048.111-.05.112-.05.11-.053.11-.053.109-.054.108-.056.107-.058.107-.058.106-.06.105-.06.104-.062.104-.064.102-.064.102-.066.101-.067.1-.068.1-.069.098-.07.098-.071.096-.073.096-.074.095-.075.094-.075.093-.077.092-.078.091-.079.09-.08.09-.082.088-.082.087-.083.086-.084.086-.086.084-.086.083-.087.082-.089.082-.089.08-.09.079-.091.078-.092.077-.093.076-.094.075-.095.073-.096.073-.096.071-.098.07-.098.07-.1.068-.1.067-.101.065-.102.065-.103.063-.103.062-.104.061-.105.059-.106.059-.107.057-.107.056-.109.054-.108.054-.11.052-.111.051-.111.049-.112.048-.112.047-.114.046-.113.044-.115.042-.115.042-.116.04-.117.039-.117.037-.118.036-.118.034-.119.033-.12.032-.12.03-.121.029-.121.027-.122.026-.122.024-.123.023-.123.021-.124.02-.125.018-.124.017-.126.015-.125.013-.127.012-.126.011-.127.009-.128.007-.128.006-.128.004-.128.002-.129.001-.129-.001-.129-.002-.128-.004-.128-.006-.127-.007-.127-.009-.127-.011-.126-.012-.126-.013-.125-.015-.125-.017-.124-.018-.124-.02-.124-.021-.122-.023-.123-.024-.122-.026-.121-.027-.121-.029-.12-.03-.119-.032-.119-.033-.119-.034-.118-.036-.117-.037-.116-.039-.116-.04-.116-.042-.114-.042-.114-.044-.113-.046-.113-.047-.112-.048-.111-.049-.11-.051-.11-.052-.109-.054-.108-.054-.107-.056-.107-.057-.106-.059-.105-.059-.105-.061-.103-.062-.103-.064-.102-.064-.1-.065-.101-.067-.099-.068-.099-.07-.097-.07-.097-.071-.095-.073-.095-.073-.094-.075-.093-.076-.092-.077-.091-.078-.091-.079-.089-.08-.088-.081-.087-.083-.087-.083-.085-.084-.084-.085-.084-.087-.082-.087-.081-.088-.08-.089-.079-.091-.078-.091-.077-.092-.076-.093-.075-.094-.073-.095-.073-.096-.071-.096-.071-.098-.069-.098-.068-.1-.067-.1-.065-.101-.065-.102-.063-.102-.062-.104-.061-.104-.06-.105-.058-.106-.057-.107-.056-.107-.055-.108-.053-.109-.052-.11-.051-.11-.049-.112-.048-.111-.047-.113-.046-.113-.044-.114-.043-.115-.041-.115-.04-.116-.039-.116-.037-.118-.036-.118-.034-.118-.034-.119-.031-.12-.03-.12-.029-.12-.027-.122-.026-.121-.024-.123-.023-.123-.021-.123-.02-.124-.018-.124-.017-.125-.015-.125-.014-.126-.012-.127-.01-.126-.009-.127-.007-.127-.006-.128-.004-.129-.002-.128L2.768 12l.001-.129.002-.128.004-.129.006-.128.007-.127.009-.127.01-.126.012-.127.014-.126.015-.125.017-.125.018-.124.02-.124.021-.123.023-.123.024-.123.026-.121.027-.122.029-.12.03-.121.032-.119.033-.119.034-.118.036-.118.037-.117.039-.117.04-.116.041-.115.043-.115.044-.114.046-.113.047-.113.048-.111.049-.112.051-.11.052-.11.053-.109.055-.108.056-.107.057-.107.058-.106.06-.105.061-.104.062-.104.063-.102.065-.102.065-.101.067-.1.068-.1.069-.098.071-.098.071-.096.073-.096.073-.095.075-.094.076-.093.077-.092.078-.091.079-.091.08-.089.081-.088.082-.087.084-.087.084-.085.085-.084.087-.083.087-.083.088-.081.089-.08.091-.079.091-.078.092-.077.093-.076.094-.075.095-.073.095-.073.097-.071.098-.071.098-.069.099-.068.1-.066.101-.066.102-.064.103-.064.104-.062.104-.061.105-.059.106-.059.107-.057.107-.056.108-.054.109-.054.11-.052.11-.051.111-.049.112-.048.113-.047.113-.046.114-.044.115-.043.115-.041.116-.04.116-.039.118-.037.117-.036.119-.034.119-.033.119-.032.12-.03.121-.029.121-.027.122-.026.123-.024.122-.023.124-.021.124-.02.124-.018.125-.017.125-.015.126-.013.126-.012.127-.011.127-.009.127-.007.128-.006.128-.004.129-.002.13-.001.17.001z"/><path d="M21.483 8.005l-6.311-.444 5.656-5.657.655 6.101z"/><path fill-rule="nonzero" d="M12 12h6v2h-6z"/><path fill-rule="nonzero" d="M12 8h2v6h-2z"/></svg>