<?xml version="1.0" encoding="UTF-8" standalone="no"?><!DOCTYPE svg PUBLIC "-//W3C//DTD SVG 1.1//EN" "http://www.w3.org/Graphics/SVG/1.1/DTD/svg11.dtd"><svg viewBox="0 0 24 24" xmlns="http://www.w3.org/2000/svg" fill-rule="evenodd" clip-rule="evenodd" stroke-linecap="round" stroke-linejoin="round" stroke-miterlimit="1.414" width="24" height="24"><path d="M12 22l-6-6H4l-.052-.001-.051-.004-.051-.007-.05-.01-.051-.011-.049-.015-.05-.017-.049-.019-.048-.021-.049-.024-.047-.025-.047-.028-.047-.03-.046-.032-.046-.034-.045-.036-.045-.037-.044-.039-.043-.041-.043-.042-.042-.044-.042-.046-.041-.047-.04-.048-.039-.05-.039-.051-.038-.052-.038-.053-.037-.054-.035-.055-.036-.056-.034-.057-.033-.058-.033-.058-.032-.06-.031-.059-.03-.061-.029-.061-.029-.061-.027-.062-.027-.062-.025-.062-.025-.062-.023-.063-.023-.063-.022-.062-.02-.063-.02-.063-.018-.062-.018-.062-.016-.062-.015-.061-.014-.061-.013-.061-.012-.06-.01-.059-.01-.059-.008-.058-.007-.057-.006-.056-.004-.056-.003-.054-.002-.054L2 13v-2l.001-.052.002-.054.003-.054.004-.056.006-.056.007-.057.008-.058.01-.059.01-.059.012-.06.013-.061.014-.061.015-.061.016-.062.018-.062.018-.062.02-.063.02-.063.022-.062.023-.063.023-.063.025-.062.025-.062.027-.062.027-.062.029-.061.029-.061.03-.061.031-.059.032-.06.033-.058.033-.058.034-.057.036-.056.035-.055.037-.054.038-.053.038-.052.039-.051.039-.05.04-.048.041-.047.042-.046.042-.044.043-.042.043-.041.044-.039.045-.037.045-.036.046-.034.046-.032.047-.03.047-.028.047-.025.049-.024.048-.021.049-.019.05-.017.049-.015.051-.011.05-.01.051-.007.051-.004L4 8h2l6-5v19zM6.724 10h-2.35l-.016.024-.017.025-.017.027-.016.028-.018.03-.017.031-.016.03-.017.033-.018.035-.015.032-.016.034-.016.036-.015.036-.015.036-.013.033-.014.037-.013.036-.012.035-.012.036-.01.032-.01.036-.01.033-.008.032-.008.03-.006.03-.007.029-.005.026-.004.025-.004.024-.003.021-.002.018-.002.016-.001.014-.001.011v2.012l.001.017.001.014.002.016.002.018.003.021.004.024.004.025.005.026.007.029.006.03.008.03.008.032.01.033.01.036.01.032.012.036.012.036.013.035.014.037.013.033.015.036.015.036.016.036.016.034.015.032.018.035.017.033.016.03.017.031.018.03.016.028.017.027.017.025.016.024h2.454L10 17.172V7.27L6.724 10z"/><path d="M15 9.5l6 6" fill="none" stroke-width="2" stroke="#000"/><path d="M15.06 8.502c.163.014.317.058.457.142.056.034.106.073.155.116a177.142 177.142 0 0 1 6.068 6.068.995.995 0 0 1 .259.708 1.007 1.007 0 0 1-.914.96 1.006 1.006 0 0 1-.382-.041 1.049 1.049 0 0 1-.375-.215 177.142 177.142 0 0 1-6.068-6.068 1.049 1.049 0 0 1-.215-.375 1.008 1.008 0 0 1 .417-1.14 1.035 1.035 0 0 1 .598-.155z" fill-rule="nonzero"/><path d="M21.036 8.501c.163.009.318.05.461.131a1.009 1.009 0 0 1 .458 1.165 1.049 1.049 0 0 1-.215.375 177.142 177.142 0 0 1-6.068 6.068 1.03 1.03 0 0 1-.421.228 1.007 1.007 0 0 1-1.163-.558 1.01 1.01 0 0 1-.043-.708c.044-.14.119-.263.215-.374a177.142 177.142 0 0 1 6.068-6.068c.123-.107.263-.187.421-.228.063-.016.126-.025.191-.03.048-.002.048-.002.096-.001z" fill-rule="nonzero"/></svg>