<?xml version="1.0" encoding="UTF-8" standalone="no"?><!DOCTYPE svg PUBLIC "-//W3C//DTD SVG 1.1//EN" "http://www.w3.org/Graphics/SVG/1.1/DTD/svg11.dtd"><svg viewBox="0 0 24 24" xmlns="http://www.w3.org/2000/svg" fill-rule="evenodd" clip-rule="evenodd" stroke-linejoin="round" stroke-miterlimit="1.414" width="24" height="24"><path d="M11.022 14.978c.01-.571.081-1.481.21-1.812.13-.331.395-.698.795-1.102l1.021-.971c.19-.586.4-.936.4-1.459 0-.504.003-.737-.283-1.023-.286-.285-.585-.48-1.13-.48-.53 0-.66 0-.916.325-.129.27-.274 1.095-.274 1.531l-1.86-.009c.01-.777.15-1.939.739-2.417.59-.477 1.358-.716 2.303-.716.982 0 1.748.244 2.296.731.548.487.822 1.155.822 2.005 0 .84-.421 1.667-1.263 2.483l-.849.778c-.379.389-.182 1.438-.182 2.168l-1.829-.032z" fill-rule="nonzero"/><path d="M11 16h2v2h-2z"/></svg>