<?xml version="1.0" encoding="UTF-8" standalone="no"?><!DOCTYPE svg PUBLIC "-//W3C//DTD SVG 1.1//EN" "http://www.w3.org/Graphics/SVG/1.1/DTD/svg11.dtd"><svg viewBox="0 0 24 24" xmlns="http://www.w3.org/2000/svg" fill-rule="evenodd" clip-rule="evenodd" stroke-linejoin="round" stroke-miterlimit="1.414" width="24" height="24"><path d="M12.172 2.001a9.974 9.974 0 0 1 7.115 3.153c.511.544.954 1.144 1.337 1.784l-1.716 1.027c-.068-.114-.068-.114-.138-.227-.07-.108-.069-.108-.141-.215a8.093 8.093 0 0 0-2.377-2.299 7.973 7.973 0 0 0-5.271-1.16 7.94 7.94 0 0 0-2.271.643 8.029 8.029 0 0 0-4.658 6.374 8.66 8.66 0 0 0-.052.925l-2-.012a9.953 9.953 0 0 1 2.599-6.717A10.056 10.056 0 0 1 8.448 2.65a10.01 10.01 0 0 1 3.724-.649z" fill-rule="nonzero"/><path d="M21.768 9.268l-6.364-.707 5.657-5.657.707 6.364z"/><path d="M21.768 11.91a9.977 9.977 0 0 1-3.189 7.313 9.971 9.971 0 0 1-6.043 2.652 10.053 10.053 0 0 1-3.264-.286 10.004 10.004 0 0 1-5.414-3.568c-.26-.337-.496-.69-.714-1.055l1.716-1.027c.068.114.068.114.138.227.07.108.069.108.14.215a8.046 8.046 0 0 0 2.378 2.299 7.971 7.971 0 0 0 5.271 1.159 7.916 7.916 0 0 0 2.271-.642 8.032 8.032 0 0 0 4.19-4.453 7.93 7.93 0 0 0 .52-2.847l2 .013z" fill-rule="nonzero"/><path d="M2 14.636l6.364.707L2.707 21 2 14.636z"/></svg>