<?xml version="1.0" encoding="UTF-8" standalone="no"?><!DOCTYPE svg PUBLIC "-//W3C//DTD SVG 1.1//EN" "http://www.w3.org/Graphics/SVG/1.1/DTD/svg11.dtd"><svg viewBox="0 0 24 24" xmlns="http://www.w3.org/2000/svg" fill-rule="evenodd" clip-rule="evenodd" stroke-linejoin="round" stroke-miterlimit="1.414" width="24" height="24"><path d="M9.423 2.643l.084.002.083.003.084.003.082.005.083.006.082.007.082.007.082.009.082.01.081.011.081.012.08.013.08.013.08.015.08.016.079.017.079.017.078.019.078.02.078.02.077.022.077.022.076.023.076.024.076.026.075.026.075.026.075.028.074.029.073.029.073.031.073.031.072.032.072.033.071.034.071.035.07.035.07.037.07.037.068.038.069.038.067.04.068.04.066.041.067.042.065.043.065.043.065.045.064.045.063.045.063.047.063.047.061.048.061.048.061.05.06.05.059.051.059.051.058.052.057.053.057.053.056.055.056.054.054.056.055.056.053.057.053.057.052.058.051.059.051.059.05.06.05.061.048.061.048.061.047.063.047.063.045.063.045.064.045.065.043.065.043.065.042.067.041.066.04.068.04.067.038.069.038.069.037.069.037.07.035.07.035.071.034.071.033.072.032.072.031.073.031.073.029.073.029.074.028.075.027.075.026.075.025.076.024.076.023.076.023.077.021.077.021.078.019.078.019.079.017.078.017.079.016.08.015.08.014.08.012.08.012.081.011.081.01.082.009.082.008.082.006.082.006.083.005.082.004.084.002.083.002.084v.168l-.002.083-.002.084-.004.083-.005.083-.006.083-.006.082-.008.082-.009.082-.01.081-.011.081-.012.081-.012.081-.014.08-.015.08-.016.079-.017.079-.017.079-.019.078-.019.078-.021.078-.021.077-.023.077-.023.077-.024.076-.025.076-.026.075-.027.075-.028.074-.029.074-.029.074-.031.073-.031.073-.032.072-.033.071-.034.072-.035.071-.035.07-.037.07-.037.069-.038.069-.038.068-.04.068-.04.067-.041.067-.042.066-.043.066-.043.065-.045.064-.045.064-.045.064-.047.063-.047.062-.048.062-.048.061-.05.06-.05.06-.051.06-.051.058-.052.058-.053.058-.053.056-.055.057-.054.055-.056.055-.056.054-.057.054-.057.052-.058.052-.059.052-.059.051-.06.05-.061.049-.061.049-.061.048-.063.047-.063.046-.063.046-.064.045-.065.044-.065.043-.065.043-.067.042-.066.041-.068.041-.067.039-.069.039-.068.038-.07.037-.07.036-.07.036-.071.034-.071.034-.072.033-.072.032-.073.032-.073.03-.073.03-.074.028-.075.028-.075.027-.075.026-.076.025-.076.024-.076.024-.077.022-.077.021-.078.021-.078.02-.078.018-.079.018-.079.017-.08.015-.08.015-.08.014-.08.013-.081.012-.081.011-.082.009-.082.009-.082.008-.082.007-.083.006-.082.004-.084.004-.083.003-.084.001-.084.001-.084-.001-.083-.001-.084-.003-.083-.004-.083-.004-.082-.006-.083-.007-.082-.008-.082-.009-.081-.009-.081-.011-.081-.012-.081-.013-.08-.014-.079-.015-.08-.015-.079-.017-.079-.018-.078-.018-.078-.02-.078-.021-.077-.021-.077-.022-.077-.024-.076-.024-.076-.025-.075-.026-.075-.027-.074-.028-.074-.028-.074-.03-.073-.03-.072-.032-.073-.032-.071-.033-.072-.034-.07-.034-.071-.036-.07-.036-.069-.037-.069-.038-.068-.039-.068-.039-.067-.041-.067-.041-.066-.042-.066-.043-.065-.043-.064-.044-.064-.045-.064-.046-.063-.046-.062-.047-.062-.048-.061-.049-.06-.049-.06-.05-.059-.051-.059-.052-.058-.052-.058-.052-.056-.054-.057-.054-.055-.055-.055-.055-.054-.057-.053-.056-.053-.058-.052-.058-.052-.058-.051-.06-.05-.06-.049-.06-.049-.061-.047-.062-.048-.062-.046-.063-.046-.064-.045-.064-.044-.064-.043-.065-.043-.066-.042-.066-.041-.067-.04-.067-.04-.068-.039-.068-.038-.069-.037-.069-.036-.07-.036-.07-.034-.071-.034-.072-.033-.071-.032-.072-.032-.073-.03-.073-.03-.074-.028-.074-.028-.074-.027-.075-.026-.075-.025-.076-.024-.076-.024-.077-.022-.077-.021-.077-.021-.078-.019-.078-.019-.078-.018-.079-.017-.079-.015-.079-.015-.08-.014-.08-.013-.081-.012-.081-.01-.081-.01-.081-.009-.082-.008-.082-.007-.082-.005-.083-.005-.083-.004-.083-.003-.084-.001-.083-.001-.084.001-.084.001-.084.003-.083.004-.084.005-.082.005-.083.007-.082.008-.082.009-.082.01-.082.01-.081.012-.081.013-.08.014-.08.015-.08.015-.08.017-.079.018-.078.019-.079.019-.078.021-.078.021-.077.022-.077.024-.076.024-.076.025-.076.026-.075.027-.075.028-.075.028-.074.03-.073.03-.073.032-.073.032-.072.033-.072.034-.071.034-.071.036-.07.036-.07.037-.069.038-.069.039-.069.04-.067.04-.068.041-.066.042-.067.043-.065.043-.065.044-.065.045-.064.046-.063.046-.063.048-.063.047-.061.049-.061.049-.061.05-.06.051-.059.052-.059.052-.058.053-.057.053-.057.054-.056.055-.056.055-.054.057-.055.056-.053.058-.053.058-.052.059-.051.059-.051.06-.05.06-.05.061-.048.062-.048.062-.047.063-.047.064-.045.064-.045.064-.045.065-.043.066-.043.066-.042.067-.041.067-.04.068-.04.068-.038.069-.038.069-.037.07-.037.071-.035.07-.035.072-.034.071-.033.073-.032.072-.031.073-.031.074-.029.074-.029.074-.028.075-.026.075-.026.076-.026.076-.024.077-.023.077-.022.077-.022.078-.02.078-.02.078-.019.079-.017.079-.017.08-.016.079-.015.08-.013.081-.013.081-.012.081-.011.081-.01.082-.009.082-.007.083-.007.082-.006.083-.005.083-.003.084-.003.083-.002h.168zm-.142 2l-.059.001-.058.002-.058.003-.057.003-.057.004-.058.005-.057.005-.056.006-.056.007-.057.008-.056.008-.055.009-.056.009-.055.01-.055.011-.054.012-.055.012-.054.013-.053.013-.054.014-.054.015-.053.016-.052.016-.053.017-.052.017-.051.018-.052.018-.052.02-.051.019-.051.021-.051.021-.049.021-.05.022-.05.024-.049.023-.049.024-.049.025-.048.024-.047.026-.048.026-.048.027-.046.027-.047.028-.046.029-.046.029-.046.029-.045.031-.045.03-.045.032-.043.031-.044.032-.043.033-.043.033-.042.034-.042.034-.042.035-.041.036-.04.035-.041.036-.04.037-.039.037-.039.037-.039.039-.038.039-.037.038-.037.039-.037.041-.037.04-.035.04-.035.042-.035.042-.034.041-.034.042-.034.044-.032.043-.032.043-.032.044-.031.045-.031.045-.03.044-.029.046-.03.046-.028.047-.028.046-.027.047-.027.047L5.382 7l-.026.048-.025.049-.025.048-.024.049-.023.05-.023.049-.022.05-.022.05-.021.051-.02.051-.02.05-.019.052-.019.052-.018.052-.017.052-.017.052-.016.053-.015.053-.015.053-.014.054-.014.054-.012.054-.013.054-.011.055-.011.055-.01.055-.01.055-.009.056-.008.056-.007.056-.007.056-.006.057-.006.057-.004.057-.004.057-.004.058-.002.058-.002.058-.001.058-.001.059.001.058.001.059.002.058.002.058.004.057.004.058.004.057.006.057.006.056.007.057.007.056.008.056.009.055.01.056.01.055.011.055.011.054.013.055.012.054.014.054.014.053.015.053.015.054.016.052.017.053.017.052.018.052.019.052.019.051.02.051.02.051.021.05.022.05.022.05.023.05.023.049.024.049.025.048.025.049.026.048.026.047.027.048.027.047.028.046.028.046.03.047.029.045.03.045.031.045.031.044.032.044.032.044.032.042.034.044.034.042.034.042.035.042.035.041.035.04.037.041.037.04.037.04.037.038.038.039.039.038.039.037.039.038.04.037.041.036.04.035.041.035.042.036.042.034.042.033.043.033.043.033.044.033.043.031.045.031.045.031.045.03.046.03.046.029.046.028.046.028.047.027.048.027.048.027.048.026.047.024.049.025.049.024.049.023.05.023.05.022.049.022.051.021.051.02.051.02.051.019.053.019.052.018.051.017.053.017.052.016.053.015.054.015.054.014.053.014.054.013.054.012.055.011.056.011.055.011.054.009.056.009.057.008.056.008.056.006.056.006.057.006.058.005.057.004.057.003.058.002.058.002.059.001.058.001.059-.001.058-.001.058-.002.059-.002.057-.003.057-.004.057-.005.057-.006.057-.006.056-.006.056-.008.057-.008.056-.009.053-.009.055-.011.057-.011.054-.011.054-.012.055-.013.053-.014.053-.014.054-.015.053-.015.053-.016.052-.017.052-.017.052-.018.052-.019.052-.019.05-.02.051-.02.051-.021.05-.022.049-.022.051-.023.049-.023.049-.024.049-.025.047-.024.048-.026.048-.027.048-.027.046-.027.047-.028.046-.028.046-.029.045-.03.045-.03.045-.031.045-.031.044-.032.043-.032.044-.033.042-.033.043-.033.041-.034.043-.036.041-.035.04-.035.04-.036.041-.037.039-.037.039-.038.039-.039.038-.038.037-.038.037-.04.037-.04.036-.041.036-.04.035-.041.035-.042.034-.042.034-.042.033-.043.033-.043.032-.044.031-.044.032-.044.03-.045.03-.045.03-.046.029-.046.029-.046.027-.046.028-.047.027-.048.026-.047.026-.048.025-.049.024-.048.024-.049.024-.049.022-.05.023-.05.021-.05.021-.05.021-.051.019-.051.02-.051.018-.052.018-.052.018-.052.016-.053.016-.052.016-.054.015-.053.014-.053.013-.054.013-.054.012-.055.012-.054.011-.055.01-.055.009-.056.009-.055.009-.056.007-.056.007-.057.006-.056.005-.057.005-.057.004-.058.003-.057.003-.058.002-.058.001-.059V9.084l-.001-.058-.002-.058-.003-.058-.003-.058-.004-.057-.005-.057-.005-.057-.006-.057-.007-.056-.007-.056-.009-.056-.009-.056-.009-.055-.01-.055-.011-.055-.012-.055-.012-.054-.013-.054-.013-.054-.015-.054-.014-.053-.016-.053-.016-.053-.016-.052-.018-.052-.018-.052-.018-.052-.02-.052-.019-.05-.021-.051-.021-.051-.021-.05-.022-.05-.023-.049-.024-.05-.024-.049-.024-.048-.025-.049L13.297 7l-.026-.047-.027-.047-.028-.047-.027-.046-.029-.047-.029-.046-.03-.046-.03-.045-.03-.044-.032-.045-.031-.044-.032-.043-.033-.043-.033-.044-.034-.042-.034-.041-.035-.042-.035-.042-.036-.04-.036-.04-.037-.041-.037-.039-.037-.038-.038-.039-.039-.039-.039-.037-.039-.037-.041-.037-.04-.036-.04-.035-.041-.036-.043-.035-.041-.034-.043-.034-.042-.033-.044-.033-.043-.032-.044-.031-.045-.032-.045-.03-.045-.031-.045-.029-.046-.029-.046-.029-.047-.028-.046-.027-.048-.027-.048-.026-.047-.026-.048-.024-.049-.025-.049-.024-.049-.023-.051-.024-.049-.022-.05-.021-.051-.021-.051-.021-.05-.019-.052-.02-.052-.018-.051-.018-.053-.017-.052-.017-.053-.016-.053-.016-.054-.015-.053-.014-.053-.013-.055-.013-.055-.012-.054-.012-.055-.011-.055-.01-.055-.009-.055-.009-.056-.008-.057-.008-.056-.007-.057-.006-.057-.005-.057-.005-.057-.004-.057-.003-.059-.003-.058-.002-.058-.001H9.281z"/><path d="M15.876 14.344l5.285 5.285-1.415 1.414-5.353-5.354a8.39 8.39 0 0 0 1.483-1.345zm-1.419-1.419a6.446 6.446 0 0 1-1.506 1.322l-.79-.79 1.414-1.414.882.882z"/></svg>