<?xml version="1.0" encoding="UTF-8" standalone="no"?><!DOCTYPE svg PUBLIC "-//W3C//DTD SVG 1.1//EN" "http://www.w3.org/Graphics/SVG/1.1/DTD/svg11.dtd"><svg viewBox="0 0 24 24" xmlns="http://www.w3.org/2000/svg" fill-rule="evenodd" clip-rule="evenodd" stroke-linejoin="round" stroke-miterlimit="1.414" width="24" height="24"><path d="M18.103 13.554l.103.004.102.006.101.009.1.012.1.014.099.016.098.019.097.021.096.024.096.026.094.028.093.03.093.033.091.034.09.037.09.039.088.041.086.044.086.045.084.047.083.049.082.051.081.053.079.055.078.057.076.058.075.061.073.062.072.063.07.066.069.067.067.069.065.07.064.072.062.073.06.075.059.076.057.078.054.079.053.08.052.082.049.083.047.085.045.085.043.087.041.088.039.089.037.091.035.091.033.092.03.094.028.094.026.096.023.096.022.097.018.098.017.099.014.1.011.1.009.101.007.102.004.103.001.103-.001.103-.004.103-.007.101-.009.102-.011.1-.014.1-.017.098-.018.099-.022.097-.023.096-.026.095-.028.095-.03.093-.033.093-.035.091-.037.09-.039.089-.041.088-.043.087-.045.086-.047.084-.049.083-.052.082-.053.081-.054.079-.057.077-.059.077-.06.075-.062.073-.064.072-.065.07-.067.069-.069.067-.07.065-.072.064-.073.062-.075.06-.076.059-.078.056-.079.055-.081.053-.082.051-.083.05-.084.047-.086.045-.086.043-.088.041-.09.039-.09.037-.091.035-.093.032-.093.031-.094.028-.096.026-.096.023-.097.021-.098.019-.099.017-.1.014-.1.011-.101.009-.102.007-.103.003-.103.002-.103-.002-.103-.003-.102-.007-.101-.009-.1-.011-.1-.014-.099-.017-.098-.019-.097-.021-.096-.023-.096-.026-.094-.028-.093-.031-.093-.032-.091-.035-.09-.037-.09-.039-.088-.041-.086-.043-.086-.045-.084-.047-.083-.05-.082-.051-.081-.053-.079-.055-.078-.056-.076-.059-.075-.06-.073-.062-.072-.064-.07-.065-.069-.067-.067-.069-.065-.07-.064-.072-.062-.073-.06-.075-.059-.077-.057-.077-.054-.079-.053-.081-.052-.082-.049-.083-.047-.084-.045-.086-.043-.087-.041-.088-.039-.089-.037-.09-.035-.091-.033-.093-.03-.093-.028-.095-.026-.095-.023-.096-.022-.097-.018-.099-.017-.098-.014-.1-.011-.1-.009-.102-.007-.101-.004-.103-.001-.103.001-.103.004-.103.007-.102.009-.101.011-.1.014-.1.017-.099.018-.098.022-.097.023-.096.026-.096.028-.094.03-.094.033-.092.035-.091.037-.091.039-.089.041-.088.043-.087.045-.085.047-.085.049-.083.052-.082.053-.08.054-.079.057-.078.059-.076.06-.075.062-.073.064-.072.065-.07.067-.069.069-.067.07-.066.072-.063.073-.062.075-.061.076-.058.078-.057.079-.055.081-.053.082-.051.083-.049.084-.047.086-.045.086-.044.088-.041.09-.039.09-.037.091-.034.093-.033.093-.03.094-.028.096-.026.096-.024.097-.021.098-.019.099-.016.1-.014.1-.012.101-.009.102-.006.103-.004.103-.001.103.001zm-.156 2l-.051.002-.052.003-.05.004-.05.006-.051.007-.049.008-.048.01-.049.01-.047.012-.048.013-.047.014-.045.014-.046.017-.046.017-.045.018-.044.02-.044.02-.043.022-.042.022-.043.024-.042.024-.04.026-.041.027-.04.027-.039.029-.038.029-.038.03-.036.031-.037.033-.035.032-.035.034-.033.035-.033.035-.032.036-.031.037-.031.038-.029.038-.029.039-.027.04-.027.04-.025.041-.025.042-.024.042-.022.043-.021.043-.021.044-.02.044-.018.045-.017.045-.016.046-.015.046-.014.047-.013.048-.012.047-.01.049-.01.049-.008.048-.007.05-.005.05-.005.051-.003.051-.002.052-.001.053.001.052.002.052.003.052.005.05.005.05.007.05.008.049.01.049.01.049.012.047.013.047.014.047.015.046.016.046.017.046.018.044.02.045.021.044.021.043.022.042.024.043.025.041.025.041.027.041.027.039.029.039.029.038.031.038.031.037.032.036.033.036.033.034.035.034.035.033.037.032.036.031.038.031.038.029.039.028.04.028.041.027.041.025.041.025.042.023.042.023.044.021.044.021.044.019.045.019.046.017.046.016.045.015.047.014.048.013.047.012.049.01.048.009.049.009.05.006.051.006.05.005.052.003.051.002.053.001.053-.001.051-.002.052-.003.05-.005.051-.006.05-.006.049-.009.048-.009.049-.01.047-.012.048-.013.047-.014.045-.015.046-.016.046-.017.045-.019.044-.019.044-.021.044-.021.042-.023.042-.023.041-.025.041-.025.041-.027.04-.028.039-.028.038-.029.038-.031.036-.031.037-.032.035-.033.035-.034.033-.034.033-.036.032-.036.031-.037.031-.038.029-.038.029-.039.027-.039.027-.041.025-.041.025-.041.024-.043.022-.042.021-.043.021-.044.02-.045.018-.044.017-.046.016-.046.015-.046.014-.047.013-.047.012-.047.01-.049.01-.049.008-.049.007-.05.005-.05.005-.05.003-.052.002-.052.001-.052-.001-.053-.002-.052-.003-.051-.005-.051-.005-.05-.007-.05-.008-.048-.01-.049-.01-.049-.012-.047-.013-.048-.014-.047-.015-.046-.016-.046-.017-.045-.018-.045-.02-.044-.021-.044-.021-.043-.022-.043-.024-.042-.025-.042-.025-.041-.027-.04-.027-.04-.029-.039-.029-.038-.031-.038-.031-.037-.032-.036-.033-.035-.033-.035-.035-.034-.035-.032-.037-.033-.036-.031-.038-.03-.038-.029-.039-.029-.04-.027-.041-.027-.04-.026-.042-.024-.043-.024-.042-.022-.043-.022-.044-.02-.044-.02-.045-.018-.046-.017-.046-.017-.045-.014-.047-.014-.048-.013-.047-.012-.049-.01-.048-.01-.049-.008-.051-.007-.05-.006-.05-.004-.052-.003-.051-.002-.053-.001-.053.001zM18.103 3.554l.103.004.102.006.101.009.1.012.1.014.099.016.098.019.097.021.096.024.096.026.094.028.093.03.093.033.091.034.09.037.09.039.088.041.086.044.086.045.084.047.083.049.082.051.081.053.079.055.078.057.076.058.075.061.073.062.072.063.07.066.069.067.067.069.065.07.064.072.062.073.06.075.059.076.057.078.054.079.053.08.052.082.049.083.047.085.045.085.043.087.041.088.039.089.037.091.035.091.033.092.03.094.028.094.026.096.023.096.022.097.018.098.017.099.014.1.011.1.009.101.007.102.004.103.001.103-.001.103-.004.103-.007.101-.009.102-.011.1-.014.1-.017.098-.018.099-.022.097-.023.096-.026.095-.028.095-.03.093-.033.093-.035.091-.037.09-.039.089-.041.088-.043.087-.045.086-.047.084-.049.083-.052.082-.053.081-.054.079-.057.077-.059.077-.06.075-.062.073-.064.072-.065.07-.067.069-.069.067-.07.065-.072.064-.073.062-.075.06-.076.059-.078.056-.079.055-.081.053-.082.051-.083.05-.084.047-.086.045-.086.043-.088.041-.09.039-.09.037-.091.035-.093.032-.093.031-.094.028-.096.026-.096.023-.097.021-.098.019-.099.017-.1.014-.1.011-.101.009-.102.007-.103.003-.103.002-.103-.002-.103-.003-.102-.007-.101-.009-.1-.011-.1-.014-.099-.017-.098-.019-.097-.021-.096-.023-.096-.026-.094-.028-.093-.031-.093-.032-.091-.035-.09-.037-.09-.039-.088-.041-.086-.043-.086-.045-.084-.047-.083-.05-.082-.051-.081-.053-.079-.055-.078-.056-.076-.059-.075-.06-.073-.062-.072-.064-.07-.065-.069-.067-.067-.069-.065-.07-.064-.072-.062-.073-.06-.075-.059-.077-.057-.077-.054-.079-.053-.081-.052-.082-.049-.083-.047-.084-.045-.086-.043-.087-.041-.088-.039-.089-.037-.09-.035-.091-.033-.093-.03-.093-.028-.095-.026-.095-.023-.096-.022-.097-.018-.099-.017-.098-.014-.1-.011-.1-.009-.102-.007-.101-.004-.103L14 7.553l.001-.103.004-.103.007-.102.009-.101.011-.1.014-.1.017-.099.018-.098.022-.097.023-.096.026-.096.028-.094.03-.094.033-.092.035-.091.037-.091.039-.089.041-.088.043-.087.045-.085.047-.085.049-.083.052-.082.053-.08.054-.079.057-.078.059-.076.06-.075.062-.073.064-.072.065-.07.067-.069.069-.067.07-.066.072-.063.073-.062.075-.061.076-.058.078-.057.079-.055.081-.053.082-.051.083-.049.084-.047.086-.045.086-.044.088-.041.09-.039.09-.037.091-.034.093-.033.093-.03.094-.028.096-.026.096-.024.097-.021.098-.019.099-.016.1-.014.1-.012.101-.009.102-.006.103-.004.103-.001.103.001zm-.156 2l-.051.002-.052.003-.05.004-.05.006-.051.007-.049.008-.048.01-.049.01-.047.012-.048.013-.047.014-.045.014-.046.017-.046.017-.045.018-.044.02-.044.02-.043.022-.042.022-.043.024-.042.024-.04.026-.041.027-.04.027-.039.029-.038.029-.038.03-.036.031-.037.033-.035.032-.035.034-.033.035-.033.035-.032.036-.031.037-.031.038-.029.038-.029.039-.027.04-.027.04-.025.041-.025.042-.024.042-.022.043-.021.043-.021.044-.02.044-.018.045-.017.045-.016.046-.015.046-.014.047-.013.048-.012.047-.01.049-.01.049-.008.048-.007.05-.005.05-.005.051-.003.051-.002.052-.001.053.001.052.002.052.003.052.005.05.005.05.007.05.008.049.01.049.01.049.012.047.013.047.014.047.015.046.016.046.017.046.018.044.02.045.021.044.021.043.022.042.024.043.025.041.025.041.027.041.027.039.029.039.029.038.031.038.031.037.032.036.033.036.033.034.035.034.035.033.037.032.036.031.038.031.038.029.039.028.04.028.041.027.041.025.041.025.042.023.042.023.044.021.044.021.044.019.045.019.046.017.046.016.045.015.047.014.048.013.047.012.049.01.048.009.049.009.05.006.051.006.05.005.052.003.051.002.053.001.053-.001.051-.002.052-.003.05-.005.051-.006.05-.006.049-.009.048-.009.049-.01.047-.012.048-.013.047-.014.045-.015.046-.016.046-.017.045-.019.044-.019.044-.021.044-.021.042-.023.042-.023.041-.025.041-.025.041-.027.04-.028.039-.028.038-.029.038-.031.036-.031.037-.032.035-.033.035-.034.033-.034.033-.036.032-.036.031-.037.031-.038.029-.038.029-.039.027-.039.027-.041.025-.041.025-.041.024-.043.022-.042.021-.043.021-.044.02-.045.018-.044.017-.046.016-.046.015-.046.014-.047.013-.047.012-.047.01-.049.01-.049.008-.049.007-.05.005-.05.005-.05.003-.052.002-.052.001-.052-.001-.053-.002-.052-.003-.051-.005-.051-.005-.05-.007-.05-.008-.048-.01-.049-.01-.049-.012-.047-.013-.048-.014-.047-.015-.046-.016-.046-.017-.045-.018-.045-.02-.044-.021-.044-.021-.043-.022-.043-.024-.042-.025-.042-.025-.041-.027-.04-.027-.04-.029-.039-.029-.038-.031-.038-.031-.037-.032-.036-.033-.035-.033-.035-.035-.034-.035-.032-.037-.033-.036-.031-.038-.03-.038-.029-.039-.029-.04-.027-.041-.027-.04-.026-.042-.024-.043-.024-.042-.022-.043-.022-.044-.02-.044-.02-.045-.018-.046-.017-.046-.017-.045-.014-.047-.014-.048-.013-.047-.012-.049-.01-.048-.01-.049-.008-.051-.007-.05-.006-.05-.004-.052-.003-.051-.002L18 5.553l-.053.001zM6.103 8.554l.103.004.102.006.101.009.1.012.1.014.099.016.098.019.097.021.096.024.096.026.094.028.093.03.093.033.091.034.09.037.09.039.088.041.086.044.086.045.084.047.083.049.082.051.081.053.079.055.078.057.076.058.075.061.073.062.072.063.07.066.069.067.067.069.065.07.064.072.062.073.06.075.059.076.057.078.054.079.053.08.052.082.049.083.047.085.045.085.043.087.041.088.039.089.037.091.035.091.033.092.03.094.028.094.026.096.023.096.022.097.018.098.017.099.014.1.011.1.009.101.007.102.004.103.001.103-.001.103-.004.103-.007.101-.009.102-.011.1-.014.1-.017.098-.018.099-.022.097-.023.096-.026.095-.028.095-.03.093-.033.093-.035.091-.037.09-.039.089-.041.088-.043.087-.045.086-.047.084-.049.083-.052.082-.053.081-.054.079-.057.077-.059.077-.06.075-.062.073-.064.072-.065.07-.067.069-.069.067-.07.065-.072.064-.073.062-.075.06-.076.059-.078.056-.079.055-.081.053-.082.051-.083.05-.084.047-.086.045-.086.043-.088.041-.09.039-.09.037-.091.035-.093.032-.093.031-.094.028-.096.026-.096.023-.097.021-.098.019-.099.017-.1.014-.1.011-.101.009-.102.007-.103.003-.103.002-.103-.002-.103-.003-.102-.007-.101-.009-.1-.011-.1-.014-.099-.017-.098-.019-.097-.021-.096-.023-.096-.026-.094-.028-.093-.031-.093-.032-.091-.035-.09-.037-.09-.039-.088-.041-.086-.043-.086-.045-.084-.047-.083-.05-.082-.051-.081-.053-.079-.055-.078-.056-.076-.059-.075-.06-.073-.062-.072-.064-.07-.065-.069-.067-.067-.069-.065-.07-.064-.072-.062-.073-.06-.075-.059-.077-.057-.077-.054-.079-.053-.081-.052-.082-.049-.083-.047-.084-.045-.086-.043-.087-.041-.088-.039-.089-.037-.09-.035-.091-.033-.093-.03-.093-.028-.095-.026-.095-.023-.096-.022-.097-.018-.099-.017-.098-.014-.1-.011-.1-.009-.102-.007-.101-.004-.103L2 12.553l.001-.103.004-.103.007-.102.009-.101.011-.1.014-.1.017-.099.018-.098.022-.097.023-.096.026-.096.028-.094.03-.094.033-.092.035-.091.037-.091.039-.089.041-.088.043-.087.045-.085.047-.085.049-.083.052-.082.053-.08.054-.079.057-.078.059-.076.06-.075.062-.073.064-.072.065-.07.067-.069.069-.067.07-.066.072-.063.073-.062.075-.061.076-.058.078-.057.079-.055.081-.053.082-.051.083-.049.084-.047.086-.045.086-.044.088-.041.09-.039.09-.037.091-.034.093-.033.093-.03.094-.028.096-.026.096-.024.097-.021.098-.019.099-.016.1-.014.1-.012.101-.009.102-.006.103-.004L6 8.553l.103.001zm-.156 2l-.051.002-.052.003-.05.004-.05.006-.051.007-.049.008-.048.01-.049.01-.047.012-.048.013-.047.014-.045.014-.046.017-.046.017-.045.018-.044.02-.044.02-.043.022-.042.022-.043.024-.042.024-.04.026-.041.027-.04.027-.039.029-.038.029-.038.03-.036.031-.037.033-.035.032-.035.034-.033.035-.033.035-.032.036-.031.037-.031.038-.029.038-.029.039-.027.04-.027.04-.025.041-.025.042-.024.042-.022.043-.021.043-.021.044-.02.044-.018.045-.017.045-.016.046-.015.046-.014.047-.013.048-.012.047-.01.049-.01.049-.008.048-.007.05-.005.05-.005.051-.003.051-.002.052-.001.053.001.052.002.052.003.052.005.05.005.05.007.05.008.049.01.049.01.049.012.047.013.047.014.047.015.046.016.046.017.046.018.044.02.045.021.044.021.043.022.042.024.043.025.041.025.041.027.041.027.039.029.039.029.038.031.038.031.037.032.036.033.036.033.034.035.034.035.033.037.032.036.031.038.031.038.029.039.028.04.028.041.027.041.025.041.025.042.023.042.023.044.021.044.021.044.019.045.019.046.017.046.016.045.015.047.014.048.013.047.012.049.01.048.009.049.009.05.006.051.006.05.005.052.003.051.002.053.001.053-.001.051-.002.052-.003.05-.005.051-.006.05-.006.049-.009.048-.009.049-.01.047-.012.048-.013.047-.014.045-.015.046-.016.046-.017.045-.019.044-.019.044-.021.044-.021.042-.023.042-.023.041-.025.041-.025.041-.027.04-.028.039-.028.038-.029.038-.031.036-.031.037-.032.035-.033.035-.034.033-.034.033-.036.032-.036.031-.037.031-.038.029-.038.029-.039.027-.039.027-.041.025-.041.025-.041.024-.043.022-.042.021-.043.021-.044.02-.045.018-.044.017-.046.016-.046.015-.046.014-.047.013-.047.012-.047.01-.049.01-.049.008-.049.007-.05.005-.05.005-.05.003-.052.002-.052.001-.052-.001-.053-.002-.052-.003-.051-.005-.051-.005-.05-.007-.05-.008-.048-.01-.049-.01-.049-.012-.047-.013-.048-.014-.047-.015-.046-.016-.046-.017-.045-.018-.045-.02-.044-.021-.044-.021-.043-.022-.043-.024-.042-.025-.042-.025-.041-.027-.04-.027-.04-.029-.039-.029-.038-.031-.038-.031-.037-.032-.036-.033-.035-.033-.035-.035-.034-.035-.032-.037-.033-.036-.031-.038-.03-.038-.029-.039-.029-.04-.027-.041-.027-.04-.026-.042-.024-.043-.024-.042-.022-.043-.022-.044-.02-.044-.02-.045-.018-.046-.017-.046-.017-.045-.014-.047-.014-.048-.013-.047-.012-.049-.01-.048-.01-.049-.008-.051-.007-.05-.006-.05-.004-.052-.003-.051-.002L6 10.553l-.053.001z"/><path d="M8.491 13.279c.103.007.199.026.297.058 2.221.858 4.397 1.826 6.596 2.74.156.069.293.167.4.302a1.01 1.01 0 0 1-.289 1.49 1.012 1.012 0 0 1-.382.125 1.057 1.057 0 0 1-.45-.052c-2.22-.858-4.397-1.826-6.595-2.74a1.045 1.045 0 0 1-.368-.263 1.01 1.01 0 0 1-.076-1.222.992.992 0 0 1 .207-.222 1.03 1.03 0 0 1 .66-.216zM15.028 7a1 1 0 0 1 .387 1.91c-.242.103-.493.197-.737.295l-.756.307c-1.203.494-2.403.997-3.588 1.532-.332.15-.663.303-.992.461-.165.079-.327.163-.493.24-.047.019-.047.019-.095.035a1.038 1.038 0 0 1-.55.016 1.009 1.009 0 0 1-.575-1.538c.088-.127.203-.226.335-.304.168-.089.342-.17.513-.253a80.944 80.944 0 0 1 3.218-1.43c.975-.411 1.954-.811 2.936-1.201l.096-.032a1.25 1.25 0 0 1 .2-.035c.051-.003.05-.003.101-.003z" fill-rule="nonzero"/></svg>