<?xml version="1.0" encoding="UTF-8" standalone="no"?><!DOCTYPE svg PUBLIC "-//W3C//DTD SVG 1.1//EN" "http://www.w3.org/Graphics/SVG/1.1/DTD/svg11.dtd"><svg viewBox="0 0 24 24" xmlns="http://www.w3.org/2000/svg" fill-rule="evenodd" clip-rule="evenodd" stroke-linejoin="round" stroke-miterlimit="1.414" width="24" height="24"><path d="M17.051 7.001l.051.004.05.007.049.008.049.012.047.013.047.016.045.018.044.02.043.022.042.024.041.026.039.028.038.029.036.032.035.033.033.035.032.036.029.038.028.039.026.041.024.042.022.043.02.044.018.045.016.047.013.047.012.049.008.049.007.05.004.051L18 8v9l-.001.051-.004.051-.007.05-.008.049-.012.049-.013.047-.016.047-.018.045-.02.044-.022.043-.024.042-.026.041-.028.039-.029.038-.032.036-.033.035-.035.033-.036.032-.038.029-.039.028-.041.026-.042.024-.043.022-.044.02-.045.018-.047.016-.047.013-.049.012-.049.008-.05.007-.051.004L17 18H8l-.051-.001-.051-.004-.05-.007-.049-.008-.049-.012-.047-.013-.047-.016-.045-.018-.044-.02-.043-.022-.042-.024-.041-.026-.039-.028-.038-.029-.036-.032-.035-.033-.033-.035-.032-.036-.029-.038-.028-.039-.026-.041-.024-.042-.022-.043-.02-.044-.018-.045-.016-.047-.013-.047-.012-.049-.008-.049-.007-.05-.004-.051L7 17V8l.001-.051.004-.051.007-.05.008-.049.012-.049.013-.047.016-.047.018-.045.02-.044.022-.043.024-.042.026-.041.028-.039.029-.038.032-.036.033-.035.035-.033.036-.032.038-.029.039-.028.041-.026.042-.024.043-.022.044-.02.045-.018.047-.016.047-.013.049-.012.049-.008.05-.007.051-.004L8 7h9l.051.001zM9 9v7h7V9H9z"/></svg>