<?xml version="1.0" encoding="UTF-8" standalone="no"?><!DOCTYPE svg PUBLIC "-//W3C//DTD SVG 1.1//EN" "http://www.w3.org/Graphics/SVG/1.1/DTD/svg11.dtd"><svg viewBox="0 0 24 24" xmlns="http://www.w3.org/2000/svg" fill-rule="evenodd" clip-rule="evenodd" stroke-linejoin="round" stroke-miterlimit="1.414" width="24" height="24"><path d="M18.052 9.001l.051.002.051.003.05.004.051.006.049.007.05.008.049.01.048.01.049.012.047.013.047.014.047.015.046.016.046.018.045.018.045.02.044.02.043.022.043.023.042.023.042.025.041.025.04.027.039.027.039.029.038.029.038.03.037.031.035.032.036.033.034.033.033.034.033.036.032.035.031.037.03.038.029.038.029.039.027.039.027.04.025.041.025.042.023.042.023.043.022.043.02.044.02.045.018.045.018.046.016.046.015.047.014.047.013.047.012.049.01.048.01.049.008.05.007.049.006.051.004.05.003.051.002.051L20 11v9l-.001.052-.002.051-.003.051-.004.05-.006.051-.007.049-.008.05-.01.049-.01.048-.012.049-.013.047-.014.047-.015.047-.016.046-.018.046-.018.045-.02.045-.02.044-.022.043-.023.043-.023.042-.025.042-.025.041-.027.04-.027.039-.029.039-.029.038-.03.038-.031.037-.032.035-.033.036-.033.034-.034.033-.036.033-.035.032-.037.031-.038.03-.038.029-.039.029-.039.027-.04.027-.041.025-.042.025-.042.023-.043.023-.043.022-.044.02-.045.02-.045.018-.046.018-.046.016-.047.015-.047.014-.047.013-.049.012-.048.01-.049.01-.05.008-.049.007-.051.006-.05.004-.051.003-.051.002L18 22H6l-.052-.001-.051-.002-.051-.003-.05-.004-.051-.006-.049-.007-.05-.008-.049-.01-.048-.01-.049-.012-.047-.013-.047-.014-.047-.015-.046-.016-.046-.018-.045-.018-.045-.02-.044-.02-.043-.022-.043-.023-.042-.023-.042-.025-.041-.025-.04-.027-.039-.027-.039-.029-.038-.029-.038-.03-.037-.031-.035-.032-.036-.033-.034-.033-.033-.034-.033-.036-.032-.035-.031-.037-.03-.038-.029-.038-.029-.039-.027-.039-.027-.04-.025-.041-.025-.042-.023-.042-.023-.043-.022-.043-.02-.044-.02-.045-.018-.045-.018-.046-.016-.046-.015-.047-.014-.047-.013-.047-.012-.049-.01-.048-.01-.049-.008-.05-.007-.049-.006-.051-.004-.05-.003-.051-.002-.051L4 20v-9l.001-.052.002-.051.003-.051.004-.05.006-.051.007-.049.008-.05.01-.049.01-.048.012-.049.013-.047.014-.047.015-.047.016-.046.018-.046.018-.045.02-.045.02-.044.022-.043.023-.043.023-.042.025-.042.025-.041.027-.04.027-.039.029-.039.029-.038.03-.038.031-.037.032-.035.033-.036.033-.034.034-.033.036-.033.035-.032.037-.031.038-.03.038-.029.039-.029.039-.027.04-.027.041-.025.042-.025.042-.023.043-.023.043-.022.044-.02.045-.02.045-.018.046-.018.046-.016.047-.015.047-.014.047-.013.049-.012.048-.01.049-.01.05-.008.049-.007.051-.006.05-.004.051-.003.051-.002L6 9h12l.052.001zM6.013 11H6v8.999l.001.001H18v-9H6.013z"/><circle cx="12" cy="16" r="2"/><path d="M18 11H6c0-1.376-.029-2.753.002-4.129a4.347 4.347 0 0 1 .559-1.983c.135-.24.291-.469.464-.683.821-1.011 2.007-1.687 3.262-1.998A7.273 7.273 0 0 1 11.923 2h.154c.576.01 1.149.08 1.706.225 1.249.324 2.426 1.011 3.232 2.03.183.233.347.481.484.744.146.277.263.57.347.872L17.88 6h-2.115c-.332-.687-.966-1.208-1.645-1.534a4.554 4.554 0 0 0-1.041-.353A5.375 5.375 0 0 0 11.944 4a5.38 5.38 0 0 0-.868.082 4.887 4.887 0 0 0-1.11.344 4.209 4.209 0 0 0-.378.194c-.711.411-1.342 1.061-1.531 1.883A2.255 2.255 0 0 0 8 6.966V9h10v2z"/></svg>