<?xml version="1.0" encoding="UTF-8" standalone="no"?><!DOCTYPE svg PUBLIC "-//W3C//DTD SVG 1.1//EN" "http://www.w3.org/Graphics/SVG/1.1/DTD/svg11.dtd"><svg viewBox="0 0 24 24" xmlns="http://www.w3.org/2000/svg" fill-rule="evenodd" clip-rule="evenodd" stroke-linejoin="round" stroke-miterlimit="1.414" width="24" height="24"><path d="M15 5.276c.472.104.935.27 1.379.478a8.072 8.072 0 0 1 3.655 3.44c.374.689.646 1.433.803 2.201a8.06 8.06 0 0 1 .099 2.629 7.965 7.965 0 0 1-2.349 4.705 8.03 8.03 0 0 1-2.474 1.648L15 20.724v-2.077l.198-.057a6.036 6.036 0 0 0 3.179-2.92 5.994 5.994 0 0 0 0-5.328 6.067 6.067 0 0 0-2.713-2.713L15 7.409V5.276z"/><path d="M15 9.576a3.798 3.798 0 0 1 1.605 1.696 4.002 4.002 0 0 1-.846 4.629L15 16.4v-2.13l.163-.225a2.37 2.37 0 0 0 .199-1.464L15 11.748V9.576zM13 22l-6-6H5l-.052-.001-.051-.004-.051-.007-.05-.01-.051-.011-.049-.015-.05-.017-.049-.019-.048-.021-.049-.024-.047-.025-.047-.028-.047-.03-.046-.032-.046-.034-.045-.036-.045-.037-.044-.039-.043-.041-.043-.042-.042-.044-.042-.046-.041-.047-.04-.048-.039-.05-.039-.051-.038-.052-.038-.053-.037-.054-.035-.055-.036-.056-.034-.057-.033-.058-.033-.058-.032-.06-.031-.059-.03-.061-.029-.061-.029-.061-.027-.062-.027-.062-.025-.062-.025-.062-.023-.063-.023-.063-.022-.062-.02-.063-.02-.063-.018-.062-.018-.062-.016-.062-.015-.061-.014-.061-.013-.061-.012-.06-.01-.059-.01-.059-.008-.058-.007-.057-.006-.056-.004-.056-.003-.054-.002-.054L3 13v-2l.001-.052.002-.054.003-.054.004-.056.006-.056.007-.057.008-.058.01-.059.01-.059.012-.06.013-.061.014-.061.015-.061.016-.062.018-.062.018-.062.02-.063.02-.063.022-.062.023-.063.023-.063.025-.062.025-.062.027-.062.027-.062.029-.061.029-.061.03-.061.031-.059.032-.06.033-.058.033-.058.034-.057.036-.056.035-.055.037-.054.038-.053.038-.052.039-.051.039-.05.04-.048.041-.047.042-.046.042-.044.043-.042.043-.041.044-.039.045-.037.045-.036.046-.034.046-.032.047-.03.047-.028.047-.025.049-.024.048-.021.049-.019.05-.017.049-.015.051-.011.05-.01.051-.007.051-.004L5 8h2l6-5v19zM7.724 10h-2.35l-.016.024-.017.025-.017.027-.016.028-.018.03-.017.031-.016.03-.017.033-.017.033-.016.034-.016.035-.016.035-.015.035-.014.036-.015.036-.013.037-.013.034-.011.034-.013.037-.01.034-.01.034-.01.033-.008.03-.007.032-.008.032-.006.027-.005.026-.004.025-.004.024-.003.021-.002.018-.002.016-.001.014-.001.011v2.012l.001.017.001.014.002.016.002.018.003.021.004.024.004.025.005.026.006.027.007.032.008.03.008.032.01.035.01.032.01.034.012.036.012.036.013.035.013.035.015.037.014.035.015.035.016.035.016.035.016.034.017.033.017.033.016.03.017.031.018.03.016.028.017.026.017.026.016.024h2.454L11 17.172V7.27L7.724 10z"/></svg>