<?xml version="1.0" encoding="UTF-8" standalone="no"?><!DOCTYPE svg PUBLIC "-//W3C//DTD SVG 1.1//EN" "http://www.w3.org/Graphics/SVG/1.1/DTD/svg11.dtd"><svg width="100%" height="100%" viewBox="0 0 24 24" version="1.1" xmlns="http://www.w3.org/2000/svg" xmlns:xlink="http://www.w3.org/1999/xlink" xml:space="preserve" style="fill-rule:evenodd;clip-rule:evenodd;stroke-linejoin:round;stroke-miterlimit:1.41421;"><g id="alarmclock"><path d="M12.103,5.001l0.103,0.002l0.103,0.003l0.102,0.004l0.102,0.006l0.102,0.007l0.101,0.009l0.101,0.009l0.101,0.011l0.1,0.012l0.1,0.014l0.1,0.014l0.099,0.016l0.098,0.017l0.099,0.018l0.097,0.02l0.098,0.02l0.097,0.022l0.096,0.023l0.096,0.024l0.096,0.025l0.095,0.027l0.095,0.027l0.094,0.029l0.094,0.03l0.093,0.031l0.092,0.032l0.092,0.033l0.092,0.034l0.091,0.035l0.091,0.037l0.09,0.037l0.089,0.039l0.089,0.039l0.088,0.041l0.088,0.041l0.087,0.043l0.087,0.044l0.086,0.044l0.085,0.046l0.085,0.047l0.084,0.048l0.083,0.048l0.083,0.05l0.082,0.05l0.082,0.052l0.08,0.053l0.081,0.053l0.079,0.054l0.079,0.056l0.078,0.056l0.077,0.057l0.077,0.058l0.076,0.059l0.075,0.06l0.075,0.061l0.073,0.061l0.073,0.063l0.072,0.063l0.072,0.064l0.071,0.065l0.069,0.066l0.069,0.067l0.069,0.067l0.067,0.069l0.067,0.069l0.066,0.069l0.065,0.071l0.064,0.072l0.063,0.072l0.063,0.073l0.061,0.073l0.061,0.075l0.06,0.075l0.059,0.076l0.058,0.077l0.057,0.077l0.056,0.078l0.056,0.079l0.054,0.079l0.053,0.081l0.053,0.08l0.052,0.082l0.05,0.082l0.05,0.083l0.048,0.083l0.048,0.084l0.047,0.085l0.046,0.085l0.044,0.086l0.044,0.087l0.043,0.087l0.041,0.088l0.041,0.088l0.039,0.089l0.039,0.089l0.037,0.09l0.037,0.091l0.035,0.091l0.034,0.092l0.033,0.092l0.032,0.092l0.031,0.093l0.03,0.094l0.029,0.094l0.027,0.095l0.027,0.095l0.025,0.096l0.024,0.096l0.023,0.096l0.022,0.097l0.02,0.098l0.02,0.097l0.018,0.099l0.017,0.098l0.016,0.099l0.014,0.1l0.014,0.1l0.012,0.1l0.011,0.101l0.009,0.101l0.009,0.101l0.007,0.102l0.006,0.102l0.004,0.102l0.003,0.103l0.002,0.103l0.001,0.103l-0.001,0.103l-0.002,0.103l-0.003,0.103l-0.004,0.102l-0.006,0.102l-0.007,0.102l-0.009,0.101l-0.009,0.101l-0.011,0.101l-0.012,0.1l-0.014,0.1l-0.014,0.1l-0.016,0.099l-0.017,0.098l-0.018,0.099l-0.02,0.097l-0.02,0.098l-0.022,0.097l-0.023,0.096l-0.024,0.096l-0.025,0.096l-0.027,0.095l-0.027,0.095l-0.029,0.094l-0.03,0.094l-0.031,0.093l-0.032,0.092l-0.033,0.092l-0.034,0.092l-0.035,0.091l-0.037,0.091l-0.037,0.09l-0.039,0.089l-0.039,0.089l-0.041,0.088l-0.041,0.088l-0.043,0.087l-0.044,0.087l-0.044,0.086l-0.046,0.085l-0.047,0.085l-0.048,0.084l-0.048,0.083l-0.05,0.083l-0.05,0.082l-0.052,0.082l-0.053,0.08l-0.053,0.081l-0.054,0.079l-0.056,0.079l-0.056,0.078l-0.057,0.077l-0.058,0.077l-0.059,0.076l-0.06,0.075l-0.061,0.075l-0.061,0.073l-0.063,0.073l-0.063,0.072l-0.064,0.072l-0.065,0.071l-0.066,0.069l-0.067,0.069l-0.067,0.069l-0.069,0.067l-0.069,0.067l-0.069,0.066l-0.071,0.065l-0.072,0.064l-0.072,0.063l-0.073,0.063l-0.073,0.061l-0.075,0.061l-0.075,0.06l-0.076,0.059l-0.077,0.058l-0.077,0.057l-0.078,0.056l-0.079,0.056l-0.079,0.054l-0.081,0.053l-0.08,0.053l-0.082,0.052l-0.082,0.05l-0.083,0.05l-0.083,0.048l-0.084,0.048l-0.085,0.047l-0.085,0.046l-0.086,0.044l-0.087,0.044l-0.087,0.043l-0.088,0.041l-0.088,0.041l-0.089,0.039l-0.089,0.039l-0.09,0.037l-0.091,0.037l-0.091,0.035l-0.092,0.034l-0.092,0.033l-0.092,0.032l-0.093,0.031l-0.094,0.03l-0.094,0.029l-0.095,0.027l-0.095,0.027l-0.096,0.025l-0.096,0.024l-0.096,0.023l-0.097,0.022l-0.098,0.02l-0.097,0.02l-0.099,0.018l-0.098,0.017l-0.099,0.016l-0.1,0.014l-0.1,0.014l-0.1,0.012l-0.101,0.011l-0.101,0.009l-0.101,0.009l-0.102,0.007l-0.102,0.006l-0.102,0.004l-0.103,0.003l-0.103,0.002l-0.103,0.001l-0.103,-0.001l-0.103,-0.002l-0.103,-0.003l-0.102,-0.004l-0.102,-0.006l-0.102,-0.007l-0.101,-0.009l-0.101,-0.009l-0.101,-0.011l-0.1,-0.012l-0.1,-0.014l-0.1,-0.014l-0.099,-0.016l-0.098,-0.017l-0.099,-0.018l-0.097,-0.02l-0.098,-0.02l-0.097,-0.022l-0.096,-0.023l-0.096,-0.024l-0.096,-0.025l-0.095,-0.027l-0.095,-0.027l-0.094,-0.029l-0.094,-0.03l-0.093,-0.031l-0.092,-0.032l-0.092,-0.033l-0.092,-0.034l-0.091,-0.035l-0.091,-0.037l-0.09,-0.037l-0.089,-0.039l-0.089,-0.039l-0.088,-0.041l-0.088,-0.041l-0.087,-0.043l-0.087,-0.044l-0.086,-0.044l-0.085,-0.046l-0.085,-0.047l-0.084,-0.048l-0.083,-0.048l-0.083,-0.05l-0.082,-0.05l-0.082,-0.052l-0.08,-0.053l-0.081,-0.053l-0.079,-0.054l-0.079,-0.056l-0.078,-0.056l-0.077,-0.057l-0.077,-0.058l-0.076,-0.059l-0.075,-0.06l-0.075,-0.061l-0.073,-0.061l-0.073,-0.063l-0.072,-0.063l-0.072,-0.064l-0.071,-0.065l-0.069,-0.066l-0.069,-0.067l-0.069,-0.067l-0.067,-0.069l-0.067,-0.069l-0.066,-0.069l-0.065,-0.071l-0.064,-0.072l-0.063,-0.072l-0.063,-0.073l-0.061,-0.073l-0.061,-0.075l-0.06,-0.075l-0.059,-0.076l-0.058,-0.077l-0.057,-0.077l-0.056,-0.078l-0.056,-0.079l-0.054,-0.079l-0.053,-0.081l-0.053,-0.08l-0.052,-0.082l-0.05,-0.082l-0.05,-0.083l-0.048,-0.083l-0.048,-0.084l-0.047,-0.085l-0.046,-0.085l-0.044,-0.086l-0.044,-0.087l-0.043,-0.087l-0.041,-0.088l-0.041,-0.088l-0.039,-0.089l-0.039,-0.089l-0.037,-0.09l-0.037,-0.091l-0.035,-0.091l-0.034,-0.092l-0.033,-0.092l-0.032,-0.092l-0.031,-0.093l-0.03,-0.094l-0.029,-0.094l-0.027,-0.095l-0.027,-0.095l-0.025,-0.096l-0.024,-0.096l-0.023,-0.096l-0.022,-0.097l-0.02,-0.098l-0.02,-0.097l-0.018,-0.099l-0.017,-0.098l-0.016,-0.099l-0.014,-0.1l-0.014,-0.1l-0.012,-0.1l-0.011,-0.101l-0.009,-0.101l-0.009,-0.101l-0.007,-0.102l-0.006,-0.102l-0.004,-0.102l-0.003,-0.103l-0.002,-0.103l-0.001,-0.103l0.001,-0.103l0.002,-0.103l0.003,-0.103l0.004,-0.102l0.006,-0.102l0.007,-0.102l0.009,-0.101l0.009,-0.101l0.011,-0.101l0.012,-0.1l0.014,-0.1l0.014,-0.1l0.016,-0.099l0.017,-0.098l0.018,-0.099l0.02,-0.097l0.02,-0.098l0.022,-0.097l0.023,-0.096l0.024,-0.096l0.025,-0.096l0.027,-0.095l0.027,-0.095l0.029,-0.094l0.03,-0.094l0.031,-0.093l0.032,-0.092l0.033,-0.092l0.034,-0.092l0.035,-0.091l0.037,-0.091l0.037,-0.09l0.039,-0.089l0.039,-0.089l0.041,-0.088l0.041,-0.088l0.043,-0.087l0.044,-0.087l0.044,-0.086l0.046,-0.085l0.047,-0.085l0.048,-0.084l0.048,-0.083l0.05,-0.083l0.05,-0.082l0.052,-0.082l0.053,-0.08l0.053,-0.081l0.054,-0.079l0.056,-0.079l0.056,-0.078l0.057,-0.077l0.058,-0.077l0.059,-0.076l0.06,-0.075l0.061,-0.075l0.061,-0.073l0.063,-0.073l0.063,-0.072l0.064,-0.072l0.065,-0.071l0.066,-0.069l0.067,-0.069l0.067,-0.069l0.069,-0.067l0.069,-0.067l0.069,-0.066l0.071,-0.065l0.072,-0.064l0.072,-0.063l0.073,-0.063l0.073,-0.061l0.075,-0.061l0.075,-0.06l0.076,-0.059l0.077,-0.058l0.077,-0.057l0.078,-0.056l0.079,-0.056l0.079,-0.054l0.081,-0.053l0.08,-0.053l0.082,-0.052l0.082,-0.05l0.083,-0.05l0.083,-0.048l0.084,-0.048l0.085,-0.047l0.085,-0.046l0.086,-0.044l0.087,-0.044l0.087,-0.043l0.088,-0.041l0.088,-0.041l0.089,-0.039l0.089,-0.039l0.09,-0.037l0.091,-0.037l0.091,-0.035l0.092,-0.034l0.092,-0.033l0.092,-0.032l0.093,-0.031l0.094,-0.03l0.094,-0.029l0.095,-0.027l0.095,-0.027l0.096,-0.025l0.096,-0.024l0.096,-0.023l0.097,-0.022l0.098,-0.02l0.097,-0.02l0.099,-0.018l0.098,-0.017l0.099,-0.016l0.1,-0.014l0.1,-0.014l0.1,-0.012l0.101,-0.011l0.101,-0.009l0.101,-0.009l0.102,-0.007l0.102,-0.006l0.102,-0.004l0.103,-0.003l0.103,-0.002l0.103,-0.001l0.103,0.001ZM11.922,7.001l-0.078,0.001l-0.077,0.002l-0.077,0.004l-0.077,0.004l-0.076,0.006l-0.076,0.006l-0.076,0.007l-0.076,0.008l-0.075,0.009l-0.074,0.01l-0.075,0.011l-0.075,0.012l-0.073,0.013l-0.074,0.013l-0.073,0.015l-0.073,0.015l-0.073,0.017l-0.071,0.017l-0.072,0.018l-0.072,0.019l-0.071,0.02l-0.071,0.02l-0.071,0.022l-0.069,0.022l-0.07,0.023l-0.07,0.024l-0.068,0.025l-0.069,0.025l-0.068,0.027l-0.068,0.027l-0.067,0.028l-0.067,0.029l-0.067,0.029l-0.066,0.031l-0.066,0.031l-0.065,0.032l-0.064,0.032l-0.065,0.034l-0.064,0.035l-0.063,0.034l-0.063,0.036l-0.063,0.037l-0.062,0.037l-0.061,0.038l-0.062,0.039l-0.061,0.039l-0.06,0.04l-0.059,0.041l-0.06,0.042l-0.058,0.042l-0.058,0.043l-0.057,0.043l-0.058,0.044l-0.057,0.046l-0.055,0.045l-0.056,0.047l-0.055,0.046l-0.053,0.048l-0.055,0.048l-0.053,0.05l-0.052,0.049l-0.052,0.049l-0.051,0.051l-0.052,0.052l-0.049,0.052l-0.05,0.052l-0.049,0.054l-0.048,0.053l-0.047,0.054l-0.047,0.055l-0.047,0.056l-0.046,0.056l-0.044,0.056l-0.045,0.057l-0.043,0.058l-0.043,0.058l-0.042,0.058l-0.042,0.06l-0.041,0.06l-0.04,0.059l-0.039,0.061l-0.039,0.062l-0.038,0.061l-0.037,0.062l-0.036,0.062l-0.036,0.064l-0.036,0.064l-0.034,0.064l-0.033,0.063l-0.033,0.065l-0.032,0.066l-0.031,0.065l-0.031,0.067l-0.029,0.066l-0.029,0.066l-0.028,0.068l-0.027,0.068l-0.027,0.068l-0.026,0.069l-0.024,0.069l-0.024,0.068l-0.023,0.07l-0.023,0.071l-0.021,0.07l-0.02,0.07l-0.02,0.072l-0.019,0.072l-0.018,0.071l-0.017,0.072l-0.017,0.073l-0.015,0.072l-0.015,0.075l-0.013,0.074l-0.013,0.073l-0.012,0.073l-0.011,0.075l-0.01,0.076l-0.009,0.074l-0.008,0.076l-0.007,0.076l-0.006,0.076l-0.006,0.076l-0.004,0.076l-0.004,0.078l-0.002,0.077l-0.001,0.078l-0.001,0.078l0.001,0.078l0.001,0.078l0.002,0.077l0.004,0.078l0.004,0.076l0.006,0.076l0.006,0.076l0.007,0.076l0.008,0.076l0.009,0.074l0.01,0.076l0.011,0.075l0.012,0.073l0.013,0.073l0.013,0.074l0.015,0.075l0.015,0.072l0.017,0.073l0.017,0.072l0.018,0.071l0.019,0.072l0.02,0.072l0.02,0.07l0.021,0.07l0.023,0.071l0.023,0.07l0.024,0.068l0.024,0.069l0.026,0.069l0.027,0.068l0.027,0.068l0.028,0.068l0.029,0.066l0.029,0.066l0.031,0.067l0.031,0.065l0.032,0.066l0.033,0.065l0.033,0.063l0.034,0.064l0.036,0.064l0.036,0.064l0.036,0.062l0.037,0.062l0.038,0.061l0.039,0.062l0.039,0.061l0.04,0.059l0.041,0.06l0.042,0.06l0.042,0.058l0.043,0.058l0.043,0.058l0.045,0.057l0.044,0.056l0.046,0.056l0.047,0.056l0.047,0.055l0.047,0.054l0.048,0.053l0.049,0.054l0.05,0.052l0.049,0.052l0.052,0.052l0.051,0.051l0.052,0.049l0.052,0.049l0.053,0.05l0.055,0.048l0.053,0.048l0.055,0.046l0.056,0.047l0.055,0.045l0.057,0.046l0.058,0.044l0.057,0.043l0.058,0.043l0.058,0.042l0.06,0.042l0.059,0.041l0.06,0.04l0.061,0.039l0.062,0.039l0.061,0.038l0.062,0.037l0.063,0.037l0.063,0.036l0.063,0.034l0.064,0.035l0.065,0.034l0.064,0.032l0.065,0.032l0.066,0.031l0.066,0.031l0.067,0.029l0.067,0.029l0.067,0.028l0.068,0.027l0.068,0.027l0.069,0.025l0.068,0.025l0.07,0.024l0.07,0.023l0.069,0.022l0.071,0.022l0.071,0.02l0.071,0.02l0.072,0.019l0.072,0.018l0.071,0.017l0.073,0.017l0.073,0.015l0.073,0.015l0.074,0.013l0.073,0.013l0.075,0.012l0.075,0.011l0.074,0.01l0.075,0.009l0.076,0.008l0.076,0.007l0.076,0.006l0.076,0.006l0.077,0.004l0.077,0.004l0.077,0.002l0.078,0.001l0.078,0.001l0.078,-0.001l0.078,-0.001l0.077,-0.002l0.077,-0.004l0.077,-0.004l0.076,-0.006l0.076,-0.006l0.076,-0.007l0.076,-0.008l0.075,-0.009l0.074,-0.01l0.075,-0.011l0.075,-0.012l0.073,-0.013l0.074,-0.013l0.073,-0.015l0.073,-0.015l0.073,-0.017l0.071,-0.017l0.072,-0.018l0.072,-0.019l0.071,-0.02l0.071,-0.02l0.071,-0.022l0.069,-0.022l0.07,-0.023l0.07,-0.024l0.068,-0.025l0.069,-0.025l0.068,-0.027l0.068,-0.027l0.067,-0.028l0.067,-0.029l0.067,-0.029l0.066,-0.031l0.066,-0.031l0.065,-0.032l0.064,-0.032l0.065,-0.034l0.064,-0.035l0.063,-0.034l0.063,-0.036l0.063,-0.037l0.062,-0.037l0.061,-0.038l0.062,-0.039l0.061,-0.039l0.06,-0.04l0.059,-0.041l0.06,-0.042l0.058,-0.042l0.058,-0.043l0.057,-0.043l0.058,-0.044l0.057,-0.046l0.055,-0.045l0.056,-0.047l0.055,-0.046l0.053,-0.048l0.055,-0.048l0.053,-0.05l0.052,-0.049l0.052,-0.049l0.051,-0.051l0.052,-0.052l0.049,-0.052l0.05,-0.052l0.049,-0.054l0.048,-0.053l0.047,-0.054l0.047,-0.055l0.047,-0.056l0.046,-0.056l0.044,-0.056l0.045,-0.057l0.043,-0.058l0.043,-0.058l0.042,-0.058l0.042,-0.06l0.041,-0.06l0.04,-0.059l0.039,-0.061l0.039,-0.062l0.038,-0.061l0.037,-0.062l0.036,-0.062l0.036,-0.064l0.036,-0.064l0.034,-0.064l0.033,-0.063l0.033,-0.065l0.032,-0.066l0.031,-0.065l0.031,-0.067l0.029,-0.066l0.029,-0.066l0.028,-0.068l0.027,-0.068l0.027,-0.068l0.026,-0.069l0.024,-0.069l0.024,-0.068l0.023,-0.07l0.023,-0.071l0.021,-0.07l0.02,-0.07l0.02,-0.072l0.019,-0.072l0.018,-0.071l0.017,-0.072l0.017,-0.073l0.015,-0.072l0.015,-0.075l0.013,-0.074l0.013,-0.073l0.012,-0.073l0.011,-0.075l0.01,-0.076l0.009,-0.074l0.008,-0.076l0.007,-0.076l0.006,-0.076l0.006,-0.076l0.004,-0.076l0.004,-0.078l0.002,-0.077l0.001,-0.078l0.001,-0.078l-0.001,-0.078l-0.001,-0.078l-0.002,-0.077l-0.004,-0.078l-0.004,-0.076l-0.006,-0.076l-0.006,-0.076l-0.007,-0.076l-0.008,-0.076l-0.009,-0.074l-0.01,-0.076l-0.011,-0.075l-0.012,-0.073l-0.013,-0.073l-0.013,-0.074l-0.015,-0.075l-0.015,-0.072l-0.017,-0.073l-0.017,-0.072l-0.018,-0.071l-0.019,-0.072l-0.02,-0.072l-0.02,-0.07l-0.021,-0.07l-0.023,-0.071l-0.023,-0.07l-0.024,-0.068l-0.024,-0.069l-0.026,-0.069l-0.027,-0.068l-0.027,-0.068l-0.028,-0.068l-0.029,-0.066l-0.029,-0.066l-0.031,-0.067l-0.031,-0.065l-0.032,-0.066l-0.033,-0.065l-0.033,-0.063l-0.034,-0.064l-0.036,-0.064l-0.036,-0.064l-0.036,-0.062l-0.037,-0.062l-0.038,-0.061l-0.039,-0.062l-0.039,-0.061l-0.04,-0.059l-0.041,-0.06l-0.042,-0.06l-0.042,-0.058l-0.043,-0.058l-0.043,-0.058l-0.045,-0.057l-0.044,-0.056l-0.046,-0.056l-0.047,-0.056l-0.047,-0.055l-0.047,-0.054l-0.048,-0.053l-0.049,-0.054l-0.05,-0.052l-0.049,-0.052l-0.052,-0.052l-0.051,-0.051l-0.052,-0.049l-0.052,-0.049l-0.053,-0.05l-0.055,-0.048l-0.053,-0.048l-0.055,-0.046l-0.056,-0.047l-0.055,-0.045l-0.057,-0.046l-0.058,-0.044l-0.057,-0.043l-0.058,-0.043l-0.058,-0.042l-0.06,-0.042l-0.059,-0.041l-0.06,-0.04l-0.061,-0.039l-0.062,-0.039l-0.061,-0.038l-0.062,-0.037l-0.063,-0.037l-0.063,-0.036l-0.063,-0.034l-0.064,-0.035l-0.065,-0.034l-0.064,-0.032l-0.065,-0.032l-0.066,-0.031l-0.066,-0.031l-0.067,-0.029l-0.067,-0.029l-0.067,-0.028l-0.068,-0.027l-0.068,-0.027l-0.069,-0.025l-0.068,-0.025l-0.07,-0.024l-0.07,-0.023l-0.069,-0.022l-0.071,-0.022l-0.071,-0.02l-0.071,-0.02l-0.072,-0.019l-0.072,-0.018l-0.071,-0.017l-0.073,-0.017l-0.073,-0.015l-0.073,-0.015l-0.074,-0.013l-0.073,-0.013l-0.075,-0.012l-0.075,-0.011l-0.074,-0.01l-0.075,-0.009l-0.076,-0.008l-0.076,-0.007l-0.076,-0.006l-0.076,-0.006l-0.077,-0.004l-0.077,-0.004l-0.077,-0.002l-0.078,-0.001l-0.078,-0.001l-0.078,0.001Z" style="fill:#000;"/><rect x="11" y="13" width="5" height="2" style="fill:#000;fill-rule:nonzero;"/><rect x="11" y="9" width="2" height="6" style="fill:#000;fill-rule:nonzero;"/><path d="M16.243,18.657l1.414,-1.414l2.828,2.828l-1.414,1.414c-0.943,-0.943 -1.886,-1.885 -2.828,-2.828Z" style="fill:#000;fill-rule:nonzero;"/><path d="M6.343,17.243l1.414,1.414l-2.828,2.828l-1.414,-1.414c0.943,-0.943 1.885,-1.886 2.828,-2.828Z" style="fill:#000;fill-rule:nonzero;"/><path d="M14.076,5.273c0.316,-0.339 0.69,-0.623 1.104,-0.835c0.379,-0.195 0.79,-0.327 1.211,-0.392c0.168,-0.026 0.336,-0.038 0.506,-0.045c0.103,-0.001 0.103,-0.001 0.206,0c0.17,0.007 0.338,0.019 0.506,0.045c0.421,0.065 0.832,0.197 1.211,0.392c0.745,0.381 1.361,0.997 1.742,1.742c0.179,0.349 0.306,0.725 0.375,1.112c0.078,0.434 0.084,0.881 0.017,1.317c-0.06,0.389 -0.178,0.77 -0.349,1.125c-0.209,0.433 -0.497,0.829 -0.846,1.161c-0.01,0.01 -0.021,0.02 -0.031,0.03c-0.201,-0.75 -0.509,-1.456 -0.905,-2.102c0.068,-0.149 0.117,-0.306 0.146,-0.467c0.044,-0.251 0.041,-0.511 -0.01,-0.76c-0.114,-0.557 -0.473,-1.049 -0.966,-1.332c-0.258,-0.148 -0.542,-0.232 -0.837,-0.258c-0.07,-0.004 -0.139,-0.006 -0.209,-0.005c-0.267,0.01 -0.527,0.066 -0.77,0.176c-0.646,-0.396 -1.352,-0.703 -2.101,-0.904Z" style="fill:#000;"/><path d="M4.272,10.925c-0.01,-0.01 -0.021,-0.02 -0.031,-0.03c-0.349,-0.332 -0.637,-0.728 -0.846,-1.161c-0.171,-0.355 -0.289,-0.736 -0.349,-1.125c-0.067,-0.436 -0.061,-0.883 0.017,-1.317c0.069,-0.387 0.196,-0.763 0.375,-1.112c0.381,-0.745 0.997,-1.361 1.742,-1.742c0.379,-0.195 0.79,-0.327 1.211,-0.392c0.168,-0.026 0.336,-0.038 0.506,-0.045c0.103,-0.001 0.103,-0.001 0.206,0c0.17,0.007 0.338,0.019 0.506,0.045c0.421,0.065 0.832,0.197 1.211,0.392c0.414,0.212 0.788,0.496 1.104,0.835c-0.749,0.201 -1.455,0.508 -2.101,0.904c-0.211,-0.094 -0.436,-0.15 -0.667,-0.171c-0.07,-0.004 -0.139,-0.006 -0.209,-0.005c-0.298,0.011 -0.589,0.08 -0.855,0.217c-0.535,0.274 -0.93,0.788 -1.051,1.378c-0.048,0.233 -0.054,0.476 -0.018,0.711c0.027,0.177 0.079,0.35 0.153,0.514l0.001,0.002c-0.396,0.646 -0.704,1.352 -0.905,2.102Z" style="fill:#000;"/></g></svg>