<?xml version="1.0" encoding="UTF-8" standalone="no"?><!DOCTYPE svg PUBLIC "-//W3C//DTD SVG 1.1//EN" "http://www.w3.org/Graphics/SVG/1.1/DTD/svg11.dtd"><svg width="100%" height="100%" viewBox="0 0 24 24" version="1.1" xmlns="http://www.w3.org/2000/svg" xmlns:xlink="http://www.w3.org/1999/xlink" xml:space="preserve" style="fill-rule:evenodd;clip-rule:evenodd;stroke-linejoin:round;stroke-miterlimit:1.41421;"><g id="alarm_sounding"><path d="M15.386,20c-0.63,1.205 -1.916,2 -3.386,2c-1.47,0 -2.756,-0.795 -3.386,-2l6.772,0Z" style="fill:#000;"/><path d="M12,4l0.078,0l0.077,0.002l0.077,0.002l0.077,0.004l0.076,0.004l0.077,0.005l0.076,0.007l0.075,0.007l0.076,0.008l0.075,0.009l0.075,0.01l0.075,0.011l0.074,0.012l0.074,0.013l0.074,0.013l0.073,0.015l0.073,0.015l0.073,0.017l0.072,0.017l0.072,0.018l0.072,0.019l0.072,0.02l0.071,0.02l0.07,0.022l0.07,0.022l0.07,0.023l0.07,0.024l0.069,0.025l0.069,0.026l0.068,0.026l0.068,0.027l0.067,0.029l0.068,0.028l0.066,0.03l0.066,0.03l0.066,0.032l0.066,0.032l0.065,0.032l0.064,0.034l0.064,0.034l0.063,0.035l0.064,0.036l0.062,0.036l0.062,0.038l0.062,0.038l0.061,0.038l0.061,0.04l0.06,0.04l0.059,0.04l0.059,0.042l0.059,0.042l0.058,0.043l0.057,0.044l0.057,0.044l0.057,0.045l0.056,0.045l0.055,0.046l0.055,0.047l0.054,0.048l0.053,0.048l0.053,0.048l0.053,0.05l0.051,0.05l0.052,0.05l0.05,0.052l0.05,0.051l0.05,0.053l0.048,0.053l0.048,0.053l0.048,0.054l0.047,0.055l0.046,0.055l0.045,0.056l0.045,0.057l0.044,0.057l0.044,0.057l0.043,0.058l0.042,0.059l0.042,0.059l0.04,0.059l0.04,0.06l0.04,0.061l0.038,0.061l0.038,0.062l0.038,0.062l0.036,0.062l0.036,0.064l0.035,0.063l0.034,0.064l0.034,0.064l0.032,0.065l0.032,0.066l0.032,0.066l0.03,0.066l0.03,0.066l0.028,0.068l0.029,0.067l0.027,0.068l0.026,0.068l0.026,0.069l0.025,0.069l0.024,0.07l0.023,0.07l0.022,0.07l0.022,0.07l0.02,0.071l0.02,0.072l0.019,0.072l0.018,0.072l0.017,0.072l0.017,0.073l0.015,0.073l0.015,0.073l0.013,0.074l0.013,0.074l0.012,0.074l0.011,0.075l0.01,0.075l0.009,0.075l0.008,0.076l0.007,0.075l0.007,0.076l0.005,0.077l0.004,0.076l0.004,0.077l0.002,0.077l0.002,0.077l0,0.078l0,2.2l4,6.8l-20,0l4,-6.8l0,-2.2l0,-0.078l0.002,-0.077l0.002,-0.077l0.004,-0.077l0.004,-0.076l0.005,-0.077l0.007,-0.076l0.007,-0.075l0.008,-0.076l0.009,-0.075l0.01,-0.075l0.011,-0.075l0.012,-0.074l0.013,-0.074l0.013,-0.074l0.015,-0.073l0.015,-0.073l0.017,-0.073l0.017,-0.072l0.018,-0.072l0.019,-0.072l0.02,-0.072l0.02,-0.071l0.022,-0.07l0.022,-0.07l0.023,-0.07l0.024,-0.07l0.025,-0.069l0.026,-0.069l0.026,-0.068l0.027,-0.068l0.029,-0.067l0.028,-0.068l0.03,-0.066l0.03,-0.066l0.032,-0.066l0.032,-0.066l0.032,-0.065l0.034,-0.064l0.034,-0.064l0.035,-0.063l0.036,-0.064l0.036,-0.062l0.038,-0.062l0.038,-0.062l0.038,-0.061l0.04,-0.061l0.04,-0.06l0.04,-0.059l0.042,-0.059l0.042,-0.059l0.043,-0.058l0.044,-0.057l0.044,-0.057l0.045,-0.057l0.045,-0.056l0.046,-0.055l0.047,-0.055l0.048,-0.054l0.048,-0.053l0.048,-0.053l0.05,-0.053l0.05,-0.051l0.05,-0.052l0.052,-0.05l0.051,-0.05l0.053,-0.05l0.053,-0.048l0.053,-0.048l0.054,-0.048l0.055,-0.047l0.055,-0.046l0.056,-0.045l0.057,-0.045l0.057,-0.044l0.057,-0.044l0.058,-0.043l0.059,-0.042l0.059,-0.042l0.059,-0.04l0.06,-0.04l0.061,-0.04l0.061,-0.038l0.062,-0.038l0.062,-0.038l0.062,-0.036l0.064,-0.036l0.063,-0.035l0.064,-0.034l0.064,-0.034l0.065,-0.032l0.066,-0.032l0.066,-0.032l0.066,-0.03l0.066,-0.03l0.068,-0.028l0.067,-0.029l0.068,-0.027l0.068,-0.026l0.069,-0.026l0.069,-0.025l0.07,-0.024l0.07,-0.023l0.07,-0.022l0.07,-0.022l0.071,-0.02l0.072,-0.02l0.072,-0.019l0.072,-0.018l0.072,-0.017l0.073,-0.017l0.073,-0.015l0.073,-0.015l0.074,-0.013l0.074,-0.013l0.074,-0.012l0.075,-0.011l0.075,-0.01l0.075,-0.009l0.076,-0.008l0.075,-0.007l0.076,-0.007l0.077,-0.005l0.076,-0.004l0.077,-0.004l0.077,-0.002l0.077,-0.002l0.078,0l0,0ZM11.947,6l-0.052,0.001l-0.051,0.002l-0.051,0.002l-0.052,0.003l-0.051,0.004l-0.051,0.004l-0.05,0.005l-0.051,0.005l-0.05,0.006l-0.05,0.007l-0.049,0.007l-0.05,0.008l-0.05,0.009l-0.048,0.009l-0.05,0.009l-0.048,0.011l-0.048,0.01l-0.048,0.012l-0.048,0.012l-0.047,0.012l-0.048,0.014l-0.047,0.013l-0.047,0.015l-0.047,0.014l-0.046,0.016l-0.047,0.016l-0.045,0.016l-0.046,0.017l-0.046,0.018l-0.045,0.018l-0.044,0.018l-0.045,0.02l-0.045,0.02l-0.043,0.019l-0.044,0.021l-0.044,0.022l-0.043,0.022l-0.042,0.022l-0.043,0.022l-0.043,0.024l-0.041,0.024l-0.043,0.024l-0.041,0.025l-0.041,0.025l-0.04,0.026l-0.041,0.026l-0.04,0.027l-0.04,0.027l-0.039,0.028l-0.039,0.028l-0.039,0.029l-0.039,0.029l-0.038,0.029l-0.037,0.03l-0.037,0.03l-0.038,0.032l-0.036,0.031l-0.036,0.032l-0.036,0.032l-0.035,0.032l-0.036,0.034l-0.034,0.033l-0.034,0.033l-0.034,0.035l-0.034,0.035l-0.033,0.035l-0.032,0.035l-0.033,0.036l-0.031,0.036l-0.031,0.037l-0.031,0.036l-0.031,0.038l-0.03,0.038l-0.029,0.037l-0.029,0.039l-0.029,0.039l-0.028,0.039l-0.028,0.039l-0.027,0.04l-0.027,0.04l-0.026,0.04l-0.026,0.042l-0.025,0.04l-0.025,0.042l-0.024,0.041l-0.024,0.042l-0.023,0.043l-0.023,0.042l-0.023,0.044l-0.021,0.043l-0.021,0.043l-0.021,0.044l-0.021,0.044l-0.019,0.044l-0.019,0.044l-0.019,0.045l-0.018,0.046l-0.018,0.045l-0.017,0.046l-0.016,0.046l-0.016,0.046l-0.016,0.046l-0.014,0.047l-0.015,0.047l-0.013,0.047l-0.014,0.047l-0.012,0.048l-0.012,0.048l-0.012,0.048l-0.01,0.048l-0.011,0.049l-0.009,0.049l-0.009,0.049l-0.009,0.049l-0.008,0.049l-0.007,0.05l-0.007,0.05l-0.006,0.05l-0.005,0.051l-0.005,0.05l-0.004,0.051l-0.004,0.051l-0.003,0.052l-0.002,0.051l-0.002,0.052l-0.001,0.052l0,0.058l0,2.739l-2.503,4.255l13.006,0l-2.503,-4.255l0,-2.739l0,-0.058l-0.001,-0.052l-0.002,-0.052l-0.002,-0.051l-0.003,-0.052l-0.004,-0.051l-0.004,-0.051l-0.005,-0.05l-0.005,-0.051l-0.006,-0.05l-0.007,-0.05l-0.007,-0.05l-0.008,-0.049l-0.009,-0.049l-0.009,-0.049l-0.009,-0.049l-0.011,-0.049l-0.01,-0.048l-0.012,-0.048l-0.012,-0.048l-0.012,-0.048l-0.014,-0.047l-0.013,-0.047l-0.015,-0.047l-0.014,-0.047l-0.016,-0.046l-0.016,-0.046l-0.016,-0.046l-0.017,-0.046l-0.018,-0.045l-0.018,-0.046l-0.019,-0.045l-0.019,-0.044l-0.019,-0.044l-0.021,-0.044l-0.021,-0.044l-0.021,-0.043l-0.021,-0.043l-0.023,-0.044l-0.023,-0.042l-0.023,-0.043l-0.024,-0.042l-0.024,-0.041l-0.025,-0.042l-0.025,-0.041l-0.026,-0.041l-0.026,-0.04l-0.027,-0.04l-0.027,-0.04l-0.028,-0.039l-0.028,-0.039l-0.029,-0.039l-0.029,-0.039l-0.029,-0.037l-0.03,-0.038l-0.031,-0.038l-0.031,-0.036l-0.031,-0.037l-0.031,-0.036l-0.033,-0.036l-0.032,-0.035l-0.033,-0.035l-0.034,-0.035l-0.034,-0.035l-0.034,-0.033l-0.034,-0.033l-0.036,-0.034l-0.035,-0.033l-0.036,-0.031l-0.036,-0.032l-0.036,-0.031l-0.038,-0.032l-0.037,-0.03l-0.037,-0.03l-0.038,-0.029l-0.039,-0.029l-0.039,-0.029l-0.039,-0.028l-0.039,-0.028l-0.04,-0.027l-0.04,-0.027l-0.041,-0.026l-0.04,-0.026l-0.041,-0.025l-0.042,-0.025l-0.042,-0.024l-0.041,-0.024l-0.043,-0.024l-0.043,-0.022l-0.042,-0.022l-0.043,-0.022l-0.044,-0.022l-0.044,-0.021l-0.043,-0.019l-0.045,-0.02l-0.045,-0.02l-0.044,-0.018l-0.045,-0.018l-0.046,-0.018l-0.046,-0.017l-0.045,-0.016l-0.047,-0.016l-0.046,-0.016l-0.047,-0.014l-0.047,-0.015l-0.047,-0.013l-0.048,-0.014l-0.047,-0.012l-0.048,-0.012l-0.048,-0.012l-0.048,-0.01l-0.048,-0.011l-0.05,-0.009l-0.048,-0.009l-0.05,-0.009l-0.05,-0.008l-0.049,-0.007l-0.05,-0.007l-0.05,-0.006l-0.051,-0.005l-0.05,-0.005l-0.051,-0.004l-0.051,-0.004l-0.052,-0.003l-0.051,-0.002l-0.051,-0.002l-0.052,-0.001l-0.053,0l-0.053,0Z" style="fill:#000;"/><path d="M15.29,0.998c0.276,0.009 0.55,0.035 0.822,0.083c0.88,0.156 1.719,0.513 2.469,0.996c0.287,0.184 0.562,0.388 0.823,0.608c1.259,1.064 2.218,2.538 2.508,4.174c0.063,0.356 0.091,0.716 0.089,1.077l-0.001,0.084l-2,-0.04c0.002,-0.081 0.002,-0.162 -0.001,-0.244c-0.008,-0.177 -0.025,-0.353 -0.056,-0.528c-0.089,-0.502 -0.274,-0.984 -0.523,-1.427c-0.366,-0.652 -0.87,-1.227 -1.456,-1.69c-0.215,-0.17 -0.441,-0.325 -0.678,-0.463c-0.681,-0.396 -1.457,-0.656 -2.252,-0.629l-0.068,-1.998c0.108,-0.004 0.216,-0.005 0.324,-0.003Z" style="fill:#000;fill-rule:nonzero;"/><path d="M8.878,0.997c0.079,0.001 0.079,0.001 0.158,0.004l-0.068,1.998c-0.07,-0.002 -0.139,-0.003 -0.209,-0.002c-0.086,0.003 -0.171,0.009 -0.257,0.017c-0.674,0.074 -1.317,0.325 -1.893,0.678c-0.235,0.144 -0.459,0.305 -0.671,0.48c-0.559,0.462 -1.039,1.026 -1.387,1.664c-0.252,0.463 -0.434,0.967 -0.511,1.489c-0.032,0.217 -0.043,0.436 -0.038,0.655l-2,0.04c-0.007,-0.36 0.015,-0.718 0.073,-1.072c0.27,-1.672 1.242,-3.18 2.523,-4.263c0.261,-0.22 0.536,-0.424 0.823,-0.608c0.749,-0.483 1.589,-0.84 2.469,-0.996c0.245,-0.043 0.491,-0.069 0.74,-0.081c0.083,-0.002 0.165,-0.003 0.248,-0.003Z" style="fill:#000;fill-rule:nonzero;"/></g></svg>