<?xml version="1.0" encoding="UTF-8" standalone="no"?><!DOCTYPE svg PUBLIC "-//W3C//DTD SVG 1.1//EN" "http://www.w3.org/Graphics/SVG/1.1/DTD/svg11.dtd"><svg width="100%" height="100%" viewBox="0 0 24 24" version="1.1" xmlns="http://www.w3.org/2000/svg" xmlns:xlink="http://www.w3.org/1999/xlink" xml:space="preserve" style="fill-rule:evenodd;clip-rule:evenodd;stroke-linejoin:round;stroke-miterlimit:1.41421;"><g id="android"><path d="M20.429,9.783c0,-0.68 -0.55,-1.232 -1.233,-1.232c-0.682,0 -1.235,0.552 -1.235,1.235l0,5.168c0,0.683 0.554,1.234 1.238,1.235c0.68,0 1.232,-0.552 1.232,-1.235l0,-5.171l-0.002,0ZM6.45,8.787l0.003,8.01c0,0.729 0.587,1.317 1.317,1.317l0.896,0l0,2.735c0,0.682 0.554,1.235 1.234,1.235c0.681,0 1.234,-0.553 1.235,-1.235l0,-2.735l1.665,0l0,2.735c0,0.68 0.555,1.235 1.235,1.234c0.683,0 1.235,-0.555 1.235,-1.237l0,-2.733l0.9,0c0.725,0 1.316,-0.59 1.316,-1.319l0,-8.011l-11.037,0.003l0.001,0.001ZM14.5,6.342c-0.259,0 -0.467,-0.208 -0.467,-0.466c0,-0.255 0.208,-0.467 0.466,-0.468c0.255,0 0.465,0.213 0.465,0.466c0,0.258 -0.209,0.467 -0.465,0.467M9.436,6.341c-0.257,0 -0.466,-0.208 -0.466,-0.465c0,-0.257 0.209,-0.467 0.465,-0.467c0.259,0 0.468,0.213 0.468,0.468c0,0.257 -0.209,0.466 -0.468,0.466M14.691,3.912l0.86,-1.575c0.047,-0.081 0.017,-0.185 -0.067,-0.233c-0.084,-0.043 -0.188,-0.012 -0.231,0.069l-0.874,1.59c-0.733,-0.325 -1.55,-0.509 -2.419,-0.507c-0.862,0 -1.684,0.181 -2.412,0.505l-0.869,-1.585c-0.045,-0.084 -0.15,-0.113 -0.233,-0.069c-0.083,0.045 -0.112,0.15 -0.067,0.232l0.862,1.572c-1.693,0.875 -2.837,2.537 -2.837,4.447l11.12,0c0,-1.91 -1.143,-3.57 -2.834,-4.445M4.735,8.552c-0.682,0 -1.235,0.554 -1.235,1.235l0,5.169c0,0.683 0.554,1.235 1.238,1.235c0.68,0 1.232,-0.55 1.232,-1.235l0,-5.17c0,-0.682 -0.554,-1.234 -1.235,-1.234" style="fill:#000;fill-rule:nonzero;"/></g></svg>