<?xml version="1.0" encoding="UTF-8" standalone="no"?><!DOCTYPE svg PUBLIC "-//W3C//DTD SVG 1.1//EN" "http://www.w3.org/Graphics/SVG/1.1/DTD/svg11.dtd"><svg width="100%" height="100%" viewBox="0 0 24 24" version="1.1" xmlns="http://www.w3.org/2000/svg" xmlns:xlink="http://www.w3.org/1999/xlink" xml:space="preserve" style="fill-rule:evenodd;clip-rule:evenodd;stroke-linejoin:round;stroke-miterlimit:1.41421;"><g id="apple"><path d="M11.771,7.739c0.675,0 1.93,-0.929 3.562,-0.929c2.813,0 3.919,2 3.919,2c0,0 -2.163,1.106 -2.163,3.79c0,3.025 2.694,4.069 2.694,4.069c0,0 -1.884,5.302 -4.427,5.302c-1.169,0 -2.078,-0.787 -3.309,-0.787c-1.255,0 -2.5,0.816 -3.31,0.816c-2.325,0 -5.259,-5.029 -5.259,-9.071c0,-3.978 2.485,-6.063 4.815,-6.063c1.513,0 2.69,0.873 3.478,0.873l0,0ZM12.474,3.741c1.313,-1.731 3.142,-1.74 3.142,-1.74c0,0 0.271,1.629 -1.034,3.198c-1.393,1.675 -2.978,1.4 -2.978,1.4c0,0 -0.297,-1.318 0.872,-2.858l-0.002,0Z" style="fill:#000;"/></g></svg>