<?xml version="1.0" encoding="UTF-8" standalone="no"?><!DOCTYPE svg PUBLIC "-//W3C//DTD SVG 1.1//EN" "http://www.w3.org/Graphics/SVG/1.1/DTD/svg11.dtd"><svg width="100%" height="100%" viewBox="0 0 24 24" version="1.1" xmlns="http://www.w3.org/2000/svg" xmlns:xlink="http://www.w3.org/1999/xlink" xml:space="preserve" style="fill-rule:evenodd;clip-rule:evenodd;stroke-linejoin:round;stroke-miterlimit:1.41421;"><g id="attach"><path d="M13,14.026c0.006,0.142 0.037,0.279 0.098,0.407c0.169,0.351 0.537,0.576 0.927,0.567c0.106,-0.003 0.212,-0.023 0.313,-0.059c0.115,-0.041 0.222,-0.104 0.315,-0.183c0.099,-0.086 0.181,-0.191 0.24,-0.308c0.067,-0.133 0.101,-0.277 0.107,-0.425c0.029,-2.382 0.028,-4.764 -0.001,-7.146c-0.015,-0.412 -0.106,-0.814 -0.282,-1.188c-0.166,-0.35 -0.401,-0.667 -0.688,-0.927c-0.412,-0.373 -0.927,-0.625 -1.474,-0.72c-0.197,-0.034 -0.396,-0.045 -0.596,-0.044c-0.324,0.002 -0.646,0.051 -0.953,0.155c-0.384,0.13 -0.739,0.34 -1.038,0.612c-0.264,0.239 -0.483,0.526 -0.645,0.842c-0.144,0.28 -0.241,0.582 -0.289,0.893c-0.019,0.124 -0.028,0.249 -0.033,0.374c-0.047,3.725 -0.047,7.451 0,11.176c0.008,0.229 0.05,0.455 0.133,0.669c0.208,0.538 0.648,0.967 1.191,1.162c0.201,0.072 0.41,0.109 0.624,0.116c0.7,0.01 1.402,0.01 2.102,0c0.214,-0.007 0.423,-0.044 0.624,-0.116c0.559,-0.2 1.008,-0.649 1.208,-1.207c0.079,-0.22 0.114,-0.448 0.117,-0.68l0,0.004l2,0c0,0.067 -0.002,0.133 -0.005,0.2c-0.028,0.459 -0.123,0.907 -0.299,1.332c-0.251,0.606 -0.653,1.147 -1.16,1.563c-0.354,0.289 -0.756,0.517 -1.186,0.671c-0.402,0.144 -0.822,0.217 -1.249,0.233c-0.734,0.01 -1.468,0.01 -2.202,0c-0.427,-0.016 -0.847,-0.089 -1.249,-0.233c-0.43,-0.154 -0.833,-0.382 -1.186,-0.671c-0.533,-0.437 -0.948,-1.011 -1.196,-1.653c-0.166,-0.43 -0.25,-0.881 -0.267,-1.341c-0.046,-3.718 -0.001,-7.436 -0.001,-11.154c0.003,-0.209 0.013,-0.417 0.04,-0.624c0.056,-0.446 0.174,-0.884 0.35,-1.298c0.201,-0.478 0.479,-0.922 0.818,-1.314c0.522,-0.602 1.187,-1.075 1.929,-1.367c0.577,-0.228 1.19,-0.34 1.81,-0.344c0.197,-0.001 0.394,0.005 0.59,0.024c0.443,0.044 0.879,0.148 1.293,0.308c0.567,0.219 1.091,0.542 1.541,0.949c0.482,0.437 0.876,0.968 1.154,1.556c0.207,0.437 0.349,0.905 0.421,1.384c0.03,0.202 0.045,0.405 0.053,0.609c0.029,2.415 0.03,4.83 0,7.245c-0.016,0.443 -0.119,0.875 -0.318,1.272c-0.177,0.353 -0.424,0.669 -0.723,0.926c-0.278,0.24 -0.601,0.428 -0.947,0.552c-0.324,0.115 -0.668,0.175 -1.012,0.175c-0.302,0 -0.603,-0.045 -0.891,-0.135c-0.812,-0.253 -1.493,-0.855 -1.843,-1.63c-0.165,-0.366 -0.249,-0.758 -0.264,-1.158l-0.001,-0.071l0,-6.006l2,0c0,2.009 -0.025,4.018 0,6.026Z" style="fill:#000;fill-rule:nonzero;"/></g></svg>