<?xml version="1.0" encoding="UTF-8" standalone="no"?><!DOCTYPE svg PUBLIC "-//W3C//DTD SVG 1.1//EN" "http://www.w3.org/Graphics/SVG/1.1/DTD/svg11.dtd"><svg width="100%" height="100%" viewBox="0 0 24 24" version="1.1" xmlns="http://www.w3.org/2000/svg" xmlns:xlink="http://www.w3.org/1999/xlink" xml:space="preserve" style="fill-rule:evenodd;clip-rule:evenodd;stroke-linejoin:round;stroke-miterlimit:1.41421;"><g id="barchart"><rect x="2" y="18" width="20" height="2" style="fill:#000;"/><path d="M8,20l-6,0l0,-8l6,0c0,2.667 0,5.333 0,8ZM4,14l0,4l2,0l0,-4c-0.667,0 -1.333,0 -2,0Z" style="fill:#000;fill-rule:nonzero;"/><path d="M15,20l-6,0l0,-11l6,0c0,3.667 0,7.333 0,11ZM11,11l0,7l2,0l0,-7c-0.667,0 -1.333,0 -2,0Z" style="fill:#000;fill-rule:nonzero;"/><path d="M22,20l-6,0l0,-15l6,0c0,5 0,10 0,15ZM18,7l0,11l2,0l0,-11c-0.667,0 -1.333,0 -2,0Z" style="fill:#000;fill-rule:nonzero;"/></g></svg>