<?xml version="1.0" encoding="UTF-8" standalone="no"?><!DOCTYPE svg PUBLIC "-//W3C//DTD SVG 1.1//EN" "http://www.w3.org/Graphics/SVG/1.1/DTD/svg11.dtd"><svg width="100%" height="100%" viewBox="0 0 24 24" version="1.1" xmlns="http://www.w3.org/2000/svg" xmlns:xlink="http://www.w3.org/1999/xlink" xml:space="preserve" style="fill-rule:evenodd;clip-rule:evenodd;stroke-linejoin:round;stroke-miterlimit:1.41421;"><g id="boat"><path d="M20,10l-16,0l2,-8l12,0l2,8ZM7.562,4l-1,4l10.876,0l-1,-4l-8.876,0Z" style="fill:#000;"/><path d="M9.168,17.001c0.218,0.004 0.435,0.013 0.652,0.034c0.392,0.037 0.78,0.105 1.161,0.206c0.595,0.158 1.159,0.401 1.708,0.679c0.328,0.168 0.652,0.344 0.982,0.508c0.408,0.199 0.828,0.372 1.273,0.469c0.514,0.111 1.036,0.114 1.559,0.089c0.733,-0.035 1.466,-0.137 2.172,-0.34c0.51,-0.146 1.009,-0.346 1.465,-0.619c0.138,-0.082 0.272,-0.171 0.398,-0.27c0.083,-0.065 0.166,-0.133 0.239,-0.21l0.01,-0.011l1.49,1.334c-0.036,0.041 -0.074,0.08 -0.112,0.119c-0.37,0.358 -0.797,0.652 -1.249,0.898c-0.62,0.337 -1.287,0.583 -1.97,0.758c-0.768,0.196 -1.557,0.301 -2.347,0.339c-0.356,0.017 -0.713,0.025 -1.069,0.004c-0.339,-0.02 -0.677,-0.065 -1.009,-0.137c-0.338,-0.073 -0.67,-0.175 -0.992,-0.299c-0.287,-0.112 -0.566,-0.242 -0.841,-0.379c-0.332,-0.17 -0.66,-0.347 -0.992,-0.514c-0.225,-0.112 -0.451,-0.218 -0.685,-0.308c-0.272,-0.105 -0.552,-0.188 -0.837,-0.246c-0.571,-0.114 -1.151,-0.117 -1.73,-0.091c-0.853,0.039 -1.703,0.153 -2.532,0.357c-0.654,0.162 -1.296,0.38 -1.906,0.668c-0.197,0.093 -0.391,0.194 -0.579,0.304c-0.138,0.08 -0.273,0.165 -0.401,0.259l-0.018,0.015l-1.225,-1.581c0.069,-0.053 0.14,-0.104 0.211,-0.153c0.67,-0.45 1.406,-0.796 2.163,-1.069c1.03,-0.37 2.107,-0.603 3.195,-0.721c0.474,-0.051 0.949,-0.078 1.425,-0.09c0.13,-0.002 0.26,-0.004 0.391,-0.002Z" style="fill:#000;fill-rule:nonzero;"/><path d="M19.926,18.467l-0.033,0.321c-0.265,0.153 -0.522,0.317 -0.785,0.473c-0.284,0.163 -0.577,0.31 -0.887,0.419c-0.612,0.214 -1.264,0.292 -1.909,0.314c-0.241,0.008 -0.483,0.01 -0.723,-0.004c-0.327,-0.019 -0.651,-0.066 -0.969,-0.142c-0.485,-0.116 -0.944,-0.305 -1.391,-0.523c-0.365,-0.182 -0.722,-0.377 -1.086,-0.561c-0.22,-0.109 -0.443,-0.214 -0.671,-0.306c-0.318,-0.129 -0.646,-0.233 -0.981,-0.308c-0.344,-0.076 -0.693,-0.121 -1.045,-0.14c-0.308,-0.016 -0.617,-0.011 -0.925,0.002c-0.774,0.032 -1.547,0.138 -2.287,0.372c-0.331,0.105 -0.653,0.235 -0.966,0.383c-0.337,0.159 -0.664,0.336 -0.996,0.504l-0.11,0.054l-2.162,-11.325l20,0c-0.691,3.489 -1.383,6.978 -2.074,10.467ZM4.418,10l1.235,6.47c0.119,-0.037 0.239,-0.072 0.359,-0.105c0.793,-0.209 1.606,-0.317 2.424,-0.352c0.433,-0.018 0.866,-0.02 1.298,0.011c0.611,0.045 1.215,0.156 1.801,0.335c0.48,0.148 0.944,0.342 1.395,0.563c0.399,0.195 0.786,0.411 1.183,0.609c0.097,0.047 0.194,0.093 0.293,0.137c0.288,0.125 0.584,0.226 0.895,0.279c0.363,0.062 0.733,0.061 1.101,0.041c0.39,-0.021 0.787,-0.066 1.157,-0.196c0.166,-0.058 0.323,-0.136 0.476,-0.221l0.033,-0.019l1.497,-7.552c-5.049,0 -10.098,0 -15.147,0Z" style="fill:#000;fill-rule:nonzero;"/><rect x="11" y="9" width="2" height="8" style="fill:#000;fill-rule:nonzero;"/></g></svg>