<?xml version="1.0" encoding="UTF-8" standalone="no"?><!DOCTYPE svg PUBLIC "-//W3C//DTD SVG 1.1//EN" "http://www.w3.org/Graphics/SVG/1.1/DTD/svg11.dtd"><svg width="100%" height="100%" viewBox="0 0 24 24" version="1.1" xmlns="http://www.w3.org/2000/svg" xmlns:xlink="http://www.w3.org/1999/xlink" xml:space="preserve" style="fill-rule:evenodd;clip-rule:evenodd;stroke-linejoin:round;stroke-miterlimit:1.41421;"><g id="book"><path d="M16.6,4.001l0.099,0.001l0.099,0.003l0.097,0.004l0.097,0.005l0.096,0.005l0.095,0.007l0.094,0.008l0.094,0.009l0.093,0.01l0.091,0.01l0.091,0.012l0.091,0.012l0.089,0.013l0.088,0.014l0.088,0.015l0.087,0.016l0.086,0.016l0.085,0.017l0.084,0.018l0.084,0.019l0.082,0.019l0.082,0.019l0.081,0.021l0.08,0.021l0.079,0.022l0.078,0.022l0.077,0.022l0.152,0.047l0.148,0.049l0.145,0.051l0.141,0.052l0.137,0.053l0.134,0.055l0.129,0.056l0.127,0.056l0.122,0.057l0.118,0.058l0.115,0.058l0.111,0.058l0.107,0.058l0.103,0.058l0.099,0.057l0.095,0.057l0.091,0.056l0.087,0.056l0.047,0.035l0.045,0.036l0.044,0.037l0.043,0.039l0.042,0.04l0.04,0.041l0.039,0.042l0.038,0.043l0.036,0.044l0.035,0.045l0.034,0.046l0.032,0.047l0.031,0.048l0.029,0.048l0.028,0.05l0.026,0.05l0.025,0.051l0.024,0.052l0.022,0.052l0.02,0.053l0.019,0.054l0.018,0.054l0.015,0.055l0.015,0.055l0.012,0.056l0.011,0.056l0.01,0.057l0.007,0.057l0.006,0.058l0.005,0.057l0.002,0.058l0.001,0.059l0.009,0.453l0.008,0.525l0.007,0.588l0.006,0.642l0.004,0.688l0.005,0.723l0.003,0.752l0.003,0.771l0.003,1.564l0.002,1.536l0.001,1.437l0,1.27l-0.001,0.034l-0.001,0.035l-0.003,0.034l-0.004,0.034l-0.006,0.033l-0.006,0.033l-0.007,0.033l-0.009,0.033l-0.01,0.032l-0.01,0.032l-0.012,0.031l-0.013,0.031l-0.013,0.03l-0.015,0.03l-0.016,0.03l-0.016,0.028l-0.018,0.029l-0.019,0.027l-0.019,0.028l-0.02,0.026l-0.022,0.026l-0.022,0.025l-0.023,0.024l-0.024,0.024l-0.024,0.023l-0.026,0.022l-0.026,0.021l-0.027,0.02l-0.028,0.02l-0.029,0.018l-0.029,0.018l-0.03,0.017l-0.031,0.016l-0.031,0.014l-0.031,0.014l-0.032,0.012l-0.032,0.011l-0.032,0.01l-0.033,0.009l-0.032,0.008l-0.033,0.007l-0.033,0.006l-0.033,0.004l-0.034,0.004l-0.033,0.002l-0.033,0.001l-0.034,0l-0.033,-0.001l-0.033,-0.002l-0.033,-0.003l-0.033,-0.005l-0.033,-0.005l-0.033,-0.007l-0.033,-0.007l-0.032,-0.009l-0.032,-0.01l-0.032,-0.011l-0.031,-0.012l-0.031,-0.013l-0.031,-0.014l-0.031,-0.016l-0.03,-0.016l-0.029,-0.018l-0.029,-0.018l-0.101,-0.079l-0.103,-0.078l-0.105,-0.078l-0.107,-0.078l-0.11,-0.078l-0.112,-0.076l-0.114,-0.077l-0.115,-0.075l-0.118,-0.074l-0.119,-0.073l-0.12,-0.071l-0.122,-0.07l-0.124,-0.068l-0.125,-0.066l-0.125,-0.064l-0.127,-0.062l-0.128,-0.06l-0.129,-0.056l-0.13,-0.054l-0.065,-0.026l-0.065,-0.025l-0.065,-0.024l-0.066,-0.024l-0.066,-0.023l-0.065,-0.022l-0.066,-0.021l-0.066,-0.02l-0.066,-0.019l-0.066,-0.018l-0.066,-0.018l-0.067,-0.016l-0.066,-0.015l-0.066,-0.015l-0.066,-0.013l-0.066,-0.012l-0.066,-0.012l-0.067,-0.01l-0.066,-0.009l-0.066,-0.008l-0.066,-0.006l-0.066,-0.006l-0.065,-0.004l-0.066,-0.003l-0.066,-0.002l-0.065,-0.001l-0.072,0.001l-0.072,0.003l-0.071,0.004l-0.07,0.006l-0.07,0.008l-0.069,0.009l-0.069,0.011l-0.068,0.012l-0.067,0.013l-0.067,0.015l-0.066,0.017l-0.066,0.017l-0.065,0.019l-0.065,0.02l-0.063,0.021l-0.064,0.022l-0.063,0.023l-0.062,0.024l-0.062,0.025l-0.061,0.026l-0.06,0.027l-0.06,0.027l-0.06,0.028l-0.059,0.029l-0.058,0.03l-0.058,0.03l-0.114,0.061l-0.111,0.064l-0.11,0.064l-0.108,0.066l-0.105,0.066l-0.103,0.066l-0.102,0.066l-0.196,0.129l-0.188,0.124l-0.091,0.058l-0.09,0.056l-0.087,0.053l-0.085,0.05l-0.084,0.045l-0.041,0.021l-0.04,0.02l-0.041,0.019l-0.039,0.018l-0.039,0.017l-0.039,0.015l0,0l-0.001,0.024l-0.001,0.023l-0.003,0.023l-0.004,0.023l-0.005,0.022l-0.006,0.022l-0.007,0.022l-0.008,0.021l-0.009,0.02l-0.01,0.02l-0.011,0.02l-0.012,0.019l-0.012,0.018l-0.014,0.018l-0.014,0.017l-0.015,0.016l-0.016,0.015l-0.016,0.015l-0.017,0.014l-0.018,0.014l-0.019,0.012l-0.019,0.012l-0.019,0.01l-0.02,0.01l-0.021,0.009l-0.021,0.008l-0.022,0.007l-0.022,0.005l-0.023,0.005l-0.022,0.004l-0.024,0.003l-0.023,0.001l-0.546,0.02l-0.546,-0.02l-0.023,-0.001l-0.024,-0.003l-0.022,-0.004l-0.023,-0.005l-0.022,-0.005l-0.022,-0.007l-0.021,-0.008l-0.021,-0.009l-0.02,-0.01l-0.019,-0.01l-0.019,-0.012l-0.019,-0.012l-0.018,-0.014l-0.017,-0.014l-0.016,-0.015l-0.016,-0.015l-0.015,-0.016l-0.014,-0.017l-0.014,-0.018l-0.012,-0.018l-0.012,-0.019l-0.011,-0.02l-0.01,-0.02l-0.009,-0.02l-0.008,-0.021l-0.007,-0.022l-0.006,-0.022l-0.005,-0.022l-0.004,-0.023l-0.003,-0.023l-0.001,-0.023l-0.001,-0.024l0,0l-0.039,-0.015l-0.039,-0.017l-0.039,-0.018l-0.041,-0.019l-0.04,-0.02l-0.041,-0.021l-0.084,-0.045l-0.085,-0.05l-0.087,-0.053l-0.09,-0.056l-0.091,-0.058l-0.188,-0.124l-0.196,-0.129l-0.102,-0.066l-0.103,-0.066l-0.105,-0.066l-0.108,-0.066l-0.11,-0.064l-0.111,-0.064l-0.114,-0.061l-0.058,-0.03l-0.058,-0.03l-0.059,-0.029l-0.06,-0.028l-0.06,-0.027l-0.06,-0.027l-0.061,-0.026l-0.062,-0.025l-0.062,-0.024l-0.063,-0.023l-0.064,-0.022l-0.063,-0.021l-0.065,-0.02l-0.065,-0.019l-0.066,-0.017l-0.066,-0.017l-0.067,-0.015l-0.067,-0.013l-0.068,-0.012l-0.069,-0.011l-0.069,-0.009l-0.07,-0.008l-0.07,-0.006l-0.071,-0.004l-0.072,-0.003l-0.072,-0.001l-0.068,0.001l-0.069,0.001l-0.068,0.003l-0.068,0.005l-0.068,0.005l-0.068,0.006l-0.068,0.008l-0.069,0.009l-0.067,0.009l-0.068,0.011l-0.068,0.012l-0.068,0.013l-0.067,0.013l-0.068,0.015l-0.067,0.016l-0.067,0.016l-0.067,0.018l-0.067,0.018l-0.066,0.019l-0.067,0.021l-0.066,0.02l-0.066,0.022l-0.066,0.023l-0.066,0.023l-0.065,0.024l-0.065,0.025l-0.13,0.051l-0.128,0.054l-0.128,0.057l-0.126,0.059l-0.125,0.061l-0.123,0.063l-0.122,0.065l-0.121,0.066l-0.119,0.069l-0.118,0.069l-0.115,0.071l-0.114,0.071l-0.112,0.073l-0.11,0.073l-0.108,0.074l-0.106,0.074l-0.104,0.074l-0.102,0.074l-0.099,0.074l-0.028,0.019l-0.028,0.017l-0.029,0.016l-0.029,0.015l-0.03,0.015l-0.03,0.013l-0.03,0.012l-0.031,0.011l-0.031,0.01l-0.031,0.008l-0.031,0.008l-0.032,0.007l-0.032,0.005l-0.032,0.005l-0.032,0.003l-0.032,0.003l-0.032,0.001l-0.032,0l-0.032,0l-0.033,-0.002l-0.032,-0.003l-0.032,-0.005l-0.032,-0.005l-0.032,-0.006l-0.032,-0.007l-0.031,-0.009l-0.031,-0.009l-0.031,-0.011l-0.031,-0.012l-0.031,-0.013l-0.03,-0.014l-0.029,-0.015l-0.03,-0.016l-0.028,-0.017l-0.028,-0.018l-0.027,-0.018l-0.026,-0.02l-0.026,-0.02l-0.025,-0.021l-0.024,-0.022l-0.023,-0.023l-0.022,-0.024l-0.022,-0.024l-0.02,-0.025l-0.02,-0.025l-0.019,-0.026l-0.018,-0.027l-0.017,-0.027l-0.016,-0.028l-0.016,-0.029l-0.014,-0.029l-0.013,-0.029l-0.013,-0.03l-0.011,-0.03l-0.01,-0.031l-0.01,-0.031l-0.008,-0.031l-0.007,-0.032l-0.006,-0.032l-0.005,-0.033l-0.004,-0.033l-0.003,-0.032l-0.002,-0.034l0,-0.033l-0.007,-0.616l-0.006,-0.667l-0.005,-0.708l-0.005,-0.741l-0.007,-1.546l-0.004,-1.57l-0.003,-1.525l-0.001,-1.408l-0.001,-2.184l0.001,-0.057l0.002,-0.056l0.004,-0.056l0.006,-0.056l0.007,-0.055l0.008,-0.055l0.01,-0.055l0.012,-0.054l0.013,-0.054l0.014,-0.053l0.016,-0.053l0.018,-0.053l0.018,-0.052l0.021,-0.051l0.021,-0.051l0.023,-0.05l0.025,-0.05l0.025,-0.048l0.027,-0.048l0.029,-0.048l0.03,-0.046l0.031,-0.046l0.032,-0.045l0.034,-0.044l0.035,-0.043l0.036,-0.043l0.037,-0.041l0.039,-0.04l0.039,-0.04l0.041,-0.038l0.043,-0.037l0.043,-0.036l0.086,-0.052l0.09,-0.052l0.093,-0.054l0.098,-0.054l0.102,-0.055l0.106,-0.055l0.109,-0.056l0.114,-0.056l0.118,-0.055l0.122,-0.056l0.126,-0.054l0.13,-0.055l0.134,-0.053l0.138,-0.053l0.142,-0.051l0.147,-0.05l0.15,-0.048l0.155,-0.046l0.078,-0.023l0.08,-0.022l0.081,-0.021l0.082,-0.021l0.083,-0.02l0.084,-0.02l0.085,-0.019l0.086,-0.019l0.087,-0.017l0.088,-0.017l0.089,-0.017l0.091,-0.015l0.091,-0.015l0.092,-0.014l0.094,-0.013l0.094,-0.013l0.095,-0.011l0.097,-0.011l0.097,-0.01l0.099,-0.009l0.1,-0.007l0.1,-0.007l0.102,-0.006l0.103,-0.005l0.104,-0.004l0.105,-0.003l0.106,-0.001l0.107,-0.001l0.22,0.001l0.215,0.003l0.209,0.006l0.202,0.008l0.197,0.009l0.192,0.012l0.186,0.013l0.18,0.016l0.175,0.017l0.17,0.019l0.164,0.02l0.159,0.022l0.155,0.024l0.149,0.025l0.144,0.027l0.14,0.027l0.135,0.029l0.13,0.031l0.125,0.031l0.121,0.033l0.117,0.033l0.112,0.035l0.108,0.035l0.104,0.037l0.1,0.037l0.096,0.037l0.092,0.039l0.088,0.039l0.084,0.039l0.081,0.04l0.077,0.041l0.073,0.04l0.073,-0.04l0.077,-0.041l0.081,-0.04l0.084,-0.039l0.088,-0.039l0.092,-0.039l0.096,-0.037l0.1,-0.037l0.104,-0.037l0.108,-0.035l0.112,-0.035l0.117,-0.033l0.121,-0.033l0.125,-0.031l0.13,-0.031l0.135,-0.029l0.14,-0.027l0.144,-0.027l0.149,-0.025l0.155,-0.024l0.159,-0.022l0.164,-0.02l0.17,-0.019l0.175,-0.017l0.18,-0.016l0.186,-0.013l0.192,-0.012l0.197,-0.009l0.202,-0.008l0.209,-0.006l0.215,-0.003l0.22,-0.001l0.1,0.001ZM7.414,6l-0.084,0.002l-0.085,0.002l-0.082,0.003l-0.083,0.004l-0.081,0.005l-0.079,0.005l-0.079,0.006l-0.077,0.007l-0.078,0.008l-0.077,0.009l-0.073,0.008l-0.075,0.01l-0.073,0.011l-0.072,0.011l-0.072,0.011l-0.069,0.012l-0.069,0.013l-0.07,0.013l-0.068,0.014l-0.067,0.015l-0.065,0.014l-0.066,0.016l-0.065,0.016l-0.062,0.015l-0.062,0.017l-0.062,0.017l-0.057,0.016l-0.124,0.037l-0.116,0.038l-0.113,0.038l-0.109,0.039l-0.108,0.041l-0.103,0.041l-0.1,0.042l-0.098,0.043l-0.094,0.043l-0.091,0.042l-0.089,0.044l-0.087,0.044l-0.083,0.043l-0.079,0.043l-0.068,0.038l0.001,2.157l0.001,1.406l0.003,1.523l0.004,1.568l0.007,1.542l0.005,0.739l0.001,0.121l0.047,-0.025l0.153,-0.078l0.157,-0.077l0.159,-0.074l0.162,-0.072l0.165,-0.07l0.165,-0.065l0.09,-0.034l0.085,-0.032l0.087,-0.03l0.087,-0.03l0.089,-0.029l0.089,-0.028l0.089,-0.027l0.092,-0.027l0.091,-0.025l0.093,-0.024l0.092,-0.023l0.093,-0.022l0.096,-0.021l0.096,-0.019l0.096,-0.018l0.096,-0.017l0.097,-0.015l0.099,-0.015l0.1,-0.012l0.099,-0.011l0.101,-0.01l0.101,-0.008l0.101,-0.006l0.105,-0.004l0.103,-0.003l0.106,-0.001l0.118,0.001l0.121,0.005l0.119,0.007l0.119,0.01l0.116,0.013l0.114,0.015l0.113,0.018l0.111,0.02l0.111,0.022l0.107,0.024l0.105,0.026l0.104,0.028l0.104,0.029l0.1,0.031l0.097,0.032l0.097,0.034l0.095,0.035l0.092,0.036l0.09,0.036l0.088,0.038l0.087,0.038l0.087,0.04l0.082,0.039l0.08,0.039l0.082,0.041l0.083,0.043l0.145,0.079l0.144,0.081l0.136,0.081l0.131,0.08l0.124,0.078l0.118,0.075l0.112,0.073l0.2,0.131l0.178,0.117l0.073,0.047l0.068,0.042l0.057,0.035l0.047,0.027l0.04,0.022l0.019,0.01l0.283,0.111l0.283,-0.111l0.002,-0.001l0.011,-0.006l0.005,-0.003l0.041,-0.022l0.047,-0.027l0.057,-0.035l0.068,-0.042l0.073,-0.047l0.178,-0.117l0.2,-0.131l0.112,-0.073l0.118,-0.075l0.124,-0.078l0.131,-0.08l0.136,-0.081l0.144,-0.081l0.145,-0.079l0.083,-0.043l0.081,-0.041l0.082,-0.04l0.081,-0.038l0.087,-0.04l0.087,-0.038l0.088,-0.038l0.09,-0.036l0.092,-0.036l0.095,-0.035l0.097,-0.034l0.097,-0.032l0.1,-0.031l0.104,-0.029l0.104,-0.028l0.105,-0.026l0.107,-0.024l0.111,-0.022l0.111,-0.02l0.113,-0.018l0.114,-0.015l0.116,-0.013l0.119,-0.01l0.119,-0.007l0.121,-0.005l0.118,-0.001l0.107,0.001l0.103,0.003l0.103,0.005l0.104,0.007l0.099,0.008l0.102,0.01l0.1,0.013l0.098,0.013l0.098,0.015l0.097,0.016l0.097,0.018l0.096,0.02l0.095,0.02l0.094,0.022l0.094,0.023l0.094,0.025l0.09,0.025l0.09,0.026l0.091,0.028l0.09,0.029l0.09,0.029l0.087,0.031l0.088,0.031l0.087,0.033l0.085,0.033l0.09,0.035l0.163,0.068l0.165,0.073l0.162,0.075l0.161,0.078l0.157,0.08l0.153,0.081l0.073,0.04l-0.001,-0.843l-0.002,-1.534l-0.003,-1.561l-0.003,-0.769l-0.003,-0.749l-0.005,-0.722l-0.004,-0.683l-0.006,-0.638l-0.007,-0.582l-0.008,-0.517l-0.009,-0.454l0,-0.001l-0.018,-0.011l-0.072,-0.043l-0.074,-0.043l-0.08,-0.045l-0.08,-0.044l-0.085,-0.044l-0.088,-0.044l-0.09,-0.044l-0.094,-0.044l-0.097,-0.044l-0.1,-0.042l-0.103,-0.042l-0.104,-0.041l-0.108,-0.04l-0.112,-0.039l-0.114,-0.037l-0.12,-0.038l-0.055,-0.016l-0.06,-0.017l-0.061,-0.016l-0.062,-0.017l-0.061,-0.015l-0.063,-0.015l-0.063,-0.015l-0.063,-0.014l-0.065,-0.014l-0.066,-0.013l-0.066,-0.013l-0.066,-0.011l-0.067,-0.012l-0.069,-0.011l-0.069,-0.01l-0.069,-0.009l-0.07,-0.009l-0.071,-0.008l-0.071,-0.008l-0.071,-0.007l-0.073,-0.006l-0.074,-0.005l-0.075,-0.004l-0.074,-0.004l-0.075,-0.003l-0.077,-0.002l-0.077,-0.002l-0.077,0l-0.2,0.001l-0.193,0.003l-0.187,0.005l-0.18,0.007l-0.174,0.008l-0.168,0.01l-0.161,0.012l-0.156,0.013l-0.149,0.015l-0.143,0.016l-0.139,0.017l-0.131,0.018l-0.125,0.02l-0.12,0.02l-0.115,0.021l-0.109,0.022l-0.104,0.022l-0.098,0.023l-0.092,0.023l-0.088,0.024l-0.082,0.023l-0.077,0.024l-0.073,0.024l-0.067,0.023l-0.063,0.024l-0.059,0.023l-0.053,0.022l-0.049,0.022l-0.046,0.021l-0.04,0.02l-0.036,0.019l-1.023,0.567l-1.023,-0.567l-0.035,-0.018l-0.041,-0.021l-0.046,-0.021l-0.049,-0.022l-0.053,-0.022l-0.059,-0.023l-0.063,-0.024l-0.067,-0.023l-0.073,-0.024l-0.077,-0.024l-0.082,-0.023l-0.088,-0.024l-0.092,-0.023l-0.098,-0.023l-0.104,-0.022l-0.109,-0.022l-0.115,-0.021l-0.12,-0.02l-0.125,-0.02l-0.131,-0.018l-0.139,-0.017l-0.143,-0.016l-0.149,-0.015l-0.156,-0.013l-0.161,-0.012l-0.168,-0.01l-0.174,-0.008l-0.18,-0.007l-0.187,-0.005l-0.193,-0.003l-0.2,-0.001l-0.086,0Z" style="fill:#000;"/><rect x="11" y="6" width="2" height="12" style="fill:#000;fill-rule:nonzero;"/></g></svg>