<?xml version="1.0" encoding="UTF-8" standalone="no"?><!DOCTYPE svg PUBLIC "-//W3C//DTD SVG 1.1//EN" "http://www.w3.org/Graphics/SVG/1.1/DTD/svg11.dtd"><svg width="100%" height="100%" viewBox="0 0 24 24" version="1.1" xmlns="http://www.w3.org/2000/svg" xmlns:xlink="http://www.w3.org/1999/xlink" xml:space="preserve" style="fill-rule:evenodd;clip-rule:evenodd;stroke-linejoin:round;stroke-miterlimit:1.41421;"><g id="bookmark"><path d="M15.087,2.001l0.05,0.002l0.05,0.003l0.05,0.004l0.049,0.006l0.049,0.007l0.049,0.008l0.048,0.009l0.047,0.01l0.048,0.012l0.047,0.013l0.046,0.013l0.046,0.015l0.045,0.016l0.045,0.017l0.044,0.018l0.044,0.019l0.043,0.021l0.043,0.021l0.042,0.022l0.042,0.023l0.04,0.024l0.041,0.025l0.039,0.026l0.039,0.027l0.038,0.028l0.038,0.029l0.036,0.029l0.036,0.031l0.036,0.031l0.034,0.032l0.034,0.033l0.033,0.034l0.032,0.034l0.031,0.036l0.031,0.036l0.029,0.036l0.029,0.038l0.028,0.038l0.027,0.039l0.026,0.039l0.025,0.041l0.024,0.04l0.023,0.042l0.022,0.042l0.021,0.043l0.02,0.043l0.02,0.044l0.018,0.044l0.017,0.045l0.016,0.045l0.015,0.046l0.013,0.046l0.013,0.047l0.012,0.048l0.01,0.047l0.009,0.048l0.008,0.049l0.007,0.049l0.006,0.049l0.004,0.05l0.003,0.05l0.002,0.05l0.001,0.051l0,15.868l-0.001,0.035l-0.002,0.035l-0.003,0.035l-0.004,0.035l-0.006,0.034l-0.007,0.034l-0.008,0.034l-0.009,0.033l-0.011,0.033l-0.012,0.032l-0.012,0.032l-0.014,0.032l-0.015,0.03l-0.016,0.031l-0.017,0.029l-0.018,0.029l-0.02,0.028l-0.02,0.028l-0.021,0.027l-0.022,0.026l-0.023,0.025l-0.024,0.025l-0.025,0.024l-0.025,0.022l-0.027,0.022l-0.028,0.021l-0.028,0.021l-0.029,0.019l-0.03,0.018l-0.031,0.017l-0.031,0.016l-0.032,0.015l-0.033,0.014l-0.033,0.012l-0.033,0.011l-0.034,0.01l-0.033,0.009l-0.034,0.007l-0.034,0.007l-0.035,0.004l-0.034,0.004l-0.034,0.003l-0.034,0.001l-0.035,0l-0.034,-0.001l-0.034,-0.003l-0.034,-0.004l-0.034,-0.004l-0.033,-0.007l-0.034,-0.007l-0.033,-0.008l-0.033,-0.01l-0.032,-0.011l-0.032,-0.012l-0.032,-0.013l-0.031,-0.014l-0.031,-0.016l-0.03,-0.016l-0.03,-0.018l-0.03,-0.019l-0.028,-0.02l-0.028,-0.021l-0.028,-0.022l-0.026,-0.024l-3.896,-3.541l-3.896,3.541l-0.026,0.024l-0.028,0.022l-0.028,0.021l-0.028,0.02l-0.03,0.019l-0.03,0.018l-0.03,0.016l-0.031,0.016l-0.031,0.014l-0.032,0.013l-0.032,0.012l-0.032,0.011l-0.033,0.01l-0.033,0.008l-0.034,0.007l-0.033,0.007l-0.034,0.004l-0.034,0.004l-0.034,0.003l-0.034,0.001l-0.035,0l-0.034,-0.001l-0.034,-0.003l-0.034,-0.004l-0.035,-0.004l-0.034,-0.007l-0.034,-0.007l-0.033,-0.009l-0.034,-0.01l-0.033,-0.011l-0.033,-0.012l-0.033,-0.014l-0.032,-0.015l-0.031,-0.016l-0.031,-0.017l-0.03,-0.018l-0.029,-0.019l-0.028,-0.021l-0.028,-0.021l-0.027,-0.022l-0.025,-0.022l-0.025,-0.024l-0.024,-0.025l-0.023,-0.025l-0.022,-0.026l-0.021,-0.027l-0.02,-0.028l-0.02,-0.028l-0.018,-0.029l-0.017,-0.029l-0.016,-0.031l-0.015,-0.03l-0.014,-0.032l-0.012,-0.032l-0.012,-0.032l-0.011,-0.033l-0.009,-0.033l-0.008,-0.034l-0.007,-0.034l-0.006,-0.034l-0.004,-0.035l-0.003,-0.035l-0.002,-0.035l-0.001,-0.035l0,-15.868l0.001,-0.051l0.002,-0.05l0.003,-0.05l0.004,-0.05l0.006,-0.049l0.007,-0.049l0.008,-0.049l0.009,-0.048l0.01,-0.047l0.012,-0.048l0.013,-0.047l0.013,-0.046l0.015,-0.046l0.016,-0.045l0.017,-0.045l0.018,-0.044l0.02,-0.044l0.02,-0.043l0.021,-0.043l0.022,-0.042l0.023,-0.042l0.024,-0.04l0.025,-0.041l0.026,-0.039l0.027,-0.039l0.028,-0.038l0.029,-0.038l0.029,-0.036l0.031,-0.036l0.031,-0.036l0.032,-0.034l0.033,-0.034l0.034,-0.033l0.034,-0.032l0.036,-0.031l0.036,-0.031l0.036,-0.029l0.038,-0.029l0.038,-0.028l0.039,-0.027l0.039,-0.026l0.041,-0.025l0.04,-0.024l0.042,-0.023l0.042,-0.022l0.043,-0.021l0.043,-0.021l0.044,-0.019l0.044,-0.018l0.045,-0.017l0.045,-0.016l0.046,-0.015l0.046,-0.013l0.047,-0.013l0.048,-0.012l0.047,-0.01l0.048,-0.009l0.049,-0.008l0.049,-0.007l0.049,-0.006l0.05,-0.004l0.05,-0.003l0.05,-0.002l0.051,-0.001l7.072,0l0.051,0.001ZM8,4l0,13.479l3.5,-3.182l3.5,3.182l0,-13.479l-7,0Z" style="fill:#000;"/></g></svg>