<?xml version="1.0" encoding="UTF-8" standalone="no"?><!DOCTYPE svg PUBLIC "-//W3C//DTD SVG 1.1//EN" "http://www.w3.org/Graphics/SVG/1.1/DTD/svg11.dtd"><svg width="100%" height="100%" viewBox="0 0 24 24" version="1.1" xmlns="http://www.w3.org/2000/svg" xmlns:xlink="http://www.w3.org/1999/xlink" xml:space="preserve" style="fill-rule:evenodd;clip-rule:evenodd;stroke-linejoin:round;stroke-miterlimit:1.41421;"><g id="briefcase"><path d="M20.081,7.001l0.051,0.002l0.05,0.003l0.05,0.004l0.049,0.006l0.049,0.007l0.049,0.008l0.048,0.009l0.048,0.01l0.048,0.012l0.047,0.013l0.046,0.014l0.046,0.014l0.046,0.017l0.045,0.017l0.044,0.018l0.044,0.019l0.043,0.02l0.043,0.021l0.042,0.023l0.042,0.023l0.041,0.024l0.04,0.025l0.04,0.026l0.039,0.027l0.038,0.028l0.037,0.029l0.037,0.03l0.036,0.03l0.036,0.032l0.034,0.032l0.034,0.033l0.033,0.034l0.032,0.034l0.032,0.036l0.03,0.036l0.03,0.037l0.029,0.037l0.028,0.038l0.027,0.039l0.026,0.04l0.025,0.04l0.024,0.041l0.023,0.042l0.023,0.042l0.021,0.043l0.02,0.043l0.019,0.044l0.018,0.044l0.017,0.045l0.017,0.046l0.014,0.046l0.014,0.046l0.013,0.047l0.012,0.048l0.01,0.048l0.009,0.048l0.008,0.048l0.007,0.05l0.006,0.049l0.004,0.05l0.003,0.05l0.002,0.051l0.001,0.05l0,11.062l-0.001,0.05l-0.002,0.051l-0.003,0.05l-0.004,0.05l-0.006,0.049l-0.007,0.05l-0.008,0.048l-0.009,0.048l-0.01,0.048l-0.012,0.048l-0.013,0.047l-0.014,0.046l-0.014,0.046l-0.017,0.046l-0.017,0.045l-0.018,0.044l-0.019,0.044l-0.02,0.043l-0.021,0.043l-0.023,0.042l-0.023,0.042l-0.024,0.041l-0.025,0.04l-0.026,0.04l-0.027,0.039l-0.028,0.038l-0.029,0.037l-0.03,0.037l-0.03,0.036l-0.032,0.036l-0.032,0.034l-0.033,0.034l-0.034,0.033l-0.034,0.032l-0.036,0.032l-0.036,0.03l-0.037,0.03l-0.037,0.029l-0.038,0.028l-0.039,0.027l-0.04,0.026l-0.04,0.025l-0.041,0.024l-0.042,0.023l-0.042,0.023l-0.043,0.021l-0.043,0.02l-0.044,0.019l-0.044,0.018l-0.045,0.017l-0.046,0.017l-0.046,0.014l-0.046,0.014l-0.047,0.013l-0.048,0.012l-0.048,0.01l-0.048,0.009l-0.049,0.008l-0.049,0.007l-0.049,0.006l-0.05,0.004l-0.05,0.003l-0.051,0.002l-0.05,0.001l-16.062,0l-0.05,-0.001l-0.051,-0.002l-0.05,-0.003l-0.05,-0.004l-0.049,-0.006l-0.049,-0.007l-0.049,-0.008l-0.048,-0.009l-0.048,-0.01l-0.048,-0.012l-0.047,-0.013l-0.046,-0.014l-0.046,-0.014l-0.046,-0.017l-0.045,-0.017l-0.044,-0.018l-0.044,-0.019l-0.043,-0.02l-0.043,-0.021l-0.042,-0.023l-0.042,-0.023l-0.041,-0.024l-0.04,-0.025l-0.04,-0.026l-0.039,-0.027l-0.038,-0.028l-0.037,-0.029l-0.037,-0.03l-0.036,-0.03l-0.036,-0.032l-0.034,-0.032l-0.034,-0.033l-0.033,-0.034l-0.032,-0.034l-0.032,-0.036l-0.03,-0.036l-0.03,-0.037l-0.029,-0.037l-0.028,-0.038l-0.027,-0.039l-0.026,-0.04l-0.025,-0.04l-0.024,-0.041l-0.023,-0.042l-0.023,-0.042l-0.021,-0.043l-0.02,-0.043l-0.019,-0.044l-0.018,-0.044l-0.017,-0.045l-0.017,-0.046l-0.014,-0.046l-0.014,-0.046l-0.013,-0.047l-0.012,-0.048l-0.01,-0.048l-0.009,-0.048l-0.008,-0.048l-0.007,-0.05l-0.006,-0.049l-0.004,-0.05l-0.003,-0.05l-0.002,-0.051l-0.001,-0.05l0,-11.062l0.001,-0.05l0.002,-0.051l0.003,-0.05l0.004,-0.05l0.006,-0.049l0.007,-0.05l0.008,-0.048l0.009,-0.048l0.01,-0.048l0.012,-0.048l0.013,-0.047l0.014,-0.046l0.014,-0.046l0.017,-0.046l0.017,-0.045l0.018,-0.044l0.019,-0.044l0.02,-0.043l0.021,-0.043l0.023,-0.042l0.023,-0.042l0.024,-0.041l0.025,-0.04l0.026,-0.04l0.027,-0.039l0.028,-0.038l0.029,-0.037l0.03,-0.037l0.03,-0.036l0.032,-0.036l0.032,-0.034l0.033,-0.034l0.034,-0.033l0.034,-0.032l0.036,-0.032l0.036,-0.03l0.037,-0.03l0.037,-0.029l0.038,-0.028l0.039,-0.027l0.04,-0.026l0.04,-0.025l0.041,-0.024l0.042,-0.023l0.042,-0.023l0.043,-0.021l0.043,-0.02l0.044,-0.019l0.044,-0.018l0.045,-0.017l0.046,-0.017l0.046,-0.014l0.046,-0.014l0.047,-0.013l0.048,-0.012l0.048,-0.01l0.048,-0.009l0.049,-0.008l0.049,-0.007l0.049,-0.006l0.05,-0.004l0.05,-0.003l0.051,-0.002l0.05,-0.001l16.062,0l0.05,0.001ZM4,9l0,11l16,0l0,-11l-16,0Z" style="fill:#000;"/><path d="M14.043,3.001l0.077,0.003l0.078,0.005l0.076,0.007l0.076,0.008l0.077,0.011l0.075,0.012l0.074,0.014l0.075,0.017l0.072,0.018l0.073,0.019l0.071,0.022l0.072,0.023l0.07,0.024l0.069,0.027l0.069,0.028l0.067,0.029l0.068,0.032l0.066,0.033l0.064,0.034l0.064,0.035l0.064,0.038l0.062,0.039l0.061,0.04l0.06,0.041l0.058,0.043l0.059,0.045l0.056,0.045l0.055,0.047l0.055,0.049l0.053,0.049l0.052,0.051l0.051,0.052l0.05,0.053l0.048,0.054l0.047,0.056l0.045,0.056l0.045,0.059l0.043,0.058l0.041,0.06l0.04,0.061l0.039,0.062l0.037,0.063l0.036,0.064l0.035,0.066l0.032,0.065l0.032,0.067l0.029,0.068l0.028,0.069l0.027,0.069l0.024,0.07l0.023,0.071l0.022,0.072l0.019,0.073l0.018,0.073l0.016,0.074l0.015,0.075l0.012,0.075l0.011,0.075l0.008,0.076l0.007,0.077l0.005,0.077l0.003,0.078l0.001,0.071l0,1.972l-2,0l0,-1.959l0,-0.034l-0.001,-0.026l-0.002,-0.027l-0.002,-0.026l-0.003,-0.026l-0.004,-0.026l-0.004,-0.026l-0.005,-0.025l-0.006,-0.025l-0.006,-0.025l-0.006,-0.024l-0.007,-0.024l-0.008,-0.024l-0.009,-0.024l-0.009,-0.024l-0.009,-0.023l-0.01,-0.023l-0.011,-0.022l-0.011,-0.023l-0.011,-0.022l-0.013,-0.022l-0.012,-0.021l-0.013,-0.021l-0.014,-0.021l-0.015,-0.021l-0.014,-0.02l-0.015,-0.019l-0.016,-0.02l-0.016,-0.019l-0.017,-0.019l-0.017,-0.018l-0.017,-0.018l-0.018,-0.018l-0.018,-0.017l-0.019,-0.016l-0.019,-0.016l-0.019,-0.016l-0.02,-0.015l-0.02,-0.014l-0.021,-0.015l-0.021,-0.014l-0.021,-0.013l-0.021,-0.012l-0.022,-0.012l-0.023,-0.013l-0.022,-0.011l-0.022,-0.01l-0.023,-0.01l-0.023,-0.009l-0.024,-0.009l-0.024,-0.009l-0.023,-0.008l-0.025,-0.007l-0.024,-0.006l-0.026,-0.007l-0.024,-0.005l-0.025,-0.005l-0.026,-0.004l-0.025,-0.004l-0.026,-0.003l-0.027,-0.002l-0.026,-0.002l-0.027,-0.001l-0.034,0l-3.918,0l-0.034,0l-0.027,0.001l-0.026,0.002l-0.027,0.002l-0.026,0.003l-0.025,0.004l-0.026,0.004l-0.025,0.005l-0.024,0.005l-0.026,0.007l-0.024,0.006l-0.025,0.007l-0.023,0.008l-0.024,0.009l-0.024,0.009l-0.023,0.009l-0.023,0.01l-0.022,0.01l-0.022,0.011l-0.023,0.013l-0.022,0.012l-0.021,0.012l-0.021,0.013l-0.021,0.014l-0.021,0.015l-0.02,0.014l-0.02,0.015l-0.019,0.016l-0.019,0.016l-0.019,0.016l-0.018,0.017l-0.018,0.018l-0.017,0.018l-0.017,0.018l-0.017,0.019l-0.016,0.019l-0.016,0.02l-0.015,0.019l-0.014,0.02l-0.015,0.021l-0.014,0.021l-0.013,0.021l-0.012,0.021l-0.013,0.022l-0.011,0.022l-0.011,0.023l-0.011,0.022l-0.01,0.023l-0.009,0.023l-0.009,0.024l-0.009,0.024l-0.008,0.024l-0.007,0.024l-0.006,0.024l-0.006,0.025l-0.006,0.025l-0.005,0.025l-0.004,0.026l-0.004,0.026l-0.003,0.026l-0.002,0.026l-0.002,0.027l-0.001,0.026l0,0.034l0,1.959l-2,0l0,-1.972l0.001,-0.071l0.003,-0.078l0.005,-0.077l0.007,-0.077l0.008,-0.076l0.011,-0.075l0.012,-0.075l0.015,-0.075l0.016,-0.074l0.018,-0.073l0.019,-0.073l0.022,-0.072l0.023,-0.071l0.024,-0.07l0.027,-0.069l0.028,-0.069l0.029,-0.068l0.032,-0.067l0.032,-0.065l0.035,-0.066l0.036,-0.064l0.037,-0.063l0.039,-0.062l0.04,-0.061l0.041,-0.06l0.043,-0.058l0.045,-0.059l0.045,-0.056l0.047,-0.056l0.048,-0.054l0.05,-0.053l0.051,-0.052l0.052,-0.051l0.053,-0.049l0.055,-0.049l0.055,-0.047l0.056,-0.045l0.059,-0.045l0.058,-0.043l0.06,-0.041l0.061,-0.04l0.062,-0.039l0.064,-0.038l0.064,-0.035l0.064,-0.034l0.066,-0.033l0.068,-0.032l0.067,-0.029l0.069,-0.028l0.069,-0.027l0.07,-0.024l0.072,-0.023l0.071,-0.022l0.073,-0.019l0.072,-0.018l0.075,-0.017l0.074,-0.014l0.075,-0.012l0.077,-0.011l0.076,-0.008l0.076,-0.007l0.078,-0.005l0.077,-0.003l0.071,-0.001l3.944,0l0.071,0.001Z" style="fill:#000;"/><rect x="3" y="13" width="18" height="2" style="fill:#000;fill-rule:nonzero;"/><rect x="10" y="16" width="4" height="2" style="fill:#000;fill-rule:nonzero;"/></g></svg>