<?xml version="1.0" encoding="UTF-8" standalone="no"?><!DOCTYPE svg PUBLIC "-//W3C//DTD SVG 1.1//EN" "http://www.w3.org/Graphics/SVG/1.1/DTD/svg11.dtd"><svg width="100%" height="100%" viewBox="0 0 24 24" version="1.1" xmlns="http://www.w3.org/2000/svg" xmlns:xlink="http://www.w3.org/1999/xlink" xml:space="preserve" style="fill-rule:evenodd;clip-rule:evenodd;stroke-linejoin:round;stroke-miterlimit:1.41421;"><g id="brightness_decrease"><path d="M12.065,7l0.064,0.002l0.064,0.002l0.064,0.003l0.064,0.003l0.063,0.005l0.064,0.005l0.063,0.006l0.063,0.007l0.062,0.007l0.063,0.009l0.062,0.009l0.062,0.01l0.062,0.01l0.061,0.012l0.061,0.012l0.061,0.013l0.061,0.013l0.06,0.014l0.06,0.016l0.06,0.015l0.059,0.017l0.059,0.017l0.059,0.018l0.059,0.019l0.058,0.019l0.058,0.02l0.057,0.021l0.058,0.021l0.057,0.022l0.112,0.046l0.112,0.049l0.11,0.051l0.108,0.054l0.107,0.057l0.106,0.059l0.104,0.061l0.102,0.064l0.101,0.066l0.099,0.069l0.097,0.071l0.095,0.073l0.094,0.075l0.091,0.078l0.09,0.08l0.088,0.081l0.086,0.084l0.084,0.086l0.081,0.088l0.08,0.09l0.078,0.091l0.075,0.094l0.073,0.095l0.071,0.097l0.069,0.099l0.066,0.101l0.064,0.102l0.061,0.104l0.059,0.106l0.057,0.107l0.054,0.108l0.051,0.11l0.049,0.112l0.046,0.112l0.022,0.057l0.021,0.058l0.021,0.057l0.02,0.058l0.019,0.058l0.019,0.059l0.018,0.059l0.017,0.059l0.017,0.059l0.015,0.06l0.016,0.06l0.014,0.06l0.013,0.061l0.013,0.061l0.012,0.061l0.012,0.061l0.01,0.062l0.01,0.062l0.009,0.062l0.009,0.063l0.007,0.062l0.007,0.063l0.006,0.063l0.005,0.064l0.005,0.063l0.003,0.064l0.003,0.064l0.002,0.064l0.002,0.064l0,0.065l0,0.065l-0.002,0.064l-0.002,0.064l-0.003,0.064l-0.003,0.064l-0.005,0.063l-0.005,0.064l-0.006,0.063l-0.007,0.063l-0.007,0.062l-0.009,0.063l-0.009,0.062l-0.01,0.062l-0.01,0.062l-0.012,0.061l-0.012,0.061l-0.013,0.061l-0.013,0.061l-0.014,0.06l-0.016,0.06l-0.015,0.06l-0.017,0.059l-0.017,0.059l-0.018,0.059l-0.019,0.059l-0.019,0.058l-0.02,0.058l-0.021,0.057l-0.021,0.058l-0.022,0.057l-0.046,0.112l-0.049,0.112l-0.051,0.11l-0.054,0.108l-0.057,0.107l-0.059,0.106l-0.061,0.104l-0.064,0.102l-0.066,0.101l-0.069,0.099l-0.071,0.097l-0.073,0.095l-0.075,0.094l-0.078,0.091l-0.08,0.09l-0.081,0.088l-0.084,0.086l-0.086,0.084l-0.088,0.081l-0.09,0.08l-0.091,0.078l-0.094,0.075l-0.095,0.073l-0.097,0.071l-0.099,0.069l-0.101,0.066l-0.102,0.064l-0.104,0.061l-0.106,0.059l-0.107,0.057l-0.108,0.054l-0.11,0.051l-0.112,0.049l-0.112,0.046l-0.057,0.022l-0.058,0.021l-0.057,0.021l-0.058,0.02l-0.058,0.019l-0.059,0.019l-0.059,0.018l-0.059,0.017l-0.059,0.017l-0.06,0.015l-0.06,0.016l-0.06,0.014l-0.061,0.013l-0.061,0.013l-0.061,0.012l-0.061,0.012l-0.062,0.01l-0.062,0.01l-0.062,0.009l-0.063,0.009l-0.062,0.007l-0.063,0.007l-0.063,0.006l-0.064,0.005l-0.063,0.005l-0.064,0.003l-0.064,0.003l-0.064,0.002l-0.064,0.002l-0.065,0l-0.065,0l-0.064,-0.002l-0.064,-0.002l-0.064,-0.003l-0.064,-0.003l-0.063,-0.005l-0.064,-0.005l-0.063,-0.006l-0.063,-0.007l-0.062,-0.007l-0.063,-0.009l-0.062,-0.009l-0.062,-0.01l-0.062,-0.01l-0.061,-0.012l-0.061,-0.012l-0.061,-0.013l-0.061,-0.013l-0.06,-0.014l-0.06,-0.016l-0.06,-0.015l-0.059,-0.017l-0.059,-0.017l-0.059,-0.018l-0.059,-0.019l-0.058,-0.019l-0.058,-0.02l-0.057,-0.021l-0.058,-0.021l-0.057,-0.022l-0.112,-0.046l-0.112,-0.049l-0.11,-0.051l-0.108,-0.054l-0.107,-0.057l-0.106,-0.059l-0.104,-0.061l-0.102,-0.064l-0.101,-0.066l-0.099,-0.069l-0.097,-0.071l-0.095,-0.073l-0.094,-0.075l-0.091,-0.078l-0.09,-0.08l-0.088,-0.081l-0.086,-0.084l-0.084,-0.086l-0.081,-0.088l-0.08,-0.09l-0.078,-0.091l-0.075,-0.094l-0.073,-0.095l-0.071,-0.097l-0.069,-0.099l-0.066,-0.101l-0.064,-0.102l-0.061,-0.104l-0.059,-0.106l-0.057,-0.107l-0.054,-0.108l-0.051,-0.11l-0.049,-0.112l-0.046,-0.112l-0.022,-0.057l-0.021,-0.058l-0.021,-0.057l-0.02,-0.058l-0.019,-0.058l-0.019,-0.059l-0.018,-0.059l-0.017,-0.059l-0.017,-0.059l-0.015,-0.06l-0.016,-0.06l-0.014,-0.06l-0.013,-0.061l-0.013,-0.061l-0.012,-0.061l-0.012,-0.061l-0.01,-0.062l-0.01,-0.062l-0.009,-0.062l-0.009,-0.063l-0.007,-0.062l-0.007,-0.063l-0.006,-0.063l-0.005,-0.064l-0.005,-0.063l-0.003,-0.064l-0.003,-0.064l-0.002,-0.064l-0.002,-0.064l0,-0.065l0,-0.065l0.002,-0.064l0.002,-0.064l0.003,-0.064l0.003,-0.064l0.005,-0.063l0.005,-0.064l0.006,-0.063l0.007,-0.063l0.007,-0.062l0.009,-0.063l0.009,-0.062l0.01,-0.062l0.01,-0.062l0.012,-0.061l0.012,-0.061l0.013,-0.061l0.013,-0.061l0.014,-0.06l0.016,-0.06l0.015,-0.06l0.017,-0.059l0.017,-0.059l0.018,-0.059l0.019,-0.059l0.019,-0.058l0.02,-0.058l0.021,-0.057l0.021,-0.058l0.022,-0.057l0.046,-0.112l0.049,-0.112l0.051,-0.11l0.054,-0.108l0.057,-0.107l0.059,-0.106l0.061,-0.104l0.064,-0.102l0.066,-0.101l0.069,-0.099l0.071,-0.097l0.073,-0.095l0.075,-0.094l0.078,-0.091l0.08,-0.09l0.081,-0.088l0.084,-0.086l0.086,-0.084l0.088,-0.081l0.09,-0.08l0.091,-0.078l0.094,-0.075l0.095,-0.073l0.097,-0.071l0.099,-0.069l0.101,-0.066l0.102,-0.064l0.104,-0.061l0.106,-0.059l0.107,-0.057l0.108,-0.054l0.11,-0.051l0.112,-0.049l0.112,-0.046l0.057,-0.022l0.058,-0.021l0.057,-0.021l0.058,-0.02l0.058,-0.019l0.059,-0.019l0.059,-0.018l0.059,-0.017l0.059,-0.017l0.06,-0.015l0.06,-0.016l0.06,-0.014l0.061,-0.013l0.061,-0.013l0.061,-0.012l0.061,-0.012l0.062,-0.01l0.062,-0.01l0.062,-0.009l0.063,-0.009l0.062,-0.007l0.063,-0.007l0.063,-0.006l0.064,-0.005l0.063,-0.005l0.064,-0.003l0.064,-0.003l0.064,-0.002l0.064,-0.002l0.065,0l0.065,0ZM11.961,9l-0.039,0.001l-0.039,0.001l-0.039,0.002l-0.039,0.002l-0.037,0.003l-0.039,0.003l-0.038,0.004l-0.037,0.004l-0.038,0.004l-0.038,0.005l-0.037,0.006l-0.037,0.006l-0.036,0.006l-0.036,0.007l-0.039,0.007l-0.036,0.008l-0.035,0.008l-0.037,0.008l-0.035,0.009l-0.035,0.01l-0.037,0.01l-0.035,0.01l-0.034,0.01l-0.036,0.012l-0.035,0.011l-0.033,0.012l-0.035,0.012l-0.035,0.013l-0.028,0.011l-0.073,0.03l-0.066,0.029l-0.067,0.031l-0.064,0.032l-0.064,0.034l-0.064,0.036l-0.062,0.036l-0.061,0.039l-0.061,0.04l-0.059,0.041l-0.059,0.043l-0.057,0.043l-0.057,0.046l-0.055,0.047l-0.054,0.048l-0.053,0.049l-0.052,0.05l-0.05,0.052l-0.049,0.053l-0.048,0.054l-0.047,0.055l-0.046,0.057l-0.044,0.057l-0.042,0.059l-0.041,0.059l-0.04,0.061l-0.039,0.061l-0.036,0.062l-0.036,0.064l-0.034,0.064l-0.032,0.065l-0.031,0.066l-0.029,0.066l-0.03,0.073l-0.011,0.029l-0.012,0.034l-0.013,0.034l-0.012,0.035l-0.011,0.034l-0.011,0.035l-0.011,0.035l-0.01,0.036l-0.01,0.035l-0.01,0.036l-0.009,0.036l-0.008,0.036l-0.008,0.036l-0.008,0.036l-0.007,0.037l-0.007,0.036l-0.006,0.037l-0.006,0.037l-0.006,0.038l-0.005,0.037l-0.004,0.038l-0.004,0.037l-0.004,0.038l-0.003,0.039l-0.003,0.038l-0.002,0.038l-0.002,0.039l-0.001,0.039l-0.001,0.039l0,0.039l0,0.039l0.001,0.039l0.001,0.039l0.002,0.039l0.002,0.038l0.003,0.038l0.003,0.039l0.004,0.038l0.004,0.037l0.004,0.038l0.005,0.037l0.006,0.038l0.006,0.037l0.006,0.037l0.007,0.036l0.007,0.037l0.008,0.036l0.008,0.036l0.008,0.036l0.009,0.036l0.01,0.036l0.01,0.035l0.01,0.036l0.011,0.035l0.011,0.035l0.011,0.034l0.012,0.035l0.013,0.034l0.012,0.034l0.011,0.029l0.03,0.073l0.029,0.066l0.031,0.066l0.032,0.065l0.034,0.064l0.036,0.064l0.036,0.062l0.039,0.061l0.04,0.061l0.041,0.059l0.042,0.059l0.044,0.057l0.046,0.057l0.047,0.055l0.048,0.054l0.049,0.053l0.05,0.052l0.052,0.05l0.053,0.049l0.054,0.048l0.055,0.047l0.057,0.046l0.057,0.043l0.059,0.043l0.059,0.041l0.061,0.04l0.061,0.039l0.062,0.036l0.064,0.036l0.064,0.034l0.064,0.032l0.067,0.031l0.066,0.029l0.073,0.03l0.028,0.011l0.035,0.013l0.035,0.012l0.033,0.012l0.035,0.011l0.036,0.012l0.034,0.01l0.035,0.01l0.037,0.01l0.035,0.01l0.035,0.009l0.037,0.008l0.035,0.008l0.036,0.008l0.039,0.007l0.036,0.007l0.036,0.006l0.037,0.006l0.037,0.006l0.038,0.005l0.038,0.004l0.037,0.004l0.038,0.004l0.039,0.003l0.037,0.003l0.039,0.002l0.039,0.002l0.039,0.001l0.039,0.001l0.039,0l0.039,0l0.039,-0.001l0.039,-0.001l0.039,-0.002l0.039,-0.002l0.037,-0.003l0.039,-0.003l0.038,-0.004l0.037,-0.004l0.038,-0.004l0.038,-0.005l0.037,-0.006l0.037,-0.006l0.036,-0.006l0.036,-0.007l0.039,-0.007l0.036,-0.008l0.035,-0.008l0.037,-0.008l0.035,-0.009l0.035,-0.01l0.037,-0.01l0.035,-0.01l0.034,-0.01l0.036,-0.012l0.035,-0.011l0.033,-0.012l0.035,-0.012l0.035,-0.013l0.028,-0.011l0.073,-0.03l0.066,-0.029l0.067,-0.031l0.064,-0.032l0.064,-0.034l0.064,-0.036l0.062,-0.036l0.061,-0.039l0.061,-0.04l0.059,-0.041l0.059,-0.043l0.057,-0.043l0.057,-0.046l0.055,-0.047l0.054,-0.048l0.053,-0.049l0.052,-0.05l0.05,-0.052l0.049,-0.053l0.048,-0.054l0.047,-0.055l0.046,-0.057l0.044,-0.057l0.042,-0.059l0.041,-0.059l0.04,-0.061l0.039,-0.061l0.036,-0.062l0.036,-0.064l0.034,-0.064l0.032,-0.065l0.031,-0.066l0.029,-0.066l0.03,-0.073l0.011,-0.029l0.012,-0.034l0.013,-0.034l0.012,-0.035l0.011,-0.034l0.011,-0.035l0.011,-0.035l0.01,-0.036l0.01,-0.035l0.01,-0.036l0.009,-0.036l0.008,-0.036l0.008,-0.036l0.008,-0.036l0.007,-0.037l0.007,-0.036l0.006,-0.037l0.006,-0.037l0.006,-0.038l0.005,-0.037l0.004,-0.038l0.004,-0.037l0.004,-0.038l0.003,-0.039l0.003,-0.038l0.002,-0.038l0.002,-0.039l0.001,-0.039l0.001,-0.039l0,-0.039l0,-0.039l-0.001,-0.039l-0.001,-0.039l-0.002,-0.039l-0.002,-0.038l-0.003,-0.038l-0.003,-0.039l-0.004,-0.038l-0.004,-0.037l-0.004,-0.038l-0.005,-0.037l-0.006,-0.038l-0.006,-0.037l-0.006,-0.037l-0.007,-0.036l-0.007,-0.037l-0.008,-0.036l-0.008,-0.036l-0.008,-0.036l-0.009,-0.036l-0.01,-0.036l-0.01,-0.035l-0.01,-0.036l-0.011,-0.035l-0.011,-0.035l-0.011,-0.034l-0.012,-0.035l-0.013,-0.034l-0.012,-0.034l-0.011,-0.029l-0.03,-0.073l-0.029,-0.066l-0.031,-0.066l-0.032,-0.065l-0.034,-0.064l-0.036,-0.064l-0.036,-0.062l-0.039,-0.061l-0.04,-0.061l-0.041,-0.059l-0.042,-0.059l-0.044,-0.057l-0.046,-0.057l-0.047,-0.055l-0.048,-0.054l-0.049,-0.053l-0.05,-0.052l-0.052,-0.05l-0.053,-0.049l-0.054,-0.048l-0.055,-0.047l-0.057,-0.046l-0.057,-0.043l-0.059,-0.043l-0.059,-0.041l-0.061,-0.04l-0.061,-0.039l-0.062,-0.036l-0.064,-0.036l-0.064,-0.034l-0.064,-0.032l-0.067,-0.031l-0.066,-0.029l-0.073,-0.03l-0.028,-0.011l-0.035,-0.013l-0.035,-0.012l-0.033,-0.012l-0.035,-0.011l-0.036,-0.012l-0.034,-0.01l-0.035,-0.01l-0.037,-0.01l-0.035,-0.01l-0.035,-0.009l-0.037,-0.008l-0.035,-0.008l-0.036,-0.008l-0.039,-0.007l-0.036,-0.007l-0.036,-0.006l-0.037,-0.006l-0.037,-0.006l-0.038,-0.005l-0.038,-0.004l-0.037,-0.004l-0.038,-0.004l-0.039,-0.003l-0.037,-0.003l-0.039,-0.002l-0.039,-0.002l-0.039,-0.001l-0.039,-0.001l-0.039,0l-0.039,0Z" style="fill:#000;"/><rect x="11" y="4" width="2" height="2" style="fill:#000;"/><path d="M18.364,7.05l-1.414,-1.414l-1.414,1.414l1.414,1.414l1.414,-1.414Z" style="fill:#000;"/><path d="M20,13l0,-2l-2,0l0,2l2,0Z" style="fill:#000;"/><path d="M16.95,18.364l1.414,-1.414l-1.414,-1.414l-1.414,1.414l1.414,1.414Z" style="fill:#000;"/><rect x="11" y="18" width="2" height="2" style="fill:#000;"/><path d="M5.636,16.95l1.414,1.414l1.414,-1.414l-1.414,-1.414l-1.414,1.414Z" style="fill:#000;"/><path d="M4,11l0,2l2,0l0,-2l-2,0Z" style="fill:#000;"/><path d="M7.05,5.636l-1.414,1.414l1.414,1.414l1.414,-1.414l-1.414,-1.414Z" style="fill:#000;"/></g></svg>