<?xml version="1.0" encoding="UTF-8" standalone="no"?><!DOCTYPE svg PUBLIC "-//W3C//DTD SVG 1.1//EN" "http://www.w3.org/Graphics/SVG/1.1/DTD/svg11.dtd"><svg width="100%" height="100%" viewBox="0 0 24 24" version="1.1" xmlns="http://www.w3.org/2000/svg" xmlns:xlink="http://www.w3.org/1999/xlink" xml:space="preserve" style="fill-rule:evenodd;clip-rule:evenodd;stroke-linejoin:round;stroke-miterlimit:1.41421;"><g id="building"><rect x="0" y="0" width="24" height="24" style="fill:none;"/><path d="M10.957,10.999c0.004,-2.017 0.018,-4.034 0.044,-6.051c0.009,-0.234 0.052,-0.463 0.138,-0.681c0.208,-0.527 0.642,-0.951 1.174,-1.146c0.204,-0.075 0.418,-0.112 0.635,-0.12c2.368,-0.03 4.736,-0.03 7.104,0c0.217,0.008 0.431,0.045 0.635,0.12c0.532,0.195 0.966,0.619 1.174,1.146c0.086,0.218 0.129,0.447 0.138,0.681c0.06,4.701 0.06,9.403 0,14.104c-0.009,0.234 -0.052,0.463 -0.138,0.681c-0.208,0.527 -0.642,0.951 -1.174,1.146c-0.204,0.075 -0.418,0.112 -0.635,0.12c-2.368,0.03 -4.736,0.03 -7.104,0c-0.217,-0.008 -0.431,-0.045 -0.635,-0.12c-0.109,-0.04 -0.214,-0.09 -0.313,-0.147c-0.099,0.057 -0.204,0.107 -0.313,0.147c-0.204,0.075 -0.418,0.112 -0.635,0.12c-2.368,0.03 -4.736,0.03 -7.104,0c-0.217,-0.008 -0.431,-0.045 -0.635,-0.12c-0.532,-0.195 -0.966,-0.619 -1.174,-1.146c-0.086,-0.218 -0.129,-0.447 -0.138,-0.681c-0.026,-2.035 -0.026,-4.069 0,-6.104c0.009,-0.234 0.052,-0.463 0.138,-0.681c0.208,-0.527 0.642,-0.951 1.174,-1.146c0.204,-0.075 0.418,-0.112 0.635,-0.12c2.336,-0.03 4.673,-0.03 7.009,-0.002Zm2.043,8l0,0.001c0.003,0.003 0.009,0 0.013,0c2.325,0 4.649,0 6.974,0c0.004,0 0.01,0.003 0.013,0c0.002,-0.003 0,-0.009 0,-0.013c0,-4.658 0,-9.316 0,-13.974c0,-0.004 0.003,-0.01 0,-0.013c-0.003,-0.003 -0.009,0 -0.013,0l-6.974,0c-0.004,0 -0.01,-0.003 -0.013,0c-0.003,0.003 0,0.009 0,0.013l0,7.988c0.025,1.999 0.025,3.999 0,5.998Zm-2.043,-5.999l-6.944,0l-0.012,0c-0.003,0.003 -0.001,0.008 -0.001,0.013c0,1.995 -0.025,3.991 0,5.986c0.003,0.003 0.009,0.001 0.013,0.001c2.325,0 4.649,0 6.974,0c0.004,0 0.01,0.003 0.013,0l0,-0.001c-0.025,-1.999 -0.04,-3.999 -0.043,-5.999Z"/><rect x="14" y="7" width="2" height="2"/><rect x="14" y="11" width="2" height="2"/><rect x="17" y="7" width="2" height="2"/><rect x="17" y="11" width="2" height="2"/><rect x="14" y="15" width="2" height="2"/><rect x="17" y="15" width="2" height="2"/><rect x="5" y="15" width="2" height="2"/><rect x="8" y="15" width="2" height="2"/></g></svg>