<?xml version="1.0" encoding="UTF-8" standalone="no"?><!DOCTYPE svg PUBLIC "-//W3C//DTD SVG 1.1//EN" "http://www.w3.org/Graphics/SVG/1.1/DTD/svg11.dtd"><svg width="100%" height="100%" viewBox="0 0 24 24" version="1.1" xmlns="http://www.w3.org/2000/svg" xmlns:xlink="http://www.w3.org/1999/xlink" xml:space="preserve" style="fill-rule:evenodd;clip-rule:evenodd;stroke-linejoin:round;stroke-miterlimit:1.41421;"><g id="call"><path d="M15.875,13.488c0.13,-0.066 0.276,-0.108 0.427,-0.123c0.374,-0.037 0.745,0.096 1.011,0.361c0.667,0.668 1.498,1.499 2.047,2.047c0.352,0.352 0.439,0.89 0.216,1.335l-0.027,0.054l-3.674,-3.674Z" style="fill:#000;"/><path d="M4.7,6.376c0,0 0,-0.001 0,-0.001c-0.386,-0.79 -0.133,-1.743 0.594,-2.239c0.004,-0.002 0.006,-0.004 0.006,-0.004c0.004,0.01 3.847,3.97 3.847,3.97c-0.072,0.168 -0.865,0.752 -1.114,0.914c0.239,0.365 0.486,0.724 0.742,1.077c0.279,0.386 0.567,0.764 0.866,1.134c0.233,0.289 0.472,0.572 0.718,0.849c1.111,1.256 2.364,2.407 3.758,3.344c0.199,-0.302 0.43,-0.647 0.641,-0.965c0.104,-0.155 0.248,-0.277 0.417,-0.348l3.809,3.729c0,0 0,0 0,0c-0.511,0.711 -1.433,0.995 -2.254,0.693c-0.341,-0.122 -0.664,-0.241 -0.862,-0.327c-2.959,-1.295 -5.451,-3.478 -7.466,-5.973c-0.317,-0.393 -0.623,-0.793 -0.918,-1.202c-0.376,-0.52 -0.736,-1.053 -1.079,-1.595c-0.289,-0.458 -0.566,-0.922 -0.832,-1.394c-0.343,-0.515 -0.633,-1.07 -0.873,-1.662Z" style="fill:#000;"/><path d="M9.772,7.406c0.066,-0.13 0.109,-0.275 0.125,-0.426c0.04,-0.374 -0.09,-0.746 -0.354,-1.013c-0.663,-0.673 -1.487,-1.51 -2.032,-2.062c-0.349,-0.354 -0.886,-0.445 -1.333,-0.226l-0.054,0.027l3.648,3.7Z" style="fill:#000;"/></g></svg>