<?xml version="1.0" encoding="UTF-8" standalone="no"?><!DOCTYPE svg PUBLIC "-//W3C//DTD SVG 1.1//EN" "http://www.w3.org/Graphics/SVG/1.1/DTD/svg11.dtd"><svg width="100%" height="100%" viewBox="0 0 24 24" version="1.1" xmlns="http://www.w3.org/2000/svg" xmlns:xlink="http://www.w3.org/1999/xlink" xml:space="preserve" style="fill-rule:evenodd;clip-rule:evenodd;stroke-linejoin:round;stroke-miterlimit:1.41421;"><g id="call"><path d="M16.791,13.963c0.176,-0.137 0.388,-0.22 0.614,-0.242c0.374,-0.037 0.744,0.095 1.01,0.361c0.933,0.933 2.245,2.245 2.996,2.995c0.352,0.352 0.439,0.89 0.216,1.335l-0.129,0.258l-4.707,-4.707Z" style="fill:#000;"/><path d="M2.86,5.132c-0.033,-0.068 -0.069,-0.144 -0.107,-0.227c-0.415,-0.869 -0.134,-1.911 0.662,-2.454c0.121,-0.082 0.199,-0.135 0.199,-0.135c0.004,0.012 4.828,4.983 4.828,4.983c-0.09,0.211 -1.086,0.943 -1.398,1.147c0.3,0.458 0.611,0.908 0.931,1.352c0.35,0.484 0.713,0.959 1.088,1.423c0.292,0.362 0.592,0.718 0.9,1.066c1.394,1.576 2.968,3.02 4.716,4.197c0.251,-0.379 0.54,-0.813 0.806,-1.211c0.13,-0.195 0.311,-0.348 0.523,-0.437l4.781,4.68c0,0 -0.079,0.11 -0.193,0.268c-0.516,0.72 -1.444,1.014 -2.281,0.723c-0.55,-0.19 -1.121,-0.394 -1.437,-0.532c-3.714,-1.625 -6.841,-4.365 -9.371,-7.497c-0.398,-0.492 -0.781,-0.995 -1.152,-1.508c-0.473,-0.653 -0.924,-1.321 -1.354,-2.003c-0.363,-0.574 -0.711,-1.157 -1.044,-1.749c-0.431,-0.646 -0.795,-1.343 -1.097,-2.086Z" style="fill:#000;"/><path d="M9.321,6.521c0.139,-0.174 0.223,-0.386 0.247,-0.611c0.039,-0.374 -0.09,-0.746 -0.354,-1.013c-0.926,-0.94 -2.229,-2.261 -2.974,-3.017c-0.35,-0.355 -0.887,-0.446 -1.333,-0.227l-0.259,0.128l4.673,4.74Z" style="fill:#000;"/></g></svg>