<?xml version="1.0" encoding="UTF-8" standalone="no"?><!DOCTYPE svg PUBLIC "-//W3C//DTD SVG 1.1//EN" "http://www.w3.org/Graphics/SVG/1.1/DTD/svg11.dtd"><svg width="100%" height="100%" viewBox="0 0 24 24" version="1.1" xmlns="http://www.w3.org/2000/svg" xmlns:xlink="http://www.w3.org/1999/xlink" xml:space="preserve" style="fill-rule:evenodd;clip-rule:evenodd;stroke-linejoin:round;stroke-miterlimit:1.41421;"><g id="car"><path d="M6,19l-4,0c0,0 0,0.263 0,0.599c0,0.371 0.148,0.728 0.41,0.991c0.263,0.262 0.62,0.41 0.991,0.41c0.388,0 0.81,0 1.198,0c0.371,0 0.728,-0.148 0.991,-0.41c0.262,-0.263 0.41,-0.62 0.41,-0.991c0,-0.336 0,-0.599 0,-0.599Z" style="fill:#000;"/><path d="M22,19l-4,0c0,0 0,0.263 0,0.599c0,0.371 0.148,0.728 0.41,0.991c0.263,0.262 0.62,0.41 0.991,0.41c0.388,0 0.81,0 1.198,0c0.371,0 0.728,-0.148 0.991,-0.41c0.262,-0.263 0.41,-0.62 0.41,-0.991c0,-0.336 0,-0.599 0,-0.599Z" style="fill:#000;"/><path d="M18.227,3l0.04,0.001l0.039,0.002l0.039,0.004l0.038,0.005l0.039,0.007l0.037,0.008l0.038,0.009l0.036,0.011l0.037,0.012l0.035,0.013l0.035,0.015l0.035,0.016l0.034,0.018l0.033,0.018l0.032,0.02l0.032,0.021l0.031,0.022l0.03,0.023l0.029,0.024l0.028,0.025l0.027,0.027l0.027,0.027l0.025,0.029l0.024,0.029l0.024,0.031l0.022,0.031l0.021,0.033l0.02,0.033l0.018,0.034l0.018,0.035l0.016,0.036l0.015,0.036l2.819,6.345l0,9l-20,0l0,-9l2.819,-6.345l0.015,-0.036l0.016,-0.036l0.018,-0.035l0.018,-0.034l0.02,-0.033l0.021,-0.033l0.022,-0.031l0.024,-0.031l0.024,-0.029l0.025,-0.029l0.027,-0.027l0.027,-0.027l0.028,-0.025l0.029,-0.024l0.03,-0.023l0.031,-0.022l0.032,-0.021l0.032,-0.02l0.033,-0.018l0.034,-0.018l0.035,-0.016l0.035,-0.015l0.035,-0.013l0.037,-0.012l0.036,-0.011l0.038,-0.009l0.037,-0.008l0.039,-0.007l0.038,-0.005l0.039,-0.004l0.039,-0.002l0.04,-0.001l12.454,0ZM4,12l0,5l16,0l0,-5l-16,0ZM6.419,3.989l-2.342,6.011l15.846,0l-2.401,-6.011l-11.103,0Z" style="fill:#000;"/><circle cx="7.5" cy="14.5" r="1.5" style="fill:#000;"/><circle cx="16.5" cy="14.5" r="1.5" style="fill:#000;"/></g></svg>