<?xml version="1.0" encoding="UTF-8" standalone="no"?><!DOCTYPE svg PUBLIC "-//W3C//DTD SVG 1.1//EN" "http://www.w3.org/Graphics/SVG/1.1/DTD/svg11.dtd"><svg width="100%" height="100%" viewBox="0 0 24 24" version="1.1" xmlns="http://www.w3.org/2000/svg" xmlns:xlink="http://www.w3.org/1999/xlink" xml:space="preserve" style="fill-rule:evenodd;clip-rule:evenodd;stroke-linejoin:round;stroke-miterlimit:1.41421;"><g id="checkbox_ticked"><path d="M15,4l0,2l-9,0l0,12l12,0l0,-6l2,0l0,6.048c-0.003,0.214 -0.034,0.424 -0.103,0.626c-0.187,0.555 -0.628,1.006 -1.178,1.208c-0.215,0.079 -0.441,0.115 -0.671,0.118c-4.049,0 -8.098,0.051 -12.147,-0.001c-0.228,-0.008 -0.452,-0.05 -0.665,-0.134c-0.514,-0.203 -0.927,-0.626 -1.118,-1.146c-0.073,-0.199 -0.109,-0.408 -0.117,-0.62c-0.052,-4.066 -0.052,-8.132 0,-12.198c0.008,-0.212 0.044,-0.421 0.117,-0.62c0.196,-0.535 0.628,-0.967 1.163,-1.163c0.215,-0.079 0.441,-0.115 0.671,-0.118l9.048,0Z" style="fill:#000;"/><path d="M21.344,4.037l-7.539,11.847l-0.174,0.027l-6.771,-5.643l1.28,-1.536l5.127,4.272l6.389,-10.041c0.563,0.358 1.125,0.716 1.688,1.074Z" style="fill:#000;fill-rule:nonzero;"/></g></svg>