<?xml version="1.0" encoding="UTF-8" standalone="no"?><!DOCTYPE svg PUBLIC "-//W3C//DTD SVG 1.1//EN" "http://www.w3.org/Graphics/SVG/1.1/DTD/svg11.dtd"><svg width="100%" height="100%" viewBox="0 0 24 24" version="1.1" xmlns="http://www.w3.org/2000/svg" xmlns:xlink="http://www.w3.org/1999/xlink" xml:space="preserve" style="fill-rule:evenodd;clip-rule:evenodd;stroke-linejoin:round;stroke-miterlimit:1.41421;"><g id="cloud"><path d="M12.549,5.81l0.073,0.002l0.073,0.002l0.073,0.004l0.072,0.005l0.072,0.006l0.071,0.007l0.071,0.008l0.071,0.009l0.071,0.011l0.07,0.011l0.07,0.012l0.07,0.013l0.069,0.015l0.069,0.015l0.068,0.016l0.068,0.017l0.068,0.018l0.067,0.02l0.067,0.02l0.066,0.021l0.066,0.022l0.066,0.023l0.065,0.024l0.065,0.024l0.064,0.026l0.064,0.027l0.063,0.027l0.063,0.029l0.062,0.029l0.062,0.03l0.062,0.031l0.06,0.032l0.061,0.033l0.06,0.033l0.059,0.035l0.059,0.035l0.058,0.036l0.057,0.037l0.057,0.037l0.057,0.039l0.056,0.039l0.055,0.04l0.055,0.041l0.054,0.041l0.053,0.042l0.053,0.043l0.052,0.044l0.052,0.044l0.051,0.046l0.05,0.046l0.05,0.046l0.049,0.047l0.048,0.048l0.048,0.049l0.047,0.049l0.046,0.05l0.045,0.051l0.045,0.051l0.044,0.052l0.044,0.053l0.042,0.053l0.042,0.054l0.041,0.054l0.114,-0.008l0.116,-0.007l0.115,-0.003l0.117,-0.002l0.068,0.001l0.067,0.001l0.067,0.002l0.067,0.003l0.067,0.004l0.067,0.005l0.066,0.005l0.066,0.006l0.066,0.007l0.066,0.008l0.065,0.009l0.065,0.01l0.065,0.01l0.065,0.011l0.064,0.012l0.064,0.013l0.064,0.013l0.063,0.015l0.063,0.015l0.063,0.015l0.063,0.017l0.062,0.017l0.062,0.018l0.062,0.019l0.061,0.019l0.061,0.021l0.061,0.021l0.06,0.021l0.06,0.023l0.06,0.023l0.059,0.024l0.059,0.024l0.059,0.025l0.058,0.026l0.058,0.027l0.057,0.027l0.057,0.028l0.057,0.029l0.056,0.029l0.056,0.03l0.055,0.03l0.055,0.032l0.055,0.032l0.054,0.032l0.054,0.033l0.053,0.034l0.053,0.034l0.053,0.035l0.052,0.036l0.051,0.036l0.051,0.037l0.051,0.037l0.05,0.038l0.05,0.039l0.049,0.039l0.049,0.04l0.048,0.04l0.048,0.041l0.094,0.084l0.092,0.085l0.09,0.088l0.088,0.09l0.086,0.092l0.083,0.094l0.041,0.048l0.04,0.048l0.04,0.049l0.039,0.049l0.039,0.05l0.038,0.05l0.037,0.051l0.037,0.051l0.036,0.052l0.036,0.052l0.035,0.052l0.034,0.053l0.034,0.053l0.033,0.054l0.033,0.054l0.032,0.055l0.031,0.055l0.03,0.055l0.03,0.056l0.03,0.057l0.028,0.056l0.028,0.057l0.027,0.058l0.027,0.058l0.026,0.058l0.025,0.058l0.025,0.059l0.023,0.06l0.024,0.059l0.022,0.06l0.022,0.06l0.021,0.061l0.02,0.061l0.019,0.061l0.019,0.062l0.018,0.062l0.017,0.062l0.017,0.063l0.016,0.063l0.015,0.063l0.014,0.064l0.014,0.063l0.012,0.064l0.012,0.065l0.011,0.064l0.011,0.065l0.009,0.065l0.009,0.066l0.008,0.065l0.007,0.066l0.006,0.066l0.006,0.067l0.004,0.066l0.004,0.067l0.003,0.067l0.002,0.067l0.002,0.068l0,0.067l0,0.068l-0.002,0.067l-0.002,0.068l-0.003,0.067l-0.004,0.067l-0.004,0.066l-0.006,0.067l-0.006,0.066l-0.007,0.066l-0.008,0.065l-0.009,0.066l-0.009,0.065l-0.011,0.065l-0.011,0.064l-0.012,0.064l-0.012,0.064l-0.014,0.064l-0.014,0.064l-0.015,0.063l-0.016,0.063l-0.017,0.062l-0.017,0.063l-0.018,0.062l-0.019,0.061l-0.019,0.062l-0.02,0.061l-0.021,0.06l-0.022,0.061l-0.022,0.06l-0.024,0.059l-0.023,0.06l-0.025,0.058l-0.025,0.059l-0.026,0.058l-0.027,0.058l-0.027,0.057l-0.028,0.058l-0.028,0.056l-0.03,0.056l-0.03,0.056l-0.03,0.056l-0.031,0.055l-0.032,0.054l-0.033,0.055l-0.033,0.053l-0.034,0.054l-0.034,0.053l-0.035,0.052l-0.036,0.052l-0.036,0.052l-0.037,0.051l-0.037,0.051l-0.038,0.05l-0.039,0.049l-0.039,0.05l-0.04,0.048l-0.04,0.049l-0.041,0.048l-0.083,0.094l-0.086,0.092l-0.088,0.09l-0.09,0.087l-0.092,0.086l-0.094,0.084l-0.048,0.04l-0.048,0.041l-0.049,0.039l-0.049,0.04l-0.05,0.038l-0.05,0.038l-0.051,0.038l-0.051,0.037l-0.051,0.036l-0.052,0.035l-0.053,0.035l-0.053,0.035l-0.053,0.034l-0.054,0.033l-0.054,0.032l-0.055,0.032l-0.055,0.031l-0.055,0.031l-0.056,0.03l-0.056,0.029l-0.057,0.029l-0.057,0.028l-0.057,0.027l-0.058,0.026l-0.058,0.026l-0.059,0.026l-0.059,0.024l-0.059,0.024l-0.06,0.023l-0.06,0.022l-0.06,0.022l-0.061,0.021l-0.061,0.02l-0.061,0.02l-0.062,0.019l-0.062,0.018l-0.062,0.017l-0.063,0.016l-0.063,0.016l-0.063,0.015l-0.063,0.014l-0.064,0.014l-0.064,0.013l-0.064,0.012l-0.065,0.011l-0.065,0.01l-0.065,0.01l-0.065,0.008l-0.066,0.008l-0.066,0.007l-0.066,0.007l-0.066,0.005l-0.067,0.005l-0.067,0.004l-0.067,0.003l-0.067,0.002l-0.067,0.001l-0.068,0l-2.137,-0.001l-2.861,-0.003l-1.474,-0.001l-1.381,0l-1.196,0.002l-0.5,0.001l-0.42,0.002l-0.031,0l-0.062,0l-0.061,-0.001l-0.061,-0.002l-0.061,-0.003l-0.061,-0.003l-0.06,-0.004l-0.061,-0.005l-0.06,-0.006l-0.06,-0.007l-0.059,-0.007l-0.06,-0.008l-0.059,-0.008l-0.059,-0.01l-0.059,-0.01l-0.116,-0.022l-0.116,-0.026l-0.115,-0.028l-0.113,-0.03l-0.112,-0.034l-0.112,-0.036l-0.11,-0.039l-0.108,-0.041l-0.108,-0.044l-0.106,-0.046l-0.105,-0.049l-0.103,-0.052l-0.102,-0.054l-0.101,-0.056l-0.099,-0.058l-0.097,-0.061l-0.096,-0.063l-0.094,-0.066l-0.092,-0.067l-0.091,-0.07l-0.089,-0.071l-0.088,-0.074l-0.085,-0.076l-0.084,-0.078l-0.082,-0.08l-0.079,-0.082l-0.078,-0.083l-0.076,-0.086l-0.074,-0.087l-0.072,-0.089l-0.069,-0.091l-0.068,-0.093l-0.065,-0.094l-0.063,-0.096l-0.061,-0.097l-0.059,-0.099l-0.056,-0.1l-0.054,-0.102l-0.051,-0.104l-0.049,-0.104l-0.047,-0.107l-0.043,-0.107l-0.042,-0.109l-0.039,-0.11l-0.036,-0.111l-0.033,-0.112l-0.031,-0.114l-0.028,-0.115l-0.025,-0.115l-0.023,-0.117l-0.01,-0.059l-0.009,-0.059l-0.009,-0.059l-0.008,-0.059l-0.007,-0.06l-0.006,-0.06l-0.006,-0.06l-0.005,-0.06l-0.004,-0.061l-0.004,-0.061l-0.003,-0.06l-0.001,-0.062l-0.002,-0.061l0,-0.061l0,-0.062l0.002,-0.061l0.001,-0.061l0.003,-0.061l0.004,-0.061l0.004,-0.061l0.005,-0.06l0.006,-0.06l0.006,-0.06l0.007,-0.06l0.008,-0.059l0.009,-0.059l0.009,-0.059l0.01,-0.059l0.023,-0.117l0.025,-0.115l0.028,-0.115l0.031,-0.113l0.033,-0.113l0.036,-0.111l0.039,-0.11l0.042,-0.109l0.043,-0.107l0.047,-0.106l0.049,-0.105l0.051,-0.104l0.054,-0.101l0.056,-0.101l0.059,-0.099l0.061,-0.097l0.063,-0.096l0.065,-0.094l0.068,-0.093l0.069,-0.091l0.072,-0.089l0.074,-0.087l0.076,-0.086l0.078,-0.083l0.079,-0.082l0.082,-0.08l0.084,-0.078l0.085,-0.076l0.088,-0.073l0.089,-0.072l0.091,-0.07l0.092,-0.067l0.094,-0.066l0.096,-0.063l0.097,-0.061l0.099,-0.058l0.101,-0.056l0.102,-0.054l0.103,-0.051l0.105,-0.049l0.106,-0.047l0.108,-0.044l0.108,-0.041l0.11,-0.039l0.112,-0.036l0.112,-0.034l0.113,-0.03l0.115,-0.028l0.116,-0.026l0.116,-0.022l0.059,-0.01l0.059,-0.009l0.059,-0.009l0.06,-0.008l0.059,-0.007l0.06,-0.007l0.06,-0.005l0.061,-0.005l0.06,-0.005l0.061,-0.003l0.061,-0.003l0.061,-0.002l0.061,-0.001l0.062,0l0.031,0l0.08,0.001l0.081,0.002l0.08,0.004l0.08,0.005l0.079,0.007l0.079,0.008l0.079,0.009l0.078,0.01l0.078,0.012l0.077,0.013l0.077,0.014l0.077,0.015l0.076,0.016l0.075,0.018l0.076,0.019l0.074,0.02l0.034,-0.083l0.034,-0.081l0.036,-0.082l0.038,-0.08l0.039,-0.08l0.041,-0.078l0.042,-0.078l0.043,-0.077l0.045,-0.076l0.046,-0.075l0.047,-0.075l0.049,-0.073l0.05,-0.072l0.052,-0.072l0.052,-0.07l0.054,-0.069l0.055,-0.069l0.057,-0.067l0.057,-0.066l0.059,-0.065l0.06,-0.065l0.061,-0.062l0.062,-0.062l0.064,-0.061l0.064,-0.059l0.066,-0.059l0.066,-0.057l0.068,-0.056l0.069,-0.055l0.07,-0.053l0.07,-0.052l0.072,-0.051l0.073,-0.05l0.073,-0.048l0.075,-0.047l0.076,-0.046l0.076,-0.044l0.077,-0.043l0.078,-0.041l0.079,-0.04l0.08,-0.039l0.081,-0.037l0.081,-0.036l0.083,-0.034l0.083,-0.032l0.084,-0.032l0.084,-0.029l0.085,-0.028l0.086,-0.027l0.087,-0.025l0.087,-0.023l0.088,-0.022l0.088,-0.02l0.09,-0.018l0.089,-0.017l0.091,-0.015l0.091,-0.013l0.091,-0.012l0.092,-0.01l0.092,-0.008l0.093,-0.006l0.094,-0.005l0.094,-0.003l0.094,0l0.073,0ZM12.421,7.81l-0.055,0.002l-0.055,0.002l-0.054,0.004l-0.054,0.005l-0.053,0.006l-0.053,0.006l-0.053,0.008l-0.052,0.009l-0.052,0.009l-0.052,0.011l-0.05,0.012l-0.051,0.012l-0.05,0.014l-0.05,0.014l-0.05,0.015l-0.049,0.016l-0.049,0.018l-0.048,0.017l-0.047,0.019l-0.049,0.02l-0.047,0.021l-0.046,0.021l-0.046,0.022l-0.046,0.024l-0.045,0.024l-0.045,0.025l-0.045,0.025l-0.043,0.027l-0.043,0.027l-0.043,0.028l-0.043,0.029l-0.041,0.029l-0.042,0.031l-0.04,0.031l-0.04,0.032l-0.04,0.032l-0.039,0.034l-0.037,0.033l-0.038,0.035l-0.037,0.035l-0.036,0.036l-0.036,0.038l-0.035,0.037l-0.034,0.038l-0.034,0.038l-0.033,0.04l-0.032,0.039l-0.031,0.041l-0.031,0.041l-0.03,0.041l-0.029,0.042l-0.028,0.043l-0.028,0.043l-0.026,0.044l-0.026,0.044l-0.026,0.044l-0.024,0.045l-0.023,0.046l-0.023,0.046l-0.022,0.047l-0.021,0.046l-0.02,0.047l-0.026,0.066l-0.051,0.116l-0.058,0.112l-0.064,0.108l-0.072,0.104l-0.078,0.099l-0.084,0.094l-0.09,0.089l-0.095,0.083l-0.101,0.076l-0.105,0.07l-0.109,0.064l-0.113,0.056l-0.116,0.049l-0.119,0.042l-0.122,0.034l-0.123,0.026l-0.125,0.019l-0.126,0.01l-0.126,0.003l-0.126,-0.005l-0.126,-0.013l-0.124,-0.022l-0.123,-0.029l-0.059,-0.015l-0.043,-0.011l-0.044,-0.011l-0.043,-0.009l-0.045,-0.009l-0.045,-0.008l-0.044,-0.007l-0.046,-0.007l-0.045,-0.006l-0.045,-0.005l-0.046,-0.005l-0.046,-0.004l-0.047,-0.003l-0.047,-0.002l-0.047,-0.002l-0.051,0l-0.01,0l-0.04,0l-0.036,0.001l-0.036,0.001l-0.036,0.001l-0.035,0.002l-0.035,0.003l-0.036,0.003l-0.035,0.003l-0.034,0.004l-0.035,0.004l-0.034,0.005l-0.034,0.004l-0.034,0.006l-0.028,0.005l-0.074,0.014l-0.067,0.015l-0.066,0.016l-0.065,0.017l-0.065,0.02l-0.064,0.02l-0.064,0.023l-0.062,0.024l-0.062,0.025l-0.061,0.027l-0.061,0.028l-0.06,0.03l-0.059,0.031l-0.058,0.033l-0.057,0.034l-0.057,0.035l-0.056,0.037l-0.055,0.038l-0.053,0.039l-0.053,0.04l-0.052,0.042l-0.051,0.043l-0.05,0.044l-0.049,0.046l-0.047,0.046l-0.047,0.048l-0.045,0.049l-0.045,0.05l-0.043,0.051l-0.042,0.052l-0.04,0.052l-0.039,0.054l-0.038,0.055l-0.037,0.056l-0.035,0.056l-0.034,0.057l-0.032,0.059l-0.032,0.059l-0.029,0.06l-0.029,0.06l-0.027,0.061l-0.025,0.062l-0.024,0.063l-0.022,0.064l-0.021,0.064l-0.019,0.065l-0.018,0.065l-0.016,0.066l-0.015,0.067l-0.014,0.073l-0.005,0.028l-0.005,0.034l-0.005,0.035l-0.005,0.034l-0.004,0.035l-0.004,0.034l-0.003,0.035l-0.003,0.036l-0.002,0.035l-0.002,0.035l-0.002,0.035l-0.001,0.037l-0.001,0.036l0,0.036l0,0.036l0.001,0.035l0.001,0.037l0.002,0.035l0.002,0.035l0.002,0.036l0.003,0.035l0.003,0.035l0.004,0.034l0.004,0.035l0.005,0.035l0.005,0.034l0.005,0.034l0.005,0.028l0.014,0.073l0.015,0.067l0.016,0.066l0.018,0.066l0.019,0.065l0.021,0.064l0.022,0.063l0.024,0.063l0.025,0.062l0.027,0.061l0.029,0.061l0.029,0.059l0.031,0.059l0.033,0.059l0.034,0.057l0.035,0.057l0.037,0.055l0.038,0.055l0.039,0.054l0.041,0.053l0.042,0.052l0.042,0.05l0.045,0.05l0.045,0.049l0.047,0.048l0.047,0.046l0.049,0.046l0.05,0.044l0.051,0.043l0.052,0.042l0.052,0.04l0.054,0.04l0.055,0.037l0.056,0.037l0.057,0.036l0.057,0.033l0.058,0.033l0.059,0.031l0.06,0.03l0.06,0.028l0.062,0.027l0.062,0.025l0.063,0.024l0.063,0.023l0.064,0.02l0.065,0.02l0.065,0.017l0.067,0.017l0.066,0.014l0.074,0.014l0.027,0.005l0.034,0.005l0.035,0.006l0.034,0.004l0.035,0.004l0.035,0.004l0.034,0.003l0.035,0.003l0.036,0.003l0.036,0.002l0.036,0.001l0.034,0.002l0.037,0l0.039,0l0.019,0l0.42,-0.002l0.504,-0.001l1.199,-0.002l1.383,0l1.476,0.001l2.861,0.003l2.129,0.001l0.048,0l0.042,-0.001l0.042,-0.001l0.042,-0.002l0.042,-0.002l0.041,-0.003l0.041,-0.004l0.042,-0.003l0.039,-0.005l0.041,-0.005l0.04,-0.005l0.041,-0.006l0.04,-0.006l0.039,-0.007l0.04,-0.008l0.04,-0.007l0.039,-0.009l0.039,-0.008l0.039,-0.01l0.039,-0.009l0.038,-0.011l0.038,-0.01l0.038,-0.011l0.039,-0.012l0.037,-0.012l0.038,-0.012l0.037,-0.013l0.036,-0.013l0.037,-0.014l0.037,-0.014l0.037,-0.015l0.037,-0.016l0.035,-0.015l0.036,-0.016l0.036,-0.016l0.035,-0.017l0.035,-0.017l0.036,-0.018l0.035,-0.018l0.034,-0.018l0.034,-0.019l0.034,-0.019l0.034,-0.02l0.034,-0.021l0.032,-0.02l0.033,-0.021l0.034,-0.021l0.032,-0.022l0.033,-0.022l0.031,-0.022l0.031,-0.023l0.032,-0.023l0.031,-0.024l0.031,-0.024l0.03,-0.024l0.031,-0.024l0.03,-0.026l0.025,-0.022l0.063,-0.055l0.057,-0.053l0.056,-0.055l0.054,-0.055l0.053,-0.058l0.056,-0.062l0.022,-0.026l0.025,-0.03l0.024,-0.03l0.024,-0.03l0.025,-0.031l0.023,-0.032l0.024,-0.031l0.022,-0.032l0.023,-0.031l0.022,-0.033l0.022,-0.032l0.021,-0.033l0.021,-0.033l0.02,-0.033l0.02,-0.034l0.02,-0.033l0.019,-0.035l0.019,-0.034l0.019,-0.034l0.018,-0.035l0.017,-0.035l0.018,-0.036l0.016,-0.035l0.017,-0.035l0.016,-0.036l0.015,-0.036l0.015,-0.037l0.015,-0.036l0.014,-0.036l0.014,-0.038l0.013,-0.037l0.013,-0.037l0.013,-0.038l0.012,-0.037l0.011,-0.038l0.011,-0.038l0.011,-0.038l0.01,-0.039l0.01,-0.039l0.009,-0.039l0.009,-0.038l0.008,-0.04l0.008,-0.039l0.007,-0.04l0.007,-0.04l0.007,-0.04l0.005,-0.04l0.006,-0.04l0.005,-0.041l0.004,-0.041l0.004,-0.041l0.003,-0.041l0.003,-0.041l0.003,-0.041l0.002,-0.042l0.001,-0.042l0.001,-0.042l0,-0.043l0,-0.042l-0.001,-0.042l-0.001,-0.042l-0.002,-0.042l-0.003,-0.041l-0.003,-0.041l-0.003,-0.042l-0.004,-0.04l-0.004,-0.041l-0.005,-0.041l-0.006,-0.04l-0.005,-0.04l-0.007,-0.041l-0.007,-0.04l-0.007,-0.039l-0.008,-0.039l-0.008,-0.04l-0.009,-0.039l-0.009,-0.038l-0.01,-0.039l-0.01,-0.039l-0.011,-0.038l-0.011,-0.038l-0.011,-0.038l-0.012,-0.038l-0.013,-0.037l-0.013,-0.038l-0.013,-0.037l-0.014,-0.037l-0.014,-0.036l-0.015,-0.037l-0.015,-0.036l-0.015,-0.036l-0.016,-0.036l-0.017,-0.036l-0.016,-0.035l-0.018,-0.036l-0.017,-0.034l-0.018,-0.035l-0.019,-0.034l-0.019,-0.035l-0.019,-0.034l-0.02,-0.033l-0.02,-0.034l-0.021,-0.034l-0.02,-0.032l-0.021,-0.033l-0.022,-0.033l-0.022,-0.032l-0.023,-0.032l-0.022,-0.031l-0.024,-0.032l-0.023,-0.031l-0.025,-0.031l-0.024,-0.03l-0.024,-0.03l-0.025,-0.03l-0.022,-0.026l-0.056,-0.063l-0.053,-0.057l-0.054,-0.055l-0.056,-0.055l-0.057,-0.053l-0.063,-0.056l-0.025,-0.021l-0.03,-0.026l-0.031,-0.024l-0.03,-0.024l-0.031,-0.024l-0.031,-0.024l-0.032,-0.023l-0.031,-0.023l-0.032,-0.023l-0.032,-0.022l-0.032,-0.021l-0.034,-0.022l-0.033,-0.021l-0.032,-0.02l-0.034,-0.02l-0.034,-0.02l-0.034,-0.019l-0.034,-0.019l-0.034,-0.018l-0.035,-0.018l-0.036,-0.018l-0.035,-0.017l-0.035,-0.017l-0.036,-0.017l-0.036,-0.016l-0.035,-0.015l-0.037,-0.015l-0.037,-0.015l-0.036,-0.014l-0.037,-0.014l-0.038,-0.013l-0.037,-0.013l-0.037,-0.012l-0.037,-0.012l-0.039,-0.012l-0.038,-0.011l-0.038,-0.011l-0.038,-0.01l-0.039,-0.01l-0.04,-0.009l-0.037,-0.008l-0.04,-0.009l-0.04,-0.008l-0.04,-0.007l-0.04,-0.007l-0.039,-0.006l-0.041,-0.006l-0.039,-0.005l-0.041,-0.005l-0.041,-0.005l-0.042,-0.004l-0.04,-0.003l-0.041,-0.003l-0.042,-0.002l-0.042,-0.002l-0.042,-0.002l-0.041,0l-0.038,-0.001l-0.078,0.001l-0.072,0.003l-0.072,0.003l-0.092,0.008l-0.125,0.005l-0.125,-0.002l-0.124,-0.01l-0.124,-0.018l-0.123,-0.025l-0.121,-0.033l-0.118,-0.041l-0.116,-0.048l-0.112,-0.055l-0.109,-0.062l-0.104,-0.068l-0.101,-0.075l-0.095,-0.081l-0.09,-0.087l-0.084,-0.093l-0.079,-0.097l-0.032,-0.043l-0.025,-0.032l-0.024,-0.03l-0.025,-0.031l-0.026,-0.03l-0.026,-0.03l-0.027,-0.03l-0.026,-0.028l-0.028,-0.03l-0.028,-0.028l-0.028,-0.028l-0.028,-0.027l-0.029,-0.027l-0.029,-0.027l-0.031,-0.027l-0.03,-0.026l-0.03,-0.025l-0.031,-0.025l-0.031,-0.025l-0.031,-0.024l-0.032,-0.023l-0.032,-0.024l-0.033,-0.023l-0.033,-0.022l-0.033,-0.022l-0.033,-0.021l-0.034,-0.021l-0.034,-0.02l-0.035,-0.021l-0.034,-0.019l-0.035,-0.019l-0.036,-0.019l-0.035,-0.017l-0.035,-0.018l-0.037,-0.017l-0.036,-0.016l-0.036,-0.016l-0.037,-0.015l-0.037,-0.015l-0.037,-0.014l-0.038,-0.014l-0.039,-0.014l-0.038,-0.012l-0.037,-0.012l-0.039,-0.012l-0.038,-0.011l-0.04,-0.011l-0.04,-0.01l-0.039,-0.009l-0.039,-0.009l-0.039,-0.008l-0.041,-0.007l-0.041,-0.007l-0.04,-0.007l-0.042,-0.006l-0.041,-0.005l-0.041,-0.005l-0.041,-0.004l-0.042,-0.003l-0.042,-0.003l-0.042,-0.002l-0.043,-0.002l-0.043,-0.001l-0.041,0l-0.057,0Z" style="fill:#000;"/></g></svg>