<?xml version="1.0" encoding="UTF-8" standalone="no"?><!DOCTYPE svg PUBLIC "-//W3C//DTD SVG 1.1//EN" "http://www.w3.org/Graphics/SVG/1.1/DTD/svg11.dtd"><svg width="100%" height="100%" viewBox="0 0 24 24" version="1.1" xmlns="http://www.w3.org/2000/svg" xmlns:xlink="http://www.w3.org/1999/xlink" xml:space="preserve" style="fill-rule:evenodd;clip-rule:evenodd;stroke-linejoin:round;stroke-miterlimit:1.41421;"><g id="compare"><rect x="11" y="4" width="2" height="16" style="fill:#000;fill-rule:nonzero;"/><path d="M20.184,6.017l-0.368,1.966l-16,-3l0.368,-1.966c5.334,1 10.667,2 16,3Z" style="fill:#000;fill-rule:nonzero;"/><rect x="5" y="19" width="14" height="2" style="fill:#000;fill-rule:nonzero;"/><rect x="5" y="4" width="2" height="6" style="fill:#000;fill-rule:nonzero;"/><rect x="17" y="6" width="2" height="6" style="fill:#000;fill-rule:nonzero;"/><path d="M9.889,10.06l0.014,0.061l0.013,0.06l0.012,0.062l0.012,0.061l0.01,0.062l0.009,0.062l0.009,0.062l0.007,0.063l0.007,0.063l0.005,0.063l0.005,0.064l0.003,0.064l0.003,0.064l0.001,0.064l0.001,0.065l-0.001,0.103l-0.004,0.103l-0.007,0.102l-0.009,0.101l-0.011,0.1l-0.014,0.1l-0.017,0.099l-0.018,0.098l-0.022,0.097l-0.023,0.096l-0.026,0.096l-0.028,0.094l-0.03,0.093l-0.033,0.093l-0.035,0.091l-0.037,0.09l-0.039,0.09l-0.041,0.088l-0.043,0.086l-0.045,0.086l-0.047,0.084l-0.049,0.083l-0.052,0.082l-0.053,0.081l-0.054,0.079l-0.057,0.078l-0.059,0.076l-0.06,0.075l-0.062,0.073l-0.064,0.072l-0.065,0.07l-0.067,0.069l-0.069,0.067l-0.07,0.065l-0.072,0.064l-0.073,0.062l-0.075,0.06l-0.076,0.059l-0.078,0.057l-0.079,0.054l-0.081,0.053l-0.082,0.052l-0.083,0.049l-0.084,0.047l-0.086,0.045l-0.086,0.043l-0.088,0.041l-0.09,0.039l-0.09,0.037l-0.091,0.035l-0.093,0.033l-0.093,0.03l-0.094,0.028l-0.096,0.026l-0.096,0.023l-0.097,0.022l-0.098,0.018l-0.099,0.017l-0.1,0.014l-0.1,0.011l-0.101,0.009l-0.102,0.007l-0.103,0.004l-0.103,0.001l-0.103,-0.001l-0.103,-0.004l-0.102,-0.007l-0.101,-0.009l-0.1,-0.011l-0.1,-0.014l-0.099,-0.017l-0.098,-0.018l-0.097,-0.022l-0.096,-0.023l-0.096,-0.026l-0.094,-0.028l-0.093,-0.03l-0.093,-0.033l-0.091,-0.035l-0.09,-0.037l-0.09,-0.039l-0.088,-0.041l-0.086,-0.043l-0.086,-0.045l-0.084,-0.047l-0.083,-0.049l-0.082,-0.052l-0.081,-0.053l-0.079,-0.054l-0.078,-0.057l-0.076,-0.059l-0.075,-0.06l-0.073,-0.062l-0.072,-0.064l-0.07,-0.065l-0.069,-0.067l-0.067,-0.069l-0.065,-0.07l-0.064,-0.072l-0.062,-0.073l-0.06,-0.075l-0.059,-0.076l-0.057,-0.078l-0.054,-0.079l-0.053,-0.081l-0.052,-0.082l-0.049,-0.083l-0.047,-0.084l-0.045,-0.086l-0.043,-0.086l-0.041,-0.088l-0.039,-0.09l-0.037,-0.09l-0.035,-0.091l-0.033,-0.093l-0.03,-0.093l-0.028,-0.094l-0.026,-0.096l-0.023,-0.096l-0.022,-0.097l-0.018,-0.098l-0.017,-0.099l-0.014,-0.1l-0.011,-0.1l-0.009,-0.101l-0.007,-0.102l-0.004,-0.103l-0.001,-0.103l0.001,-0.065l0.001,-0.064l0.003,-0.064l0.003,-0.064l0.005,-0.064l0.005,-0.063l0.007,-0.063l0.007,-0.063l0.009,-0.062l0.009,-0.062l0.01,-0.062l0.012,-0.061l0.012,-0.062l0.013,-0.06l0.014,-0.061l0.015,-0.06l7.748,0l0.015,0.06ZM4.268,12l0.021,0.034l0.025,0.041l0.027,0.041l0.027,0.039l0.029,0.04l0.029,0.038l0.031,0.038l0.03,0.036l0.033,0.037l0.033,0.035l0.033,0.034l0.035,0.034l0.036,0.033l0.035,0.032l0.037,0.032l0.038,0.03l0.038,0.029l0.04,0.029l0.039,0.028l0.041,0.026l0.04,0.025l0.041,0.025l0.043,0.024l0.043,0.022l0.043,0.022l0.044,0.02l0.045,0.02l0.044,0.018l0.045,0.017l0.046,0.016l0.046,0.015l0.048,0.014l0.047,0.013l0.047,0.012l0.049,0.01l0.048,0.01l0.049,0.008l0.05,0.007l0.051,0.005l0.051,0.005l0.051,0.003l0.051,0.002l0.053,0.001l0.053,-0.001l0.051,-0.002l0.051,-0.003l0.051,-0.005l0.051,-0.005l0.05,-0.007l0.049,-0.008l0.048,-0.01l0.049,-0.01l0.047,-0.012l0.047,-0.013l0.048,-0.014l0.046,-0.015l0.046,-0.016l0.045,-0.017l0.044,-0.018l0.045,-0.02l0.044,-0.02l0.043,-0.022l0.043,-0.022l0.043,-0.024l0.041,-0.025l0.04,-0.025l0.041,-0.026l0.039,-0.028l0.04,-0.029l0.038,-0.029l0.038,-0.03l0.037,-0.032l0.035,-0.032l0.036,-0.033l0.035,-0.034l0.033,-0.034l0.033,-0.035l0.033,-0.037l0.03,-0.036l0.031,-0.038l0.029,-0.038l0.029,-0.04l0.027,-0.039l0.027,-0.041l0.025,-0.041l0.021,-0.034l-3.464,0Z" style="fill:#000;"/><path d="M21.889,12.06l0.014,0.061l0.013,0.06l0.012,0.062l0.012,0.061l0.01,0.062l0.009,0.062l0.009,0.062l0.007,0.063l0.007,0.063l0.005,0.063l0.005,0.064l0.003,0.064l0.003,0.064l0.001,0.064l0.001,0.065l-0.001,0.103l-0.004,0.103l-0.007,0.102l-0.009,0.101l-0.011,0.1l-0.014,0.1l-0.017,0.099l-0.018,0.098l-0.022,0.097l-0.023,0.096l-0.026,0.096l-0.028,0.094l-0.03,0.093l-0.033,0.093l-0.035,0.091l-0.037,0.09l-0.039,0.09l-0.041,0.088l-0.043,0.086l-0.045,0.086l-0.047,0.084l-0.049,0.083l-0.052,0.082l-0.053,0.081l-0.054,0.079l-0.057,0.078l-0.059,0.076l-0.06,0.075l-0.062,0.073l-0.064,0.072l-0.065,0.07l-0.067,0.069l-0.069,0.067l-0.07,0.065l-0.072,0.064l-0.073,0.062l-0.075,0.06l-0.076,0.059l-0.078,0.057l-0.079,0.054l-0.081,0.053l-0.082,0.052l-0.083,0.049l-0.084,0.047l-0.086,0.045l-0.086,0.043l-0.088,0.041l-0.09,0.039l-0.09,0.037l-0.091,0.035l-0.093,0.033l-0.093,0.03l-0.094,0.028l-0.096,0.026l-0.096,0.023l-0.097,0.022l-0.098,0.018l-0.099,0.017l-0.1,0.014l-0.1,0.011l-0.101,0.009l-0.102,0.007l-0.103,0.004l-0.103,0.001l-0.103,-0.001l-0.103,-0.004l-0.102,-0.007l-0.101,-0.009l-0.1,-0.011l-0.1,-0.014l-0.099,-0.017l-0.098,-0.018l-0.097,-0.022l-0.096,-0.023l-0.096,-0.026l-0.094,-0.028l-0.093,-0.03l-0.093,-0.033l-0.091,-0.035l-0.09,-0.037l-0.09,-0.039l-0.088,-0.041l-0.086,-0.043l-0.086,-0.045l-0.084,-0.047l-0.083,-0.049l-0.082,-0.052l-0.081,-0.053l-0.079,-0.054l-0.078,-0.057l-0.076,-0.059l-0.075,-0.06l-0.073,-0.062l-0.072,-0.064l-0.07,-0.065l-0.069,-0.067l-0.067,-0.069l-0.065,-0.07l-0.064,-0.072l-0.062,-0.073l-0.06,-0.075l-0.059,-0.076l-0.057,-0.078l-0.054,-0.079l-0.053,-0.081l-0.052,-0.082l-0.049,-0.083l-0.047,-0.084l-0.045,-0.086l-0.043,-0.086l-0.041,-0.088l-0.039,-0.09l-0.037,-0.09l-0.035,-0.091l-0.033,-0.093l-0.03,-0.093l-0.028,-0.094l-0.026,-0.096l-0.023,-0.096l-0.022,-0.097l-0.018,-0.098l-0.017,-0.099l-0.014,-0.1l-0.011,-0.1l-0.009,-0.101l-0.007,-0.102l-0.004,-0.103l-0.001,-0.103l0.001,-0.065l0.001,-0.064l0.003,-0.064l0.003,-0.064l0.005,-0.064l0.005,-0.063l0.007,-0.063l0.007,-0.063l0.009,-0.062l0.009,-0.062l0.01,-0.062l0.012,-0.061l0.012,-0.062l0.013,-0.06l0.014,-0.061l0.015,-0.06l7.748,0l0.015,0.06ZM16.268,14l0.021,0.034l0.025,0.041l0.027,0.041l0.027,0.039l0.029,0.04l0.029,0.038l0.031,0.038l0.03,0.036l0.033,0.037l0.033,0.035l0.033,0.034l0.035,0.034l0.036,0.033l0.035,0.032l0.037,0.032l0.038,0.03l0.038,0.029l0.04,0.029l0.039,0.028l0.041,0.026l0.04,0.025l0.041,0.025l0.043,0.024l0.043,0.022l0.043,0.022l0.044,0.02l0.045,0.02l0.044,0.018l0.045,0.017l0.046,0.016l0.046,0.015l0.048,0.014l0.047,0.013l0.047,0.012l0.049,0.01l0.048,0.01l0.049,0.008l0.05,0.007l0.051,0.005l0.051,0.005l0.051,0.003l0.051,0.002l0.053,0.001l0.053,-0.001l0.051,-0.002l0.051,-0.003l0.051,-0.005l0.051,-0.005l0.05,-0.007l0.049,-0.008l0.048,-0.01l0.049,-0.01l0.047,-0.012l0.047,-0.013l0.048,-0.014l0.046,-0.015l0.046,-0.016l0.045,-0.017l0.044,-0.018l0.045,-0.02l0.044,-0.02l0.043,-0.022l0.043,-0.022l0.043,-0.024l0.041,-0.025l0.04,-0.025l0.041,-0.026l0.039,-0.028l0.04,-0.029l0.038,-0.029l0.038,-0.03l0.037,-0.032l0.035,-0.032l0.036,-0.033l0.035,-0.034l0.033,-0.034l0.033,-0.035l0.033,-0.037l0.03,-0.036l0.031,-0.038l0.029,-0.038l0.029,-0.04l0.027,-0.039l0.027,-0.041l0.025,-0.041l0.021,-0.034l-3.464,0Z" style="fill:#000;"/></g></svg>