<?xml version="1.0" encoding="UTF-8" standalone="no"?><!DOCTYPE svg PUBLIC "-//W3C//DTD SVG 1.1//EN" "http://www.w3.org/Graphics/SVG/1.1/DTD/svg11.dtd"><svg width="100%" height="100%" viewBox="0 0 24 24" version="1.1" xmlns="http://www.w3.org/2000/svg" xmlns:xlink="http://www.w3.org/1999/xlink" xml:space="preserve" style="fill-rule:evenodd;clip-rule:evenodd;stroke-linejoin:round;stroke-miterlimit:1.41421;"><g id="computer"><path d="M3.997,15.999c-0.011,-3.344 -0.038,-6.688 0.004,-10.032c0.008,-0.232 0.051,-0.459 0.134,-0.676c0.21,-0.543 0.654,-0.977 1.202,-1.173c0.203,-0.073 0.415,-0.109 0.63,-0.117c4.005,-0.05 8.011,-0.001 12.016,-0.001c0.232,0.003 0.461,0.04 0.68,0.118c0.58,0.208 1.041,0.681 1.235,1.266c0.068,0.205 0.099,0.418 0.102,0.633l0,9.983l0.05,0c0.224,0.003 0.445,0.038 0.657,0.114c0.545,0.195 0.984,0.634 1.179,1.179c0.07,0.196 0.106,0.401 0.113,0.609c0.005,0.399 0.005,0.797 0,1.196c-0.008,0.224 -0.049,0.444 -0.13,0.654c-0.202,0.525 -0.632,0.944 -1.162,1.134c-0.196,0.07 -0.401,0.106 -0.609,0.113c-5.398,0.067 -10.798,0.067 -16.196,0c-0.208,-0.007 -0.413,-0.043 -0.609,-0.113c-0.53,-0.19 -0.96,-0.609 -1.162,-1.134c-0.081,-0.21 -0.122,-0.43 -0.13,-0.654c-0.005,-0.399 -0.005,-0.797 0,-1.196c0.008,-0.224 0.049,-0.444 0.13,-0.654c0.202,-0.525 0.632,-0.944 1.162,-1.134c0.196,-0.07 0.401,-0.106 0.609,-0.113l0.095,-0.002ZM20,18l-16,0l0,1l16,0l0,-1ZM18,15.997c0,-3.322 0,-6.645 0,-9.967c0,-0.009 0.001,-0.017 -0.005,-0.024c-0.003,-0.004 -0.007,-0.006 -0.012,-0.006c-3.984,-0.048 -7.969,0 -11.954,0c-0.009,0 -0.019,-0.001 -0.025,0.006c-0.002,0.003 -0.004,0.007 -0.004,0.011l0,0.013l0,9.951c4,-0.027 8,0.006 12,0.016Z" style="fill:#000;"/></g></svg>