<?xml version="1.0" encoding="UTF-8" standalone="no"?><!DOCTYPE svg PUBLIC "-//W3C//DTD SVG 1.1//EN" "http://www.w3.org/Graphics/SVG/1.1/DTD/svg11.dtd"><svg width="100%" height="100%" viewBox="0 0 24 24" version="1.1" xmlns="http://www.w3.org/2000/svg" xmlns:xlink="http://www.w3.org/1999/xlink" xml:space="preserve" style="fill-rule:evenodd;clip-rule:evenodd;stroke-linejoin:round;stroke-miterlimit:1.41421;"><g id="cup"><path d="M7.158,11.14c-0.635,0.066 -1.273,0.043 -1.91,0.053c-0.118,0.003 -0.236,0.007 -0.354,0.014c-0.127,0.01 -0.253,0.021 -0.378,0.042c-0.041,0.007 -0.084,0.016 -0.125,0.025c-0.094,0.021 -0.186,0.048 -0.273,0.09c-0.046,0.023 -0.092,0.051 -0.128,0.089c-0.036,0.036 -0.063,0.081 -0.083,0.128c-0.029,0.069 -0.048,0.142 -0.06,0.216c-0.016,0.092 -0.023,0.185 -0.025,0.278c-0.003,0.149 0.006,0.299 0.022,0.447c0.027,0.252 0.074,0.501 0.129,0.748c0.01,0.038 0.02,0.074 0.032,0.111c0.074,0.198 0.194,0.372 0.336,0.527c0.18,0.196 0.392,0.361 0.618,0.501c0.649,0.402 1.422,0.609 2.184,0.612c0.173,0.001 0.347,-0.01 0.52,-0.031c0.097,-0.012 0.193,-0.03 0.29,-0.042c0.06,-0.006 0.059,-0.006 0.119,-0.01c0.127,-0.004 0.253,-0.003 0.379,0.008c0.162,0.013 0.323,0.039 0.485,0.052l0.035,0.001l0.047,0.001l-0.036,2c-0.087,-0.002 -0.087,-0.002 -0.173,-0.006c-0.187,-0.015 -0.372,-0.044 -0.558,-0.058c-0.026,-0.001 -0.053,-0.003 -0.078,0c-0.088,0.014 -0.174,0.027 -0.262,0.039c-0.343,0.039 -0.687,0.055 -1.032,0.04c-0.967,-0.044 -1.93,-0.312 -2.775,-0.788c-0.552,-0.312 -1.06,-0.717 -1.451,-1.22c-0.203,-0.261 -0.374,-0.548 -0.495,-0.856c-0.069,-0.174 -0.117,-0.352 -0.156,-0.534c-0.037,-0.167 -0.069,-0.335 -0.096,-0.503c-0.02,-0.127 -0.038,-0.253 -0.051,-0.38c-0.082,-0.773 -0.032,-1.6 0.388,-2.276c0.078,-0.126 0.168,-0.245 0.269,-0.354c0.129,-0.139 0.274,-0.262 0.432,-0.367c0.726,-0.483 1.632,-0.539 2.479,-0.547c0.135,-0.001 0.288,-0.001 0.423,-0.001c0.165,0 0.331,0 0.496,-0.003c0.12,-0.002 0.239,-0.007 0.359,-0.013c0.083,-0.006 0.166,-0.013 0.25,-0.022c0.069,0.663 0.138,1.326 0.207,1.989Z" style="fill:#000;fill-rule:nonzero;"/><path d="M21.876,8.111l0.016,0.11l0.015,0.112l0.013,0.112l0.013,0.112l0.011,0.112l0.011,0.113l0.009,0.114l0.009,0.114l0.007,0.114l0.006,0.114l0.005,0.115l0.004,0.115l0.003,0.116l0.001,0.116l0.001,0.116l-0.001,0.125l-0.002,0.125l-0.003,0.124l-0.004,0.124l-0.006,0.123l-0.007,0.123l-0.009,0.123l-0.009,0.122l-0.011,0.122l-0.012,0.121l-0.014,0.121l-0.014,0.121l-0.016,0.12l-0.017,0.119l-0.018,0.119l-0.02,0.118l-0.02,0.118l-0.022,0.118l-0.023,0.117l-0.024,0.116l-0.025,0.116l-0.027,0.115l-0.027,0.114l-0.029,0.114l-0.03,0.114l-0.031,0.112l-0.032,0.113l-0.033,0.111l-0.034,0.111l-0.035,0.11l-0.037,0.11l-0.037,0.109l-0.039,0.108l-0.039,0.108l-0.041,0.107l-0.041,0.106l-0.043,0.105l-0.044,0.105l-0.044,0.104l-0.046,0.103l-0.047,0.103l-0.048,0.102l-0.048,0.101l-0.05,0.1l-0.05,0.099l-0.052,0.099l-0.053,0.098l-0.053,0.097l-0.054,0.096l-0.056,0.095l-0.056,0.095l-0.057,0.093l-0.058,0.093l-0.059,0.092l-0.06,0.091l-0.061,0.09l-0.061,0.09l-0.063,0.088l-0.063,0.087l-0.064,0.087l-0.065,0.085l-0.066,0.085l-0.067,0.084l-0.067,0.082l-0.069,0.082l-0.069,0.081l-0.069,0.079l-0.071,0.079l-0.072,0.078l-0.072,0.076l-0.073,0.076l-0.073,0.074l-0.075,0.074l-0.075,0.072l-0.076,0.072l-0.077,0.07l-0.077,0.069l-0.078,0.068l-0.079,0.067l-0.079,0.066l-0.081,0.065l-0.08,0.063l-0.082,0.063l-0.082,0.061l-0.083,0.06l-0.083,0.059l-0.084,0.058l-0.085,0.056l-0.085,0.056l-0.086,0.054l-0.087,0.053l-0.087,0.051l-0.088,0.051l-0.088,0.049l-0.089,0.048l-0.089,0.046l-0.09,0.046l-0.091,0.044l-0.091,0.043l-0.092,0.041l-0.092,0.04l-0.092,0.039l-0.093,0.037l-0.094,0.036l-0.094,0.035l-0.095,0.033l-0.095,0.032l-0.096,0.031l-0.096,0.029l-0.096,0.028l-0.097,0.026l-0.098,0.025l-0.097,0.024l-0.099,0.022l-0.098,0.02l-0.099,0.019l-0.1,0.018l-0.1,0.016l-0.1,0.015l-0.101,0.013l-0.101,0.012l-0.101,0.01l-0.102,0.008l-0.102,0.007l-0.102,0.006l-0.103,0.004l-0.103,0.002l-0.103,0.001l-0.103,-0.001l-0.103,-0.002l-0.103,-0.004l-0.102,-0.006l-0.102,-0.007l-0.102,-0.008l-0.101,-0.01l-0.101,-0.012l-0.101,-0.013l-0.1,-0.015l-0.1,-0.016l-0.1,-0.018l-0.099,-0.019l-0.098,-0.02l-0.099,-0.022l-0.097,-0.024l-0.098,-0.025l-0.097,-0.026l-0.096,-0.028l-0.096,-0.029l-0.096,-0.031l-0.095,-0.032l-0.095,-0.033l-0.094,-0.035l-0.094,-0.036l-0.093,-0.037l-0.092,-0.039l-0.092,-0.04l-0.092,-0.041l-0.091,-0.043l-0.091,-0.044l-0.09,-0.046l-0.089,-0.046l-0.089,-0.048l-0.088,-0.049l-0.088,-0.051l-0.087,-0.051l-0.087,-0.053l-0.086,-0.054l-0.085,-0.056l-0.085,-0.056l-0.084,-0.058l-0.083,-0.059l-0.083,-0.06l-0.082,-0.061l-0.082,-0.063l-0.08,-0.063l-0.081,-0.065l-0.079,-0.066l-0.079,-0.067l-0.078,-0.068l-0.077,-0.069l-0.077,-0.07l-0.076,-0.072l-0.075,-0.072l-0.075,-0.074l-0.073,-0.074l-0.073,-0.076l-0.072,-0.076l-0.072,-0.078l-0.071,-0.079l-0.069,-0.079l-0.069,-0.081l-0.069,-0.082l-0.067,-0.082l-0.067,-0.084l-0.066,-0.085l-0.065,-0.085l-0.064,-0.087l-0.063,-0.087l-0.063,-0.088l-0.061,-0.09l-0.061,-0.09l-0.06,-0.091l-0.059,-0.092l-0.058,-0.093l-0.057,-0.093l-0.056,-0.095l-0.056,-0.095l-0.054,-0.096l-0.053,-0.097l-0.053,-0.098l-0.052,-0.099l-0.05,-0.099l-0.05,-0.1l-0.048,-0.101l-0.048,-0.102l-0.047,-0.103l-0.046,-0.103l-0.044,-0.104l-0.044,-0.105l-0.043,-0.105l-0.041,-0.106l-0.041,-0.107l-0.039,-0.108l-0.039,-0.108l-0.037,-0.109l-0.037,-0.11l-0.035,-0.11l-0.034,-0.111l-0.033,-0.111l-0.032,-0.113l-0.031,-0.112l-0.03,-0.114l-0.029,-0.114l-0.027,-0.114l-0.027,-0.115l-0.025,-0.116l-0.024,-0.116l-0.023,-0.117l-0.022,-0.118l-0.02,-0.118l-0.02,-0.118l-0.018,-0.119l-0.017,-0.119l-0.016,-0.12l-0.014,-0.121l-0.014,-0.121l-0.012,-0.121l-0.011,-0.122l-0.009,-0.122l-0.009,-0.123l-0.007,-0.123l-0.006,-0.123l-0.004,-0.124l-0.003,-0.124l-0.002,-0.125l-0.001,-0.125l0.001,-0.116l0.001,-0.116l0.003,-0.116l0.004,-0.115l0.005,-0.115l0.006,-0.114l0.007,-0.114l0.009,-0.114l0.009,-0.114l0.011,-0.113l0.011,-0.112l0.013,-0.112l0.013,-0.112l0.015,-0.112l0.016,-0.11l0.017,-0.111l15.718,0l0.017,0.111ZM8.002,10l0,0.024l0.003,0.103l0.004,0.103l0.004,0.102l0.006,0.102l0.007,0.102l0.008,0.103l0.009,0.1l0.011,0.101l0.01,0.1l0.012,0.099l0.014,0.099l0.014,0.099l0.015,0.098l0.016,0.098l0.017,0.097l0.017,0.096l0.02,0.097l0.02,0.097l0.02,0.093l0.022,0.095l0.022,0.095l0.024,0.092l0.025,0.095l0.025,0.092l0.026,0.091l0.027,0.091l0.028,0.092l0.029,0.09l0.03,0.089l0.03,0.088l0.031,0.088l0.033,0.088l0.033,0.088l0.034,0.086l0.034,0.085l0.036,0.085l0.036,0.085l0.037,0.083l0.037,0.083l0.039,0.082l0.04,0.082l0.039,0.081l0.041,0.079l0.041,0.079l0.042,0.079l0.044,0.078l0.043,0.076l0.044,0.077l0.045,0.075l0.046,0.075l0.046,0.074l0.047,0.073l0.047,0.072l0.048,0.071l0.049,0.072l0.049,0.069l0.05,0.069l0.051,0.069l0.05,0.065l0.052,0.067l0.053,0.066l0.052,0.064l0.053,0.064l0.055,0.064l0.053,0.06l0.055,0.061l0.056,0.061l0.055,0.059l0.057,0.059l0.056,0.056l0.057,0.056l0.058,0.057l0.058,0.054l0.058,0.053l0.059,0.053l0.059,0.052l0.06,0.051l0.06,0.049l0.06,0.049l0.062,0.048l0.06,0.047l0.061,0.045l0.062,0.045l0.062,0.044l0.062,0.043l0.064,0.042l0.063,0.041l0.063,0.039l0.062,0.039l0.065,0.038l0.064,0.037l0.065,0.036l0.065,0.035l0.064,0.034l0.065,0.032l0.065,0.032l0.066,0.031l0.067,0.03l0.066,0.028l0.066,0.028l0.067,0.027l0.066,0.025l0.068,0.025l0.067,0.024l0.068,0.023l0.066,0.021l0.069,0.021l0.068,0.02l0.068,0.018l0.069,0.018l0.069,0.016l0.069,0.016l0.069,0.014l0.069,0.014l0.07,0.012l0.07,0.011l0.07,0.011l0.071,0.009l0.071,0.008l0.071,0.007l0.071,0.006l0.071,0.005l0.072,0.004l0.072,0.003l0.072,0.001l0.073,0.001l0.073,-0.001l0.072,-0.001l0.072,-0.003l0.072,-0.004l0.071,-0.005l0.071,-0.006l0.071,-0.007l0.071,-0.008l0.071,-0.009l0.07,-0.011l0.07,-0.011l0.07,-0.012l0.069,-0.014l0.069,-0.014l0.069,-0.016l0.069,-0.016l0.069,-0.018l0.068,-0.018l0.068,-0.02l0.069,-0.021l0.066,-0.021l0.068,-0.023l0.067,-0.024l0.068,-0.025l0.066,-0.025l0.067,-0.027l0.066,-0.028l0.066,-0.028l0.067,-0.03l0.066,-0.031l0.065,-0.032l0.065,-0.032l0.064,-0.034l0.065,-0.035l0.065,-0.036l0.064,-0.037l0.065,-0.038l0.062,-0.039l0.063,-0.039l0.063,-0.041l0.064,-0.042l0.062,-0.043l0.062,-0.044l0.062,-0.045l0.061,-0.045l0.06,-0.047l0.062,-0.048l0.06,-0.049l0.06,-0.049l0.06,-0.051l0.059,-0.052l0.059,-0.053l0.058,-0.053l0.058,-0.054l0.058,-0.057l0.057,-0.056l0.056,-0.056l0.057,-0.059l0.055,-0.059l0.056,-0.061l0.055,-0.061l0.053,-0.06l0.055,-0.064l0.053,-0.064l0.052,-0.064l0.053,-0.066l0.052,-0.067l0.05,-0.065l0.051,-0.069l0.05,-0.069l0.049,-0.069l0.049,-0.072l0.048,-0.071l0.047,-0.072l0.047,-0.073l0.046,-0.074l0.046,-0.075l0.045,-0.075l0.044,-0.077l0.043,-0.076l0.044,-0.078l0.042,-0.079l0.041,-0.079l0.041,-0.079l0.039,-0.081l0.04,-0.082l0.039,-0.082l0.037,-0.083l0.037,-0.083l0.036,-0.085l0.036,-0.085l0.034,-0.085l0.034,-0.086l0.033,-0.088l0.033,-0.088l0.031,-0.088l0.03,-0.088l0.03,-0.089l0.029,-0.09l0.028,-0.092l0.027,-0.091l0.026,-0.091l0.025,-0.092l0.025,-0.095l0.024,-0.092l0.022,-0.095l0.022,-0.095l0.02,-0.093l0.02,-0.097l0.02,-0.097l0.017,-0.096l0.017,-0.097l0.016,-0.098l0.015,-0.098l0.014,-0.099l0.014,-0.099l0.012,-0.099l0.01,-0.1l0.011,-0.101l0.009,-0.1l0.008,-0.103l0.007,-0.102l0.006,-0.102l0.004,-0.102l0.004,-0.103l0.003,-0.103l0,-0.024l-11.996,0Z" style="fill:#000;"/></g></svg>