<?xml version="1.0" encoding="UTF-8" standalone="no"?><!DOCTYPE svg PUBLIC "-//W3C//DTD SVG 1.1//EN" "http://www.w3.org/Graphics/SVG/1.1/DTD/svg11.dtd"><svg width="100%" height="100%" viewBox="0 0 24 24" version="1.1" xmlns="http://www.w3.org/2000/svg" xmlns:xlink="http://www.w3.org/1999/xlink" xml:space="preserve" style="fill-rule:evenodd;clip-rule:evenodd;stroke-linejoin:round;stroke-miterlimit:1.41421;"><g id="cup_takeaway"><path d="M17.905,19.29l-0.007,0.046l-0.009,0.045l-0.009,0.045l-0.01,0.045l-0.011,0.044l-0.013,0.044l-0.013,0.044l-0.014,0.043l-0.015,0.042l-0.016,0.042l-0.016,0.042l-0.018,0.041l-0.019,0.04l-0.019,0.04l-0.02,0.04l-0.021,0.039l-0.022,0.038l-0.023,0.038l-0.024,0.037l-0.024,0.037l-0.025,0.036l-0.026,0.035l-0.026,0.035l-0.028,0.035l-0.028,0.033l-0.029,0.033l-0.029,0.033l-0.03,0.031l-0.031,0.031l-0.031,0.031l-0.033,0.029l-0.032,0.029l-0.034,0.029l-0.034,0.027l-0.034,0.027l-0.035,0.026l-0.036,0.025l-0.036,0.024l-0.037,0.024l-0.038,0.023l-0.038,0.022l-0.038,0.021l-0.039,0.021l-0.039,0.019l-0.04,0.019l-0.04,0.018l-0.041,0.017l-0.041,0.016l-0.042,0.015l-0.042,0.014l-0.042,0.014l-0.043,0.012l-0.043,0.012l-0.044,0.011l-0.044,0.009l-0.044,0.009l-0.044,0.008l-0.045,0.006l-0.045,0.006l-0.046,0.005l-0.045,0.003l-0.046,0.003l-0.047,0.001l-0.046,0.001l-7.852,0l-0.046,-0.001l-0.047,-0.001l-0.046,-0.003l-0.045,-0.003l-0.046,-0.005l-0.045,-0.006l-0.045,-0.006l-0.044,-0.008l-0.044,-0.009l-0.044,-0.009l-0.044,-0.011l-0.043,-0.012l-0.043,-0.012l-0.042,-0.014l-0.042,-0.014l-0.042,-0.015l-0.041,-0.016l-0.041,-0.017l-0.04,-0.018l-0.04,-0.019l-0.039,-0.019l-0.039,-0.021l-0.038,-0.021l-0.038,-0.022l-0.038,-0.023l-0.037,-0.024l-0.036,-0.024l-0.036,-0.025l-0.035,-0.026l-0.034,-0.027l-0.034,-0.027l-0.034,-0.029l-0.032,-0.029l-0.033,-0.029l-0.031,-0.031l-0.031,-0.031l-0.03,-0.031l-0.029,-0.033l-0.029,-0.033l-0.028,-0.033l-0.028,-0.035l-0.026,-0.035l-0.026,-0.035l-0.025,-0.036l-0.024,-0.037l-0.024,-0.037l-0.023,-0.038l-0.022,-0.038l-0.021,-0.039l-0.02,-0.04l-0.019,-0.04l-0.019,-0.04l-0.018,-0.041l-0.016,-0.042l-0.016,-0.042l-0.015,-0.042l-0.014,-0.043l-0.013,-0.044l-0.013,-0.044l-0.011,-0.044l-0.01,-0.045l-0.009,-0.045l-0.009,-0.045l-0.007,-0.046l-2.095,-14.29l16,0l-2.095,14.29ZM6.315,7l1.758,11.99l0.001,0.01l0.012,0l7.828,0l0.012,0l0.001,-0.01l1.758,-11.99l-11.37,0Z" style="fill:#000;"/><rect x="3" y="5" width="18" height="2" style="fill:#000;"/><path d="M17,3l-10,0l-2,2l14,0l-2,-2Z" style="fill:#000;"/></g></svg>