<?xml version="1.0" encoding="UTF-8" standalone="no"?><!DOCTYPE svg PUBLIC "-//W3C//DTD SVG 1.1//EN" "http://www.w3.org/Graphics/SVG/1.1/DTD/svg11.dtd"><svg width="100%" height="100%" viewBox="0 0 24 24" version="1.1" xmlns="http://www.w3.org/2000/svg" xmlns:xlink="http://www.w3.org/1999/xlink" xml:space="preserve" style="fill-rule:evenodd;clip-rule:evenodd;stroke-linejoin:round;stroke-miterlimit:1.41421;"><g id="cut"><path d="M6.856,2.015l0.096,0.003l0.095,0.006l0.096,0.008l0.096,0.01l0.095,0.013l0.095,0.015l0.095,0.017l0.094,0.019l0.094,0.022l0.094,0.024l0.093,0.026l0.092,0.029l0.092,0.031l0.091,0.033l0.091,0.035l0.09,0.038l0.089,0.04l0.089,0.042l0.087,0.045l0.087,0.047l0.085,0.049l0.085,0.051l0.084,0.054l0.082,0.056l0.082,0.059l0.08,0.06l0.079,0.063l0.078,0.065l0.077,0.068l0.075,0.069l0.074,0.072l0.072,0.074l0.07,0.076l0.067,0.076l0.065,0.078l0.063,0.079l0.061,0.081l0.058,0.081l0.056,0.083l0.054,0.083l0.051,0.085l0.05,0.086l0.046,0.086l0.045,0.088l0.042,0.088l0.04,0.089l0.038,0.09l0.036,0.091l0.033,0.091l0.031,0.092l0.028,0.093l0.026,0.093l0.024,0.093l0.022,0.094l0.02,0.095l0.017,0.094l0.015,0.095l0.012,0.096l0.011,0.095l0.008,0.096l0.005,0.096l0.004,0.096l0.001,0.096l-0.001,0.096l-0.004,0.096l-0.005,0.096l-0.008,0.095l-0.011,0.096l-0.012,0.095l-0.015,0.095l-0.017,0.095l-0.02,0.094l-0.022,0.094l-0.024,0.094l-0.026,0.093l-0.028,0.092l-0.031,0.092l-0.033,0.092l-0.036,0.09l-0.038,0.09l-0.04,0.089l-0.042,0.089l-0.045,0.087l-0.046,0.087l-0.05,0.086l-0.051,0.084l-0.054,0.084l-0.056,0.083l-0.058,0.081l-0.061,0.08l-0.063,0.08l-0.065,0.078l-0.067,0.076l-0.07,0.075l-0.072,0.074l-0.074,0.072l-0.075,0.07l-0.077,0.067l-0.078,0.066l-0.079,0.063l-0.08,0.06l-0.082,0.058l-0.082,0.056l-0.084,0.054l-0.085,0.052l-0.085,0.049l-0.087,0.047l-0.087,0.044l-0.089,0.043l-0.089,0.04l-0.09,0.037l-0.091,0.036l-0.091,0.033l-0.092,0.031l-0.092,0.028l-0.093,0.027l-0.094,0.024l-0.094,0.021l-0.094,0.02l-0.095,0.017l-0.095,0.015l-0.095,0.012l-0.096,0.011l-0.096,0.008l-0.095,0.005l-0.096,0.004l-0.096,0.001l-0.096,-0.001l-0.096,-0.004l-0.096,-0.005l-0.096,-0.008l-0.095,-0.011l-0.096,-0.012l-0.095,-0.015l-0.095,-0.017l-0.094,-0.02l-0.094,-0.021l-0.093,-0.024l-0.093,-0.027l-0.093,-0.028l-0.092,-0.031l-0.091,-0.033l-0.091,-0.036l-0.09,-0.037l-0.089,-0.04l-0.088,-0.043l-0.088,-0.044l-0.086,-0.047l-0.086,-0.049l-0.085,-0.052l-0.084,-0.054l-0.082,-0.056l-0.082,-0.058l-0.08,-0.06l-0.079,-0.063l-0.078,-0.066l-0.077,-0.067l-0.075,-0.07l-0.074,-0.072l-0.072,-0.074l-0.07,-0.075l-0.067,-0.076l-0.065,-0.078l-0.063,-0.08l-0.061,-0.08l-0.058,-0.081l-0.056,-0.083l-0.054,-0.084l-0.051,-0.084l-0.049,-0.086l-0.047,-0.087l-0.045,-0.087l-0.042,-0.089l-0.04,-0.089l-0.038,-0.09l-0.035,-0.09l-0.034,-0.092l-0.03,-0.092l-0.029,-0.092l-0.026,-0.093l-0.024,-0.094l-0.022,-0.094l-0.019,-0.094l-0.018,-0.095l-0.014,-0.095l-0.013,-0.095l-0.01,-0.096l-0.008,-0.095l-0.006,-0.096l-0.003,-0.096l-0.002,-0.096l0.002,-0.096l0.003,-0.096l0.006,-0.096l0.008,-0.096l0.01,-0.095l0.013,-0.096l0.014,-0.095l0.018,-0.094l0.019,-0.095l0.022,-0.094l0.024,-0.093l0.026,-0.093l0.029,-0.093l0.03,-0.092l0.034,-0.091l0.035,-0.091l0.038,-0.09l0.04,-0.089l0.042,-0.088l0.045,-0.088l0.047,-0.086l0.049,-0.086l0.051,-0.085l0.054,-0.083l0.056,-0.083l0.058,-0.081l0.061,-0.081l0.063,-0.079l0.065,-0.078l0.067,-0.076l0.07,-0.076l0.072,-0.074l0.074,-0.072l0.075,-0.069l0.077,-0.068l0.078,-0.065l0.079,-0.063l0.08,-0.06l0.082,-0.059l0.082,-0.056l0.084,-0.054l0.085,-0.051l0.086,-0.049l0.086,-0.047l0.088,-0.045l0.088,-0.042l0.089,-0.04l0.09,-0.038l0.091,-0.035l0.091,-0.033l0.092,-0.031l0.093,-0.029l0.093,-0.026l0.093,-0.024l0.094,-0.022l0.094,-0.019l0.095,-0.017l0.095,-0.015l0.096,-0.013l0.095,-0.01l0.096,-0.008l0.096,-0.006l0.096,-0.003l0.096,-0.001l0.096,0.001ZM6.712,4.014l-0.049,0.002l-0.049,0.003l-0.047,0.004l-0.049,0.005l-0.048,0.006l-0.046,0.008l-0.049,0.009l-0.048,0.009l-0.046,0.011l-0.046,0.012l-0.047,0.013l-0.047,0.015l-0.045,0.015l-0.046,0.017l-0.045,0.017l-0.044,0.019l-0.045,0.02l-0.044,0.021l-0.043,0.022l-0.042,0.023l-0.043,0.024l-0.042,0.026l-0.042,0.027l-0.041,0.028l-0.041,0.028l-0.04,0.031l-0.039,0.031l-0.039,0.033l-0.039,0.034l-0.038,0.035l-0.037,0.036l-0.037,0.038l-0.035,0.038l-0.035,0.039l-0.032,0.039l-0.032,0.04l-0.03,0.039l-0.029,0.041l-0.028,0.041l-0.026,0.042l-0.026,0.042l-0.024,0.043l-0.023,0.042l-0.022,0.043l-0.022,0.045l-0.02,0.044l-0.018,0.045l-0.018,0.044l-0.016,0.046l-0.016,0.046l-0.014,0.046l-0.013,0.047l-0.012,0.046l-0.011,0.047l-0.01,0.048l-0.008,0.047l-0.008,0.048l-0.006,0.048l-0.005,0.048l-0.004,0.048l-0.003,0.048l-0.002,0.049l0,0.048l0,0.048l0.002,0.048l0.003,0.049l0.004,0.048l0.005,0.048l0.006,0.048l0.008,0.048l0.008,0.047l0.01,0.048l0.011,0.046l0.012,0.047l0.013,0.047l0.014,0.046l0.016,0.046l0.016,0.045l0.018,0.045l0.018,0.044l0.02,0.045l0.021,0.044l0.023,0.043l0.023,0.044l0.024,0.042l0.026,0.042l0.026,0.041l0.028,0.042l0.029,0.04l0.03,0.04l0.032,0.04l0.032,0.038l0.035,0.039l0.035,0.039l0.037,0.037l0.037,0.037l0.038,0.035l0.039,0.034l0.039,0.032l0.039,0.032l0.04,0.03l0.041,0.029l0.041,0.028l0.042,0.027l0.042,0.026l0.042,0.023l0.042,0.023l0.045,0.023l0.044,0.021l0.043,0.02l0.045,0.019l0.045,0.017l0.045,0.017l0.047,0.015l0.046,0.014l0.046,0.013l0.047,0.012l0.047,0.011l0.047,0.01l0.048,0.009l0.048,0.007l0.048,0.007l0.048,0.005l0.047,0.004l0.048,0.003l0.05,0.001l0.048,0.001l0.048,-0.001l0.049,-0.001l0.048,-0.003l0.048,-0.004l0.047,-0.005l0.048,-0.007l0.049,-0.007l0.047,-0.009l0.047,-0.01l0.048,-0.011l0.046,-0.012l0.046,-0.013l0.046,-0.014l0.047,-0.015l0.045,-0.017l0.045,-0.017l0.045,-0.019l0.043,-0.02l0.044,-0.021l0.045,-0.023l0.042,-0.023l0.042,-0.023l0.043,-0.026l0.041,-0.027l0.041,-0.028l0.041,-0.029l0.04,-0.03l0.039,-0.031l0.04,-0.033l0.038,-0.034l0.038,-0.036l0.038,-0.036l0.036,-0.037l0.035,-0.038l0.035,-0.039l0.032,-0.039l0.032,-0.04l0.03,-0.04l0.029,-0.04l0.028,-0.042l0.027,-0.041l0.025,-0.043l0.025,-0.042l0.023,-0.043l0.022,-0.043l0.021,-0.044l0.02,-0.044l0.018,-0.045l0.018,-0.045l0.017,-0.045l0.015,-0.046l0.014,-0.046l0.013,-0.047l0.012,-0.047l0.011,-0.046l0.01,-0.048l0.009,-0.048l0.007,-0.047l0.006,-0.048l0.005,-0.048l0.005,-0.048l0.002,-0.049l0.002,-0.048l0.001,-0.048l-0.001,-0.049l-0.002,-0.048l-0.002,-0.048l-0.005,-0.048l-0.005,-0.049l-0.006,-0.048l-0.007,-0.047l-0.009,-0.047l-0.01,-0.048l-0.011,-0.047l-0.012,-0.047l-0.013,-0.046l-0.014,-0.046l-0.015,-0.046l-0.017,-0.046l-0.018,-0.044l-0.018,-0.045l-0.02,-0.044l-0.021,-0.045l-0.022,-0.043l-0.023,-0.042l-0.025,-0.043l-0.025,-0.042l-0.027,-0.042l-0.028,-0.041l-0.029,-0.04l-0.03,-0.04l-0.031,-0.04l-0.033,-0.039l-0.035,-0.039l-0.035,-0.038l-0.037,-0.038l-0.037,-0.036l-0.038,-0.035l-0.039,-0.034l-0.039,-0.033l-0.039,-0.031l-0.04,-0.03l-0.04,-0.029l-0.042,-0.029l-0.041,-0.026l-0.042,-0.025l-0.043,-0.025l-0.043,-0.023l-0.043,-0.022l-0.044,-0.021l-0.045,-0.02l-0.044,-0.019l-0.045,-0.017l-0.046,-0.017l-0.045,-0.015l-0.047,-0.015l-0.047,-0.013l-0.045,-0.012l-0.047,-0.011l-0.048,-0.009l-0.049,-0.009l-0.046,-0.008l-0.048,-0.006l-0.048,-0.005l-0.048,-0.004l-0.049,-0.003l-0.048,-0.002l-0.048,0l-0.048,0Z" style="fill:#000;"/><path d="M7.086,13.996l0.096,0.004l0.095,0.006l0.096,0.008l0.096,0.01l0.095,0.012l0.095,0.015l0.095,0.017l0.094,0.02l0.094,0.022l0.094,0.024l0.093,0.026l0.092,0.028l0.092,0.031l0.091,0.033l0.091,0.036l0.09,0.038l0.089,0.04l0.089,0.042l0.087,0.045l0.087,0.046l0.085,0.05l0.085,0.051l0.084,0.054l0.082,0.056l0.082,0.058l0.08,0.061l0.079,0.063l0.078,0.065l0.077,0.067l0.075,0.07l0.074,0.072l0.072,0.074l0.07,0.075l0.067,0.077l0.065,0.078l0.063,0.079l0.061,0.08l0.058,0.082l0.056,0.082l0.054,0.084l0.051,0.085l0.05,0.085l0.046,0.087l0.045,0.087l0.042,0.089l0.04,0.089l0.038,0.09l0.036,0.091l0.033,0.091l0.031,0.092l0.028,0.092l0.026,0.093l0.024,0.094l0.022,0.094l0.02,0.094l0.017,0.095l0.015,0.095l0.012,0.095l0.011,0.096l0.008,0.096l0.005,0.096l0.004,0.095l0.001,0.096l-0.001,0.096l-0.004,0.096l-0.005,0.096l-0.008,0.096l-0.011,0.095l-0.012,0.096l-0.015,0.095l-0.017,0.095l-0.02,0.094l-0.022,0.094l-0.024,0.094l-0.026,0.093l-0.028,0.092l-0.031,0.092l-0.033,0.091l-0.036,0.091l-0.038,0.09l-0.04,0.089l-0.042,0.088l-0.045,0.088l-0.046,0.087l-0.05,0.085l-0.051,0.085l-0.054,0.084l-0.056,0.082l-0.058,0.082l-0.061,0.08l-0.063,0.079l-0.065,0.078l-0.067,0.077l-0.07,0.075l-0.072,0.074l-0.074,0.072l-0.075,0.07l-0.077,0.067l-0.078,0.065l-0.079,0.063l-0.08,0.061l-0.082,0.058l-0.082,0.056l-0.084,0.054l-0.085,0.051l-0.085,0.049l-0.087,0.047l-0.087,0.045l-0.089,0.042l-0.089,0.04l-0.09,0.038l-0.091,0.035l-0.091,0.034l-0.092,0.03l-0.092,0.029l-0.093,0.026l-0.094,0.024l-0.094,0.022l-0.094,0.019l-0.095,0.018l-0.095,0.015l-0.095,0.012l-0.096,0.01l-0.096,0.008l-0.095,0.006l-0.096,0.004l-0.096,0.001l-0.096,-0.001l-0.096,-0.004l-0.096,-0.006l-0.096,-0.008l-0.095,-0.01l-0.096,-0.012l-0.095,-0.015l-0.095,-0.018l-0.094,-0.019l-0.094,-0.022l-0.093,-0.024l-0.094,-0.026l-0.092,-0.029l-0.092,-0.03l-0.091,-0.034l-0.091,-0.035l-0.09,-0.038l-0.089,-0.04l-0.088,-0.042l-0.088,-0.045l-0.087,-0.047l-0.085,-0.049l-0.085,-0.051l-0.084,-0.054l-0.082,-0.056l-0.082,-0.058l-0.08,-0.061l-0.079,-0.063l-0.078,-0.065l-0.077,-0.067l-0.075,-0.07l-0.074,-0.072l-0.072,-0.074l-0.07,-0.075l-0.067,-0.077l-0.065,-0.078l-0.063,-0.079l-0.061,-0.08l-0.058,-0.082l-0.056,-0.082l-0.054,-0.084l-0.051,-0.085l-0.049,-0.085l-0.047,-0.087l-0.045,-0.088l-0.042,-0.088l-0.04,-0.089l-0.038,-0.09l-0.035,-0.091l-0.034,-0.091l-0.03,-0.092l-0.029,-0.092l-0.026,-0.093l-0.024,-0.094l-0.022,-0.094l-0.019,-0.094l-0.018,-0.095l-0.014,-0.095l-0.013,-0.096l-0.01,-0.095l-0.008,-0.096l-0.006,-0.096l-0.003,-0.096l-0.002,-0.096l0.002,-0.096l0.003,-0.095l0.006,-0.096l0.008,-0.096l0.01,-0.096l0.013,-0.095l0.014,-0.095l0.018,-0.095l0.019,-0.094l0.022,-0.094l0.024,-0.094l0.026,-0.093l0.029,-0.092l0.03,-0.092l0.034,-0.091l0.035,-0.091l0.038,-0.09l0.04,-0.089l0.042,-0.089l0.045,-0.087l0.047,-0.087l0.049,-0.085l0.051,-0.085l0.054,-0.084l0.056,-0.082l0.058,-0.082l0.061,-0.08l0.063,-0.079l0.065,-0.078l0.067,-0.077l0.07,-0.075l0.072,-0.074l0.074,-0.072l0.075,-0.07l0.077,-0.067l0.078,-0.065l0.079,-0.063l0.08,-0.061l0.082,-0.058l0.082,-0.056l0.084,-0.054l0.085,-0.051l0.085,-0.05l0.087,-0.046l0.088,-0.045l0.088,-0.042l0.089,-0.04l0.09,-0.038l0.091,-0.036l0.091,-0.033l0.092,-0.031l0.092,-0.028l0.094,-0.026l0.093,-0.024l0.094,-0.022l0.094,-0.02l0.095,-0.017l0.095,-0.015l0.096,-0.012l0.095,-0.01l0.096,-0.008l0.096,-0.006l0.096,-0.004l0.096,-0.001l0.096,0.001ZM6.942,15.996l-0.05,0.002l-0.048,0.003l-0.047,0.004l-0.048,0.005l-0.048,0.006l-0.048,0.008l-0.048,0.008l-0.047,0.01l-0.047,0.011l-0.047,0.012l-0.046,0.013l-0.046,0.014l-0.047,0.016l-0.045,0.016l-0.045,0.018l-0.044,0.018l-0.044,0.02l-0.044,0.021l-0.044,0.022l-0.043,0.024l-0.043,0.024l-0.041,0.026l-0.042,0.026l-0.041,0.028l-0.041,0.029l-0.04,0.03l-0.039,0.032l-0.039,0.032l-0.039,0.035l-0.038,0.035l-0.037,0.036l-0.037,0.038l-0.036,0.038l-0.033,0.039l-0.033,0.039l-0.031,0.039l-0.031,0.04l-0.029,0.041l-0.028,0.041l-0.027,0.042l-0.025,0.041l-0.024,0.043l-0.024,0.043l-0.022,0.043l-0.02,0.044l-0.02,0.044l-0.019,0.045l-0.018,0.045l-0.016,0.046l-0.016,0.045l-0.014,0.047l-0.013,0.046l-0.012,0.047l-0.011,0.047l-0.01,0.047l-0.008,0.047l-0.008,0.049l-0.006,0.047l-0.005,0.048l-0.004,0.049l-0.003,0.048l-0.002,0.048l0,0.048l0,0.049l0.002,0.048l0.003,0.048l0.004,0.049l0.005,0.048l0.006,0.047l0.008,0.048l0.008,0.048l0.01,0.047l0.011,0.047l0.012,0.047l0.013,0.046l0.014,0.046l0.016,0.046l0.016,0.045l0.018,0.046l0.019,0.045l0.019,0.044l0.021,0.043l0.022,0.044l0.024,0.043l0.024,0.042l0.026,0.042l0.026,0.042l0.028,0.041l0.029,0.041l0.03,0.04l0.032,0.039l0.033,0.039l0.034,0.039l0.035,0.038l0.037,0.038l0.037,0.036l0.038,0.035l0.039,0.035l0.039,0.032l0.039,0.032l0.04,0.03l0.041,0.029l0.041,0.028l0.042,0.026l0.041,0.026l0.044,0.024l0.042,0.024l0.044,0.022l0.043,0.021l0.045,0.02l0.044,0.018l0.045,0.018l0.046,0.017l0.046,0.015l0.046,0.014l0.046,0.013l0.047,0.012l0.046,0.011l0.048,0.01l0.049,0.008l0.046,0.008l0.048,0.006l0.049,0.005l0.048,0.004l0.048,0.003l0.047,0.002l0.05,0l0.049,0l0.047,-0.002l0.048,-0.003l0.049,-0.004l0.048,-0.005l0.048,-0.006l0.047,-0.008l0.048,-0.008l0.048,-0.01l0.047,-0.011l0.046,-0.012l0.046,-0.013l0.046,-0.014l0.046,-0.015l0.046,-0.017l0.045,-0.018l0.044,-0.018l0.045,-0.021l0.044,-0.02l0.043,-0.022l0.043,-0.024l0.043,-0.024l0.041,-0.026l0.042,-0.026l0.041,-0.028l0.041,-0.029l0.04,-0.03l0.039,-0.032l0.039,-0.032l0.039,-0.035l0.038,-0.035l0.037,-0.036l0.037,-0.038l0.036,-0.038l0.034,-0.039l0.032,-0.039l0.032,-0.04l0.03,-0.039l0.029,-0.041l0.028,-0.041l0.026,-0.041l0.026,-0.042l0.025,-0.043l0.023,-0.043l0.022,-0.044l0.021,-0.044l0.02,-0.044l0.018,-0.044l0.018,-0.045l0.016,-0.045l0.016,-0.047l0.014,-0.046l0.013,-0.046l0.012,-0.047l0.011,-0.047l0.01,-0.047l0.008,-0.048l0.008,-0.048l0.006,-0.048l0.005,-0.048l0.004,-0.047l0.003,-0.049l0.002,-0.049l0.001,-0.048l-0.001,-0.048l-0.002,-0.048l-0.003,-0.049l-0.004,-0.048l-0.005,-0.047l-0.006,-0.048l-0.008,-0.049l-0.008,-0.047l-0.01,-0.047l-0.011,-0.047l-0.012,-0.047l-0.013,-0.046l-0.014,-0.047l-0.016,-0.046l-0.016,-0.045l-0.018,-0.045l-0.018,-0.044l-0.02,-0.045l-0.021,-0.044l-0.022,-0.043l-0.024,-0.043l-0.024,-0.043l-0.025,-0.041l-0.027,-0.042l-0.028,-0.041l-0.029,-0.041l-0.03,-0.04l-0.032,-0.04l-0.032,-0.038l-0.034,-0.038l-0.035,-0.039l-0.038,-0.038l-0.037,-0.036l-0.038,-0.036l-0.039,-0.034l-0.039,-0.032l-0.039,-0.032l-0.04,-0.03l-0.041,-0.029l-0.041,-0.028l-0.042,-0.027l-0.041,-0.025l-0.043,-0.024l-0.043,-0.024l-0.043,-0.022l-0.045,-0.021l-0.044,-0.02l-0.044,-0.018l-0.045,-0.018l-0.045,-0.016l-0.047,-0.016l-0.046,-0.014l-0.046,-0.013l-0.046,-0.012l-0.048,-0.011l-0.047,-0.01l-0.047,-0.008l-0.049,-0.008l-0.048,-0.006l-0.047,-0.005l-0.048,-0.004l-0.048,-0.003l-0.049,-0.002l-0.048,-0.001l-0.048,0.001Z" style="fill:#000;"/><circle cx="12.025" cy="11.938" r="1" style="fill:#fff;"/><path d="M22,19.425l0,2.575l-1.667,0l-12.774,-12.773l2.122,-2.121l12.319,12.319Z" style="fill:#000;"/><path d="M12.264,9.697l2.122,2.121l-5.275,5.275l-2.121,-2.121l5.274,-5.275ZM22,4.204l-6.2,6.2l-2.122,-2.121l6.283,-6.283l2.039,0l0,2.204Z" style="fill:#000;"/></g></svg>