<?xml version="1.0" encoding="UTF-8" standalone="no"?><!DOCTYPE svg PUBLIC "-//W3C//DTD SVG 1.1//EN" "http://www.w3.org/Graphics/SVG/1.1/DTD/svg11.dtd"><svg width="100%" height="100%" viewBox="0 0 24 24" version="1.1" xmlns="http://www.w3.org/2000/svg" xmlns:xlink="http://www.w3.org/1999/xlink" xml:space="preserve" style="fill-rule:evenodd;clip-rule:evenodd;stroke-linejoin:round;stroke-miterlimit:1.41421;"><g id="cutlery"><path d="M12,8l-8,0c0,0 0,0.001 0,0.002c0,2.208 1.79,3.998 3.998,3.998c0.001,0 0.003,0 0.004,0c2.208,0 3.998,-1.79 3.998,-3.998c0,-0.001 0,-0.002 0,-0.002Z" style="fill:#000;"/><path d="M9,11l-2,0c0,0 0,8.35 0,10.5c0,0.133 0.053,0.26 0.146,0.354c0.094,0.093 0.221,0.146 0.354,0.146c0.305,0 0.695,0 1,0c0.133,0 0.26,-0.053 0.354,-0.146c0.093,-0.094 0.146,-0.221 0.146,-0.354c0,-2.15 0,-10.5 0,-10.5Z" style="fill:#000;"/><path d="M6,3.463c0,-0.123 -0.049,-0.241 -0.136,-0.327c-0.086,-0.087 -0.204,-0.136 -0.327,-0.136c-0.323,0 -0.751,0 -1.074,0c-0.123,0 -0.241,0.049 -0.327,0.136c-0.087,0.086 -0.136,0.204 -0.136,0.327c0,1.239 0,4.537 0,4.537l2,0c0,0 0,-3.298 0,-4.537Z" style="fill:#000;"/><path d="M9,3.5c0,-0.133 -0.053,-0.26 -0.146,-0.354c-0.094,-0.093 -0.221,-0.146 -0.354,-0.146c-0.305,0 -0.695,0 -1,0c-0.133,0 -0.26,0.053 -0.354,0.146c-0.093,0.094 -0.146,0.221 -0.146,0.354c0,1.266 0,4.5 0,4.5l2,0c0,0 0,-3.234 0,-4.5Z" style="fill:#000;"/><path d="M12,3.463c0,-0.123 -0.049,-0.241 -0.136,-0.327c-0.086,-0.087 -0.204,-0.136 -0.327,-0.136c-0.323,0 -0.751,0 -1.074,0c-0.123,0 -0.241,0.049 -0.327,0.136c-0.087,0.086 -0.136,0.204 -0.136,0.327c0,1.239 0,4.537 0,4.537l2,0c0,0 0,-3.298 0,-4.537Z" style="fill:#000;"/><rect x="16" y="15" width="2" height="7" style="fill:#000;"/><path d="M18,2c0,0 0,0 0,0c-2.451,1.226 -4,3.731 -4,6.472c0,2.053 0,4.303 0,5.553c0,0.258 0.103,0.506 0.286,0.689c0.183,0.183 0.431,0.286 0.689,0.286c1.184,0 3.025,0 3.025,0l0,-13Z" style="fill:#000;"/></g></svg>