<?xml version="1.0" encoding="UTF-8" standalone="no"?><!DOCTYPE svg PUBLIC "-//W3C//DTD SVG 1.1//EN" "http://www.w3.org/Graphics/SVG/1.1/DTD/svg11.dtd"><svg width="100%" height="100%" viewBox="0 0 24 24" version="1.1" xmlns="http://www.w3.org/2000/svg" xmlns:xlink="http://www.w3.org/1999/xlink" xml:space="preserve" style="fill-rule:evenodd;clip-rule:evenodd;stroke-linejoin:round;stroke-miterlimit:1.41421;"><g id="damages"><path d="M8.014,22.038c-1.351,-0.009 -2.702,-0.022 -4.053,-0.039c-0.236,-0.009 -0.467,-0.052 -0.686,-0.139c-0.531,-0.209 -0.957,-0.645 -1.153,-1.181c-0.075,-0.206 -0.113,-0.421 -0.121,-0.64c-0.043,-3.388 -0.047,-6.778 0,-10.166c0.016,-0.401 0.14,-0.787 0.373,-1.114c0.085,-0.119 0.183,-0.226 0.29,-0.325c2.316,-2.035 4.623,-4.085 7.032,-6.008c0.095,-0.072 0.194,-0.138 0.299,-0.193c0.264,-0.139 0.553,-0.214 0.85,-0.231c0.74,-0.025 1.48,-0.002 2.221,-0.002c0.134,0.001 0.267,0.013 0.398,0.04c0.306,0.062 0.589,0.195 0.836,0.384c-0.022,2.379 0.006,1.887 -0.014,2.602c-0.403,-0.337 -0.805,-0.675 -1.204,-1.016c-0.005,-0.004 -0.009,-0.009 -0.016,-0.01c-0.706,-0.024 -1.414,0 -2.12,0c-0.007,0 -0.013,-0.001 -0.019,0.002c-2.41,1.838 -4.608,3.938 -6.912,5.907c-0.005,0.005 -0.014,0.01 -0.015,0.018c-0.137,3.346 0,6.698 0,10.048c0,0.01 -0.002,0.015 0.004,0.021c0.002,0.003 0.004,0.004 0.008,0.004c1.328,0.017 2.655,0.026 3.983,0.03l-0.001,-0.36l0.018,0.015c0,0 0.027,1.647 0.002,2.353Z" style="fill:#000;"/><path d="M16.373,6.91c0.254,0.122 0.502,0.255 0.74,0.405c0.826,0.517 1.548,1.192 2.154,1.952c0.7,0.878 1.252,1.874 1.626,2.932c0.317,0.897 0.506,1.843 0.532,2.795c0.03,1.135 -0.179,2.274 -0.649,3.31c-0.101,0.222 -0.214,0.439 -0.338,0.65c-0.029,0.05 -0.129,0.216 -0.153,0.251c-0.018,0.026 -0.13,0.165 -0.161,0.202c-0.131,0.16 -0.269,0.314 -0.414,0.462c-0.526,0.539 -1.14,0.992 -1.813,1.33c-1.055,0.529 -2.246,0.765 -3.422,0.671c-0.555,-0.045 -1.103,-0.161 -1.628,-0.344c-0.824,-0.287 -1.585,-0.736 -2.247,-1.302c-0.216,-0.185 -0.421,-0.383 -0.615,-0.591c-0.066,-0.07 -0.131,-0.142 -0.195,-0.216c-0.021,-0.024 -0.042,-0.049 -0.063,-0.074c-0.007,-0.007 -0.014,-0.014 -0.02,-0.023c-0.003,-0.005 0.009,0.008 0.013,0.012c-0.042,-0.041 -0.082,-0.082 -0.121,-0.125c-0.548,-0.626 -0.763,-1.475 -0.788,-2.29c-0.041,-1.303 0.394,-2.636 1.246,-3.628c0.286,-0.333 0.617,-0.62 0.981,-0.864l0.96,-0.621l0.687,0.394c-0.019,0.436 -0.047,0.876 -0.056,1.314c-0.001,0.118 0,0.236 0.006,0.353c0.005,0.103 0.014,0.206 0.026,0.309c0.009,0.072 0.02,0.143 0.033,0.215c0.075,0.396 0.23,0.823 0.586,1.05c0.065,0.042 0.136,0.076 0.209,0.103c0.141,0.052 0.29,0.077 0.441,0.085c0.059,-0.072 0.116,-0.147 0.171,-0.223c0.203,-0.285 0.382,-0.586 0.534,-0.902c0.579,-1.2 0.781,-2.55 0.712,-3.873c-0.043,-0.829 -0.192,-1.647 -0.406,-2.449l-0.329,-1.19l0.678,-0.577c0.361,0.166 0.722,0.332 1.083,0.497ZM17.319,10.145c0.047,0.601 0.056,1.204 0.011,1.805c-0.092,1.232 -0.402,2.45 -0.959,3.554c-0.325,0.645 -0.731,1.26 -1.24,1.775l-0.268,0.257c-0.165,0.028 -0.331,0.06 -0.498,0.077c-0.28,0.027 -0.564,0.021 -0.843,-0.016c-0.248,-0.033 -0.492,-0.092 -0.727,-0.179c-0.545,-0.202 -1.023,-0.554 -1.375,-1.017c-0.172,-0.228 -0.309,-0.476 -0.423,-0.737l-0.008,-0.019c-0.168,0.514 -0.233,1.075 -0.139,1.61c0.025,0.14 0.061,0.279 0.117,0.41c0.03,0.071 0.067,0.141 0.116,0.201c0.006,0.007 0.013,0.014 0.019,0.02l0.059,0.055c0.078,0.092 0.155,0.184 0.236,0.274c0.412,0.446 0.885,0.832 1.421,1.12c0.464,0.25 0.97,0.423 1.492,0.503c0.642,0.099 1.303,0.056 1.927,-0.126c0.397,-0.116 0.777,-0.287 1.128,-0.505c0.484,-0.3 0.904,-0.687 1.262,-1.129c0.022,-0.028 0.021,-0.028 0.04,-0.059c0.18,-0.3 0.332,-0.613 0.45,-0.943c0.525,-1.475 0.342,-3.119 -0.238,-4.549c-0.091,-0.224 -0.193,-0.445 -0.303,-0.66c-0.151,-0.294 -0.32,-0.579 -0.505,-0.853c-0.214,-0.316 -0.451,-0.614 -0.707,-0.896l-0.052,-0.057c0.002,0.028 0.005,0.056 0.007,0.084Z" style="fill:#000;fill-rule:nonzero;"/></g></svg>