<?xml version="1.0" encoding="UTF-8" standalone="no"?><!DOCTYPE svg PUBLIC "-//W3C//DTD SVG 1.1//EN" "http://www.w3.org/Graphics/SVG/1.1/DTD/svg11.dtd"><svg width="100%" height="100%" viewBox="0 0 24 24" version="1.1" xmlns="http://www.w3.org/2000/svg" xmlns:xlink="http://www.w3.org/1999/xlink" xml:space="preserve" style="fill-rule:evenodd;clip-rule:evenodd;stroke-linejoin:round;stroke-miterlimit:1.41421;"><g id="damages"><path d="M8.014,22.038c-1.351,-0.009 -2.702,-0.022 -4.053,-0.039c-0.236,-0.009 -0.467,-0.052 -0.686,-0.139c-0.531,-0.209 -0.957,-0.645 -1.153,-1.181c-0.075,-0.206 -0.113,-0.421 -0.121,-0.64c-0.043,-3.388 -0.047,-6.778 0,-10.166c0.016,-0.401 0.14,-0.787 0.373,-1.114c0.085,-0.119 0.183,-0.226 0.29,-0.325c2.316,-2.035 4.623,-4.085 7.032,-6.008c0.095,-0.072 0.194,-0.138 0.299,-0.193c0.264,-0.139 0.553,-0.214 0.85,-0.231c0.74,-0.025 1.48,-0.002 2.221,-0.002c0.134,0.001 0.267,0.013 0.398,0.04c0.306,0.062 0.589,0.195 0.836,0.384c-0.022,2.379 0.006,1.887 -0.014,2.602c-0.403,-0.337 -0.805,-0.675 -1.204,-1.016c-0.005,-0.004 -0.009,-0.009 -0.016,-0.01c-0.706,-0.024 -1.414,0 -2.12,0c-0.007,0 -0.013,-0.001 -0.019,0.002c-2.41,1.838 -4.608,3.938 -6.912,5.907c-0.005,0.005 -0.014,0.01 -0.015,0.018c-0.137,3.346 0,6.698 0,10.048c0,0.01 -0.002,0.015 0.004,0.021c0.002,0.003 0.004,0.004 0.008,0.004c1.328,0.017 2.655,0.026 3.983,0.03l-0.001,-0.36l0.018,0.015c0,0 0.027,1.647 0.002,2.353Z" style="fill:#000;"/><path d="M16.598,7.377c0.356,0.167 0.702,0.353 1.036,0.56c0.304,0.19 0.598,0.396 0.88,0.618c1.611,1.264 2.866,3.05 3.302,5.069c0.077,0.359 0.128,0.724 0.151,1.091c0.03,0.488 0.01,0.98 -0.062,1.464c-0.098,0.666 -0.294,1.316 -0.571,1.93c-0.103,0.229 -0.218,0.452 -0.342,0.67c-0.041,0.072 -0.087,0.15 -0.131,0.221c-0.031,0.05 -0.06,0.101 -0.093,0.15c-0.031,0.043 -0.066,0.083 -0.099,0.125c-0.044,0.055 -0.095,0.117 -0.141,0.172c-0.165,0.194 -0.339,0.381 -0.523,0.558c-0.584,0.564 -1.26,1.031 -1.999,1.369c-1.099,0.502 -2.325,0.709 -3.528,0.591c-0.589,-0.058 -1.17,-0.193 -1.725,-0.397c-0.828,-0.306 -1.594,-0.766 -2.264,-1.34c-0.229,-0.197 -0.448,-0.407 -0.654,-0.628c-0.07,-0.075 -0.139,-0.151 -0.207,-0.229c-0.022,-0.026 -0.045,-0.053 -0.068,-0.079c-0.011,-0.014 -0.026,-0.03 -0.012,-0.018c-0.043,-0.042 -0.085,-0.085 -0.126,-0.13c-0.603,-0.689 -0.821,-1.637 -0.829,-2.534c-0.012,-1.389 0.48,-2.798 1.421,-3.829c0.278,-0.305 0.594,-0.571 0.937,-0.801l1.689,-1.094c-0.031,0.705 -0.07,1.41 -0.093,2.116c-0.002,0.106 -0.003,0.212 -0.001,0.319c0.004,0.118 0.009,0.236 0.02,0.354c0.008,0.084 0.018,0.167 0.031,0.25c0.067,0.438 0.213,0.915 0.568,1.207c0.053,0.043 0.109,0.082 0.168,0.115c0.097,0.054 0.201,0.094 0.307,0.123c0.165,0.044 0.335,0.061 0.505,0.058c0.056,-0.046 0.109,-0.095 0.161,-0.145c0.112,-0.112 0.218,-0.229 0.315,-0.354c0.663,-0.858 0.933,-1.956 0.974,-3.023c0.008,-0.189 0.008,-0.378 0.002,-0.567c-0.007,-0.243 -0.025,-0.486 -0.051,-0.728c-0.033,-0.311 -0.081,-0.62 -0.14,-0.927c-0.066,-0.347 -0.149,-0.69 -0.24,-1.032l-0.612,-2.209c0.681,0.311 1.363,0.623 2.044,0.934ZM17.535,10.397c0.065,0.638 0.087,1.28 0.04,1.921c-0.082,1.107 -0.37,2.208 -0.929,3.173c-0.153,0.265 -0.326,0.518 -0.518,0.756c-0.297,0.368 -0.641,0.7 -1.034,0.965l-0.048,0.03c-0.061,0.037 -0.116,0.087 -0.183,0.11c-0.018,0.007 -0.229,0.04 -0.308,0.05c-0.265,0.032 -0.535,0.035 -0.801,0.011c-0.283,-0.025 -0.563,-0.081 -0.832,-0.171c-0.66,-0.221 -1.23,-0.647 -1.627,-1.218c-0.184,-0.265 -0.328,-0.555 -0.439,-0.857c-0.03,0.079 -0.03,0.078 -0.058,0.158c-0.186,0.572 -0.265,1.19 -0.159,1.787c0.027,0.155 0.067,0.31 0.13,0.456c0.039,0.091 0.086,0.183 0.156,0.255l0.005,0.005l0.061,0.057c0.082,0.099 0.166,0.197 0.252,0.292c0.447,0.485 0.96,0.904 1.542,1.216c0.48,0.258 0.999,0.441 1.536,0.534c0.726,0.125 1.478,0.083 2.186,-0.124c0.402,-0.117 0.789,-0.286 1.149,-0.501c0.535,-0.319 1,-0.733 1.398,-1.211l0.052,-0.064l0.022,-0.028c0.044,-0.07 0.086,-0.141 0.127,-0.212c0.278,-0.494 0.493,-1.019 0.612,-1.575c0.069,-0.319 0.107,-0.646 0.113,-0.973c0.004,-0.24 -0.009,-0.481 -0.039,-0.72c-0.026,-0.212 -0.065,-0.422 -0.116,-0.63c-0.344,-1.393 -1.204,-2.611 -2.279,-3.542l-0.019,-0.016c0.003,0.022 0.005,0.044 0.008,0.066Z" style="fill:#000;fill-rule:nonzero;"/></g></svg>