<?xml version="1.0" encoding="UTF-8" standalone="no"?><!DOCTYPE svg PUBLIC "-//W3C//DTD SVG 1.1//EN" "http://www.w3.org/Graphics/SVG/1.1/DTD/svg11.dtd"><svg width="100%" height="100%" viewBox="0 0 24 24" version="1.1" xmlns="http://www.w3.org/2000/svg" xmlns:xlink="http://www.w3.org/1999/xlink" xml:space="preserve" style="fill-rule:evenodd;clip-rule:evenodd;stroke-linejoin:round;stroke-miterlimit:1.41421;"><g id="delete"><path d="M18.052,5.001l0.051,0.002l0.051,0.003l0.05,0.004l0.051,0.006l0.049,0.007l0.05,0.008l0.049,0.01l0.048,0.01l0.049,0.012l0.047,0.013l0.047,0.014l0.047,0.015l0.046,0.016l0.046,0.018l0.045,0.018l0.045,0.02l0.044,0.02l0.043,0.022l0.043,0.023l0.042,0.023l0.042,0.025l0.041,0.025l0.04,0.027l0.039,0.027l0.039,0.029l0.038,0.029l0.038,0.03l0.037,0.031l0.035,0.032l0.036,0.033l0.034,0.033l0.033,0.034l0.033,0.036l0.032,0.035l0.031,0.037l0.03,0.038l0.029,0.038l0.029,0.039l0.027,0.039l0.027,0.04l0.025,0.041l0.025,0.042l0.023,0.042l0.023,0.043l0.022,0.043l0.02,0.044l0.02,0.045l0.018,0.045l0.018,0.046l0.016,0.046l0.015,0.047l0.014,0.047l0.013,0.047l0.012,0.049l0.01,0.048l0.01,0.049l0.008,0.05l0.007,0.049l0.006,0.051l0.004,0.05l0.003,0.051l0.002,0.051l0.001,0.052l0,13l-0.001,0.052l-0.002,0.051l-0.003,0.051l-0.004,0.05l-0.006,0.051l-0.007,0.049l-0.008,0.05l-0.01,0.049l-0.01,0.048l-0.012,0.049l-0.013,0.047l-0.014,0.047l-0.015,0.047l-0.016,0.046l-0.018,0.046l-0.018,0.045l-0.02,0.045l-0.02,0.044l-0.022,0.043l-0.023,0.043l-0.023,0.042l-0.025,0.042l-0.025,0.041l-0.027,0.04l-0.027,0.039l-0.029,0.039l-0.029,0.038l-0.03,0.038l-0.031,0.037l-0.032,0.035l-0.033,0.036l-0.033,0.034l-0.034,0.033l-0.036,0.033l-0.035,0.032l-0.037,0.031l-0.038,0.03l-0.038,0.029l-0.039,0.029l-0.039,0.027l-0.04,0.027l-0.041,0.025l-0.042,0.025l-0.042,0.023l-0.043,0.023l-0.043,0.022l-0.044,0.02l-0.045,0.02l-0.045,0.018l-0.046,0.018l-0.046,0.016l-0.047,0.015l-0.047,0.014l-0.047,0.013l-0.049,0.012l-0.048,0.01l-0.049,0.01l-0.05,0.008l-0.049,0.007l-0.051,0.006l-0.05,0.004l-0.051,0.003l-0.051,0.002l-0.052,0.001l-12,0l-0.052,-0.001l-0.051,-0.002l-0.051,-0.003l-0.05,-0.004l-0.051,-0.006l-0.049,-0.007l-0.05,-0.008l-0.049,-0.01l-0.048,-0.01l-0.049,-0.012l-0.047,-0.013l-0.047,-0.014l-0.047,-0.015l-0.046,-0.016l-0.046,-0.018l-0.045,-0.018l-0.045,-0.02l-0.044,-0.02l-0.043,-0.022l-0.043,-0.023l-0.042,-0.023l-0.042,-0.025l-0.041,-0.025l-0.04,-0.027l-0.039,-0.027l-0.039,-0.029l-0.038,-0.029l-0.038,-0.03l-0.037,-0.031l-0.035,-0.032l-0.036,-0.033l-0.034,-0.033l-0.033,-0.034l-0.033,-0.036l-0.032,-0.035l-0.031,-0.037l-0.03,-0.038l-0.029,-0.038l-0.029,-0.039l-0.027,-0.039l-0.027,-0.04l-0.025,-0.041l-0.025,-0.042l-0.023,-0.042l-0.023,-0.043l-0.022,-0.043l-0.02,-0.044l-0.02,-0.045l-0.018,-0.045l-0.018,-0.046l-0.016,-0.046l-0.015,-0.047l-0.014,-0.047l-0.013,-0.047l-0.012,-0.049l-0.01,-0.048l-0.01,-0.049l-0.008,-0.05l-0.007,-0.049l-0.006,-0.051l-0.004,-0.05l-0.003,-0.051l-0.002,-0.051l-0.001,-0.052l0,-13l0.001,-0.052l0.002,-0.051l0.003,-0.051l0.004,-0.05l0.006,-0.051l0.007,-0.049l0.008,-0.05l0.01,-0.049l0.01,-0.048l0.012,-0.049l0.013,-0.047l0.014,-0.047l0.015,-0.047l0.016,-0.046l0.018,-0.046l0.018,-0.045l0.02,-0.045l0.02,-0.044l0.022,-0.043l0.023,-0.043l0.023,-0.042l0.025,-0.042l0.025,-0.041l0.027,-0.04l0.027,-0.039l0.029,-0.039l0.029,-0.038l0.03,-0.038l0.031,-0.037l0.032,-0.035l0.033,-0.036l0.033,-0.034l0.034,-0.033l0.036,-0.033l0.035,-0.032l0.037,-0.031l0.038,-0.03l0.038,-0.029l0.039,-0.029l0.039,-0.027l0.04,-0.027l0.041,-0.025l0.042,-0.025l0.042,-0.023l0.043,-0.023l0.043,-0.022l0.044,-0.02l0.045,-0.02l0.045,-0.018l0.046,-0.018l0.046,-0.016l0.047,-0.015l0.047,-0.014l0.047,-0.013l0.049,-0.012l0.048,-0.01l0.049,-0.01l0.05,-0.008l0.049,-0.007l0.051,-0.006l0.05,-0.004l0.051,-0.003l0.051,-0.002l0.052,-0.001l12,0l0.052,0.001ZM6.012,7l-0.011,0l-0.001,0.001l0,0.011l0,12.976l0,0.011l0.001,0.001l0,0l0,0l0.012,0l11.974,0l0.012,0l0.001,0l0,-0.001l0,0l0,-0.011l0,-12.976l0,-0.011l0,0l0,-0.001l-0.001,0l0,0l-0.011,0l-11.976,0Z" style="fill:#000;"/><rect x="8" y="10" width="2" height="7" style="fill:#000;fill-rule:nonzero;"/><rect x="11" y="10" width="2" height="7" style="fill:#000;fill-rule:nonzero;"/><rect x="14" y="10" width="2" height="7" style="fill:#000;fill-rule:nonzero;"/><path d="M13.931,3.001l0.052,0.002l0.051,0.003l0.052,0.005l0.051,0.006l0.051,0.007l0.05,0.009l0.051,0.01l0.049,0.011l0.05,0.013l0.049,0.013l0.049,0.015l0.048,0.017l0.048,0.017l0.047,0.019l0.047,0.02l0.047,0.021l0.045,0.022l0.046,0.023l0.044,0.025l0.044,0.026l0.044,0.027l0.042,0.028l0.042,0.029l0.042,0.03l0.04,0.032l0.04,0.032l0.039,0.034l0.038,0.035l0.037,0.035l0.037,0.037l0.035,0.038l2.162,2.358l-11,0l2.162,-2.358l0.035,-0.038l0.037,-0.037l0.037,-0.035l0.038,-0.035l0.039,-0.034l0.04,-0.032l0.04,-0.032l0.042,-0.03l0.042,-0.029l0.042,-0.028l0.044,-0.027l0.044,-0.026l0.044,-0.025l0.046,-0.023l0.045,-0.022l0.047,-0.021l0.047,-0.02l0.047,-0.019l0.048,-0.017l0.048,-0.017l0.049,-0.015l0.049,-0.013l0.05,-0.013l0.049,-0.011l0.051,-0.01l0.05,-0.009l0.051,-0.007l0.051,-0.006l0.052,-0.005l0.051,-0.003l0.052,-0.002l0.052,-0.001l3.758,0l0.052,0.001Z" style="fill:#000;"/><rect x="3" y="5" width="18" height="2" style="fill:#000;fill-rule:nonzero;"/></g></svg>