<?xml version="1.0" encoding="UTF-8" standalone="no"?><!DOCTYPE svg PUBLIC "-//W3C//DTD SVG 1.1//EN" "http://www.w3.org/Graphics/SVG/1.1/DTD/svg11.dtd"><svg width="100%" height="100%" viewBox="0 0 25 24" version="1.1" xmlns="http://www.w3.org/2000/svg" xmlns:xlink="http://www.w3.org/1999/xlink" xml:space="preserve" style="fill-rule:evenodd;clip-rule:evenodd;stroke-linejoin:round;stroke-miterlimit:1.41421;"><g id="drink"><path d="M20.874,3l0.039,0.001l0.037,0.004l0.038,0.007l0.036,0.009l0.036,0.012l0.034,0.014l0.033,0.017l0.032,0.019l0.031,0.021l0.029,0.023l0.028,0.025l0.026,0.027l0.024,0.029l0.022,0.03l0.02,0.033l0.017,0.034l0.016,0.035l0.012,0.036l0.01,0.037l0.007,0.037l0.005,0.037l0.002,0.037l-0.001,0.037l-0.003,0.037l-0.006,0.037l-0.008,0.036l-0.011,0.036l-0.014,0.035l-0.015,0.034l-0.019,0.033l-0.021,0.032l-0.023,0.03l-8.287,10.129l-8.287,-10.129l-0.023,-0.03l-0.021,-0.032l-0.019,-0.033l-0.015,-0.034l-0.014,-0.035l-0.011,-0.036l-0.008,-0.036l-0.006,-0.037l-0.003,-0.037l-0.001,-0.037l0.002,-0.037l0.005,-0.037l0.007,-0.037l0.01,-0.037l0.012,-0.036l0.016,-0.035l0.017,-0.034l0.02,-0.033l0.022,-0.03l0.024,-0.029l0.026,-0.027l0.028,-0.025l0.029,-0.023l0.031,-0.021l0.032,-0.019l0.033,-0.017l0.034,-0.014l0.036,-0.012l0.036,-0.009l0.038,-0.007l0.037,-0.004l0.039,-0.001l15.748,0ZM8.22,5l4.78,5.842l4.78,-5.842l-9.56,0Z" style="fill:#000;"/><rect x="12" y="12" width="2" height="9" style="fill:#000;fill-rule:nonzero;"/><path d="M18,21c0,-0.552 -0.448,-1 -1,-1c-1.916,0 -6.084,0 -8,0c-0.552,0 -1,0.448 -1,1c0,0.552 0.448,1 1,1c1.916,0 6.084,0 8,0c0.552,0 1,-0.448 1,-1c0,0 0,0 0,0Z" style="fill:#000;"/></g></svg>