<?xml version="1.0" encoding="UTF-8" standalone="no"?><!DOCTYPE svg PUBLIC "-//W3C//DTD SVG 1.1//EN" "http://www.w3.org/Graphics/SVG/1.1/DTD/svg11.dtd"><svg width="100%" height="100%" viewBox="0 0 24 24" version="1.1" xmlns="http://www.w3.org/2000/svg" xmlns:xlink="http://www.w3.org/1999/xlink" xml:space="preserve" style="fill-rule:evenodd;clip-rule:evenodd;stroke-linejoin:round;stroke-miterlimit:1.41421;"><g id="dropbox"><g><path d="M7.884,3.003l-5.884,3.837l4.068,3.258l5.932,-3.66l-4.116,-3.438l0,0.003ZM2,13.358l5.884,3.841l4.116,-3.434l-5.932,-3.666l-4.068,3.259ZM12,13.765l4.116,3.435l5.884,-3.841l-4.067,-3.259l-5.933,3.663l0,0.002ZM22,6.843l-5.884,-3.84l-4.116,3.433l5.933,3.663l4.067,-3.256Z" style="fill:#000;fill-rule:nonzero;"/><path d="M12.013,14.503l-4.129,3.425l-1.768,-1.153l0,1.294l5.897,3.534l5.895,-3.534l0,-1.294l-1.767,1.154l-4.128,-3.426Z" style="fill:#000;fill-rule:nonzero;"/></g></g></svg>