<?xml version="1.0" encoding="UTF-8" standalone="no"?><!DOCTYPE svg PUBLIC "-//W3C//DTD SVG 1.1//EN" "http://www.w3.org/Graphics/SVG/1.1/DTD/svg11.dtd"><svg width="100%" height="100%" viewBox="0 0 24 24" version="1.1" xmlns="http://www.w3.org/2000/svg" xmlns:xlink="http://www.w3.org/1999/xlink" xml:space="preserve" style="fill-rule:evenodd;clip-rule:evenodd;stroke-linejoin:round;stroke-miterlimit:1.41421;"><g id="edit_document"><path d="M21.954,6.585l-10.289,10.176l-4.284,-4.332l10.288,-10.176l4.285,4.332ZM10.209,12.445l1.472,1.487l7.444,-7.362l-1.471,-1.488l-7.445,7.363Z" style="fill:#000;"/><path d="M5.956,17.985l0,-5.096l4.979,5.096l-4.979,0Z" style="fill:#000;"/><path d="M14.763,4.988l4.284,4.332l2.447,-2.42l-4.285,-4.332l-2.446,2.42Z" style="fill:#000;"/><path d="M17.999,19.121c-0.011,0.297 -0.059,0.589 -0.154,0.872c-0.277,0.816 -0.914,1.485 -1.715,1.801c-0.323,0.128 -0.663,0.192 -1.009,0.205c-3.414,0.046 -6.828,0.046 -10.242,0c-0.346,-0.013 -0.686,-0.077 -1.009,-0.205c-0.801,-0.316 -1.438,-0.985 -1.715,-1.801c-0.095,-0.283 -0.143,-0.575 -0.154,-0.872c-0.06,-4.747 -0.06,-9.495 0,-14.242c0.012,-0.322 0.068,-0.637 0.179,-0.94c0.288,-0.786 0.912,-1.427 1.691,-1.734c0.323,-0.127 0.662,-0.191 1.008,-0.204l0.069,-0.001l8.052,0l0,2c-2.698,0 -5.399,-0.101 -8.095,0.001c-0.04,0.003 -0.08,0.007 -0.12,0.014c-0.331,0.063 -0.611,0.294 -0.727,0.612c-0.036,0.097 -0.054,0.199 -0.058,0.303c-0.059,4.721 -0.178,9.447 0.001,14.165c0.006,0.095 0.024,0.188 0.057,0.278c0.093,0.255 0.296,0.462 0.548,0.561c0.104,0.041 0.213,0.061 0.324,0.066c3.388,0.045 6.779,0.128 10.165,-0.001c0.095,-0.006 0.189,-0.024 0.279,-0.057c0.261,-0.095 0.473,-0.308 0.568,-0.569c0.04,-0.108 0.057,-0.22 0.058,-0.334l0,-4.039l2,0c0,1.374 0.017,2.747 -0.001,4.121Z" style="fill:#000;fill-rule:nonzero;"/></g></svg>