<?xml version="1.0" encoding="UTF-8" standalone="no"?><!DOCTYPE svg PUBLIC "-//W3C//DTD SVG 1.1//EN" "http://www.w3.org/Graphics/SVG/1.1/DTD/svg11.dtd"><svg width="100%" height="100%" viewBox="0 0 24 24" version="1.1" xmlns="http://www.w3.org/2000/svg" xmlns:xlink="http://www.w3.org/1999/xlink" xml:space="preserve" style="fill-rule:evenodd;clip-rule:evenodd;stroke-linejoin:round;stroke-miterlimit:1.41421;"><g id="external_link"><path d="M11,5l0,2l-3.962,0c-0.013,0 -0.021,-0.002 -0.03,0.007c-0.005,0.004 -0.007,0.008 -0.008,0.014c-0.125,3.312 0,6.628 0,9.942c0,0.01 -0.002,0.018 0.004,0.026c0.005,0.006 0.01,0.01 0.017,0.011c3.312,0.128 6.629,0 9.943,0c0.009,0 0.018,0.001 0.025,-0.004c0.006,-0.004 0.01,-0.01 0.011,-0.017c0,-0.005 0,-0.011 0,-0.016l0,-3.963l2,0l0,3.976c-0.003,0.238 -0.041,0.472 -0.123,0.696c-0.203,0.554 -0.651,1.002 -1.205,1.205c-0.207,0.076 -0.424,0.114 -0.644,0.122c-3.352,0.043 -6.704,0.043 -10.056,0c-0.237,-0.009 -0.469,-0.052 -0.69,-0.139c-0.534,-0.211 -0.962,-0.65 -1.159,-1.188c-0.076,-0.207 -0.114,-0.424 -0.122,-0.644c-0.043,-3.352 -0.043,-6.704 0,-10.056c0.008,-0.22 0.046,-0.437 0.122,-0.644c0.203,-0.554 0.651,-1.002 1.205,-1.205c0.224,-0.082 0.458,-0.12 0.696,-0.123l3.976,0Z" style="fill:#000;"/><path d="M17.924,7.469l-6.023,6.024l-1.414,-1.415l6.023,-6.023c0.471,0.471 0.943,0.943 1.414,1.414Z" style="fill:#000;fill-rule:nonzero;"/><path d="M18.962,5.026l-0.707,6.364l-5.657,-5.656l6.364,-0.708Z" style="fill:#000;"/></g></svg>