<?xml version="1.0" encoding="UTF-8" standalone="no"?><!DOCTYPE svg PUBLIC "-//W3C//DTD SVG 1.1//EN" "http://www.w3.org/Graphics/SVG/1.1/DTD/svg11.dtd"><svg width="100%" height="100%" viewBox="0 0 24 24" version="1.1" xmlns="http://www.w3.org/2000/svg" xmlns:xlink="http://www.w3.org/1999/xlink" xml:space="preserve" style="fill-rule:evenodd;clip-rule:evenodd;stroke-linejoin:round;stroke-miterlimit:1.41421;"><g id="facebook"><path d="M20.896,2l-17.792,0c-0.61,0 -1.104,0.494 -1.104,1.104l0,17.792c0,0.61 0.494,1.104 1.104,1.104l9.579,0l0,-7.745l-2.608,0l0,-3.018l2.608,0.001l0,-2.229c0,-2.583 1.577,-3.988 3.882,-3.988c1.104,0 2.053,0.08 2.329,0.118l0,2.7l-1.6,0c-1.25,0 -1.494,0.595 -1.494,1.47l0,1.925l2.988,0l-0.388,3.02l-2.6,0l0,7.746l5.096,0c0.61,0 1.104,-0.494 1.104,-1.104l0,-17.792c0,-0.61 -0.494,-1.104 -1.104,-1.104" style="fill:#000;fill-rule:nonzero;"/></g></svg>