<?xml version="1.0" encoding="UTF-8" standalone="no"?><!DOCTYPE svg PUBLIC "-//W3C//DTD SVG 1.1//EN" "http://www.w3.org/Graphics/SVG/1.1/DTD/svg11.dtd"><svg width="100%" height="100%" viewBox="0 0 24 24" version="1.1" xmlns="http://www.w3.org/2000/svg" xmlns:xlink="http://www.w3.org/1999/xlink" xml:space="preserve" style="fill-rule:evenodd;clip-rule:evenodd;stroke-linejoin:round;stroke-miterlimit:1.41421;"><g id="feed"><path d="M20.052,2.001c0.234,0.009 0.463,0.052 0.681,0.138c0.527,0.208 0.951,0.642 1.146,1.174c0.075,0.204 0.112,0.418 0.12,0.635c0.068,5.368 0.068,10.736 0,16.104c-0.008,0.217 -0.045,0.431 -0.12,0.635c-0.195,0.532 -0.619,0.966 -1.146,1.174c-0.218,0.086 -0.447,0.129 -0.681,0.138c-5.368,0.068 -10.736,0.068 -16.104,0c-0.217,-0.008 -0.431,-0.045 -0.635,-0.12c-0.532,-0.195 -0.966,-0.619 -1.174,-1.146c-0.086,-0.218 -0.129,-0.447 -0.138,-0.681c-0.068,-5.368 -0.068,-10.736 0,-16.104c0.009,-0.234 0.052,-0.463 0.138,-0.681c0.208,-0.527 0.642,-0.951 1.174,-1.146c0.204,-0.075 0.418,-0.112 0.635,-0.12c5.368,-0.068 10.736,-0.068 16.104,0Zm-16.04,1.999c-0.004,0 -0.009,-0.002 -0.012,0.001c-0.002,0.003 0,0.008 0,0.012c0,5.325 0,10.649 0,15.974c0,0.004 -0.003,0.01 0,0.013c0.003,0.002 0.008,0 0.012,0c5.325,0 10.651,0 15.976,0c0.004,0 0.009,0.002 0.012,-0.001c0.002,-0.003 0,-0.008 0,-0.012c0,-5.325 0,-10.649 0,-15.974c0,-0.004 0.003,-0.01 0,-0.013c-0.003,-0.002 -0.008,0 -0.012,0c-5.325,0 -10.651,0 -15.976,0Z" style="fill-rule:nonzero;"/><rect x="6" y="7" width="12" height="2"/><rect x="6" y="11" width="12" height="2"/><rect x="6" y="15" width="12" height="2"/><rect x="0" y="0" width="24" height="24" style="fill:none;"/></g></svg>