<?xml version="1.0" encoding="UTF-8" standalone="no"?><!DOCTYPE svg PUBLIC "-//W3C//DTD SVG 1.1//EN" "http://www.w3.org/Graphics/SVG/1.1/DTD/svg11.dtd"><svg width="100%" height="100%" viewBox="0 0 24 24" version="1.1" xmlns="http://www.w3.org/2000/svg" xmlns:xlink="http://www.w3.org/1999/xlink" xml:space="preserve" style="fill-rule:evenodd;clip-rule:evenodd;stroke-linejoin:round;stroke-miterlimit:1.41421;"><g id="findandreplace"><path d="M16.581,15.049l5.284,5.284l-1.414,1.414l-5.354,-5.353c0.092,-0.066 0.184,-0.133 0.273,-0.203c0.44,-0.339 0.847,-0.722 1.211,-1.142Z" style="fill:#000;"/><path d="M10.12,2.001l0.12,0.003l0.119,0.005l0.119,0.007l0.118,0.009l0.118,0.011l0.117,0.013l0.116,0.015l0.116,0.016l0.116,0.019l0.115,0.021l0.114,0.022l0.114,0.024l0.112,0.026l0.112,0.028l0.112,0.03l0.111,0.031l0.11,0.034l0.109,0.034l0.108,0.037l0.108,0.039l0.107,0.04l0.106,0.041l0.105,0.044l0.104,0.045l0.104,0.047l0.102,0.048l0.101,0.05l0.101,0.051l0.1,0.053l0.098,0.055l0.098,0.056l0.097,0.058l0.095,0.059l0.095,0.06l0.094,0.063l0.092,0.063l0.091,0.065l0.09,0.066l0.09,0.068l0.088,0.069l0.087,0.071l0.085,0.071l0.085,0.074l0.083,0.074l0.083,0.076l0.081,0.077l0.079,0.078l0.079,0.08l0.077,0.081l0.076,0.082l0.074,0.083l0.074,0.085l0.072,0.085l0.07,0.087l0.07,0.088l0.067,0.089l0.067,0.09l0.065,0.092l0.064,0.092l0.062,0.093l0.06,0.095l0.06,0.095l0.053,0.09l-1.716,1.027l-0.045,-0.076l-0.043,-0.068l-0.043,-0.068l-0.044,-0.067l-0.046,-0.066l-0.047,-0.065l-0.047,-0.064l-0.049,-0.064l-0.049,-0.063l-0.051,-0.062l-0.051,-0.062l-0.053,-0.06l-0.053,-0.06l-0.054,-0.058l-0.056,-0.058l-0.056,-0.057l-0.057,-0.056l-0.058,-0.056l-0.059,-0.054l-0.059,-0.053l-0.061,-0.052l-0.062,-0.052l-0.062,-0.051l-0.063,-0.049l-0.063,-0.048l-0.065,-0.048l-0.066,-0.046l-0.066,-0.046l-0.066,-0.044l-0.068,-0.043l-0.069,-0.043l-0.069,-0.041l-0.069,-0.04l-0.071,-0.039l-0.071,-0.038l-0.071,-0.036l-0.073,-0.036l-0.073,-0.035l-0.074,-0.033l-0.074,-0.032l-0.075,-0.031l-0.075,-0.03l-0.077,-0.028l-0.076,-0.028l-0.077,-0.026l-0.078,-0.025l-0.078,-0.023l-0.079,-0.023l-0.08,-0.021l-0.08,-0.02l-0.08,-0.018l-0.081,-0.018l-0.082,-0.015l-0.081,-0.015l-0.082,-0.013l-0.083,-0.012l-0.084,-0.011l-0.084,-0.009l-0.084,-0.008l-0.084,-0.006l-0.085,-0.005l-0.086,-0.004l-0.086,-0.002l-0.087,-0.001l-0.063,0l-0.065,0.002l-0.065,0.002l-0.064,0.003l-0.064,0.003l-0.063,0.005l-0.064,0.005l-0.063,0.006l-0.063,0.007l-0.063,0.007l-0.062,0.009l-0.062,0.009l-0.062,0.01l-0.061,0.01l-0.062,0.012l-0.061,0.012l-0.061,0.013l-0.06,0.013l-0.06,0.014l-0.06,0.015l-0.06,0.016l-0.059,0.017l-0.059,0.017l-0.059,0.018l-0.059,0.018l-0.058,0.02l-0.057,0.02l-0.058,0.02l-0.057,0.022l-0.057,0.022l-0.057,0.022l-0.056,0.024l-0.055,0.024l-0.056,0.025l-0.056,0.025l-0.054,0.026l-0.054,0.026l-0.055,0.028l-0.053,0.028l-0.053,0.028l-0.053,0.029l-0.053,0.03l-0.052,0.031l-0.052,0.031l-0.051,0.031l-0.051,0.033l-0.051,0.032l-0.05,0.034l-0.049,0.034l-0.05,0.034l-0.048,0.036l-0.049,0.035l-0.048,0.037l-0.047,0.036l-0.047,0.038l-0.047,0.038l-0.046,0.039l-0.046,0.039l-0.045,0.039l-0.045,0.04l-0.044,0.041l-0.044,0.041l-0.043,0.042l-0.043,0.042l-0.042,0.043l-0.042,0.043l-0.041,0.044l-0.041,0.044l-0.04,0.045l-0.039,0.045l-0.039,0.046l-0.039,0.046l-0.038,0.047l-0.038,0.047l-0.036,0.047l-0.037,0.048l-0.035,0.048l-0.036,0.049l-0.034,0.05l-0.034,0.049l-0.034,0.05l-0.032,0.051l-0.033,0.051l-0.031,0.051l-0.031,0.052l-0.031,0.052l-0.03,0.053l-0.029,0.052l-0.028,0.054l-0.028,0.054l-0.027,0.053l-0.027,0.055l-0.026,0.055l-0.025,0.055l-0.025,0.055l-0.024,0.056l-0.024,0.056l-0.022,0.057l-0.022,0.057l-0.022,0.057l-0.02,0.057l-0.02,0.058l-0.02,0.058l-0.018,0.059l-0.018,0.059l-0.017,0.059l-0.017,0.059l-0.016,0.06l-0.015,0.06l-0.014,0.06l-0.013,0.06l-0.013,0.061l-0.012,0.061l-0.012,0.062l-0.01,0.061l-0.01,0.062l-0.009,0.062l-0.009,0.063l-0.007,0.062l-0.007,0.063l-0.006,0.063l-0.005,0.064l-0.005,0.063l-0.003,0.064l-0.003,0.064l-0.002,0.065l-0.002,0.064l0,0.071l-2,-0.012l0.001,-0.084l0.001,-0.09l0.003,-0.09l0.004,-0.089l0.005,-0.089l0.006,-0.089l0.008,-0.089l0.008,-0.088l0.01,-0.088l0.01,-0.088l0.012,-0.087l0.013,-0.088l0.014,-0.086l0.014,-0.087l0.016,-0.086l0.017,-0.085l0.018,-0.086l0.019,-0.084l0.021,-0.085l0.021,-0.084l0.022,-0.084l0.023,-0.083l0.024,-0.083l0.025,-0.083l0.026,-0.082l0.027,-0.081l0.028,-0.081l0.029,-0.081l0.03,-0.081l0.031,-0.079l0.032,-0.08l0.033,-0.078l0.034,-0.078l0.034,-0.078l0.036,-0.078l0.036,-0.077l0.038,-0.076l0.038,-0.076l0.039,-0.075l0.04,-0.074l0.041,-0.075l0.042,-0.073l0.042,-0.073l0.044,-0.073l0.044,-0.071l0.045,-0.072l0.046,-0.071l0.047,-0.07l0.047,-0.069l0.049,-0.069l0.049,-0.068l0.05,-0.068l0.051,-0.067l0.051,-0.067l0.052,-0.065l0.054,-0.065l0.053,-0.065l0.055,-0.063l0.055,-0.064l0.057,-0.062l0.056,-0.062l0.058,-0.061l0.058,-0.06l0.059,-0.06l0.06,-0.059l0.06,-0.058l0.061,-0.058l0.062,-0.056l0.062,-0.057l0.064,-0.055l0.064,-0.055l0.064,-0.053l0.065,-0.053l0.065,-0.053l0.067,-0.051l0.067,-0.051l0.068,-0.05l0.068,-0.049l0.069,-0.049l0.069,-0.047l0.07,-0.047l0.071,-0.046l0.071,-0.045l0.072,-0.044l0.073,-0.044l0.073,-0.043l0.073,-0.041l0.074,-0.041l0.075,-0.04l0.076,-0.039l0.075,-0.038l0.076,-0.038l0.078,-0.036l0.077,-0.036l0.077,-0.034l0.079,-0.034l0.079,-0.033l0.079,-0.032l0.08,-0.031l0.08,-0.03l0.08,-0.029l0.082,-0.028l0.082,-0.027l0.082,-0.026l0.082,-0.025l0.083,-0.024l0.083,-0.023l0.084,-0.022l0.084,-0.021l0.084,-0.021l0.086,-0.019l0.084,-0.018l0.086,-0.017l0.086,-0.016l0.087,-0.015l0.087,-0.013l0.087,-0.013l0.087,-0.012l0.088,-0.01l0.088,-0.01l0.088,-0.008l0.089,-0.008l0.088,-0.006l0.09,-0.005l0.09,-0.004l0.089,-0.003l0.089,-0.001l0.092,-0.001l0.119,0.001Z" style="fill:#000;"/><path d="M16.727,8.096l-6.259,-1.35l6.203,-5.052l0.056,6.402Z" style="fill:#000;"/><path d="M17,9.006l-0.001,0.084l-0.001,0.09l-0.003,0.09l-0.004,0.089l-0.005,0.089l-0.006,0.089l-0.008,0.089l-0.008,0.088l-0.01,0.088l-0.01,0.088l-0.012,0.087l-0.013,0.087l-0.014,0.087l-0.014,0.087l-0.016,0.086l-0.017,0.085l-0.018,0.086l-0.019,0.084l-0.021,0.085l-0.021,0.084l-0.022,0.084l-0.023,0.083l-0.024,0.083l-0.025,0.083l-0.026,0.082l-0.027,0.081l-0.028,0.081l-0.029,0.081l-0.03,0.081l-0.031,0.079l-0.032,0.08l-0.033,0.078l-0.034,0.079l-0.034,0.078l-0.036,0.077l-0.036,0.077l-0.038,0.076l-0.038,0.076l-0.039,0.075l-0.04,0.075l-0.041,0.074l-0.042,0.073l-0.042,0.073l-0.044,0.073l-0.044,0.071l-0.045,0.072l-0.046,0.071l-0.047,0.07l-0.047,0.069l-0.049,0.069l-0.049,0.068l-0.05,0.068l-0.051,0.067l-0.051,0.067l-0.052,0.065l-0.054,0.065l-0.053,0.065l-0.055,0.063l-0.055,0.064l-0.056,0.062l-0.057,0.062l-0.058,0.061l-0.058,0.06l-0.059,0.06l-0.06,0.059l-0.06,0.058l-0.061,0.058l-0.062,0.056l-0.062,0.057l-0.064,0.055l-0.063,0.054l-0.065,0.054l-0.065,0.054l-0.065,0.052l-0.067,0.051l-0.067,0.051l-0.068,0.05l-0.068,0.049l-0.069,0.049l-0.069,0.047l-0.07,0.047l-0.071,0.046l-0.071,0.045l-0.072,0.044l-0.073,0.044l-0.073,0.042l-0.073,0.042l-0.074,0.041l-0.075,0.04l-0.075,0.039l-0.076,0.038l-0.076,0.038l-0.077,0.036l-0.078,0.036l-0.077,0.034l-0.078,0.034l-0.08,0.033l-0.079,0.032l-0.08,0.031l-0.08,0.03l-0.08,0.029l-0.082,0.028l-0.082,0.027l-0.082,0.026l-0.082,0.025l-0.083,0.024l-0.083,0.023l-0.084,0.022l-0.084,0.021l-0.084,0.021l-0.086,0.019l-0.084,0.018l-0.086,0.017l-0.086,0.016l-0.087,0.015l-0.087,0.013l-0.087,0.013l-0.087,0.012l-0.088,0.01l-0.088,0.01l-0.088,0.008l-0.089,0.008l-0.088,0.006l-0.089,0.005l-0.091,0.004l-0.089,0.003l-0.089,0.001l-0.092,0.001l-0.119,-0.001l-0.12,-0.003l-0.119,-0.005l-0.119,-0.007l-0.118,-0.009l-0.118,-0.011l-0.117,-0.013l-0.116,-0.015l-0.116,-0.016l-0.116,-0.019l-0.115,-0.021l-0.114,-0.022l-0.114,-0.024l-0.112,-0.026l-0.112,-0.028l-0.112,-0.03l-0.111,-0.031l-0.11,-0.034l-0.109,-0.034l-0.108,-0.037l-0.108,-0.039l-0.107,-0.04l-0.106,-0.041l-0.105,-0.044l-0.104,-0.045l-0.103,-0.047l-0.103,-0.048l-0.102,-0.05l-0.1,-0.051l-0.1,-0.053l-0.098,-0.055l-0.098,-0.056l-0.097,-0.058l-0.095,-0.059l-0.095,-0.06l-0.094,-0.063l-0.092,-0.063l-0.091,-0.065l-0.09,-0.066l-0.09,-0.068l-0.088,-0.069l-0.087,-0.071l-0.085,-0.071l-0.085,-0.074l-0.083,-0.074l-0.083,-0.076l-0.081,-0.077l-0.079,-0.078l-0.079,-0.08l-0.077,-0.081l-0.076,-0.082l-0.074,-0.083l-0.074,-0.085l-0.072,-0.085l-0.07,-0.087l-0.07,-0.088l-0.067,-0.089l-0.067,-0.09l-0.065,-0.092l-0.064,-0.092l-0.062,-0.093l-0.061,-0.095l-0.059,-0.095l-0.053,-0.09l1.716,-1.027l0.045,0.076l0.043,0.068l0.043,0.068l0.044,0.067l0.046,0.066l0.047,0.065l0.047,0.064l0.049,0.064l0.049,0.063l0.051,0.062l0.051,0.062l0.053,0.06l0.053,0.06l0.054,0.058l0.056,0.058l0.056,0.057l0.057,0.056l0.058,0.056l0.059,0.054l0.059,0.053l0.061,0.052l0.062,0.052l0.062,0.051l0.063,0.049l0.063,0.048l0.065,0.048l0.066,0.046l0.066,0.046l0.066,0.044l0.068,0.043l0.069,0.043l0.069,0.041l0.069,0.04l0.071,0.039l0.071,0.038l0.072,0.037l0.072,0.035l0.073,0.035l0.074,0.033l0.074,0.032l0.075,0.031l0.075,0.03l0.077,0.028l0.076,0.028l0.077,0.026l0.078,0.025l0.078,0.023l0.079,0.023l0.08,0.021l0.08,0.02l0.08,0.018l0.081,0.018l0.082,0.015l0.081,0.015l0.082,0.013l0.083,0.012l0.084,0.011l0.084,0.009l0.084,0.008l0.084,0.006l0.085,0.005l0.086,0.004l0.086,0.002l0.087,0.001l0.063,0l0.065,-0.002l0.065,-0.002l0.064,-0.003l0.064,-0.003l0.063,-0.005l0.064,-0.005l0.063,-0.006l0.063,-0.007l0.063,-0.007l0.062,-0.009l0.062,-0.009l0.062,-0.01l0.061,-0.01l0.062,-0.012l0.061,-0.012l0.061,-0.013l0.06,-0.013l0.06,-0.014l0.06,-0.015l0.06,-0.016l0.059,-0.017l0.059,-0.017l0.059,-0.018l0.059,-0.018l0.058,-0.02l0.057,-0.02l0.058,-0.02l0.057,-0.022l0.057,-0.022l0.057,-0.022l0.055,-0.024l0.057,-0.024l0.055,-0.025l0.055,-0.025l0.055,-0.026l0.054,-0.026l0.054,-0.028l0.054,-0.028l0.053,-0.028l0.053,-0.029l0.053,-0.03l0.052,-0.031l0.052,-0.031l0.051,-0.031l0.051,-0.033l0.051,-0.032l0.05,-0.034l0.049,-0.034l0.05,-0.034l0.048,-0.036l0.049,-0.035l0.048,-0.037l0.047,-0.036l0.048,-0.038l0.046,-0.038l0.046,-0.039l0.046,-0.039l0.045,-0.039l0.045,-0.04l0.044,-0.041l0.044,-0.041l0.043,-0.042l0.043,-0.042l0.042,-0.043l0.042,-0.043l0.041,-0.044l0.04,-0.044l0.041,-0.045l0.039,-0.045l0.039,-0.046l0.039,-0.046l0.038,-0.047l0.038,-0.047l0.036,-0.047l0.037,-0.048l0.035,-0.048l0.036,-0.049l0.034,-0.05l0.034,-0.049l0.034,-0.05l0.032,-0.051l0.033,-0.051l0.031,-0.051l0.031,-0.052l0.031,-0.052l0.03,-0.053l0.029,-0.053l0.028,-0.053l0.028,-0.053l0.027,-0.055l0.027,-0.054l0.026,-0.055l0.026,-0.055l0.024,-0.055l0.024,-0.056l0.024,-0.056l0.022,-0.057l0.022,-0.057l0.022,-0.057l0.02,-0.057l0.02,-0.058l0.02,-0.058l0.018,-0.059l0.018,-0.059l0.017,-0.059l0.017,-0.059l0.016,-0.06l0.015,-0.06l0.014,-0.06l0.013,-0.06l0.013,-0.061l0.012,-0.061l0.012,-0.062l0.01,-0.061l0.01,-0.062l0.009,-0.062l0.009,-0.063l0.007,-0.062l0.007,-0.063l0.006,-0.063l0.005,-0.064l0.005,-0.063l0.003,-0.064l0.003,-0.064l0.002,-0.065l0.002,-0.064l0,-0.071l2,0.012Z" style="fill:#000;"/><path d="M3.199,9.82l6.287,1.209l-6.087,5.191l-0.2,-6.4Z" style="fill:#000;"/></g></svg>