<?xml version="1.0" encoding="UTF-8" standalone="no"?><!DOCTYPE svg PUBLIC "-//W3C//DTD SVG 1.1//EN" "http://www.w3.org/Graphics/SVG/1.1/DTD/svg11.dtd"><svg width="100%" height="100%" viewBox="0 0 24 24" version="1.1" xmlns="http://www.w3.org/2000/svg" xmlns:xlink="http://www.w3.org/1999/xlink" xml:space="preserve" style="fill-rule:evenodd;clip-rule:evenodd;stroke-linejoin:round;stroke-miterlimit:1.41421;"><g id="fire"><path d="M13.265,6.902l0.076,0.036l0.076,0.036l0.076,0.038l0.075,0.039l0.074,0.039l0.075,0.04l0.074,0.041l0.073,0.042l0.074,0.043l0.072,0.044l0.072,0.044l0.072,0.045l0.071,0.046l0.07,0.047l0.071,0.048l0.07,0.048l0.069,0.049l0.068,0.049l0.069,0.051l0.068,0.052l0.066,0.051l0.066,0.053l0.067,0.054l0.066,0.054l0.064,0.055l0.064,0.056l0.064,0.057l0.063,0.057l0.063,0.057l0.061,0.059l0.062,0.059l0.06,0.06l0.06,0.06l0.059,0.061l0.059,0.062l0.058,0.063l0.057,0.063l0.057,0.064l0.055,0.064l0.056,0.065l0.054,0.066l0.054,0.066l0.053,0.067l0.052,0.068l0.051,0.068l0.051,0.068l0.05,0.07l0.049,0.07l0.048,0.07l0.047,0.071l0.047,0.072l0.045,0.072l0.045,0.073l0.044,0.074l0.043,0.073l0.042,0.075l0.042,0.075l0.04,0.076l0.039,0.076l0.039,0.076l0.037,0.078l0.037,0.078l0.035,0.078l0.035,0.078l0.033,0.079l0.033,0.08l0.031,0.08l0.031,0.081l0.029,0.081l0.028,0.082l0.027,0.082l0.026,0.082l0.025,0.083l0.024,0.084l0.023,0.084l0.021,0.084l0.02,0.084l0.019,0.086l0.018,0.085l0.016,0.086l0.016,0.086l0.014,0.086l0.013,0.087l0.011,0.088l0.01,0.087l0.009,0.088l0.008,0.088l0.006,0.088l0.004,0.089l0.004,0.089l0.002,0.089l0,0.09l0,0.089l-0.003,0.09l-0.003,0.09l-0.006,0.09l-0.006,0.09l-0.008,0.091l-0.01,0.09l-0.011,0.091l-0.013,0.091l-0.014,0.09l-0.016,0.091l-0.017,0.091l-0.019,0.091l-0.02,0.091l-0.022,0.09l-0.024,0.092l-0.025,0.09l-0.026,0.091l-0.029,0.091l-0.03,0.09l-0.031,0.09l-0.033,0.091l-0.035,0.09l-0.036,0.09l-0.038,0.089l-0.04,0.09l-0.041,0.09l-0.043,0.089l-0.044,0.088l-0.046,0.089l-0.048,0.089l-0.05,0.088l-0.051,0.087l-0.052,0.087l-0.079,0.128l-0.085,0.107l-0.056,0.069l-0.056,0.067l-0.057,0.067l-0.058,0.065l-0.058,0.065l-0.06,0.064l-0.061,0.062l-0.06,0.061l-0.062,0.061l-0.062,0.059l-0.063,0.058l-0.064,0.058l-0.065,0.056l-0.065,0.055l-0.06,0.05l-1.269,-1.547l0.049,-0.039l0.042,-0.036l0.043,-0.038l0.042,-0.037l0.042,-0.039l0.041,-0.039l0.041,-0.04l0.041,-0.041l0.04,-0.042l0.039,-0.042l0.04,-0.044l0.039,-0.044l0.038,-0.045l0.039,-0.046l0.037,-0.046l0.008,-0.01l0.013,-0.021l0.037,-0.062l0.036,-0.061l0.034,-0.06l0.033,-0.061l0.031,-0.061l0.031,-0.061l0.029,-0.06l0.028,-0.06l0.026,-0.06l0.026,-0.061l0.024,-0.06l0.023,-0.059l0.022,-0.06l0.02,-0.06l0.02,-0.059l0.019,-0.059l0.017,-0.06l0.016,-0.059l0.016,-0.059l0.014,-0.059l0.013,-0.059l0.012,-0.058l0.011,-0.059l0.011,-0.058l0.009,-0.059l0.008,-0.058l0.007,-0.058l0.006,-0.059l0.005,-0.058l0.005,-0.058l0.003,-0.058l0.002,-0.058l0.002,-0.058l0,-0.057l0,-0.058l-0.001,-0.058l-0.003,-0.057l-0.003,-0.058l-0.004,-0.057l-0.004,-0.057l-0.006,-0.058l-0.007,-0.057l-0.007,-0.057l-0.009,-0.057l-0.009,-0.057l-0.01,-0.057l-0.011,-0.057l-0.012,-0.056l-0.012,-0.057l-0.014,-0.056l-0.014,-0.057l-0.016,-0.056l-0.016,-0.057l-0.016,-0.055l-0.018,-0.057l-0.018,-0.055l-0.02,-0.056l-0.02,-0.056l-0.021,-0.055l-0.021,-0.055l-0.023,-0.055l-0.023,-0.055l-0.024,-0.055l-0.025,-0.055l-0.025,-0.054l-0.027,-0.054l-0.027,-0.054l-0.028,-0.054l-0.028,-0.054l-0.029,-0.053l-0.03,-0.053l-0.031,-0.053l-0.032,-0.052l-0.032,-0.052l-0.033,-0.052l-0.033,-0.052l-0.034,-0.051l-0.035,-0.051l-0.036,-0.051l-0.036,-0.05l-0.037,-0.051l-0.037,-0.049l-0.038,-0.05l-0.039,-0.049l-0.04,-0.049l-0.039,-0.048l-0.041,-0.047l-0.041,-0.048l-0.042,-0.047l-0.042,-0.047l-0.043,-0.046l-0.036,-0.037l0.002,0.031l0.003,0.096l0.003,0.095l0.001,0.094l0,0.093l-0.001,0.092l-0.002,0.091l-0.003,0.09l-0.004,0.089l-0.005,0.088l-0.006,0.087l-0.006,0.086l-0.008,0.085l-0.009,0.084l-0.01,0.083l-0.01,0.083l-0.012,0.081l-0.012,0.08l-0.013,0.079l-0.014,0.078l-0.015,0.077l-0.016,0.077l-0.016,0.075l-0.017,0.074l-0.018,0.073l-0.019,0.073l-0.019,0.071l-0.021,0.073l-0.04,0.135l-0.045,0.133l-0.046,0.13l-0.049,0.126l-0.05,0.121l-0.052,0.118l-0.054,0.114l-0.055,0.11l-0.057,0.106l-0.058,0.102l-0.058,0.098l-0.059,0.095l-0.06,0.091l-0.06,0.086l-0.06,0.083l-0.06,0.08l-0.059,0.075l-0.06,0.072l-0.059,0.069l-0.058,0.064l-0.057,0.062l-0.057,0.058l-0.054,0.054l-0.054,0.052l-0.052,0.047l-0.05,0.045l-0.051,0.044l-0.086,0.07l-0.082,0.062l-0.069,0.05l-0.059,0.04l-0.212,0.132l-0.24,0.04l-0.058,0.008l-0.069,0.008l-0.082,0.007l-0.095,0.005l-0.101,0.002l-0.061,0l-0.061,-0.001l-0.062,-0.002l-0.063,-0.004l-0.068,-0.005l-0.069,-0.007l-0.071,-0.009l-0.074,-0.011l-0.074,-0.012l-0.078,-0.016l-0.079,-0.018l-0.08,-0.02l-0.082,-0.023l-0.083,-0.027l-0.085,-0.029l-0.085,-0.034l-0.086,-0.036l-0.087,-0.041l-0.087,-0.045l-0.087,-0.048l-0.087,-0.053l-0.086,-0.058l-0.086,-0.062l-0.085,-0.067l-0.083,-0.071l-0.078,-0.073l-0.044,-0.044l-0.038,-0.04l-0.04,-0.043l-0.039,-0.043l-0.037,-0.045l-0.037,-0.045l-0.036,-0.046l-0.035,-0.048l-0.035,-0.049l-0.034,-0.051l-0.033,-0.05l-0.012,-0.019l-0.001,0.009l-0.008,0.06l-0.007,0.06l-0.005,0.059l-0.004,0.059l-0.003,0.058l-0.001,0.057l-0.001,0.056l0.002,0.055l0.002,0.055l0.003,0.052l0.005,0.052l0.006,0.05l0.006,0.048l0.008,0.047l0.008,0.045l0.01,0.043l0.01,0.041l0.01,0.038l0.011,0.037l0.012,0.033l0.011,0.031l0.012,0.029l0.012,0.026l0.01,0.022l0.011,0.02l0.01,0.017l0.009,0.013l0.007,0.01l0.006,0.008l0.003,0.004l0.002,0.002l0.059,0.056l0.077,0.092l0.038,0.044l0.038,0.043l0.038,0.043l0.039,0.042l0.039,0.042l0.04,0.04l0.039,0.04l0.04,0.039l0.04,0.038l0.04,0.038l0.04,0.036l0.04,0.036l0.042,0.036l0.041,0.035l0.04,0.033l0.042,0.033l0.042,0.033l0.041,0.032l0.042,0.031l0.041,0.03l0.043,0.031l0.043,0.029l0.041,0.028l0.044,0.028l0.042,0.027l0.043,0.026l0.043,0.026l0.043,0.024l0.044,0.025l0.044,0.024l0.049,0.026l-0.935,1.768l-0.061,-0.032l-0.066,-0.036l-0.065,-0.037l-0.066,-0.038l-0.065,-0.039l-0.065,-0.04l-0.065,-0.041l-0.063,-0.041l-0.064,-0.043l-0.064,-0.043l-0.062,-0.044l-0.062,-0.045l-0.063,-0.047l-0.062,-0.047l-0.061,-0.048l-0.06,-0.049l-0.061,-0.05l-0.06,-0.051l-0.059,-0.051l-0.06,-0.053l-0.059,-0.053l-0.058,-0.055l-0.057,-0.055l-0.057,-0.056l-0.057,-0.058l-0.056,-0.057l-0.056,-0.059l-0.055,-0.06l-0.055,-0.06l-0.054,-0.062l-0.054,-0.063l-0.014,-0.016l-0.016,-0.016l-0.071,-0.075l-0.067,-0.079l-0.062,-0.079l-0.057,-0.082l-0.054,-0.083l-0.049,-0.084l-0.046,-0.086l-0.043,-0.087l-0.04,-0.088l-0.036,-0.089l-0.033,-0.09l-0.031,-0.091l-0.028,-0.092l-0.025,-0.092l-0.023,-0.094l-0.021,-0.094l-0.018,-0.095l-0.016,-0.097l-0.013,-0.097l-0.011,-0.097l-0.009,-0.099l-0.006,-0.099l-0.005,-0.1l-0.002,-0.1l0.001,-0.101l0.002,-0.102l0.005,-0.102l0.007,-0.102l0.009,-0.103l0.012,-0.104l0.014,-0.103l0.017,-0.104l0.018,-0.105l0.022,-0.104l0.024,-0.104l0.026,-0.105l0.029,-0.105l0.031,-0.104l0.034,-0.105l0.037,-0.104l0.039,-0.104l0.043,-0.103l0.045,-0.103l0.048,-0.102l0.05,-0.102l0.054,-0.101l0.057,-0.101l0.06,-0.099l0.062,-0.098l0.066,-0.098l0.07,-0.096l0.072,-0.095l0.075,-0.093l0.079,-0.092l0.082,-0.089l0.085,-0.089l0.089,-0.086l0.092,-0.084l0.095,-0.081l0.095,-0.077l0.055,-0.042l0.05,-0.037l0.052,-0.037l0.053,-0.037l0.054,-0.036l1.677,-1.085l-0.09,2.007l-0.002,0.062l-0.001,0.06l-0.001,0.059l0,0.057l0.001,0.056l0.002,0.054l0.002,0.053l0.003,0.05l0.004,0.05l0.004,0.048l0.004,0.046l0.006,0.045l0.005,0.044l0.006,0.042l0.007,0.04l0.007,0.04l0.007,0.037l0.008,0.037l0.008,0.035l0.009,0.033l0.008,0.033l0.009,0.031l0.009,0.03l0.01,0.029l0.009,0.027l0.01,0.026l0.01,0.026l0.009,0.023l0.01,0.023l0.011,0.022l0.01,0.021l0.01,0.02l0.01,0.019l0.01,0.018l0.01,0.017l0.01,0.016l0.011,0.017l0.01,0.014l0.01,0.014l0.01,0.014l0.01,0.013l0.01,0.012l0.011,0.013l0.009,0.01l0.009,0.011l0.011,0.011l0.006,0.006l0.024,0.022l0.021,0.018l0.02,0.015l0.02,0.015l0.021,0.014l0.021,0.013l0.023,0.013l0.022,0.011l0.023,0.011l0.024,0.01l0.024,0.01l0.025,0.008l0.025,0.008l0.026,0.008l0.026,0.006l0.026,0.006l0.026,0.005l0.028,0.005l0.026,0.004l0.026,0.003l0.026,0.003l0.024,0.001l0.025,0.002l0.005,0l0.019,-0.018l0.027,-0.025l0.028,-0.029l0.03,-0.03l0.03,-0.032l0.032,-0.036l0.032,-0.037l0.033,-0.04l0.034,-0.043l0.034,-0.045l0.034,-0.047l0.035,-0.051l0.035,-0.052l0.035,-0.056l0.034,-0.059l0.035,-0.061l0.034,-0.064l0.034,-0.068l0.033,-0.07l0.033,-0.073l0.032,-0.077l0.03,-0.08l0.03,-0.083l0.029,-0.087l0.028,-0.093l0.012,-0.043l0.013,-0.048l0.013,-0.048l0.012,-0.049l0.011,-0.05l0.011,-0.051l0.011,-0.052l0.01,-0.053l0.01,-0.054l0.009,-0.055l0.009,-0.056l0.008,-0.057l0.007,-0.058l0.007,-0.06l0.006,-0.06l0.006,-0.061l0.005,-0.062l0.004,-0.063l0.004,-0.065l0.003,-0.066l0.002,-0.066l0.001,-0.068l0.001,-0.069l0,-0.07l-0.001,-0.071l-0.002,-0.072l-0.002,-0.074l-0.004,-0.075l-0.004,-0.075l-0.006,-0.078l-0.006,-0.078l-0.007,-0.079l-0.009,-0.081l-0.009,-0.082l-0.01,-0.083l-0.011,-0.084l-0.013,-0.086l-0.013,-0.087l-0.015,-0.088l-0.016,-0.089l-0.017,-0.091l-0.018,-0.092l-0.019,-0.093l-0.021,-0.094l-0.021,-0.096l-0.023,-0.097l-0.025,-0.098l-0.025,-0.1l-0.027,-0.101l-0.602,-2.173l2.023,0.923Z" style="fill:#000;"/><path d="M10.473,1.778l0.112,0.001l0.112,0.002l0.111,0.004l0.111,0.004l0.11,0.005l0.111,0.006l0.109,0.008l0.108,0.008l0.108,0.009l0.109,0.011l0.107,0.011l0.106,0.012l0.106,0.013l0.105,0.014l0.106,0.016l0.104,0.016l0.104,0.017l0.103,0.018l0.104,0.019l0.102,0.02l0.101,0.02l0.102,0.022l0.1,0.023l0.101,0.024l0.099,0.024l0.099,0.025l0.099,0.027l0.098,0.027l0.096,0.028l0.097,0.029l0.097,0.03l0.096,0.031l0.094,0.032l0.095,0.032l0.093,0.033l0.093,0.035l0.094,0.035l0.092,0.036l0.091,0.036l0.091,0.038l0.09,0.038l0.089,0.04l0.09,0.04l0.088,0.04l0.088,0.042l0.087,0.043l0.087,0.043l0.086,0.044l0.085,0.044l0.085,0.046l0.085,0.046l0.083,0.047l0.082,0.048l0.083,0.048l0.081,0.049l0.081,0.05l0.081,0.051l0.08,0.052l0.079,0.051l0.078,0.053l0.079,0.054l0.077,0.054l0.076,0.054l0.076,0.056l0.076,0.056l0.074,0.057l0.074,0.057l0.074,0.058l0.072,0.059l0.072,0.059l0.071,0.059l0.072,0.061l0.07,0.062l0.069,0.061l0.069,0.062l0.069,0.063l0.067,0.064l0.067,0.064l0.066,0.064l0.066,0.065l0.065,0.066l0.064,0.066l0.064,0.066l0.064,0.069l0.123,0.135l0.122,0.138l0.119,0.14l0.116,0.142l0.114,0.144l0.111,0.145l0.108,0.147l0.106,0.15l0.104,0.15l0.1,0.152l0.099,0.154l0.095,0.156l0.093,0.157l0.091,0.158l0.088,0.159l0.085,0.161l0.083,0.163l0.08,0.163l0.078,0.165l0.075,0.165l0.073,0.167l0.07,0.168l0.068,0.169l0.065,0.17l0.062,0.17l0.06,0.172l0.057,0.172l0.055,0.174l0.053,0.173l0.05,0.175l0.047,0.175l0.045,0.176l0.042,0.177l0.04,0.177l0.037,0.177l0.035,0.178l0.033,0.179l0.029,0.178l0.028,0.179l0.024,0.18l0.023,0.179l0.019,0.18l0.018,0.18l0.014,0.18l0.013,0.18l0.009,0.18l0.008,0.18l0.004,0.18l0.002,0.18l0,0.18l-0.003,0.18l-0.005,0.18l-0.008,0.179l-0.011,0.179l-0.013,0.178l-0.015,0.179l-0.018,0.178l-0.021,0.177l-0.023,0.177l-0.026,0.176l-0.028,0.176l-0.031,0.176l-0.034,0.174l-0.036,0.174l-0.039,0.173l-0.041,0.173l-0.044,0.171l-0.046,0.171l-0.049,0.17l-0.052,0.168l-0.055,0.168l-0.057,0.167l-0.06,0.166l-0.062,0.164l-0.065,0.164l-0.068,0.162l-0.07,0.161l-0.074,0.159l-0.076,0.158l-0.078,0.157l-0.082,0.155l-0.084,0.154l-0.087,0.152l-0.089,0.15l-0.111,0.179l-0.061,0.081l-0.031,0.044l-0.038,0.054l-0.044,0.065l-0.101,0.15l-0.06,0.086l-0.063,0.091l-0.07,0.096l-0.075,0.101l-0.081,0.104l-0.085,0.105l-0.048,0.056l-0.047,0.055l-0.049,0.056l-0.051,0.056l-0.053,0.056l-0.054,0.056l-0.056,0.057l-0.058,0.056l-0.06,0.057l-0.062,0.056l-0.063,0.057l-0.066,0.057l-0.068,0.055l-0.069,0.055l-0.072,0.056l-0.073,0.055l-0.076,0.054l-0.077,0.054l-0.08,0.053l-0.082,0.052l-0.084,0.051l-0.086,0.051l-0.088,0.049l-0.091,0.049l-0.092,0.047l-0.095,0.047l-0.096,0.045l-0.099,0.044l-0.102,0.043l-0.103,0.042l-0.106,0.04l-0.108,0.039l-0.11,0.037l-0.112,0.036l-0.115,0.034l-0.117,0.033l-0.119,0.031l-0.122,0.03l-0.124,0.028l-0.118,0.024l-0.406,-1.958l0.102,-0.021l0.091,-0.021l0.087,-0.021l0.086,-0.023l0.083,-0.023l0.081,-0.024l0.078,-0.025l0.076,-0.026l0.073,-0.026l0.072,-0.027l0.069,-0.028l0.067,-0.028l0.065,-0.029l0.063,-0.03l0.061,-0.03l0.06,-0.03l0.057,-0.031l0.056,-0.031l0.054,-0.032l0.052,-0.032l0.051,-0.033l0.049,-0.032l0.048,-0.033l0.047,-0.034l0.045,-0.033l0.043,-0.034l0.043,-0.034l0.042,-0.035l0.039,-0.034l0.039,-0.034l0.038,-0.035l0.037,-0.036l0.036,-0.035l0.035,-0.035l0.035,-0.035l0.033,-0.036l0.032,-0.035l0.032,-0.036l0.031,-0.036l0.028,-0.033l0.06,-0.075l0.056,-0.072l0.054,-0.072l0.052,-0.072l0.051,-0.072l0.049,-0.072l0.099,-0.145l0.049,-0.073l0.051,-0.074l0.055,-0.076l0.022,-0.03l0.054,-0.087l0.071,-0.119l0.068,-0.12l0.067,-0.122l0.065,-0.124l0.063,-0.125l0.061,-0.127l0.059,-0.128l0.057,-0.13l0.054,-0.131l0.053,-0.132l0.051,-0.134l0.048,-0.134l0.047,-0.136l0.044,-0.137l0.043,-0.139l0.04,-0.139l0.039,-0.141l0.036,-0.141l0.034,-0.143l0.032,-0.143l0.03,-0.145l0.028,-0.145l0.026,-0.146l0.023,-0.146l0.022,-0.148l0.019,-0.148l0.018,-0.148l0.015,-0.149l0.013,-0.15l0.011,-0.15l0.009,-0.151l0.006,-0.151l0.005,-0.151l0.002,-0.152l0,-0.152l-0.001,-0.152l-0.004,-0.152l-0.006,-0.152l-0.009,-0.152l-0.01,-0.153l-0.013,-0.152l-0.014,-0.152l-0.017,-0.152l-0.019,-0.152l-0.021,-0.152l-0.023,-0.152l-0.025,-0.151l-0.027,-0.151l-0.03,-0.15l-0.031,-0.15l-0.034,-0.149l-0.036,-0.149l-0.037,-0.149l-0.04,-0.147l-0.042,-0.147l-0.044,-0.147l-0.047,-0.145l-0.048,-0.145l-0.05,-0.144l-0.052,-0.143l-0.055,-0.142l-0.056,-0.141l-0.059,-0.14l-0.06,-0.139l-0.063,-0.138l-0.065,-0.137l-0.066,-0.136l-0.069,-0.134l-0.07,-0.133l-0.073,-0.132l-0.075,-0.131l-0.076,-0.129l-0.079,-0.127l-0.08,-0.126l-0.083,-0.125l-0.084,-0.123l-0.087,-0.122l-0.088,-0.12l-0.091,-0.118l-0.092,-0.117l-0.094,-0.115l-0.096,-0.113l-0.098,-0.111l-0.102,-0.111l-0.049,-0.053l-0.051,-0.053l-0.052,-0.054l-0.052,-0.052l-0.053,-0.052l-0.053,-0.052l-0.053,-0.051l-0.054,-0.051l-0.055,-0.05l-0.055,-0.05l-0.056,-0.05l-0.056,-0.048l-0.056,-0.048l-0.057,-0.048l-0.057,-0.047l-0.058,-0.047l-0.059,-0.046l-0.058,-0.046l-0.06,-0.045l-0.06,-0.044l-0.06,-0.044l-0.061,-0.044l-0.061,-0.043l-0.062,-0.042l-0.062,-0.042l-0.063,-0.041l-0.063,-0.041l-0.064,-0.04l-0.064,-0.039l-0.065,-0.04l-0.065,-0.038l-0.066,-0.038l-0.066,-0.037l-0.066,-0.036l-0.067,-0.036l-0.068,-0.036l-0.069,-0.035l-0.068,-0.034l-0.069,-0.034l-0.07,-0.033l-0.07,-0.032l-0.071,-0.032l-0.071,-0.031l-0.072,-0.031l-0.072,-0.029l-0.073,-0.03l-0.073,-0.028l-0.074,-0.028l-0.074,-0.028l-0.075,-0.026l-0.076,-0.026l-0.076,-0.026l-0.076,-0.024l-0.077,-0.024l-0.077,-0.023l-0.079,-0.023l-0.078,-0.022l-0.079,-0.021l-0.08,-0.02l-0.08,-0.02l-0.081,-0.019l-0.081,-0.019l-0.082,-0.017l-0.083,-0.017l-0.083,-0.016l-0.083,-0.016l-0.084,-0.014l-0.085,-0.014l-0.086,-0.013l-0.085,-0.013l-0.086,-0.011l-0.087,-0.011l-0.088,-0.01l-0.089,-0.009l-0.022,-0.003l-0.008,0.096l-0.011,0.11l-0.014,0.11l-0.016,0.109l-0.019,0.106l-0.02,0.106l-0.023,0.104l-0.024,0.103l-0.027,0.101l-0.028,0.099l-0.029,0.098l-0.031,0.097l-0.032,0.095l-0.033,0.093l-0.034,0.091l-0.035,0.09l-0.036,0.089l-0.037,0.086l-0.037,0.085l-0.038,0.083l-0.038,0.081l-0.039,0.08l-0.039,0.078l-0.039,0.075l-0.04,0.076l-0.076,0.14l-0.078,0.134l-0.075,0.126l-0.073,0.116l-0.07,0.109l-0.066,0.099l-0.062,0.089l-0.057,0.08l-0.05,0.069l-0.046,0.061l-0.064,0.083l-0.023,0.028l-0.031,0.039l-0.048,0.057l-0.063,0.074l-0.084,0.095l-0.106,0.118l-0.13,0.142l-0.157,0.167l-0.187,0.196l-0.217,0.224l-0.252,0.256l-0.287,0.288l-0.326,0.322l-0.365,0.358l-0.2,0.194l-0.21,0.203l-0.221,0.212l-0.299,0.286l-0.141,0.092l-0.054,0.037l-0.053,0.038l-0.051,0.038l-0.049,0.039l-0.049,0.04l-0.048,0.041l-0.047,0.042l-0.046,0.043l-0.045,0.043l-0.044,0.045l-0.043,0.045l-0.042,0.047l-0.041,0.047l-0.04,0.047l-0.04,0.05l-0.038,0.05l-0.038,0.051l-0.036,0.051l-0.036,0.053l-0.035,0.053l-0.034,0.055l-0.034,0.055l-0.032,0.055l-0.032,0.057l-0.031,0.058l-0.029,0.059l-0.03,0.059l-0.028,0.06l-0.027,0.061l-0.027,0.062l-0.026,0.062l-0.024,0.063l-0.024,0.064l-0.024,0.065l-0.022,0.065l-0.022,0.066l-0.02,0.067l-0.02,0.067l-0.019,0.068l-0.018,0.068l-0.017,0.069l-0.017,0.069l-0.015,0.07l-0.015,0.071l-0.014,0.071l-0.013,0.072l-0.012,0.071l-0.012,0.072l-0.01,0.073l-0.01,0.073l-0.009,0.073l-0.008,0.073l-0.008,0.074l-0.006,0.074l-0.006,0.074l-0.005,0.075l-0.004,0.074l-0.003,0.075l-0.003,0.075l-0.002,0.074l-0.001,0.075l0,0.075l0.001,0.075l0.001,0.075l0.002,0.075l0.003,0.074l0.003,0.075l0.004,0.074l0.005,0.075l0.006,0.074l0.006,0.074l0.007,0.073l0.007,0.073l0.008,0.074l0.009,0.072l0.01,0.072l0.01,0.072l0.011,0.072l0.011,0.069l0.025,0.143l0.026,0.138l0.029,0.136l0.031,0.134l0.033,0.131l0.035,0.127l0.038,0.127l0.018,0.059l0.019,0.06l0.02,0.059l0.02,0.058l0.02,0.057l0.021,0.056l0.021,0.055l0.021,0.054l0.022,0.052l0.022,0.052l0.022,0.05l0.022,0.049l0.022,0.048l0.022,0.047l0.023,0.045l0.022,0.043l0.023,0.043l0.022,0.041l0.023,0.039l0.022,0.037l0.022,0.037l0.022,0.035l0.022,0.032l0.022,0.032l0.021,0.03l0.02,0.027l0.021,0.027l0.019,0.024l0.019,0.022l0.018,0.021l0.017,0.018l0.016,0.017l0.016,0.016l0.069,0.064l0.077,0.091l0.034,0.04l0.034,0.039l0.036,0.04l0.036,0.039l0.038,0.039l0.038,0.04l0.039,0.039l0.04,0.04l0.041,0.039l0.042,0.039l0.043,0.039l0.044,0.039l0.045,0.039l0.046,0.039l0.047,0.039l0.047,0.038l0.049,0.038l0.05,0.038l0.051,0.038l0.052,0.038l0.053,0.037l0.054,0.037l0.055,0.037l0.056,0.037l0.057,0.036l0.059,0.036l0.059,0.036l0.061,0.036l0.061,0.035l0.063,0.034l0.064,0.035l0.065,0.033l0.066,0.034l0.067,0.033l0.069,0.033l0.07,0.032l0.071,0.031l0.073,0.032l0.073,0.031l0.074,0.03l0.076,0.029l0.078,0.03l0.078,0.028l0.079,0.028l0.082,0.027l0.082,0.027l0.084,0.026l0.085,0.025l0.086,0.025l0.088,0.024l0.089,0.024l0.09,0.022l0.092,0.022l0.093,0.021l0.095,0.021l0.096,0.019l0.097,0.019l0.099,0.018l0.1,0.017l0.102,0.016l0.103,0.015l0.105,0.015l0.111,0.014l-0.252,1.984l-0.121,-0.016l-0.126,-0.017l-0.124,-0.018l-0.122,-0.02l-0.122,-0.02l-0.12,-0.022l-0.119,-0.023l-0.117,-0.024l-0.116,-0.025l-0.115,-0.026l-0.114,-0.027l-0.112,-0.028l-0.111,-0.029l-0.109,-0.03l-0.108,-0.031l-0.107,-0.032l-0.106,-0.033l-0.105,-0.034l-0.102,-0.035l-0.102,-0.035l-0.101,-0.037l-0.099,-0.037l-0.098,-0.038l-0.097,-0.04l-0.096,-0.04l-0.093,-0.04l-0.093,-0.042l-0.092,-0.042l-0.09,-0.043l-0.09,-0.044l-0.088,-0.044l-0.086,-0.046l-0.086,-0.045l-0.084,-0.047l-0.083,-0.047l-0.081,-0.048l-0.081,-0.048l-0.079,-0.049l-0.078,-0.05l-0.077,-0.05l-0.075,-0.05l-0.074,-0.051l-0.074,-0.052l-0.072,-0.053l-0.07,-0.052l-0.07,-0.053l-0.068,-0.053l-0.067,-0.055l-0.066,-0.054l-0.064,-0.054l-0.064,-0.056l-0.062,-0.055l-0.062,-0.056l-0.059,-0.056l-0.059,-0.056l-0.058,-0.056l-0.056,-0.057l-0.056,-0.057l-0.054,-0.057l-0.053,-0.058l-0.052,-0.057l-0.051,-0.058l-0.049,-0.057l-0.005,-0.007l0.001,0.002l-0.052,-0.052l-0.051,-0.052l-0.05,-0.054l-0.048,-0.055l-0.047,-0.056l-0.046,-0.057l-0.044,-0.058l-0.044,-0.059l-0.043,-0.06l-0.041,-0.06l-0.041,-0.062l-0.039,-0.062l-0.039,-0.064l-0.039,-0.065l-0.037,-0.065l-0.037,-0.066l-0.035,-0.067l-0.035,-0.069l-0.035,-0.069l-0.033,-0.07l-0.034,-0.07l-0.032,-0.072l-0.031,-0.072l-0.031,-0.073l-0.031,-0.075l-0.029,-0.075l-0.029,-0.075l-0.028,-0.077l-0.028,-0.077l-0.027,-0.078l-0.026,-0.079l-0.026,-0.08l-0.026,-0.082l-0.047,-0.161l-0.045,-0.165l-0.042,-0.168l-0.04,-0.17l-0.037,-0.173l-0.034,-0.175l-0.03,-0.175l-0.015,-0.092l-0.013,-0.089l-0.013,-0.091l-0.012,-0.091l-0.011,-0.091l-0.01,-0.091l-0.01,-0.092l-0.008,-0.092l-0.008,-0.093l-0.007,-0.093l-0.006,-0.093l-0.005,-0.094l-0.005,-0.094l-0.003,-0.094l-0.003,-0.094l-0.001,-0.095l-0.001,-0.095l0.001,-0.095l0.001,-0.095l0.002,-0.096l0.003,-0.095l0.005,-0.096l0.005,-0.095l0.006,-0.096l0.008,-0.096l0.008,-0.096l0.01,-0.096l0.01,-0.096l0.012,-0.096l0.013,-0.096l0.014,-0.096l0.015,-0.096l0.016,-0.096l0.018,-0.096l0.019,-0.095l0.02,-0.096l0.021,-0.095l0.022,-0.095l0.024,-0.095l0.025,-0.095l0.027,-0.094l0.027,-0.095l0.03,-0.093l0.03,-0.094l0.032,-0.093l0.033,-0.093l0.035,-0.092l0.036,-0.093l0.038,-0.091l0.039,-0.091l0.041,-0.091l0.042,-0.09l0.044,-0.089l0.046,-0.089l0.047,-0.088l0.049,-0.088l0.05,-0.087l0.052,-0.086l0.054,-0.086l0.055,-0.084l0.057,-0.084l0.059,-0.083l0.061,-0.082l0.063,-0.081l0.063,-0.08l0.067,-0.079l0.068,-0.078l0.069,-0.076l0.072,-0.076l0.073,-0.074l0.075,-0.073l0.076,-0.071l0.08,-0.071l0.08,-0.069l0.082,-0.067l0.084,-0.066l0.086,-0.065l0.088,-0.062l0.089,-0.061l0.004,-0.003l0.163,-0.156l0.218,-0.209l0.206,-0.199l0.194,-0.189l0.359,-0.351l0.317,-0.314l0.278,-0.279l0.242,-0.245l0.207,-0.214l0.175,-0.183l0.144,-0.155l0.117,-0.127l0.091,-0.1l0.068,-0.077l0.046,-0.054l0.025,-0.03l0.022,-0.028l0.015,-0.017l0.04,-0.053l0.029,-0.038l0.036,-0.05l0.041,-0.057l0.046,-0.067l0.049,-0.074l0.053,-0.081l0.055,-0.089l0.057,-0.094l0.058,-0.101l0.059,-0.108l0.028,-0.053l0.029,-0.056l0.028,-0.057l0.029,-0.058l0.027,-0.058l0.027,-0.06l0.027,-0.061l0.026,-0.061l0.025,-0.062l0.025,-0.062l0.023,-0.063l0.023,-0.063l0.021,-0.064l0.02,-0.064l0.019,-0.063l0.018,-0.064l0.017,-0.064l0.015,-0.064l0.014,-0.064l0.013,-0.063l0.011,-0.064l0.009,-0.063l0.008,-0.062l0.006,-0.062l0.005,-0.061l0.003,-0.061l0.001,-0.06l0,-0.059l-0.002,-0.059l-0.004,-0.058l-0.005,-0.057l-0.007,-0.056l-0.009,-0.056l-0.011,-0.06l-0.005,-0.023l-0.007,-0.027l-0.006,-0.027l-0.277,-1.014l0.209,-0.277l1.124,-0.008l0.113,0Z" style="fill:#000;"/></g></svg>