<?xml version="1.0" encoding="UTF-8" standalone="no"?><!DOCTYPE svg PUBLIC "-//W3C//DTD SVG 1.1//EN" "http://www.w3.org/Graphics/SVG/1.1/DTD/svg11.dtd"><svg width="100%" height="100%" viewBox="0 0 24 24" version="1.1" xmlns="http://www.w3.org/2000/svg" xmlns:xlink="http://www.w3.org/1999/xlink" xml:space="preserve" style="fill-rule:evenodd;clip-rule:evenodd;stroke-linejoin:round;stroke-miterlimit:1.41421;"><g id="folder"><path d="M20.033,6c0.231,0.003 0.459,0.04 0.677,0.119c0.538,0.198 0.973,0.633 1.171,1.171c0.073,0.202 0.11,0.412 0.118,0.626c0.052,4.056 0.052,8.112 0,12.168c-0.008,0.214 -0.045,0.424 -0.118,0.626c-0.192,0.523 -0.608,0.949 -1.127,1.154c-0.214,0.084 -0.44,0.127 -0.67,0.135c-5.389,0.069 -10.779,0.069 -16.168,0c-0.214,-0.008 -0.424,-0.045 -0.626,-0.118c-0.523,-0.192 -0.949,-0.608 -1.154,-1.127c-0.084,-0.214 -0.127,-0.44 -0.135,-0.67c-0.052,-4.056 -0.052,-8.112 0,-12.168c0.008,-0.214 0.045,-0.424 0.118,-0.626c0.192,-0.523 0.608,-0.949 1.127,-1.154c0.214,-0.084 0.44,-0.127 0.67,-0.135c5.372,-0.068 10.745,-0.001 16.117,-0.001ZM4,8l0,12l16,0l0,-12c-5.333,0 -10.667,0 -16,0Z" style="fill:#000;fill-rule:nonzero;"/><path d="M11.235,2.001c0.149,0.005 0.298,0.018 0.445,0.044c0.389,0.068 0.764,0.213 1.098,0.424c0.169,0.106 0.323,0.23 0.469,0.365l0.05,0.048l3.41,3.411l-1.414,1.414c-1.147,-1.147 -2.254,-2.337 -3.443,-3.441c-0.031,-0.028 -0.064,-0.054 -0.098,-0.078c-0.17,-0.116 -0.362,-0.18 -0.568,-0.188c-1.555,-0.023 -3.114,-0.079 -4.667,0.002c-0.328,0.024 -0.63,0.201 -0.805,0.481c-0.054,0.085 -0.093,0.178 -0.121,0.275l-0.006,0.027l-0.615,2.458l-1.94,-0.486c0.21,-0.841 0.412,-1.685 0.632,-2.525c0.018,-0.062 0.036,-0.123 0.057,-0.184c0.084,-0.24 0.193,-0.468 0.333,-0.681c0.375,-0.572 0.944,-1.006 1.594,-1.218c0.283,-0.092 0.576,-0.138 0.873,-0.148c1.572,-0.017 3.144,-0.023 4.716,0Z" style="fill:#000;fill-rule:nonzero;"/></g></svg>