<?xml version="1.0" encoding="UTF-8" standalone="no"?><!DOCTYPE svg PUBLIC "-//W3C//DTD SVG 1.1//EN" "http://www.w3.org/Graphics/SVG/1.1/DTD/svg11.dtd"><svg width="100%" height="100%" viewBox="0 0 24 24" version="1.1" xmlns="http://www.w3.org/2000/svg" xmlns:xlink="http://www.w3.org/1999/xlink" xml:space="preserve" style="fill-rule:evenodd;clip-rule:evenodd;stroke-linejoin:round;stroke-miterlimit:1.41421;"><g id="fullscreen"><path d="M22,18.01c-0.006,0.232 -0.042,0.458 -0.122,0.676c-0.2,0.549 -0.643,0.991 -1.192,1.192c-0.218,0.08 -0.444,0.116 -0.675,0.122l-5.011,0l0,-2c1.661,0 3.323,0 4.984,0c0.009,0 0.012,0.003 0.016,-0.002c0.002,-0.003 0,-0.009 0,-0.013l0,-4.985l2,0c0,1.67 0,3.34 0,5.01Z" style="fill:#000;fill-rule:nonzero;"/><path d="M4,17.985c0,0.008 -0.003,0.011 0.001,0.015c0.004,0.002 0.01,0 0.015,0l4.984,0l0,2l-5.011,0l-0.089,-0.002c-0.234,-0.018 -0.461,-0.064 -0.678,-0.156c-0.538,-0.228 -0.959,-0.691 -1.132,-1.249c-0.059,-0.19 -0.085,-0.384 -0.09,-0.583l0,-5.01l2,0c0,1.662 0,3.323 0,4.985Z" style="fill:#000;fill-rule:nonzero;"/><path d="M9,6c-1.662,0 -3.323,0 -4.985,0c-0.008,0 -0.011,-0.003 -0.015,0.002c-0.002,0.003 0,0.009 0,0.013l0,4.985l-2,0l0,-5.01l0.002,-0.09c0.007,-0.089 0.007,-0.112 0.021,-0.201c0.025,-0.164 0.07,-0.324 0.135,-0.476c0.227,-0.539 0.691,-0.96 1.25,-1.133c0.19,-0.059 0.384,-0.085 0.582,-0.09l5.01,0c0,0.667 0,1.333 0,2Z" style="fill:#000;fill-rule:nonzero;"/><path d="M20.1,4.002c0.089,0.007 0.113,0.007 0.201,0.021c0.164,0.025 0.324,0.07 0.476,0.135c0.539,0.227 0.96,0.691 1.133,1.249c0.059,0.19 0.085,0.384 0.09,0.583l0,5.01l-2,0c0,-1.662 0,-3.323 0,-4.985c0,-0.008 0.003,-0.011 -0.002,-0.015c-0.003,-0.002 -0.008,0 -0.013,0l-4.985,0l0,-2c1.7,0 3.4,-0.04 5.1,0.002Z" style="fill:#000;fill-rule:nonzero;"/><path d="M17.084,8.001l0.048,0.004l0.047,0.006l0.047,0.008l0.046,0.01l0.045,0.013l0.045,0.014l0.043,0.017l0.043,0.019l0.042,0.021l0.041,0.024l0.04,0.025l0.039,0.027l0.037,0.029l0.036,0.031l0.035,0.033l0.033,0.035l0.031,0.036l0.029,0.037l0.027,0.039l0.025,0.04l0.024,0.041l0.021,0.042l0.019,0.043l0.017,0.043l0.014,0.045l0.013,0.045l0.01,0.046l0.008,0.047l0.006,0.047l0.004,0.048l0.001,0.047l0,6.074l-0.001,0.047l-0.004,0.048l-0.006,0.047l-0.008,0.047l-0.01,0.046l-0.013,0.045l-0.014,0.045l-0.017,0.043l-0.019,0.043l-0.021,0.042l-0.024,0.041l-0.025,0.04l-0.027,0.039l-0.029,0.037l-0.031,0.036l-0.033,0.035l-0.035,0.033l-0.036,0.031l-0.037,0.029l-0.039,0.027l-0.04,0.025l-0.041,0.024l-0.042,0.021l-0.043,0.019l-0.043,0.017l-0.045,0.014l-0.045,0.013l-0.046,0.01l-0.047,0.008l-0.047,0.006l-0.048,0.004l-0.047,0.001l-10.074,0l-0.047,-0.001l-0.048,-0.004l-0.047,-0.006l-0.047,-0.008l-0.046,-0.01l-0.045,-0.013l-0.045,-0.014l-0.043,-0.017l-0.043,-0.019l-0.042,-0.021l-0.041,-0.024l-0.04,-0.025l-0.039,-0.027l-0.037,-0.029l-0.036,-0.031l-0.035,-0.033l-0.033,-0.035l-0.031,-0.036l-0.029,-0.037l-0.027,-0.039l-0.025,-0.04l-0.024,-0.041l-0.021,-0.042l-0.019,-0.043l-0.017,-0.043l-0.014,-0.045l-0.013,-0.045l-0.01,-0.046l-0.008,-0.047l-0.006,-0.047l-0.004,-0.048l-0.001,-0.047l0,-6.074l0.001,-0.047l0.004,-0.048l0.006,-0.047l0.008,-0.047l0.01,-0.046l0.013,-0.045l0.014,-0.045l0.017,-0.043l0.019,-0.043l0.021,-0.042l0.024,-0.041l0.025,-0.04l0.027,-0.039l0.029,-0.037l0.031,-0.036l0.033,-0.035l0.035,-0.033l0.036,-0.031l0.037,-0.029l0.039,-0.027l0.04,-0.025l0.041,-0.024l0.042,-0.021l0.043,-0.019l0.043,-0.017l0.045,-0.014l0.045,-0.013l0.046,-0.01l0.047,-0.008l0.047,-0.006l0.048,-0.004l0.047,-0.001l10.074,0l0.047,0.001ZM8,10l0,4l8,0l0,-4l-8,0Z" style="fill:#000;"/></g></svg>