<?xml version="1.0" encoding="UTF-8" standalone="no"?><!DOCTYPE svg PUBLIC "-//W3C//DTD SVG 1.1//EN" "http://www.w3.org/Graphics/SVG/1.1/DTD/svg11.dtd"><svg width="100%" height="100%" viewBox="0 0 24 24" version="1.1" xmlns="http://www.w3.org/2000/svg" xmlns:xlink="http://www.w3.org/1999/xlink" xml:space="preserve" style="fill-rule:evenodd;clip-rule:evenodd;stroke-linejoin:round;stroke-miterlimit:1.41421;"><g id="github"><path d="M12.008,2.248c-5.529,0 -10.008,4.471 -10.008,9.986c0,4.413 2.867,8.155 6.843,9.475c0.501,0.093 0.684,-0.215 0.684,-0.481c0,-0.237 -0.008,-0.865 -0.012,-1.698c-2.785,0.603 -3.372,-1.339 -3.372,-1.339c-0.455,-1.153 -1.113,-1.46 -1.113,-1.46c-0.907,-0.62 0.07,-0.607 0.07,-0.607c1.005,0.07 1.533,1.028 1.533,1.028c0.893,1.527 2.343,1.086 2.914,0.831c0.091,-0.646 0.348,-1.086 0.635,-1.336c-2.223,-0.25 -4.559,-1.109 -4.559,-4.935c0,-1.089 0.388,-1.981 1.03,-2.68c-0.104,-0.252 -0.448,-1.267 0.096,-2.642c0,0 0.841,-0.269 2.752,1.023c0.798,-0.222 1.655,-0.332 2.506,-0.337c0.851,0.005 1.706,0.115 2.506,0.337c1.91,-1.292 2.75,-1.023 2.75,-1.023c0.546,1.375 0.204,2.39 0.1,2.642c0.641,0.699 1.029,1.591 1.029,2.68c0,3.836 -2.339,4.681 -4.57,4.927c0.359,0.307 0.68,0.918 0.68,1.848c0,1.336 -0.013,2.413 -0.013,2.74c0,0.268 0.18,0.578 0.688,0.481c3.975,-1.322 6.84,-5.062 6.84,-9.474c0,-5.515 -4.482,-9.986 -10.009,-9.986" style="fill:#000;"/></g></svg>