<?xml version="1.0" encoding="UTF-8" standalone="no"?><!DOCTYPE svg PUBLIC "-//W3C//DTD SVG 1.1//EN" "http://www.w3.org/Graphics/SVG/1.1/DTD/svg11.dtd"><svg width="100%" height="100%" viewBox="0 0 24 24" version="1.1" xmlns="http://www.w3.org/2000/svg" xmlns:xlink="http://www.w3.org/1999/xlink" xml:space="preserve" style="fill-rule:evenodd;clip-rule:evenodd;stroke-linejoin:round;stroke-miterlimit:1.41421;"><g id="glas"><path d="M19.692,2l0.055,0.001l0.054,0.002l0.054,0.004l0.053,0.005l0.054,0.006l0.053,0.008l0.052,0.009l0.053,0.011l0.052,0.012l0.051,0.014l0.052,0.015l0.05,0.016l0.051,0.017l0.049,0.019l0.049,0.02l0.049,0.022l0.048,0.022l0.048,0.024l0.046,0.026l0.047,0.026l0.045,0.028l0.045,0.029l0.044,0.03l0.043,0.031l0.042,0.033l0.042,0.034l0.041,0.035l0.039,0.036l0.039,0.037l0.039,0.038l0.037,0.04l0.036,0.04l0.035,0.042l0.033,0.042l0.033,0.043l0.031,0.044l0.03,0.045l0.029,0.045l0.028,0.046l0.026,0.046l0.025,0.048l0.023,0.047l0.023,0.049l0.021,0.049l0.019,0.049l0.019,0.05l0.017,0.05l0.015,0.051l0.015,0.051l0.012,0.052l0.012,0.052l0.01,0.052l0.009,0.053l0.007,0.052l0.006,0.053l0.005,0.054l0.003,0.053l0.002,0.053l0,0.054l-0.001,0.054l-0.002,0.054l-0.004,0.054l-0.006,0.053l-0.007,0.054l-2.297,16l-0.007,0.046l-0.008,0.046l-0.01,0.045l-0.01,0.045l-0.011,0.044l-0.012,0.044l-0.013,0.044l-0.014,0.043l-0.015,0.042l-0.016,0.042l-0.017,0.042l-0.017,0.041l-0.019,0.041l-0.019,0.04l-0.02,0.04l-0.021,0.039l-0.022,0.038l-0.023,0.038l-0.023,0.038l-0.025,0.037l-0.025,0.036l-0.026,0.035l-0.026,0.035l-0.027,0.035l-0.028,0.034l-0.029,0.033l-0.03,0.032l-0.03,0.032l-0.031,0.031l-0.031,0.031l-0.032,0.029l-0.033,0.029l-0.033,0.029l-0.034,0.027l-0.035,0.027l-0.035,0.026l-0.036,0.025l-0.036,0.025l-0.037,0.024l-0.038,0.023l-0.038,0.022l-0.038,0.021l-0.039,0.021l-0.039,0.019l-0.04,0.019l-0.041,0.018l-0.041,0.017l-0.041,0.016l-0.041,0.016l-0.043,0.014l-0.042,0.014l-0.043,0.012l-0.043,0.012l-0.044,0.01l-0.044,0.01l-0.044,0.009l-0.045,0.007l-0.045,0.007l-0.045,0.006l-0.045,0.005l-0.046,0.003l-0.046,0.003l-0.046,0.001l-0.047,0.001l-10.79,0l-0.047,-0.001l-0.046,-0.001l-0.046,-0.003l-0.046,-0.003l-0.045,-0.005l-0.045,-0.006l-0.045,-0.007l-0.045,-0.007l-0.044,-0.009l-0.044,-0.01l-0.044,-0.01l-0.043,-0.012l-0.043,-0.012l-0.042,-0.014l-0.043,-0.014l-0.041,-0.016l-0.041,-0.016l-0.041,-0.017l-0.041,-0.018l-0.04,-0.019l-0.039,-0.019l-0.039,-0.021l-0.038,-0.021l-0.038,-0.022l-0.038,-0.023l-0.037,-0.024l-0.036,-0.025l-0.036,-0.025l-0.035,-0.026l-0.035,-0.027l-0.034,-0.027l-0.033,-0.029l-0.033,-0.029l-0.032,-0.029l-0.031,-0.031l-0.031,-0.031l-0.03,-0.032l-0.03,-0.032l-0.029,-0.033l-0.028,-0.034l-0.027,-0.035l-0.026,-0.035l-0.026,-0.035l-0.025,-0.036l-0.025,-0.037l-0.023,-0.038l-0.023,-0.038l-0.022,-0.038l-0.021,-0.039l-0.02,-0.04l-0.019,-0.04l-0.019,-0.041l-0.017,-0.041l-0.017,-0.042l-0.016,-0.042l-0.015,-0.042l-0.014,-0.043l-0.013,-0.044l-0.012,-0.044l-0.011,-0.044l-0.01,-0.045l-0.01,-0.045l-0.008,-0.046l-0.007,-0.046l-2.297,-16l-0.007,-0.054l-0.006,-0.053l-0.004,-0.054l-0.002,-0.054l-0.001,-0.054l0,-0.054l0.002,-0.053l0.003,-0.053l0.005,-0.054l0.006,-0.053l0.007,-0.052l0.009,-0.053l0.01,-0.052l0.012,-0.052l0.012,-0.052l0.015,-0.051l0.015,-0.051l0.017,-0.05l0.019,-0.05l0.019,-0.049l0.021,-0.049l0.023,-0.049l0.023,-0.047l0.025,-0.048l0.026,-0.046l0.028,-0.046l0.029,-0.045l0.03,-0.045l0.031,-0.044l0.033,-0.043l0.033,-0.042l0.035,-0.042l0.036,-0.04l0.037,-0.04l0.039,-0.038l0.039,-0.037l0.039,-0.036l0.041,-0.035l0.042,-0.034l0.042,-0.033l0.043,-0.031l0.044,-0.03l0.045,-0.029l0.045,-0.028l0.047,-0.026l0.046,-0.026l0.048,-0.024l0.048,-0.022l0.049,-0.022l0.049,-0.02l0.049,-0.019l0.051,-0.017l0.05,-0.016l0.052,-0.015l0.051,-0.014l0.052,-0.012l0.053,-0.011l0.052,-0.009l0.053,-0.008l0.054,-0.006l0.053,-0.005l0.054,-0.004l0.054,-0.002l0.055,-0.001l15.384,0ZM4.321,4l-0.013,0l0.002,0.013l2.293,15.973l0.002,0.013l0,0.001l0.012,0l10.766,0l0.012,0l0.002,-0.014l2.293,-15.973l0.002,-0.013l-0.013,0l-15.358,0Z" style="fill:#000;"/><path d="M9.184,7.001c0.66,0.008 1.321,0.041 1.976,0.131c0.443,0.061 0.879,0.152 1.313,0.26c0.39,0.104 0.778,0.219 1.168,0.324c0.297,0.076 0.596,0.143 0.899,0.188c0.529,0.078 1.064,0.101 1.598,0.095c0.462,-0.004 0.924,-0.031 1.382,-0.096c0.407,-0.058 0.815,-0.144 1.2,-0.291c0.124,-0.047 0.246,-0.101 0.362,-0.167c0.041,-0.023 0.081,-0.047 0.119,-0.074c0.015,-0.01 0.031,-0.022 0.045,-0.033c0.004,-0.003 0.008,-0.006 0.012,-0.009c0.002,-0.003 0.005,-0.005 0.007,-0.007c0.001,-0.001 0.004,-0.004 0.003,-0.003c-0.004,0.006 -0.009,0.01 -0.014,0.015l-0.001,0.002l1.494,1.328c-0.031,0.036 -0.064,0.069 -0.098,0.102c-0.291,0.271 -0.639,0.471 -1.003,0.628c-0.514,0.223 -1.062,0.362 -1.614,0.453c-0.671,0.112 -1.352,0.153 -2.032,0.153c-0.661,0 -1.324,-0.041 -1.976,-0.154c-0.299,-0.051 -0.596,-0.118 -0.889,-0.195c-0.335,-0.088 -0.666,-0.187 -0.999,-0.279c-0.136,-0.036 -0.272,-0.071 -0.409,-0.103c-0.278,-0.064 -0.558,-0.117 -0.841,-0.156c-0.624,-0.086 -1.256,-0.113 -1.886,-0.113c-0.749,0 -1.499,0.039 -2.241,0.146c-0.506,0.073 -1.011,0.177 -1.495,0.345c-0.147,0.052 -0.293,0.109 -0.434,0.177c-0.074,0.036 -0.149,0.074 -0.216,0.121l0.002,-0.001l-1.232,-1.576c0.037,-0.029 0.075,-0.056 0.113,-0.082c0.52,-0.345 1.123,-0.556 1.723,-0.713c1.055,-0.278 2.149,-0.378 3.238,-0.41c0.242,-0.005 0.484,-0.007 0.726,-0.006Z" style="fill:#000;fill-rule:nonzero;"/></g></svg>