<?xml version="1.0" encoding="UTF-8" standalone="no"?><!DOCTYPE svg PUBLIC "-//W3C//DTD SVG 1.1//EN" "http://www.w3.org/Graphics/SVG/1.1/DTD/svg11.dtd"><svg width="100%" height="100%" viewBox="0 0 24 24" version="1.1" xmlns="http://www.w3.org/2000/svg" xmlns:xlink="http://www.w3.org/1999/xlink" xml:space="preserve" style="fill-rule:evenodd;clip-rule:evenodd;stroke-linejoin:round;stroke-miterlimit:1.41421;"><g id="globe"><path d="M12.129,2.001c0.467,0.009 0.932,0.044 1.393,0.114c0.934,0.143 1.846,0.42 2.702,0.82c2.006,0.937 3.672,2.544 4.681,4.514c0.429,0.837 0.739,1.735 0.916,2.659c0.207,1.082 0.235,2.199 0.082,3.29c-0.143,1.017 -0.444,2.011 -0.89,2.936c-0.523,1.085 -1.243,2.072 -2.115,2.903c-0.903,0.861 -1.965,1.551 -3.12,2.023c-1.196,0.49 -2.485,0.74 -3.778,0.74c-1.293,0 -2.582,-0.25 -3.778,-0.74c-1.155,-0.472 -2.217,-1.162 -3.12,-2.023c-0.872,-0.831 -1.592,-1.818 -2.115,-2.903c-0.446,-0.925 -0.747,-1.919 -0.89,-2.936c-0.153,-1.091 -0.125,-2.208 0.082,-3.29c0.177,-0.924 0.487,-1.822 0.916,-2.659c1.009,-1.97 2.675,-3.577 4.681,-4.514c0.856,-0.4 1.768,-0.677 2.702,-0.82c0.461,-0.07 0.926,-0.105 1.393,-0.114c0.13,-0.001 0.129,-0.001 0.258,0ZM6.04,13l-1.978,0c0.005,0.04 0.01,0.08 0.016,0.12c0.109,0.781 0.335,1.544 0.669,2.258c0.408,0.874 0.976,1.671 1.666,2.345c0.596,0.582 1.283,1.071 2.029,1.443c-0.702,-0.89 -1.273,-1.882 -1.68,-2.941c-0.397,-1.034 -0.634,-2.123 -0.722,-3.225ZM19.938,13l-1.978,0c-0.088,1.102 -0.325,2.191 -0.722,3.225c-0.407,1.059 -0.978,2.051 -1.679,2.941c0.688,-0.343 1.326,-0.786 1.889,-1.31c0.706,-0.657 1.292,-1.441 1.721,-2.304c0.365,-0.733 0.615,-1.523 0.739,-2.332c0.011,-0.073 0.021,-0.147 0.03,-0.22ZM15.953,13l-2.953,0l0,6.002c1.064,-0.993 1.903,-2.228 2.409,-3.593c0.287,-0.776 0.465,-1.587 0.544,-2.409ZM11,19.002l0,-6.002l-2.952,0c0.092,0.961 0.32,1.907 0.698,2.799c0.495,1.165 1.234,2.219 2.143,3.098c0.037,0.035 0.074,0.07 0.111,0.105ZM8.441,4.834c-1.495,0.746 -2.741,1.962 -3.522,3.441c-0.35,0.664 -0.606,1.377 -0.756,2.112c-0.042,0.203 -0.075,0.407 -0.101,0.613l1.978,0c0.088,-1.102 0.325,-2.191 0.722,-3.225c0.407,-1.059 0.977,-2.051 1.679,-2.941ZM11,4.998c-1.09,1.018 -1.943,2.288 -2.445,3.694c-0.267,0.745 -0.433,1.522 -0.508,2.308l2.953,0l0,-6.002ZM13,4.998l0,6.002l2.952,0c-0.092,-0.961 -0.32,-1.907 -0.698,-2.799c-0.495,-1.165 -1.234,-2.219 -2.144,-3.098c-0.036,-0.035 -0.073,-0.07 -0.11,-0.105ZM15.558,4.834c0.676,0.856 1.23,1.807 1.634,2.821c0.425,1.07 0.676,2.2 0.768,3.345l1.978,0c-0.021,-0.173 -0.049,-0.345 -0.081,-0.515c-0.148,-0.77 -0.41,-1.517 -0.776,-2.21c-0.781,-1.478 -2.027,-2.695 -3.523,-3.441Z" style="fill:#000;"/></g></svg>