<?xml version="1.0" encoding="UTF-8" standalone="no"?><!DOCTYPE svg PUBLIC "-//W3C//DTD SVG 1.1//EN" "http://www.w3.org/Graphics/SVG/1.1/DTD/svg11.dtd"><svg width="100%" height="100%" viewBox="0 0 24 24" version="1.1" xmlns="http://www.w3.org/2000/svg" xmlns:xlink="http://www.w3.org/1999/xlink" xml:space="preserve" style="fill-rule:evenodd;clip-rule:evenodd;stroke-linejoin:round;stroke-miterlimit:1.41421;"><g id="goal"><path d="M12.129,2.001c0.467,0.009 0.932,0.044 1.393,0.114c0.934,0.143 1.846,0.42 2.702,0.82c2.006,0.937 3.672,2.544 4.681,4.514c0.429,0.837 0.739,1.735 0.916,2.659c0.207,1.082 0.235,2.199 0.082,3.29c-0.143,1.017 -0.444,2.011 -0.89,2.936c-0.523,1.085 -1.243,2.072 -2.115,2.903c-0.903,0.861 -1.965,1.551 -3.12,2.023c-1.196,0.49 -2.485,0.74 -3.778,0.74c-1.293,0 -2.582,-0.25 -3.778,-0.74c-1.155,-0.472 -2.217,-1.162 -3.12,-2.023c-0.872,-0.831 -1.592,-1.818 -2.115,-2.903c-0.446,-0.925 -0.747,-1.919 -0.89,-2.936c-0.153,-1.091 -0.125,-2.208 0.082,-3.29c0.177,-0.924 0.487,-1.822 0.916,-2.659c1.009,-1.97 2.675,-3.577 4.681,-4.514c0.856,-0.4 1.768,-0.677 2.702,-0.82c0.461,-0.07 0.926,-0.105 1.393,-0.114c0.129,-0.001 0.128,-0.001 0.258,0Zm-0.233,2c-0.34,0.006 -0.679,0.029 -1.016,0.077c-0.78,0.109 -1.544,0.335 -2.257,0.669c-1.576,0.736 -2.892,1.99 -3.704,3.528c-0.35,0.664 -0.606,1.377 -0.756,2.112c-0.184,0.897 -0.212,1.826 -0.085,2.733c0.114,0.813 0.354,1.606 0.71,2.345c0.419,0.869 0.996,1.659 1.694,2.325c0.722,0.688 1.573,1.241 2.496,1.619c0.957,0.391 1.988,0.591 3.022,0.591c1.034,0 2.065,-0.2 3.022,-0.591c0.923,-0.378 1.774,-0.931 2.496,-1.619c0.698,-0.666 1.275,-1.456 1.694,-2.325c0.356,-0.739 0.596,-1.532 0.71,-2.345c0.127,-0.907 0.099,-1.836 -0.085,-2.733c-0.15,-0.735 -0.406,-1.448 -0.756,-2.112c-0.812,-1.538 -2.128,-2.792 -3.704,-3.528c-0.713,-0.334 -1.477,-0.56 -2.257,-0.669c-0.337,-0.048 -0.676,-0.071 -1.016,-0.077c-0.104,-0.001 -0.104,-0.001 -0.208,0Z" style="fill-rule:nonzero;"/><path d="M12.077,6c0.28,0.006 0.559,0.027 0.836,0.069c0.56,0.086 1.108,0.252 1.621,0.492c1.16,0.541 2.131,1.456 2.741,2.58c0.281,0.517 0.485,1.074 0.603,1.65c0.133,0.648 0.157,1.317 0.074,1.973c-0.078,0.612 -0.252,1.211 -0.513,1.77c-0.306,0.655 -0.731,1.253 -1.248,1.758c-0.535,0.523 -1.168,0.945 -1.856,1.236c-0.713,0.302 -1.484,0.462 -2.258,0.472c-0.776,0.009 -1.553,-0.131 -2.276,-0.416c-0.697,-0.275 -1.339,-0.682 -1.887,-1.192c-0.529,-0.492 -0.968,-1.08 -1.29,-1.726c-0.274,-0.551 -0.462,-1.144 -0.555,-1.753c-0.096,-0.629 -0.092,-1.273 0.012,-1.901c0.093,-0.558 0.265,-1.102 0.511,-1.612c0.577,-1.197 1.553,-2.185 2.742,-2.776c0.506,-0.252 1.048,-0.431 1.604,-0.53c0.275,-0.049 0.552,-0.077 0.83,-0.09c0.103,-0.003 0.206,-0.004 0.309,-0.004Zm-0.129,2c-0.566,0.011 -1.123,0.133 -1.636,0.373c-0.452,0.211 -0.863,0.508 -1.207,0.869c-0.322,0.337 -0.585,0.731 -0.772,1.158c-0.158,0.362 -0.262,0.747 -0.307,1.138c-0.052,0.456 -0.027,0.92 0.076,1.366c0.081,0.348 0.209,0.686 0.38,1c0.431,0.794 1.132,1.43 1.963,1.782c0.475,0.201 0.988,0.307 1.503,0.314c0.517,0.006 1.035,-0.087 1.517,-0.277c0.465,-0.183 0.893,-0.455 1.259,-0.795c0.353,-0.329 0.646,-0.721 0.861,-1.153c0.175,-0.351 0.297,-0.728 0.361,-1.115c0.072,-0.436 0.072,-0.884 0,-1.32c-0.059,-0.355 -0.166,-0.702 -0.319,-1.028c-0.382,-0.818 -1.044,-1.495 -1.852,-1.897c-0.506,-0.252 -1.057,-0.387 -1.62,-0.412c-0.069,-0.002 -0.138,-0.003 -0.207,-0.003Z" style="fill-rule:nonzero;"/><circle cx="12" cy="12" r="2"/><rect x="0" y="0" width="24" height="24" style="fill:none;"/></g></svg>