<?xml version="1.0" encoding="UTF-8" standalone="no"?><!DOCTYPE svg PUBLIC "-//W3C//DTD SVG 1.1//EN" "http://www.w3.org/Graphics/SVG/1.1/DTD/svg11.dtd"><svg width="100%" height="100%" viewBox="0 0 24 24" version="1.1" xmlns="http://www.w3.org/2000/svg" xmlns:xlink="http://www.w3.org/1999/xlink" xml:space="preserve" style="fill-rule:evenodd;clip-rule:evenodd;stroke-linejoin:round;stroke-miterlimit:1.41421;"><g id="hangup"><path d="M7.524,13.062c-0.045,0.138 -0.118,0.271 -0.215,0.389c-0.238,0.29 -0.594,0.459 -0.97,0.459c-0.944,0 -2.119,0 -2.895,0c-0.498,0 -0.939,-0.319 -1.097,-0.791l-0.019,-0.057l5.196,0Z" style="fill:#000;"/><path d="M20.455,10.017c0.001,0 0.001,0 0.001,0c0.831,0.286 1.327,1.139 1.163,2.003c-0.001,0.005 -0.001,0.007 -0.001,0.007c-0.01,-0.004 -5.528,-0.086 -5.528,-0.086c-0.068,-0.17 0.08,-1.144 0.141,-1.435c-0.427,-0.088 -0.855,-0.167 -1.286,-0.237c-0.47,-0.075 -0.941,-0.138 -1.414,-0.189c-0.369,-0.039 -0.738,-0.07 -1.108,-0.093c-1.673,-0.102 -3.373,-0.029 -5.022,0.293c0.073,0.355 0.154,0.762 0.229,1.136c0.037,0.183 0.021,0.371 -0.048,0.54l-5.331,0.057c0,0 0,0 0,0c-0.142,-0.864 0.31,-1.716 1.104,-2.083c0.328,-0.155 0.64,-0.3 0.841,-0.379c3.008,-1.177 6.314,-1.394 9.503,-1.055c0.501,0.053 1.001,0.12 1.499,0.2c0.634,0.102 1.264,0.224 1.891,0.366c0.527,0.119 1.052,0.251 1.573,0.397c0.608,0.121 1.205,0.309 1.793,0.558Z" style="fill:#000;"/><path d="M16.141,13.035c0.044,0.139 0.116,0.272 0.212,0.391c0.236,0.292 0.591,0.463 0.967,0.466c0.944,0.006 2.119,0.015 2.895,0.02c0.497,0.004 0.941,-0.311 1.102,-0.782l0.02,-0.057l-5.196,-0.038Z" style="fill:#000;"/></g></svg>