<?xml version="1.0" encoding="UTF-8" standalone="no"?><!DOCTYPE svg PUBLIC "-//W3C//DTD SVG 1.1//EN" "http://www.w3.org/Graphics/SVG/1.1/DTD/svg11.dtd"><svg width="100%" height="100%" viewBox="0 0 24 24" version="1.1" xmlns="http://www.w3.org/2000/svg" xmlns:xlink="http://www.w3.org/1999/xlink" xml:space="preserve" style="fill-rule:evenodd;clip-rule:evenodd;stroke-linejoin:round;stroke-miterlimit:1.41421;"><g id="headphones"><path d="M12.122,4.001c0.259,0.005 0.517,0.018 0.775,0.044c0.591,0.059 1.175,0.176 1.743,0.349c0.64,0.194 1.257,0.459 1.841,0.784c0.364,0.204 0.714,0.43 1.05,0.678c1.795,1.327 3.116,3.236 3.831,5.343c0.261,0.771 0.442,1.568 0.543,2.375c0.058,0.463 0.086,0.929 0.094,1.395c0.005,1.011 0.001,2.021 0.001,3.031c-0.003,0.084 -0.01,0.164 -0.031,0.245c-0.047,0.188 -0.15,0.36 -0.292,0.491c-0.081,0.074 -0.174,0.135 -0.275,0.18c-0.36,0.158 -0.79,0.086 -1.079,-0.18c-0.081,-0.075 -0.15,-0.163 -0.203,-0.26c-0.052,-0.097 -0.088,-0.203 -0.106,-0.311c-0.013,-0.073 -0.011,-0.092 -0.014,-0.165c0,-1.003 0.005,-2.006 -0.001,-3.008c-0.007,-0.43 -0.036,-0.859 -0.094,-1.285c-0.136,-0.995 -0.419,-1.971 -0.846,-2.88c-0.477,-1.013 -1.132,-1.943 -1.944,-2.714c-0.676,-0.641 -1.46,-1.17 -2.317,-1.536c-0.73,-0.311 -1.509,-0.503 -2.3,-0.559c-0.669,-0.048 -1.345,0 -2.001,0.141c-0.546,0.117 -1.078,0.3 -1.582,0.539c-0.449,0.213 -0.876,0.471 -1.275,0.766c-1.589,1.175 -2.712,2.912 -3.258,4.801c-0.257,0.887 -0.384,1.804 -0.399,2.727c-0.006,1.002 -0.001,2.005 -0.001,3.008c-0.003,0.073 -0.001,0.092 -0.014,0.165c-0.018,0.108 -0.054,0.214 -0.106,0.311c-0.187,0.345 -0.571,0.553 -0.963,0.521c-0.109,-0.01 -0.218,-0.037 -0.319,-0.081c-0.101,-0.045 -0.194,-0.106 -0.275,-0.18c-0.142,-0.131 -0.245,-0.303 -0.292,-0.491c-0.021,-0.081 -0.027,-0.161 -0.031,-0.245c0,-1.01 -0.005,-2.02 0.001,-3.031c0.006,-0.374 0.025,-0.747 0.063,-1.12c0.096,-0.945 0.303,-1.879 0.618,-2.776c0.346,-0.984 0.823,-1.922 1.421,-2.776c0.892,-1.274 2.057,-2.36 3.416,-3.119c0.584,-0.325 1.202,-0.59 1.841,-0.784c0.568,-0.173 1.152,-0.29 1.743,-0.349c0.258,-0.026 0.516,-0.039 0.775,-0.044c0.132,-0.001 0.131,-0.001 0.262,0Z" style="fill:#000;fill-rule:nonzero;"/><path d="M8.982,15.5c0,-0.828 -0.672,-1.5 -1.5,-1.5l-0.91,0c-0.828,0 -1.5,0.672 -1.5,1.5l0,4c0,0.828 0.672,1.5 1.5,1.5l0.91,0c0.828,0 1.5,-0.672 1.5,-1.5l0,-4Z" style="fill:#000;"/><path d="M19.072,15.5c0,-0.828 -0.672,-1.5 -1.5,-1.5l-1,0c-0.828,0 -1.5,0.672 -1.5,1.5l0,4c0,0.828 0.672,1.5 1.5,1.5l1,0c0.828,0 1.5,-0.672 1.5,-1.5l0,-4Z" style="fill:#000;"/></g></svg>