<?xml version="1.0" encoding="UTF-8" standalone="no"?><!DOCTYPE svg PUBLIC "-//W3C//DTD SVG 1.1//EN" "http://www.w3.org/Graphics/SVG/1.1/DTD/svg11.dtd"><svg width="100%" height="100%" viewBox="0 0 24 24" version="1.1" xmlns="http://www.w3.org/2000/svg" xmlns:xlink="http://www.w3.org/1999/xlink" xml:space="preserve" style="fill-rule:evenodd;clip-rule:evenodd;stroke-linejoin:round;stroke-miterlimit:1.41421;"><g id="heart"><path d="M16.092,2.19l0.092,0.001l0.09,0.003l0.091,0.003l0.089,0.004l0.089,0.006l0.088,0.006l0.087,0.007l0.087,0.008l0.085,0.009l0.086,0.01l0.084,0.011l0.084,0.012l0.083,0.013l0.083,0.014l0.081,0.014l0.081,0.016l0.081,0.016l0.079,0.017l0.079,0.018l0.078,0.019l0.078,0.02l0.077,0.021l0.076,0.021l0.075,0.022l0.075,0.024l0.074,0.024l0.073,0.025l0.073,0.025l0.071,0.027l0.072,0.027l0.07,0.028l0.07,0.029l0.069,0.03l0.068,0.03l0.068,0.031l0.067,0.032l0.066,0.033l0.065,0.034l0.065,0.034l0.064,0.035l0.063,0.036l0.063,0.036l0.062,0.037l0.061,0.038l0.061,0.039l0.059,0.039l0.059,0.04l0.059,0.041l0.057,0.042l0.057,0.042l0.056,0.043l0.056,0.043l0.055,0.045l0.054,0.044l0.053,0.046l0.053,0.046l0.051,0.047l0.052,0.048l0.05,0.048l0.05,0.048l0.049,0.05l0.048,0.05l0.047,0.05l0.047,0.052l0.046,0.051l0.046,0.053l0.044,0.053l0.044,0.053l0.044,0.055l0.042,0.054l0.042,0.056l0.041,0.055l0.04,0.057l0.04,0.057l0.038,0.057l0.039,0.058l0.037,0.059l0.037,0.059l0.036,0.06l0.035,0.06l0.034,0.06l0.034,0.061l0.033,0.062l0.032,0.062l0.032,0.063l0.03,0.063l0.031,0.063l0.029,0.064l0.028,0.065l0.028,0.065l0.027,0.065l0.027,0.066l0.026,0.066l0.024,0.067l0.025,0.067l0.023,0.067l0.023,0.068l0.022,0.068l0.021,0.069l0.021,0.069l0.019,0.07l0.019,0.07l0.019,0.07l0.017,0.07l0.017,0.071l0.016,0.072l0.015,0.071l0.015,0.072l0.014,0.073l0.013,0.073l0.012,0.073l0.012,0.073l0.011,0.074l0.01,0.074l0.009,0.074l0.009,0.075l0.007,0.074l0.008,0.076l0.006,0.075l0.006,0.076l0.004,0.076l0.005,0.076l0.003,0.077l0.003,0.076l0.001,0.077l0.002,0.078l0,0.077l0,0.071l-0.002,0.072l-0.002,0.071l-0.003,0.072l-0.004,0.072l-0.005,0.072l-0.006,0.072l-0.007,0.072l-0.007,0.072l-0.009,0.073l-0.009,0.073l-0.01,0.072l-0.011,0.073l-0.011,0.073l-0.013,0.074l-0.013,0.073l-0.014,0.073l-0.015,0.074l-0.033,0.147l-0.035,0.148l-0.038,0.148l-0.041,0.149l-0.045,0.149l-0.047,0.149l-0.05,0.149l-0.052,0.15l-0.056,0.15l-0.058,0.15l-0.06,0.15l-0.063,0.15l-0.066,0.151l-0.068,0.15l-0.07,0.15l-0.072,0.151l-0.075,0.15l-0.077,0.151l-0.079,0.15l-0.081,0.151l-0.083,0.15l-0.086,0.15l-0.086,0.15l-0.089,0.149l-0.091,0.149l-0.092,0.15l-0.094,0.148l-0.096,0.149l-0.097,0.148l-0.098,0.148l-0.1,0.147l-0.102,0.147l-0.102,0.146l-0.104,0.146l-0.106,0.146l-0.106,0.144l-0.107,0.145l-0.109,0.143l-0.109,0.143l-0.11,0.143l-0.112,0.141l-0.112,0.141l-0.112,0.141l-0.114,0.139l-0.114,0.139l-0.114,0.137l-0.115,0.137l-0.116,0.136l-0.116,0.136l-0.116,0.134l-0.117,0.133l-0.117,0.132l-0.117,0.131l-0.117,0.131l-0.117,0.129l-0.234,0.254l-0.234,0.251l-0.233,0.245l-0.232,0.24l-0.229,0.235l-0.228,0.229l-0.224,0.223l-0.222,0.218l-0.218,0.211l-0.213,0.205l-0.21,0.198l-0.204,0.191l-0.198,0.184l-0.193,0.176l-0.186,0.169l-0.18,0.162l-0.172,0.153l-0.164,0.145l-0.156,0.136l-0.147,0.128l-0.267,0.228l-0.226,0.191l-0.183,0.152l-0.135,0.111l-0.112,0.09l-0.112,-0.091l-0.135,-0.112l-0.183,-0.153l-0.226,-0.193l-0.267,-0.231l-0.147,-0.129l-0.156,-0.137l-0.164,-0.147l-0.173,-0.154l-0.179,-0.163l-0.186,-0.17l-0.193,-0.178l-0.198,-0.186l-0.204,-0.192l-0.21,-0.199l-0.213,-0.207l-0.218,-0.212l-0.222,-0.219l-0.224,-0.225l-0.228,-0.23l-0.229,-0.236l-0.232,-0.242l-0.233,-0.246l-0.234,-0.251l-0.234,-0.256l-0.117,-0.13l-0.117,-0.131l-0.117,-0.131l-0.117,-0.133l-0.117,-0.134l-0.116,-0.134l-0.116,-0.136l-0.116,-0.136l-0.115,-0.138l-0.114,-0.138l-0.114,-0.139l-0.114,-0.139l-0.112,-0.141l-0.112,-0.141l-0.112,-0.142l-0.11,-0.143l-0.109,-0.143l-0.109,-0.144l-0.107,-0.144l-0.106,-0.145l-0.106,-0.145l-0.104,-0.146l-0.102,-0.146l-0.102,-0.147l-0.1,-0.148l-0.098,-0.147l-0.097,-0.148l-0.096,-0.148l-0.094,-0.149l-0.092,-0.149l-0.091,-0.149l-0.088,-0.149l-0.087,-0.149l-0.086,-0.15l-0.083,-0.149l-0.081,-0.15l-0.079,-0.15l-0.077,-0.15l-0.075,-0.149l-0.072,-0.15l-0.07,-0.15l-0.068,-0.15l-0.066,-0.149l-0.063,-0.149l-0.06,-0.15l-0.058,-0.149l-0.056,-0.148l-0.052,-0.149l-0.05,-0.148l-0.047,-0.148l-0.045,-0.148l-0.041,-0.147l-0.038,-0.146l-0.035,-0.147l-0.033,-0.146l-0.015,-0.072l-0.014,-0.073l-0.013,-0.072l-0.013,-0.073l-0.011,-0.072l-0.011,-0.072l-0.01,-0.072l-0.009,-0.072l-0.009,-0.072l-0.007,-0.071l-0.007,-0.071l-0.006,-0.071l-0.005,-0.071l-0.004,-0.071l-0.003,-0.071l-0.002,-0.07l-0.002,-0.071l0,-0.07l0.001,-0.155l0.002,-0.077l0.003,-0.076l0.003,-0.077l0.004,-0.076l0.005,-0.076l0.006,-0.076l0.006,-0.075l0.007,-0.076l0.008,-0.074l0.009,-0.075l0.009,-0.074l0.01,-0.074l0.011,-0.074l0.011,-0.073l0.013,-0.073l0.013,-0.073l0.013,-0.073l0.015,-0.072l0.015,-0.071l0.016,-0.072l0.017,-0.071l0.017,-0.07l0.019,-0.07l0.019,-0.07l0.019,-0.07l0.021,-0.069l0.021,-0.069l0.022,-0.068l0.022,-0.068l0.024,-0.067l0.024,-0.067l0.025,-0.067l0.025,-0.066l0.027,-0.066l0.027,-0.065l0.027,-0.065l0.029,-0.065l0.029,-0.064l0.03,-0.063l0.031,-0.063l0.031,-0.063l0.032,-0.062l0.033,-0.062l0.034,-0.061l0.034,-0.06l0.035,-0.06l0.036,-0.06l0.037,-0.059l0.037,-0.059l0.038,-0.058l0.039,-0.057l0.039,-0.057l0.041,-0.057l0.04,-0.055l0.042,-0.056l0.043,-0.054l0.043,-0.055l0.044,-0.053l0.044,-0.053l0.045,-0.053l0.046,-0.051l0.047,-0.052l0.048,-0.05l0.048,-0.05l0.049,-0.05l0.049,-0.048l0.051,-0.048l0.051,-0.048l0.052,-0.047l0.052,-0.046l0.053,-0.046l0.054,-0.044l0.055,-0.045l0.056,-0.043l0.056,-0.043l0.057,-0.042l0.057,-0.042l0.059,-0.041l0.059,-0.04l0.059,-0.039l0.061,-0.039l0.061,-0.038l0.062,-0.037l0.062,-0.036l0.064,-0.036l0.064,-0.035l0.065,-0.034l0.065,-0.034l0.066,-0.033l0.067,-0.032l0.068,-0.031l0.068,-0.03l0.069,-0.03l0.07,-0.029l0.071,-0.028l0.071,-0.027l0.072,-0.027l0.072,-0.025l0.074,-0.025l0.074,-0.024l0.074,-0.024l0.076,-0.022l0.076,-0.021l0.077,-0.021l0.078,-0.02l0.078,-0.019l0.079,-0.018l0.08,-0.017l0.08,-0.016l0.081,-0.016l0.082,-0.014l0.083,-0.014l0.083,-0.013l0.084,-0.012l0.085,-0.011l0.085,-0.01l0.086,-0.009l0.087,-0.008l0.088,-0.007l0.088,-0.006l0.089,-0.006l0.089,-0.004l0.091,-0.003l0.091,-0.003l0.092,-0.001l0.092,-0.001l0.072,0.001l0.072,0.004l0.071,0.005l0.071,0.008l0.071,0.01l0.071,0.012l0.071,0.014l0.07,0.016l0.071,0.018l0.069,0.019l0.07,0.022l0.07,0.023l0.069,0.025l0.069,0.027l0.068,0.028l0.069,0.03l0.068,0.031l0.068,0.033l0.067,0.034l0.068,0.035l0.067,0.037l0.066,0.038l0.067,0.039l0.066,0.041l0.065,0.041l0.066,0.043l0.065,0.043l0.065,0.045l0.064,0.045l0.065,0.046l0.063,0.048l0.064,0.047l0.126,0.098l0.124,0.1l0.123,0.102l0.122,0.103l0.12,0.105l0.118,0.106l0.117,0.105l0.115,0.106l0.225,0.21l0.218,0.205l0.211,0.196l0.102,0.095l0.101,0.091l0.101,-0.091l0.102,-0.095l0.211,-0.196l0.218,-0.205l0.225,-0.21l0.115,-0.106l0.117,-0.105l0.118,-0.106l0.12,-0.105l0.122,-0.103l0.123,-0.102l0.124,-0.1l0.126,-0.098l0.064,-0.047l0.063,-0.048l0.065,-0.046l0.064,-0.045l0.065,-0.045l0.065,-0.043l0.066,-0.043l0.065,-0.041l0.066,-0.041l0.067,-0.039l0.066,-0.038l0.067,-0.037l0.068,-0.035l0.067,-0.034l0.068,-0.033l0.068,-0.031l0.069,-0.03l0.068,-0.028l0.069,-0.027l0.069,-0.025l0.07,-0.023l0.07,-0.022l0.069,-0.019l0.071,-0.018l0.07,-0.016l0.071,-0.014l0.071,-0.012l0.071,-0.01l0.071,-0.008l0.071,-0.005l0.072,-0.004l0.072,-0.001l0.092,0.001ZM7.929,4.19l-0.071,0.001l-0.068,0.002l-0.069,0.002l-0.068,0.003l-0.066,0.004l-0.066,0.005l-0.065,0.005l-0.064,0.007l-0.064,0.006l-0.062,0.007l-0.061,0.008l-0.061,0.009l-0.06,0.009l-0.059,0.01l-0.058,0.01l-0.057,0.011l-0.057,0.012l-0.055,0.011l-0.054,0.013l-0.056,0.013l-0.053,0.014l-0.052,0.014l-0.051,0.014l-0.051,0.015l-0.051,0.016l-0.05,0.016l-0.048,0.017l-0.048,0.017l-0.047,0.017l-0.047,0.018l-0.046,0.018l-0.044,0.019l-0.045,0.019l-0.044,0.019l-0.043,0.02l-0.043,0.021l-0.042,0.021l-0.041,0.021l-0.041,0.021l-0.04,0.022l-0.039,0.022l-0.039,0.023l-0.038,0.023l-0.038,0.023l-0.037,0.024l-0.037,0.024l-0.036,0.025l-0.036,0.025l-0.035,0.025l-0.035,0.026l-0.034,0.026l-0.033,0.027l-0.033,0.026l-0.033,0.027l-0.033,0.028l-0.031,0.028l-0.031,0.028l-0.032,0.03l-0.031,0.029l-0.029,0.029l-0.03,0.03l-0.029,0.03l-0.029,0.031l-0.029,0.031l-0.027,0.031l-0.028,0.032l-0.027,0.033l-0.027,0.033l-0.026,0.033l-0.026,0.033l-0.026,0.035l-0.026,0.034l-0.024,0.035l-0.025,0.035l-0.024,0.036l-0.024,0.037l-0.023,0.036l-0.023,0.038l-0.023,0.037l-0.022,0.038l-0.022,0.039l-0.022,0.039l-0.021,0.039l-0.02,0.04l-0.021,0.041l-0.02,0.04l-0.019,0.042l-0.019,0.041l-0.019,0.043l-0.018,0.042l-0.018,0.044l-0.017,0.043l-0.017,0.044l-0.017,0.045l-0.016,0.045l-0.016,0.045l-0.015,0.046l-0.015,0.047l-0.015,0.047l-0.014,0.047l-0.013,0.048l-0.013,0.048l-0.013,0.049l-0.012,0.049l-0.012,0.05l-0.011,0.05l-0.011,0.05l-0.01,0.05l-0.009,0.052l-0.01,0.052l-0.008,0.052l-0.009,0.052l-0.008,0.054l-0.007,0.053l-0.007,0.053l-0.006,0.054l-0.005,0.055l-0.006,0.055l-0.004,0.056l-0.004,0.055l-0.004,0.056l-0.003,0.057l-0.003,0.056l-0.001,0.057l-0.002,0.053l-0.001,0.124l0,0.042l0.001,0.044l0.002,0.045l0.002,0.046l0.002,0.046l0.004,0.047l0.003,0.047l0.005,0.048l0.005,0.049l0.006,0.049l0.006,0.049l0.007,0.05l0.008,0.05l0.008,0.052l0.009,0.051l0.009,0.052l0.011,0.053l0.01,0.048l0.024,0.112l0.027,0.109l0.029,0.111l0.031,0.113l0.035,0.114l0.037,0.117l0.039,0.117l0.042,0.119l0.045,0.12l0.047,0.122l0.05,0.123l0.052,0.124l0.055,0.125l0.058,0.126l0.059,0.127l0.062,0.128l0.065,0.129l0.066,0.129l0.069,0.131l0.071,0.131l0.073,0.131l0.075,0.132l0.077,0.133l0.079,0.132l0.081,0.134l0.083,0.134l0.085,0.133l0.086,0.134l0.088,0.135l0.09,0.134l0.091,0.134l0.093,0.135l0.095,0.134l0.095,0.135l0.097,0.134l0.099,0.134l0.099,0.133l0.101,0.134l0.102,0.133l0.102,0.133l0.104,0.133l0.105,0.132l0.106,0.131l0.106,0.132l0.107,0.13l0.108,0.13l0.109,0.13l0.109,0.129l0.11,0.128l0.11,0.127l0.11,0.127l0.111,0.126l0.111,0.125l0.111,0.124l0.11,0.122l0.225,0.245l0.223,0.24l0.222,0.235l0.222,0.231l0.22,0.226l0.218,0.221l0.216,0.216l0.212,0.21l0.21,0.204l0.205,0.198l0.201,0.192l0.196,0.185l0.191,0.178l0.186,0.172l0.179,0.164l0.172,0.156l0.165,0.148l0.064,0.057l0.058,-0.051l0.165,-0.147l0.172,-0.155l0.179,-0.162l0.185,-0.17l0.191,-0.177l0.196,-0.183l0.201,-0.191l0.205,-0.196l0.209,-0.203l0.213,-0.208l0.215,-0.215l0.218,-0.219l0.22,-0.225l0.221,-0.229l0.222,-0.234l0.223,-0.238l0.225,-0.244l0.109,-0.121l0.112,-0.124l0.11,-0.124l0.111,-0.126l0.111,-0.126l0.11,-0.127l0.109,-0.127l0.109,-0.129l0.108,-0.128l0.108,-0.13l0.107,-0.13l0.107,-0.131l0.105,-0.131l0.105,-0.132l0.103,-0.132l0.103,-0.133l0.102,-0.133l0.1,-0.133l0.1,-0.133l0.098,-0.134l0.097,-0.134l0.095,-0.134l0.095,-0.135l0.092,-0.134l0.091,-0.134l0.09,-0.134l0.088,-0.135l0.086,-0.134l0.085,-0.134l0.083,-0.134l0.081,-0.133l0.079,-0.133l0.077,-0.133l0.075,-0.132l0.073,-0.132l0.071,-0.131l0.068,-0.131l0.067,-0.13l0.064,-0.129l0.062,-0.129l0.06,-0.127l0.057,-0.127l0.055,-0.126l0.052,-0.125l0.05,-0.123l0.047,-0.123l0.045,-0.122l0.042,-0.119l0.04,-0.119l0.037,-0.117l0.034,-0.116l0.032,-0.114l0.029,-0.113l0.027,-0.11l0.025,-0.114l0.01,-0.05l0.01,-0.053l0.009,-0.053l0.009,-0.052l0.009,-0.052l0.007,-0.052l0.007,-0.051l0.007,-0.051l0.006,-0.05l0.005,-0.049l0.004,-0.049l0.004,-0.049l0.004,-0.048l0.002,-0.047l0.002,-0.048l0.002,-0.046l0.001,-0.046l0,-0.048l0,-0.056l-0.001,-0.058l-0.002,-0.057l-0.001,-0.057l-0.003,-0.057l-0.003,-0.056l-0.004,-0.056l-0.004,-0.056l-0.004,-0.055l-0.006,-0.055l-0.005,-0.054l-0.007,-0.054l-0.006,-0.054l-0.008,-0.054l-0.007,-0.052l-0.009,-0.053l-0.008,-0.052l-0.01,-0.051l-0.01,-0.052l-0.01,-0.05l-0.011,-0.051l-0.011,-0.05l-0.012,-0.049l-0.012,-0.049l-0.012,-0.049l-0.014,-0.048l-0.013,-0.048l-0.014,-0.047l-0.015,-0.047l-0.015,-0.047l-0.015,-0.045l-0.016,-0.046l-0.016,-0.045l-0.017,-0.045l-0.017,-0.044l-0.017,-0.043l-0.018,-0.043l-0.019,-0.043l-0.018,-0.042l-0.019,-0.042l-0.02,-0.041l-0.02,-0.041l-0.02,-0.041l-0.021,-0.039l-0.021,-0.04l-0.022,-0.039l-0.022,-0.039l-0.022,-0.038l-0.023,-0.038l-0.023,-0.037l-0.023,-0.036l-0.024,-0.037l-0.024,-0.036l-0.025,-0.036l-0.025,-0.034l-0.025,-0.035l-0.026,-0.034l-0.026,-0.034l-0.027,-0.033l-0.027,-0.033l-0.027,-0.033l-0.028,-0.032l-0.028,-0.031l-0.028,-0.031l-0.03,-0.031l-0.029,-0.03l-0.029,-0.03l-0.03,-0.03l-0.031,-0.029l-0.032,-0.029l-0.031,-0.028l-0.031,-0.028l-0.033,-0.028l-0.033,-0.028l-0.033,-0.026l-0.034,-0.027l-0.034,-0.026l-0.035,-0.025l-0.035,-0.026l-0.035,-0.025l-0.037,-0.024l-0.037,-0.025l-0.037,-0.024l-0.038,-0.023l-0.038,-0.023l-0.039,-0.023l-0.04,-0.022l-0.04,-0.022l-0.041,-0.022l-0.04,-0.02l-0.042,-0.021l-0.043,-0.021l-0.044,-0.02l-0.043,-0.019l-0.045,-0.019l-0.045,-0.019l-0.046,-0.018l-0.046,-0.018l-0.047,-0.018l-0.049,-0.017l-0.048,-0.016l-0.049,-0.016l-0.051,-0.016l-0.051,-0.015l-0.051,-0.014l-0.052,-0.014l-0.053,-0.014l-0.055,-0.013l-0.055,-0.013l-0.054,-0.012l-0.057,-0.011l-0.057,-0.011l-0.058,-0.01l-0.059,-0.01l-0.06,-0.009l-0.06,-0.009l-0.061,-0.008l-0.062,-0.007l-0.063,-0.007l-0.064,-0.006l-0.065,-0.005l-0.066,-0.005l-0.066,-0.004l-0.067,-0.003l-0.068,-0.002l-0.069,-0.002l-0.07,-0.001l-0.061,-0.001l-0.018,0.001l-0.009,0l-0.012,0.001l-0.011,0.001l-0.013,0.002l-0.016,0.003l-0.015,0.003l-0.018,0.004l-0.02,0.005l-0.021,0.006l-0.024,0.007l-0.025,0.008l-0.026,0.01l-0.028,0.011l-0.03,0.012l-0.032,0.014l-0.032,0.015l-0.034,0.016l-0.036,0.018l-0.036,0.019l-0.039,0.021l-0.039,0.023l-0.04,0.024l-0.042,0.025l-0.042,0.026l-0.043,0.029l-0.044,0.029l-0.045,0.031l-0.046,0.032l-0.047,0.034l-0.047,0.034l-0.044,0.034l-0.101,0.078l-0.099,0.079l-0.1,0.084l-0.103,0.087l-0.103,0.09l-0.105,0.093l-0.105,0.096l-0.104,0.096l-0.218,0.202l-0.218,0.205l-0.218,0.204l-0.114,0.105l-1.448,1.309l-1.448,-1.309l-0.114,-0.105l-0.218,-0.204l-0.218,-0.205l-0.218,-0.202l-0.104,-0.096l-0.105,-0.096l-0.105,-0.093l-0.103,-0.09l-0.103,-0.087l-0.1,-0.084l-0.099,-0.079l-0.101,-0.078l-0.044,-0.034l-0.047,-0.034l-0.047,-0.034l-0.046,-0.032l-0.045,-0.031l-0.044,-0.029l-0.043,-0.029l-0.042,-0.026l-0.042,-0.025l-0.04,-0.024l-0.039,-0.023l-0.039,-0.021l-0.036,-0.019l-0.036,-0.018l-0.034,-0.016l-0.032,-0.015l-0.032,-0.014l-0.03,-0.012l-0.028,-0.011l-0.026,-0.01l-0.025,-0.008l-0.024,-0.007l-0.021,-0.006l-0.02,-0.005l-0.018,-0.004l-0.015,-0.003l-0.016,-0.003l-0.013,-0.002l-0.011,-0.001l-0.012,-0.001l-0.009,0l-0.018,-0.001l-0.061,0.001Z" style="fill:#000;"/></g></svg>