<?xml version="1.0" encoding="UTF-8" standalone="no"?><!DOCTYPE svg PUBLIC "-//W3C//DTD SVG 1.1//EN" "http://www.w3.org/Graphics/SVG/1.1/DTD/svg11.dtd"><svg width="100%" height="100%" viewBox="0 0 24 24" version="1.1" xmlns="http://www.w3.org/2000/svg" xmlns:xlink="http://www.w3.org/1999/xlink" xml:space="preserve" style="fill-rule:evenodd;clip-rule:evenodd;stroke-linejoin:round;stroke-miterlimit:1.41421;"><g id="help"><path d="M12.129,2.001c0.467,0.009 0.932,0.044 1.393,0.114c0.934,0.143 1.846,0.42 2.702,0.82c2.006,0.937 3.672,2.544 4.681,4.514c0.429,0.837 0.739,1.735 0.916,2.659c0.207,1.082 0.235,2.199 0.082,3.29c-0.143,1.017 -0.444,2.011 -0.89,2.936c-0.523,1.085 -1.243,2.072 -2.115,2.903c-0.903,0.861 -1.965,1.551 -3.12,2.023c-1.196,0.49 -2.485,0.74 -3.778,0.74c-1.293,0 -2.582,-0.25 -3.778,-0.74c-1.155,-0.472 -2.217,-1.162 -3.12,-2.023c-0.872,-0.831 -1.592,-1.818 -2.115,-2.903c-0.446,-0.925 -0.747,-1.919 -0.89,-2.936c-0.153,-1.091 -0.125,-2.208 0.082,-3.29c0.177,-0.924 0.487,-1.822 0.916,-2.659c1.009,-1.97 2.675,-3.577 4.681,-4.514c0.856,-0.4 1.768,-0.677 2.702,-0.82c0.461,-0.07 0.926,-0.105 1.393,-0.114c0.13,-0.001 0.129,-0.001 0.258,0ZM11.896,4.001c-0.34,0.006 -0.679,0.029 -1.016,0.077c-0.78,0.109 -1.544,0.335 -2.257,0.669c-1.576,0.736 -2.892,1.99 -3.704,3.528c-0.35,0.664 -0.606,1.377 -0.756,2.112c-0.184,0.897 -0.212,1.826 -0.085,2.733c0.114,0.813 0.354,1.606 0.71,2.345c0.419,0.869 0.996,1.659 1.694,2.325c0.722,0.688 1.573,1.241 2.496,1.619c0.957,0.391 1.988,0.591 3.022,0.591c1.034,0 2.065,-0.2 3.022,-0.591c0.923,-0.378 1.774,-0.931 2.496,-1.619c0.698,-0.666 1.275,-1.456 1.694,-2.325c0.356,-0.739 0.596,-1.532 0.71,-2.345c0.127,-0.907 0.099,-1.836 -0.085,-2.733c-0.15,-0.735 -0.406,-1.448 -0.756,-2.112c-0.812,-1.538 -2.128,-2.792 -3.704,-3.528c-0.713,-0.334 -1.477,-0.56 -2.257,-0.669c-0.337,-0.048 -0.676,-0.071 -1.016,-0.077c-0.104,-0.001 -0.104,-0.001 -0.208,0ZM12.115,7.502c0.191,0.007 0.38,0.021 0.568,0.05c0.476,0.073 0.939,0.223 1.367,0.442c0.902,0.462 1.634,1.23 2.051,2.153c0.168,0.372 0.285,0.767 0.347,1.17c0.069,0.452 0.069,0.914 0,1.366c-0.067,0.439 -0.2,0.869 -0.393,1.269c-0.235,0.488 -0.559,0.931 -0.95,1.305c-0.393,0.374 -0.853,0.677 -1.353,0.888c-0.553,0.234 -1.152,0.355 -1.752,0.355c-0.6,0 -1.199,-0.121 -1.752,-0.355c-0.5,-0.211 -0.96,-0.514 -1.353,-0.888c-0.391,-0.374 -0.715,-0.817 -0.95,-1.305c-0.193,-0.4 -0.326,-0.83 -0.393,-1.269c-0.069,-0.452 -0.069,-0.914 0,-1.366c0.062,-0.403 0.179,-0.798 0.347,-1.17c0.417,-0.923 1.149,-1.691 2.051,-2.153c0.428,-0.219 0.891,-0.369 1.367,-0.442c0.188,-0.029 0.377,-0.043 0.568,-0.05c0.115,-0.002 0.115,-0.002 0.23,0ZM11.936,9.501c-0.375,0.014 -0.739,0.102 -1.074,0.273c-0.669,0.343 -1.16,0.985 -1.311,1.722c-0.055,0.27 -0.065,0.549 -0.031,0.822c0.032,0.245 0.099,0.485 0.201,0.71c0.124,0.275 0.299,0.526 0.512,0.739c0.213,0.213 0.464,0.388 0.739,0.512c0.302,0.137 0.632,0.212 0.964,0.22c0.334,0.008 0.669,-0.05 0.98,-0.173c0.281,-0.111 0.541,-0.273 0.764,-0.476c0.223,-0.202 0.409,-0.445 0.546,-0.712c0.112,-0.219 0.191,-0.454 0.235,-0.696c0.044,-0.25 0.051,-0.508 0.019,-0.76c-0.098,-0.77 -0.564,-1.464 -1.236,-1.85c-0.324,-0.186 -0.681,-0.292 -1.052,-0.324c-0.086,-0.006 -0.171,-0.008 -0.256,-0.007Z" style="fill:#000;fill-rule:nonzero;"/><path d="M12.109,2.001c0.508,0.008 1.014,0.049 1.515,0.132c1.065,0.175 2.101,0.524 3.054,1.029c0.61,0.322 1.18,0.709 1.712,1.146l-4.793,5.769c-0.042,-0.034 -0.085,-0.068 -0.129,-0.1c-0.044,-0.032 -0.089,-0.062 -0.135,-0.091c-0.184,-0.114 -0.379,-0.207 -0.586,-0.272c-0.553,-0.173 -1.16,-0.147 -1.697,0.074c-0.235,0.096 -0.45,0.229 -0.647,0.389l-4.793,-5.769c0.532,-0.437 1.102,-0.824 1.712,-1.146c0.953,-0.505 1.989,-0.854 3.054,-1.029c0.501,-0.083 1.007,-0.124 1.515,-0.132c0.109,-0.001 0.109,-0.001 0.218,0ZM11.913,4.001c-0.58,0.009 -1.156,0.075 -1.721,0.206c-0.533,0.124 -1.05,0.304 -1.548,0.531l-0.055,0.026l2.374,2.858c0.081,-0.019 0.081,-0.019 0.162,-0.036c0.354,-0.066 0.711,-0.097 1.071,-0.082c0.261,0.012 0.518,0.048 0.773,0.102l0.068,0.016l2.374,-2.858c-0.096,-0.045 -0.194,-0.089 -0.292,-0.131c-0.505,-0.211 -1.027,-0.374 -1.564,-0.481c-0.484,-0.095 -0.975,-0.144 -1.468,-0.151c-0.087,-0.001 -0.087,-0.001 -0.174,0Z" style="fill:#000;fill-rule:nonzero;"/><path d="M9.536,11.578c-0.009,0.054 -0.016,0.108 -0.022,0.162c-0.005,0.054 -0.009,0.108 -0.012,0.163c-0.006,0.216 0.011,0.431 0.059,0.643c0.126,0.566 0.452,1.078 0.911,1.433c0.202,0.155 0.424,0.275 0.662,0.366l-2.6,7.035c-0.306,-0.115 -0.608,-0.241 -0.902,-0.384c-0.648,-0.315 -1.262,-0.7 -1.828,-1.147c-1.021,-0.806 -1.881,-1.811 -2.518,-2.944c-0.62,-1.101 -1.028,-2.318 -1.197,-3.57c-0.135,-1.006 -0.111,-2.023 0.055,-3.023c2.464,0.422 4.928,0.844 7.392,1.266ZM4.033,12.725c0.047,0.487 0.133,0.969 0.266,1.44c0.321,1.144 0.9,2.211 1.682,3.105c0.418,0.477 0.892,0.899 1.408,1.267l0.05,0.035l1.288,-3.484c-0.057,-0.061 -0.057,-0.061 -0.112,-0.124c-0.213,-0.248 -0.403,-0.513 -0.56,-0.8c-0.142,-0.258 -0.254,-0.528 -0.345,-0.806l-0.021,-0.067l-3.661,-0.627c0.001,0.02 0.003,0.04 0.005,0.061Z" style="fill:#000;fill-rule:nonzero;"/><path d="M21.874,10.42c0.149,0.965 0.167,1.946 0.037,2.915c-0.169,1.252 -0.577,2.469 -1.197,3.57c-0.637,1.133 -1.497,2.138 -2.518,2.944c-0.566,0.447 -1.18,0.832 -1.828,1.147c-0.294,0.143 -0.596,0.269 -0.902,0.384l-2.6,-7.035c0.052,-0.02 0.102,-0.04 0.152,-0.062c0.049,-0.023 0.098,-0.046 0.147,-0.071c0.19,-0.103 0.368,-0.225 0.527,-0.372c0.427,-0.393 0.708,-0.932 0.785,-1.506c0.034,-0.252 0.027,-0.505 -0.013,-0.756l7.392,-1.266c0.006,0.036 0.012,0.072 0.018,0.108ZM16.311,13.291c-0.025,0.079 -0.025,0.079 -0.051,0.158c-0.032,0.093 -0.032,0.092 -0.067,0.184c-0.098,0.243 -0.21,0.478 -0.346,0.702c-0.153,0.251 -0.331,0.483 -0.526,0.702l-0.048,0.051l1.288,3.484c0.087,-0.061 0.174,-0.123 0.259,-0.187c0.481,-0.368 0.922,-0.782 1.312,-1.247c0.707,-0.843 1.236,-1.834 1.546,-2.89c0.137,-0.47 0.229,-0.951 0.281,-1.437l0.008,-0.086l0.005,-0.061c-1.22,0.209 -2.441,0.418 -3.661,0.627Z" style="fill:#000;fill-rule:nonzero;"/></g></svg>