<?xml version="1.0" encoding="UTF-8" standalone="no"?><!DOCTYPE svg PUBLIC "-//W3C//DTD SVG 1.1//EN" "http://www.w3.org/Graphics/SVG/1.1/DTD/svg11.dtd"><svg width="100%" height="100%" viewBox="0 0 24 24" version="1.1" xmlns="http://www.w3.org/2000/svg" xmlns:xlink="http://www.w3.org/1999/xlink" xml:space="preserve" style="fill-rule:evenodd;clip-rule:evenodd;stroke-linejoin:round;stroke-miterlimit:1.41421;"><g id="home"><path d="M13.066,2c0.134,0.001 0.267,0.013 0.398,0.04c0.322,0.065 0.619,0.21 0.875,0.414c2.354,1.967 4.692,3.955 6.997,5.98c0.107,0.099 0.205,0.206 0.29,0.325c0.233,0.327 0.357,0.713 0.373,1.114c0.047,3.388 0.043,6.778 0,10.166c-0.008,0.219 -0.046,0.434 -0.121,0.64c-0.196,0.536 -0.622,0.972 -1.153,1.181c-0.219,0.087 -0.45,0.13 -0.686,0.139c-5.359,0.068 -10.719,0.068 -16.078,0c-0.236,-0.009 -0.467,-0.052 -0.686,-0.139c-0.531,-0.209 -0.957,-0.645 -1.153,-1.181c-0.075,-0.206 -0.113,-0.421 -0.121,-0.64c-0.043,-3.388 -0.047,-6.778 0,-10.166c0.016,-0.401 0.14,-0.787 0.373,-1.114c0.085,-0.119 0.183,-0.226 0.29,-0.325c2.316,-2.035 4.623,-4.085 7.032,-6.008c0.095,-0.072 0.194,-0.138 0.299,-0.193c0.264,-0.139 0.553,-0.214 0.85,-0.231c0.74,-0.025 1.48,-0.002 2.221,-0.002ZM16,20.01c1.325,-0.006 2.649,-0.01 3.974,-0.01c0.009,0 0.016,0.002 0.022,-0.004c0.003,-0.002 0.004,-0.004 0.004,-0.007c0.042,-3.349 0,-6.699 0,-10.048c0,-0.007 0.002,-0.017 -0.004,-0.023c-2.222,-2.062 -4.609,-3.939 -6.914,-5.908c-0.005,-0.004 -0.009,-0.009 -0.016,-0.01c-0.706,-0.024 -1.414,0 -2.12,0c-0.007,0 -0.013,-0.001 -0.019,0.002c-2.41,1.838 -4.608,3.938 -6.912,5.907c-0.005,0.005 -0.014,0.01 -0.015,0.018c-0.137,3.346 0,6.698 0,10.048c0,0.01 -0.002,0.015 0.004,0.021c0.002,0.003 0.004,0.004 0.008,0.004c1.328,0.017 2.655,0.026 3.983,0.03c-0.007,-2.03 -0.02,-4.059 0.006,-6.088c0.009,-0.233 0.051,-0.462 0.137,-0.679c0.207,-0.526 0.64,-0.948 1.17,-1.142c0.204,-0.075 0.417,-0.112 0.634,-0.12c1.355,-0.017 2.71,-0.001 4.064,-0.001c0.235,0.003 0.465,0.04 0.686,0.121c0.562,0.206 1.011,0.666 1.203,1.233c0.07,0.207 0.102,0.422 0.105,0.64l0,6.016ZM10.006,14l-0.006,0l0,0.006l0,5.994l4,0l0,-5.994l0,-0.006c-1.331,-0.016 -2.663,0 -3.994,0Z" style="fill:#000;"/></g></svg>