<?xml version="1.0" encoding="UTF-8" standalone="no"?><!DOCTYPE svg PUBLIC "-//W3C//DTD SVG 1.1//EN" "http://www.w3.org/Graphics/SVG/1.1/DTD/svg11.dtd"><svg width="100%" height="100%" viewBox="0 0 24 24" version="1.1" xmlns="http://www.w3.org/2000/svg" xmlns:xlink="http://www.w3.org/1999/xlink" xml:space="preserve" style="fill-rule:evenodd;clip-rule:evenodd;stroke-linejoin:round;stroke-miterlimit:1.41421;"><g id="hourglass"><path d="M8.055,18.646c0.22,-2.975 1.903,-5.292 3.945,-5.292c2.042,0 3.725,2.317 3.945,5.292l-7.89,0Z" style="fill:#000;"/><path d="M13.945,8.695c-0.108,1.467 -0.938,2.61 -1.945,2.61c-1.007,0 -1.837,-1.143 -1.945,-2.61l3.89,0Z" style="fill:#000;"/><path d="M18.743,2.001c0.239,0.01 0.474,0.055 0.697,0.146c0.619,0.251 1.081,0.811 1.21,1.467c0.046,0.236 0.047,0.475 0.011,0.713c-0.022,0.118 -0.049,0.235 -0.075,0.353c-0.333,1.451 -0.822,2.868 -1.52,4.185c-0.426,0.802 -0.927,1.567 -1.515,2.259c-0.211,0.248 -0.433,0.484 -0.664,0.712l-0.087,0.083l-0.086,0.081c0.087,0.082 0.173,0.164 0.258,0.248c0.23,0.232 0.45,0.472 0.659,0.723c0.582,0.702 1.077,1.475 1.494,2.285c0.546,1.059 0.96,2.184 1.261,3.336c0.089,0.342 0.166,0.686 0.237,1.032c0.01,0.054 0.018,0.108 0.025,0.163c0.022,0.235 0.009,0.469 -0.05,0.699c-0.153,0.602 -0.593,1.107 -1.169,1.341c-0.22,0.09 -0.451,0.135 -0.687,0.145c-0.492,0.007 -0.984,0.007 -1.476,0.01c-2.372,0.009 -4.745,0.015 -7.117,0.017c-0.593,0 -1.187,0 -1.78,0.001c-1.037,0 -2.074,0.013 -3.112,-0.001c-0.055,-0.002 -0.11,-0.006 -0.166,-0.011c-0.219,-0.028 -0.431,-0.085 -0.631,-0.179c-0.57,-0.268 -0.988,-0.804 -1.11,-1.423c-0.046,-0.236 -0.047,-0.475 -0.011,-0.713c0.022,-0.118 0.049,-0.235 0.075,-0.353c0.333,-1.451 0.822,-2.868 1.52,-4.185c0.426,-0.802 0.927,-1.567 1.515,-2.259c0.211,-0.248 0.433,-0.484 0.664,-0.712l0.087,-0.083l0.086,-0.081c-0.087,-0.082 -0.173,-0.164 -0.258,-0.248c-0.23,-0.232 -0.45,-0.472 -0.659,-0.723c-0.582,-0.702 -1.077,-1.475 -1.494,-2.285c-0.546,-1.059 -0.96,-2.184 -1.261,-3.336c-0.089,-0.342 -0.166,-0.686 -0.237,-1.032c-0.01,-0.054 -0.018,-0.108 -0.025,-0.163c-0.022,-0.235 -0.009,-0.469 0.05,-0.699c0.153,-0.602 0.593,-1.107 1.169,-1.341c0.22,-0.09 0.451,-0.135 0.687,-0.145c0.492,-0.007 0.984,-0.007 1.476,-0.01c1.755,-0.007 3.51,-0.011 5.266,-0.015c1.21,-0.001 2.421,-0.002 3.631,-0.003c1.037,0 2.074,-0.013 3.112,0.001ZM15.631,4c-3.208,0.002 -6.417,0.004 -9.626,0.023l-0.658,0.004c0.277,1.354 0.714,2.681 1.36,3.905c0.492,0.933 1.106,1.803 1.869,2.536l1.539,1.441l0,0.183c-0.536,0.501 -1.078,0.997 -1.607,1.506c-0.76,0.748 -1.371,1.632 -1.861,2.577c-0.624,1.204 -1.052,2.501 -1.334,3.825c1.014,0.099 2.037,0 3.055,0c1.21,-0.001 2.42,-0.002 3.629,-0.003c1.753,-0.004 3.506,-0.008 5.26,-0.015l0.738,-0.005l0.658,-0.004c-0.033,-0.163 -0.069,-0.325 -0.106,-0.488c-0.072,-0.3 -0.15,-0.6 -0.238,-0.896c-0.269,-0.907 -0.621,-1.791 -1.07,-2.624c-0.468,-0.867 -1.044,-1.675 -1.747,-2.367l-0.068,-0.065l-1.539,-1.441l0,-0.183c0.536,-0.502 1.077,-0.998 1.607,-1.507c0.092,-0.09 0.182,-0.182 0.27,-0.276c1.287,-1.395 2.123,-3.163 2.641,-4.976c0.086,-0.301 0.162,-0.605 0.232,-0.91l0.03,-0.133l0.022,-0.107c-1.018,-0.013 -2.037,0 -3.056,0Z" style="fill:#000;fill-rule:nonzero;"/></g></svg>