<?xml version="1.0" encoding="UTF-8" standalone="no"?><!DOCTYPE svg PUBLIC "-//W3C//DTD SVG 1.1//EN" "http://www.w3.org/Graphics/SVG/1.1/DTD/svg11.dtd"><svg width="100%" height="100%" viewBox="0 0 24 24" version="1.1" xmlns="http://www.w3.org/2000/svg" xmlns:xlink="http://www.w3.org/1999/xlink" xml:space="preserve" style="fill-rule:evenodd;clip-rule:evenodd;stroke-linejoin:round;stroke-miterlimit:1.41421;"><g id="idea"><path d="M13,21c0,0 0,0.008 0,0.024c0,0.539 -0.437,0.976 -0.976,0.976c-0.016,0 -0.032,0 -0.048,0c-0.539,0 -0.976,-0.437 -0.976,-0.976c0,-0.016 0,-0.024 0,-0.024l2,0ZM14,19c0.265,0 0.52,0.105 0.707,0.293c0.188,0.187 0.293,0.442 0.293,0.707c0,0.265 -0.105,0.52 -0.293,0.707c-0.187,0.188 -0.442,0.293 -0.707,0.293c-1.11,0 -2.89,0 -4,0c-0.265,0 -0.52,-0.105 -0.707,-0.293c-0.188,-0.187 -0.293,-0.442 -0.293,-0.707c0,-0.265 0.105,-0.52 0.293,-0.707c0.187,-0.188 0.442,-0.293 0.707,-0.293c1.11,0 2.89,0 4,0Z" style="fill:#000;"/><path d="M12.09,2.001l0.091,0.001l0.089,0.003l0.09,0.004l0.089,0.005l0.089,0.006l0.089,0.008l0.088,0.008l0.088,0.01l0.088,0.01l0.087,0.012l0.087,0.013l0.087,0.014l0.086,0.014l0.086,0.016l0.086,0.017l0.085,0.018l0.085,0.019l0.084,0.02l0.085,0.022l0.083,0.022l0.083,0.023l0.083,0.024l0.083,0.025l0.082,0.026l0.081,0.027l0.081,0.028l0.081,0.029l0.08,0.03l0.08,0.031l0.079,0.032l0.079,0.032l0.078,0.034l0.078,0.035l0.077,0.035l0.077,0.037l0.076,0.037l0.076,0.038l0.075,0.039l0.074,0.04l0.075,0.041l0.073,0.042l0.073,0.043l0.073,0.043l0.071,0.044l0.072,0.045l0.071,0.046l0.07,0.047l0.069,0.048l0.069,0.048l0.068,0.049l0.068,0.05l0.067,0.051l0.067,0.052l0.065,0.052l0.066,0.053l0.064,0.054l0.064,0.055l0.063,0.055l0.063,0.056l0.061,0.057l0.062,0.058l0.06,0.058l0.06,0.059l0.059,0.06l0.058,0.06l0.058,0.062l0.057,0.061l0.056,0.063l0.055,0.063l0.055,0.064l0.054,0.064l0.053,0.066l0.052,0.065l0.052,0.067l0.051,0.067l0.05,0.068l0.049,0.068l0.048,0.069l0.048,0.069l0.047,0.07l0.046,0.071l0.045,0.072l0.044,0.071l0.043,0.073l0.043,0.073l0.042,0.073l0.041,0.075l0.04,0.074l0.039,0.075l0.038,0.076l0.037,0.076l0.037,0.077l0.035,0.077l0.035,0.078l0.034,0.078l0.032,0.079l0.032,0.079l0.031,0.08l0.03,0.08l0.029,0.081l0.028,0.081l0.027,0.081l0.026,0.082l0.025,0.083l0.024,0.083l0.023,0.083l0.022,0.083l0.022,0.085l0.02,0.084l0.019,0.085l0.018,0.085l0.017,0.086l0.016,0.086l0.014,0.086l0.014,0.087l0.013,0.087l0.012,0.087l0.01,0.088l0.01,0.088l0.008,0.088l0.008,0.089l0.006,0.089l0.005,0.089l0.004,0.09l0.003,0.089l0.001,0.091l0.001,0.09l-0.001,0.131l-0.004,0.129l-0.006,0.13l-0.008,0.128l-0.011,0.129l-0.012,0.127l-0.016,0.127l-0.017,0.126l-0.02,0.125l-0.021,0.125l-0.024,0.123l-0.027,0.123l-0.028,0.123l-0.03,0.121l-0.033,0.121l-0.035,0.119l-0.036,0.119l-0.039,0.118l-0.041,0.117l-0.043,0.116l-0.044,0.115l-0.047,0.114l-0.049,0.113l-0.05,0.112l-0.053,0.111l-0.054,0.11l-0.056,0.109l-0.058,0.107l-0.06,0.107l-0.062,0.105l-0.063,0.104l-0.065,0.103l-0.067,0.102l-0.069,0.101l-0.07,0.099l-0.072,0.098l-0.074,0.097l-0.075,0.095l-0.077,0.094l-0.078,0.093l-0.08,0.091l-0.082,0.09l-0.083,0.088l-0.085,0.087l-0.086,0.086l-0.087,0.084l-0.089,0.082l-0.091,0.081l-0.091,0.08l-0.094,0.077l-0.094,0.077l-0.096,0.074l-0.097,0.073l-0.099,0.072l-0.099,0.069l-0.101,0.068l-0.103,0.066l-0.103,0.065l-0.105,0.063l-0.105,0.061l-0.107,0.059l-0.109,0.057l-0.109,0.056l-0.11,0.053l0,0.691l-0.001,0.05l-0.001,0.049l-0.003,0.049l-0.005,0.049l-0.005,0.048l-0.007,0.048l-0.008,0.048l-0.008,0.048l-0.011,0.048l-0.011,0.047l-0.012,0.047l-0.014,0.046l-0.014,0.047l-0.016,0.045l-0.017,0.046l-0.018,0.045l-0.019,0.044l-0.02,0.044l-0.021,0.044l-0.023,0.043l-0.023,0.042l-0.024,0.042l-0.026,0.041l-0.026,0.041l-0.028,0.04l-0.028,0.04l-0.03,0.038l-0.03,0.039l-0.032,0.037l-0.032,0.037l-0.034,0.036l-0.034,0.035l-0.035,0.034l-0.036,0.034l-0.037,0.032l-0.037,0.032l-0.039,0.03l-0.038,0.03l-0.04,0.028l-0.04,0.028l-0.041,0.026l-0.041,0.026l-0.042,0.024l-0.042,0.023l-0.043,0.023l-0.044,0.021l-0.044,0.02l-0.044,0.019l-0.045,0.018l-0.046,0.017l-0.045,0.016l-0.047,0.014l-0.046,0.014l-0.047,0.012l-0.047,0.011l-0.048,0.011l-0.048,0.008l-0.048,0.008l-0.048,0.007l-0.048,0.005l-0.049,0.005l-0.049,0.003l-0.049,0.001l-0.049,0.001l-2.034,0l-0.049,-0.001l-0.049,-0.001l-0.049,-0.003l-0.049,-0.005l-0.048,-0.005l-0.048,-0.007l-0.048,-0.008l-0.048,-0.008l-0.048,-0.011l-0.047,-0.011l-0.047,-0.012l-0.046,-0.014l-0.047,-0.014l-0.045,-0.016l-0.046,-0.017l-0.045,-0.018l-0.044,-0.019l-0.044,-0.02l-0.044,-0.021l-0.043,-0.023l-0.042,-0.023l-0.042,-0.024l-0.041,-0.026l-0.041,-0.026l-0.04,-0.028l-0.04,-0.028l-0.038,-0.03l-0.039,-0.03l-0.037,-0.032l-0.037,-0.032l-0.036,-0.034l-0.035,-0.034l-0.034,-0.035l-0.034,-0.036l-0.032,-0.037l-0.032,-0.037l-0.03,-0.039l-0.03,-0.038l-0.028,-0.04l-0.028,-0.04l-0.026,-0.041l-0.026,-0.041l-0.024,-0.042l-0.023,-0.042l-0.023,-0.043l-0.021,-0.044l-0.02,-0.044l-0.019,-0.044l-0.018,-0.045l-0.017,-0.046l-0.016,-0.045l-0.014,-0.047l-0.014,-0.046l-0.012,-0.047l-0.011,-0.047l-0.011,-0.048l-0.008,-0.048l-0.008,-0.048l-0.007,-0.048l-0.005,-0.048l-0.005,-0.049l-0.003,-0.049l-0.001,-0.049l-0.001,-0.05l0,-0.691l-0.11,-0.053l-0.109,-0.056l-0.109,-0.057l-0.107,-0.059l-0.105,-0.061l-0.105,-0.063l-0.103,-0.065l-0.103,-0.066l-0.101,-0.068l-0.099,-0.069l-0.099,-0.072l-0.097,-0.073l-0.096,-0.074l-0.094,-0.077l-0.094,-0.077l-0.091,-0.08l-0.091,-0.081l-0.089,-0.082l-0.087,-0.084l-0.086,-0.086l-0.085,-0.087l-0.083,-0.088l-0.082,-0.09l-0.08,-0.091l-0.078,-0.093l-0.077,-0.094l-0.075,-0.095l-0.074,-0.097l-0.072,-0.098l-0.07,-0.099l-0.069,-0.101l-0.067,-0.102l-0.065,-0.103l-0.063,-0.104l-0.062,-0.105l-0.06,-0.107l-0.058,-0.107l-0.056,-0.109l-0.054,-0.11l-0.053,-0.111l-0.05,-0.112l-0.049,-0.113l-0.047,-0.114l-0.044,-0.115l-0.043,-0.116l-0.041,-0.117l-0.039,-0.118l-0.036,-0.119l-0.035,-0.119l-0.033,-0.121l-0.03,-0.121l-0.028,-0.123l-0.027,-0.123l-0.024,-0.123l-0.021,-0.125l-0.02,-0.125l-0.017,-0.126l-0.016,-0.127l-0.012,-0.127l-0.011,-0.129l-0.008,-0.128l-0.006,-0.13l-0.004,-0.129l-0.001,-0.131l0.001,-0.09l0.001,-0.091l0.003,-0.089l0.004,-0.09l0.005,-0.089l0.006,-0.089l0.008,-0.089l0.008,-0.088l0.01,-0.088l0.01,-0.088l0.012,-0.087l0.013,-0.087l0.014,-0.087l0.014,-0.086l0.016,-0.086l0.017,-0.086l0.018,-0.085l0.019,-0.085l0.02,-0.084l0.022,-0.085l0.022,-0.083l0.023,-0.083l0.024,-0.083l0.025,-0.083l0.026,-0.082l0.027,-0.081l0.028,-0.081l0.029,-0.081l0.03,-0.08l0.031,-0.08l0.032,-0.079l0.032,-0.079l0.034,-0.078l0.035,-0.078l0.035,-0.077l0.037,-0.077l0.037,-0.076l0.038,-0.076l0.039,-0.075l0.04,-0.074l0.041,-0.075l0.042,-0.073l0.043,-0.073l0.043,-0.073l0.044,-0.071l0.045,-0.072l0.046,-0.071l0.047,-0.07l0.048,-0.069l0.048,-0.069l0.049,-0.068l0.05,-0.068l0.051,-0.067l0.052,-0.067l0.052,-0.065l0.053,-0.066l0.054,-0.064l0.055,-0.064l0.055,-0.063l0.056,-0.063l0.057,-0.061l0.058,-0.062l0.058,-0.06l0.059,-0.06l0.06,-0.059l0.06,-0.058l0.062,-0.058l0.061,-0.057l0.063,-0.056l0.063,-0.055l0.064,-0.055l0.064,-0.054l0.066,-0.053l0.065,-0.052l0.067,-0.052l0.067,-0.051l0.068,-0.05l0.068,-0.049l0.069,-0.048l0.069,-0.048l0.07,-0.047l0.071,-0.046l0.072,-0.045l0.071,-0.044l0.073,-0.043l0.073,-0.043l0.073,-0.042l0.075,-0.041l0.074,-0.04l0.075,-0.039l0.076,-0.038l0.076,-0.037l0.077,-0.037l0.077,-0.035l0.078,-0.035l0.078,-0.034l0.079,-0.032l0.079,-0.032l0.08,-0.031l0.08,-0.03l0.081,-0.029l0.081,-0.028l0.081,-0.027l0.082,-0.026l0.083,-0.025l0.083,-0.024l0.083,-0.023l0.083,-0.022l0.085,-0.022l0.084,-0.02l0.085,-0.019l0.085,-0.018l0.086,-0.017l0.086,-0.016l0.086,-0.014l0.087,-0.014l0.087,-0.013l0.087,-0.012l0.088,-0.01l0.088,-0.01l0.088,-0.008l0.089,-0.008l0.089,-0.006l0.089,-0.005l0.09,-0.004l0.089,-0.003l0.091,-0.001l0.09,-0.001l0.09,0.001ZM11.935,4l-0.066,0.002l-0.064,0.002l-0.063,0.003l-0.065,0.003l-0.064,0.005l-0.062,0.005l-0.063,0.006l-0.064,0.007l-0.062,0.007l-0.063,0.009l-0.063,0.009l-0.061,0.01l-0.061,0.01l-0.062,0.012l-0.061,0.012l-0.06,0.012l-0.06,0.014l-0.062,0.015l-0.06,0.015l-0.058,0.015l-0.06,0.017l-0.058,0.017l-0.059,0.017l-0.059,0.019l-0.057,0.019l-0.058,0.02l-0.058,0.021l-0.056,0.021l-0.058,0.022l-0.056,0.023l-0.057,0.024l-0.055,0.023l-0.055,0.025l-0.056,0.026l-0.054,0.025l-0.054,0.027l-0.055,0.027l-0.053,0.028l-0.054,0.029l-0.052,0.029l-0.052,0.029l-0.053,0.031l-0.052,0.031l-0.051,0.032l-0.051,0.032l-0.05,0.032l-0.051,0.034l-0.05,0.034l-0.049,0.035l-0.049,0.035l-0.048,0.036l-0.048,0.036l-0.047,0.037l-0.048,0.038l-0.047,0.038l-0.046,0.039l-0.046,0.039l-0.044,0.039l-0.045,0.04l-0.045,0.041l-0.044,0.042l-0.043,0.042l-0.042,0.041l-0.043,0.043l-0.042,0.044l-0.041,0.043l-0.041,0.045l-0.04,0.044l-0.04,0.046l-0.039,0.046l-0.038,0.045l-0.038,0.047l-0.038,0.048l-0.037,0.047l-0.036,0.048l-0.036,0.048l-0.035,0.049l-0.035,0.049l-0.034,0.05l-0.033,0.051l-0.033,0.05l-0.032,0.051l-0.032,0.051l-0.031,0.052l-0.03,0.052l-0.03,0.053l-0.029,0.052l-0.029,0.054l-0.028,0.054l-0.027,0.054l-0.027,0.054l-0.025,0.054l-0.026,0.056l-0.025,0.055l-0.024,0.056l-0.023,0.056l-0.023,0.057l-0.022,0.056l-0.021,0.057l-0.021,0.058l-0.02,0.057l-0.019,0.058l-0.018,0.059l-0.018,0.059l-0.017,0.059l-0.017,0.059l-0.016,0.059l-0.015,0.06l-0.014,0.06l-0.013,0.06l-0.013,0.061l-0.012,0.061l-0.012,0.062l-0.01,0.061l-0.01,0.062l-0.009,0.062l-0.009,0.062l-0.007,0.063l-0.007,0.063l-0.006,0.063l-0.005,0.064l-0.005,0.063l-0.003,0.064l-0.003,0.065l-0.002,0.064l-0.002,0.065l0,0.062l0.001,0.097l0.003,0.093l0.004,0.093l0.006,0.092l0.007,0.092l0.009,0.091l0.011,0.09l0.013,0.09l0.014,0.09l0.015,0.088l0.017,0.089l0.019,0.088l0.02,0.086l0.022,0.087l0.023,0.086l0.025,0.085l0.026,0.085l0.027,0.083l0.029,0.084l0.031,0.082l0.032,0.082l0.033,0.082l0.035,0.08l0.036,0.08l0.037,0.079l0.039,0.078l0.04,0.078l0.042,0.077l0.042,0.076l0.044,0.075l0.046,0.075l0.046,0.073l0.048,0.073l0.049,0.072l0.05,0.071l0.052,0.07l0.052,0.069l0.054,0.068l0.056,0.068l0.056,0.066l0.057,0.065l0.058,0.065l0.06,0.063l0.061,0.062l0.061,0.062l0.063,0.06l0.064,0.059l0.064,0.058l0.066,0.057l0.067,0.056l0.067,0.054l0.069,0.054l0.069,0.052l0.071,0.051l0.071,0.05l0.072,0.048l0.074,0.048l0.074,0.046l0.074,0.045l0.076,0.043l0.076,0.042l0.078,0.041l0.078,0.04l0.093,0.046l0.099,0.051l0.097,0.057l0.092,0.063l0.089,0.067l0.086,0.073l0.081,0.077l0.076,0.081l0.072,0.086l0.067,0.089l0.062,0.093l0.057,0.097l0.051,0.099l0.046,0.102l0.039,0.105l0.034,0.106l0.028,0.109l0.022,0.109l0.016,0.111l0.009,0.112l0.003,0.111l0,0.675l2,0l0,-0.675l0.003,-0.111l0.009,-0.112l0.016,-0.111l0.022,-0.109l0.028,-0.109l0.034,-0.106l0.039,-0.105l0.046,-0.102l0.051,-0.099l0.057,-0.097l0.062,-0.093l0.067,-0.089l0.072,-0.086l0.076,-0.081l0.081,-0.077l0.086,-0.073l0.089,-0.067l0.092,-0.063l0.097,-0.057l0.099,-0.051l0.093,-0.046l0.078,-0.04l0.078,-0.041l0.076,-0.042l0.076,-0.043l0.074,-0.045l0.074,-0.046l0.074,-0.048l0.072,-0.048l0.071,-0.05l0.071,-0.051l0.069,-0.052l0.069,-0.054l0.067,-0.054l0.067,-0.056l0.066,-0.057l0.064,-0.058l0.064,-0.059l0.063,-0.06l0.061,-0.062l0.061,-0.062l0.06,-0.063l0.058,-0.065l0.057,-0.065l0.056,-0.066l0.056,-0.068l0.054,-0.068l0.052,-0.069l0.052,-0.07l0.05,-0.071l0.049,-0.072l0.048,-0.073l0.046,-0.073l0.046,-0.075l0.044,-0.075l0.042,-0.076l0.042,-0.077l0.04,-0.078l0.039,-0.078l0.037,-0.079l0.036,-0.08l0.035,-0.08l0.033,-0.082l0.032,-0.082l0.031,-0.083l0.029,-0.083l0.027,-0.083l0.026,-0.085l0.025,-0.085l0.023,-0.086l0.022,-0.086l0.02,-0.087l0.019,-0.088l0.017,-0.089l0.015,-0.088l0.014,-0.09l0.013,-0.09l0.011,-0.09l0.009,-0.091l0.007,-0.092l0.006,-0.092l0.004,-0.093l0.003,-0.093l0.001,-0.097l0,-0.062l-0.002,-0.065l-0.002,-0.064l-0.003,-0.065l-0.003,-0.064l-0.005,-0.063l-0.005,-0.064l-0.006,-0.063l-0.007,-0.063l-0.007,-0.062l-0.009,-0.063l-0.009,-0.062l-0.01,-0.062l-0.01,-0.061l-0.012,-0.062l-0.012,-0.061l-0.013,-0.061l-0.013,-0.06l-0.014,-0.059l-0.015,-0.061l-0.016,-0.059l-0.016,-0.059l-0.018,-0.06l-0.018,-0.058l-0.018,-0.059l-0.019,-0.057l-0.02,-0.058l-0.021,-0.058l-0.021,-0.057l-0.022,-0.056l-0.023,-0.057l-0.023,-0.056l-0.024,-0.056l-0.025,-0.055l-0.025,-0.056l-0.026,-0.054l-0.027,-0.054l-0.027,-0.054l-0.028,-0.054l-0.029,-0.054l-0.029,-0.052l-0.03,-0.053l-0.03,-0.052l-0.031,-0.052l-0.032,-0.051l-0.032,-0.051l-0.033,-0.05l-0.033,-0.051l-0.034,-0.05l-0.035,-0.049l-0.035,-0.049l-0.036,-0.048l-0.036,-0.048l-0.037,-0.047l-0.038,-0.048l-0.038,-0.047l-0.038,-0.045l-0.039,-0.046l-0.04,-0.046l-0.04,-0.044l-0.041,-0.045l-0.041,-0.043l-0.042,-0.044l-0.043,-0.043l-0.042,-0.041l-0.043,-0.042l-0.044,-0.042l-0.045,-0.041l-0.045,-0.04l-0.044,-0.039l-0.046,-0.039l-0.046,-0.039l-0.047,-0.038l-0.048,-0.038l-0.047,-0.037l-0.048,-0.036l-0.048,-0.036l-0.049,-0.035l-0.049,-0.035l-0.05,-0.034l-0.051,-0.034l-0.05,-0.032l-0.051,-0.032l-0.051,-0.032l-0.052,-0.031l-0.053,-0.031l-0.052,-0.029l-0.052,-0.029l-0.054,-0.029l-0.053,-0.028l-0.055,-0.027l-0.054,-0.027l-0.054,-0.025l-0.056,-0.026l-0.055,-0.025l-0.055,-0.023l-0.057,-0.024l-0.056,-0.023l-0.058,-0.022l-0.056,-0.021l-0.058,-0.021l-0.058,-0.02l-0.057,-0.019l-0.059,-0.019l-0.059,-0.017l-0.058,-0.017l-0.06,-0.017l-0.058,-0.015l-0.06,-0.015l-0.062,-0.015l-0.06,-0.014l-0.06,-0.012l-0.061,-0.012l-0.062,-0.012l-0.061,-0.01l-0.061,-0.01l-0.063,-0.009l-0.063,-0.009l-0.062,-0.007l-0.064,-0.007l-0.063,-0.006l-0.062,-0.005l-0.064,-0.005l-0.065,-0.003l-0.063,-0.003l-0.064,-0.002l-0.066,-0.002l-0.065,0l-0.065,0Z" style="fill:#000;"/></g></svg>