<?xml version="1.0" encoding="UTF-8" standalone="no"?><!DOCTYPE svg PUBLIC "-//W3C//DTD SVG 1.1//EN" "http://www.w3.org/Graphics/SVG/1.1/DTD/svg11.dtd"><svg width="100%" height="100%" viewBox="0 0 24 24" version="1.1" xmlns="http://www.w3.org/2000/svg" xmlns:xlink="http://www.w3.org/1999/xlink" xml:space="preserve" style="fill-rule:evenodd;clip-rule:evenodd;stroke-linejoin:round;stroke-miterlimit:1.41421;"><g id="image_file"><path d="M13.417,12.004c0.075,0.008 0.148,0.02 0.22,0.043c0.201,0.064 0.366,0.189 0.496,0.352c0.937,1.324 1.8,2.697 2.699,4.046c0.111,0.177 0.174,0.374 0.168,0.584c-0.011,0.36 -0.222,0.695 -0.542,0.86c-0.083,0.043 -0.172,0.074 -0.264,0.092c-0.11,0.022 -0.224,0.025 -0.335,0.009c-0.129,-0.018 -0.255,-0.063 -0.368,-0.129c-0.131,-0.078 -0.236,-0.183 -0.323,-0.306l-1.835,-2.752l-1.834,2.752c-0.033,0.046 -0.033,0.046 -0.068,0.089c-0.088,0.099 -0.187,0.183 -0.305,0.244c-0.32,0.166 -0.716,0.144 -1.015,-0.057c-0.111,-0.074 -0.2,-0.168 -0.276,-0.276l-0.502,-0.752l-0.501,0.752c-0.032,0.045 -0.032,0.045 -0.067,0.089c-0.126,0.142 -0.279,0.25 -0.46,0.308c-0.401,0.129 -0.85,-0.014 -1.103,-0.35c-0.068,-0.089 -0.12,-0.19 -0.154,-0.297c-0.04,-0.125 -0.055,-0.257 -0.045,-0.388c0.013,-0.152 0.062,-0.292 0.135,-0.424c0.436,-0.695 0.908,-1.365 1.363,-2.048c0.077,-0.108 0.166,-0.202 0.276,-0.276c0.333,-0.223 0.779,-0.223 1.112,0c0.111,0.074 0.2,0.168 0.276,0.276l0.502,0.752l1.834,-2.752c0.033,-0.046 0.032,-0.045 0.068,-0.089c0.05,-0.057 0.102,-0.109 0.162,-0.155c0.153,-0.115 0.33,-0.176 0.518,-0.197c0.057,-0.004 0.112,-0.004 0.168,0Z" style="fill:#000;fill-rule:nonzero;"/><circle cx="9.25" cy="10.81" r="2" style="fill:#000;"/><path d="M15.017,2l1.983,2l3,2.978l0,13.021l-0.001,0.05l-0.001,0.049l-0.004,0.05l-0.004,0.049l-0.005,0.049l-0.007,0.049l-0.008,0.048l-0.009,0.048l-0.01,0.048l-0.011,0.048l-0.013,0.047l-0.013,0.047l-0.015,0.047l-0.016,0.046l-0.017,0.046l-0.018,0.045l-0.02,0.045l-0.02,0.044l-0.021,0.044l-0.023,0.043l-0.023,0.043l-0.025,0.042l-0.025,0.042l-0.027,0.041l-0.028,0.041l-0.029,0.04l-0.029,0.039l-0.031,0.038l-0.032,0.038l-0.033,0.037l-0.033,0.036l-0.035,0.036l-0.036,0.035l-0.036,0.033l-0.037,0.033l-0.038,0.032l-0.038,0.031l-0.039,0.029l-0.04,0.029l-0.041,0.028l-0.041,0.027l-0.042,0.025l-0.042,0.025l-0.043,0.023l-0.043,0.023l-0.044,0.021l-0.044,0.02l-0.045,0.02l-0.045,0.018l-0.046,0.017l-0.046,0.016l-0.047,0.015l-0.047,0.013l-0.047,0.013l-0.048,0.011l-0.048,0.01l-0.048,0.009l-0.048,0.008l-0.049,0.007l-0.049,0.005l-0.049,0.004l-0.05,0.004l-0.049,0.001l-0.05,0.001l-11.979,0l-0.05,-0.001l-0.05,-0.001l-0.05,-0.004l-0.05,-0.004l-0.049,-0.005l-0.049,-0.007l-0.049,-0.008l-0.049,-0.009l-0.048,-0.01l-0.049,-0.012l-0.047,-0.013l-0.048,-0.013l-0.047,-0.015l-0.046,-0.016l-0.046,-0.017l-0.046,-0.019l-0.045,-0.019l-0.045,-0.021l-0.045,-0.021l-0.043,-0.023l-0.044,-0.024l-0.042,-0.025l-0.042,-0.025l-0.042,-0.027l-0.041,-0.028l-0.04,-0.029l-0.039,-0.03l-0.039,-0.031l-0.038,-0.032l-0.038,-0.034l-0.037,-0.034l-0.035,-0.035l-0.035,-0.035l-0.034,-0.037l-0.034,-0.038l-0.032,-0.038l-0.031,-0.039l-0.03,-0.039l-0.029,-0.04l-0.028,-0.041l-0.027,-0.042l-0.025,-0.042l-0.025,-0.042l-0.024,-0.044l-0.023,-0.043l-0.021,-0.045l-0.021,-0.045l-0.019,-0.045l-0.019,-0.046l-0.017,-0.046l-0.016,-0.046l-0.015,-0.047l-0.013,-0.048l-0.013,-0.047l-0.012,-0.049l-0.01,-0.048l-0.009,-0.049l-0.008,-0.049l-0.007,-0.049l-0.005,-0.049l-0.004,-0.05l-0.004,-0.05l-0.001,-0.05l-0.001,-0.05l0,-16.011l0.001,-0.049l0.001,-0.049l0.003,-0.048l0.005,-0.048l0.005,-0.049l0.007,-0.048l0.007,-0.047l0.009,-0.048l0.01,-0.047l0.011,-0.047l0.013,-0.046l0.013,-0.047l0.015,-0.045l0.015,-0.046l0.017,-0.045l0.018,-0.044l0.019,-0.045l0.02,-0.043l0.021,-0.043l0.022,-0.043l0.023,-0.042l0.024,-0.042l0.026,-0.041l0.026,-0.04l0.027,-0.04l0.028,-0.039l0.03,-0.039l0.03,-0.038l0.031,-0.037l0.032,-0.036l0.034,-0.036l0.034,-0.035l0.035,-0.034l0.035,-0.034l0.037,-0.032l0.037,-0.031l0.038,-0.03l0.039,-0.03l0.039,-0.028l0.04,-0.027l0.04,-0.026l0.041,-0.026l0.042,-0.024l0.042,-0.023l0.043,-0.022l0.043,-0.021l0.043,-0.02l0.045,-0.019l0.044,-0.018l0.045,-0.017l0.046,-0.015l0.045,-0.015l0.047,-0.013l0.046,-0.013l0.047,-0.011l0.047,-0.01l0.048,-0.009l0.047,-0.007l0.048,-0.007l0.049,-0.005l0.048,-0.005l0.048,-0.003l0.049,-0.001l0.049,-0.001l9.048,0ZM6,4l0,15.968l0.001,0.017l0.002,0.006l0.007,0.006l0.007,0.003l0.003,0l0.012,0l11.955,0l0.011,0l0.001,0l0,0l0.001,0l0,0l0,-0.001l0,0l0,0l0,-0.012l0,-9.987l-6,0l0,-6l-6,0ZM14,8l4,0l-4,-4l0,4Z" style="fill:#000;"/></g></svg>