<?xml version="1.0" encoding="UTF-8" standalone="no"?><!DOCTYPE svg PUBLIC "-//W3C//DTD SVG 1.1//EN" "http://www.w3.org/Graphics/SVG/1.1/DTD/svg11.dtd"><svg width="100%" height="100%" viewBox="0 0 24 24" version="1.1" xmlns="http://www.w3.org/2000/svg" xmlns:xlink="http://www.w3.org/1999/xlink" xml:space="preserve" style="fill-rule:evenodd;clip-rule:evenodd;stroke-linejoin:round;stroke-miterlimit:1.41421;"><g id="image"><path d="M20.053,2.001l0.051,0.002l0.051,0.003l0.051,0.004l0.05,0.006l0.05,0.007l0.049,0.008l0.049,0.01l0.049,0.01l0.048,0.012l0.047,0.013l0.048,0.014l0.046,0.015l0.046,0.016l0.046,0.018l0.045,0.018l0.045,0.02l0.044,0.02l0.043,0.022l0.043,0.022l0.042,0.024l0.041,0.024l0.041,0.026l0.041,0.026l0.039,0.028l0.039,0.028l0.038,0.029l0.037,0.031l0.037,0.031l0.036,0.031l0.035,0.033l0.034,0.034l0.034,0.034l0.033,0.035l0.031,0.036l0.031,0.037l0.031,0.037l0.029,0.038l0.028,0.039l0.028,0.039l0.026,0.041l0.026,0.041l0.024,0.041l0.024,0.042l0.022,0.043l0.022,0.043l0.02,0.044l0.02,0.045l0.018,0.045l0.018,0.046l0.016,0.046l0.015,0.046l0.014,0.048l0.013,0.047l0.012,0.048l0.01,0.049l0.01,0.049l0.008,0.049l0.007,0.05l0.006,0.05l0.004,0.051l0.003,0.051l0.002,0.051l0.001,0.051l0,16.004l-0.001,0.051l-0.002,0.051l-0.003,0.051l-0.004,0.051l-0.006,0.05l-0.007,0.05l-0.008,0.049l-0.01,0.049l-0.01,0.049l-0.012,0.048l-0.013,0.047l-0.014,0.048l-0.015,0.046l-0.016,0.046l-0.018,0.046l-0.018,0.045l-0.02,0.045l-0.02,0.044l-0.022,0.043l-0.022,0.043l-0.024,0.042l-0.024,0.041l-0.026,0.041l-0.026,0.041l-0.028,0.039l-0.028,0.039l-0.029,0.038l-0.031,0.037l-0.031,0.037l-0.031,0.036l-0.033,0.035l-0.034,0.034l-0.034,0.034l-0.035,0.033l-0.036,0.031l-0.037,0.031l-0.037,0.031l-0.038,0.029l-0.039,0.028l-0.039,0.028l-0.041,0.026l-0.041,0.026l-0.041,0.024l-0.042,0.024l-0.043,0.022l-0.043,0.022l-0.044,0.02l-0.045,0.02l-0.045,0.018l-0.046,0.018l-0.046,0.016l-0.046,0.015l-0.048,0.014l-0.047,0.013l-0.048,0.012l-0.049,0.01l-0.049,0.01l-0.049,0.008l-0.05,0.007l-0.05,0.006l-0.051,0.004l-0.051,0.003l-0.051,0.002l-0.051,0.001l-16.004,0l-0.051,-0.001l-0.051,-0.002l-0.051,-0.003l-0.051,-0.004l-0.05,-0.006l-0.05,-0.007l-0.049,-0.008l-0.049,-0.01l-0.049,-0.01l-0.048,-0.012l-0.047,-0.013l-0.048,-0.014l-0.046,-0.015l-0.046,-0.016l-0.046,-0.018l-0.045,-0.018l-0.045,-0.02l-0.044,-0.02l-0.043,-0.022l-0.043,-0.022l-0.042,-0.024l-0.041,-0.024l-0.041,-0.026l-0.041,-0.026l-0.039,-0.028l-0.039,-0.028l-0.038,-0.029l-0.037,-0.031l-0.037,-0.031l-0.036,-0.031l-0.035,-0.033l-0.034,-0.034l-0.034,-0.034l-0.033,-0.035l-0.031,-0.036l-0.031,-0.037l-0.031,-0.037l-0.029,-0.038l-0.028,-0.039l-0.028,-0.039l-0.026,-0.041l-0.026,-0.041l-0.024,-0.041l-0.024,-0.042l-0.022,-0.043l-0.022,-0.043l-0.02,-0.044l-0.02,-0.045l-0.018,-0.045l-0.018,-0.046l-0.016,-0.046l-0.015,-0.046l-0.014,-0.048l-0.013,-0.047l-0.012,-0.048l-0.01,-0.049l-0.01,-0.049l-0.008,-0.049l-0.007,-0.05l-0.006,-0.05l-0.004,-0.051l-0.003,-0.051l-0.002,-0.051l-0.001,-0.051l0,-16.004l0.001,-0.051l0.002,-0.051l0.003,-0.051l0.004,-0.051l0.006,-0.05l0.007,-0.05l0.008,-0.049l0.01,-0.049l0.01,-0.049l0.012,-0.048l0.013,-0.047l0.014,-0.048l0.015,-0.046l0.016,-0.046l0.018,-0.046l0.018,-0.045l0.02,-0.045l0.02,-0.044l0.022,-0.043l0.022,-0.043l0.024,-0.042l0.024,-0.041l0.026,-0.041l0.026,-0.041l0.028,-0.039l0.028,-0.039l0.029,-0.038l0.031,-0.037l0.031,-0.037l0.031,-0.036l0.033,-0.035l0.034,-0.034l0.034,-0.034l0.035,-0.033l0.036,-0.031l0.037,-0.031l0.037,-0.031l0.038,-0.029l0.039,-0.028l0.039,-0.028l0.041,-0.026l0.041,-0.026l0.041,-0.024l0.042,-0.024l0.043,-0.022l0.043,-0.022l0.044,-0.02l0.045,-0.02l0.045,-0.018l0.046,-0.018l0.046,-0.016l0.046,-0.015l0.048,-0.014l0.047,-0.013l0.048,-0.012l0.049,-0.01l0.049,-0.01l0.049,-0.008l0.05,-0.007l0.05,-0.006l0.051,-0.004l0.051,-0.003l0.051,-0.002l0.051,-0.001l16.004,0l0.051,0.001ZM4.011,4l-0.011,0l0,0.011l0,15.978l0,0.011l0.011,0l15.978,0l0.011,0l0,-0.011l0,-15.978l0,-0.011l-0.011,0l-15.978,0Z" style="fill:#000;"/><path d="M8.169,13.014c0.067,0.014 0.131,0.03 0.195,0.055c0.148,0.057 0.281,0.15 0.385,0.269c0.04,0.045 0.048,0.058 0.083,0.107l1.168,1.752l3.168,-4.752l0.039,-0.055c0.088,-0.106 0.186,-0.196 0.306,-0.264c0.3,-0.167 0.674,-0.167 0.974,0c0.12,0.068 0.218,0.158 0.306,0.264c1.413,1.972 2.693,4.037 4.039,6.055c0.032,0.052 0.041,0.064 0.068,0.119c0.069,0.143 0.104,0.303 0.1,0.463c-0.003,0.091 -0.018,0.181 -0.045,0.268c-0.102,0.331 -0.375,0.59 -0.711,0.675c-0.11,0.028 -0.225,0.036 -0.339,0.025c-0.136,-0.012 -0.269,-0.054 -0.389,-0.12c-0.142,-0.078 -0.254,-0.189 -0.348,-0.32l-3.168,-4.752l-3.168,4.752l-0.039,0.055c-0.088,0.106 -0.186,0.196 -0.306,0.264c-0.321,0.178 -0.724,0.165 -1.032,-0.035c-0.116,-0.076 -0.207,-0.173 -0.287,-0.284l-1.168,-1.752l-1.168,1.752l-0.04,0.055c-0.103,0.125 -0.222,0.227 -0.369,0.296c-0.357,0.167 -0.791,0.104 -1.086,-0.157c-0.085,-0.076 -0.157,-0.166 -0.212,-0.265c-0.055,-0.1 -0.093,-0.209 -0.112,-0.321c-0.026,-0.158 -0.013,-0.321 0.036,-0.473c0.022,-0.065 0.051,-0.126 0.083,-0.187c0.644,-1.041 1.357,-2.039 2.036,-3.058c0.04,-0.055 0.08,-0.108 0.129,-0.156c0.129,-0.128 0.292,-0.218 0.468,-0.261c0.089,-0.022 0.178,-0.027 0.269,-0.027c0.068,0.004 0.067,0.004 0.135,0.013Z" style="fill:#000;fill-rule:nonzero;"/></g></svg>