<?xml version="1.0" encoding="UTF-8" standalone="no"?><!DOCTYPE svg PUBLIC "-//W3C//DTD SVG 1.1//EN" "http://www.w3.org/Graphics/SVG/1.1/DTD/svg11.dtd"><svg width="100%" height="100%" viewBox="0 0 24 24" version="1.1" xmlns="http://www.w3.org/2000/svg" xmlns:xlink="http://www.w3.org/1999/xlink" xml:space="preserve" style="fill-rule:evenodd;clip-rule:evenodd;stroke-linejoin:round;stroke-miterlimit:1.41421;"><g id="jump_forwards"><path d="M14.001,7l-1.082,0l-0.727,0.001l-0.339,0.001l-0.069,0.002l-0.076,0.003l-0.076,0.004l-0.075,0.005l-0.075,0.006l-0.075,0.007l-0.074,0.008l-0.074,0.008l-0.074,0.01l-0.074,0.01l-0.073,0.012l-0.073,0.012l-0.073,0.013l-0.072,0.014l-0.073,0.015l-0.071,0.016l-0.072,0.016l-0.07,0.018l-0.071,0.018l-0.071,0.019l-0.07,0.02l-0.07,0.021l-0.069,0.021l-0.069,0.023l-0.069,0.023l-0.068,0.024l-0.068,0.025l-0.067,0.025l-0.067,0.027l-0.067,0.027l-0.066,0.028l-0.066,0.029l-0.066,0.029l-0.065,0.03l-0.064,0.031l-0.065,0.032l-0.064,0.032l-0.063,0.034l-0.063,0.034l-0.063,0.035l-0.061,0.035l-0.062,0.036l-0.061,0.037l-0.061,0.037l-0.06,0.039l-0.06,0.039l-0.059,0.039l-0.059,0.041l-0.058,0.041l-0.058,0.042l-0.057,0.042l-0.056,0.043l-0.057,0.044l-0.056,0.044l-0.054,0.045l-0.055,0.045l-0.054,0.047l-0.053,0.046l-0.054,0.048l-0.052,0.048l-0.051,0.049l-0.052,0.049l-0.05,0.05l-0.05,0.051l-0.05,0.051l-0.049,0.051l-0.048,0.053l-0.048,0.052l-0.046,0.053l-0.047,0.055l-0.046,0.054l-0.044,0.055l-0.045,0.055l-0.044,0.057l-0.043,0.057l-0.042,0.056l-0.042,0.058l-0.041,0.058l-0.041,0.059l-0.039,0.059l-0.039,0.059l-0.039,0.061l-0.038,0.06l-0.037,0.062l-0.036,0.061l-0.035,0.061l-0.035,0.063l-0.034,0.063l-0.034,0.063l-0.032,0.064l-0.032,0.064l-0.032,0.065l-0.03,0.065l-0.029,0.065l-0.029,0.066l-0.029,0.067l-0.027,0.066l-0.026,0.067l-0.026,0.067l-0.025,0.068l-0.024,0.069l-0.024,0.069l-0.022,0.068l-0.021,0.069l-0.022,0.071l-0.019,0.069l-0.02,0.07l-0.018,0.072l-0.018,0.07l-0.016,0.071l-0.016,0.072l-0.015,0.072l-0.014,0.073l-0.014,0.073l-0.012,0.072l-0.011,0.073l-0.011,0.074l-0.01,0.074l-0.009,0.074l-0.008,0.075l-0.007,0.075l-0.006,0.074l-0.005,0.075l-0.004,0.076l-0.004,0.076l-0.002,0.077l-0.002,0.076l0,0.076l0,0.078l0.002,0.077l0.002,0.077l0.004,0.077l0.004,0.077l0.006,0.076l0.006,0.076l0.007,0.077l0.008,0.075l0.009,0.075l0.01,0.075l0.011,0.074l0.012,0.074l0.013,0.074l0.013,0.074l0.015,0.073l0.015,0.073l0.017,0.072l0.017,0.073l0.018,0.073l0.019,0.07l0.02,0.072l0.02,0.071l0.022,0.07l0.022,0.071l0.023,0.07l0.024,0.068l0.025,0.069l0.026,0.07l0.026,0.068l0.027,0.067l0.028,0.068l0.029,0.066l0.03,0.067l0.03,0.067l0.032,0.066l0.031,0.064l0.033,0.065l0.034,0.065l0.034,0.064l0.035,0.063l0.036,0.063l0.037,0.064l0.037,0.061l0.037,0.062l0.039,0.061l0.04,0.06l0.04,0.061l0.04,0.059l0.042,0.059l0.042,0.059l0.043,0.058l0.044,0.058l0.044,0.057l0.045,0.056l0.045,0.056l0.047,0.056l0.047,0.054l0.047,0.055l0.049,0.053l0.048,0.053l0.049,0.052l0.051,0.053l0.05,0.051l0.052,0.05l0.052,0.051l0.052,0.049l0.053,0.048l0.054,0.049l0.054,0.047l0.055,0.047l0.055,0.046l0.056,0.046l0.057,0.045l0.056,0.044l0.058,0.043l0.058,0.044l0.059,0.042l0.059,0.042l0.059,0.04l0.06,0.04l0.061,0.04l0.061,0.039l0.062,0.037l0.062,0.038l0.062,0.036l0.064,0.036l0.063,0.035l0.064,0.034l0.065,0.034l0.064,0.032l0.066,0.033l0.065,0.031l0.067,0.03l0.066,0.03l0.067,0.029l0.067,0.028l0.068,0.027l0.069,0.026l0.069,0.026l0.068,0.025l0.07,0.024l0.069,0.023l0.07,0.022l0.071,0.022l0.071,0.02l0.071,0.02l0.072,0.019l0.072,0.018l0.072,0.017l0.073,0.017l0.073,0.015l0.073,0.015l0.074,0.013l0.073,0.013l0.075,0.012l0.074,0.011l0.075,0.01l0.075,0.009l0.076,0.008l0.076,0.007l0.076,0.006l0.076,0.006l0.077,0.004l0.077,0.004l0.077,0.002l0.077,0.001l0.078,0.001l0.078,-0.001l0.077,-0.001l0.077,-0.002l0.077,-0.004l0.077,-0.004l0.076,-0.006l0.076,-0.006l0.076,-0.007l0.076,-0.008l0.075,-0.009l0.075,-0.01l0.074,-0.011l0.075,-0.012l0.073,-0.013l0.074,-0.013l0.073,-0.015l0.073,-0.015l0.073,-0.017l0.072,-0.017l0.072,-0.018l0.072,-0.019l0.071,-0.02l0.071,-0.02l0.071,-0.022l0.07,-0.022l0.069,-0.023l0.07,-0.024l0.068,-0.025l0.069,-0.026l0.069,-0.026l0.068,-0.027l0.067,-0.028l0.067,-0.029l0.066,-0.03l0.067,-0.03l0.065,-0.031l0.066,-0.033l0.064,-0.032l0.065,-0.034l0.064,-0.034l0.063,-0.035l0.064,-0.036l0.062,-0.036l0.062,-0.038l0.062,-0.037l0.061,-0.039l0.061,-0.04l0.06,-0.04l0.059,-0.04l0.059,-0.042l0.059,-0.042l0.058,-0.044l0.058,-0.043l0.056,-0.044l0.057,-0.045l0.056,-0.046l0.055,-0.046l0.055,-0.047l0.054,-0.047l0.054,-0.049l0.053,-0.048l0.052,-0.049l0.052,-0.051l0.052,-0.05l0.05,-0.051l0.051,-0.053l0.049,-0.052l0.048,-0.053l0.049,-0.053l0.047,-0.055l0.047,-0.054l0.047,-0.056l0.045,-0.056l0.045,-0.056l0.044,-0.057l0.044,-0.058l0.043,-0.058l0.042,-0.059l0.042,-0.059l0.04,-0.059l0.04,-0.061l0.04,-0.06l0.039,-0.061l0.037,-0.062l0.037,-0.061l0.037,-0.064l0.036,-0.063l0.035,-0.063l0.034,-0.064l0.034,-0.065l0.033,-0.065l0.031,-0.064l0.032,-0.066l0.03,-0.067l0.03,-0.067l0.029,-0.066l0.028,-0.068l0.027,-0.067l0.026,-0.068l0.026,-0.07l0.025,-0.069l0.024,-0.068l0.023,-0.07l0.022,-0.071l0.022,-0.07l0.02,-0.071l0.02,-0.072l0.019,-0.07l0.018,-0.073l0.017,-0.073l0.017,-0.072l0.015,-0.073l0.015,-0.073l0.013,-0.074l0.013,-0.074l0.012,-0.074l0.011,-0.074l0.01,-0.075l0.009,-0.075l0.008,-0.075l0.007,-0.077l0.006,-0.076l0.006,-0.076l0.004,-0.077l0.004,-0.077l0.002,-0.077l0.002,-0.077l0,-0.084l2,0.012l-0.001,0.097l-0.002,0.103l-0.003,0.102l-0.004,0.103l-0.006,0.102l-0.007,0.102l-0.009,0.101l-0.009,0.1l-0.011,0.101l-0.012,0.1l-0.013,0.1l-0.015,0.1l-0.016,0.099l-0.017,0.098l-0.018,0.099l-0.02,0.098l-0.02,0.097l-0.022,0.098l-0.023,0.096l-0.024,0.095l-0.025,0.097l-0.027,0.095l-0.027,0.095l-0.029,0.094l-0.03,0.093l-0.031,0.093l-0.032,0.094l-0.033,0.092l-0.034,0.091l-0.035,0.091l-0.037,0.091l-0.038,0.091l-0.038,0.09l-0.04,0.088l-0.04,0.088l-0.042,0.088l-0.043,0.087l-0.043,0.087l-0.045,0.086l-0.046,0.085l-0.046,0.085l-0.048,0.084l-0.049,0.083l-0.049,0.083l-0.051,0.082l-0.052,0.082l-0.052,0.081l-0.053,0.079l-0.055,0.08l-0.055,0.079l-0.056,0.078l-0.058,0.077l-0.058,0.077l-0.059,0.076l-0.059,0.075l-0.061,0.074l-0.062,0.074l-0.062,0.073l-0.063,0.072l-0.064,0.071l-0.066,0.071l-0.065,0.07l-0.066,0.068l-0.068,0.069l-0.068,0.067l-0.069,0.067l-0.07,0.066l-0.071,0.065l-0.071,0.064l-0.072,0.063l-0.073,0.062l-0.074,0.062l-0.075,0.061l-0.074,0.059l-0.076,0.059l-0.077,0.059l-0.077,0.056l-0.078,0.057l-0.079,0.055l-0.079,0.054l-0.081,0.054l-0.08,0.052l-0.082,0.052l-0.082,0.051l-0.083,0.049l-0.083,0.049l-0.084,0.048l-0.085,0.046l-0.085,0.046l-0.086,0.045l-0.087,0.044l-0.087,0.042l-0.088,0.042l-0.088,0.04l-0.089,0.04l-0.089,0.038l-0.091,0.038l-0.091,0.036l-0.091,0.036l-0.091,0.034l-0.092,0.033l-0.093,0.032l-0.093,0.031l-0.094,0.03l-0.094,0.029l-0.095,0.027l-0.095,0.027l-0.096,0.025l-0.096,0.024l-0.097,0.023l-0.097,0.022l-0.097,0.02l-0.098,0.02l-0.098,0.018l-0.099,0.017l-0.099,0.016l-0.1,0.014l-0.1,0.014l-0.1,0.012l-0.101,0.011l-0.101,0.009l-0.101,0.009l-0.101,0.007l-0.102,0.006l-0.103,0.004l-0.102,0.003l-0.103,0.002l-0.103,0.001l-0.103,-0.001l-0.103,-0.002l-0.102,-0.003l-0.103,-0.004l-0.102,-0.006l-0.101,-0.007l-0.101,-0.009l-0.101,-0.009l-0.101,-0.011l-0.1,-0.012l-0.1,-0.014l-0.1,-0.014l-0.099,-0.016l-0.099,-0.017l-0.098,-0.018l-0.098,-0.02l-0.097,-0.02l-0.097,-0.022l-0.097,-0.023l-0.096,-0.024l-0.096,-0.025l-0.095,-0.027l-0.095,-0.027l-0.094,-0.029l-0.094,-0.03l-0.093,-0.031l-0.093,-0.032l-0.092,-0.033l-0.091,-0.034l-0.091,-0.036l-0.091,-0.036l-0.091,-0.038l-0.089,-0.038l-0.089,-0.04l-0.088,-0.04l-0.088,-0.042l-0.087,-0.042l-0.087,-0.044l-0.086,-0.045l-0.085,-0.046l-0.085,-0.046l-0.084,-0.048l-0.083,-0.049l-0.083,-0.049l-0.082,-0.051l-0.082,-0.052l-0.08,-0.052l-0.081,-0.054l-0.079,-0.054l-0.079,-0.055l-0.078,-0.057l-0.077,-0.056l-0.077,-0.059l-0.076,-0.059l-0.074,-0.059l-0.075,-0.061l-0.074,-0.062l-0.073,-0.062l-0.072,-0.063l-0.071,-0.064l-0.071,-0.065l-0.07,-0.066l-0.069,-0.067l-0.068,-0.067l-0.068,-0.069l-0.066,-0.068l-0.065,-0.07l-0.066,-0.071l-0.064,-0.071l-0.063,-0.072l-0.062,-0.073l-0.062,-0.074l-0.061,-0.074l-0.059,-0.075l-0.059,-0.076l-0.058,-0.077l-0.058,-0.077l-0.056,-0.078l-0.055,-0.079l-0.055,-0.08l-0.053,-0.079l-0.052,-0.081l-0.052,-0.082l-0.051,-0.082l-0.049,-0.083l-0.049,-0.083l-0.048,-0.084l-0.046,-0.085l-0.046,-0.085l-0.045,-0.086l-0.043,-0.087l-0.043,-0.087l-0.042,-0.088l-0.04,-0.088l-0.04,-0.088l-0.038,-0.09l-0.038,-0.091l-0.037,-0.091l-0.035,-0.091l-0.034,-0.091l-0.033,-0.092l-0.032,-0.094l-0.031,-0.093l-0.03,-0.093l-0.029,-0.094l-0.027,-0.095l-0.027,-0.095l-0.025,-0.097l-0.024,-0.095l-0.023,-0.096l-0.022,-0.098l-0.02,-0.097l-0.02,-0.098l-0.018,-0.099l-0.017,-0.098l-0.016,-0.099l-0.015,-0.1l-0.013,-0.1l-0.012,-0.1l-0.011,-0.101l-0.009,-0.1l-0.009,-0.101l-0.007,-0.102l-0.006,-0.102l-0.004,-0.103l-0.003,-0.102l-0.002,-0.103l-0.001,-0.103l0.001,-0.102l0.002,-0.102l0.003,-0.1l0.004,-0.101l0.006,-0.1l0.007,-0.1l0.008,-0.101l0.009,-0.099l0.011,-0.1l0.012,-0.098l0.013,-0.099l0.014,-0.097l0.015,-0.098l0.017,-0.099l0.017,-0.096l0.019,-0.096l0.02,-0.097l0.021,-0.095l0.023,-0.096l0.023,-0.096l0.025,-0.093l0.025,-0.094l0.027,-0.094l0.028,-0.093l0.029,-0.092l0.031,-0.094l0.031,-0.09l0.032,-0.091l0.033,-0.091l0.035,-0.09l0.035,-0.09l0.037,-0.089l0.037,-0.088l0.038,-0.088l0.04,-0.088l0.041,-0.087l0.041,-0.085l0.043,-0.086l0.043,-0.085l0.045,-0.085l0.046,-0.084l0.046,-0.083l0.047,-0.083l0.049,-0.082l0.049,-0.081l0.05,-0.081l0.051,-0.08l0.052,-0.079l0.054,-0.08l0.054,-0.078l0.054,-0.076l0.055,-0.077l0.058,-0.077l0.057,-0.075l0.058,-0.074l0.059,-0.074l0.06,-0.074l0.061,-0.072l0.061,-0.072l0.063,-0.071l0.064,-0.07l0.064,-0.07l0.065,-0.068l0.065,-0.068l0.067,-0.068l0.067,-0.066l0.068,-0.065l0.069,-0.065l0.07,-0.065l0.07,-0.063l0.071,-0.062l0.072,-0.062l0.073,-0.06l0.073,-0.06l0.074,-0.059l0.075,-0.058l0.075,-0.057l0.077,-0.057l0.077,-0.056l0.077,-0.054l0.078,-0.054l0.079,-0.053l0.08,-0.052l0.08,-0.05l0.081,-0.051l0.081,-0.049l0.082,-0.048l0.083,-0.047l0.084,-0.047l0.083,-0.045l0.085,-0.044l0.085,-0.044l0.086,-0.042l0.086,-0.041l0.088,-0.041l0.087,-0.039l0.088,-0.038l0.088,-0.038l0.09,-0.036l0.089,-0.035l0.09,-0.035l0.091,-0.033l0.091,-0.032l0.092,-0.031l0.092,-0.03l0.093,-0.029l0.093,-0.027l0.094,-0.027l0.094,-0.025l0.094,-0.025l0.095,-0.023l0.096,-0.022l0.096,-0.021l0.096,-0.02l0.097,-0.019l0.097,-0.017l0.097,-0.017l0.098,-0.015l0.098,-0.014l0.099,-0.013l0.099,-0.011l0.099,-0.011l0.1,-0.009l0.1,-0.008l0.1,-0.006l0.101,-0.006l0.1,-0.004l0.109,-0.003l0.367,-0.001l0.729,-0.001l1.082,0l0.001,2Z" style="fill:#000;"/><path d="M18,6l-5,-4l0,8l5,-4Z" style="fill:#000;"/></g></svg>