<?xml version="1.0" encoding="UTF-8" standalone="no"?><!DOCTYPE svg PUBLIC "-//W3C//DTD SVG 1.1//EN" "http://www.w3.org/Graphics/SVG/1.1/DTD/svg11.dtd"><svg width="100%" height="100%" viewBox="0 0 24 24" version="1.1" xmlns="http://www.w3.org/2000/svg" xmlns:xlink="http://www.w3.org/1999/xlink" xml:space="preserve" style="fill-rule:evenodd;clip-rule:evenodd;stroke-linejoin:round;stroke-miterlimit:1.41421;"><g id="linechart"><rect x="2" y="18" width="20" height="2" style="fill:#000;"/><rect x="2" y="6" width="2" height="14" style="fill:#000;"/><path d="M21.49,8.549l-4.408,5l-0.057,0.057c-0.062,0.053 -0.123,0.102 -0.195,0.141c-0.212,0.118 -0.465,0.155 -0.702,0.103c-0.107,-0.024 -0.203,-0.067 -0.298,-0.119l-4.368,-2.621l-5.043,4.509l-1.333,-1.491l5.592,-5l0.061,-0.051c0.066,-0.046 0.131,-0.088 0.205,-0.12c0.194,-0.085 0.414,-0.106 0.622,-0.059c0.105,0.024 0.199,0.066 0.293,0.118l4.299,2.58l3.856,-4.398c0.492,0.45 0.984,0.9 1.476,1.351Z" style="fill:#000;fill-rule:nonzero;"/></g></svg>