<?xml version="1.0" encoding="UTF-8" standalone="no"?><!DOCTYPE svg PUBLIC "-//W3C//DTD SVG 1.1//EN" "http://www.w3.org/Graphics/SVG/1.1/DTD/svg11.dtd"><svg width="100%" height="100%" viewBox="0 0 24 24" version="1.1" xmlns="http://www.w3.org/2000/svg" xmlns:xlink="http://www.w3.org/1999/xlink" xml:space="preserve" style="fill-rule:evenodd;clip-rule:evenodd;stroke-linejoin:round;stroke-miterlimit:1.41421;"><g id="linkedin"><path d="M20.339,2.213c0.799,0 1.449,0.632 1.449,1.411l0,16.752c0,0.78 -0.65,1.413 -1.449,1.413l-16.682,0c-0.798,0 -1.445,-0.633 -1.445,-1.413l0,-16.752c0,-0.779 0.647,-1.411 1.445,-1.411l16.682,0Zm-12.321,16.681l0,-9.342l-2.904,0l0,9.342l2.904,0Zm10.875,0l0,-5.124c0,-2.516 -0.543,-4.451 -3.483,-4.451c-1.412,0 -2.36,0.775 -2.747,1.509l-0.039,0l0,-1.276l-2.785,0l0,9.342l2.901,0l0,-4.621c0,-1.219 0.232,-2.399 1.743,-2.399c1.489,0 1.509,1.393 1.509,2.477l0,4.543l2.901,0Zm-12.326,-13.986c0.928,0 1.682,0.754 1.682,1.683c0,0.929 -0.754,1.684 -1.682,1.684c-0.931,0 -1.684,-0.755 -1.684,-1.684c0,-0.929 0.753,-1.683 1.684,-1.683Z"/><rect x="0" y="0" width="24" height="24" style="fill:none;"/></g></svg>