<?xml version="1.0" encoding="UTF-8" standalone="no"?><!DOCTYPE svg PUBLIC "-//W3C//DTD SVG 1.1//EN" "http://www.w3.org/Graphics/SVG/1.1/DTD/svg11.dtd"><svg width="100%" height="100%" viewBox="0 0 24 24" version="1.1" xmlns="http://www.w3.org/2000/svg" xmlns:xlink="http://www.w3.org/1999/xlink" xml:space="preserve" style="fill-rule:evenodd;clip-rule:evenodd;stroke-linejoin:round;stroke-miterlimit:1.41421;"><g id="link"><path d="M11.319,16.638c-0.945,0.548 -1.894,1.09 -2.846,1.624c-0.139,0.074 -0.28,0.142 -0.427,0.199c-0.376,0.149 -0.776,0.237 -1.179,0.26c-0.501,0.029 -1.007,-0.042 -1.48,-0.207c-0.441,-0.154 -0.853,-0.39 -1.21,-0.693c-0.502,-0.426 -0.89,-0.981 -1.116,-1.6c-0.15,-0.409 -0.229,-0.843 -0.233,-1.278c-0.003,-0.345 0.041,-0.689 0.13,-1.022c0.106,-0.393 0.274,-0.769 0.497,-1.109c0.222,-0.337 0.498,-0.64 0.815,-0.891c0.123,-0.098 0.252,-0.186 0.386,-0.27c1.591,-0.945 3.195,-1.871 4.809,-2.777c0.139,-0.073 0.28,-0.141 0.427,-0.199c0.376,-0.148 0.776,-0.236 1.179,-0.26c0.501,-0.029 1.006,0.042 1.48,0.208c0.441,0.154 0.853,0.39 1.21,0.692c0.502,0.426 0.89,0.982 1.116,1.6c0.056,0.154 0.103,0.311 0.139,0.471l-1.927,1.112c0.03,-0.197 0.027,-0.399 -0.009,-0.596c-0.096,-0.531 -0.433,-1.001 -0.904,-1.263c-0.144,-0.08 -0.298,-0.14 -0.458,-0.179c-0.173,-0.042 -0.353,-0.058 -0.531,-0.048c-0.269,0.016 -0.527,0.093 -0.764,0.218c-1.569,0.881 -3.117,1.799 -4.675,2.699c-0.236,0.139 -0.44,0.319 -0.596,0.545c-0.136,0.196 -0.233,0.419 -0.283,0.652c-0.047,0.218 -0.053,0.444 -0.019,0.664c0.028,0.176 0.081,0.348 0.159,0.509c0.078,0.161 0.18,0.311 0.301,0.443c0.356,0.385 0.873,0.602 1.396,0.584c0.27,-0.009 0.529,-0.079 0.77,-0.199c0.964,-0.51 1.91,-1.055 2.849,-1.609l0.994,1.72Z" style="fill:#000;"/><path d="M12.681,6.998c0.945,-0.548 1.894,-1.089 2.846,-1.624c0.139,-0.073 0.28,-0.141 0.427,-0.199c0.376,-0.148 0.776,-0.236 1.179,-0.26c0.501,-0.029 1.007,0.042 1.48,0.208c0.441,0.154 0.853,0.39 1.21,0.692c0.502,0.426 0.89,0.982 1.116,1.6c0.15,0.409 0.229,0.843 0.233,1.278c0.003,0.345 -0.041,0.69 -0.13,1.023c-0.106,0.392 -0.274,0.768 -0.497,1.108c-0.222,0.338 -0.498,0.64 -0.815,0.892c-0.123,0.098 -0.252,0.186 -0.386,0.269c-1.591,0.946 -3.195,1.872 -4.809,2.777c-0.139,0.074 -0.28,0.142 -0.427,0.199c-0.376,0.149 -0.776,0.237 -1.179,0.26c-0.501,0.029 -1.006,-0.042 -1.48,-0.207c-0.441,-0.154 -0.853,-0.39 -1.21,-0.693c-0.502,-0.426 -0.89,-0.981 -1.116,-1.6c-0.025,-0.067 -0.047,-0.135 -0.068,-0.203l1.836,-1.06c0.002,0.078 0.009,0.155 0.021,0.232c0.03,0.191 0.091,0.377 0.179,0.549c0.082,0.159 0.187,0.307 0.312,0.435c0.354,0.366 0.857,0.569 1.366,0.552c0.269,-0.009 0.528,-0.079 0.769,-0.199c1.62,-0.857 3.188,-1.811 4.763,-2.748c0.228,-0.143 0.424,-0.328 0.572,-0.554c0.131,-0.199 0.222,-0.424 0.267,-0.659c0.041,-0.219 0.042,-0.445 0.002,-0.664c-0.096,-0.531 -0.433,-1.001 -0.904,-1.263c-0.144,-0.08 -0.298,-0.14 -0.458,-0.179c-0.173,-0.042 -0.353,-0.058 -0.531,-0.048c-0.269,0.016 -0.527,0.093 -0.764,0.218c-0.938,0.527 -1.869,1.067 -2.799,1.608l-1.005,-1.74Z" style="fill:#000;"/></g></svg>