<?xml version="1.0" encoding="UTF-8" standalone="no"?><!DOCTYPE svg PUBLIC "-//W3C//DTD SVG 1.1//EN" "http://www.w3.org/Graphics/SVG/1.1/DTD/svg11.dtd"><svg width="100%" height="100%" viewBox="0 0 24 24" version="1.1" xmlns="http://www.w3.org/2000/svg" xmlns:xlink="http://www.w3.org/1999/xlink" xml:space="preserve" style="fill-rule:evenodd;clip-rule:evenodd;stroke-linejoin:round;stroke-miterlimit:1.41421;"><g id="list"><path d="M20,9l0,-2l-12,0l0,2l12,0Z" style="fill:#000;"/><path d="M20,13l0,-2l-12,0l0,2l12,0Z" style="fill:#000;"/><path d="M20,17l0,-2l-12,0l0,2l12,0Z" style="fill:#000;"/><path d="M6,9l0,-2l-2,0l0,2l2,0Z" style="fill:#000;"/><path d="M6,13l0,-2l-2,0l0,2l2,0Z" style="fill:#000;"/><path d="M6,17l0,-2l-2,0l0,2l2,0Z" style="fill:#000;"/></g></svg>