<?xml version="1.0" encoding="UTF-8" standalone="no"?><!DOCTYPE svg PUBLIC "-//W3C//DTD SVG 1.1//EN" "http://www.w3.org/Graphics/SVG/1.1/DTD/svg11.dtd"><svg width="100%" height="100%" viewBox="0 0 24 24" version="1.1" xmlns="http://www.w3.org/2000/svg" xmlns:xlink="http://www.w3.org/1999/xlink" xml:space="preserve" style="fill-rule:evenodd;clip-rule:evenodd;stroke-linejoin:round;stroke-miterlimit:1.41421;"><g id="location"><path d="M12.09,2l0.091,0.002l0.089,0.002l0.09,0.004l0.089,0.004l0.089,0.006l0.089,0.006l0.088,0.007l0.088,0.008l0.088,0.009l0.087,0.01l0.087,0.011l0.087,0.012l0.086,0.013l0.086,0.013l0.086,0.015l0.085,0.015l0.085,0.017l0.084,0.017l0.085,0.018l0.083,0.019l0.083,0.02l0.083,0.02l0.083,0.022l0.082,0.022l0.081,0.023l0.081,0.024l0.081,0.025l0.08,0.026l0.08,0.026l0.079,0.028l0.079,0.028l0.078,0.029l0.078,0.029l0.077,0.031l0.077,0.031l0.076,0.032l0.076,0.033l0.075,0.033l0.074,0.035l0.075,0.035l0.073,0.035l0.073,0.037l0.073,0.037l0.071,0.038l0.072,0.039l0.071,0.039l0.07,0.04l0.069,0.041l0.069,0.042l0.068,0.042l0.068,0.043l0.067,0.043l0.067,0.044l0.065,0.045l0.066,0.046l0.064,0.046l0.064,0.047l0.063,0.047l0.063,0.048l0.061,0.049l0.062,0.05l0.06,0.05l0.06,0.05l0.059,0.051l0.058,0.052l0.058,0.053l0.057,0.053l0.056,0.053l0.055,0.054l0.055,0.055l0.054,0.055l0.053,0.056l0.052,0.057l0.052,0.057l0.051,0.057l0.05,0.058l0.049,0.059l0.048,0.059l0.048,0.059l0.047,0.06l0.046,0.061l0.045,0.061l0.044,0.062l0.043,0.062l0.043,0.062l0.042,0.063l0.041,0.064l0.04,0.064l0.039,0.064l0.038,0.065l0.037,0.066l0.037,0.066l0.035,0.066l0.035,0.066l0.034,0.067l0.032,0.068l0.032,0.068l0.031,0.068l0.03,0.069l0.029,0.069l0.028,0.069l0.027,0.07l0.026,0.071l0.025,0.07l0.024,0.071l0.023,0.072l0.022,0.071l0.022,0.072l0.02,0.073l0.019,0.072l0.018,0.073l0.017,0.074l0.016,0.073l0.014,0.074l0.014,0.075l0.013,0.074l0.012,0.075l0.01,0.075l0.01,0.076l0.008,0.076l0.008,0.076l0.006,0.076l0.005,0.076l0.004,0.077l0.003,0.077l0.001,0.078l0.001,0.077l-0.001,0.098l-0.003,0.1l-0.004,0.103l-0.006,0.104l-0.008,0.106l-0.009,0.108l-0.012,0.11l-0.012,0.111l-0.015,0.114l-0.016,0.115l-0.017,0.116l-0.02,0.119l-0.02,0.12l-0.022,0.121l-0.024,0.123l-0.025,0.124l-0.027,0.125l-0.028,0.127l-0.029,0.129l-0.031,0.129l-0.032,0.131l-0.033,0.132l-0.035,0.132l-0.036,0.134l-0.037,0.136l-0.039,0.136l-0.039,0.136l-0.041,0.138l-0.042,0.139l-0.044,0.139l-0.044,0.141l-0.045,0.141l-0.047,0.141l-0.048,0.142l-0.048,0.143l-0.05,0.143l-0.051,0.144l-0.052,0.144l-0.052,0.145l-0.054,0.145l-0.11,0.291l-0.113,0.292l-0.117,0.292l-0.119,0.293l-0.123,0.292l-0.126,0.292l-0.128,0.29l-0.13,0.29l-0.133,0.288l-0.135,0.286l-0.137,0.284l-0.138,0.281l-0.14,0.278l-0.142,0.274l-0.142,0.271l-0.144,0.267l-0.144,0.262l-0.146,0.257l-0.072,0.127l-0.073,0.126l-0.073,0.124l-0.073,0.122l-0.073,0.122l-0.073,0.119l-0.073,0.118l-0.073,0.117l-0.073,0.115l-0.073,0.113l-0.073,0.111l-0.073,0.11l-0.072,0.108l-0.073,0.106l-0.072,0.104l-0.072,0.102l-0.072,0.1l-0.071,0.098l-0.071,0.096l-0.071,0.094l-0.071,0.091l-0.07,0.089l-0.07,0.088l-0.07,0.084l-0.069,0.083l-0.069,0.08l-0.068,0.077l-0.068,0.075l-0.067,0.073l-0.067,0.07l-0.067,0.067l-0.065,0.065l-0.065,0.062l-0.065,0.059l-0.064,0.056l-0.063,0.053l-0.063,0.051l-0.062,0.048l-0.061,0.044l-0.061,0.042l-0.059,0.039l-0.059,0.035l-0.059,0.032l-0.057,0.029l-0.057,0.026l-0.055,0.023l-0.055,0.019l-0.027,0.008l-0.027,0.008l-0.027,0.006l-0.026,0.006l-0.026,0.005l-0.026,0.004l-0.026,0.003l-0.025,0.002l-0.025,0.002l-0.025,0l-0.025,0l-0.025,-0.002l-0.025,-0.002l-0.026,-0.003l-0.026,-0.004l-0.026,-0.004l-0.053,-0.012l-0.054,-0.015l-0.055,-0.018l-0.055,-0.021l-0.057,-0.025l-0.057,-0.027l-0.059,-0.031l-0.059,-0.034l-0.059,-0.036l-0.061,-0.04l-0.061,-0.042l-0.062,-0.045l-0.063,-0.049l-0.063,-0.05l-0.064,-0.054l-0.065,-0.056l-0.065,-0.059l-0.065,-0.062l-0.067,-0.064l-0.067,-0.067l-0.067,-0.069l-0.068,-0.071l-0.068,-0.074l-0.069,-0.077l-0.069,-0.079l-0.07,-0.081l-0.07,-0.083l-0.07,-0.085l-0.071,-0.088l-0.071,-0.09l-0.071,-0.092l-0.071,-0.094l-0.072,-0.096l-0.072,-0.098l-0.072,-0.1l-0.073,-0.101l-0.072,-0.104l-0.073,-0.106l-0.073,-0.107l-0.073,-0.109l-0.073,-0.11l-0.073,-0.113l-0.073,-0.114l-0.073,-0.115l-0.073,-0.117l-0.073,-0.119l-0.073,-0.12l-0.073,-0.121l-0.072,-0.123l-0.073,-0.124l-0.073,-0.126l-0.072,-0.126l-0.072,-0.128l-0.072,-0.129l-0.072,-0.13l-0.142,-0.264l-0.142,-0.268l-0.14,-0.271l-0.138,-0.275l-0.137,-0.278l-0.135,-0.281l-0.133,-0.283l-0.13,-0.286l-0.128,-0.287l-0.063,-0.144l-0.063,-0.145l-0.062,-0.145l-0.061,-0.145l-0.06,-0.145l-0.059,-0.146l-0.059,-0.145l-0.058,-0.146l-0.057,-0.146l-0.056,-0.146l-0.056,-0.146l-0.054,-0.145l-0.054,-0.146l-0.052,-0.145l-0.052,-0.146l-0.051,-0.145l-0.05,-0.145l-0.048,-0.144l-0.048,-0.144l-0.047,-0.144l-0.045,-0.144l-0.044,-0.143l-0.044,-0.142l-0.042,-0.142l-0.041,-0.141l-0.039,-0.141l-0.039,-0.14l-0.037,-0.139l-0.036,-0.139l-0.035,-0.138l-0.033,-0.137l-0.032,-0.136l-0.031,-0.135l-0.029,-0.135l-0.028,-0.133l-0.027,-0.132l-0.025,-0.131l-0.024,-0.131l-0.022,-0.129l-0.02,-0.127l-0.02,-0.127l-0.017,-0.125l-0.016,-0.124l-0.015,-0.123l-0.012,-0.122l-0.012,-0.119l-0.009,-0.119l-0.008,-0.117l-0.006,-0.115l-0.004,-0.114l-0.003,-0.112l-0.001,-0.111l0.001,-0.077l0.001,-0.078l0.003,-0.077l0.004,-0.077l0.005,-0.076l0.006,-0.076l0.008,-0.076l0.008,-0.076l0.01,-0.076l0.01,-0.075l0.012,-0.075l0.013,-0.074l0.014,-0.075l0.014,-0.074l0.016,-0.073l0.017,-0.074l0.018,-0.073l0.019,-0.072l0.02,-0.073l0.022,-0.072l0.022,-0.071l0.023,-0.072l0.024,-0.071l0.025,-0.07l0.026,-0.071l0.027,-0.07l0.028,-0.069l0.029,-0.069l0.03,-0.069l0.031,-0.068l0.032,-0.068l0.032,-0.068l0.034,-0.067l0.035,-0.066l0.035,-0.066l0.037,-0.066l0.037,-0.066l0.038,-0.065l0.039,-0.064l0.04,-0.064l0.041,-0.064l0.042,-0.063l0.043,-0.062l0.043,-0.062l0.044,-0.062l0.045,-0.061l0.046,-0.061l0.047,-0.06l0.048,-0.059l0.048,-0.059l0.049,-0.059l0.05,-0.058l0.051,-0.057l0.052,-0.057l0.052,-0.057l0.053,-0.056l0.054,-0.055l0.055,-0.055l0.055,-0.054l0.056,-0.053l0.057,-0.053l0.058,-0.053l0.058,-0.052l0.059,-0.051l0.06,-0.05l0.06,-0.05l0.062,-0.05l0.061,-0.049l0.063,-0.048l0.063,-0.047l0.064,-0.047l0.064,-0.046l0.066,-0.046l0.065,-0.045l0.067,-0.044l0.067,-0.043l0.068,-0.043l0.068,-0.042l0.069,-0.042l0.069,-0.041l0.07,-0.04l0.071,-0.039l0.072,-0.039l0.071,-0.038l0.073,-0.037l0.073,-0.037l0.073,-0.035l0.075,-0.035l0.074,-0.035l0.075,-0.033l0.076,-0.033l0.076,-0.032l0.077,-0.031l0.077,-0.031l0.078,-0.029l0.078,-0.029l0.079,-0.028l0.079,-0.028l0.08,-0.026l0.08,-0.026l0.081,-0.025l0.081,-0.024l0.081,-0.023l0.082,-0.022l0.083,-0.022l0.083,-0.02l0.083,-0.02l0.083,-0.019l0.085,-0.018l0.084,-0.017l0.085,-0.017l0.085,-0.015l0.086,-0.015l0.086,-0.013l0.086,-0.013l0.087,-0.012l0.087,-0.011l0.087,-0.01l0.088,-0.009l0.088,-0.008l0.088,-0.007l0.089,-0.006l0.089,-0.006l0.089,-0.004l0.09,-0.004l0.089,-0.002l0.091,-0.002l0.09,0l0.09,0ZM11.931,4l-0.068,0.002l-0.068,0.001l-0.068,0.003l-0.068,0.003l-0.067,0.004l-0.067,0.005l-0.067,0.006l-0.066,0.006l-0.066,0.006l-0.066,0.008l-0.066,0.008l-0.064,0.009l-0.065,0.01l-0.065,0.01l-0.064,0.011l-0.064,0.011l-0.064,0.013l-0.062,0.012l-0.063,0.014l-0.064,0.014l-0.061,0.015l-0.062,0.015l-0.061,0.016l-0.061,0.017l-0.06,0.017l-0.061,0.018l-0.06,0.019l-0.059,0.019l-0.059,0.019l-0.058,0.02l-0.059,0.021l-0.057,0.021l-0.057,0.022l-0.057,0.022l-0.057,0.023l-0.056,0.024l-0.056,0.024l-0.054,0.025l-0.055,0.024l-0.054,0.026l-0.053,0.026l-0.054,0.027l-0.053,0.027l-0.051,0.027l-0.052,0.028l-0.052,0.029l-0.05,0.029l-0.051,0.03l-0.049,0.029l-0.049,0.03l-0.048,0.031l-0.049,0.031l-0.047,0.032l-0.047,0.032l-0.047,0.033l-0.044,0.032l-0.046,0.033l-0.046,0.035l-0.044,0.034l-0.043,0.034l-0.042,0.034l-0.043,0.035l-0.043,0.036l-0.041,0.036l-0.039,0.035l-0.041,0.037l-0.039,0.037l-0.039,0.036l-0.038,0.038l-0.039,0.038l-0.037,0.038l-0.035,0.038l-0.036,0.038l-0.035,0.039l-0.035,0.04l-0.034,0.039l-0.033,0.039l-0.032,0.039l-0.032,0.04l-0.031,0.041l-0.032,0.041l-0.029,0.04l-0.029,0.04l-0.029,0.041l-0.029,0.043l-0.027,0.041l-0.027,0.041l-0.026,0.042l-0.025,0.042l-0.025,0.041l-0.024,0.043l-0.024,0.043l-0.022,0.042l-0.023,0.043l-0.021,0.042l-0.021,0.044l-0.02,0.044l-0.02,0.043l-0.019,0.043l-0.018,0.044l-0.018,0.044l-0.017,0.043l-0.016,0.044l-0.016,0.044l-0.015,0.045l-0.014,0.045l-0.014,0.043l-0.013,0.045l-0.013,0.046l-0.011,0.044l-0.011,0.045l-0.011,0.047l-0.01,0.045l-0.009,0.044l-0.008,0.045l-0.008,0.048l-0.008,0.046l-0.006,0.045l-0.006,0.046l-0.005,0.047l-0.004,0.046l-0.004,0.047l-0.003,0.048l-0.003,0.048l-0.002,0.046l-0.001,0.048l0,0.048l0.001,0.079l0.002,0.081l0.003,0.084l0.005,0.089l0.006,0.09l0.007,0.091l0.009,0.096l0.01,0.098l0.012,0.098l0.013,0.102l0.015,0.105l0.016,0.106l0.017,0.107l0.019,0.11l0.02,0.112l0.022,0.113l0.023,0.115l0.024,0.117l0.026,0.118l0.027,0.119l0.029,0.121l0.029,0.122l0.031,0.123l0.033,0.125l0.033,0.126l0.035,0.126l0.036,0.128l0.038,0.128l0.038,0.13l0.04,0.13l0.04,0.131l0.042,0.132l0.043,0.133l0.044,0.133l0.045,0.134l0.046,0.133l0.047,0.135l0.048,0.136l0.049,0.134l0.05,0.136l0.051,0.136l0.052,0.136l0.052,0.137l0.053,0.135l0.055,0.137l0.055,0.137l0.055,0.136l0.057,0.137l0.057,0.136l0.058,0.136l0.059,0.136l0.058,0.133l0.122,0.272l0.122,0.268l0.125,0.267l0.127,0.263l0.128,0.262l0.13,0.257l0.131,0.255l0.133,0.25l0.134,0.249l0.066,0.119l0.066,0.119l0.067,0.119l0.068,0.118l0.067,0.117l0.067,0.114l0.067,0.113l0.067,0.112l0.067,0.11l0.067,0.109l0.067,0.107l0.066,0.105l0.066,0.103l0.067,0.102l0.065,0.1l0.066,0.097l0.065,0.096l0.064,0.094l0.064,0.091l0.065,0.091l0.062,0.087l0.062,0.084l0.062,0.082l0.061,0.081l0.06,0.077l0.06,0.075l0.059,0.073l0.057,0.07l0.056,0.066l0.055,0.065l0.054,0.061l0.052,0.058l0.051,0.056l0.016,0.016l0.028,-0.031l0.053,-0.059l0.052,-0.062l0.055,-0.065l0.056,-0.069l0.057,-0.07l0.058,-0.074l0.059,-0.077l0.06,-0.079l0.061,-0.082l0.062,-0.085l0.063,-0.087l0.062,-0.088l0.064,-0.092l0.065,-0.095l0.064,-0.096l0.065,-0.099l0.066,-0.1l0.066,-0.102l0.066,-0.104l0.067,-0.107l0.067,-0.108l0.066,-0.109l0.068,-0.113l0.068,-0.113l0.067,-0.114l0.068,-0.117l0.066,-0.115l0.136,-0.243l0.136,-0.245l0.134,-0.25l0.134,-0.254l0.134,-0.259l0.132,-0.263l0.13,-0.265l0.13,-0.268l0.127,-0.27l0.126,-0.273l0.123,-0.274l0.121,-0.275l0.119,-0.275l0.116,-0.277l0.113,-0.276l0.11,-0.275l0.107,-0.274l0.104,-0.276l0.049,-0.134l0.049,-0.134l0.049,-0.135l0.047,-0.135l0.046,-0.133l0.045,-0.133l0.045,-0.132l0.043,-0.132l0.042,-0.129l0.041,-0.13l0.04,-0.128l0.038,-0.127l0.038,-0.126l0.036,-0.125l0.035,-0.123l0.033,-0.122l0.033,-0.121l0.031,-0.119l0.03,-0.117l0.028,-0.117l0.027,-0.113l0.026,-0.112l0.024,-0.111l0.023,-0.109l0.022,-0.107l0.02,-0.104l0.019,-0.102l0.017,-0.1l0.015,-0.097l0.015,-0.095l0.013,-0.093l0.011,-0.088l0.01,-0.088l0.009,-0.083l0.007,-0.079l0.005,-0.078l0.005,-0.075l0.003,-0.07l0.001,-0.065l0.001,-0.064l0,-0.047l-0.001,-0.048l-0.002,-0.046l-0.003,-0.048l-0.003,-0.048l-0.004,-0.047l-0.004,-0.046l-0.005,-0.047l-0.006,-0.046l-0.006,-0.045l-0.008,-0.046l-0.008,-0.048l-0.008,-0.045l-0.009,-0.044l-0.01,-0.045l-0.011,-0.047l-0.011,-0.045l-0.011,-0.044l-0.013,-0.046l-0.013,-0.045l-0.014,-0.043l-0.014,-0.045l-0.015,-0.045l-0.016,-0.044l-0.016,-0.044l-0.017,-0.043l-0.018,-0.044l-0.018,-0.044l-0.019,-0.043l-0.02,-0.043l-0.02,-0.044l-0.021,-0.044l-0.021,-0.042l-0.023,-0.043l-0.022,-0.042l-0.024,-0.043l-0.024,-0.043l-0.025,-0.041l-0.025,-0.042l-0.026,-0.042l-0.027,-0.041l-0.027,-0.041l-0.029,-0.043l-0.029,-0.041l-0.029,-0.04l-0.029,-0.04l-0.032,-0.041l-0.031,-0.041l-0.032,-0.04l-0.032,-0.039l-0.033,-0.039l-0.034,-0.039l-0.035,-0.04l-0.035,-0.039l-0.036,-0.038l-0.035,-0.038l-0.037,-0.038l-0.039,-0.038l-0.038,-0.038l-0.039,-0.036l-0.039,-0.037l-0.041,-0.037l-0.039,-0.035l-0.041,-0.036l-0.043,-0.036l-0.043,-0.035l-0.042,-0.034l-0.043,-0.034l-0.044,-0.034l-0.046,-0.035l-0.046,-0.033l-0.044,-0.032l-0.047,-0.033l-0.047,-0.032l-0.047,-0.032l-0.049,-0.031l-0.048,-0.031l-0.049,-0.03l-0.049,-0.029l-0.051,-0.03l-0.05,-0.029l-0.052,-0.029l-0.052,-0.028l-0.051,-0.027l-0.053,-0.027l-0.054,-0.027l-0.053,-0.026l-0.054,-0.026l-0.055,-0.024l-0.054,-0.025l-0.056,-0.024l-0.056,-0.024l-0.057,-0.023l-0.057,-0.022l-0.057,-0.022l-0.057,-0.021l-0.059,-0.021l-0.058,-0.02l-0.059,-0.019l-0.059,-0.019l-0.06,-0.019l-0.061,-0.018l-0.06,-0.017l-0.061,-0.017l-0.061,-0.016l-0.062,-0.015l-0.061,-0.015l-0.064,-0.014l-0.063,-0.014l-0.062,-0.012l-0.064,-0.013l-0.064,-0.011l-0.064,-0.011l-0.065,-0.01l-0.065,-0.01l-0.064,-0.009l-0.066,-0.008l-0.066,-0.008l-0.066,-0.006l-0.066,-0.006l-0.067,-0.006l-0.067,-0.005l-0.067,-0.004l-0.068,-0.003l-0.068,-0.003l-0.068,-0.001l-0.068,-0.002l-0.069,0l-0.069,0Z" style="fill:#000;"/><circle cx="12" cy="9" r="3" style="fill:#000;"/></g></svg>