<?xml version="1.0" encoding="UTF-8" standalone="no"?><!DOCTYPE svg PUBLIC "-//W3C//DTD SVG 1.1//EN" "http://www.w3.org/Graphics/SVG/1.1/DTD/svg11.dtd"><svg width="100%" height="100%" viewBox="0 0 24 24" version="1.1" xmlns="http://www.w3.org/2000/svg" xmlns:xlink="http://www.w3.org/1999/xlink" xml:space="preserve" style="fill-rule:evenodd;clip-rule:evenodd;stroke-linejoin:round;stroke-miterlimit:1.41421;"><g id="lock"><path d="M18.052,9.001c0.234,0.009 0.463,0.052 0.681,0.138c0.527,0.208 0.951,0.642 1.146,1.174c0.075,0.204 0.112,0.418 0.12,0.635c0.039,3.035 0.039,6.069 0,9.104c-0.008,0.217 -0.045,0.431 -0.12,0.635c-0.195,0.532 -0.619,0.966 -1.146,1.174c-0.218,0.086 -0.447,0.129 -0.681,0.138c-4.034,0.051 -8.07,0.051 -12.104,0c-0.234,-0.009 -0.463,-0.052 -0.681,-0.138c-0.527,-0.208 -0.951,-0.642 -1.146,-1.174c-0.075,-0.204 -0.112,-0.418 -0.12,-0.635c-0.039,-3.035 -0.039,-6.069 0,-9.104c0.008,-0.217 0.045,-0.431 0.12,-0.635c0.195,-0.532 0.619,-0.966 1.146,-1.174c0.218,-0.086 0.447,-0.129 0.681,-0.138c4.034,-0.051 8.07,-0.051 12.104,0ZM6.013,11c-0.005,0 -0.01,-0.002 -0.013,0c-0.003,0.003 0,0.009 0,0.013c0,2.991 0,5.983 0,8.974c0,0.004 -0.003,0.01 0,0.013c0.003,0.002 0.008,0 0.013,0c3.991,0 7.983,0 11.974,0c0.005,0 0.01,0.002 0.013,0c0.003,-0.003 0,-0.009 0,-0.013c0,-2.991 0,-5.983 0,-8.974c0,-0.004 0.003,-0.01 0,-0.013c-0.003,-0.002 -0.008,0 -0.013,0c-3.991,0 -7.983,0 -11.974,0Z" style="fill:#000;fill-rule:nonzero;"/><path d="M12.077,2l0.078,0.002l0.077,0.002l0.077,0.003l0.076,0.003l0.076,0.005l0.076,0.005l0.076,0.006l0.076,0.007l0.075,0.007l0.075,0.009l0.074,0.009l0.075,0.01l0.074,0.01l0.073,0.012l0.074,0.012l0.073,0.013l0.072,0.013l0.073,0.014l0.072,0.016l0.071,0.015l0.072,0.017l0.071,0.017l0.07,0.018l0.071,0.019l0.07,0.019l0.069,0.02l0.069,0.021l0.069,0.021l0.068,0.022l0.068,0.023l0.068,0.023l0.067,0.024l0.066,0.025l0.066,0.025l0.066,0.026l0.066,0.027l0.065,0.027l0.064,0.028l0.064,0.029l0.063,0.029l0.064,0.03l0.062,0.03l0.062,0.031l0.062,0.032l0.061,0.032l0.061,0.033l0.06,0.033l0.059,0.034l0.059,0.035l0.059,0.035l0.058,0.036l0.057,0.036l0.057,0.037l0.057,0.037l0.056,0.038l0.055,0.039l0.055,0.039l0.054,0.039l0.053,0.041l0.053,0.04l0.053,0.041l0.052,0.042l0.051,0.042l0.05,0.043l0.05,0.043l0.05,0.044l0.049,0.044l0.048,0.044l0.047,0.046l0.047,0.045l0.046,0.046l0.046,0.047l0.045,0.047l0.044,0.047l0.043,0.048l0.043,0.049l0.042,0.048l0.042,0.05l0.041,0.049l0.04,0.05l0.039,0.051l0.039,0.051l0.038,0.051l0.037,0.052l0.037,0.052l0.035,0.053l0.035,0.053l0.035,0.053l0.033,0.054l0.033,0.054l0.032,0.054l0.031,0.055l0.031,0.055l0.029,0.056l0.029,0.056l0.028,0.056l0.028,0.056l0.026,0.057l0.026,0.058l0.025,0.057l0.024,0.058l0.023,0.058l0.022,0.059l0.022,0.059l0.02,0.059l0.02,0.059l0.019,0.06l0.018,0.06l0.017,0.06l0.017,0.061l0.015,0.061l0.015,0.061l0.013,0.061l0.013,0.062l0.012,0.062l0.011,0.062l0.01,0.063l0.009,0.062l0.008,0.063l0.007,0.063l0.006,0.064l0.006,0.063l0.004,0.064l0.004,0.064l0.002,0.064l0.002,0.064l0,0.065l0,4l-12,0l0,-4l0,-0.065l0.002,-0.064l0.002,-0.064l0.004,-0.064l0.004,-0.064l0.006,-0.063l0.006,-0.064l0.007,-0.063l0.008,-0.063l0.009,-0.062l0.01,-0.063l0.011,-0.062l0.012,-0.062l0.013,-0.062l0.013,-0.061l0.015,-0.061l0.015,-0.061l0.017,-0.061l0.017,-0.06l0.018,-0.06l0.019,-0.06l0.02,-0.059l0.02,-0.059l0.022,-0.059l0.022,-0.059l0.023,-0.058l0.024,-0.058l0.025,-0.057l0.026,-0.058l0.026,-0.057l0.028,-0.056l0.028,-0.056l0.029,-0.056l0.029,-0.056l0.031,-0.055l0.031,-0.055l0.032,-0.054l0.033,-0.054l0.033,-0.054l0.035,-0.053l0.035,-0.053l0.035,-0.053l0.037,-0.052l0.037,-0.052l0.038,-0.051l0.039,-0.051l0.039,-0.051l0.04,-0.05l0.041,-0.049l0.042,-0.05l0.042,-0.048l0.043,-0.049l0.043,-0.048l0.044,-0.047l0.045,-0.047l0.046,-0.047l0.046,-0.046l0.047,-0.045l0.047,-0.046l0.048,-0.044l0.049,-0.044l0.05,-0.044l0.05,-0.043l0.05,-0.043l0.051,-0.042l0.052,-0.042l0.053,-0.041l0.053,-0.04l0.053,-0.041l0.054,-0.039l0.055,-0.039l0.055,-0.039l0.056,-0.038l0.057,-0.037l0.057,-0.037l0.057,-0.036l0.058,-0.036l0.059,-0.035l0.059,-0.035l0.059,-0.034l0.06,-0.033l0.061,-0.033l0.061,-0.032l0.062,-0.032l0.062,-0.031l0.062,-0.03l0.064,-0.03l0.063,-0.029l0.064,-0.029l0.064,-0.028l0.065,-0.027l0.066,-0.027l0.066,-0.026l0.066,-0.025l0.066,-0.025l0.067,-0.024l0.068,-0.023l0.068,-0.023l0.068,-0.022l0.069,-0.021l0.069,-0.021l0.069,-0.02l0.07,-0.019l0.071,-0.019l0.07,-0.018l0.071,-0.017l0.072,-0.017l0.071,-0.015l0.072,-0.016l0.073,-0.014l0.072,-0.013l0.073,-0.013l0.074,-0.012l0.073,-0.012l0.074,-0.01l0.075,-0.01l0.074,-0.009l0.075,-0.009l0.075,-0.007l0.076,-0.007l0.076,-0.006l0.076,-0.005l0.076,-0.005l0.076,-0.003l0.077,-0.003l0.077,-0.002l0.078,-0.002l0.077,0l0.077,0ZM11.944,4l-0.056,0.001l-0.056,0.002l-0.056,0.002l-0.055,0.002l-0.056,0.004l-0.055,0.003l-0.054,0.005l-0.054,0.005l-0.055,0.005l-0.053,0.006l-0.054,0.007l-0.054,0.007l-0.052,0.007l-0.054,0.009l-0.052,0.008l-0.052,0.009l-0.052,0.01l-0.052,0.01l-0.051,0.011l-0.051,0.011l-0.051,0.012l-0.051,0.012l-0.048,0.013l-0.051,0.013l-0.05,0.014l-0.048,0.014l-0.049,0.014l-0.049,0.016l-0.048,0.015l-0.047,0.016l-0.047,0.016l-0.047,0.017l-0.047,0.017l-0.046,0.018l-0.045,0.018l-0.046,0.019l-0.046,0.019l-0.044,0.019l-0.044,0.02l-0.043,0.02l-0.043,0.02l-0.044,0.021l-0.043,0.022l-0.041,0.021l-0.042,0.022l-0.042,0.023l-0.041,0.022l-0.039,0.023l-0.04,0.023l-0.04,0.024l-0.039,0.024l-0.039,0.024l-0.037,0.025l-0.039,0.025l-0.036,0.025l-0.037,0.026l-0.036,0.026l-0.036,0.026l-0.035,0.026l-0.034,0.026l-0.035,0.027l-0.034,0.028l-0.033,0.027l-0.032,0.027l-0.032,0.028l-0.032,0.028l-0.03,0.028l-0.032,0.029l-0.03,0.028l-0.029,0.028l-0.029,0.03l-0.029,0.029l-0.027,0.029l-0.028,0.029l-0.027,0.031l-0.027,0.029l-0.025,0.03l-0.025,0.03l-0.025,0.03l-0.025,0.031l-0.023,0.029l-0.023,0.031l-0.023,0.031l-0.022,0.031l-0.022,0.03l-0.021,0.031l-0.02,0.031l-0.02,0.031l-0.019,0.031l-0.019,0.031l-0.019,0.032l-0.018,0.031l-0.017,0.032l-0.017,0.031l-0.016,0.031l-0.016,0.032l-0.015,0.031l-0.015,0.032l-0.014,0.032l-0.013,0.031l-0.014,0.032l-0.012,0.032l-0.013,0.032l-0.011,0.031l-0.011,0.033l-0.011,0.032l-0.01,0.032l-0.01,0.032l-0.009,0.032l-0.009,0.032l-0.008,0.032l-0.007,0.033l-0.008,0.032l-0.006,0.032l-0.007,0.033l-0.005,0.033l-0.006,0.033l-0.004,0.032l-0.005,0.033l-0.003,0.033l-0.004,0.034l-0.003,0.033l-0.002,0.033l-0.002,0.034l-0.001,0.034l-0.001,0.034l0,0.042l0,1.992l8,0l0,-1.992l0,-0.042l-0.001,-0.034l-0.001,-0.034l-0.002,-0.034l-0.002,-0.033l-0.003,-0.033l-0.004,-0.034l-0.003,-0.033l-0.005,-0.033l-0.004,-0.032l-0.006,-0.033l-0.005,-0.033l-0.007,-0.033l-0.006,-0.032l-0.008,-0.032l-0.007,-0.033l-0.008,-0.032l-0.009,-0.032l-0.009,-0.032l-0.01,-0.032l-0.01,-0.032l-0.011,-0.032l-0.011,-0.033l-0.011,-0.031l-0.013,-0.032l-0.012,-0.032l-0.014,-0.032l-0.013,-0.031l-0.014,-0.032l-0.015,-0.032l-0.015,-0.031l-0.016,-0.032l-0.016,-0.031l-0.017,-0.031l-0.017,-0.032l-0.018,-0.031l-0.019,-0.032l-0.019,-0.031l-0.019,-0.031l-0.02,-0.031l-0.02,-0.031l-0.021,-0.031l-0.022,-0.03l-0.022,-0.031l-0.023,-0.031l-0.023,-0.031l-0.023,-0.029l-0.025,-0.031l-0.025,-0.03l-0.025,-0.03l-0.025,-0.03l-0.027,-0.029l-0.027,-0.031l-0.028,-0.029l-0.027,-0.029l-0.029,-0.029l-0.029,-0.03l-0.029,-0.028l-0.03,-0.028l-0.032,-0.029l-0.03,-0.028l-0.032,-0.028l-0.032,-0.028l-0.032,-0.027l-0.033,-0.027l-0.034,-0.028l-0.035,-0.027l-0.034,-0.026l-0.035,-0.026l-0.036,-0.026l-0.036,-0.026l-0.037,-0.026l-0.036,-0.025l-0.039,-0.025l-0.037,-0.025l-0.039,-0.024l-0.039,-0.024l-0.04,-0.024l-0.04,-0.023l-0.039,-0.023l-0.041,-0.022l-0.042,-0.023l-0.042,-0.022l-0.041,-0.021l-0.043,-0.022l-0.044,-0.021l-0.043,-0.02l-0.043,-0.02l-0.044,-0.02l-0.044,-0.019l-0.046,-0.019l-0.046,-0.019l-0.045,-0.018l-0.046,-0.018l-0.047,-0.017l-0.047,-0.017l-0.047,-0.016l-0.047,-0.016l-0.048,-0.015l-0.049,-0.016l-0.049,-0.014l-0.048,-0.014l-0.05,-0.014l-0.051,-0.013l-0.048,-0.013l-0.051,-0.012l-0.051,-0.012l-0.051,-0.011l-0.051,-0.011l-0.052,-0.01l-0.052,-0.01l-0.052,-0.009l-0.052,-0.008l-0.054,-0.009l-0.052,-0.007l-0.054,-0.007l-0.054,-0.007l-0.053,-0.006l-0.055,-0.005l-0.054,-0.005l-0.054,-0.005l-0.055,-0.003l-0.056,-0.004l-0.055,-0.002l-0.056,-0.002l-0.056,-0.002l-0.056,-0.001l-0.056,0l-0.056,0Z" style="fill:#000;"/><circle cx="12" cy="16" r="2" style="fill:#000;"/></g></svg>