<?xml version="1.0" encoding="UTF-8" standalone="no"?><!DOCTYPE svg PUBLIC "-//W3C//DTD SVG 1.1//EN" "http://www.w3.org/Graphics/SVG/1.1/DTD/svg11.dtd"><svg width="100%" height="100%" viewBox="0 0 24 24" version="1.1" xmlns="http://www.w3.org/2000/svg" xmlns:xlink="http://www.w3.org/1999/xlink" xml:space="preserve" style="fill-rule:evenodd;clip-rule:evenodd;stroke-linejoin:round;stroke-miterlimit:1.41421;"><g id="login"><path d="M4.969,7c0.008,-1.021 0.019,-2.042 0.032,-3.063c0.008,-0.216 0.045,-0.429 0.12,-0.632c0.193,-0.529 0.614,-0.96 1.138,-1.167c0.217,-0.086 0.445,-0.129 0.678,-0.137c4.042,-0.052 8.084,-0.052 12.126,0c0.233,0.008 0.461,0.051 0.678,0.137c0.524,0.207 0.945,0.638 1.138,1.167c0.075,0.203 0.112,0.416 0.12,0.632c0.068,5.375 0.068,10.751 0,16.126c-0.008,0.233 -0.051,0.461 -0.137,0.678c-0.207,0.524 -0.638,0.945 -1.167,1.138c-0.203,0.075 -0.416,0.112 -0.632,0.12c-4.042,0.052 -8.084,0.052 -12.126,0c-0.216,-0.008 -0.429,-0.045 -0.632,-0.12c-0.529,-0.193 -0.96,-0.614 -1.167,-1.138c-0.086,-0.217 -0.129,-0.445 -0.137,-0.678c-0.013,-1.021 -0.024,-2.042 -0.032,-3.063l2,0c0.008,1 0.018,2 0.031,3c4,0.049 8,0.049 12,0c0.068,-5.333 0.068,-10.667 0,-16c-3.999,-0.049 -8,0 -11.999,0l-0.001,0c-0.013,1 -0.023,2 -0.031,3l-2,0Z" style="fill:#000;"/><rect x="3" y="11" width="7.5" height="2" style="fill:#000;fill-rule:nonzero;"/><path d="M14,12l-5,4l0,-8l5,4Z" style="fill:#000;"/></g></svg>