<?xml version="1.0" encoding="UTF-8" standalone="no"?><!DOCTYPE svg PUBLIC "-//W3C//DTD SVG 1.1//EN" "http://www.w3.org/Graphics/SVG/1.1/DTD/svg11.dtd"><svg width="100%" height="100%" viewBox="0 0 24 24" version="1.1" xmlns="http://www.w3.org/2000/svg" xmlns:xlink="http://www.w3.org/1999/xlink" xml:space="preserve" style="fill-rule:evenodd;clip-rule:evenodd;stroke-linejoin:round;stroke-miterlimit:1.41421;"><g id="logout"><path d="M19.05,7c-0.008,-1.021 -0.018,-2.042 -0.031,-3.063c-0.008,-0.216 -0.045,-0.429 -0.12,-0.632c-0.194,-0.529 -0.615,-0.96 -1.139,-1.167c-0.217,-0.086 -0.445,-0.129 -0.678,-0.137c-4.041,-0.052 -8.084,-0.052 -12.125,0c-0.233,0.008 -0.461,0.051 -0.678,0.137c-0.524,0.207 -0.945,0.638 -1.139,1.167c-0.074,0.203 -0.111,0.416 -0.12,0.632c-0.068,5.375 -0.068,10.751 0,16.126c0.009,0.233 0.052,0.461 0.138,0.678c0.206,0.524 0.637,0.945 1.166,1.138c0.204,0.075 0.416,0.112 0.633,0.12c4.041,0.052 8.084,0.052 12.125,0c0.217,-0.008 0.429,-0.045 0.633,-0.12c0.529,-0.193 0.96,-0.614 1.167,-1.138c0.085,-0.217 0.128,-0.445 0.137,-0.678c0.013,-1.021 0.023,-2.042 0.031,-3.063l-1.999,0c-0.008,1 -0.019,2 -0.031,3c-4,0.049 -8.001,0.049 -12,0c-0.069,-5.333 -0.069,-10.667 0,-16c3.999,-0.049 7.999,0 11.999,0l0.001,0c0.012,1 0.023,2 0.031,3l1.999,0Z" style="fill:#000;"/><rect x="10" y="11" width="7.5" height="2" style="fill:#000;fill-rule:nonzero;"/><path d="M21,12l-5,4l0,-8l5,4Z" style="fill:#000;"/></g></svg>