<?xml version="1.0" encoding="UTF-8" standalone="no"?><!DOCTYPE svg PUBLIC "-//W3C//DTD SVG 1.1//EN" "http://www.w3.org/Graphics/SVG/1.1/DTD/svg11.dtd"><svg width="100%" height="100%" viewBox="0 0 24 24" version="1.1" xmlns="http://www.w3.org/2000/svg" xmlns:xlink="http://www.w3.org/1999/xlink" xml:space="preserve" style="fill-rule:evenodd;clip-rule:evenodd;stroke-linejoin:round;stroke-miterlimit:1.41421;"><g id="magnet"><path d="M12.129,1.001c0.34,0.006 0.68,0.025 1.018,0.064c0.781,0.09 1.551,0.272 2.29,0.542c1.437,0.527 2.745,1.388 3.8,2.495c0.945,0.991 1.684,2.175 2.155,3.461c0.271,0.738 0.453,1.509 0.543,2.29c0.039,0.339 0.058,0.678 0.064,1.018l0.001,0.126l0,11.003l-6,0c0,-3.673 -0.001,-7.345 0,-11.018c0,-0.059 0.003,-0.119 0.002,-0.179c-0.002,-0.087 -0.006,-0.174 -0.012,-0.262c-0.08,-0.953 -0.403,-1.933 -1.115,-2.602c-0.098,-0.091 -0.201,-0.176 -0.31,-0.253c-0.74,-0.527 -1.675,-0.686 -2.565,-0.686c-0.89,0 -1.825,0.159 -2.565,0.686c-0.109,0.077 -0.212,0.162 -0.31,0.253c-0.581,0.546 -0.906,1.307 -1.047,2.081c-0.058,0.316 -0.089,0.64 -0.078,0.962l0,11.018l-6,0c0,-3.71 -0.023,-7.419 0.001,-11.129c0.006,-0.34 0.025,-0.679 0.064,-1.018c0.085,-0.74 0.253,-1.472 0.501,-2.175c0.469,-1.33 1.223,-2.555 2.197,-3.576c1.055,-1.107 2.363,-1.968 3.8,-2.495c0.739,-0.27 1.509,-0.452 2.29,-0.542c0.338,-0.039 0.678,-0.058 1.018,-0.064c0.129,-0.001 0.128,-0.001 0.258,0ZM12.274,5.004c0.261,0.01 0.521,0.027 0.78,0.06c0.541,0.069 1.075,0.197 1.582,0.4c0.415,0.167 0.809,0.384 1.168,0.65c0.228,0.169 0.441,0.357 0.637,0.563c1.062,1.116 1.551,2.682 1.562,4.202l-0.001,0.089l-0.002,0.05l0,8.982l2,0c0,-3.035 0.019,-6.069 -0.001,-9.104c-0.006,-0.306 -0.025,-0.611 -0.063,-0.915c-0.084,-0.655 -0.249,-1.299 -0.491,-1.913c-0.567,-1.437 -1.557,-2.696 -2.816,-3.592c-0.712,-0.506 -1.507,-0.895 -2.345,-1.145c-0.872,-0.26 -1.788,-0.367 -2.696,-0.321c-0.895,0.046 -1.781,0.242 -2.61,0.581c-0.924,0.378 -1.774,0.931 -2.496,1.619c-0.745,0.71 -1.351,1.563 -1.775,2.5c-0.312,0.689 -0.524,1.422 -0.629,2.171c-0.052,0.372 -0.076,0.746 -0.078,1.122l0,8.997l2,0c0,-2.994 0.001,-5.988 0,-8.982c0,-0.084 -0.003,-0.167 -0.002,-0.251c0.038,-1.309 0.408,-2.634 1.213,-3.683c0.128,-0.166 0.265,-0.324 0.412,-0.473c0.224,-0.227 0.47,-0.432 0.733,-0.611c0.376,-0.257 0.786,-0.461 1.214,-0.614c0.524,-0.187 1.075,-0.298 1.629,-0.35c0.266,-0.025 0.533,-0.034 0.801,-0.036c0.137,0.001 0.137,0.001 0.274,0.004Z" style="fill:#000;fill-rule:nonzero;"/><rect x="3" y="16" width="4" height="2" style="fill:#000;fill-rule:nonzero;"/><rect x="17" y="16" width="4" height="2" style="fill:#000;fill-rule:nonzero;"/></g></svg>