<?xml version="1.0" encoding="UTF-8" standalone="no"?><!DOCTYPE svg PUBLIC "-//W3C//DTD SVG 1.1//EN" "http://www.w3.org/Graphics/SVG/1.1/DTD/svg11.dtd"><svg width="100%" height="100%" viewBox="0 0 24 24" version="1.1" xmlns="http://www.w3.org/2000/svg" xmlns:xlink="http://www.w3.org/1999/xlink" xml:space="preserve" style="fill-rule:evenodd;clip-rule:evenodd;stroke-linejoin:round;stroke-miterlimit:1.41421;"><g id="mail"><path d="M20.052,4.001c0.217,0.008 0.431,0.045 0.635,0.12c0.532,0.195 0.966,0.619 1.174,1.146c0.086,0.218 0.129,0.447 0.138,0.681c0.051,4.034 0.051,8.07 0,12.104c-0.009,0.234 -0.052,0.463 -0.138,0.681c-0.208,0.527 -0.642,0.951 -1.174,1.146c-0.204,0.075 -0.418,0.112 -0.635,0.12c-5.368,0.068 -10.736,0.068 -16.104,0c-0.217,-0.008 -0.431,-0.045 -0.635,-0.12c-0.532,-0.195 -0.966,-0.619 -1.174,-1.146c-0.086,-0.218 -0.129,-0.447 -0.138,-0.681c-0.051,-4.034 -0.051,-8.07 0,-12.104c0.009,-0.234 0.052,-0.463 0.138,-0.681c0.208,-0.527 0.642,-0.951 1.174,-1.146c0.204,-0.075 0.418,-0.112 0.635,-0.12c5.368,-0.068 10.736,-0.068 16.104,0ZM4.012,6c-0.004,0 -0.009,-0.002 -0.012,0c-0.002,0.003 0,0.009 0,0.013c0,3.991 0,7.983 0,11.974c0,0.004 -0.002,0.01 0,0.013c0.003,0.002 0.008,0 0.012,0c5.325,0 10.651,0 15.976,0c0.004,0 0.009,0.002 0.012,0c0.002,-0.003 0,-0.009 0,-0.013c0,-3.991 0,-7.983 0,-11.974c0,-0.004 0.002,-0.01 0,-0.013c-0.003,-0.002 -0.008,0 -0.012,0c-5.325,0 -10.651,0 -15.976,0Z" style="fill:#000;fill-rule:nonzero;"/><path d="M18.555,8.832l-6.555,4.375l-6.555,-4.375l1.11,-1.664l5.445,3.634l5.445,-3.634c0.37,0.555 0.74,1.109 1.11,1.664Z" style="fill:#000;fill-rule:nonzero;"/></g></svg>