<?xml version="1.0" encoding="UTF-8" standalone="no"?><!DOCTYPE svg PUBLIC "-//W3C//DTD SVG 1.1//EN" "http://www.w3.org/Graphics/SVG/1.1/DTD/svg11.dtd"><svg width="100%" height="100%" viewBox="0 0 24 24" version="1.1" xmlns="http://www.w3.org/2000/svg" xmlns:xlink="http://www.w3.org/1999/xlink" xml:space="preserve" style="fill-rule:evenodd;clip-rule:evenodd;stroke-linejoin:round;stroke-miterlimit:1.41421;"><g id="map"><path d="M14.977,4.038l7.023,-2.038c0,6 0,12 0,18l-6,1.788l-1,0.254l-1,-0.254l-5,-1.812l-7,2.059l0,-18l6,-1.814l1,-0.254l1,0.254l4.977,1.817ZM10,18.445l4,1.357l0,-14.352l-4,-1.27c0,4.624 0,9.641 0,14.265ZM16,5.46l0.022,14.367l3.978,-1.382l0,-13.872c-1.333,0.339 -2.667,0.548 -4,0.887ZM4,5.59l0,14.063l4,-1.208l0,-14.287c-1.333,0.339 -2.667,1.093 -4,1.432Z" style="fill:#000;"/></g></svg>