<?xml version="1.0" encoding="UTF-8" standalone="no"?><!DOCTYPE svg PUBLIC "-//W3C//DTD SVG 1.1//EN" "http://www.w3.org/Graphics/SVG/1.1/DTD/svg11.dtd"><svg width="100%" height="100%" viewBox="0 0 24 24" version="1.1" xmlns="http://www.w3.org/2000/svg" xmlns:xlink="http://www.w3.org/1999/xlink" xml:space="preserve" style="fill-rule:evenodd;clip-rule:evenodd;stroke-linejoin:round;stroke-miterlimit:1.41421;"><g id="message_filled"><path d="M13,18.009l-8,3.991l0,-3.991l-1,0c-1.104,0 -2,-0.896 -2,-2l0,-12c0,-1.103 0.896,-2 2,-2l16,0c1.104,0 2,0.897 2,2l0,12c0,1.104 -0.896,2 -2,2l-7,0ZM14,12l-8,0l0,2l8,0l0,-2ZM18,9l-12,0l0,2l12,0l0,-2ZM18,6l-12,0l0,2l12,0l0,-2Z" style="fill:#000;"/></g></svg>