<?xml version="1.0" encoding="UTF-8" standalone="no"?><!DOCTYPE svg PUBLIC "-//W3C//DTD SVG 1.1//EN" "http://www.w3.org/Graphics/SVG/1.1/DTD/svg11.dtd"><svg width="100%" height="100%" viewBox="0 0 24 24" version="1.1" xmlns="http://www.w3.org/2000/svg" xmlns:xlink="http://www.w3.org/1999/xlink" xml:space="preserve" style="fill-rule:evenodd;clip-rule:evenodd;stroke-linejoin:round;stroke-miterlimit:1.41421;"><g id="money"><path d="M3.005,7.871c0.015,-0.202 0.056,-0.4 0.129,-0.589c0.208,-0.539 0.65,-0.97 1.194,-1.165c0.201,-0.072 0.411,-0.108 0.625,-0.116c5.031,-0.063 10.063,-0.063 15.094,0c0.214,0.008 0.424,0.044 0.625,0.116c0.544,0.195 0.986,0.626 1.194,1.165c0.073,0.189 0.114,0.387 0.129,0.589c0.002,0.025 0.003,0.051 0.004,0.077l0,0.01c0.001,0.014 0.001,0.028 0.001,0.042l0,0.003c0.037,2.998 0.037,5.996 0,8.994l0,0.003c0,0.014 0,0.028 -0.001,0.042l0,0.005l0,0.006c-0.001,0.024 -0.002,0.048 -0.004,0.072c-0.013,0.187 -0.049,0.37 -0.112,0.547c-0.195,0.544 -0.626,0.986 -1.165,1.194c-0.215,0.083 -0.441,0.125 -0.671,0.133c-5.031,0.063 -10.063,0.063 -15.094,0c-0.23,-0.008 -0.456,-0.05 -0.671,-0.133c-0.539,-0.208 -0.97,-0.65 -1.165,-1.194c-0.063,-0.177 -0.099,-0.36 -0.112,-0.547c-0.002,-0.024 -0.003,-0.048 -0.004,-0.072l0,-0.006l0,-0.005c-0.001,-0.014 -0.001,-0.028 -0.001,-0.042l0,-0.003c-0.037,-2.998 -0.037,-5.996 0,-8.994l0,-0.003c0,-0.014 0,-0.028 0.001,-0.042l0,-0.005l0,-0.005c0.001,-0.026 0.002,-0.052 0.004,-0.077ZM17.008,7.834c-2.997,-0.083 -6.004,0.052 -9.009,0.125c0.001,0.014 0.001,0.027 0.001,0.041c0,1.104 -1.12,2 -2.5,2c-0.197,0 -0.389,-0.018 -0.574,-0.053c-0.028,1.697 0.023,3.397 0.054,5.096c0.168,-0.028 0.342,-0.043 0.52,-0.043c1.38,0 2.5,0.896 2.5,2c0,0.025 -0.001,0.049 -0.002,0.073c3,0.037 6.001,-0.023 9.002,-0.055c0,-0.006 0,-0.012 0,-0.018c0,-1.104 1.12,-2 2.5,-2c0.187,0 0.369,0.016 0.544,0.048c0.017,-1.696 -0.013,-3.393 -0.032,-5.09c-0.165,0.027 -0.336,0.042 -0.512,0.042c-1.38,0 -2.5,-0.896 -2.5,-2c0,-0.056 0.003,-0.111 0.008,-0.166ZM12.5,9c1.38,0 2.5,1.568 2.5,3.5c0,1.932 -1.12,3.5 -2.5,3.5c-1.38,0 -2.5,-1.568 -2.5,-3.5c0,-1.932 1.12,-3.5 2.5,-3.5Z" style="fill:#000;"/></g></svg>