<?xml version="1.0" encoding="UTF-8" standalone="no"?><!DOCTYPE svg PUBLIC "-//W3C//DTD SVG 1.1//EN" "http://www.w3.org/Graphics/SVG/1.1/DTD/svg11.dtd"><svg width="100%" height="100%" viewBox="0 0 24 24" version="1.1" xmlns="http://www.w3.org/2000/svg" xmlns:xlink="http://www.w3.org/1999/xlink" xml:space="preserve" style="fill-rule:evenodd;clip-rule:evenodd;stroke-linejoin:round;stroke-miterlimit:1.41421;"><g id="motorcycle"><path d="M6.103,11.001l0.103,0.004l0.102,0.007l0.101,0.009l0.1,0.011l0.1,0.014l0.099,0.017l0.098,0.018l0.097,0.022l0.096,0.023l0.096,0.026l0.094,0.028l0.093,0.03l0.093,0.033l0.091,0.035l0.09,0.037l0.09,0.039l0.088,0.041l0.086,0.043l0.086,0.045l0.084,0.047l0.083,0.049l0.082,0.052l0.081,0.053l0.079,0.054l0.078,0.057l0.076,0.059l0.075,0.06l0.073,0.062l0.072,0.064l0.07,0.065l0.069,0.067l0.067,0.069l0.065,0.07l0.064,0.072l0.062,0.073l0.06,0.075l0.059,0.076l0.057,0.078l0.054,0.079l0.053,0.081l0.052,0.082l0.049,0.083l0.047,0.084l0.045,0.086l0.043,0.086l0.041,0.088l0.039,0.09l0.037,0.09l0.035,0.091l0.033,0.093l0.03,0.093l0.028,0.094l0.026,0.096l0.023,0.096l0.022,0.097l0.018,0.098l0.017,0.099l0.014,0.1l0.011,0.1l0.009,0.101l0.007,0.102l0.004,0.103l0.001,0.103l-0.001,0.103l-0.004,0.103l-0.007,0.102l-0.009,0.101l-0.011,0.1l-0.014,0.1l-0.017,0.099l-0.018,0.098l-0.022,0.097l-0.023,0.096l-0.026,0.096l-0.028,0.094l-0.03,0.093l-0.033,0.093l-0.035,0.091l-0.037,0.09l-0.039,0.09l-0.041,0.088l-0.043,0.086l-0.045,0.086l-0.047,0.084l-0.049,0.083l-0.052,0.082l-0.053,0.081l-0.054,0.079l-0.057,0.078l-0.059,0.076l-0.06,0.075l-0.062,0.073l-0.064,0.072l-0.065,0.07l-0.067,0.069l-0.069,0.067l-0.07,0.065l-0.072,0.064l-0.073,0.062l-0.075,0.06l-0.076,0.059l-0.078,0.057l-0.079,0.054l-0.081,0.053l-0.082,0.052l-0.083,0.049l-0.084,0.047l-0.086,0.045l-0.086,0.043l-0.088,0.041l-0.09,0.039l-0.09,0.037l-0.091,0.035l-0.093,0.033l-0.093,0.03l-0.094,0.028l-0.096,0.026l-0.096,0.023l-0.097,0.022l-0.098,0.018l-0.099,0.017l-0.1,0.014l-0.1,0.011l-0.101,0.009l-0.102,0.007l-0.103,0.004l-0.103,0.001l-0.103,-0.001l-0.103,-0.004l-0.102,-0.007l-0.101,-0.009l-0.1,-0.011l-0.1,-0.014l-0.099,-0.017l-0.098,-0.018l-0.097,-0.022l-0.096,-0.023l-0.096,-0.026l-0.094,-0.028l-0.093,-0.03l-0.093,-0.033l-0.091,-0.035l-0.09,-0.037l-0.09,-0.039l-0.088,-0.041l-0.086,-0.043l-0.086,-0.045l-0.084,-0.047l-0.083,-0.049l-0.082,-0.052l-0.081,-0.053l-0.079,-0.054l-0.078,-0.057l-0.076,-0.059l-0.075,-0.06l-0.073,-0.062l-0.072,-0.064l-0.07,-0.065l-0.069,-0.067l-0.067,-0.069l-0.065,-0.07l-0.064,-0.072l-0.062,-0.073l-0.06,-0.075l-0.059,-0.076l-0.057,-0.078l-0.054,-0.079l-0.053,-0.081l-0.052,-0.082l-0.049,-0.083l-0.047,-0.084l-0.045,-0.086l-0.043,-0.086l-0.041,-0.088l-0.039,-0.09l-0.037,-0.09l-0.035,-0.091l-0.033,-0.093l-0.03,-0.093l-0.028,-0.094l-0.026,-0.096l-0.023,-0.096l-0.022,-0.097l-0.018,-0.098l-0.017,-0.099l-0.014,-0.1l-0.011,-0.1l-0.009,-0.101l-0.007,-0.102l-0.004,-0.103l-0.001,-0.103l0.001,-0.103l0.004,-0.103l0.007,-0.102l0.009,-0.101l0.011,-0.1l0.014,-0.1l0.017,-0.099l0.018,-0.098l0.022,-0.097l0.023,-0.096l0.026,-0.096l0.028,-0.094l0.03,-0.093l0.033,-0.093l0.035,-0.091l0.037,-0.09l0.039,-0.09l0.041,-0.088l0.043,-0.086l0.045,-0.086l0.047,-0.084l0.049,-0.083l0.052,-0.082l0.053,-0.081l0.054,-0.079l0.057,-0.078l0.059,-0.076l0.06,-0.075l0.062,-0.073l0.064,-0.072l0.065,-0.07l0.067,-0.069l0.069,-0.067l0.07,-0.065l0.072,-0.064l0.073,-0.062l0.075,-0.06l0.076,-0.059l0.078,-0.057l0.079,-0.054l0.081,-0.053l0.082,-0.052l0.083,-0.049l0.084,-0.047l0.086,-0.045l0.086,-0.043l0.088,-0.041l0.09,-0.039l0.09,-0.037l0.091,-0.035l0.093,-0.033l0.093,-0.03l0.094,-0.028l0.096,-0.026l0.096,-0.023l0.097,-0.022l0.098,-0.018l0.099,-0.017l0.1,-0.014l0.1,-0.011l0.101,-0.009l0.102,-0.007l0.103,-0.004l0.103,-0.001l0.103,0.001ZM5.947,13.001l-0.051,0.002l-0.052,0.003l-0.05,0.005l-0.051,0.005l-0.049,0.007l-0.049,0.008l-0.049,0.01l-0.049,0.01l-0.047,0.012l-0.047,0.013l-0.047,0.014l-0.046,0.015l-0.047,0.016l-0.045,0.017l-0.045,0.018l-0.044,0.02l-0.044,0.021l-0.043,0.021l-0.042,0.022l-0.043,0.024l-0.041,0.025l-0.041,0.025l-0.041,0.027l-0.039,0.027l-0.04,0.029l-0.038,0.029l-0.038,0.031l-0.036,0.03l-0.037,0.033l-0.035,0.033l-0.034,0.033l-0.034,0.035l-0.033,0.036l-0.032,0.035l-0.031,0.037l-0.031,0.038l-0.029,0.038l-0.029,0.04l-0.028,0.039l-0.026,0.041l-0.025,0.04l-0.025,0.042l-0.024,0.042l-0.022,0.043l-0.022,0.043l-0.02,0.044l-0.02,0.045l-0.018,0.044l-0.017,0.045l-0.016,0.046l-0.015,0.046l-0.014,0.048l-0.013,0.047l-0.012,0.047l-0.01,0.049l-0.01,0.048l-0.008,0.049l-0.007,0.05l-0.005,0.051l-0.005,0.051l-0.003,0.051l-0.002,0.051l-0.001,0.053l0.001,0.053l0.002,0.051l0.003,0.051l0.005,0.051l0.005,0.051l0.007,0.05l0.008,0.049l0.01,0.048l0.01,0.049l0.012,0.047l0.013,0.047l0.014,0.048l0.015,0.046l0.016,0.046l0.017,0.045l0.018,0.044l0.02,0.045l0.02,0.044l0.022,0.043l0.022,0.043l0.024,0.042l0.025,0.042l0.025,0.04l0.026,0.041l0.028,0.039l0.029,0.04l0.029,0.038l0.031,0.038l0.031,0.037l0.032,0.035l0.033,0.036l0.034,0.035l0.034,0.033l0.035,0.033l0.037,0.033l0.036,0.03l0.038,0.031l0.038,0.029l0.04,0.029l0.039,0.027l0.041,0.027l0.041,0.025l0.041,0.025l0.043,0.024l0.042,0.022l0.043,0.021l0.044,0.021l0.044,0.02l0.045,0.018l0.045,0.017l0.047,0.016l0.046,0.015l0.047,0.014l0.047,0.013l0.047,0.012l0.049,0.01l0.049,0.01l0.049,0.008l0.049,0.007l0.051,0.005l0.05,0.005l0.052,0.003l0.051,0.002l0.053,0.001l0.053,-0.001l0.051,-0.002l0.052,-0.003l0.05,-0.005l0.051,-0.005l0.049,-0.007l0.049,-0.008l0.049,-0.01l0.049,-0.01l0.047,-0.012l0.047,-0.013l0.047,-0.014l0.046,-0.015l0.047,-0.016l0.045,-0.017l0.045,-0.018l0.044,-0.02l0.044,-0.021l0.043,-0.021l0.042,-0.022l0.043,-0.024l0.041,-0.025l0.041,-0.025l0.041,-0.027l0.039,-0.027l0.04,-0.029l0.038,-0.029l0.038,-0.031l0.036,-0.03l0.037,-0.033l0.035,-0.033l0.034,-0.033l0.034,-0.035l0.033,-0.036l0.032,-0.035l0.031,-0.037l0.031,-0.038l0.029,-0.038l0.029,-0.04l0.028,-0.039l0.026,-0.041l0.025,-0.04l0.025,-0.042l0.024,-0.042l0.022,-0.043l0.022,-0.043l0.02,-0.044l0.02,-0.045l0.018,-0.044l0.017,-0.045l0.016,-0.046l0.015,-0.046l0.014,-0.048l0.013,-0.047l0.012,-0.047l0.01,-0.049l0.01,-0.048l0.008,-0.049l0.007,-0.05l0.005,-0.051l0.005,-0.051l0.003,-0.051l0.002,-0.051l0.001,-0.053l-0.001,-0.053l-0.002,-0.051l-0.003,-0.051l-0.005,-0.051l-0.005,-0.051l-0.007,-0.05l-0.008,-0.049l-0.01,-0.048l-0.01,-0.049l-0.012,-0.047l-0.013,-0.047l-0.014,-0.048l-0.015,-0.046l-0.016,-0.046l-0.017,-0.045l-0.018,-0.044l-0.02,-0.045l-0.02,-0.044l-0.022,-0.043l-0.022,-0.043l-0.024,-0.042l-0.025,-0.042l-0.025,-0.04l-0.026,-0.041l-0.028,-0.039l-0.029,-0.04l-0.029,-0.038l-0.031,-0.038l-0.031,-0.037l-0.032,-0.035l-0.033,-0.036l-0.034,-0.035l-0.034,-0.033l-0.035,-0.033l-0.037,-0.033l-0.036,-0.03l-0.038,-0.031l-0.038,-0.029l-0.04,-0.029l-0.039,-0.027l-0.041,-0.027l-0.041,-0.025l-0.041,-0.025l-0.043,-0.024l-0.042,-0.022l-0.043,-0.021l-0.044,-0.021l-0.044,-0.02l-0.045,-0.018l-0.045,-0.017l-0.047,-0.016l-0.046,-0.015l-0.047,-0.014l-0.047,-0.013l-0.047,-0.012l-0.049,-0.01l-0.049,-0.01l-0.049,-0.008l-0.049,-0.007l-0.051,-0.005l-0.05,-0.005l-0.052,-0.003l-0.051,-0.002l-0.053,-0.001l-0.053,0.001Z" style="fill:#000;"/><path d="M18.103,11.001l0.103,0.004l0.102,0.007l0.101,0.009l0.1,0.011l0.1,0.014l0.099,0.017l0.098,0.018l0.097,0.022l0.096,0.023l0.096,0.026l0.094,0.028l0.093,0.03l0.093,0.033l0.091,0.035l0.09,0.037l0.09,0.039l0.088,0.041l0.086,0.043l0.086,0.045l0.084,0.047l0.083,0.049l0.082,0.052l0.081,0.053l0.079,0.054l0.078,0.057l0.076,0.059l0.075,0.06l0.073,0.062l0.072,0.064l0.07,0.065l0.069,0.067l0.067,0.069l0.065,0.07l0.064,0.072l0.062,0.073l0.06,0.075l0.059,0.076l0.057,0.078l0.054,0.079l0.053,0.081l0.052,0.082l0.049,0.083l0.047,0.084l0.045,0.086l0.043,0.086l0.041,0.088l0.039,0.09l0.037,0.09l0.035,0.091l0.033,0.093l0.03,0.093l0.028,0.094l0.026,0.096l0.023,0.096l0.022,0.097l0.018,0.098l0.017,0.099l0.014,0.1l0.011,0.1l0.009,0.101l0.007,0.102l0.004,0.103l0.001,0.103l-0.001,0.103l-0.004,0.103l-0.007,0.102l-0.009,0.101l-0.011,0.1l-0.014,0.1l-0.017,0.099l-0.018,0.098l-0.022,0.097l-0.023,0.096l-0.026,0.096l-0.028,0.094l-0.03,0.093l-0.033,0.093l-0.035,0.091l-0.037,0.09l-0.039,0.09l-0.041,0.088l-0.043,0.086l-0.045,0.086l-0.047,0.084l-0.049,0.083l-0.052,0.082l-0.053,0.081l-0.054,0.079l-0.057,0.078l-0.059,0.076l-0.06,0.075l-0.062,0.073l-0.064,0.072l-0.065,0.07l-0.067,0.069l-0.069,0.067l-0.07,0.065l-0.072,0.064l-0.073,0.062l-0.075,0.06l-0.076,0.059l-0.078,0.057l-0.079,0.054l-0.081,0.053l-0.082,0.052l-0.083,0.049l-0.084,0.047l-0.086,0.045l-0.086,0.043l-0.088,0.041l-0.09,0.039l-0.09,0.037l-0.091,0.035l-0.093,0.033l-0.093,0.03l-0.094,0.028l-0.096,0.026l-0.096,0.023l-0.097,0.022l-0.098,0.018l-0.099,0.017l-0.1,0.014l-0.1,0.011l-0.101,0.009l-0.102,0.007l-0.103,0.004l-0.103,0.001l-0.103,-0.001l-0.103,-0.004l-0.102,-0.007l-0.101,-0.009l-0.1,-0.011l-0.1,-0.014l-0.099,-0.017l-0.098,-0.018l-0.097,-0.022l-0.096,-0.023l-0.096,-0.026l-0.094,-0.028l-0.093,-0.03l-0.093,-0.033l-0.091,-0.035l-0.09,-0.037l-0.09,-0.039l-0.088,-0.041l-0.086,-0.043l-0.086,-0.045l-0.084,-0.047l-0.083,-0.049l-0.082,-0.052l-0.081,-0.053l-0.079,-0.054l-0.078,-0.057l-0.076,-0.059l-0.075,-0.06l-0.073,-0.062l-0.072,-0.064l-0.07,-0.065l-0.069,-0.067l-0.067,-0.069l-0.065,-0.07l-0.064,-0.072l-0.062,-0.073l-0.06,-0.075l-0.059,-0.076l-0.057,-0.078l-0.054,-0.079l-0.053,-0.081l-0.052,-0.082l-0.049,-0.083l-0.047,-0.084l-0.045,-0.086l-0.043,-0.086l-0.041,-0.088l-0.039,-0.09l-0.037,-0.09l-0.035,-0.091l-0.033,-0.093l-0.03,-0.093l-0.028,-0.094l-0.026,-0.096l-0.023,-0.096l-0.022,-0.097l-0.018,-0.098l-0.017,-0.099l-0.014,-0.1l-0.011,-0.1l-0.009,-0.101l-0.007,-0.102l-0.004,-0.103l-0.001,-0.103l0.001,-0.103l0.004,-0.103l0.007,-0.102l0.009,-0.101l0.011,-0.1l0.014,-0.1l0.017,-0.099l0.018,-0.098l0.022,-0.097l0.023,-0.096l0.026,-0.096l0.028,-0.094l0.03,-0.093l0.033,-0.093l0.035,-0.091l0.037,-0.09l0.039,-0.09l0.041,-0.088l0.043,-0.086l0.045,-0.086l0.047,-0.084l0.049,-0.083l0.052,-0.082l0.053,-0.081l0.054,-0.079l0.057,-0.078l0.059,-0.076l0.06,-0.075l0.062,-0.073l0.064,-0.072l0.065,-0.07l0.067,-0.069l0.069,-0.067l0.07,-0.065l0.072,-0.064l0.073,-0.062l0.075,-0.06l0.076,-0.059l0.078,-0.057l0.079,-0.054l0.081,-0.053l0.082,-0.052l0.083,-0.049l0.084,-0.047l0.086,-0.045l0.086,-0.043l0.088,-0.041l0.09,-0.039l0.09,-0.037l0.091,-0.035l0.093,-0.033l0.093,-0.03l0.094,-0.028l0.096,-0.026l0.096,-0.023l0.097,-0.022l0.098,-0.018l0.099,-0.017l0.1,-0.014l0.1,-0.011l0.101,-0.009l0.102,-0.007l0.103,-0.004l0.103,-0.001l0.103,0.001ZM17.947,13.001l-0.051,0.002l-0.052,0.003l-0.05,0.005l-0.051,0.005l-0.049,0.007l-0.049,0.008l-0.049,0.01l-0.049,0.01l-0.047,0.012l-0.047,0.013l-0.047,0.014l-0.046,0.015l-0.047,0.016l-0.045,0.017l-0.045,0.018l-0.044,0.02l-0.044,0.021l-0.043,0.021l-0.042,0.022l-0.043,0.024l-0.041,0.025l-0.041,0.025l-0.041,0.027l-0.039,0.027l-0.04,0.029l-0.038,0.029l-0.038,0.031l-0.036,0.03l-0.037,0.033l-0.035,0.033l-0.034,0.033l-0.034,0.035l-0.033,0.036l-0.032,0.035l-0.031,0.037l-0.031,0.038l-0.029,0.038l-0.029,0.04l-0.028,0.039l-0.026,0.041l-0.025,0.04l-0.025,0.042l-0.024,0.042l-0.022,0.043l-0.022,0.043l-0.02,0.044l-0.02,0.045l-0.018,0.044l-0.017,0.045l-0.016,0.046l-0.015,0.046l-0.014,0.048l-0.013,0.047l-0.012,0.047l-0.01,0.049l-0.01,0.048l-0.008,0.049l-0.007,0.05l-0.005,0.051l-0.005,0.051l-0.003,0.051l-0.002,0.051l-0.001,0.053l0.001,0.053l0.002,0.051l0.003,0.051l0.005,0.051l0.005,0.051l0.007,0.05l0.008,0.049l0.01,0.048l0.01,0.049l0.012,0.047l0.013,0.047l0.014,0.048l0.015,0.046l0.016,0.046l0.017,0.045l0.018,0.044l0.02,0.045l0.02,0.044l0.022,0.043l0.022,0.043l0.024,0.042l0.025,0.042l0.025,0.04l0.026,0.041l0.028,0.039l0.029,0.04l0.029,0.038l0.031,0.038l0.031,0.037l0.032,0.035l0.033,0.036l0.034,0.035l0.034,0.033l0.035,0.033l0.037,0.033l0.036,0.03l0.038,0.031l0.038,0.029l0.04,0.029l0.039,0.027l0.041,0.027l0.041,0.025l0.041,0.025l0.043,0.024l0.042,0.022l0.043,0.021l0.044,0.021l0.044,0.02l0.045,0.018l0.045,0.017l0.047,0.016l0.046,0.015l0.047,0.014l0.047,0.013l0.047,0.012l0.049,0.01l0.049,0.01l0.049,0.008l0.049,0.007l0.051,0.005l0.05,0.005l0.052,0.003l0.051,0.002l0.053,0.001l0.053,-0.001l0.051,-0.002l0.052,-0.003l0.05,-0.005l0.051,-0.005l0.049,-0.007l0.049,-0.008l0.049,-0.01l0.049,-0.01l0.047,-0.012l0.047,-0.013l0.047,-0.014l0.046,-0.015l0.047,-0.016l0.045,-0.017l0.045,-0.018l0.044,-0.02l0.044,-0.021l0.043,-0.021l0.042,-0.022l0.043,-0.024l0.041,-0.025l0.041,-0.025l0.041,-0.027l0.039,-0.027l0.04,-0.029l0.038,-0.029l0.038,-0.031l0.036,-0.03l0.037,-0.033l0.035,-0.033l0.034,-0.033l0.034,-0.035l0.033,-0.036l0.032,-0.035l0.031,-0.037l0.031,-0.038l0.029,-0.038l0.029,-0.04l0.028,-0.039l0.026,-0.041l0.025,-0.04l0.025,-0.042l0.024,-0.042l0.022,-0.043l0.022,-0.043l0.02,-0.044l0.02,-0.045l0.018,-0.044l0.017,-0.045l0.016,-0.046l0.015,-0.046l0.014,-0.048l0.013,-0.047l0.012,-0.047l0.01,-0.049l0.01,-0.048l0.008,-0.049l0.007,-0.05l0.005,-0.051l0.005,-0.051l0.003,-0.051l0.002,-0.051l0.001,-0.053l-0.001,-0.053l-0.002,-0.051l-0.003,-0.051l-0.005,-0.051l-0.005,-0.051l-0.007,-0.05l-0.008,-0.049l-0.01,-0.048l-0.01,-0.049l-0.012,-0.047l-0.013,-0.047l-0.014,-0.048l-0.015,-0.046l-0.016,-0.046l-0.017,-0.045l-0.018,-0.044l-0.02,-0.045l-0.02,-0.044l-0.022,-0.043l-0.022,-0.043l-0.024,-0.042l-0.025,-0.042l-0.025,-0.04l-0.026,-0.041l-0.028,-0.039l-0.029,-0.04l-0.029,-0.038l-0.031,-0.038l-0.031,-0.037l-0.032,-0.035l-0.033,-0.036l-0.034,-0.035l-0.034,-0.033l-0.035,-0.033l-0.037,-0.033l-0.036,-0.03l-0.038,-0.031l-0.038,-0.029l-0.04,-0.029l-0.039,-0.027l-0.041,-0.027l-0.041,-0.025l-0.041,-0.025l-0.043,-0.024l-0.042,-0.022l-0.043,-0.021l-0.044,-0.021l-0.044,-0.02l-0.045,-0.018l-0.045,-0.017l-0.047,-0.016l-0.046,-0.015l-0.047,-0.014l-0.047,-0.013l-0.047,-0.012l-0.049,-0.01l-0.049,-0.01l-0.049,-0.008l-0.049,-0.007l-0.051,-0.005l-0.05,-0.005l-0.052,-0.003l-0.051,-0.002l-0.053,-0.001l-0.053,0.001Z" style="fill:#000;"/><path d="M16.009,8l-0.018,2l-4.957,-0.045c0.061,0.063 0.12,0.129 0.178,0.195c0.075,0.087 0.147,0.175 0.218,0.264c0.257,0.334 0.485,0.688 0.678,1.063c0.465,0.907 0.724,1.909 0.833,2.919c0.058,0.541 0.072,1.085 0.059,1.629l-2,-0.05c0.004,-0.15 0.006,-0.299 0.005,-0.449c-0.002,-0.141 -0.007,-0.281 -0.013,-0.421c-0.035,-0.599 -0.118,-1.195 -0.289,-1.771c-0.122,-0.409 -0.286,-0.806 -0.501,-1.175c-0.276,-0.472 -0.635,-0.893 -1.061,-1.236c-0.27,-0.216 -0.564,-0.401 -0.874,-0.553c-0.409,-0.201 -0.843,-0.343 -1.288,-0.438l-0.077,-0.016l-1.394,-0.256l0.168,-1.754c3.445,0.031 6.889,0.063 10.333,0.094Z" style="fill:#000;fill-rule:nonzero;"/><path d="M17.949,11.684l-1.898,0.632l-2,-6l1.898,-0.632c0.666,2 1.333,4 2,6Z" style="fill:#000;fill-rule:nonzero;"/></g></svg>