<?xml version="1.0" encoding="UTF-8" standalone="no"?><!DOCTYPE svg PUBLIC "-//W3C//DTD SVG 1.1//EN" "http://www.w3.org/Graphics/SVG/1.1/DTD/svg11.dtd"><svg width="100%" height="100%" viewBox="0 0 24 24" version="1.1" xmlns="http://www.w3.org/2000/svg" xmlns:xlink="http://www.w3.org/1999/xlink" xml:space="preserve" style="fill-rule:evenodd;clip-rule:evenodd;stroke-linejoin:round;stroke-miterlimit:1.41421;"><g id="mug"><path d="M19,4l0.052,0.001l0.051,0.002l0.051,0.003l0.05,0.004l0.051,0.006l0.05,0.007l0.049,0.008l0.049,0.01l0.049,0.01l0.048,0.012l0.048,0.013l0.047,0.014l0.046,0.015l0.047,0.016l0.045,0.018l0.045,0.018l0.045,0.02l0.044,0.02l0.044,0.022l0.042,0.022l0.043,0.024l0.041,0.025l0.041,0.025l0.04,0.027l0.04,0.027l0.039,0.028l0.038,0.03l0.037,0.03l0.037,0.031l0.036,0.032l0.035,0.032l0.034,0.034l0.034,0.034l0.032,0.035l0.032,0.036l0.031,0.037l0.03,0.037l0.03,0.038l0.028,0.039l0.027,0.04l0.027,0.04l0.025,0.041l0.025,0.041l0.024,0.043l0.022,0.043l0.022,0.043l0.02,0.044l0.02,0.045l0.018,0.045l0.018,0.045l0.016,0.047l0.015,0.046l0.014,0.047l0.013,0.048l0.012,0.048l0.01,0.049l0.01,0.049l0.008,0.049l0.007,0.05l0.006,0.051l0.004,0.05l0.003,0.051l0.002,0.051l0.001,0.052l0,13l-0.001,0.052l-0.002,0.051l-0.003,0.051l-0.004,0.05l-0.006,0.051l-0.007,0.05l-0.008,0.049l-0.01,0.049l-0.01,0.049l-0.012,0.048l-0.013,0.048l-0.014,0.047l-0.015,0.046l-0.016,0.047l-0.018,0.045l-0.018,0.045l-0.02,0.045l-0.02,0.044l-0.022,0.043l-0.022,0.043l-0.024,0.043l-0.025,0.041l-0.025,0.041l-0.027,0.04l-0.027,0.04l-0.028,0.039l-0.03,0.038l-0.03,0.037l-0.031,0.037l-0.032,0.036l-0.032,0.035l-0.034,0.034l-0.034,0.034l-0.035,0.032l-0.036,0.032l-0.037,0.031l-0.037,0.03l-0.038,0.03l-0.039,0.028l-0.04,0.027l-0.04,0.027l-0.041,0.025l-0.041,0.025l-0.043,0.024l-0.042,0.022l-0.044,0.022l-0.044,0.02l-0.045,0.02l-0.045,0.018l-0.045,0.018l-0.047,0.016l-0.046,0.015l-0.047,0.014l-0.048,0.013l-0.048,0.012l-0.049,0.01l-0.049,0.01l-0.049,0.008l-0.05,0.007l-0.051,0.006l-0.05,0.004l-0.051,0.003l-0.051,0.002l-0.052,0.001l-10,0l-0.052,-0.001l-0.051,-0.002l-0.051,-0.003l-0.05,-0.004l-0.051,-0.006l-0.05,-0.007l-0.049,-0.008l-0.049,-0.01l-0.049,-0.01l-0.048,-0.012l-0.048,-0.013l-0.047,-0.014l-0.046,-0.015l-0.047,-0.016l-0.045,-0.018l-0.045,-0.018l-0.045,-0.02l-0.044,-0.02l-0.044,-0.022l-0.042,-0.022l-0.043,-0.024l-0.041,-0.025l-0.041,-0.025l-0.04,-0.027l-0.04,-0.027l-0.039,-0.028l-0.038,-0.03l-0.037,-0.03l-0.037,-0.031l-0.036,-0.032l-0.035,-0.032l-0.034,-0.034l-0.034,-0.034l-0.032,-0.035l-0.032,-0.036l-0.031,-0.037l-0.03,-0.037l-0.03,-0.038l-0.028,-0.039l-0.027,-0.04l-0.027,-0.04l-0.025,-0.041l-0.025,-0.041l-0.024,-0.043l-0.022,-0.043l-0.022,-0.043l-0.02,-0.044l-0.02,-0.045l-0.018,-0.045l-0.018,-0.045l-0.016,-0.047l-0.015,-0.046l-0.014,-0.047l-0.013,-0.048l-0.012,-0.048l-0.01,-0.049l-0.01,-0.049l-0.008,-0.049l-0.007,-0.05l-0.006,-0.051l-0.004,-0.05l-0.003,-0.051l-0.002,-0.051l-0.001,-0.052l0,-13l0.001,-0.052l0.002,-0.051l0.003,-0.051l0.004,-0.05l0.006,-0.051l0.007,-0.05l0.008,-0.049l0.01,-0.049l0.01,-0.049l0.012,-0.048l0.013,-0.048l0.014,-0.047l0.015,-0.046l0.016,-0.047l0.018,-0.045l0.018,-0.045l0.02,-0.045l0.02,-0.044l0.022,-0.043l0.022,-0.043l0.024,-0.043l0.025,-0.041l0.025,-0.041l0.027,-0.04l0.027,-0.04l0.028,-0.039l0.03,-0.038l0.03,-0.037l0.031,-0.037l0.032,-0.036l0.032,-0.035l0.034,-0.034l0.034,-0.034l0.035,-0.032l0.036,-0.032l0.037,-0.031l0.037,-0.03l0.038,-0.03l0.039,-0.028l0.04,-0.027l0.04,-0.027l0.041,-0.025l0.041,-0.025l0.043,-0.024l0.042,-0.022l0.044,-0.022l0.044,-0.02l0.045,-0.02l0.045,-0.018l0.045,-0.018l0.047,-0.016l0.046,-0.015l0.047,-0.014l0.048,-0.013l0.048,-0.012l0.049,-0.01l0.049,-0.01l0.049,-0.008l0.05,-0.007l0.051,-0.006l0.05,-0.004l0.051,-0.003l0.051,-0.002l0.052,-0.001l10,0ZM9.012,6l-0.012,0l0,0.012l0,12.976l0,0.012l0.013,0l9.974,0l0.013,0l0,-0.012l0,-12.976l0,-0.012l-0.012,0l-9.976,0Z" style="fill:#000;"/><path d="M8.012,8c-0.104,0.001 -0.104,0.001 -0.208,0.005c-0.097,0.006 -0.096,0.006 -0.193,0.014c-0.185,0.02 -0.368,0.048 -0.549,0.092c-0.362,0.087 -0.712,0.225 -1.036,0.41c-0.442,0.252 -0.836,0.588 -1.153,0.986c-0.303,0.379 -0.535,0.811 -0.683,1.273c-0.136,0.422 -0.199,0.867 -0.189,1.311c0.01,0.438 0.091,0.874 0.242,1.285c0.381,1.039 1.199,1.892 2.219,2.317c0.491,0.205 1.014,0.304 1.544,0.307l-0.012,2c-0.704,-0.004 -1.402,-0.124 -2.063,-0.367c-0.637,-0.234 -1.232,-0.578 -1.755,-1.01c-0.915,-0.758 -1.596,-1.786 -1.932,-2.926c-0.175,-0.594 -0.257,-1.214 -0.243,-1.833c0.016,-0.705 0.156,-1.406 0.415,-2.061c0.281,-0.713 0.7,-1.37 1.227,-1.926c0.525,-0.555 1.156,-1.009 1.85,-1.329c0.52,-0.239 1.074,-0.404 1.64,-0.486c0.284,-0.041 0.568,-0.058 0.855,-0.062c0.008,0.667 0.016,1.333 0.024,2Z" style="fill:#000;fill-rule:nonzero;"/><path d="M19,4l0.052,0.001l0.051,0.002l0.051,0.003l0.05,0.004l0.051,0.006l0.05,0.007l0.049,0.008l0.049,0.01l0.049,0.01l0.048,0.012l0.048,0.013l0.047,0.014l0.046,0.015l0.047,0.016l0.045,0.018l0.045,0.018l0.045,0.02l0.044,0.02l0.044,0.022l0.042,0.022l0.043,0.024l0.041,0.025l0.041,0.025l0.04,0.027l0.04,0.027l0.039,0.028l0.038,0.03l0.037,0.03l0.037,0.031l0.036,0.032l0.035,0.032l0.034,0.034l0.034,0.034l0.032,0.035l0.032,0.036l0.031,0.037l0.03,0.037l0.03,0.038l0.028,0.039l0.027,0.04l0.027,0.04l0.025,0.041l0.025,0.041l0.024,0.043l0.022,0.043l0.022,0.043l0.02,0.044l0.02,0.045l0.018,0.045l0.018,0.045l0.016,0.047l0.015,0.046l0.014,0.047l0.013,0.048l0.012,0.048l0.01,0.049l0.01,0.049l0.008,0.049l0.007,0.05l0.006,0.051l0.004,0.05l0.003,0.051l0.002,0.051l0.001,0.052l0,13l-0.001,0.052l-0.002,0.051l-0.003,0.051l-0.004,0.05l-0.006,0.051l-0.007,0.05l-0.008,0.049l-0.01,0.049l-0.01,0.049l-0.012,0.048l-0.013,0.048l-0.014,0.047l-0.015,0.046l-0.016,0.047l-0.018,0.045l-0.018,0.045l-0.02,0.045l-0.02,0.044l-0.022,0.043l-0.022,0.043l-0.024,0.043l-0.025,0.041l-0.025,0.041l-0.027,0.04l-0.027,0.04l-0.028,0.039l-0.03,0.038l-0.03,0.037l-0.031,0.037l-0.032,0.036l-0.032,0.035l-0.034,0.034l-0.034,0.034l-0.035,0.032l-0.036,0.032l-0.037,0.031l-0.037,0.03l-0.038,0.03l-0.039,0.028l-0.04,0.027l-0.04,0.027l-0.041,0.025l-0.041,0.025l-0.043,0.024l-0.042,0.022l-0.044,0.022l-0.044,0.02l-0.045,0.02l-0.045,0.018l-0.045,0.018l-0.047,0.016l-0.046,0.015l-0.047,0.014l-0.048,0.013l-0.048,0.012l-0.049,0.01l-0.049,0.01l-0.049,0.008l-0.05,0.007l-0.051,0.006l-0.05,0.004l-0.051,0.003l-0.051,0.002l-0.052,0.001l-10,0l-0.05,-0.001l-0.049,-0.001l-0.05,-0.004l-0.049,-0.004l-0.049,-0.005l-0.048,-0.007l-0.049,-0.008l-0.048,-0.009l-0.048,-0.01l-0.048,-0.011l-0.047,-0.013l-0.047,-0.013l-0.046,-0.015l-0.046,-0.016l-0.046,-0.017l-0.045,-0.018l-0.045,-0.019l-0.045,-0.021l-0.043,-0.021l-0.044,-0.023l-0.043,-0.023l-0.042,-0.025l-0.042,-0.025l-0.041,-0.027l-0.04,-0.028l-0.04,-0.028l-0.039,-0.03l-0.039,-0.031l-0.037,-0.032l-0.037,-0.032l-0.037,-0.034l-0.035,-0.035l-0.035,-0.035l-0.034,-0.037l-0.032,-0.037l-0.032,-0.037l-0.031,-0.039l-0.03,-0.039l-0.028,-0.04l-0.028,-0.04l-0.027,-0.041l-0.025,-0.042l-0.025,-0.042l-0.023,-0.043l-0.023,-0.044l-0.021,-0.043l-0.021,-0.045l-0.019,-0.045l-0.018,-0.045l-0.017,-0.046l-0.016,-0.046l-0.015,-0.046l-0.013,-0.047l-0.013,-0.048l-0.011,-0.047l-0.01,-0.048l-0.009,-0.048l-0.008,-0.049l-0.007,-0.048l-0.005,-0.049l-0.004,-0.049l-0.004,-0.05l-0.001,-0.049l-0.001,-0.05l0,-10.377l0,-2.623l0.001,-0.05l0.001,-0.049l0.004,-0.05l0.004,-0.049l0.005,-0.049l0.007,-0.048l0.008,-0.049l0.009,-0.048l0.01,-0.048l0.011,-0.047l0.013,-0.048l0.013,-0.047l0.015,-0.046l0.016,-0.046l0.017,-0.046l0.018,-0.045l0.019,-0.045l0.021,-0.045l0.021,-0.043l0.023,-0.044l0.023,-0.043l0.025,-0.042l0.025,-0.042l0.027,-0.041l0.028,-0.04l0.028,-0.04l0.03,-0.039l0.031,-0.039l0.032,-0.037l0.032,-0.037l0.034,-0.037l0.035,-0.035l0.035,-0.035l0.037,-0.034l0.037,-0.032l0.037,-0.032l0.039,-0.031l0.039,-0.03l0.04,-0.028l0.04,-0.028l0.041,-0.027l0.042,-0.025l0.042,-0.025l0.043,-0.023l0.044,-0.023l0.043,-0.021l0.045,-0.021l0.045,-0.019l0.045,-0.018l0.046,-0.017l0.046,-0.016l0.046,-0.015l0.047,-0.013l0.047,-0.013l0.048,-0.011l0.048,-0.01l0.048,-0.009l0.049,-0.008l0.048,-0.007l0.049,-0.005l0.049,-0.004l0.05,-0.004l0.049,-0.001l0.05,-0.001l10,0ZM9.012,6l-0.012,0l0,0.013l0,12.974l0,0.013l0.013,0l9.974,0l0.013,0l0,-0.012l0,-12.976l0,-0.012l-0.012,0l-9.976,0Z" style="fill:#000;"/></g></svg>