<?xml version="1.0" encoding="UTF-8" standalone="no"?><!DOCTYPE svg PUBLIC "-//W3C//DTD SVG 1.1//EN" "http://www.w3.org/Graphics/SVG/1.1/DTD/svg11.dtd"><svg width="100%" height="100%" viewBox="0 0 24 24" version="1.1" xmlns="http://www.w3.org/2000/svg" xmlns:xlink="http://www.w3.org/1999/xlink" xml:space="preserve" style="fill-rule:evenodd;clip-rule:evenodd;stroke-linejoin:round;stroke-miterlimit:1.41421;"><g id="not_visible"><path d="M19.471,8.772c0.256,0.257 0.506,0.522 0.748,0.793c0.512,0.572 0.996,1.17 1.437,1.799l0.434,0.636c-0.165,0.242 -0.328,0.487 -0.498,0.727c-0.23,0.324 -0.473,0.64 -0.725,0.949c-0.371,0.457 -0.761,0.898 -1.17,1.321c-0.293,0.304 -0.597,0.6 -0.91,0.884c-0.253,0.229 -0.511,0.451 -0.777,0.665c-1.444,1.159 -3.133,2.104 -4.986,2.376c-0.261,0.038 -0.524,0.063 -0.788,0.073c-0.399,0.015 -0.798,-0.004 -1.194,-0.055c-0.482,-0.062 -0.957,-0.172 -1.42,-0.32l1.666,-1.665c0.035,0.005 0.07,0.009 0.105,0.013c0.255,0.028 0.511,0.038 0.767,0.028c1.263,-0.048 2.463,-0.558 3.516,-1.231c0.174,-0.11 0.344,-0.226 0.511,-0.346c0.222,-0.158 0.438,-0.324 0.649,-0.497c0.258,-0.209 0.508,-0.428 0.751,-0.654c0.316,-0.294 0.621,-0.601 0.914,-0.917c0.393,-0.423 0.764,-0.863 1.117,-1.319l0.025,-0.032c-0.358,-0.468 -0.74,-0.919 -1.142,-1.351c-0.145,-0.157 -0.294,-0.311 -0.445,-0.463l1.415,-1.414ZM4.498,15.259c-0.352,-0.35 -0.69,-0.715 -1.016,-1.09c-0.424,-0.491 -0.828,-1.001 -1.201,-1.532l-0.435,-0.637c0.166,-0.242 0.328,-0.487 0.498,-0.726c0.202,-0.286 0.415,-0.564 0.634,-0.837c0.357,-0.445 0.732,-0.876 1.124,-1.29c0.286,-0.303 0.581,-0.596 0.885,-0.879c0.891,-0.828 1.867,-1.576 2.938,-2.156c0.816,-0.443 1.691,-0.786 2.603,-0.968c0.387,-0.076 0.778,-0.121 1.172,-0.139c0.134,-0.004 0.268,-0.005 0.402,-0.004c0.396,0.012 0.789,0.048 1.179,0.119c0.368,0.067 0.728,0.16 1.081,0.275l-1.657,1.658c-0.181,-0.025 -0.362,-0.041 -0.545,-0.049c-0.096,-0.003 -0.192,-0.004 -0.288,-0.003c-0.256,0.007 -0.511,0.029 -0.764,0.071c-0.65,0.106 -1.277,0.326 -1.869,0.613c-0.798,0.386 -1.535,0.893 -2.218,1.457c-0.229,0.19 -0.453,0.387 -0.672,0.59c-0.316,0.294 -0.62,0.601 -0.914,0.917c-0.392,0.423 -0.764,0.864 -1.117,1.319l-0.024,0.032c0.393,0.515 0.816,1.008 1.261,1.479c0.117,0.124 0.236,0.246 0.357,0.367l-1.414,1.413Z" style="fill:#000;"/><path d="M19.071,3.515l-15.556,15.556l1.414,1.414l15.556,-15.556l-1.414,-1.414Z" style="fill:#000;"/></g></svg>