<?xml version="1.0" encoding="UTF-8" standalone="no"?><!DOCTYPE svg PUBLIC "-//W3C//DTD SVG 1.1//EN" "http://www.w3.org/Graphics/SVG/1.1/DTD/svg11.dtd"><svg width="100%" height="100%" viewBox="0 0 24 24" version="1.1" xmlns="http://www.w3.org/2000/svg" xmlns:xlink="http://www.w3.org/1999/xlink" xml:space="preserve" style="fill-rule:evenodd;clip-rule:evenodd;stroke-linejoin:round;stroke-miterlimit:1.41421;"><g id="note"><path d="M8,16.241l0,-9.241c0.004,-0.097 0.014,-0.191 0.042,-0.285c0.076,-0.256 0.255,-0.474 0.49,-0.599c0.087,-0.046 0.177,-0.074 0.272,-0.097l10,-2c0.073,-0.011 0.073,-0.011 0.146,-0.018c0.074,-0.001 0.074,-0.001 0.147,0.004c0.099,0.013 0.193,0.033 0.285,0.071c0.251,0.104 0.453,0.31 0.551,0.564c0.045,0.117 0.062,0.236 0.067,0.36l0,11c-0.325,1.141 -1.808,2 -3.5,2c-1.932,0 -3.5,-1.12 -3.5,-2.5c0,-1.38 1.568,-2.5 3.5,-2.5c0.537,0 1.045,0.086 1.5,0.241l0,-7.021l-8,1.6l0,11.18c-0.325,1.141 -1.808,2 -3.5,2c-1.932,0 -3.5,-1.12 -3.5,-2.5c0,-1.38 1.568,-2.5 3.5,-2.5c0.537,0 1.045,0.086 1.5,0.241Z" style="fill:#000;"/></g></svg>