<?xml version="1.0" encoding="UTF-8" standalone="no"?><!DOCTYPE svg PUBLIC "-//W3C//DTD SVG 1.1//EN" "http://www.w3.org/Graphics/SVG/1.1/DTD/svg11.dtd"><svg width="100%" height="100%" viewBox="0 0 24 24" version="1.1" xmlns="http://www.w3.org/2000/svg" xmlns:xlink="http://www.w3.org/1999/xlink" xml:space="preserve" style="fill-rule:evenodd;clip-rule:evenodd;stroke-linejoin:round;stroke-miterlimit:1.41421;"><g id="pepole"><path d="M12.103,5.001l0.103,0.004l0.102,0.007l0.101,0.009l0.1,0.011l0.1,0.014l0.099,0.017l0.098,0.018l0.097,0.022l0.096,0.023l0.096,0.026l0.094,0.028l0.093,0.03l0.093,0.033l0.091,0.035l0.09,0.037l0.09,0.039l0.088,0.041l0.086,0.043l0.086,0.045l0.084,0.047l0.083,0.049l0.082,0.052l0.081,0.053l0.079,0.054l0.078,0.057l0.076,0.059l0.075,0.06l0.073,0.062l0.072,0.064l0.07,0.065l0.069,0.067l0.067,0.069l0.065,0.07l0.064,0.072l0.062,0.073l0.06,0.075l0.059,0.076l0.057,0.078l0.054,0.079l0.053,0.081l0.052,0.082l0.049,0.083l0.047,0.084l0.045,0.086l0.043,0.086l0.041,0.088l0.039,0.09l0.037,0.09l0.035,0.091l0.033,0.093l0.03,0.093l0.028,0.094l0.026,0.096l0.023,0.096l0.022,0.097l0.018,0.098l0.017,0.099l0.014,0.1l0.011,0.1l0.009,0.101l0.007,0.102l0.004,0.103l0.001,0.103l-0.001,0.103l-0.004,0.103l-0.007,0.102l-0.009,0.101l-0.011,0.1l-0.014,0.1l-0.017,0.099l-0.018,0.098l-0.022,0.097l-0.023,0.096l-0.026,0.096l-0.028,0.094l-0.03,0.093l-0.033,0.093l-0.035,0.091l-0.037,0.09l-0.039,0.09l-0.041,0.088l-0.043,0.086l-0.045,0.086l-0.047,0.084l-0.049,0.083l-0.052,0.082l-0.053,0.081l-0.054,0.079l-0.057,0.078l-0.059,0.076l-0.06,0.075l-0.062,0.073l-0.064,0.072l-0.065,0.07l-0.067,0.069l-0.069,0.067l-0.07,0.065l-0.072,0.064l-0.073,0.062l-0.075,0.06l-0.076,0.059l-0.078,0.057l-0.079,0.054l-0.081,0.053l-0.082,0.052l-0.083,0.049l-0.084,0.047l-0.086,0.045l-0.086,0.043l-0.088,0.041l-0.09,0.039l-0.09,0.037l-0.091,0.035l-0.093,0.033l-0.093,0.03l-0.094,0.028l-0.096,0.026l-0.096,0.023l-0.097,0.022l-0.098,0.018l-0.099,0.017l-0.1,0.014l-0.1,0.011l-0.101,0.009l-0.102,0.007l-0.103,0.004l-0.103,0.001l-0.103,-0.001l-0.103,-0.004l-0.102,-0.007l-0.101,-0.009l-0.1,-0.011l-0.1,-0.014l-0.099,-0.017l-0.098,-0.018l-0.097,-0.022l-0.096,-0.023l-0.096,-0.026l-0.094,-0.028l-0.093,-0.03l-0.093,-0.033l-0.091,-0.035l-0.09,-0.037l-0.09,-0.039l-0.088,-0.041l-0.086,-0.043l-0.086,-0.045l-0.084,-0.047l-0.083,-0.049l-0.082,-0.052l-0.081,-0.053l-0.079,-0.054l-0.078,-0.057l-0.076,-0.059l-0.075,-0.06l-0.073,-0.062l-0.072,-0.064l-0.07,-0.065l-0.069,-0.067l-0.067,-0.069l-0.065,-0.07l-0.064,-0.072l-0.062,-0.073l-0.06,-0.075l-0.059,-0.076l-0.057,-0.078l-0.054,-0.079l-0.053,-0.081l-0.052,-0.082l-0.049,-0.083l-0.047,-0.084l-0.045,-0.086l-0.043,-0.086l-0.041,-0.088l-0.039,-0.09l-0.037,-0.09l-0.035,-0.091l-0.033,-0.093l-0.03,-0.093l-0.028,-0.094l-0.026,-0.096l-0.023,-0.096l-0.022,-0.097l-0.018,-0.098l-0.017,-0.099l-0.014,-0.1l-0.011,-0.1l-0.009,-0.101l-0.007,-0.102l-0.004,-0.103l-0.001,-0.103l0.001,-0.103l0.004,-0.103l0.007,-0.102l0.009,-0.101l0.011,-0.1l0.014,-0.1l0.017,-0.099l0.018,-0.098l0.022,-0.097l0.023,-0.096l0.026,-0.096l0.028,-0.094l0.03,-0.093l0.033,-0.093l0.035,-0.091l0.037,-0.09l0.039,-0.09l0.041,-0.088l0.043,-0.086l0.045,-0.086l0.047,-0.084l0.049,-0.083l0.052,-0.082l0.053,-0.081l0.054,-0.079l0.057,-0.078l0.059,-0.076l0.06,-0.075l0.062,-0.073l0.064,-0.072l0.065,-0.07l0.067,-0.069l0.069,-0.067l0.07,-0.065l0.072,-0.064l0.073,-0.062l0.075,-0.06l0.076,-0.059l0.078,-0.057l0.079,-0.054l0.081,-0.053l0.082,-0.052l0.083,-0.049l0.084,-0.047l0.086,-0.045l0.086,-0.043l0.088,-0.041l0.09,-0.039l0.09,-0.037l0.091,-0.035l0.093,-0.033l0.093,-0.03l0.094,-0.028l0.096,-0.026l0.096,-0.023l0.097,-0.022l0.098,-0.018l0.099,-0.017l0.1,-0.014l0.1,-0.011l0.101,-0.009l0.102,-0.007l0.103,-0.004l0.103,-0.001l0.103,0.001ZM11.947,7.001l-0.051,0.002l-0.051,0.003l-0.051,0.005l-0.051,0.005l-0.05,0.007l-0.049,0.008l-0.048,0.01l-0.049,0.01l-0.047,0.012l-0.047,0.013l-0.048,0.014l-0.046,0.015l-0.046,0.016l-0.045,0.017l-0.044,0.018l-0.045,0.02l-0.044,0.02l-0.043,0.022l-0.043,0.022l-0.043,0.024l-0.041,0.025l-0.04,0.025l-0.041,0.026l-0.039,0.028l-0.04,0.029l-0.038,0.029l-0.038,0.03l-0.037,0.032l-0.035,0.032l-0.036,0.033l-0.035,0.034l-0.033,0.034l-0.033,0.035l-0.033,0.037l-0.03,0.036l-0.031,0.038l-0.029,0.038l-0.029,0.04l-0.027,0.039l-0.027,0.041l-0.025,0.041l-0.025,0.041l-0.024,0.042l-0.022,0.043l-0.022,0.043l-0.02,0.044l-0.019,0.044l-0.019,0.045l-0.017,0.045l-0.016,0.046l-0.015,0.047l-0.014,0.046l-0.013,0.048l-0.012,0.047l-0.01,0.049l-0.01,0.048l-0.008,0.05l-0.007,0.049l-0.005,0.05l-0.005,0.052l-0.003,0.051l-0.002,0.051l-0.001,0.053l0.001,0.053l0.002,0.051l0.003,0.051l0.005,0.052l0.005,0.05l0.007,0.049l0.008,0.05l0.01,0.048l0.01,0.049l0.012,0.047l0.013,0.048l0.014,0.046l0.015,0.047l0.016,0.046l0.017,0.045l0.019,0.045l0.019,0.044l0.02,0.044l0.022,0.043l0.022,0.043l0.024,0.042l0.025,0.041l0.025,0.041l0.027,0.041l0.027,0.039l0.029,0.04l0.029,0.038l0.031,0.038l0.03,0.036l0.033,0.037l0.033,0.035l0.033,0.034l0.035,0.034l0.036,0.033l0.035,0.032l0.037,0.032l0.038,0.03l0.038,0.029l0.04,0.029l0.039,0.028l0.041,0.026l0.04,0.025l0.041,0.025l0.043,0.024l0.043,0.022l0.043,0.022l0.044,0.02l0.045,0.02l0.044,0.018l0.045,0.017l0.046,0.016l0.046,0.015l0.048,0.014l0.047,0.013l0.047,0.012l0.049,0.01l0.048,0.01l0.049,0.008l0.05,0.007l0.051,0.005l0.051,0.005l0.051,0.003l0.051,0.002l0.053,0.001l0.053,-0.001l0.051,-0.002l0.051,-0.003l0.051,-0.005l0.051,-0.005l0.05,-0.007l0.049,-0.008l0.048,-0.01l0.049,-0.01l0.047,-0.012l0.047,-0.013l0.048,-0.014l0.046,-0.015l0.046,-0.016l0.045,-0.017l0.044,-0.018l0.045,-0.02l0.044,-0.02l0.043,-0.022l0.043,-0.022l0.043,-0.024l0.041,-0.025l0.04,-0.025l0.041,-0.026l0.039,-0.028l0.04,-0.029l0.038,-0.029l0.038,-0.03l0.037,-0.032l0.035,-0.032l0.036,-0.033l0.035,-0.034l0.033,-0.034l0.033,-0.035l0.033,-0.037l0.03,-0.036l0.031,-0.038l0.029,-0.038l0.029,-0.04l0.027,-0.039l0.027,-0.041l0.025,-0.041l0.025,-0.041l0.024,-0.042l0.022,-0.043l0.022,-0.043l0.02,-0.044l0.019,-0.044l0.019,-0.045l0.017,-0.045l0.016,-0.046l0.015,-0.047l0.014,-0.046l0.013,-0.048l0.012,-0.047l0.01,-0.049l0.01,-0.048l0.008,-0.05l0.007,-0.049l0.005,-0.05l0.005,-0.052l0.003,-0.051l0.002,-0.051l0.001,-0.053l-0.001,-0.053l-0.002,-0.051l-0.003,-0.051l-0.005,-0.052l-0.005,-0.05l-0.007,-0.049l-0.008,-0.05l-0.01,-0.048l-0.01,-0.049l-0.012,-0.047l-0.013,-0.048l-0.014,-0.046l-0.015,-0.047l-0.016,-0.046l-0.017,-0.045l-0.019,-0.045l-0.019,-0.044l-0.02,-0.044l-0.022,-0.043l-0.022,-0.043l-0.024,-0.042l-0.025,-0.041l-0.025,-0.041l-0.027,-0.041l-0.027,-0.039l-0.029,-0.04l-0.029,-0.038l-0.031,-0.038l-0.03,-0.036l-0.033,-0.037l-0.033,-0.035l-0.033,-0.034l-0.035,-0.034l-0.036,-0.033l-0.035,-0.032l-0.037,-0.032l-0.038,-0.03l-0.038,-0.029l-0.04,-0.029l-0.039,-0.028l-0.041,-0.026l-0.04,-0.025l-0.041,-0.025l-0.043,-0.024l-0.043,-0.022l-0.043,-0.022l-0.044,-0.02l-0.045,-0.02l-0.044,-0.018l-0.045,-0.017l-0.046,-0.016l-0.046,-0.015l-0.048,-0.014l-0.047,-0.013l-0.047,-0.012l-0.049,-0.01l-0.048,-0.01l-0.049,-0.008l-0.05,-0.007l-0.051,-0.005l-0.051,-0.005l-0.051,-0.003l-0.051,-0.002l-0.053,-0.001l-0.053,0.001Z" style="fill:#000;"/><circle cx="19.019" cy="11.5" r="2.5" style="fill:#000;"/><circle cx="5.019" cy="11.5" r="2.5" style="fill:#000;"/><path d="M15.991,15l0.05,0.001l0.049,0.001l0.05,0.004l0.049,0.004l0.05,0.005l0.049,0.007l0.048,0.008l0.049,0.009l0.048,0.01l0.048,0.012l0.047,0.012l0.047,0.014l0.047,0.015l0.046,0.016l0.046,0.017l0.046,0.018l0.045,0.019l0.044,0.021l0.044,0.021l0.044,0.023l0.043,0.023l0.042,0.025l0.042,0.026l0.042,0.027l0.04,0.027l0.04,0.029l0.04,0.03l0.038,0.031l0.038,0.032l0.037,0.033l0.037,0.034l0.036,0.034l0.034,0.036l0.034,0.037l0.033,0.037l0.032,0.038l0.031,0.038l0.03,0.04l0.029,0.04l0.027,0.04l0.027,0.042l0.026,0.042l0.025,0.042l0.023,0.043l0.023,0.044l0.021,0.044l0.021,0.044l0.019,0.045l0.018,0.046l0.017,0.046l0.016,0.046l0.015,0.047l0.014,0.047l0.012,0.047l0.012,0.048l0.01,0.048l0.009,0.049l0.008,0.048l0.007,0.049l0.005,0.05l0.004,0.049l0.004,0.049l0.001,0.05l0.001,0.05l0,3.991l-12,0l0,-4.009l0.001,-0.05l0.001,-0.049l0.003,-0.049l0.005,-0.049l0.005,-0.049l0.007,-0.048l0.008,-0.049l0.009,-0.048l0.01,-0.047l0.011,-0.048l0.012,-0.047l0.014,-0.046l0.015,-0.047l0.016,-0.046l0.016,-0.045l0.019,-0.045l0.019,-0.045l0.02,-0.044l0.021,-0.044l0.022,-0.043l0.024,-0.042l0.024,-0.042l0.026,-0.042l0.026,-0.041l0.028,-0.04l0.029,-0.04l0.029,-0.039l0.031,-0.038l0.031,-0.038l0.033,-0.036l0.033,-0.037l0.035,-0.035l0.035,-0.035l0.037,-0.033l0.036,-0.033l0.038,-0.031l0.038,-0.031l0.039,-0.029l0.04,-0.029l0.04,-0.028l0.041,-0.026l0.042,-0.026l0.042,-0.024l0.042,-0.024l0.043,-0.022l0.044,-0.021l0.044,-0.02l0.045,-0.019l0.045,-0.019l0.045,-0.016l0.046,-0.016l0.047,-0.015l0.046,-0.014l0.047,-0.012l0.048,-0.011l0.047,-0.01l0.048,-0.009l0.049,-0.008l0.048,-0.007l0.049,-0.005l0.049,-0.005l0.049,-0.003l0.049,-0.001l0.05,-0.001l8,0ZM8.004,17l-0.004,0l0,0.003l0,1.997l8,0l0,-1.979l0,-0.012l0,0l0,-0.001l0,0l0,0l0,-0.001l0,0l0,0l-0.001,-0.001l0,0l0,0l0,0l0,-0.001l0,0l0,0l-0.001,-0.001l0,0l0,-0.001l-0.001,0l0,0l0,0l-0.001,-0.001l0,0l-0.001,-0.001l0,0l-0.001,0l0,0l-0.001,-0.001l0,0l-0.001,0l0,0l-0.001,0l-0.014,0l-7.973,0Z" style="fill:#000;"/><path d="M4.945,14.995c0.061,0.003 0.061,0.003 0.122,0.007l-0.134,1.996c-0.044,-0.003 -0.087,-0.005 -0.131,-0.002c-0.033,0.002 -0.066,0.007 -0.098,0.017c-0.14,0.044 -0.23,0.18 -0.297,0.303c-0.015,0.026 -0.028,0.052 -0.041,0.079c-0.023,0.048 -0.043,0.096 -0.062,0.145c-0.023,0.059 -0.043,0.118 -0.062,0.178c-0.096,0.311 -0.149,0.635 -0.185,0.958c-0.048,0.438 -0.058,0.88 -0.057,1.321l-2,0.006c-0.001,-0.272 0.002,-0.543 0.014,-0.815c0.011,-0.244 0.029,-0.487 0.055,-0.73c0.019,-0.175 0.043,-0.351 0.073,-0.525c0.021,-0.121 0.044,-0.242 0.071,-0.362c0.163,-0.725 0.458,-1.456 1.019,-1.965c0.089,-0.081 0.183,-0.155 0.283,-0.221c0.144,-0.096 0.298,-0.175 0.459,-0.236c0.221,-0.084 0.451,-0.129 0.686,-0.149c0.095,-0.005 0.19,-0.007 0.285,-0.005Z" style="fill:#000;fill-rule:nonzero;"/><path d="M19.195,14.994c0.256,0.008 0.509,0.045 0.753,0.127c0.161,0.055 0.316,0.127 0.461,0.216c0.102,0.062 0.199,0.132 0.29,0.209c0.604,0.509 0.917,1.271 1.087,2.024c0.027,0.121 0.051,0.242 0.071,0.363c0.03,0.174 0.054,0.35 0.073,0.525c0.027,0.243 0.044,0.487 0.055,0.73c0.013,0.272 0.015,0.544 0.014,0.815l-2,-0.006c0.001,-0.149 0,-0.298 -0.003,-0.447c-0.003,-0.134 -0.008,-0.267 -0.015,-0.401c-0.01,-0.158 -0.022,-0.316 -0.039,-0.473c-0.015,-0.136 -0.033,-0.271 -0.056,-0.406c-0.015,-0.087 -0.032,-0.174 -0.051,-0.26c-0.057,-0.251 -0.131,-0.506 -0.262,-0.729c-0.058,-0.1 -0.135,-0.211 -0.246,-0.257c-0.082,-0.035 -0.173,-0.032 -0.26,-0.026l-0.135,-1.996c0.088,-0.006 0.175,-0.008 0.263,-0.008Z" style="fill:#000;fill-rule:nonzero;"/></g></svg>