<?xml version="1.0" encoding="UTF-8" standalone="no"?><!DOCTYPE svg PUBLIC "-//W3C//DTD SVG 1.1//EN" "http://www.w3.org/Graphics/SVG/1.1/DTD/svg11.dtd"><svg width="100%" height="100%" viewBox="0 0 24 24" version="1.1" xmlns="http://www.w3.org/2000/svg" xmlns:xlink="http://www.w3.org/1999/xlink" xml:space="preserve" style="fill-rule:evenodd;clip-rule:evenodd;stroke-linejoin:round;stroke-miterlimit:1.41421;"><g id="phone"><path d="M17.027,2c0.227,0.003 0.451,0.039 0.665,0.116c0.551,0.197 0.995,0.641 1.192,1.192c0.072,0.199 0.108,0.406 0.115,0.616c0.067,5.384 0.067,10.768 0,16.152c-0.007,0.21 -0.043,0.417 -0.115,0.616c-0.191,0.536 -0.616,0.971 -1.147,1.176c-0.212,0.082 -0.434,0.123 -0.661,0.131c-3.384,0.042 -6.768,0.042 -10.152,0c-0.21,-0.007 -0.417,-0.043 -0.616,-0.115c-0.536,-0.191 -0.971,-0.616 -1.176,-1.147c-0.082,-0.212 -0.123,-0.434 -0.131,-0.661c-0.067,-5.384 -0.067,-10.768 0,-16.152c0.007,-0.21 0.043,-0.417 0.115,-0.616c0.191,-0.536 0.616,-0.971 1.147,-1.176c0.212,-0.082 0.434,-0.123 0.661,-0.131c3.368,-0.042 6.735,-0.001 10.103,-0.001ZM17,18l-10,0l0,2l10,0l0,-2ZM7,7l0,9l10,0l0,-9l-10,0ZM17,5l0,-1c-3.333,0 -6.667,0 -10,0l0,1l10,0Z" style="fill:#000;"/></g></svg>