<?xml version="1.0" encoding="UTF-8" standalone="no"?><!DOCTYPE svg PUBLIC "-//W3C//DTD SVG 1.1//EN" "http://www.w3.org/Graphics/SVG/1.1/DTD/svg11.dtd"><svg width="100%" height="100%" viewBox="0 0 24 25" version="1.1" xmlns="http://www.w3.org/2000/svg" xmlns:xlink="http://www.w3.org/1999/xlink" xml:space="preserve" style="fill-rule:evenodd;clip-rule:evenodd;stroke-linejoin:round;stroke-miterlimit:1.41421;"><g id="piechart"><path d="M12,13l8.753,2.096l-0.024,0.095l-0.024,0.094l-0.025,0.094l-0.026,0.093l-0.027,0.093l-0.028,0.092l-0.029,0.092l-0.03,0.092l-0.031,0.091l-0.031,0.09l-0.033,0.09l-0.033,0.09l-0.035,0.089l-0.035,0.089l-0.036,0.088l-0.037,0.087l-0.038,0.087l-0.039,0.087l-0.04,0.086l-0.04,0.085l-0.041,0.085l-0.043,0.084l-0.043,0.084l-0.044,0.084l-0.044,0.082l-0.046,0.083l-0.046,0.081l-0.047,0.081l-0.048,0.081l-0.049,0.08l-0.049,0.079l-0.051,0.079l-0.051,0.078l-0.052,0.078l-0.052,0.077l-0.054,0.076l-0.054,0.076l-0.055,0.075l-0.055,0.074l-0.057,0.074l-0.057,0.074l-0.058,0.072l-0.058,0.072l-0.059,0.072l-0.06,0.07l-0.061,0.071l-0.061,0.069l-0.062,0.069l-0.063,0.068l-0.063,0.067l-0.064,0.067l-0.065,0.066l-0.065,0.065l-0.066,0.065l-0.067,0.064l-0.067,0.064l-0.068,0.062l-0.069,0.062l-0.069,0.061l-0.07,0.061l-0.07,0.059l-0.071,0.059l-0.072,0.059l-0.072,0.057l-0.073,0.057l-0.073,0.056l-0.074,0.055l-0.075,0.055l-0.075,0.054l-0.075,0.053l-0.077,0.052l-0.076,0.052l-0.078,0.05l-0.077,0.05l-0.079,0.049l-0.078,0.049l-0.08,0.047l-0.08,0.047l-0.08,0.046l-0.081,0.045l-0.081,0.044l-0.082,0.044l-0.082,0.043l-0.083,0.041l-0.083,0.041l-0.084,0.04l-0.084,0.04l-0.085,0.038l-0.085,0.038l-0.085,0.037l-0.086,0.035l-0.086,0.035l-0.087,0.035l-0.087,0.033l-0.088,0.032l-0.087,0.032l-0.089,0.03l-0.088,0.03l-0.09,0.029l-0.089,0.028l-0.09,0.026l-0.09,0.027l-0.091,0.025l-0.09,0.024l-0.092,0.023l-0.091,0.022l-0.092,0.022l-0.092,0.02l-0.093,0.02l-0.093,0.018l-0.093,0.018l-0.093,0.016l-0.094,0.016l-0.094,0.015l-0.095,0.013l-0.094,0.013l-0.095,0.012l-0.095,0.011l-0.096,0.009l-0.095,0.009l-0.096,0.008l-0.096,0.006l-0.097,0.006l-0.096,0.005l-0.097,0.003l-0.097,0.003l-0.098,0.001l-0.097,0.001l-0.116,-0.001l-0.116,-0.002l-0.116,-0.004l-0.115,-0.005l-0.115,-0.006l-0.114,-0.008l-0.114,-0.01l-0.114,-0.011l-0.113,-0.012l-0.113,-0.013l-0.112,-0.015l-0.112,-0.017l-0.111,-0.018l-0.111,-0.019l-0.111,-0.02l-0.11,-0.022l-0.109,-0.023l-0.109,-0.025l-0.109,-0.025l-0.108,-0.028l-0.108,-0.028l-0.107,-0.03l-0.106,-0.031l-0.106,-0.032l-0.105,-0.033l-0.105,-0.035l-0.105,-0.036l-0.103,-0.037l-0.103,-0.039l-0.103,-0.04l-0.102,-0.041l-0.101,-0.042l-0.1,-0.043l-0.1,-0.045l-0.1,-0.045l-0.098,-0.047l-0.098,-0.048l-0.098,-0.049l-0.096,-0.051l-0.096,-0.051l-0.096,-0.052l-0.094,-0.054l-0.094,-0.055l-0.093,-0.056l-0.093,-0.057l-0.091,-0.058l-0.091,-0.059l-0.091,-0.06l-0.089,-0.061l-0.089,-0.062l-0.087,-0.064l-0.087,-0.064l-0.087,-0.065l-0.085,-0.067l-0.085,-0.067l-0.083,-0.068l-0.083,-0.07l-0.082,-0.07l-0.082,-0.071l-0.08,-0.072l-0.08,-0.073l-0.078,-0.074l-0.078,-0.075l-0.077,-0.076l-0.076,-0.077l-0.075,-0.078l-0.074,-0.078l-0.073,-0.08l-0.072,-0.08l-0.071,-0.082l-0.07,-0.082l-0.07,-0.083l-0.068,-0.083l-0.067,-0.085l-0.067,-0.085l-0.065,-0.087l-0.064,-0.087l-0.064,-0.087l-0.062,-0.089l-0.061,-0.089l-0.06,-0.091l-0.059,-0.091l-0.058,-0.091l-0.057,-0.093l-0.056,-0.093l-0.055,-0.094l-0.054,-0.094l-0.052,-0.096l-0.051,-0.096l-0.051,-0.096l-0.049,-0.098l-0.048,-0.098l-0.047,-0.098l-0.045,-0.1l-0.045,-0.1l-0.043,-0.1l-0.042,-0.101l-0.041,-0.102l-0.04,-0.103l-0.039,-0.103l-0.037,-0.103l-0.036,-0.105l-0.035,-0.105l-0.033,-0.105l-0.032,-0.106l-0.031,-0.106l-0.03,-0.107l-0.028,-0.108l-0.028,-0.108l-0.025,-0.109l-0.025,-0.109l-0.023,-0.109l-0.022,-0.11l-0.02,-0.111l-0.019,-0.111l-0.018,-0.111l-0.017,-0.112l-0.015,-0.112l-0.013,-0.113l-0.012,-0.113l-0.011,-0.114l-0.01,-0.114l-0.008,-0.114l-0.006,-0.115l-0.005,-0.115l-0.004,-0.116l-0.002,-0.116l-0.001,-0.116l0.001,-0.116l0.002,-0.116l0.004,-0.116l0.005,-0.115l0.006,-0.115l0.008,-0.114l0.01,-0.115l0.01,-0.113l0.013,-0.113l0.013,-0.113l0.015,-0.113l0.017,-0.112l0.017,-0.111l0.02,-0.111l0.02,-0.111l0.022,-0.11l0.023,-0.109l0.024,-0.11l0.026,-0.108l0.027,-0.108l0.029,-0.108l0.029,-0.107l0.031,-0.106l0.033,-0.106l0.033,-0.106l0.035,-0.105l0.036,-0.104l0.037,-0.104l0.039,-0.103l0.039,-0.102l0.041,-0.102l0.042,-0.101l0.044,-0.101l0.044,-0.1l0.046,-0.099l0.046,-0.099l0.048,-0.098l0.05,-0.097l0.05,-0.097l0.051,-0.096l0.053,-0.095l0.053,-0.095l0.055,-0.094l0.056,-0.093l0.057,-0.092l0.058,-0.092l0.059,-0.091l0.06,-0.09l0.061,-0.089l0.062,-0.089l0.064,-0.088l0.064,-0.087l0.065,-0.086l0.067,-0.085l0.067,-0.085l0.068,-0.084l0.069,-0.083l0.071,-0.082l0.071,-0.081l0.072,-0.08l0.073,-0.08l0.074,-0.078l0.075,-0.078l0.076,-0.077l0.077,-0.076l0.078,-0.075l0.078,-0.074l0.08,-0.073l0.08,-0.072l0.081,-0.071l0.082,-0.071l0.083,-0.069l0.084,-0.068l0.085,-0.067l0.085,-0.067l0.086,-0.065l0.087,-0.064l0.088,-0.064l0.089,-0.062l0.089,-0.061l0.09,-0.06l0.091,-0.059l0.092,-0.058l0.092,-0.057l0.093,-0.056l0.094,-0.055l0.095,-0.053l0.095,-0.053l0.096,-0.051l0.097,-0.05l0.097,-0.05l0.098,-0.048l0.099,-0.046l0.099,-0.046l0.1,-0.044l0.101,-0.044l0.101,-0.042l0.102,-0.041l0.102,-0.039l0.103,-0.039l0.104,-0.037l0.104,-0.036l0.105,-0.035l0.106,-0.033l0.106,-0.033l0.106,-0.031l0.107,-0.029l0.108,-0.029l0.108,-0.027l0.108,-0.026l0.11,-0.024l0.109,-0.023l0.11,-0.022l0.111,-0.02l0.111,-0.02l0.111,-0.017l0.112,-0.017l0.113,-0.015l0.113,-0.013l0.113,-0.013l0.113,-0.01l0.115,-0.01l0.114,-0.008l0.115,-0.006l0.115,-0.005l0.116,-0.004l0.116,-0.002l0.116,-0.001l0,9ZM9.918,6.314l-0.083,0.027l-0.081,0.027l-0.08,0.027l-0.081,0.029l-0.08,0.03l-0.079,0.031l-0.079,0.032l-0.079,0.032l-0.078,0.034l-0.078,0.035l-0.077,0.035l-0.077,0.037l-0.076,0.037l-0.075,0.037l-0.075,0.04l-0.076,0.04l-0.074,0.041l-0.072,0.041l-0.074,0.043l-0.072,0.043l-0.072,0.045l-0.072,0.045l-0.07,0.045l-0.07,0.047l-0.07,0.048l-0.069,0.049l-0.069,0.049l-0.067,0.049l-0.067,0.051l-0.067,0.052l-0.066,0.053l-0.065,0.053l-0.064,0.054l-0.065,0.055l-0.062,0.055l-0.063,0.056l-0.062,0.057l-0.061,0.058l-0.061,0.058l-0.06,0.059l-0.059,0.06l-0.059,0.061l-0.057,0.061l-0.057,0.062l-0.056,0.062l-0.055,0.064l-0.055,0.064l-0.055,0.065l-0.053,0.065l-0.052,0.065l-0.051,0.067l-0.051,0.067l-0.051,0.068l-0.048,0.068l-0.049,0.069l-0.048,0.07l-0.046,0.07l-0.046,0.071l-0.046,0.071l-0.044,0.072l-0.043,0.072l-0.043,0.073l-0.042,0.074l-0.04,0.074l-0.04,0.074l-0.039,0.076l-0.038,0.075l-0.038,0.076l-0.036,0.077l-0.036,0.077l-0.034,0.078l-0.034,0.078l-0.032,0.079l-0.032,0.079l-0.031,0.079l-0.03,0.08l-0.029,0.081l-0.028,0.08l-0.026,0.082l-0.027,0.082l-0.025,0.082l-0.024,0.082l-0.023,0.084l-0.022,0.083l-0.021,0.084l-0.02,0.084l-0.019,0.085l-0.018,0.085l-0.017,0.085l-0.016,0.087l-0.014,0.086l-0.014,0.086l-0.013,0.087l-0.012,0.088l-0.01,0.088l-0.01,0.088l-0.008,0.088l-0.007,0.089l-0.007,0.09l-0.005,0.089l-0.004,0.09l-0.003,0.09l-0.001,0.091l-0.001,0.091l0.001,0.091l0.001,0.09l0.003,0.091l0.004,0.089l0.005,0.09l0.007,0.089l0.007,0.089l0.008,0.088l0.01,0.088l0.01,0.088l0.012,0.087l0.013,0.087l0.014,0.087l0.015,0.086l0.015,0.086l0.017,0.085l0.018,0.086l0.019,0.084l0.02,0.084l0.021,0.084l0.023,0.084l0.022,0.083l0.024,0.082l0.026,0.083l0.026,0.081l0.027,0.082l0.027,0.081l0.029,0.08l0.03,0.08l0.031,0.079l0.032,0.079l0.033,0.079l0.033,0.078l0.035,0.078l0.035,0.077l0.037,0.077l0.037,0.076l0.038,0.076l0.039,0.075l0.04,0.074l0.041,0.075l0.042,0.073l0.042,0.073l0.044,0.072l0.044,0.072l0.045,0.072l0.046,0.071l0.047,0.07l0.048,0.069l0.048,0.069l0.05,0.069l0.049,0.067l0.051,0.068l0.052,0.066l0.052,0.066l0.053,0.065l0.055,0.065l0.055,0.064l0.055,0.063l0.056,0.063l0.057,0.062l0.058,0.061l0.059,0.061l0.058,0.059l0.06,0.059l0.061,0.059l0.061,0.058l0.062,0.057l0.063,0.056l0.063,0.056l0.064,0.054l0.065,0.054l0.065,0.054l0.066,0.052l0.066,0.052l0.068,0.05l0.067,0.051l0.069,0.049l0.069,0.049l0.069,0.047l0.07,0.046l0.071,0.047l0.072,0.045l0.072,0.044l0.073,0.044l0.072,0.042l0.074,0.042l0.074,0.041l0.074,0.04l0.075,0.039l0.076,0.038l0.076,0.037l0.077,0.037l0.077,0.035l0.077,0.035l0.079,0.034l0.078,0.032l0.079,0.032l0.08,0.031l0.081,0.03l0.08,0.029l0.08,0.027l0.081,0.027l0.083,0.027l0.081,0.024l0.083,0.024l0.084,0.024l0.083,0.022l0.083,0.021l0.085,0.02l0.085,0.019l0.085,0.018l0.085,0.017l0.086,0.016l0.086,0.014l0.086,0.014l0.087,0.013l0.088,0.012l0.088,0.01l0.088,0.01l0.088,0.008l0.089,0.008l0.089,0.006l0.089,0.005l0.09,0.004l0.091,0.003l0.09,0.001l0.091,0.001l0.077,0l0.075,-0.002l0.075,-0.002l0.077,-0.003l0.074,-0.003l0.075,-0.005l0.075,-0.005l0.075,-0.006l0.074,-0.007l0.074,-0.007l0.075,-0.009l0.073,-0.009l0.074,-0.01l0.073,-0.01l0.073,-0.011l0.074,-0.013l0.072,-0.012l0.072,-0.014l0.073,-0.015l0.071,-0.015l0.072,-0.015l0.071,-0.017l0.072,-0.018l0.071,-0.018l0.069,-0.018l0.071,-0.02l0.07,-0.02l0.07,-0.021l0.07,-0.022l0.068,-0.022l0.069,-0.023l0.069,-0.024l0.069,-0.025l0.068,-0.025l0.067,-0.025l0.068,-0.027l0.067,-0.027l0.066,-0.028l0.067,-0.028l0.067,-0.03l0.065,-0.03l0.064,-0.03l0.067,-0.032l0.064,-0.031l0.064,-0.033l0.065,-0.033l0.063,-0.034l0.063,-0.034l0.063,-0.035l0.063,-0.036l0.062,-0.037l0.062,-0.037l0.061,-0.037l0.061,-0.038l0.06,-0.039l0.061,-0.04l0.06,-0.04l0.059,-0.04l0.059,-0.042l0.058,-0.042l0.058,-0.042l0.058,-0.043l0.057,-0.044l0.056,-0.044l0.056,-0.045l0.056,-0.045l0.055,-0.046l0.056,-0.047l0.054,-0.047l0.053,-0.047l0.054,-0.049l0.053,-0.049l0.052,-0.048l0.052,-0.051l0.052,-0.05l0.05,-0.05l0.05,-0.052l0.051,-0.052l0.049,-0.052l0.048,-0.053l0.049,-0.054l0.048,-0.054l0.047,-0.054l0.046,-0.056l0.046,-0.055l0.046,-0.056l0.045,-0.057l0.044,-0.056l0.044,-0.058l0.043,-0.058l0.043,-0.059l0.042,-0.059l0.042,-0.059l0.04,-0.059l0.041,-0.06l0.039,-0.062l0.04,-0.061l0.038,-0.061l0.038,-0.062l0.037,-0.063l0.025,-0.042l-8.059,-1.93l0,-8.289l-0.082,0.025Z" style="fill:#000;"/><path d="M14.339,3.1l0.104,0.016l0.103,0.018l0.103,0.018l0.103,0.02l0.101,0.021l0.102,0.022l0.101,0.023l0.1,0.024l0.101,0.025l0.099,0.026l0.099,0.028l0.099,0.028l0.098,0.03l0.098,0.03l0.097,0.032l0.096,0.033l0.096,0.034l0.096,0.034l0.095,0.036l0.094,0.037l0.094,0.038l0.094,0.039l0.093,0.04l0.092,0.041l0.091,0.042l0.092,0.043l0.09,0.043l0.09,0.045l0.089,0.046l0.089,0.047l0.088,0.047l0.088,0.049l0.087,0.05l0.086,0.05l0.085,0.051l0.085,0.053l0.085,0.053l0.083,0.054l0.083,0.055l0.083,0.056l0.081,0.057l0.081,0.057l0.081,0.059l0.079,0.059l0.079,0.06l0.078,0.061l0.078,0.062l0.077,0.063l0.076,0.063l0.075,0.065l0.075,0.065l0.074,0.066l0.073,0.066l0.072,0.068l0.072,0.068l0.071,0.069l0.07,0.07l0.069,0.07l0.069,0.072l0.067,0.072l0.067,0.072l0.066,0.074l0.066,0.074l0.064,0.075l0.064,0.075l0.063,0.077l0.062,0.077l0.061,0.077l0.06,0.079l0.06,0.079l0.058,0.079l0.058,0.081l0.057,0.08l0.056,0.082l0.055,0.082l0.054,0.083l0.054,0.084l0.052,0.084l0.052,0.084l0.05,0.086l0.05,0.085l0.049,0.087l0.048,0.087l0.047,0.087l0.046,0.089l0.045,0.088l0.044,0.09l0.043,0.089l0.042,0.091l0.041,0.09l0.04,0.092l0.039,0.092l0.038,0.092l0.037,0.093l0.037,0.093l0.035,0.094l0.034,0.094l0.033,0.095l0.032,0.095l0.031,0.096l0.03,0.096l0.029,0.097l0.028,0.097l0.027,0.097l0.025,0.098l0.025,0.098l0.024,0.099l0.022,0.099l0.021,0.099l0.021,0.1l0.019,0.1l0.018,0.101l0.017,0.101l0.016,0.101l0.014,0.101l0.014,0.102l0.012,0.103l0.012,0.102l0.01,0.103l0.009,0.103l0.007,0.104l0.007,0.104l0.005,0.104l0.005,0.104l0.003,0.105l0.001,0.105l0.001,0.105l-0.001,0.155l-0.004,0.155l-0.007,0.155l-0.009,0.154l-0.012,0.155l-0.015,0.154l-0.017,0.154l-0.02,0.153l-8.915,-1.235l1.235,-8.915l0.104,0.015ZM15.256,10.293l4.664,0.647l-0.01,-0.066l-0.014,-0.079l-0.014,-0.078l-0.014,-0.078l-0.016,-0.077l-0.017,-0.078l-0.017,-0.076l-0.019,-0.077l-0.019,-0.076l-0.02,-0.076l-0.02,-0.076l-0.022,-0.075l-0.023,-0.076l-0.023,-0.074l-0.024,-0.074l-0.025,-0.074l-0.026,-0.074l-0.026,-0.073l-0.027,-0.073l-0.028,-0.072l-0.029,-0.073l-0.03,-0.071l-0.03,-0.072l-0.032,-0.071l-0.032,-0.07l-0.032,-0.07l-0.034,-0.07l-0.034,-0.07l-0.035,-0.068l-0.036,-0.069l-0.036,-0.068l-0.037,-0.068l-0.038,-0.067l-0.039,-0.066l-0.04,-0.067l-0.04,-0.066l-0.04,-0.065l-0.042,-0.066l-0.042,-0.064l-0.043,-0.064l-0.044,-0.064l-0.044,-0.063l-0.045,-0.062l-0.046,-0.062l-0.046,-0.062l-0.047,-0.06l-0.047,-0.061l-0.049,-0.06l-0.049,-0.059l-0.049,-0.059l-0.05,-0.058l-0.051,-0.058l-0.052,-0.058l-0.052,-0.056l-0.053,-0.056l-0.053,-0.056l-0.054,-0.054l-0.054,-0.054l-0.056,-0.055l-0.056,-0.053l-0.056,-0.052l-0.057,-0.052l-0.058,-0.052l-0.057,-0.05l-0.059,-0.05l-0.059,-0.049l-0.06,-0.049l-0.06,-0.048l-0.061,-0.048l-0.062,-0.047l-0.062,-0.046l-0.062,-0.045l-0.063,-0.045l-0.064,-0.044l-0.064,-0.044l-0.064,-0.043l-0.065,-0.042l-0.065,-0.041l-0.066,-0.04l-0.067,-0.04l-0.068,-0.04l-0.067,-0.038l-0.068,-0.038l-0.068,-0.037l-0.069,-0.036l-0.069,-0.036l-0.07,-0.035l-0.071,-0.034l-0.07,-0.033l-0.045,-0.021l-0.646,4.665Z" style="fill:#000;"/></g></svg>