<?xml version="1.0" encoding="UTF-8" standalone="no"?><!DOCTYPE svg PUBLIC "-//W3C//DTD SVG 1.1//EN" "http://www.w3.org/Graphics/SVG/1.1/DTD/svg11.dtd"><svg width="100%" height="100%" viewBox="0 0 24 24" version="1.1" xmlns="http://www.w3.org/2000/svg" xmlns:xlink="http://www.w3.org/1999/xlink" xml:space="preserve" style="fill-rule:evenodd;clip-rule:evenodd;stroke-linejoin:round;stroke-miterlimit:1.41421;"><g id="print"><path d="M10.964,1.985l1.017,0.002l1.017,0.004l1.017,0.004l1.017,0.004l1.017,0.001l0.08,0.002l0.079,0.006l0.079,0.008l0.04,0.005l0.039,0.006l0.039,0.006l0.039,0.008l0.039,0.008l0.039,0.009l0.038,0.01l0.039,0.011l0.038,0.011l0.038,0.013l0.051,0.018l0.052,0.02l0.05,0.021l0.05,0.022l0.049,0.024l0.048,0.026l0.047,0.026l0.047,0.028l0.046,0.03l0.045,0.03l0.044,0.032l0.043,0.033l0.043,0.034l0.041,0.035l0.04,0.036l0.04,0.038l0.038,0.038l0.037,0.039l0.036,0.041l0.036,0.041l0.033,0.043l0.033,0.043l0.032,0.044l0.03,0.046l0.029,0.046l0.028,0.046l0.027,0.048l0.025,0.048l0.024,0.05l0.022,0.049l0.021,0.051l0.02,0.051l0.014,0.041l0.013,0.041l0.013,0.041l0.011,0.041l0.011,0.041l0.009,0.042l0.009,0.042l0.007,0.042l0.007,0.042l0.006,0.042l0.005,0.042l0.004,0.043l0.004,0.042l0.002,0.043l0.002,0.043l0.001,0.043l0,2.027l1.043,0.01l1.044,0.013l0.079,0.004l0.08,0.007l0.079,0.01l0.039,0.006l0.04,0.007l0.039,0.008l0.038,0.008l0.039,0.01l0.039,0.01l0.038,0.011l0.038,0.011l0.038,0.013l0.038,0.013l0.049,0.019l0.048,0.02l0.048,0.021l0.046,0.022l0.047,0.024l0.045,0.025l0.045,0.026l0.044,0.027l0.043,0.028l0.043,0.03l0.042,0.03l0.041,0.032l0.04,0.032l0.039,0.034l0.038,0.035l0.038,0.035l0.036,0.037l0.036,0.037l0.035,0.039l0.033,0.039l0.033,0.04l0.031,0.041l0.031,0.042l0.029,0.043l0.028,0.043l0.027,0.044l0.026,0.045l0.025,0.046l0.024,0.046l0.022,0.047l0.021,0.048l0.02,0.048l0.015,0.04l0.014,0.041l0.014,0.041l0.012,0.041l0.012,0.041l0.011,0.041l0.009,0.042l0.009,0.042l0.008,0.042l0.007,0.042l0.006,0.043l0.005,0.042l0.005,0.043l0.003,0.042l0.003,0.043l0.002,0.043l0.006,0.511l0.006,0.511l0.004,0.511l0.004,0.511l0.003,0.51l0.002,0.511l0.001,0.511l0,0.511l0,0.511l-0.001,0.511l-0.002,0.511l-0.003,0.51l-0.004,0.511l-0.004,0.511l-0.006,0.511l-0.006,0.511l-0.002,0.043l-0.003,0.043l-0.003,0.042l-0.005,0.043l-0.005,0.042l-0.006,0.043l-0.007,0.042l-0.008,0.042l-0.009,0.042l-0.009,0.042l-0.011,0.041l-0.012,0.041l-0.012,0.041l-0.014,0.041l-0.014,0.041l-0.015,0.04l-0.02,0.048l-0.021,0.048l-0.022,0.047l-0.024,0.046l-0.025,0.046l-0.026,0.045l-0.027,0.044l-0.028,0.043l-0.029,0.043l-0.031,0.042l-0.031,0.041l-0.033,0.04l-0.033,0.039l-0.035,0.039l-0.036,0.037l-0.036,0.037l-0.038,0.035l-0.038,0.035l-0.039,0.034l-0.04,0.032l-0.041,0.032l-0.042,0.03l-0.043,0.03l-0.043,0.028l-0.044,0.027l-0.045,0.026l-0.045,0.025l-0.047,0.024l-0.046,0.022l-0.048,0.021l-0.048,0.02l-0.049,0.019l-0.038,0.013l-0.038,0.013l-0.038,0.011l-0.038,0.011l-0.039,0.01l-0.039,0.01l-0.038,0.008l-0.039,0.008l-0.04,0.007l-0.039,0.006l-0.079,0.01l-0.08,0.007l-0.079,0.004l-1.044,0.013l-1.043,0.01l0,1.945l-0.001,0.052l-0.002,0.052l-0.003,0.052l-0.004,0.052l-0.006,0.051l-0.007,0.05l-0.009,0.051l-0.009,0.05l-0.011,0.049l-0.012,0.049l-0.013,0.048l-0.014,0.048l-0.016,0.048l-0.016,0.047l-0.018,0.046l-0.019,0.046l-0.02,0.046l-0.02,0.044l-0.022,0.044l-0.023,0.044l-0.024,0.043l-0.025,0.042l-0.026,0.042l-0.027,0.041l-0.028,0.04l-0.029,0.039l-0.03,0.039l-0.03,0.038l-0.032,0.037l-0.032,0.037l-0.033,0.036l-0.035,0.034l-0.034,0.035l-0.036,0.033l-0.037,0.032l-0.037,0.032l-0.038,0.03l-0.039,0.03l-0.039,0.029l-0.04,0.028l-0.041,0.027l-0.042,0.026l-0.042,0.025l-0.043,0.024l-0.044,0.023l-0.044,0.021l-0.044,0.021l-0.046,0.02l-0.046,0.019l-0.046,0.018l-0.047,0.016l-0.048,0.016l-0.048,0.014l-0.048,0.013l-0.049,0.012l-0.049,0.011l-0.05,0.009l-0.051,0.009l-0.05,0.007l-0.051,0.006l-0.052,0.004l-0.052,0.003l-0.052,0.002l-0.052,0.001l-7.934,0l-0.052,-0.001l-0.052,-0.002l-0.052,-0.003l-0.052,-0.004l-0.051,-0.006l-0.05,-0.007l-0.051,-0.009l-0.05,-0.009l-0.049,-0.011l-0.049,-0.012l-0.048,-0.013l-0.048,-0.014l-0.048,-0.016l-0.047,-0.016l-0.046,-0.018l-0.046,-0.019l-0.046,-0.02l-0.044,-0.021l-0.044,-0.021l-0.044,-0.023l-0.043,-0.024l-0.042,-0.025l-0.042,-0.026l-0.041,-0.027l-0.04,-0.028l-0.039,-0.029l-0.039,-0.03l-0.038,-0.03l-0.037,-0.032l-0.037,-0.032l-0.036,-0.033l-0.034,-0.035l-0.035,-0.034l-0.033,-0.036l-0.032,-0.037l-0.032,-0.037l-0.03,-0.038l-0.03,-0.039l-0.029,-0.039l-0.028,-0.04l-0.027,-0.041l-0.026,-0.042l-0.025,-0.042l-0.024,-0.043l-0.023,-0.044l-0.022,-0.044l-0.02,-0.044l-0.02,-0.046l-0.019,-0.046l-0.018,-0.046l-0.016,-0.047l-0.016,-0.048l-0.014,-0.048l-0.013,-0.048l-0.012,-0.049l-0.011,-0.049l-0.009,-0.05l-0.009,-0.051l-0.007,-0.05l-0.006,-0.051l-0.004,-0.052l-0.003,-0.052l-0.002,-0.052l-0.001,-0.052l0,-1.969l-0.254,0l-0.262,0l-0.533,0.003l-0.267,0.001l-0.264,0l-0.257,0l-0.25,-0.003l-0.079,-0.004l-0.08,-0.007l-0.079,-0.01l-0.039,-0.006l-0.04,-0.007l-0.039,-0.008l-0.038,-0.008l-0.039,-0.01l-0.039,-0.01l-0.038,-0.011l-0.038,-0.011l-0.038,-0.013l-0.038,-0.013l-0.049,-0.019l-0.048,-0.02l-0.048,-0.021l-0.046,-0.022l-0.047,-0.024l-0.045,-0.025l-0.045,-0.026l-0.044,-0.027l-0.043,-0.028l-0.043,-0.03l-0.042,-0.03l-0.041,-0.032l-0.04,-0.032l-0.039,-0.034l-0.038,-0.035l-0.038,-0.035l-0.036,-0.037l-0.036,-0.037l-0.035,-0.039l-0.033,-0.039l-0.033,-0.04l-0.031,-0.041l-0.031,-0.042l-0.029,-0.043l-0.028,-0.043l-0.027,-0.044l-0.026,-0.045l-0.025,-0.046l-0.024,-0.046l-0.022,-0.047l-0.021,-0.048l-0.02,-0.048l-0.015,-0.04l-0.014,-0.041l-0.014,-0.041l-0.012,-0.041l-0.012,-0.041l-0.011,-0.041l-0.009,-0.042l-0.009,-0.042l-0.008,-0.042l-0.007,-0.042l-0.006,-0.043l-0.005,-0.042l-0.005,-0.043l-0.003,-0.042l-0.003,-0.043l-0.002,-0.043l-0.006,-0.511l-0.006,-0.511l-0.004,-0.511l-0.004,-0.511l-0.003,-0.51l-0.002,-0.511l-0.001,-0.511l0,-0.511l0,-0.511l0.001,-0.511l0.002,-0.511l0.003,-0.51l0.004,-0.511l0.004,-0.511l0.006,-0.511l0.006,-0.511l0.002,-0.043l0.003,-0.043l0.003,-0.042l0.005,-0.043l0.005,-0.042l0.006,-0.043l0.007,-0.042l0.008,-0.042l0.009,-0.042l0.009,-0.042l0.011,-0.041l0.012,-0.041l0.012,-0.041l0.014,-0.041l0.014,-0.041l0.015,-0.04l0.02,-0.048l0.021,-0.048l0.022,-0.047l0.024,-0.046l0.025,-0.046l0.026,-0.045l0.027,-0.044l0.028,-0.043l0.029,-0.043l0.031,-0.042l0.031,-0.041l0.033,-0.04l0.033,-0.039l0.035,-0.039l0.036,-0.037l0.036,-0.037l0.038,-0.035l0.038,-0.035l0.039,-0.034l0.04,-0.032l0.041,-0.032l0.042,-0.03l0.043,-0.03l0.043,-0.028l0.044,-0.027l0.045,-0.026l0.045,-0.025l0.047,-0.024l0.046,-0.022l0.048,-0.021l0.048,-0.02l0.049,-0.019l0.038,-0.013l0.038,-0.013l0.038,-0.011l0.038,-0.011l0.039,-0.01l0.039,-0.01l0.038,-0.008l0.039,-0.008l0.04,-0.007l0.039,-0.006l0.079,-0.01l0.08,-0.007l0.079,-0.004l1.041,-0.013l1.04,-0.01l-0.001,-0.516l0,-0.517l0.003,-0.516l0.002,-0.258l0.003,-0.258l0.002,-0.043l0.003,-0.043l0.003,-0.043l0.005,-0.042l0.005,-0.043l0.006,-0.042l0.007,-0.042l0.008,-0.042l0.009,-0.042l0.009,-0.042l0.011,-0.041l0.012,-0.042l0.012,-0.041l0.013,-0.04l0.015,-0.041l0.015,-0.04l0.02,-0.048l0.021,-0.048l0.022,-0.047l0.024,-0.046l0.025,-0.046l0.026,-0.045l0.027,-0.044l0.028,-0.043l0.029,-0.043l0.031,-0.042l0.031,-0.041l0.033,-0.04l0.033,-0.039l0.035,-0.039l0.035,-0.037l0.037,-0.037l0.037,-0.036l0.039,-0.034l0.039,-0.034l0.04,-0.032l0.041,-0.032l0.042,-0.03l0.042,-0.03l0.044,-0.028l0.044,-0.027l0.045,-0.026l0.045,-0.025l0.046,-0.024l0.047,-0.022l0.048,-0.021l0.048,-0.02l0.049,-0.019l0.037,-0.013l0.038,-0.013l0.039,-0.011l0.038,-0.011l0.039,-0.01l0.038,-0.01l0.039,-0.008l0.039,-0.008l0.039,-0.007l0.04,-0.006l0.079,-0.01l0.079,-0.007l0.08,-0.004l0.509,-0.006l0.508,-0.004l0.509,-0.003l0.508,-0.002l0.509,-0.001l0.508,0ZM8,13l0,6.954l0,0.019l0.003,0.008l0.007,0.01l0.009,0.006l0.006,0.002l0.006,0.001l0.014,0l7.91,0l0.014,0l0.001,0l0.002,0l0.001,0l0.002,-0.001l0,0l0.001,0l0,0l0.001,0l0.001,-0.001l0.001,0l0.001,0l0.001,-0.001l0,0l0.001,-0.001l0.001,0l0.001,-0.001l0.001,0l0,-0.001l0.001,0l0.001,-0.001l0.001,-0.001l0.001,-0.001l0.001,0l0,-0.001l0.001,-0.001l0,0l0.001,-0.001l0.001,-0.001l0,0l0.002,-0.002l0,-0.001l0,0l0.001,-0.001l0,-0.001l0.001,0l0,-0.001l0,0l0.001,-0.001l0,-0.001l0,-0.001l0,0l0.001,0l0,-0.001l0,-0.001l0,0l0,0l0,-0.001l0,-0.001l0,0l0.001,-0.001l0,-0.002l0,-0.001l0,-0.001l0,-0.015l0,-6.954l-8,0ZM4,8l0,8l2,0l0,-5l12,0l0,5l2,0l0,-8l-16,0ZM8,4l0,1.962l1,-0.005l1,-0.004l1,-0.003l1,-0.001l1,0.001l1,0.003l1,0.004l1,0.005l0,-1.962l-8,0Z" style="fill:#000;"/><rect x="9" y="14" width="6" height="2" style="fill:#000;fill-rule:nonzero;"/><rect x="9" y="17" width="6" height="2" style="fill:#000;fill-rule:nonzero;"/></g></svg>