<?xml version="1.0" encoding="UTF-8" standalone="no"?><!DOCTYPE svg PUBLIC "-//W3C//DTD SVG 1.1//EN" "http://www.w3.org/Graphics/SVG/1.1/DTD/svg11.dtd"><svg width="100%" height="100%" viewBox="0 0 24 24" version="1.1" xmlns="http://www.w3.org/2000/svg" xmlns:xlink="http://www.w3.org/1999/xlink" xml:space="preserve" style="fill-rule:evenodd;clip-rule:evenodd;stroke-linejoin:round;stroke-miterlimit:1.41421;"><g id="question"><path d="M11.022,14.978c0.01,-0.571 0.081,-1.481 0.21,-1.812c0.13,-0.331 0.395,-0.698 0.795,-1.102l1.021,-0.971c0.19,-0.586 0.4,-0.936 0.4,-1.459c0,-0.504 0.003,-0.737 -0.283,-1.023c-0.286,-0.285 -0.585,-0.48 -1.13,-0.48c-0.53,0 -0.66,0 -0.916,0.325c-0.129,0.27 -0.274,1.095 -0.274,1.531l-1.86,-0.009c0.01,-0.777 0.15,-1.939 0.739,-2.417c0.59,-0.477 1.358,-0.716 2.303,-0.716c0.982,0 1.748,0.244 2.296,0.731c0.548,0.487 0.822,1.155 0.822,2.005c0,0.84 -0.421,1.667 -1.263,2.483l-0.849,0.778c-0.379,0.389 -0.182,1.438 -0.182,2.168l-1.829,-0.032Z" style="fill:#000;fill-rule:nonzero;"/><rect x="11" y="16" width="2" height="2" style="fill:#000;"/></g></svg>