<?xml version="1.0" encoding="UTF-8" standalone="no"?><!DOCTYPE svg PUBLIC "-//W3C//DTD SVG 1.1//EN" "http://www.w3.org/Graphics/SVG/1.1/DTD/svg11.dtd"><svg width="100%" height="100%" viewBox="0 0 24 24" version="1.1" xmlns="http://www.w3.org/2000/svg" xmlns:xlink="http://www.w3.org/1999/xlink" xml:space="preserve" style="fill-rule:evenodd;clip-rule:evenodd;stroke-linejoin:round;stroke-miterlimit:1.41421;"><g id="read"><path d="M7.59,8.001c0.149,0.006 0.296,0.017 0.443,0.039c0.369,0.057 0.728,0.173 1.06,0.343c0.651,0.334 1.19,0.873 1.524,1.524c0.157,0.306 0.268,0.635 0.328,0.974c0.068,0.379 0.073,0.77 0.015,1.152c-0.052,0.341 -0.156,0.673 -0.305,0.984c-0.183,0.38 -0.436,0.725 -0.741,1.016c-0.305,0.291 -0.663,0.527 -1.052,0.692c-0.43,0.182 -0.895,0.275 -1.362,0.275c-0.467,0 -0.932,-0.093 -1.362,-0.275c-0.389,-0.165 -0.747,-0.401 -1.052,-0.692c-0.305,-0.291 -0.558,-0.636 -0.741,-1.016c-0.149,-0.311 -0.253,-0.643 -0.305,-0.984c-0.058,-0.382 -0.053,-0.773 0.015,-1.152c0.06,-0.339 0.171,-0.668 0.328,-0.974c0.334,-0.651 0.873,-1.19 1.524,-1.524c0.332,-0.17 0.691,-0.286 1.06,-0.343c0.147,-0.022 0.294,-0.033 0.443,-0.039c0.09,-0.001 0.09,-0.001 0.18,0ZM7.46,10.001c-0.224,0.008 -0.441,0.06 -0.641,0.163c-0.162,0.082 -0.307,0.194 -0.429,0.328c-0.122,0.135 -0.22,0.291 -0.287,0.46c-0.049,0.125 -0.081,0.258 -0.095,0.393c-0.019,0.189 -0.003,0.383 0.049,0.566c0.119,0.421 0.429,0.777 0.827,0.957c0.182,0.082 0.378,0.126 0.577,0.131c0.2,0.006 0.401,-0.029 0.587,-0.102c0.169,-0.067 0.325,-0.165 0.46,-0.287c0.134,-0.122 0.246,-0.268 0.329,-0.43c0.067,-0.129 0.114,-0.269 0.139,-0.413c0.034,-0.188 0.032,-0.383 -0.007,-0.571c-0.085,-0.418 -0.356,-0.786 -0.725,-0.998c-0.193,-0.111 -0.406,-0.174 -0.626,-0.193c-0.053,-0.004 -0.105,-0.005 -0.158,-0.004Z" style="fill:#000;fill-rule:nonzero;"/><path d="M16.59,8.001c0.149,0.006 0.296,0.017 0.443,0.039c0.369,0.057 0.728,0.173 1.06,0.343c0.651,0.334 1.19,0.873 1.524,1.524c0.157,0.306 0.268,0.635 0.328,0.974c0.068,0.379 0.073,0.77 0.015,1.152c-0.052,0.341 -0.156,0.673 -0.305,0.984c-0.183,0.38 -0.436,0.725 -0.741,1.016c-0.305,0.291 -0.663,0.527 -1.052,0.692c-0.43,0.182 -0.895,0.275 -1.362,0.275c-0.467,0 -0.932,-0.093 -1.362,-0.275c-0.389,-0.165 -0.747,-0.401 -1.052,-0.692c-0.305,-0.291 -0.558,-0.636 -0.741,-1.016c-0.149,-0.311 -0.253,-0.643 -0.305,-0.984c-0.058,-0.382 -0.053,-0.773 0.015,-1.152c0.06,-0.339 0.171,-0.668 0.328,-0.974c0.334,-0.651 0.873,-1.19 1.524,-1.524c0.332,-0.17 0.691,-0.286 1.06,-0.343c0.147,-0.022 0.294,-0.033 0.443,-0.039c0.09,-0.001 0.09,-0.001 0.18,0ZM16.46,10.001c-0.224,0.008 -0.441,0.06 -0.641,0.162c-0.367,0.188 -0.649,0.529 -0.762,0.926c-0.056,0.196 -0.07,0.403 -0.045,0.604c0.019,0.146 0.059,0.289 0.12,0.423c0.075,0.165 0.18,0.316 0.308,0.444c0.128,0.128 0.279,0.234 0.444,0.308c0.182,0.082 0.378,0.126 0.577,0.131c0.2,0.006 0.401,-0.029 0.587,-0.102c0.169,-0.067 0.325,-0.165 0.46,-0.287c0.134,-0.122 0.246,-0.268 0.329,-0.43c0.067,-0.129 0.114,-0.269 0.139,-0.413c0.034,-0.188 0.032,-0.383 -0.007,-0.571c-0.085,-0.418 -0.356,-0.786 -0.725,-0.998c-0.193,-0.111 -0.406,-0.174 -0.626,-0.193c-0.053,-0.004 -0.105,-0.005 -0.158,-0.004Z" style="fill:#000;fill-rule:nonzero;"/><path d="M12.1,9.001c0.331,0.009 0.66,0.041 0.983,0.12c0.515,0.126 1.008,0.371 1.378,0.757c0.105,0.11 0.2,0.23 0.281,0.359c0.099,0.158 0.178,0.33 0.226,0.51l-1.936,0.506c0.004,0.013 0.004,0.015 0.009,0.029l0.007,0.019c0.001,0.001 0.003,0.005 0.002,0.004c-0.002,-0.003 -0.002,-0.003 -0.003,-0.006c-0.014,-0.021 -0.031,-0.039 -0.049,-0.055c-0.128,-0.113 -0.305,-0.165 -0.469,-0.198c-0.174,-0.034 -0.352,-0.046 -0.529,-0.046c-0.148,0 -0.297,0.009 -0.443,0.031c-0.148,0.023 -0.297,0.06 -0.431,0.129c-0.044,0.023 -0.087,0.05 -0.124,0.084c-0.012,0.011 -0.023,0.022 -0.033,0.034c-0.003,0.003 -0.021,0.032 -0.017,0.023c0.004,-0.011 0.008,-0.023 0.012,-0.034l0.004,-0.014l-1.936,-0.506c0.048,-0.18 0.127,-0.352 0.226,-0.51c0.07,-0.112 0.151,-0.215 0.239,-0.314c0.351,-0.392 0.838,-0.646 1.341,-0.782c0.284,-0.076 0.575,-0.115 0.868,-0.133c0.131,-0.006 0.263,-0.008 0.394,-0.007Z" style="fill:#000;fill-rule:nonzero;"/><rect x="19" y="10" width="3" height="2" style="fill:#000;fill-rule:nonzero;"/><rect x="2" y="10" width="3" height="2" style="fill:#000;fill-rule:nonzero;"/></g></svg>