<?xml version="1.0" encoding="UTF-8" standalone="no"?><!DOCTYPE svg PUBLIC "-//W3C//DTD SVG 1.1//EN" "http://www.w3.org/Graphics/SVG/1.1/DTD/svg11.dtd"><svg width="100%" height="100%" viewBox="0 0 24 24" version="1.1" xmlns="http://www.w3.org/2000/svg" xmlns:xlink="http://www.w3.org/1999/xlink" xml:space="preserve" style="fill-rule:evenodd;clip-rule:evenodd;stroke-linejoin:round;stroke-miterlimit:1.41421;"><g id="record_audio"><path d="M18,9c0,0.255 -0.016,0.511 -0.048,0.764c-0.078,0.612 -0.252,1.211 -0.513,1.77c-0.306,0.655 -0.731,1.253 -1.248,1.758c-0.535,0.523 -1.168,0.945 -1.856,1.236c-0.713,0.302 -1.484,0.462 -2.258,0.472c-0.776,0.009 -1.553,-0.131 -2.276,-0.416c-0.697,-0.275 -1.339,-0.682 -1.887,-1.192c-0.529,-0.492 -0.968,-1.08 -1.29,-1.726c-0.274,-0.551 -0.462,-1.144 -0.555,-1.753c-0.046,-0.302 -0.069,-0.607 -0.069,-0.913l2,0c0,0.321 0.038,0.641 0.114,0.952c0.088,0.363 0.229,0.713 0.415,1.036c0.434,0.755 1.114,1.359 1.916,1.698c0.475,0.201 0.988,0.307 1.503,0.314c0.518,0.006 1.035,-0.087 1.517,-0.277c0.465,-0.183 0.893,-0.455 1.259,-0.795c0.341,-0.318 0.627,-0.695 0.839,-1.11c0.179,-0.348 0.305,-0.723 0.374,-1.108c0.042,-0.234 0.063,-0.472 0.063,-0.71l2,0Z" style="fill:#000;"/><path d="M14.072,5.5c0,-0.828 -0.672,-1.5 -1.5,-1.5l-1,0c-0.828,0 -1.5,0.672 -1.5,1.5l0,4c0,0.828 0.672,1.5 1.5,1.5l1,0c0.828,0 1.5,-0.672 1.5,-1.5l0,-4Z" style="fill:#000;"/><rect x="11" y="13" width="2" height="7" style="fill:#000;"/><path d="M15,20l0,-2l-6,0l0,2l6,0Z" style="fill:#000;"/></g></svg>