<?xml version="1.0" encoding="UTF-8" standalone="no"?><!DOCTYPE svg PUBLIC "-//W3C//DTD SVG 1.1//EN" "http://www.w3.org/Graphics/SVG/1.1/DTD/svg11.dtd"><svg width="100%" height="100%" viewBox="0 0 24 24" version="1.1" xmlns="http://www.w3.org/2000/svg" xmlns:xlink="http://www.w3.org/1999/xlink" xml:space="preserve" style="fill-rule:evenodd;clip-rule:evenodd;stroke-linejoin:round;stroke-miterlimit:1.41421;"><g id="recycle"><path d="M12.172,2.001c0.283,0.008 0.566,0.022 0.848,0.05c0.606,0.062 1.207,0.179 1.793,0.351c1.703,0.499 3.259,1.459 4.474,2.752c0.511,0.544 0.954,1.144 1.337,1.784l-1.716,1.027c-0.068,-0.114 -0.068,-0.114 -0.138,-0.227c-0.07,-0.108 -0.069,-0.108 -0.141,-0.215c-0.194,-0.282 -0.401,-0.553 -0.627,-0.81c-0.509,-0.576 -1.1,-1.08 -1.75,-1.489c-0.808,-0.509 -1.706,-0.87 -2.641,-1.062c-0.864,-0.176 -1.756,-0.209 -2.63,-0.098c-0.784,0.1 -1.552,0.317 -2.271,0.643c-0.908,0.41 -1.737,0.993 -2.433,1.706c-0.742,0.76 -1.332,1.667 -1.722,2.655c-0.255,0.646 -0.424,1.324 -0.503,2.013c-0.035,0.307 -0.05,0.616 -0.052,0.925l-2,-0.012c0.002,-0.382 0.022,-0.762 0.065,-1.141c0.085,-0.741 0.253,-1.472 0.501,-2.175c0.442,-1.255 1.138,-2.416 2.033,-3.401c1.056,-1.161 2.382,-2.069 3.849,-2.627c0.734,-0.279 1.501,-0.47 2.28,-0.57c0.337,-0.043 0.675,-0.066 1.015,-0.077c0.143,-0.002 0.286,-0.003 0.429,-0.002Z" style="fill:#000;fill-rule:nonzero;"/><path d="M21.768,9.268l-6.364,-0.707l5.657,-5.657l0.707,6.364Z" style="fill:#000;"/><path d="M21.768,11.91c-0.003,0.381 -0.022,0.762 -0.065,1.14c-0.095,0.822 -0.291,1.632 -0.586,2.406c-0.543,1.429 -1.419,2.726 -2.538,3.767c-0.943,0.878 -2.055,1.572 -3.259,2.03c-0.892,0.34 -1.833,0.549 -2.784,0.622c-1.094,0.083 -2.201,-0.012 -3.264,-0.286c-1.203,-0.31 -2.345,-0.847 -3.353,-1.575c-0.777,-0.562 -1.473,-1.235 -2.061,-1.993c-0.26,-0.337 -0.496,-0.69 -0.714,-1.055l1.716,-1.027c0.068,0.114 0.068,0.114 0.138,0.227c0.07,0.108 0.069,0.108 0.14,0.215c0.195,0.281 0.401,0.553 0.628,0.81c0.508,0.576 1.099,1.08 1.75,1.489c0.808,0.508 1.706,0.87 2.641,1.061c0.863,0.177 1.756,0.21 2.63,0.098c0.784,-0.099 1.551,-0.316 2.271,-0.642c0.937,-0.424 1.79,-1.031 2.5,-1.775c0.733,-0.769 1.312,-1.684 1.69,-2.678c0.235,-0.617 0.392,-1.264 0.467,-1.921c0.036,-0.308 0.051,-0.616 0.053,-0.926c0.666,0.005 1.333,0.009 2,0.013Z" style="fill:#000;fill-rule:nonzero;"/><path d="M2,14.636l6.364,0.707l-5.657,5.657l-0.707,-6.364Z" style="fill:#000;"/></g></svg>