<?xml version="1.0" encoding="UTF-8" standalone="no"?><!DOCTYPE svg PUBLIC "-//W3C//DTD SVG 1.1//EN" "http://www.w3.org/Graphics/SVG/1.1/DTD/svg11.dtd"><svg width="100%" height="100%" viewBox="0 0 24 24" version="1.1" xmlns="http://www.w3.org/2000/svg" xmlns:xlink="http://www.w3.org/1999/xlink" xml:space="preserve" style="fill-rule:evenodd;clip-rule:evenodd;stroke-linejoin:round;stroke-miterlimit:1.41421;"><g id="save"><path d="M20.999,16.101l-0.003,0.076l-0.005,0.076l-0.006,0.075l-0.009,0.075l-0.01,0.074l-0.012,0.073l-0.014,0.073l-0.016,0.073l-0.018,0.072l-0.019,0.071l-0.021,0.071l-0.023,0.069l-0.024,0.069l-0.026,0.068l-0.027,0.067l-0.029,0.067l-0.031,0.065l-0.032,0.065l-0.033,0.064l-0.036,0.063l-0.036,0.062l-0.038,0.06l-0.04,0.06l-0.04,0.058l-0.043,0.059l-0.043,0.056l-0.045,0.056l-0.046,0.055l-0.047,0.053l-0.048,0.052l-0.05,0.051l-0.051,0.049l-0.052,0.049l-0.054,0.047l-0.054,0.046l-0.056,0.045l-0.057,0.044l-0.057,0.041l-0.058,0.041l-0.061,0.04l-0.061,0.038l-0.062,0.036l-0.062,0.035l-0.064,0.034l-0.065,0.032l-0.065,0.031l-0.066,0.029l-0.068,0.027l-0.068,0.026l-0.07,0.025l-0.068,0.022l-0.071,0.021l-0.072,0.019l-0.071,0.018l-0.072,0.016l-0.074,0.014l-0.074,0.012l-0.073,0.01l-0.075,0.009l-0.076,0.006l-0.074,0.005l-0.076,0.003l-0.071,0.001l-12.062,0l-0.071,-0.001l-0.076,-0.003l-0.074,-0.005l-0.076,-0.006l-0.075,-0.009l-0.073,-0.01l-0.074,-0.012l-0.074,-0.014l-0.072,-0.016l-0.071,-0.018l-0.072,-0.019l-0.071,-0.021l-0.068,-0.022l-0.07,-0.025l-0.068,-0.026l-0.068,-0.027l-0.066,-0.029l-0.065,-0.031l-0.065,-0.032l-0.064,-0.034l-0.062,-0.035l-0.062,-0.036l-0.061,-0.038l-0.061,-0.04l-0.058,-0.041l-0.057,-0.041l-0.057,-0.044l-0.056,-0.045l-0.054,-0.046l-0.054,-0.047l-0.052,-0.049l-0.051,-0.049l-0.05,-0.051l-0.048,-0.052l-0.047,-0.053l-0.046,-0.055l-0.045,-0.056l-0.043,-0.056l-0.043,-0.059l-0.04,-0.058l-0.04,-0.06l-0.038,-0.06l-0.036,-0.062l-0.036,-0.063l-0.033,-0.064l-0.032,-0.065l-0.031,-0.065l-0.029,-0.067l-0.027,-0.067l-0.026,-0.068l-0.024,-0.069l-0.023,-0.069l-0.021,-0.071l-0.019,-0.071l-0.018,-0.072l-0.016,-0.073l-0.014,-0.073l-0.012,-0.073l-0.01,-0.074l-0.009,-0.075l-0.006,-0.075l-0.005,-0.076l-0.003,-0.076l-0.001,-0.07l0,-4.031l2,0l0,4.019l0,0.032l0.001,0.025l0.002,0.025l0.002,0.025l0.003,0.024l0.003,0.025l0.004,0.024l0.005,0.024l0.005,0.023l0.006,0.024l0.006,0.022l0.007,0.023l0.007,0.023l0.008,0.022l0.008,0.022l0.009,0.022l0.01,0.022l0.01,0.021l0.01,0.022l0.011,0.02l0.012,0.02l0.012,0.021l0.012,0.02l0.013,0.019l0.014,0.02l0.013,0.019l0.014,0.018l0.016,0.019l0.014,0.017l0.016,0.018l0.016,0.018l0.017,0.016l0.016,0.017l0.018,0.016l0.017,0.016l0.018,0.015l0.018,0.014l0.019,0.014l0.019,0.015l0.02,0.013l0.02,0.013l0.019,0.012l0.02,0.012l0.021,0.012l0.021,0.011l0.021,0.01l0.022,0.01l0.021,0.01l0.022,0.009l0.022,0.008l0.022,0.008l0.023,0.007l0.022,0.007l0.023,0.006l0.024,0.006l0.024,0.005l0.023,0.005l0.024,0.003l0.025,0.004l0.024,0.003l0.025,0.002l0.026,0.002l0.025,0.001l0.031,0l12.038,0l0.031,0l0.025,-0.001l0.026,-0.002l0.025,-0.002l0.024,-0.003l0.025,-0.004l0.024,-0.003l0.023,-0.005l0.024,-0.005l0.024,-0.006l0.023,-0.006l0.022,-0.007l0.023,-0.007l0.022,-0.008l0.022,-0.008l0.022,-0.009l0.021,-0.01l0.022,-0.01l0.021,-0.01l0.021,-0.011l0.021,-0.012l0.02,-0.012l0.019,-0.012l0.02,-0.013l0.02,-0.013l0.019,-0.015l0.019,-0.014l0.018,-0.014l0.018,-0.015l0.017,-0.016l0.018,-0.016l0.016,-0.017l0.017,-0.016l0.016,-0.018l0.016,-0.018l0.014,-0.017l0.016,-0.019l0.014,-0.018l0.013,-0.019l0.014,-0.02l0.013,-0.019l0.012,-0.02l0.012,-0.021l0.012,-0.02l0.011,-0.02l0.01,-0.022l0.01,-0.021l0.01,-0.022l0.009,-0.022l0.008,-0.022l0.008,-0.022l0.007,-0.023l0.007,-0.023l0.006,-0.022l0.006,-0.024l0.005,-0.023l0.005,-0.024l0.004,-0.024l0.003,-0.025l0.003,-0.024l0.002,-0.025l0.002,-0.025l0.001,-0.025l0,-0.032l0,-4.019l2,0l0,4.031l-0.001,0.07Z" style="fill:#000;"/><path d="M13,12.5l-2,0l0,-8.5l2,0c0,2.833 0,5.667 0,8.5Z" style="fill:#000;fill-rule:nonzero;"/><path d="M12,15l-4,-5l8,0l-4,5Z" style="fill:#000;"/></g></svg>