<?xml version="1.0" encoding="UTF-8" standalone="no"?><!DOCTYPE svg PUBLIC "-//W3C//DTD SVG 1.1//EN" "http://www.w3.org/Graphics/SVG/1.1/DTD/svg11.dtd"><svg width="100%" height="100%" viewBox="0 0 24 24" version="1.1" xmlns="http://www.w3.org/2000/svg" xmlns:xlink="http://www.w3.org/1999/xlink" xml:space="preserve" style="fill-rule:evenodd;clip-rule:evenodd;stroke-linejoin:round;stroke-miterlimit:1.41421;"><g id="settings"><path d="M12.153,2.001c0.254,0.006 0.508,0.018 0.761,0.041c0.031,0.003 0.275,0.027 0.304,0.032c0.026,0.006 0.05,0.018 0.075,0.028c0.048,0.018 0.096,0.037 0.144,0.056c0.136,0.056 0.268,0.118 0.397,0.189c0.21,0.115 0.408,0.252 0.583,0.418c0.115,0.109 0.219,0.23 0.307,0.363c0.064,0.096 0.12,0.198 0.166,0.305c0.038,0.089 0.07,0.181 0.096,0.275c0.148,0.552 0.061,1.131 -0.097,1.67c0.093,0.041 0.185,0.083 0.276,0.127c0.395,0.196 0.769,0.423 1.126,0.682c0.054,-0.057 0.108,-0.112 0.164,-0.167c0.22,-0.209 0.456,-0.399 0.723,-0.545c0.179,-0.097 0.369,-0.174 0.567,-0.221c0.132,-0.031 0.267,-0.049 0.403,-0.052c0.097,-0.003 0.194,0.002 0.29,0.014c0.588,0.072 1.104,0.393 1.549,0.766c0.091,0.123 0.09,0.122 0.18,0.247c0.291,0.418 0.555,0.852 0.782,1.309c0.068,0.136 0.133,0.274 0.195,0.414c0.021,0.047 0.044,0.092 0.061,0.14c0.008,0.025 0.009,0.052 0.014,0.078c0.008,0.051 0.016,0.102 0.023,0.154c0.019,0.145 0.032,0.291 0.035,0.437c0.005,0.24 -0.015,0.481 -0.071,0.714c-0.037,0.155 -0.09,0.305 -0.161,0.448c-0.051,0.104 -0.112,0.203 -0.181,0.296c-0.058,0.078 -0.122,0.152 -0.19,0.221c-0.404,0.404 -0.949,0.618 -1.494,0.751c0.01,0.101 0.02,0.202 0.027,0.303c0.028,0.44 0.019,0.877 -0.027,1.315c0.076,0.019 0.151,0.038 0.227,0.059c0.29,0.086 0.573,0.196 0.833,0.354c0.173,0.106 0.335,0.232 0.475,0.381c0.093,0.098 0.176,0.206 0.246,0.322c0.051,0.083 0.095,0.169 0.133,0.259c0.232,0.544 0.212,1.152 0.111,1.724c-0.061,0.14 -0.061,0.139 -0.124,0.279c-0.217,0.461 -0.461,0.907 -0.742,1.332c-0.084,0.127 -0.171,0.253 -0.261,0.376c-0.03,0.041 -0.058,0.084 -0.091,0.123c-0.018,0.02 -0.041,0.034 -0.061,0.051c-0.04,0.033 -0.08,0.065 -0.121,0.097c-0.116,0.089 -0.237,0.173 -0.362,0.249c-0.205,0.124 -0.423,0.227 -0.653,0.295c-0.153,0.046 -0.31,0.075 -0.468,0.085c-0.116,0.007 -0.232,0.004 -0.347,-0.009c-0.097,-0.011 -0.193,-0.03 -0.287,-0.055c-0.552,-0.147 -1.01,-0.512 -1.397,-0.918c-0.082,0.06 -0.165,0.118 -0.249,0.176c-0.367,0.244 -0.75,0.454 -1.153,0.633c0.022,0.076 0.043,0.151 0.062,0.226c0.071,0.295 0.118,0.595 0.11,0.899c-0.004,0.203 -0.033,0.406 -0.092,0.601c-0.039,0.13 -0.091,0.256 -0.155,0.375c-0.047,0.085 -0.1,0.167 -0.158,0.245c-0.356,0.473 -0.892,0.759 -1.438,0.958c-0.152,0.017 -0.151,0.017 -0.304,0.032c-0.507,0.043 -1.015,0.054 -1.524,0.023c-0.152,-0.009 -0.305,-0.022 -0.456,-0.038c-0.051,-0.005 -0.102,-0.008 -0.152,-0.017c-0.026,-0.006 -0.05,-0.018 -0.075,-0.028c-0.048,-0.018 -0.096,-0.037 -0.144,-0.056c-0.136,-0.056 -0.268,-0.118 -0.397,-0.189c-0.21,-0.115 -0.408,-0.252 -0.583,-0.418c-0.115,-0.109 -0.219,-0.23 -0.307,-0.363c-0.064,-0.096 -0.12,-0.198 -0.166,-0.305c-0.038,-0.089 -0.07,-0.181 -0.096,-0.275c-0.148,-0.552 -0.061,-1.131 0.097,-1.67c-0.093,-0.041 -0.185,-0.083 -0.276,-0.127c-0.395,-0.196 -0.769,-0.423 -1.126,-0.682c-0.054,0.057 -0.108,0.112 -0.164,0.167c-0.22,0.209 -0.456,0.399 -0.723,0.545c-0.179,0.097 -0.369,0.174 -0.567,0.221c-0.132,0.031 -0.267,0.049 -0.403,0.052c-0.097,0.003 -0.194,-0.002 -0.29,-0.014c-0.588,-0.072 -1.104,-0.393 -1.549,-0.766c-0.091,-0.123 -0.09,-0.122 -0.18,-0.247c-0.291,-0.418 -0.555,-0.852 -0.782,-1.309c-0.068,-0.136 -0.133,-0.274 -0.195,-0.414c-0.021,-0.047 -0.044,-0.092 -0.061,-0.14c-0.008,-0.025 -0.009,-0.052 -0.014,-0.078c-0.008,-0.051 -0.016,-0.102 -0.023,-0.154c-0.019,-0.145 -0.032,-0.291 -0.035,-0.437c-0.005,-0.24 0.015,-0.481 0.071,-0.714c0.037,-0.155 0.09,-0.305 0.161,-0.448c0.051,-0.104 0.112,-0.203 0.181,-0.296c0.058,-0.078 0.122,-0.152 0.19,-0.221c0.404,-0.404 0.949,-0.618 1.494,-0.751c-0.01,-0.101 -0.02,-0.202 -0.027,-0.303c-0.028,-0.44 -0.019,-0.877 0.027,-1.315c-0.076,-0.019 -0.151,-0.038 -0.227,-0.059c-0.29,-0.086 -0.573,-0.196 -0.833,-0.354c-0.173,-0.106 -0.335,-0.232 -0.475,-0.381c-0.093,-0.098 -0.176,-0.206 -0.246,-0.322c-0.051,-0.083 -0.095,-0.169 -0.133,-0.259c-0.232,-0.544 -0.212,-1.152 -0.111,-1.724c0.061,-0.14 0.061,-0.139 0.124,-0.279c0.217,-0.461 0.461,-0.907 0.742,-1.332c0.084,-0.127 0.171,-0.253 0.261,-0.376c0.03,-0.041 0.058,-0.084 0.091,-0.123c0.018,-0.02 0.041,-0.034 0.061,-0.051c0.04,-0.033 0.08,-0.065 0.121,-0.097c0.116,-0.089 0.237,-0.173 0.362,-0.249c0.205,-0.124 0.423,-0.227 0.653,-0.295c0.153,-0.046 0.31,-0.075 0.468,-0.085c0.116,-0.007 0.232,-0.004 0.347,0.009c0.097,0.011 0.193,0.03 0.287,0.055c0.552,0.147 1.01,0.512 1.397,0.918c0.082,-0.06 0.165,-0.118 0.249,-0.176c0.367,-0.244 0.75,-0.454 1.153,-0.633c-0.022,-0.076 -0.043,-0.151 -0.062,-0.226c-0.071,-0.295 -0.118,-0.595 -0.11,-0.899c0.004,-0.203 0.033,-0.406 0.092,-0.601c0.039,-0.13 0.091,-0.256 0.155,-0.375c0.047,-0.085 0.1,-0.167 0.158,-0.245c0.356,-0.473 0.892,-0.759 1.438,-0.958c0.152,-0.017 0.151,-0.017 0.304,-0.032c0.203,-0.017 0.405,-0.03 0.609,-0.037c0.153,-0.004 0.305,-0.005 0.458,-0.004ZM11.878,4.001c-0.111,0.003 -0.133,0.002 -0.244,0.007c-0.041,0.002 -0.081,0.004 -0.122,0.007c-0.103,0.006 -0.141,0.01 -0.244,0.019c-0.002,0 -0.004,0 -0.006,0c-0.026,0.009 -0.052,0.024 -0.077,0.036c-0.042,0.022 -0.084,0.045 -0.124,0.07c-0.033,0.021 -0.065,0.043 -0.093,0.068c-0.007,0.007 -0.021,0.017 -0.023,0.026c-0.007,0.034 -0.007,0.068 -0.007,0.102c0.005,0.142 0.037,0.282 0.074,0.419l0.51,1.74c-0.582,0.258 -1.167,0.509 -1.745,0.776c-0.088,0.042 -0.175,0.086 -0.262,0.132c-0.171,0.095 -0.337,0.197 -0.499,0.307l-0.059,0.043l-1.486,1.081c-0.438,-0.459 -0.863,-0.931 -1.315,-1.375c-0.071,-0.067 -0.145,-0.133 -0.227,-0.188c-0.04,-0.027 -0.083,-0.054 -0.129,-0.069c-0.029,0.006 -0.056,0.017 -0.082,0.028c-0.062,0.028 -0.121,0.062 -0.178,0.1c-0.023,0.015 -0.049,0.03 -0.07,0.048c-0.032,0.029 -0.049,0.07 -0.073,0.105c-0.069,0.101 -0.136,0.204 -0.2,0.308c-0.128,0.207 -0.247,0.421 -0.356,0.639c-0.047,0.094 -0.061,0.125 -0.106,0.22c-0.001,0.002 -0.002,0.004 -0.002,0.006c-0.006,0.027 -0.006,0.057 -0.008,0.085c-0.002,0.047 -0.004,0.095 -0.002,0.143c0.002,0.038 0.005,0.077 0.013,0.115c0.002,0.009 0.004,0.026 0.011,0.032c0.026,0.023 0.055,0.04 0.085,0.057c0.126,0.067 0.262,0.109 0.4,0.145l1.761,0.428c-0.067,0.633 -0.142,1.266 -0.2,1.9c-0.007,0.097 -0.013,0.195 -0.016,0.292c-0.004,0.196 0.001,0.391 0.016,0.586l0.007,0.073l0.193,1.827c-0.616,0.15 -1.237,0.282 -1.847,0.452c-0.087,0.025 -0.173,0.054 -0.255,0.092c-0.05,0.023 -0.102,0.049 -0.144,0.086c-0.012,0.01 -0.012,0.042 -0.015,0.056c-0.015,0.101 -0.01,0.204 -0.001,0.306l0.002,0.013c0.185,0.409 0.411,0.802 0.664,1.173c0.024,0.035 0.041,0.076 0.073,0.105c0.021,0.018 0.047,0.033 0.07,0.048c0.046,0.031 0.093,0.059 0.143,0.084c0.028,0.013 0.056,0.026 0.086,0.036c0.008,0.002 0.024,0.01 0.033,0.007c0.032,-0.011 0.062,-0.028 0.091,-0.045c0.121,-0.076 0.226,-0.173 0.326,-0.274l1.252,-1.312c0.515,0.375 1.025,0.756 1.545,1.124c0.081,0.055 0.163,0.108 0.245,0.16c0.168,0.102 0.34,0.194 0.516,0.279l0.066,0.03l1.679,0.746c-0.178,0.609 -0.374,1.212 -0.532,1.826c-0.023,0.096 -0.043,0.192 -0.05,0.291c-0.003,0.048 -0.006,0.099 0.005,0.147c0.019,0.022 0.042,0.039 0.065,0.057c0.056,0.039 0.115,0.073 0.175,0.104c0.025,0.012 0.051,0.027 0.077,0.036c0.041,0.013 0.085,0.007 0.128,0.011c0.084,0.006 0.16,0.011 0.244,0.015c0.285,0.013 0.57,0.01 0.854,-0.007c0.103,-0.006 0.141,-0.01 0.244,-0.019c0.002,0 0.004,0 0.006,0c0.026,-0.009 0.052,-0.024 0.077,-0.036c0.042,-0.022 0.084,-0.045 0.124,-0.07c0.033,-0.021 0.065,-0.043 0.093,-0.068c0.007,-0.007 0.021,-0.017 0.023,-0.026c0.007,-0.034 0.007,-0.068 0.007,-0.102c-0.005,-0.142 -0.037,-0.282 -0.074,-0.419l-0.51,-1.74c0.582,-0.258 1.167,-0.509 1.745,-0.776c0.088,-0.042 0.175,-0.086 0.262,-0.132c0.171,-0.095 0.337,-0.197 0.499,-0.307l0.059,-0.043l1.486,-1.081c0.438,0.459 0.863,0.931 1.315,1.375c0.071,0.067 0.145,0.133 0.227,0.188c0.04,0.027 0.083,0.054 0.129,0.069c0.029,-0.006 0.056,-0.017 0.082,-0.028c0.062,-0.028 0.121,-0.062 0.178,-0.1c0.023,-0.015 0.049,-0.03 0.07,-0.048c0.032,-0.029 0.049,-0.07 0.073,-0.105c0.069,-0.101 0.136,-0.204 0.2,-0.308c0.128,-0.207 0.247,-0.421 0.356,-0.639c0.047,-0.094 0.061,-0.125 0.106,-0.22c0.001,-0.002 0.002,-0.004 0.002,-0.006c0.006,-0.027 0.006,-0.057 0.008,-0.085c0.002,-0.047 0.004,-0.095 0.002,-0.142c-0.002,-0.039 -0.005,-0.078 -0.013,-0.116c-0.002,-0.009 -0.004,-0.026 -0.011,-0.032c-0.026,-0.023 -0.055,-0.04 -0.085,-0.057c-0.126,-0.067 -0.262,-0.109 -0.4,-0.145l-1.761,-0.428c0.067,-0.633 0.142,-1.266 0.2,-1.9c0.007,-0.097 0.013,-0.195 0.016,-0.293c0.004,-0.195 -0.001,-0.39 -0.016,-0.585l-0.007,-0.073l-0.193,-1.827c0.616,-0.15 1.237,-0.282 1.847,-0.452c0.087,-0.025 0.173,-0.054 0.255,-0.092c0.05,-0.023 0.102,-0.049 0.144,-0.086c0.012,-0.01 0.012,-0.042 0.015,-0.056c0.015,-0.101 0.01,-0.204 0.001,-0.306l-0.002,-0.013c-0.185,-0.409 -0.411,-0.802 -0.664,-1.173c-0.024,-0.035 -0.041,-0.076 -0.073,-0.105c-0.021,-0.018 -0.047,-0.033 -0.07,-0.048c-0.046,-0.031 -0.093,-0.059 -0.143,-0.084c-0.028,-0.013 -0.056,-0.026 -0.086,-0.036c-0.008,-0.002 -0.024,-0.01 -0.033,-0.007c-0.032,0.011 -0.062,0.028 -0.091,0.045c-0.121,0.076 -0.226,0.173 -0.326,0.274l-1.252,1.312c-0.515,-0.375 -1.025,-0.756 -1.545,-1.124c-0.081,-0.055 -0.163,-0.108 -0.245,-0.16c-0.168,-0.102 -0.34,-0.194 -0.516,-0.279l-0.066,-0.03l-1.679,-0.746c0.178,-0.609 0.374,-1.212 0.532,-1.826c0.023,-0.096 0.043,-0.192 0.05,-0.291c0.003,-0.048 0.006,-0.099 -0.005,-0.147c-0.019,-0.022 -0.042,-0.039 -0.065,-0.057c-0.056,-0.039 -0.115,-0.073 -0.175,-0.104c-0.025,-0.012 -0.051,-0.027 -0.077,-0.036c-0.041,-0.013 -0.085,-0.007 -0.128,-0.011c-0.122,-0.009 -0.244,-0.015 -0.366,-0.019c-0.122,-0.003 -0.244,-0.004 -0.366,-0.003ZM12.151,9.055c0.149,0.011 0.295,0.026 0.441,0.056c0.285,0.058 0.56,0.159 0.815,0.298c0.332,0.18 0.628,0.424 0.868,0.715c0.212,0.256 0.379,0.549 0.494,0.862c0.102,0.277 0.161,0.569 0.176,0.864c0.015,0.297 -0.015,0.597 -0.089,0.886c-0.227,0.882 -0.868,1.625 -1.707,1.98c-0.363,0.153 -0.755,0.233 -1.149,0.233c-0.394,0 -0.786,-0.08 -1.149,-0.233c-0.567,-0.24 -1.052,-0.659 -1.371,-1.185c-0.176,-0.289 -0.301,-0.608 -0.369,-0.939c-0.06,-0.292 -0.075,-0.594 -0.045,-0.891c0.03,-0.292 0.104,-0.579 0.218,-0.85c0.129,-0.305 0.31,-0.588 0.534,-0.834c0.254,-0.279 0.561,-0.509 0.901,-0.673c0.264,-0.127 0.546,-0.215 0.834,-0.259c0.149,-0.023 0.297,-0.03 0.447,-0.034c0.05,0.001 0.101,0.003 0.151,0.004ZM11.947,10.949c-0.159,0.012 -0.31,0.051 -0.451,0.127c-0.117,0.064 -0.222,0.15 -0.307,0.254c-0.087,0.105 -0.153,0.227 -0.194,0.357c-0.036,0.118 -0.052,0.242 -0.046,0.366c0.022,0.436 0.321,0.822 0.739,0.952c0.101,0.031 0.206,0.047 0.312,0.047c0.106,0 0.211,-0.016 0.312,-0.047c0.418,-0.13 0.717,-0.516 0.739,-0.952c0.006,-0.124 -0.01,-0.248 -0.046,-0.366c-0.041,-0.13 -0.107,-0.252 -0.194,-0.357c-0.085,-0.104 -0.19,-0.19 -0.307,-0.254c-0.141,-0.076 -0.292,-0.115 -0.451,-0.127c-0.053,-0.001 -0.053,-0.001 -0.106,0Z" style="fill:#000;fill-rule:nonzero;"/></g></svg>