<?xml version="1.0" encoding="UTF-8" standalone="no"?><!DOCTYPE svg PUBLIC "-//W3C//DTD SVG 1.1//EN" "http://www.w3.org/Graphics/SVG/1.1/DTD/svg11.dtd"><svg width="100%" height="100%" viewBox="0 0 24 24" version="1.1" xmlns="http://www.w3.org/2000/svg" xmlns:xlink="http://www.w3.org/1999/xlink" xml:space="preserve" style="fill-rule:evenodd;clip-rule:evenodd;stroke-linejoin:round;stroke-miterlimit:1.41421;"><g id="share"><path d="M18.103,13.554l0.103,0.004l0.102,0.006l0.101,0.009l0.1,0.012l0.1,0.014l0.099,0.016l0.098,0.019l0.097,0.021l0.096,0.024l0.096,0.026l0.094,0.028l0.093,0.03l0.093,0.033l0.091,0.034l0.09,0.037l0.09,0.039l0.088,0.041l0.086,0.044l0.086,0.045l0.084,0.047l0.083,0.049l0.082,0.051l0.081,0.053l0.079,0.055l0.078,0.057l0.076,0.058l0.075,0.061l0.073,0.062l0.072,0.063l0.07,0.066l0.069,0.067l0.067,0.069l0.065,0.07l0.064,0.072l0.062,0.073l0.06,0.075l0.059,0.076l0.057,0.078l0.054,0.079l0.053,0.08l0.052,0.082l0.049,0.083l0.047,0.085l0.045,0.085l0.043,0.087l0.041,0.088l0.039,0.089l0.037,0.091l0.035,0.091l0.033,0.092l0.03,0.094l0.028,0.094l0.026,0.096l0.023,0.096l0.022,0.097l0.018,0.098l0.017,0.099l0.014,0.1l0.011,0.1l0.009,0.101l0.007,0.102l0.004,0.103l0.001,0.103l-0.001,0.103l-0.004,0.103l-0.007,0.101l-0.009,0.102l-0.011,0.1l-0.014,0.1l-0.017,0.098l-0.018,0.099l-0.022,0.097l-0.023,0.096l-0.026,0.095l-0.028,0.095l-0.03,0.093l-0.033,0.093l-0.035,0.091l-0.037,0.09l-0.039,0.089l-0.041,0.088l-0.043,0.087l-0.045,0.086l-0.047,0.084l-0.049,0.083l-0.052,0.082l-0.053,0.081l-0.054,0.079l-0.057,0.077l-0.059,0.077l-0.06,0.075l-0.062,0.073l-0.064,0.072l-0.065,0.07l-0.067,0.069l-0.069,0.067l-0.07,0.065l-0.072,0.064l-0.073,0.062l-0.075,0.06l-0.076,0.059l-0.078,0.056l-0.079,0.055l-0.081,0.053l-0.082,0.051l-0.083,0.05l-0.084,0.047l-0.086,0.045l-0.086,0.043l-0.088,0.041l-0.09,0.039l-0.09,0.037l-0.091,0.035l-0.093,0.032l-0.093,0.031l-0.094,0.028l-0.096,0.026l-0.096,0.023l-0.097,0.021l-0.098,0.019l-0.099,0.017l-0.1,0.014l-0.1,0.011l-0.101,0.009l-0.102,0.007l-0.103,0.003l-0.103,0.002l-0.103,-0.002l-0.103,-0.003l-0.102,-0.007l-0.101,-0.009l-0.1,-0.011l-0.1,-0.014l-0.099,-0.017l-0.098,-0.019l-0.097,-0.021l-0.096,-0.023l-0.096,-0.026l-0.094,-0.028l-0.093,-0.031l-0.093,-0.032l-0.091,-0.035l-0.09,-0.037l-0.09,-0.039l-0.088,-0.041l-0.086,-0.043l-0.086,-0.045l-0.084,-0.047l-0.083,-0.05l-0.082,-0.051l-0.081,-0.053l-0.079,-0.055l-0.078,-0.056l-0.076,-0.059l-0.075,-0.06l-0.073,-0.062l-0.072,-0.064l-0.07,-0.065l-0.069,-0.067l-0.067,-0.069l-0.065,-0.07l-0.064,-0.072l-0.062,-0.073l-0.06,-0.075l-0.059,-0.077l-0.057,-0.077l-0.054,-0.079l-0.053,-0.081l-0.052,-0.082l-0.049,-0.083l-0.047,-0.084l-0.045,-0.086l-0.043,-0.087l-0.041,-0.088l-0.039,-0.089l-0.037,-0.09l-0.035,-0.091l-0.033,-0.093l-0.03,-0.093l-0.028,-0.095l-0.026,-0.095l-0.023,-0.096l-0.022,-0.097l-0.018,-0.099l-0.017,-0.098l-0.014,-0.1l-0.011,-0.1l-0.009,-0.102l-0.007,-0.101l-0.004,-0.103l-0.001,-0.103l0.001,-0.103l0.004,-0.103l0.007,-0.102l0.009,-0.101l0.011,-0.1l0.014,-0.1l0.017,-0.099l0.018,-0.098l0.022,-0.097l0.023,-0.096l0.026,-0.096l0.028,-0.094l0.03,-0.094l0.033,-0.092l0.035,-0.091l0.037,-0.091l0.039,-0.089l0.041,-0.088l0.043,-0.087l0.045,-0.085l0.047,-0.085l0.049,-0.083l0.052,-0.082l0.053,-0.08l0.054,-0.079l0.057,-0.078l0.059,-0.076l0.06,-0.075l0.062,-0.073l0.064,-0.072l0.065,-0.07l0.067,-0.069l0.069,-0.067l0.07,-0.066l0.072,-0.063l0.073,-0.062l0.075,-0.061l0.076,-0.058l0.078,-0.057l0.079,-0.055l0.081,-0.053l0.082,-0.051l0.083,-0.049l0.084,-0.047l0.086,-0.045l0.086,-0.044l0.088,-0.041l0.09,-0.039l0.09,-0.037l0.091,-0.034l0.093,-0.033l0.093,-0.03l0.094,-0.028l0.096,-0.026l0.096,-0.024l0.097,-0.021l0.098,-0.019l0.099,-0.016l0.1,-0.014l0.1,-0.012l0.101,-0.009l0.102,-0.006l0.103,-0.004l0.103,-0.001l0.103,0.001ZM17.947,15.554l-0.051,0.002l-0.052,0.003l-0.05,0.004l-0.05,0.006l-0.051,0.007l-0.049,0.008l-0.048,0.01l-0.049,0.01l-0.047,0.012l-0.048,0.013l-0.047,0.014l-0.045,0.014l-0.046,0.017l-0.046,0.017l-0.045,0.018l-0.044,0.02l-0.044,0.02l-0.043,0.022l-0.042,0.022l-0.043,0.024l-0.042,0.024l-0.04,0.026l-0.041,0.027l-0.04,0.027l-0.039,0.029l-0.038,0.029l-0.038,0.03l-0.036,0.031l-0.037,0.033l-0.035,0.032l-0.035,0.034l-0.033,0.035l-0.033,0.035l-0.032,0.036l-0.031,0.037l-0.031,0.038l-0.029,0.038l-0.029,0.039l-0.027,0.04l-0.027,0.04l-0.025,0.041l-0.025,0.042l-0.024,0.042l-0.022,0.043l-0.021,0.043l-0.021,0.044l-0.02,0.044l-0.018,0.045l-0.017,0.045l-0.016,0.046l-0.015,0.046l-0.014,0.047l-0.013,0.048l-0.012,0.047l-0.01,0.049l-0.01,0.049l-0.008,0.048l-0.007,0.05l-0.005,0.05l-0.005,0.051l-0.003,0.051l-0.002,0.052l-0.001,0.053l0.001,0.052l0.002,0.052l0.003,0.052l0.005,0.05l0.005,0.05l0.007,0.05l0.008,0.049l0.01,0.049l0.01,0.049l0.012,0.047l0.013,0.047l0.014,0.047l0.015,0.046l0.016,0.046l0.017,0.046l0.018,0.044l0.02,0.045l0.021,0.044l0.021,0.043l0.022,0.042l0.024,0.043l0.025,0.041l0.025,0.041l0.027,0.041l0.027,0.039l0.029,0.039l0.029,0.038l0.031,0.038l0.031,0.037l0.032,0.036l0.033,0.036l0.033,0.034l0.035,0.034l0.035,0.033l0.037,0.032l0.036,0.031l0.038,0.031l0.038,0.029l0.039,0.028l0.04,0.028l0.041,0.027l0.041,0.025l0.041,0.025l0.042,0.023l0.042,0.023l0.044,0.021l0.044,0.021l0.044,0.019l0.045,0.019l0.046,0.017l0.046,0.016l0.045,0.015l0.047,0.014l0.048,0.013l0.047,0.012l0.049,0.01l0.048,0.009l0.049,0.009l0.05,0.006l0.051,0.006l0.05,0.005l0.052,0.003l0.051,0.002l0.053,0.001l0.053,-0.001l0.051,-0.002l0.052,-0.003l0.05,-0.005l0.051,-0.006l0.05,-0.006l0.049,-0.009l0.048,-0.009l0.049,-0.01l0.047,-0.012l0.048,-0.013l0.047,-0.014l0.045,-0.015l0.046,-0.016l0.046,-0.017l0.045,-0.019l0.044,-0.019l0.044,-0.021l0.044,-0.021l0.042,-0.023l0.042,-0.023l0.041,-0.025l0.041,-0.025l0.041,-0.027l0.04,-0.028l0.039,-0.028l0.038,-0.029l0.038,-0.031l0.036,-0.031l0.037,-0.032l0.035,-0.033l0.035,-0.034l0.033,-0.034l0.033,-0.036l0.032,-0.036l0.031,-0.037l0.031,-0.038l0.029,-0.038l0.029,-0.039l0.027,-0.039l0.027,-0.041l0.025,-0.041l0.025,-0.041l0.024,-0.043l0.022,-0.042l0.021,-0.043l0.021,-0.044l0.02,-0.045l0.018,-0.044l0.017,-0.046l0.016,-0.046l0.015,-0.046l0.014,-0.047l0.013,-0.047l0.012,-0.047l0.01,-0.049l0.01,-0.049l0.008,-0.049l0.007,-0.05l0.005,-0.05l0.005,-0.05l0.003,-0.052l0.002,-0.052l0.001,-0.052l-0.001,-0.053l-0.002,-0.052l-0.003,-0.051l-0.005,-0.051l-0.005,-0.05l-0.007,-0.05l-0.008,-0.048l-0.01,-0.049l-0.01,-0.049l-0.012,-0.047l-0.013,-0.048l-0.014,-0.047l-0.015,-0.046l-0.016,-0.046l-0.017,-0.045l-0.018,-0.045l-0.02,-0.044l-0.021,-0.044l-0.021,-0.043l-0.022,-0.043l-0.024,-0.042l-0.025,-0.042l-0.025,-0.041l-0.027,-0.04l-0.027,-0.04l-0.029,-0.039l-0.029,-0.038l-0.031,-0.038l-0.031,-0.037l-0.032,-0.036l-0.033,-0.035l-0.033,-0.035l-0.035,-0.034l-0.035,-0.032l-0.037,-0.033l-0.036,-0.031l-0.038,-0.03l-0.038,-0.029l-0.039,-0.029l-0.04,-0.027l-0.041,-0.027l-0.04,-0.026l-0.042,-0.024l-0.043,-0.024l-0.042,-0.022l-0.043,-0.022l-0.044,-0.02l-0.044,-0.02l-0.045,-0.018l-0.046,-0.017l-0.046,-0.017l-0.045,-0.014l-0.047,-0.014l-0.048,-0.013l-0.047,-0.012l-0.049,-0.01l-0.048,-0.01l-0.049,-0.008l-0.051,-0.007l-0.05,-0.006l-0.05,-0.004l-0.052,-0.003l-0.051,-0.002l-0.053,-0.001l-0.053,0.001Z" style="fill:#000;"/><path d="M18.103,3.554l0.103,0.004l0.102,0.006l0.101,0.009l0.1,0.012l0.1,0.014l0.099,0.016l0.098,0.019l0.097,0.021l0.096,0.024l0.096,0.026l0.094,0.028l0.093,0.03l0.093,0.033l0.091,0.034l0.09,0.037l0.09,0.039l0.088,0.041l0.086,0.044l0.086,0.045l0.084,0.047l0.083,0.049l0.082,0.051l0.081,0.053l0.079,0.055l0.078,0.057l0.076,0.058l0.075,0.061l0.073,0.062l0.072,0.063l0.07,0.066l0.069,0.067l0.067,0.069l0.065,0.07l0.064,0.072l0.062,0.073l0.06,0.075l0.059,0.076l0.057,0.078l0.054,0.079l0.053,0.08l0.052,0.082l0.049,0.083l0.047,0.085l0.045,0.085l0.043,0.087l0.041,0.088l0.039,0.089l0.037,0.091l0.035,0.091l0.033,0.092l0.03,0.094l0.028,0.094l0.026,0.096l0.023,0.096l0.022,0.097l0.018,0.098l0.017,0.099l0.014,0.1l0.011,0.1l0.009,0.101l0.007,0.102l0.004,0.103l0.001,0.103l-0.001,0.103l-0.004,0.103l-0.007,0.101l-0.009,0.102l-0.011,0.1l-0.014,0.1l-0.017,0.098l-0.018,0.099l-0.022,0.097l-0.023,0.096l-0.026,0.095l-0.028,0.095l-0.03,0.093l-0.033,0.093l-0.035,0.091l-0.037,0.09l-0.039,0.089l-0.041,0.088l-0.043,0.087l-0.045,0.086l-0.047,0.084l-0.049,0.083l-0.052,0.082l-0.053,0.081l-0.054,0.079l-0.057,0.077l-0.059,0.077l-0.06,0.075l-0.062,0.073l-0.064,0.072l-0.065,0.07l-0.067,0.069l-0.069,0.067l-0.07,0.065l-0.072,0.064l-0.073,0.062l-0.075,0.06l-0.076,0.059l-0.078,0.056l-0.079,0.055l-0.081,0.053l-0.082,0.051l-0.083,0.05l-0.084,0.047l-0.086,0.045l-0.086,0.043l-0.088,0.041l-0.09,0.039l-0.09,0.037l-0.091,0.035l-0.093,0.032l-0.093,0.031l-0.094,0.028l-0.096,0.026l-0.096,0.023l-0.097,0.021l-0.098,0.019l-0.099,0.017l-0.1,0.014l-0.1,0.011l-0.101,0.009l-0.102,0.007l-0.103,0.003l-0.103,0.002l-0.103,-0.002l-0.103,-0.003l-0.102,-0.007l-0.101,-0.009l-0.1,-0.011l-0.1,-0.014l-0.099,-0.017l-0.098,-0.019l-0.097,-0.021l-0.096,-0.023l-0.096,-0.026l-0.094,-0.028l-0.093,-0.031l-0.093,-0.032l-0.091,-0.035l-0.09,-0.037l-0.09,-0.039l-0.088,-0.041l-0.086,-0.043l-0.086,-0.045l-0.084,-0.047l-0.083,-0.05l-0.082,-0.051l-0.081,-0.053l-0.079,-0.055l-0.078,-0.056l-0.076,-0.059l-0.075,-0.06l-0.073,-0.062l-0.072,-0.064l-0.07,-0.065l-0.069,-0.067l-0.067,-0.069l-0.065,-0.07l-0.064,-0.072l-0.062,-0.073l-0.06,-0.075l-0.059,-0.077l-0.057,-0.077l-0.054,-0.079l-0.053,-0.081l-0.052,-0.082l-0.049,-0.083l-0.047,-0.084l-0.045,-0.086l-0.043,-0.087l-0.041,-0.088l-0.039,-0.089l-0.037,-0.09l-0.035,-0.091l-0.033,-0.093l-0.03,-0.093l-0.028,-0.095l-0.026,-0.095l-0.023,-0.096l-0.022,-0.097l-0.018,-0.099l-0.017,-0.098l-0.014,-0.1l-0.011,-0.1l-0.009,-0.102l-0.007,-0.101l-0.004,-0.103l-0.001,-0.103l0.001,-0.103l0.004,-0.103l0.007,-0.102l0.009,-0.101l0.011,-0.1l0.014,-0.1l0.017,-0.099l0.018,-0.098l0.022,-0.097l0.023,-0.096l0.026,-0.096l0.028,-0.094l0.03,-0.094l0.033,-0.092l0.035,-0.091l0.037,-0.091l0.039,-0.089l0.041,-0.088l0.043,-0.087l0.045,-0.085l0.047,-0.085l0.049,-0.083l0.052,-0.082l0.053,-0.08l0.054,-0.079l0.057,-0.078l0.059,-0.076l0.06,-0.075l0.062,-0.073l0.064,-0.072l0.065,-0.07l0.067,-0.069l0.069,-0.067l0.07,-0.066l0.072,-0.063l0.073,-0.062l0.075,-0.061l0.076,-0.058l0.078,-0.057l0.079,-0.055l0.081,-0.053l0.082,-0.051l0.083,-0.049l0.084,-0.047l0.086,-0.045l0.086,-0.044l0.088,-0.041l0.09,-0.039l0.09,-0.037l0.091,-0.034l0.093,-0.033l0.093,-0.03l0.094,-0.028l0.096,-0.026l0.096,-0.024l0.097,-0.021l0.098,-0.019l0.099,-0.016l0.1,-0.014l0.1,-0.012l0.101,-0.009l0.102,-0.006l0.103,-0.004l0.103,-0.001l0.103,0.001ZM17.947,5.554l-0.051,0.002l-0.052,0.003l-0.05,0.004l-0.05,0.006l-0.051,0.007l-0.049,0.008l-0.048,0.01l-0.049,0.01l-0.047,0.012l-0.048,0.013l-0.047,0.014l-0.045,0.014l-0.046,0.017l-0.046,0.017l-0.045,0.018l-0.044,0.02l-0.044,0.02l-0.043,0.022l-0.042,0.022l-0.043,0.024l-0.042,0.024l-0.04,0.026l-0.041,0.027l-0.04,0.027l-0.039,0.029l-0.038,0.029l-0.038,0.03l-0.036,0.031l-0.037,0.033l-0.035,0.032l-0.035,0.034l-0.033,0.035l-0.033,0.035l-0.032,0.036l-0.031,0.037l-0.031,0.038l-0.029,0.038l-0.029,0.039l-0.027,0.04l-0.027,0.04l-0.025,0.041l-0.025,0.042l-0.024,0.042l-0.022,0.043l-0.021,0.043l-0.021,0.044l-0.02,0.044l-0.018,0.045l-0.017,0.045l-0.016,0.046l-0.015,0.046l-0.014,0.047l-0.013,0.048l-0.012,0.047l-0.01,0.049l-0.01,0.049l-0.008,0.048l-0.007,0.05l-0.005,0.05l-0.005,0.051l-0.003,0.051l-0.002,0.052l-0.001,0.053l0.001,0.052l0.002,0.052l0.003,0.052l0.005,0.05l0.005,0.05l0.007,0.05l0.008,0.049l0.01,0.049l0.01,0.049l0.012,0.047l0.013,0.047l0.014,0.047l0.015,0.046l0.016,0.046l0.017,0.046l0.018,0.044l0.02,0.045l0.021,0.044l0.021,0.043l0.022,0.042l0.024,0.043l0.025,0.041l0.025,0.041l0.027,0.041l0.027,0.039l0.029,0.039l0.029,0.038l0.031,0.038l0.031,0.037l0.032,0.036l0.033,0.036l0.033,0.034l0.035,0.034l0.035,0.033l0.037,0.032l0.036,0.031l0.038,0.031l0.038,0.029l0.039,0.028l0.04,0.028l0.041,0.027l0.041,0.025l0.041,0.025l0.042,0.023l0.042,0.023l0.044,0.021l0.044,0.021l0.044,0.019l0.045,0.019l0.046,0.017l0.046,0.016l0.045,0.015l0.047,0.014l0.048,0.013l0.047,0.012l0.049,0.01l0.048,0.009l0.049,0.009l0.05,0.006l0.051,0.006l0.05,0.005l0.052,0.003l0.051,0.002l0.053,0.001l0.053,-0.001l0.051,-0.002l0.052,-0.003l0.05,-0.005l0.051,-0.006l0.05,-0.006l0.049,-0.009l0.048,-0.009l0.049,-0.01l0.047,-0.012l0.048,-0.013l0.047,-0.014l0.045,-0.015l0.046,-0.016l0.046,-0.017l0.045,-0.019l0.044,-0.019l0.044,-0.021l0.044,-0.021l0.042,-0.023l0.042,-0.023l0.041,-0.025l0.041,-0.025l0.041,-0.027l0.04,-0.028l0.039,-0.028l0.038,-0.029l0.038,-0.031l0.036,-0.031l0.037,-0.032l0.035,-0.033l0.035,-0.034l0.033,-0.034l0.033,-0.036l0.032,-0.036l0.031,-0.037l0.031,-0.038l0.029,-0.038l0.029,-0.039l0.027,-0.039l0.027,-0.041l0.025,-0.041l0.025,-0.041l0.024,-0.043l0.022,-0.042l0.021,-0.043l0.021,-0.044l0.02,-0.045l0.018,-0.044l0.017,-0.046l0.016,-0.046l0.015,-0.046l0.014,-0.047l0.013,-0.047l0.012,-0.047l0.01,-0.049l0.01,-0.049l0.008,-0.049l0.007,-0.05l0.005,-0.05l0.005,-0.05l0.003,-0.052l0.002,-0.052l0.001,-0.052l-0.001,-0.053l-0.002,-0.052l-0.003,-0.051l-0.005,-0.051l-0.005,-0.05l-0.007,-0.05l-0.008,-0.048l-0.01,-0.049l-0.01,-0.049l-0.012,-0.047l-0.013,-0.048l-0.014,-0.047l-0.015,-0.046l-0.016,-0.046l-0.017,-0.045l-0.018,-0.045l-0.02,-0.044l-0.021,-0.044l-0.021,-0.043l-0.022,-0.043l-0.024,-0.042l-0.025,-0.042l-0.025,-0.041l-0.027,-0.04l-0.027,-0.04l-0.029,-0.039l-0.029,-0.038l-0.031,-0.038l-0.031,-0.037l-0.032,-0.036l-0.033,-0.035l-0.033,-0.035l-0.035,-0.034l-0.035,-0.032l-0.037,-0.033l-0.036,-0.031l-0.038,-0.03l-0.038,-0.029l-0.039,-0.029l-0.04,-0.027l-0.041,-0.027l-0.04,-0.026l-0.042,-0.024l-0.043,-0.024l-0.042,-0.022l-0.043,-0.022l-0.044,-0.02l-0.044,-0.02l-0.045,-0.018l-0.046,-0.017l-0.046,-0.017l-0.045,-0.014l-0.047,-0.014l-0.048,-0.013l-0.047,-0.012l-0.049,-0.01l-0.048,-0.01l-0.049,-0.008l-0.051,-0.007l-0.05,-0.006l-0.05,-0.004l-0.052,-0.003l-0.051,-0.002l-0.053,-0.001l-0.053,0.001Z" style="fill:#000;"/><path d="M6.103,8.554l0.103,0.004l0.102,0.006l0.101,0.009l0.1,0.012l0.1,0.014l0.099,0.016l0.098,0.019l0.097,0.021l0.096,0.024l0.096,0.026l0.094,0.028l0.093,0.03l0.093,0.033l0.091,0.034l0.09,0.037l0.09,0.039l0.088,0.041l0.086,0.044l0.086,0.045l0.084,0.047l0.083,0.049l0.082,0.051l0.081,0.053l0.079,0.055l0.078,0.057l0.076,0.058l0.075,0.061l0.073,0.062l0.072,0.063l0.07,0.066l0.069,0.067l0.067,0.069l0.065,0.07l0.064,0.072l0.062,0.073l0.06,0.075l0.059,0.076l0.057,0.078l0.054,0.079l0.053,0.08l0.052,0.082l0.049,0.083l0.047,0.085l0.045,0.085l0.043,0.087l0.041,0.088l0.039,0.089l0.037,0.091l0.035,0.091l0.033,0.092l0.03,0.094l0.028,0.094l0.026,0.096l0.023,0.096l0.022,0.097l0.018,0.098l0.017,0.099l0.014,0.1l0.011,0.1l0.009,0.101l0.007,0.102l0.004,0.103l0.001,0.103l-0.001,0.103l-0.004,0.103l-0.007,0.101l-0.009,0.102l-0.011,0.1l-0.014,0.1l-0.017,0.098l-0.018,0.099l-0.022,0.097l-0.023,0.096l-0.026,0.095l-0.028,0.095l-0.03,0.093l-0.033,0.093l-0.035,0.091l-0.037,0.09l-0.039,0.089l-0.041,0.088l-0.043,0.087l-0.045,0.086l-0.047,0.084l-0.049,0.083l-0.052,0.082l-0.053,0.081l-0.054,0.079l-0.057,0.077l-0.059,0.077l-0.06,0.075l-0.062,0.073l-0.064,0.072l-0.065,0.07l-0.067,0.069l-0.069,0.067l-0.07,0.065l-0.072,0.064l-0.073,0.062l-0.075,0.06l-0.076,0.059l-0.078,0.056l-0.079,0.055l-0.081,0.053l-0.082,0.051l-0.083,0.05l-0.084,0.047l-0.086,0.045l-0.086,0.043l-0.088,0.041l-0.09,0.039l-0.09,0.037l-0.091,0.035l-0.093,0.032l-0.093,0.031l-0.094,0.028l-0.096,0.026l-0.096,0.023l-0.097,0.021l-0.098,0.019l-0.099,0.017l-0.1,0.014l-0.1,0.011l-0.101,0.009l-0.102,0.007l-0.103,0.003l-0.103,0.002l-0.103,-0.002l-0.103,-0.003l-0.102,-0.007l-0.101,-0.009l-0.1,-0.011l-0.1,-0.014l-0.099,-0.017l-0.098,-0.019l-0.097,-0.021l-0.096,-0.023l-0.096,-0.026l-0.094,-0.028l-0.093,-0.031l-0.093,-0.032l-0.091,-0.035l-0.09,-0.037l-0.09,-0.039l-0.088,-0.041l-0.086,-0.043l-0.086,-0.045l-0.084,-0.047l-0.083,-0.05l-0.082,-0.051l-0.081,-0.053l-0.079,-0.055l-0.078,-0.056l-0.076,-0.059l-0.075,-0.06l-0.073,-0.062l-0.072,-0.064l-0.07,-0.065l-0.069,-0.067l-0.067,-0.069l-0.065,-0.07l-0.064,-0.072l-0.062,-0.073l-0.06,-0.075l-0.059,-0.077l-0.057,-0.077l-0.054,-0.079l-0.053,-0.081l-0.052,-0.082l-0.049,-0.083l-0.047,-0.084l-0.045,-0.086l-0.043,-0.087l-0.041,-0.088l-0.039,-0.089l-0.037,-0.09l-0.035,-0.091l-0.033,-0.093l-0.03,-0.093l-0.028,-0.095l-0.026,-0.095l-0.023,-0.096l-0.022,-0.097l-0.018,-0.099l-0.017,-0.098l-0.014,-0.1l-0.011,-0.1l-0.009,-0.102l-0.007,-0.101l-0.004,-0.103l-0.001,-0.103l0.001,-0.103l0.004,-0.103l0.007,-0.102l0.009,-0.101l0.011,-0.1l0.014,-0.1l0.017,-0.099l0.018,-0.098l0.022,-0.097l0.023,-0.096l0.026,-0.096l0.028,-0.094l0.03,-0.094l0.033,-0.092l0.035,-0.091l0.037,-0.091l0.039,-0.089l0.041,-0.088l0.043,-0.087l0.045,-0.085l0.047,-0.085l0.049,-0.083l0.052,-0.082l0.053,-0.08l0.054,-0.079l0.057,-0.078l0.059,-0.076l0.06,-0.075l0.062,-0.073l0.064,-0.072l0.065,-0.07l0.067,-0.069l0.069,-0.067l0.07,-0.066l0.072,-0.063l0.073,-0.062l0.075,-0.061l0.076,-0.058l0.078,-0.057l0.079,-0.055l0.081,-0.053l0.082,-0.051l0.083,-0.049l0.084,-0.047l0.086,-0.045l0.086,-0.044l0.088,-0.041l0.09,-0.039l0.09,-0.037l0.091,-0.034l0.093,-0.033l0.093,-0.03l0.094,-0.028l0.096,-0.026l0.096,-0.024l0.097,-0.021l0.098,-0.019l0.099,-0.016l0.1,-0.014l0.1,-0.012l0.101,-0.009l0.102,-0.006l0.103,-0.004l0.103,-0.001l0.103,0.001ZM5.947,10.554l-0.051,0.002l-0.052,0.003l-0.05,0.004l-0.05,0.006l-0.051,0.007l-0.049,0.008l-0.048,0.01l-0.049,0.01l-0.047,0.012l-0.048,0.013l-0.047,0.014l-0.045,0.014l-0.046,0.017l-0.046,0.017l-0.045,0.018l-0.044,0.02l-0.044,0.02l-0.043,0.022l-0.042,0.022l-0.043,0.024l-0.042,0.024l-0.04,0.026l-0.041,0.027l-0.04,0.027l-0.039,0.029l-0.038,0.029l-0.038,0.03l-0.036,0.031l-0.037,0.033l-0.035,0.032l-0.035,0.034l-0.033,0.035l-0.033,0.035l-0.032,0.036l-0.031,0.037l-0.031,0.038l-0.029,0.038l-0.029,0.039l-0.027,0.04l-0.027,0.04l-0.025,0.041l-0.025,0.042l-0.024,0.042l-0.022,0.043l-0.021,0.043l-0.021,0.044l-0.02,0.044l-0.018,0.045l-0.017,0.045l-0.016,0.046l-0.015,0.046l-0.014,0.047l-0.013,0.048l-0.012,0.047l-0.01,0.049l-0.01,0.049l-0.008,0.048l-0.007,0.05l-0.005,0.05l-0.005,0.051l-0.003,0.051l-0.002,0.052l-0.001,0.053l0.001,0.052l0.002,0.052l0.003,0.052l0.005,0.05l0.005,0.05l0.007,0.05l0.008,0.049l0.01,0.049l0.01,0.049l0.012,0.047l0.013,0.047l0.014,0.047l0.015,0.046l0.016,0.046l0.017,0.046l0.018,0.044l0.02,0.045l0.021,0.044l0.021,0.043l0.022,0.042l0.024,0.043l0.025,0.041l0.025,0.041l0.027,0.041l0.027,0.039l0.029,0.039l0.029,0.038l0.031,0.038l0.031,0.037l0.032,0.036l0.033,0.036l0.033,0.034l0.035,0.034l0.035,0.033l0.037,0.032l0.036,0.031l0.038,0.031l0.038,0.029l0.039,0.028l0.04,0.028l0.041,0.027l0.041,0.025l0.041,0.025l0.042,0.023l0.042,0.023l0.044,0.021l0.044,0.021l0.044,0.019l0.045,0.019l0.046,0.017l0.046,0.016l0.045,0.015l0.047,0.014l0.048,0.013l0.047,0.012l0.049,0.01l0.048,0.009l0.049,0.009l0.05,0.006l0.051,0.006l0.05,0.005l0.052,0.003l0.051,0.002l0.053,0.001l0.053,-0.001l0.051,-0.002l0.052,-0.003l0.05,-0.005l0.051,-0.006l0.05,-0.006l0.049,-0.009l0.048,-0.009l0.049,-0.01l0.047,-0.012l0.048,-0.013l0.047,-0.014l0.045,-0.015l0.046,-0.016l0.046,-0.017l0.045,-0.019l0.044,-0.019l0.044,-0.021l0.044,-0.021l0.042,-0.023l0.042,-0.023l0.041,-0.025l0.041,-0.025l0.041,-0.027l0.04,-0.028l0.039,-0.028l0.038,-0.029l0.038,-0.031l0.036,-0.031l0.037,-0.032l0.035,-0.033l0.035,-0.034l0.033,-0.034l0.033,-0.036l0.032,-0.036l0.031,-0.037l0.031,-0.038l0.029,-0.038l0.029,-0.039l0.027,-0.039l0.027,-0.041l0.025,-0.041l0.025,-0.041l0.024,-0.043l0.022,-0.042l0.021,-0.043l0.021,-0.044l0.02,-0.045l0.018,-0.044l0.017,-0.046l0.016,-0.046l0.015,-0.046l0.014,-0.047l0.013,-0.047l0.012,-0.047l0.01,-0.049l0.01,-0.049l0.008,-0.049l0.007,-0.05l0.005,-0.05l0.005,-0.05l0.003,-0.052l0.002,-0.052l0.001,-0.052l-0.001,-0.053l-0.002,-0.052l-0.003,-0.051l-0.005,-0.051l-0.005,-0.05l-0.007,-0.05l-0.008,-0.048l-0.01,-0.049l-0.01,-0.049l-0.012,-0.047l-0.013,-0.048l-0.014,-0.047l-0.015,-0.046l-0.016,-0.046l-0.017,-0.045l-0.018,-0.045l-0.02,-0.044l-0.021,-0.044l-0.021,-0.043l-0.022,-0.043l-0.024,-0.042l-0.025,-0.042l-0.025,-0.041l-0.027,-0.04l-0.027,-0.04l-0.029,-0.039l-0.029,-0.038l-0.031,-0.038l-0.031,-0.037l-0.032,-0.036l-0.033,-0.035l-0.033,-0.035l-0.035,-0.034l-0.035,-0.032l-0.037,-0.033l-0.036,-0.031l-0.038,-0.03l-0.038,-0.029l-0.039,-0.029l-0.04,-0.027l-0.041,-0.027l-0.04,-0.026l-0.042,-0.024l-0.043,-0.024l-0.042,-0.022l-0.043,-0.022l-0.044,-0.02l-0.044,-0.02l-0.045,-0.018l-0.046,-0.017l-0.046,-0.017l-0.045,-0.014l-0.047,-0.014l-0.048,-0.013l-0.047,-0.012l-0.049,-0.01l-0.048,-0.01l-0.049,-0.008l-0.051,-0.007l-0.05,-0.006l-0.05,-0.004l-0.052,-0.003l-0.051,-0.002l-0.053,-0.001l-0.053,0.001Z" style="fill:#000;"/><path d="M8.491,13.279c0.103,0.007 0.199,0.026 0.297,0.058c2.221,0.858 4.397,1.826 6.596,2.74c0.156,0.069 0.293,0.167 0.4,0.302c0.063,0.079 0.113,0.168 0.15,0.263c0.129,0.336 0.063,0.725 -0.168,1.001c-0.076,0.09 -0.168,0.167 -0.271,0.226c-0.117,0.067 -0.248,0.109 -0.382,0.125c-0.154,0.017 -0.304,-0.004 -0.45,-0.052c-2.22,-0.858 -4.397,-1.826 -6.595,-2.74c-0.14,-0.062 -0.266,-0.147 -0.368,-0.263c-0.066,-0.076 -0.122,-0.163 -0.163,-0.255c-0.138,-0.313 -0.105,-0.684 0.087,-0.967c0.057,-0.084 0.127,-0.159 0.207,-0.222c0.148,-0.118 0.322,-0.184 0.508,-0.21c0.051,-0.004 0.101,-0.006 0.152,-0.006Z" style="fill:#000;fill-rule:nonzero;"/><path d="M15.028,7c0.153,0.009 0.301,0.043 0.437,0.115c0.105,0.055 0.2,0.129 0.279,0.217c0.24,0.267 0.319,0.654 0.201,0.994c-0.033,0.096 -0.08,0.186 -0.141,0.268c-0.102,0.138 -0.235,0.241 -0.389,0.316c-0.242,0.103 -0.493,0.197 -0.737,0.295c-0.252,0.102 -0.504,0.205 -0.756,0.307c-1.203,0.494 -2.403,0.997 -3.588,1.532c-0.332,0.15 -0.663,0.303 -0.992,0.461c-0.165,0.079 -0.327,0.163 -0.493,0.24c-0.047,0.019 -0.047,0.019 -0.095,0.035c-0.181,0.052 -0.367,0.063 -0.55,0.016c-0.098,-0.025 -0.193,-0.065 -0.279,-0.119c-0.367,-0.227 -0.549,-0.679 -0.442,-1.098c0.029,-0.114 0.079,-0.224 0.146,-0.321c0.088,-0.127 0.203,-0.226 0.335,-0.304c0.168,-0.089 0.342,-0.17 0.513,-0.253c1.061,-0.504 2.137,-0.973 3.218,-1.43c0.975,-0.411 1.954,-0.811 2.936,-1.201c0.048,-0.017 0.048,-0.017 0.096,-0.032c0.067,-0.017 0.132,-0.029 0.2,-0.035c0.051,-0.003 0.05,-0.003 0.101,-0.003Z" style="fill:#000;fill-rule:nonzero;"/></g></svg>