<?xml version="1.0" encoding="UTF-8" standalone="no"?><!DOCTYPE svg PUBLIC "-//W3C//DTD SVG 1.1//EN" "http://www.w3.org/Graphics/SVG/1.1/DTD/svg11.dtd"><svg width="100%" height="100%" viewBox="0 0 24 24" version="1.1" xmlns="http://www.w3.org/2000/svg" xmlns:xlink="http://www.w3.org/1999/xlink" xml:space="preserve" style="fill-rule:evenodd;clip-rule:evenodd;stroke-linejoin:round;stroke-miterlimit:1.41421;"><g id="skip_previous"><path d="M18.027,6.954l0.034,0.002l0.034,0.002l0.034,0.004l0.033,0.005l0.034,0.006l0.033,0.007l0.034,0.009l0.033,0.009l0.032,0.011l0.033,0.012l0.032,0.013l0.032,0.014l0.031,0.015l0.031,0.017l0.03,0.017l0.03,0.019l0.028,0.019l0.028,0.02l0.027,0.022l0.027,0.022l0.025,0.022l0.025,0.024l0.023,0.025l0.023,0.025l0.022,0.026l0.021,0.026l0.02,0.028l0.019,0.028l0.018,0.028l0.017,0.029l0.017,0.03l0.015,0.03l0.014,0.031l0.013,0.031l0.012,0.032l0.011,0.032l0.01,0.033l0.009,0.033l0.007,0.033l0.007,0.034l0.005,0.034l0.005,0.035l0.003,0.034l0.001,0.035l0.001,0.035l0,9.096l-0.001,0.035l-0.001,0.035l-0.003,0.034l-0.005,0.035l-0.005,0.034l-0.007,0.034l-0.007,0.033l-0.009,0.033l-0.01,0.033l-0.011,0.032l-0.012,0.032l-0.013,0.031l-0.014,0.031l-0.015,0.03l-0.017,0.03l-0.017,0.029l-0.018,0.028l-0.019,0.028l-0.02,0.028l-0.021,0.026l-0.022,0.026l-0.023,0.025l-0.023,0.025l-0.025,0.024l-0.025,0.022l-0.027,0.022l-0.027,0.022l-0.028,0.02l-0.028,0.019l-0.03,0.019l-0.03,0.017l-0.031,0.017l-0.031,0.015l-0.032,0.014l-0.032,0.013l-0.033,0.012l-0.032,0.011l-0.033,0.009l-0.034,0.009l-0.033,0.007l-0.034,0.006l-0.033,0.005l-0.034,0.004l-0.034,0.002l-0.034,0.002l-0.034,0l-0.034,-0.001l-0.033,-0.002l-0.034,-0.003l-0.034,-0.004l-0.033,-0.006l-0.033,-0.006l-0.033,-0.008l-0.033,-0.009l-0.033,-0.01l-0.032,-0.011l-0.032,-0.012l-0.031,-0.013l-0.032,-0.015l-0.03,-0.015l-0.031,-0.017l-0.029,-0.018l-0.03,-0.019l-0.028,-0.02l-6.308,-4.555l-0.024,-0.018l-0.023,-0.018l-0.023,-0.02l-0.022,-0.019l-0.021,-0.02l-0.02,-0.021l-0.02,-0.021l-0.02,-0.022l-0.018,-0.023l-0.018,-0.023l-0.017,-0.023l-0.017,-0.024l-0.016,-0.024l-0.015,-0.025l-0.014,-0.025l-0.013,-0.026l-0.013,-0.026l-0.012,-0.026l-0.012,-0.027l-0.01,-0.027l-0.01,-0.027l-0.009,-0.028l-0.008,-0.028l-0.007,-0.028l-0.007,-0.028l-0.005,-0.029l-0.005,-0.029l-0.004,-0.029l-0.003,-0.029l-0.002,-0.03l-0.001,-0.029l-0.001,-0.03l0.001,-0.03l0.001,-0.029l0.002,-0.03l0.003,-0.029l0.004,-0.029l0.005,-0.029l0.005,-0.029l0.007,-0.028l0.007,-0.028l0.008,-0.028l0.009,-0.028l0.01,-0.027l0.01,-0.027l0.012,-0.027l0.012,-0.026l0.013,-0.026l0.013,-0.026l0.014,-0.025l0.015,-0.025l0.016,-0.024l0.017,-0.024l0.017,-0.023l0.018,-0.023l0.018,-0.023l0.02,-0.022l0.02,-0.021l0.02,-0.021l0.021,-0.02l0.022,-0.019l0.023,-0.02l0.023,-0.018l0.024,-0.018l6.308,-4.555l0.028,-0.02l0.03,-0.019l0.029,-0.018l0.031,-0.017l0.03,-0.015l0.032,-0.015l0.031,-0.013l0.032,-0.012l0.032,-0.011l0.033,-0.01l0.033,-0.009l0.033,-0.008l0.033,-0.006l0.033,-0.006l0.034,-0.004l0.034,-0.003l0.033,-0.002l0.034,-0.001l0.034,0ZM13.416,12.5l3.584,2.588l0,-5.176l-3.584,2.588Z" style="fill:#000;"/><rect x="6" y="7" width="2" height="11" style="fill:#000;fill-rule:nonzero;"/></g></svg>