<?xml version="1.0" encoding="UTF-8" standalone="no"?><!DOCTYPE svg PUBLIC "-//W3C//DTD SVG 1.1//EN" "http://www.w3.org/Graphics/SVG/1.1/DTD/svg11.dtd"><svg width="100%" height="100%" viewBox="0 0 24 24" version="1.1" xmlns="http://www.w3.org/2000/svg" xmlns:xlink="http://www.w3.org/1999/xlink" xml:space="preserve" style="fill-rule:evenodd;clip-rule:evenodd;stroke-linejoin:round;stroke-miterlimit:1.41421;"><g id="smartwatch"><path d="M14.045,2.001l0.049,0.001l0.05,0.004l0.049,0.004l0.049,0.005l0.049,0.007l0.049,0.008l0.048,0.009l0.048,0.01l0.048,0.011l0.047,0.013l0.047,0.014l0.047,0.014l0.046,0.016l0.046,0.017l0.045,0.019l0.045,0.019l0.045,0.02l0.044,0.022l0.043,0.022l0.043,0.024l0.042,0.024l0.042,0.026l0.041,0.027l0.041,0.028l0.04,0.028l0.039,0.03l0.039,0.031l0.038,0.032l0.037,0.033l0.036,0.034l0.036,0.034l0.034,0.036l0.034,0.036l0.033,0.037l0.032,0.038l0.031,0.039l0.03,0.039l0.028,0.04l0.028,0.041l0.027,0.041l0.026,0.042l0.024,0.042l0.024,0.043l0.022,0.043l0.022,0.044l0.02,0.045l0.019,0.045l0.019,0.045l0.017,0.046l0.016,0.046l0.014,0.047l0.014,0.047l0.013,0.047l0.011,0.048l0.01,0.048l0.009,0.048l0.008,0.049l0.007,0.049l0.005,0.049l0.004,0.049l0.004,0.05l0.001,0.049l0.001,0.05l0,3.995l-8,0l0,-3.995l0.001,-0.05l0.001,-0.049l0.004,-0.05l0.004,-0.049l0.005,-0.049l0.007,-0.049l0.008,-0.049l0.009,-0.048l0.01,-0.048l0.011,-0.048l0.013,-0.047l0.014,-0.047l0.014,-0.047l0.016,-0.046l0.017,-0.046l0.019,-0.045l0.019,-0.045l0.02,-0.045l0.022,-0.044l0.022,-0.043l0.024,-0.043l0.024,-0.042l0.026,-0.042l0.027,-0.041l0.028,-0.041l0.028,-0.04l0.03,-0.039l0.031,-0.039l0.032,-0.038l0.033,-0.037l0.034,-0.036l0.034,-0.036l0.036,-0.034l0.036,-0.034l0.037,-0.033l0.038,-0.032l0.039,-0.031l0.039,-0.03l0.04,-0.028l0.041,-0.028l0.041,-0.027l0.042,-0.026l0.042,-0.024l0.043,-0.024l0.043,-0.022l0.044,-0.022l0.045,-0.02l0.045,-0.019l0.045,-0.019l0.046,-0.017l0.046,-0.016l0.047,-0.014l0.047,-0.014l0.047,-0.013l0.048,-0.011l0.048,-0.01l0.048,-0.009l0.049,-0.008l0.049,-0.007l0.049,-0.005l0.049,-0.004l0.05,-0.004l0.049,-0.001l0.05,-0.001l3.99,0l0.05,0.001ZM10.017,4l-0.011,0l-0.001,0l-0.001,0l0,0l0,0l-0.001,0l0,0.001l0,0l0,0l0,0l-0.001,0l0,0l0,0.001l-0.001,0l0,0l0,0.001l0,0l-0.001,0.001l0,0l0,0l0,0.001l0,0l0,0l0,0.013l0,1.982l4,0l0,-1.982l0,-0.013l0,0l0,0l0,-0.001l0,0l0,0l-0.001,-0.001l0,0l0,-0.001l0,0l-0.001,0l0,-0.001l0,0l-0.001,0l0,0l0,0l0,0l0,-0.001l-0.001,0l0,0l0,0l-0.001,0l-0.001,0l-0.011,0l-3.966,0Z" style="fill:#000;"/><path d="M16,19.995l-0.001,0.05l-0.001,0.049l-0.004,0.05l-0.004,0.049l-0.005,0.049l-0.007,0.049l-0.008,0.049l-0.009,0.048l-0.01,0.048l-0.011,0.048l-0.013,0.047l-0.014,0.047l-0.014,0.047l-0.016,0.046l-0.017,0.046l-0.019,0.045l-0.019,0.045l-0.02,0.045l-0.022,0.044l-0.022,0.043l-0.024,0.043l-0.024,0.042l-0.026,0.042l-0.027,0.041l-0.028,0.041l-0.028,0.04l-0.03,0.039l-0.031,0.039l-0.032,0.038l-0.033,0.037l-0.034,0.036l-0.034,0.036l-0.036,0.034l-0.036,0.034l-0.037,0.033l-0.038,0.032l-0.039,0.031l-0.039,0.03l-0.04,0.028l-0.041,0.028l-0.041,0.027l-0.042,0.026l-0.042,0.024l-0.043,0.024l-0.043,0.022l-0.044,0.022l-0.045,0.02l-0.045,0.019l-0.045,0.019l-0.046,0.017l-0.046,0.016l-0.047,0.014l-0.047,0.014l-0.047,0.013l-0.048,0.011l-0.048,0.01l-0.048,0.009l-0.049,0.008l-0.049,0.007l-0.049,0.005l-0.049,0.004l-0.05,0.004l-0.049,0.001l-0.05,0.001l-3.99,0l-0.05,-0.001l-0.049,-0.001l-0.05,-0.004l-0.049,-0.004l-0.049,-0.005l-0.049,-0.007l-0.049,-0.008l-0.048,-0.009l-0.048,-0.01l-0.048,-0.011l-0.047,-0.013l-0.047,-0.014l-0.047,-0.014l-0.046,-0.016l-0.046,-0.017l-0.045,-0.019l-0.045,-0.019l-0.045,-0.02l-0.044,-0.022l-0.043,-0.022l-0.043,-0.024l-0.042,-0.024l-0.042,-0.026l-0.041,-0.027l-0.041,-0.028l-0.04,-0.028l-0.039,-0.03l-0.039,-0.031l-0.038,-0.032l-0.037,-0.033l-0.036,-0.034l-0.036,-0.034l-0.034,-0.036l-0.034,-0.036l-0.033,-0.037l-0.032,-0.038l-0.031,-0.039l-0.03,-0.039l-0.028,-0.04l-0.028,-0.041l-0.027,-0.041l-0.026,-0.042l-0.024,-0.042l-0.024,-0.043l-0.022,-0.043l-0.022,-0.044l-0.02,-0.045l-0.019,-0.045l-0.019,-0.045l-0.017,-0.046l-0.016,-0.046l-0.014,-0.047l-0.014,-0.047l-0.013,-0.047l-0.011,-0.048l-0.01,-0.048l-0.009,-0.048l-0.008,-0.049l-0.007,-0.049l-0.005,-0.049l-0.004,-0.049l-0.004,-0.05l-0.001,-0.049l-0.001,-0.05l0,-3.995l8,0l0,3.995ZM10,18l0,1.982l0,0.014l0.005,0.004l0.012,0l3.966,0l0.011,0l0.001,0l0.001,0l0,0l0,0l0.001,0l0,-0.001l0,0l0,0l0,0l0.001,0l0,0l0,-0.001l0.001,0l0,0l0,-0.001l0,0l0.001,-0.001l0,0l0,0l0,-0.001l0,0l0,0l0,-0.013l0,-1.982l-4,0Z" style="fill:#000;"/><path d="M16.065,6.001l0.051,0.002l0.051,0.003l0.05,0.004l0.05,0.006l0.05,0.007l0.049,0.008l0.048,0.009l0.049,0.011l0.047,0.012l0.048,0.012l0.047,0.014l0.046,0.015l0.046,0.017l0.045,0.017l0.045,0.018l0.044,0.019l0.044,0.021l0.043,0.021l0.043,0.023l0.042,0.023l0.041,0.025l0.04,0.025l0.04,0.026l0.04,0.027l0.038,0.029l0.038,0.029l0.037,0.029l0.037,0.031l0.035,0.032l0.035,0.032l0.034,0.034l0.034,0.034l0.032,0.035l0.032,0.035l0.031,0.037l0.029,0.037l0.029,0.038l0.029,0.038l0.027,0.04l0.026,0.04l0.025,0.04l0.025,0.041l0.023,0.042l0.023,0.043l0.021,0.043l0.021,0.044l0.019,0.044l0.018,0.045l0.017,0.045l0.017,0.046l0.015,0.046l0.014,0.047l0.012,0.048l0.012,0.047l0.011,0.049l0.009,0.048l0.008,0.049l0.007,0.05l0.006,0.05l0.004,0.05l0.003,0.051l0.002,0.051l0.001,0.051l0,8.028l-0.001,0.051l-0.002,0.051l-0.003,0.051l-0.004,0.05l-0.006,0.05l-0.007,0.05l-0.008,0.049l-0.009,0.048l-0.011,0.049l-0.012,0.047l-0.012,0.048l-0.014,0.047l-0.015,0.046l-0.017,0.046l-0.017,0.045l-0.018,0.045l-0.019,0.044l-0.021,0.044l-0.021,0.043l-0.023,0.043l-0.023,0.042l-0.025,0.041l-0.025,0.04l-0.026,0.04l-0.027,0.04l-0.029,0.038l-0.029,0.038l-0.029,0.037l-0.031,0.037l-0.032,0.035l-0.032,0.035l-0.034,0.034l-0.034,0.034l-0.035,0.032l-0.035,0.032l-0.037,0.031l-0.037,0.029l-0.038,0.029l-0.038,0.029l-0.04,0.027l-0.04,0.026l-0.04,0.025l-0.041,0.025l-0.042,0.023l-0.043,0.023l-0.043,0.021l-0.044,0.021l-0.044,0.019l-0.045,0.018l-0.045,0.017l-0.046,0.017l-0.046,0.015l-0.047,0.014l-0.048,0.012l-0.047,0.012l-0.049,0.011l-0.048,0.009l-0.049,0.008l-0.05,0.007l-0.05,0.006l-0.05,0.004l-0.051,0.003l-0.051,0.002l-0.051,0.001l-8.028,0l-0.051,-0.001l-0.051,-0.002l-0.051,-0.003l-0.05,-0.004l-0.05,-0.006l-0.05,-0.007l-0.049,-0.008l-0.048,-0.009l-0.049,-0.011l-0.047,-0.012l-0.048,-0.012l-0.047,-0.014l-0.046,-0.015l-0.046,-0.017l-0.045,-0.017l-0.045,-0.018l-0.044,-0.019l-0.044,-0.021l-0.043,-0.021l-0.043,-0.023l-0.042,-0.023l-0.041,-0.025l-0.04,-0.025l-0.04,-0.026l-0.04,-0.027l-0.038,-0.029l-0.038,-0.029l-0.037,-0.029l-0.037,-0.031l-0.035,-0.032l-0.035,-0.032l-0.034,-0.034l-0.034,-0.034l-0.032,-0.035l-0.032,-0.035l-0.031,-0.037l-0.029,-0.037l-0.029,-0.038l-0.029,-0.038l-0.027,-0.04l-0.026,-0.04l-0.025,-0.04l-0.025,-0.041l-0.023,-0.042l-0.023,-0.043l-0.021,-0.043l-0.021,-0.044l-0.019,-0.044l-0.018,-0.045l-0.017,-0.045l-0.017,-0.046l-0.015,-0.046l-0.014,-0.047l-0.012,-0.048l-0.012,-0.047l-0.011,-0.049l-0.009,-0.048l-0.008,-0.049l-0.007,-0.05l-0.006,-0.05l-0.004,-0.05l-0.003,-0.051l-0.002,-0.051l-0.001,-0.051l0,-8.028l0.001,-0.051l0.002,-0.051l0.003,-0.051l0.004,-0.05l0.006,-0.05l0.007,-0.05l0.008,-0.049l0.009,-0.048l0.011,-0.049l0.012,-0.047l0.012,-0.048l0.014,-0.047l0.015,-0.046l0.017,-0.046l0.017,-0.045l0.018,-0.045l0.019,-0.044l0.021,-0.044l0.021,-0.043l0.023,-0.043l0.023,-0.042l0.025,-0.041l0.025,-0.04l0.026,-0.04l0.027,-0.04l0.029,-0.038l0.029,-0.038l0.029,-0.037l0.031,-0.037l0.032,-0.035l0.032,-0.035l0.034,-0.034l0.034,-0.034l0.035,-0.032l0.035,-0.032l0.037,-0.031l0.037,-0.029l0.038,-0.029l0.038,-0.029l0.04,-0.027l0.04,-0.026l0.04,-0.025l0.041,-0.025l0.042,-0.023l0.043,-0.023l0.043,-0.021l0.044,-0.021l0.044,-0.019l0.045,-0.018l0.045,-0.017l0.046,-0.017l0.046,-0.015l0.047,-0.014l0.048,-0.012l0.047,-0.012l0.049,-0.011l0.048,-0.009l0.049,-0.008l0.05,-0.007l0.05,-0.006l0.05,-0.004l0.051,-0.003l0.051,-0.002l0.051,-0.001l8.028,0l0.051,0.001ZM8,8l0,8l8,0l0,-8l-8,0Z" style="fill:#000;"/><path d="M19,9.489c0,-0.27 -0.219,-0.489 -0.489,-0.489c-0.253,0 -0.511,0 -0.511,0l0,3c0,0 0.258,0 0.511,0c0.27,0 0.489,-0.219 0.489,-0.489c0,-0.558 0,-1.464 0,-2.022Z" style="fill:#000;"/></g></svg>