<?xml version="1.0" encoding="UTF-8" standalone="no"?><!DOCTYPE svg PUBLIC "-//W3C//DTD SVG 1.1//EN" "http://www.w3.org/Graphics/SVG/1.1/DTD/svg11.dtd"><svg width="100%" height="100%" viewBox="0 0 24 24" version="1.1" xmlns="http://www.w3.org/2000/svg" xmlns:xlink="http://www.w3.org/1999/xlink" xml:space="preserve" style="fill-rule:evenodd;clip-rule:evenodd;stroke-linejoin:round;stroke-miterlimit:1.41421;"><g id="speaker"><path d="M18.086,2.001l0.051,0.002l0.05,0.003l0.05,0.004l0.049,0.006l0.049,0.007l0.048,0.008l0.049,0.009l0.047,0.01l0.048,0.012l0.047,0.013l0.046,0.013l0.046,0.015l0.045,0.016l0.045,0.017l0.044,0.018l0.044,0.02l0.043,0.02l0.043,0.021l0.042,0.022l0.041,0.023l0.041,0.024l0.04,0.025l0.04,0.026l0.039,0.027l0.038,0.028l0.037,0.029l0.037,0.03l0.036,0.03l0.035,0.031l0.035,0.032l0.034,0.033l0.033,0.034l0.032,0.035l0.031,0.035l0.03,0.036l0.03,0.037l0.029,0.037l0.028,0.038l0.027,0.039l0.026,0.04l0.025,0.04l0.024,0.041l0.023,0.041l0.022,0.042l0.021,0.043l0.02,0.043l0.02,0.044l0.018,0.044l0.017,0.045l0.016,0.045l0.015,0.046l0.013,0.046l0.013,0.047l0.012,0.048l0.01,0.047l0.009,0.049l0.008,0.048l0.007,0.049l0.006,0.049l0.004,0.05l0.003,0.05l0.002,0.051l0.001,0.05l0,16.072l-0.001,0.05l-0.002,0.051l-0.003,0.05l-0.004,0.05l-0.006,0.049l-0.007,0.049l-0.008,0.048l-0.009,0.049l-0.01,0.047l-0.012,0.048l-0.013,0.047l-0.013,0.046l-0.015,0.046l-0.016,0.045l-0.017,0.045l-0.018,0.044l-0.02,0.044l-0.02,0.043l-0.021,0.043l-0.022,0.042l-0.023,0.041l-0.024,0.041l-0.025,0.04l-0.026,0.04l-0.027,0.039l-0.028,0.038l-0.029,0.037l-0.03,0.037l-0.03,0.036l-0.031,0.035l-0.032,0.035l-0.033,0.034l-0.034,0.033l-0.035,0.032l-0.035,0.031l-0.036,0.03l-0.037,0.03l-0.037,0.029l-0.038,0.028l-0.039,0.027l-0.04,0.026l-0.04,0.025l-0.041,0.024l-0.041,0.023l-0.042,0.022l-0.043,0.021l-0.043,0.02l-0.044,0.02l-0.044,0.018l-0.045,0.017l-0.045,0.016l-0.046,0.015l-0.046,0.013l-0.047,0.013l-0.048,0.012l-0.047,0.01l-0.049,0.009l-0.048,0.008l-0.049,0.007l-0.049,0.006l-0.05,0.004l-0.05,0.003l-0.051,0.002l-0.05,0.001l-12.072,0l-0.05,-0.001l-0.051,-0.002l-0.05,-0.003l-0.05,-0.004l-0.049,-0.006l-0.049,-0.007l-0.048,-0.008l-0.049,-0.009l-0.047,-0.01l-0.048,-0.012l-0.047,-0.013l-0.046,-0.013l-0.046,-0.015l-0.045,-0.016l-0.045,-0.017l-0.044,-0.018l-0.044,-0.02l-0.043,-0.02l-0.043,-0.021l-0.042,-0.022l-0.041,-0.023l-0.041,-0.024l-0.04,-0.025l-0.04,-0.026l-0.039,-0.027l-0.038,-0.028l-0.037,-0.029l-0.037,-0.03l-0.036,-0.03l-0.035,-0.031l-0.035,-0.032l-0.034,-0.033l-0.033,-0.034l-0.032,-0.035l-0.031,-0.035l-0.03,-0.036l-0.03,-0.037l-0.029,-0.037l-0.028,-0.038l-0.027,-0.039l-0.026,-0.04l-0.025,-0.04l-0.024,-0.041l-0.023,-0.041l-0.022,-0.042l-0.021,-0.043l-0.02,-0.043l-0.02,-0.044l-0.018,-0.044l-0.017,-0.045l-0.016,-0.045l-0.015,-0.046l-0.013,-0.046l-0.013,-0.047l-0.012,-0.048l-0.01,-0.047l-0.009,-0.049l-0.008,-0.048l-0.007,-0.049l-0.006,-0.049l-0.004,-0.05l-0.003,-0.05l-0.002,-0.051l-0.001,-0.05l0,-16.072l0.001,-0.05l0.002,-0.051l0.003,-0.05l0.004,-0.05l0.006,-0.049l0.007,-0.049l0.008,-0.048l0.009,-0.049l0.01,-0.047l0.012,-0.048l0.013,-0.047l0.013,-0.046l0.015,-0.046l0.016,-0.045l0.017,-0.045l0.018,-0.044l0.02,-0.044l0.02,-0.043l0.021,-0.043l0.022,-0.042l0.023,-0.041l0.024,-0.041l0.025,-0.04l0.026,-0.04l0.027,-0.039l0.028,-0.038l0.029,-0.037l0.03,-0.037l0.03,-0.036l0.031,-0.035l0.032,-0.035l0.033,-0.034l0.034,-0.033l0.035,-0.032l0.035,-0.031l0.036,-0.03l0.037,-0.03l0.037,-0.029l0.038,-0.028l0.039,-0.027l0.04,-0.026l0.04,-0.025l0.041,-0.024l0.041,-0.023l0.042,-0.022l0.043,-0.021l0.043,-0.02l0.044,-0.02l0.044,-0.018l0.045,-0.017l0.045,-0.016l0.046,-0.015l0.046,-0.013l0.047,-0.013l0.048,-0.012l0.047,-0.01l0.049,-0.009l0.048,-0.008l0.049,-0.007l0.049,-0.006l0.05,-0.004l0.05,-0.003l0.051,-0.002l0.05,-0.001l12.072,0l0.05,0.001ZM6,4l0,16l12,0l0,-16l-12,0Z" style="fill:#000;"/><path d="M12.103,11.001l0.103,0.004l0.102,0.007l0.101,0.009l0.1,0.011l0.1,0.014l0.099,0.017l0.098,0.018l0.097,0.022l0.096,0.023l0.096,0.026l0.094,0.028l0.093,0.03l0.093,0.033l0.091,0.035l0.09,0.037l0.09,0.039l0.088,0.041l0.086,0.043l0.086,0.045l0.084,0.047l0.083,0.049l0.082,0.052l0.081,0.053l0.079,0.054l0.078,0.057l0.076,0.059l0.075,0.06l0.073,0.062l0.072,0.064l0.07,0.065l0.069,0.067l0.067,0.069l0.065,0.07l0.064,0.072l0.062,0.073l0.06,0.075l0.059,0.076l0.057,0.078l0.054,0.079l0.053,0.081l0.052,0.082l0.049,0.083l0.047,0.084l0.045,0.086l0.043,0.086l0.041,0.088l0.039,0.09l0.037,0.09l0.035,0.091l0.033,0.093l0.03,0.093l0.028,0.094l0.026,0.096l0.023,0.096l0.022,0.097l0.018,0.098l0.017,0.099l0.014,0.1l0.011,0.1l0.009,0.101l0.007,0.102l0.004,0.103l0.001,0.103l-0.001,0.103l-0.004,0.103l-0.007,0.102l-0.009,0.101l-0.011,0.1l-0.014,0.1l-0.017,0.099l-0.018,0.098l-0.022,0.097l-0.023,0.096l-0.026,0.096l-0.028,0.094l-0.03,0.093l-0.033,0.093l-0.035,0.091l-0.037,0.09l-0.039,0.09l-0.041,0.088l-0.043,0.086l-0.045,0.086l-0.047,0.084l-0.049,0.083l-0.052,0.082l-0.053,0.081l-0.054,0.079l-0.057,0.078l-0.059,0.076l-0.06,0.075l-0.062,0.073l-0.064,0.072l-0.065,0.07l-0.067,0.069l-0.069,0.067l-0.07,0.065l-0.072,0.064l-0.073,0.062l-0.075,0.06l-0.076,0.059l-0.078,0.057l-0.079,0.054l-0.081,0.053l-0.082,0.052l-0.083,0.049l-0.084,0.047l-0.086,0.045l-0.086,0.043l-0.088,0.041l-0.09,0.039l-0.09,0.037l-0.091,0.035l-0.093,0.033l-0.093,0.03l-0.094,0.028l-0.096,0.026l-0.096,0.023l-0.097,0.022l-0.098,0.018l-0.099,0.017l-0.1,0.014l-0.1,0.011l-0.101,0.009l-0.102,0.007l-0.103,0.004l-0.103,0.001l-0.103,-0.001l-0.103,-0.004l-0.102,-0.007l-0.101,-0.009l-0.1,-0.011l-0.1,-0.014l-0.099,-0.017l-0.098,-0.018l-0.097,-0.022l-0.096,-0.023l-0.096,-0.026l-0.094,-0.028l-0.093,-0.03l-0.093,-0.033l-0.091,-0.035l-0.09,-0.037l-0.09,-0.039l-0.088,-0.041l-0.086,-0.043l-0.086,-0.045l-0.084,-0.047l-0.083,-0.049l-0.082,-0.052l-0.081,-0.053l-0.079,-0.054l-0.078,-0.057l-0.076,-0.059l-0.075,-0.06l-0.073,-0.062l-0.072,-0.064l-0.07,-0.065l-0.069,-0.067l-0.067,-0.069l-0.065,-0.07l-0.064,-0.072l-0.062,-0.073l-0.06,-0.075l-0.059,-0.076l-0.057,-0.078l-0.054,-0.079l-0.053,-0.081l-0.052,-0.082l-0.049,-0.083l-0.047,-0.084l-0.045,-0.086l-0.043,-0.086l-0.041,-0.088l-0.039,-0.09l-0.037,-0.09l-0.035,-0.091l-0.033,-0.093l-0.03,-0.093l-0.028,-0.094l-0.026,-0.096l-0.023,-0.096l-0.022,-0.097l-0.018,-0.098l-0.017,-0.099l-0.014,-0.1l-0.011,-0.1l-0.009,-0.101l-0.007,-0.102l-0.004,-0.103l-0.001,-0.103l0.001,-0.103l0.004,-0.103l0.007,-0.102l0.009,-0.101l0.011,-0.1l0.014,-0.1l0.017,-0.099l0.018,-0.098l0.022,-0.097l0.023,-0.096l0.026,-0.096l0.028,-0.094l0.03,-0.093l0.033,-0.093l0.035,-0.091l0.037,-0.09l0.039,-0.09l0.041,-0.088l0.043,-0.086l0.045,-0.086l0.047,-0.084l0.049,-0.083l0.052,-0.082l0.053,-0.081l0.054,-0.079l0.057,-0.078l0.059,-0.076l0.06,-0.075l0.062,-0.073l0.064,-0.072l0.065,-0.07l0.067,-0.069l0.069,-0.067l0.07,-0.065l0.072,-0.064l0.073,-0.062l0.075,-0.06l0.076,-0.059l0.078,-0.057l0.079,-0.054l0.081,-0.053l0.082,-0.052l0.083,-0.049l0.084,-0.047l0.086,-0.045l0.086,-0.043l0.088,-0.041l0.09,-0.039l0.09,-0.037l0.091,-0.035l0.093,-0.033l0.093,-0.03l0.094,-0.028l0.096,-0.026l0.096,-0.023l0.097,-0.022l0.098,-0.018l0.099,-0.017l0.1,-0.014l0.1,-0.011l0.101,-0.009l0.102,-0.007l0.103,-0.004l0.103,-0.001l0.103,0.001ZM11.948,13.001l-0.052,0.002l-0.052,0.003l-0.05,0.005l-0.051,0.005l-0.049,0.007l-0.05,0.008l-0.048,0.01l-0.049,0.01l-0.047,0.012l-0.047,0.013l-0.047,0.014l-0.047,0.015l-0.046,0.016l-0.045,0.017l-0.045,0.018l-0.044,0.02l-0.044,0.02l-0.043,0.022l-0.043,0.022l-0.042,0.024l-0.041,0.024l-0.042,0.026l-0.04,0.027l-0.039,0.027l-0.039,0.029l-0.039,0.029l-0.038,0.03l-0.036,0.031l-0.037,0.033l-0.035,0.033l-0.034,0.033l-0.034,0.035l-0.034,0.036l-0.031,0.035l-0.032,0.037l-0.03,0.038l-0.029,0.038l-0.029,0.04l-0.027,0.039l-0.027,0.041l-0.025,0.04l-0.025,0.042l-0.024,0.042l-0.022,0.043l-0.022,0.043l-0.02,0.044l-0.02,0.045l-0.018,0.043l-0.017,0.046l-0.016,0.046l-0.015,0.046l-0.014,0.048l-0.013,0.047l-0.012,0.047l-0.01,0.049l-0.01,0.048l-0.008,0.049l-0.007,0.05l-0.005,0.051l-0.005,0.051l-0.003,0.051l-0.002,0.051l-0.001,0.053l0.001,0.053l0.002,0.051l0.003,0.051l0.005,0.051l0.005,0.051l0.007,0.05l0.008,0.049l0.01,0.048l0.01,0.049l0.012,0.047l0.013,0.047l0.014,0.048l0.015,0.046l0.016,0.046l0.017,0.046l0.018,0.043l0.02,0.045l0.02,0.044l0.022,0.043l0.022,0.043l0.024,0.042l0.025,0.042l0.025,0.04l0.027,0.041l0.027,0.039l0.029,0.04l0.029,0.038l0.03,0.038l0.032,0.037l0.031,0.035l0.034,0.036l0.034,0.035l0.034,0.033l0.035,0.033l0.037,0.033l0.036,0.031l0.038,0.03l0.039,0.029l0.039,0.029l0.039,0.027l0.04,0.027l0.042,0.026l0.041,0.024l0.042,0.024l0.043,0.022l0.043,0.022l0.044,0.02l0.044,0.02l0.045,0.018l0.045,0.017l0.046,0.016l0.047,0.015l0.047,0.014l0.047,0.013l0.047,0.012l0.049,0.01l0.048,0.01l0.05,0.008l0.049,0.007l0.051,0.005l0.05,0.005l0.052,0.003l0.052,0.002l0.052,0.001l0.052,-0.001l0.052,-0.002l0.052,-0.003l0.05,-0.005l0.051,-0.005l0.049,-0.007l0.05,-0.008l0.048,-0.01l0.049,-0.01l0.047,-0.012l0.047,-0.013l0.047,-0.014l0.047,-0.015l0.046,-0.016l0.045,-0.017l0.045,-0.018l0.044,-0.02l0.044,-0.02l0.043,-0.022l0.043,-0.022l0.042,-0.024l0.041,-0.024l0.042,-0.026l0.04,-0.027l0.039,-0.027l0.039,-0.029l0.039,-0.029l0.038,-0.03l0.036,-0.031l0.037,-0.033l0.035,-0.033l0.034,-0.033l0.034,-0.035l0.034,-0.036l0.031,-0.035l0.032,-0.037l0.03,-0.038l0.029,-0.038l0.029,-0.04l0.027,-0.039l0.027,-0.041l0.025,-0.04l0.025,-0.042l0.024,-0.042l0.022,-0.043l0.022,-0.043l0.02,-0.044l0.02,-0.045l0.018,-0.043l0.017,-0.046l0.016,-0.046l0.015,-0.046l0.014,-0.048l0.013,-0.047l0.012,-0.047l0.01,-0.049l0.01,-0.048l0.008,-0.049l0.007,-0.05l0.005,-0.051l0.005,-0.051l0.003,-0.051l0.002,-0.051l0.001,-0.053l-0.001,-0.053l-0.002,-0.051l-0.003,-0.051l-0.005,-0.051l-0.005,-0.051l-0.007,-0.05l-0.008,-0.049l-0.01,-0.048l-0.01,-0.049l-0.012,-0.047l-0.013,-0.047l-0.014,-0.048l-0.015,-0.046l-0.016,-0.046l-0.017,-0.046l-0.018,-0.043l-0.02,-0.045l-0.02,-0.044l-0.022,-0.043l-0.022,-0.043l-0.024,-0.042l-0.025,-0.042l-0.025,-0.04l-0.027,-0.041l-0.027,-0.039l-0.029,-0.04l-0.029,-0.038l-0.03,-0.038l-0.032,-0.037l-0.031,-0.035l-0.034,-0.036l-0.034,-0.035l-0.034,-0.033l-0.035,-0.033l-0.037,-0.033l-0.036,-0.031l-0.038,-0.03l-0.039,-0.029l-0.039,-0.029l-0.039,-0.027l-0.04,-0.027l-0.042,-0.026l-0.041,-0.024l-0.042,-0.024l-0.043,-0.022l-0.043,-0.022l-0.044,-0.02l-0.044,-0.02l-0.045,-0.018l-0.045,-0.017l-0.046,-0.016l-0.047,-0.015l-0.047,-0.014l-0.047,-0.013l-0.047,-0.012l-0.049,-0.01l-0.048,-0.01l-0.05,-0.008l-0.049,-0.007l-0.051,-0.005l-0.05,-0.005l-0.052,-0.003l-0.052,-0.002l-0.052,-0.001l-0.052,0.001Z" style="fill:#000;"/><circle cx="12.01" cy="7.5" r="2.5" style="fill:#000;"/><circle cx="12" cy="15" r="1" style="fill:#000;"/></g></svg>