<?xml version="1.0" encoding="UTF-8" standalone="no"?><!DOCTYPE svg PUBLIC "-//W3C//DTD SVG 1.1//EN" "http://www.w3.org/Graphics/SVG/1.1/DTD/svg11.dtd"><svg width="100%" height="100%" viewBox="0 0 24 24" version="1.1" xmlns="http://www.w3.org/2000/svg" xmlns:xlink="http://www.w3.org/1999/xlink" xml:space="preserve" style="fill-rule:evenodd;clip-rule:evenodd;stroke-linejoin:round;stroke-miterlimit:1.41421;"><g id="tablet"><path d="M20.034,4c0.227,0.003 0.45,0.039 0.663,0.115c0.549,0.197 0.991,0.639 1.188,1.188c0.071,0.198 0.107,0.404 0.114,0.614c0.055,4.388 0.055,8.778 0,13.166c-0.008,0.226 -0.049,0.448 -0.131,0.659c-0.204,0.529 -0.637,0.952 -1.171,1.143c-0.198,0.071 -0.404,0.107 -0.614,0.114c-5.388,0.067 -10.778,0.067 -16.166,0c-0.226,-0.008 -0.448,-0.049 -0.659,-0.131c-0.529,-0.204 -0.952,-0.637 -1.143,-1.171c-0.071,-0.198 -0.107,-0.404 -0.114,-0.614c-0.055,-4.388 -0.055,-8.778 0,-13.166c0.008,-0.226 0.049,-0.448 0.131,-0.659c0.204,-0.529 0.637,-0.952 1.171,-1.143c0.198,-0.071 0.404,-0.107 0.614,-0.114c5.372,-0.067 10.745,-0.001 16.117,-0.001ZM20,18l-16,0l0,1l16,0l0,-1ZM4,9l0,7l16,0l0,-7l-16,0ZM20,7l0,-1c-5.333,0 -10.667,0 -16,0l0,1l16,0Z" style="fill:#000;"/></g></svg>