<?xml version="1.0" encoding="UTF-8" standalone="no"?><!DOCTYPE svg PUBLIC "-//W3C//DTD SVG 1.1//EN" "http://www.w3.org/Graphics/SVG/1.1/DTD/svg11.dtd"><svg width="100%" height="100%" viewBox="0 0 24 24" version="1.1" xmlns="http://www.w3.org/2000/svg" xmlns:xlink="http://www.w3.org/1999/xlink" xml:space="preserve" style="fill-rule:evenodd;clip-rule:evenodd;stroke-linejoin:round;stroke-miterlimit:1.41421;"><g id="tag"><path d="M12.053,3.011c0.36,0.013 0.71,0.113 1.016,0.305c0.111,0.069 0.213,0.15 0.309,0.239c2.447,2.367 4.866,4.763 7.253,7.19c0.147,0.156 0.27,0.33 0.362,0.523c0.249,0.522 0.258,1.138 0.024,1.667c-0.093,0.211 -0.223,0.4 -0.38,0.569c-2.348,2.407 -4.726,4.785 -7.133,7.133c-0.169,0.157 -0.358,0.287 -0.569,0.38c-0.529,0.233 -1.145,0.224 -1.667,-0.025c-0.193,-0.092 -0.367,-0.215 -0.523,-0.361c-2.421,-2.384 -4.811,-4.797 -7.172,-7.239c-0.088,-0.097 -0.169,-0.198 -0.238,-0.309c-0.192,-0.305 -0.292,-0.653 -0.305,-1.012c-0.029,-2.367 -0.03,-4.734 0,-7.1c0.009,-0.234 0.052,-0.463 0.137,-0.68c0.207,-0.526 0.639,-0.949 1.17,-1.144c0.204,-0.075 0.417,-0.112 0.634,-0.121c2.36,-0.035 4.722,-0.039 7.082,-0.015ZM5.038,5.025l-0.009,0c-0.029,2.328 0,4.656 0,6.985l0,0.01c2.334,2.416 4.728,4.773 7.092,7.159l0.007,0.007c2.378,-2.323 4.701,-4.701 7.052,-7.052l0.006,-0.006c-2.361,-2.4 -4.781,-4.74 -7.171,-7.109l-0.008,-0.008c-2.323,-0.024 -4.646,0.009 -6.969,0.014Z" style="fill:#000;fill-rule:nonzero;"/><path d="M10,7.172c0.781,0.78 0.781,2.047 0,2.828c-0.781,0.781 -2.048,0.781 -2.828,0c-0.781,-0.781 -0.781,-2.048 0,-2.828c0.78,-0.781 2.047,-0.781 2.828,0Z" style="fill:#000;"/></g></svg>