<?xml version="1.0" encoding="UTF-8" standalone="no"?><!DOCTYPE svg PUBLIC "-//W3C//DTD SVG 1.1//EN" "http://www.w3.org/Graphics/SVG/1.1/DTD/svg11.dtd"><svg width="100%" height="100%" viewBox="0 0 24 24" version="1.1" xmlns="http://www.w3.org/2000/svg" xmlns:xlink="http://www.w3.org/1999/xlink" xml:space="preserve" style="fill-rule:evenodd;clip-rule:evenodd;stroke-linejoin:round;stroke-miterlimit:1.41421;"><g id="ticket"><path d="M16.972,2.537l0.048,0.002l0.049,0.002l0.047,0.004l0.048,0.006l0.048,0.006l0.047,0.007l0.048,0.009l0.047,0.009l0.046,0.011l0.047,0.012l0.046,0.013l0.046,0.014l0.046,0.015l0.045,0.017l0.044,0.017l0.045,0.018l0.044,0.02l0.043,0.02l0.043,0.022l0.043,0.023l0.042,0.023l0.041,0.025l0.041,0.026l0.041,0.026l0.039,0.028l0.04,0.029l0.038,0.03l0.038,0.031l0.037,0.032l0.037,0.033l0.035,0.033l0.035,0.035l0.034,0.036l0.034,0.037l0.032,0.037l0.032,0.039l0.031,0.04l0.03,0.04l0.029,0.042l0.029,0.042l0.027,0.044l0.026,0.044l1,1.732l-0.044,0.026l-0.044,0.028l-0.042,0.028l-0.042,0.03l-0.04,0.03l-0.04,0.031l-0.039,0.032l-0.037,0.032l-0.037,0.034l-0.036,0.034l-0.035,0.035l-0.034,0.036l-0.033,0.037l-0.032,0.037l-0.03,0.038l-0.03,0.038l-0.029,0.04l-0.028,0.04l-0.027,0.04l-0.025,0.041l-0.025,0.042l-0.024,0.042l-0.023,0.042l-0.021,0.043l-0.021,0.044l-0.019,0.044l-0.019,0.044l-0.017,0.045l-0.016,0.045l-0.015,0.046l-0.014,0.046l-0.013,0.046l-0.012,0.046l-0.011,0.047l-0.009,0.047l-0.009,0.047l-0.007,0.048l-0.007,0.047l-0.005,0.048l-0.004,0.048l-0.003,0.048l-0.001,0.048l-0.001,0.049l0.001,0.048l0.002,0.048l0.003,0.049l0.004,0.048l0.005,0.048l0.007,0.048l0.008,0.049l0.009,0.048l0.01,0.048l0.011,0.048l0.013,0.047l0.014,0.048l0.015,0.047l0.016,0.047l0.018,0.047l0.019,0.047l0.02,0.046l0.021,0.046l0.023,0.046l0.024,0.045l0.025,0.045l0.027,0.044l0.027,0.044l0.028,0.042l0.029,0.042l0.03,0.04l0.031,0.04l0.032,0.039l0.033,0.037l0.033,0.037l0.034,0.036l0.035,0.035l0.036,0.033l0.036,0.033l0.038,0.032l0.037,0.031l0.039,0.03l0.039,0.029l0.04,0.027l0.04,0.027l0.041,0.026l0.042,0.025l0.042,0.023l0.042,0.023l0.043,0.022l0.044,0.02l0.044,0.02l0.044,0.018l0.045,0.017l0.045,0.017l0.045,0.015l0.046,0.014l0.047,0.013l0.046,0.012l0.047,0.01l0.047,0.01l0.047,0.009l0.048,0.007l0.047,0.006l0.048,0.005l0.048,0.004l0.048,0.003l0.048,0.002l0.049,0l0.048,0l0.048,-0.002l0.049,-0.003l0.048,-0.004l0.049,-0.005l0.048,-0.007l0.048,-0.008l0.048,-0.009l0.048,-0.01l0.048,-0.011l0.048,-0.013l0.048,-0.014l0.047,-0.015l0.047,-0.016l0.047,-0.018l0.047,-0.019l0.047,-0.02l0.046,-0.021l0.046,-0.023l0.045,-0.024l0.045,-0.025l1,1.732l0.025,0.045l0.024,0.045l0.023,0.046l0.021,0.046l0.021,0.046l0.018,0.047l0.018,0.047l0.016,0.047l0.015,0.047l0.014,0.048l0.013,0.047l0.011,0.048l0.011,0.048l0.009,0.048l0.007,0.049l0.007,0.048l0.005,0.048l0.005,0.049l0.003,0.048l0.001,0.048l0.001,0.049l0,0.048l-0.002,0.048l-0.003,0.048l-0.004,0.048l-0.005,0.048l-0.006,0.047l-0.008,0.048l-0.008,0.047l-0.01,0.047l-0.01,0.047l-0.012,0.046l-0.013,0.046l-0.014,0.046l-0.015,0.046l-0.017,0.045l-0.017,0.045l-0.018,0.044l-0.02,0.044l-0.02,0.044l-0.022,0.043l-0.023,0.042l-0.023,0.043l-0.025,0.041l-0.026,0.041l-0.027,0.041l-0.027,0.039l-0.029,0.04l-0.03,0.038l-0.031,0.038l-0.032,0.037l-0.033,0.037l-0.034,0.036l-0.034,0.035l-0.036,0.034l-0.037,0.034l-0.038,0.032l-0.039,0.032l-0.039,0.031l-0.041,0.031l-0.041,0.029l-0.043,0.028l-0.043,0.028l-0.045,0.026l-13.856,8l-0.045,0.025l-0.046,0.024l-0.045,0.023l-0.046,0.021l-0.047,0.021l-0.046,0.018l-0.047,0.018l-0.047,0.016l-0.048,0.015l-0.047,0.014l-0.048,0.013l-0.048,0.011l-0.048,0.011l-0.048,0.009l-0.048,0.007l-0.049,0.007l-0.048,0.005l-0.049,0.005l-0.048,0.003l-0.048,0.001l-0.049,0.001l-0.048,0l-0.048,-0.002l-0.048,-0.003l-0.048,-0.004l-0.048,-0.005l-0.048,-0.006l-0.047,-0.008l-0.047,-0.008l-0.047,-0.01l-0.047,-0.011l-0.047,-0.011l-0.046,-0.013l-0.046,-0.014l-0.045,-0.016l-0.046,-0.016l-0.044,-0.017l-0.045,-0.019l-0.044,-0.019l-0.043,-0.021l-0.043,-0.021l-0.043,-0.023l-0.042,-0.024l-0.042,-0.024l-0.041,-0.026l-0.04,-0.027l-0.04,-0.028l-0.039,-0.029l-0.039,-0.029l-0.037,-0.031l-0.038,-0.032l-0.036,-0.033l-0.036,-0.034l-0.035,-0.035l-0.034,-0.036l-0.034,-0.036l-0.032,-0.038l-0.032,-0.039l-0.031,-0.039l-0.03,-0.041l-0.029,-0.042l-0.029,-0.042l-0.027,-0.044l-0.026,-0.044l-1,-1.732l0.044,-0.026l0.044,-0.028l0.042,-0.028l0.042,-0.03l0.04,-0.03l0.04,-0.031l0.039,-0.032l0.037,-0.032l0.037,-0.034l0.036,-0.034l0.035,-0.035l0.034,-0.036l0.033,-0.037l0.032,-0.037l0.03,-0.038l0.03,-0.038l0.029,-0.04l0.028,-0.04l0.027,-0.04l0.025,-0.041l0.025,-0.042l0.024,-0.042l0.023,-0.042l0.021,-0.043l0.021,-0.044l0.019,-0.044l0.019,-0.044l0.017,-0.045l0.016,-0.045l0.015,-0.046l0.014,-0.046l0.013,-0.046l0.012,-0.046l0.011,-0.047l0.009,-0.047l0.009,-0.047l0.007,-0.048l0.007,-0.047l0.005,-0.048l0.004,-0.048l0.003,-0.048l0.001,-0.048l0.001,-0.049l-0.001,-0.048l-0.002,-0.048l-0.003,-0.049l-0.004,-0.048l-0.005,-0.048l-0.007,-0.048l-0.008,-0.049l-0.009,-0.048l-0.01,-0.048l-0.011,-0.048l-0.013,-0.047l-0.014,-0.048l-0.015,-0.047l-0.016,-0.047l-0.018,-0.047l-0.019,-0.047l-0.02,-0.046l-0.021,-0.046l-0.023,-0.046l-0.024,-0.045l-0.025,-0.045l-0.027,-0.044l-0.027,-0.044l-0.028,-0.042l-0.029,-0.042l-0.03,-0.04l-0.031,-0.04l-0.032,-0.039l-0.033,-0.037l-0.033,-0.037l-0.034,-0.036l-0.035,-0.035l-0.036,-0.033l-0.036,-0.033l-0.038,-0.032l-0.037,-0.031l-0.039,-0.03l-0.039,-0.029l-0.04,-0.027l-0.04,-0.027l-0.041,-0.026l-0.042,-0.025l-0.042,-0.023l-0.042,-0.023l-0.043,-0.022l-0.044,-0.02l-0.044,-0.02l-0.044,-0.018l-0.045,-0.017l-0.045,-0.017l-0.045,-0.015l-0.046,-0.014l-0.047,-0.013l-0.046,-0.012l-0.047,-0.01l-0.047,-0.01l-0.047,-0.009l-0.048,-0.007l-0.047,-0.006l-0.048,-0.005l-0.048,-0.004l-0.048,-0.003l-0.048,-0.002l-0.049,0l-0.048,0l-0.048,0.002l-0.049,0.003l-0.048,0.004l-0.049,0.005l-0.048,0.007l-0.048,0.008l-0.048,0.009l-0.048,0.01l-0.048,0.011l-0.048,0.013l-0.048,0.014l-0.047,0.015l-0.047,0.016l-0.047,0.018l-0.047,0.019l-0.047,0.02l-0.046,0.021l-0.046,0.023l-0.045,0.024l-0.045,0.025l-1,-1.732l-0.025,-0.045l-0.024,-0.045l-0.023,-0.046l-0.021,-0.046l-0.021,-0.046l-0.018,-0.047l-0.018,-0.047l-0.016,-0.047l-0.015,-0.047l-0.014,-0.048l-0.013,-0.047l-0.011,-0.048l-0.011,-0.048l-0.009,-0.048l-0.007,-0.049l-0.007,-0.048l-0.005,-0.048l-0.005,-0.049l-0.003,-0.048l-0.001,-0.048l-0.001,-0.049l0,-0.048l0.002,-0.048l0.003,-0.048l0.004,-0.048l0.005,-0.048l0.006,-0.047l0.008,-0.048l0.008,-0.047l0.01,-0.047l0.01,-0.047l0.012,-0.046l0.013,-0.046l0.014,-0.046l0.015,-0.046l0.017,-0.045l0.017,-0.045l0.018,-0.044l0.02,-0.044l0.02,-0.044l0.022,-0.043l0.023,-0.042l0.023,-0.043l0.025,-0.041l0.026,-0.041l0.027,-0.041l0.027,-0.039l0.029,-0.04l0.03,-0.038l0.031,-0.038l0.032,-0.037l0.033,-0.037l0.034,-0.036l0.034,-0.035l0.036,-0.034l0.037,-0.034l0.038,-0.032l0.039,-0.032l0.039,-0.031l0.041,-0.031l0.041,-0.029l0.043,-0.028l0.043,-0.028l0.045,-0.026l13.856,-8l0.045,-0.025l0.046,-0.024l0.046,-0.023l0.046,-0.021l0.046,-0.02l0.047,-0.019l0.047,-0.018l0.047,-0.016l0.048,-0.015l0.047,-0.014l0.048,-0.013l0.048,-0.011l0.048,-0.01l0.048,-0.009l0.049,-0.008l0.048,-0.007l0.048,-0.005l0.049,-0.004l0.048,-0.003l0.049,-0.002l0.048,-0.001l0.048,0.001Zm-0.046,2l-0.01,0.006l-13.832,7.986l-0.01,0.006l-0.001,0.001l0,0l-0.001,0.001l0,0l0.006,0.01l0.262,0.453l0.089,0.001l0.096,0.004l0.097,0.005l0.096,0.008l0.095,0.011l0.095,0.012l0.094,0.015l0.095,0.017l0.094,0.019l0.094,0.022l0.092,0.023l0.092,0.026l0.091,0.028l0.091,0.03l0.09,0.033l0.089,0.034l0.088,0.037l0.089,0.039l0.087,0.041l0.086,0.043l0.085,0.046l0.084,0.047l0.082,0.049l0.082,0.052l0.081,0.053l0.08,0.056l0.079,0.058l0.077,0.061l0.076,0.061l0.075,0.064l0.073,0.066l0.072,0.068l0.07,0.07l0.069,0.072l0.067,0.074l0.065,0.075l0.064,0.078l0.062,0.079l0.06,0.081l0.058,0.084l0.057,0.084l0.054,0.086l0.052,0.087l0.05,0.09l0.048,0.091l0.045,0.09l0.042,0.092l0.041,0.093l0.037,0.093l0.035,0.094l0.033,0.094l0.031,0.096l0.028,0.095l0.025,0.095l0.023,0.097l0.021,0.096l0.018,0.097l0.015,0.096l0.014,0.098l0.01,0.096l0.009,0.097l0.006,0.098l0.003,0.096l0.002,0.097l-0.001,0.097l-0.004,0.096l-0.005,0.096l-0.008,0.096l-0.01,0.095l-0.013,0.095l-0.014,0.094l-0.017,0.095l-0.02,0.094l-0.021,0.093l-0.024,0.092l-0.026,0.093l-0.027,0.091l-0.031,0.091l-0.032,0.09l-0.034,0.089l-0.037,0.089l-0.039,0.088l-0.041,0.087l-0.043,0.086l-0.046,0.085l-0.043,0.078l0.261,0.453l0.007,0.011l0,0l0.011,-0.006l13.832,-7.987l0.011,-0.006l0.001,0l0,-0.001l0,0l0.001,-0.001l0,0l-0.006,-0.01l-0.262,-0.453l-0.089,-0.001l-0.096,-0.004l-0.097,-0.005l-0.095,-0.008l-0.096,-0.011l-0.096,-0.012l-0.093,-0.015l-0.095,-0.017l-0.094,-0.019l-0.092,-0.021l-0.094,-0.024l-0.092,-0.026l-0.091,-0.028l-0.091,-0.03l-0.09,-0.033l-0.09,-0.035l-0.088,-0.036l-0.087,-0.039l-0.086,-0.041l-0.088,-0.043l-0.085,-0.046l-0.084,-0.047l-0.082,-0.049l-0.082,-0.052l-0.082,-0.054l-0.08,-0.056l-0.078,-0.057l-0.077,-0.06l-0.076,-0.062l-0.075,-0.064l-0.073,-0.066l-0.072,-0.068l-0.071,-0.07l-0.068,-0.072l-0.067,-0.073l-0.065,-0.076l-0.064,-0.078l-0.062,-0.08l-0.06,-0.08l-0.058,-0.083l-0.057,-0.085l-0.054,-0.086l-0.052,-0.088l-0.05,-0.089l-0.047,-0.09l-0.046,-0.091l-0.042,-0.092l-0.041,-0.093l-0.037,-0.093l-0.036,-0.094l-0.032,-0.094l-0.031,-0.095l-0.028,-0.096l-0.025,-0.096l-0.023,-0.096l-0.021,-0.096l-0.018,-0.097l-0.015,-0.097l-0.013,-0.096l-0.011,-0.098l-0.009,-0.097l-0.006,-0.096l-0.003,-0.097l-0.002,-0.097l0.001,-0.096l0.004,-0.097l0.005,-0.096l0.008,-0.095l0.01,-0.096l0.013,-0.095l0.014,-0.095l0.017,-0.094l0.02,-0.094l0.021,-0.093l0.024,-0.092l0.025,-0.093l0.028,-0.091l0.031,-0.09l0.032,-0.091l0.035,-0.089l0.036,-0.089l0.039,-0.088l0.041,-0.087l0.043,-0.085l0.045,-0.086l0.044,-0.078l-0.262,-0.453l-0.005,-0.01l-0.001,0l-0.001,0l-0.001,0Z"/><rect x="0" y="0" width="24" height="24" style="fill:none;"/></g></svg>