<?xml version="1.0" encoding="UTF-8" standalone="no"?><!DOCTYPE svg PUBLIC "-//W3C//DTD SVG 1.1//EN" "http://www.w3.org/Graphics/SVG/1.1/DTD/svg11.dtd"><svg width="100%" height="100%" viewBox="0 0 24 24" version="1.1" xmlns="http://www.w3.org/2000/svg" xmlns:xlink="http://www.w3.org/1999/xlink" xml:space="preserve" style="fill-rule:evenodd;clip-rule:evenodd;stroke-linejoin:round;stroke-miterlimit:1.41421;"><g id="trending_up"><path d="M20.238,10.228l-6.408,7l-0.057,0.057c-0.062,0.053 -0.123,0.102 -0.195,0.142c-0.212,0.118 -0.465,0.155 -0.702,0.102c-0.107,-0.024 -0.203,-0.067 -0.298,-0.119l-4.368,-2.621l-5.043,4.509l-1.334,-1.491l5.593,-5l0.061,-0.05c0.066,-0.046 0.131,-0.088 0.205,-0.12c0.194,-0.086 0.414,-0.106 0.621,-0.059c0.106,0.023 0.2,0.066 0.294,0.117l4.299,2.58l5.856,-6.397c0.492,0.45 0.984,0.9 1.476,1.35Z" style="fill:#000;fill-rule:nonzero;"/><path d="M21.472,6.479l0.289,6.397l-6.466,-4.711l6.177,-1.686Z" style="fill:#000;"/></g></svg>