<?xml version="1.0" encoding="UTF-8" standalone="no"?><!DOCTYPE svg PUBLIC "-//W3C//DTD SVG 1.1//EN" "http://www.w3.org/Graphics/SVG/1.1/DTD/svg11.dtd"><svg width="100%" height="100%" viewBox="0 0 24 24" version="1.1" xmlns="http://www.w3.org/2000/svg" xmlns:xlink="http://www.w3.org/1999/xlink" xml:space="preserve" style="fill-rule:evenodd;clip-rule:evenodd;stroke-linejoin:round;stroke-miterlimit:1.41421;"><g id="trending_down"><path d="M8.846,11.2l4.368,-2.621l0.07,-0.038c0.099,-0.044 0.196,-0.079 0.303,-0.094c0.238,-0.034 0.485,0.02 0.686,0.15c0.068,0.045 0.126,0.097 0.183,0.153l5.771,6.117l-1.454,1.372l-5.219,-5.531l-4.311,2.586l-0.069,0.038c-0.074,0.033 -0.145,0.062 -0.224,0.08c-0.207,0.047 -0.427,0.026 -0.622,-0.059c-0.098,-0.043 -0.183,-0.103 -0.266,-0.171l-5.592,-5l1.333,-1.491c1.681,1.503 3.362,3.006 5.043,4.509Z" style="fill:#000;fill-rule:nonzero;"/><path d="M21.133,17.916l-6.241,-1.43l6.267,-4.973l-0.026,6.403Z" style="fill:#000;"/></g></svg>