<?xml version="1.0" encoding="UTF-8" standalone="no"?><!DOCTYPE svg PUBLIC "-//W3C//DTD SVG 1.1//EN" "http://www.w3.org/Graphics/SVG/1.1/DTD/svg11.dtd"><svg width="100%" height="100%" viewBox="0 0 24 24" version="1.1" xmlns="http://www.w3.org/2000/svg" xmlns:xlink="http://www.w3.org/1999/xlink" xml:space="preserve" style="fill-rule:evenodd;clip-rule:evenodd;stroke-linejoin:round;stroke-miterlimit:1.41421;"><g id="turnoff"><path d="M8,4.937l0,2.321c-0.914,0.639 -1.674,1.494 -2.196,2.483c-0.306,0.581 -0.53,1.204 -0.662,1.848c-0.161,0.785 -0.185,1.598 -0.074,2.391c0.096,0.683 0.293,1.351 0.585,1.975c0.357,0.765 0.854,1.463 1.458,2.052c0.625,0.61 1.363,1.103 2.167,1.443c0.831,0.352 1.729,0.538 2.631,0.549c0.906,0.012 1.812,-0.151 2.656,-0.484c0.812,-0.321 1.562,-0.796 2.202,-1.391c0.617,-0.575 1.13,-1.261 1.506,-2.016c0.319,-0.642 0.538,-1.332 0.646,-2.041c0.121,-0.792 0.107,-1.606 -0.044,-2.393c-0.119,-0.618 -0.322,-1.219 -0.602,-1.782c-0.523,-1.052 -1.313,-1.963 -2.273,-2.635l0,-2.32c1.716,0.855 3.14,2.26 4.015,3.967c0.386,0.754 0.664,1.562 0.824,2.393c0.187,0.974 0.211,1.979 0.074,2.961c-0.129,0.915 -0.4,1.81 -0.801,2.642c-0.471,0.977 -1.119,1.866 -1.904,2.614c-0.812,0.774 -1.768,1.396 -2.807,1.82c-1.077,0.441 -2.238,0.666 -3.401,0.666c-1.163,0 -2.324,-0.225 -3.401,-0.666c-1.039,-0.424 -1.995,-1.046 -2.807,-1.82c-0.785,-0.748 -1.433,-1.637 -1.904,-2.614c-0.401,-0.832 -0.672,-1.727 -0.801,-2.642c-0.137,-0.982 -0.113,-1.987 0.074,-2.961c0.16,-0.831 0.438,-1.639 0.824,-2.393c0.875,-1.707 2.299,-3.112 4.015,-3.967Z" style="fill:#000;"/><rect x="11" y="3" width="2" height="9" style="fill:#000;fill-rule:nonzero;"/></g></svg>