<?xml version="1.0" encoding="UTF-8" standalone="no"?><!DOCTYPE svg PUBLIC "-//W3C//DTD SVG 1.1//EN" "http://www.w3.org/Graphics/SVG/1.1/DTD/svg11.dtd"><svg width="100%" height="100%" viewBox="0 0 24 24" version="1.1" xmlns="http://www.w3.org/2000/svg" xmlns:xlink="http://www.w3.org/1999/xlink" xml:space="preserve" style="fill-rule:evenodd;clip-rule:evenodd;stroke-linejoin:round;stroke-miterlimit:1.41421;"><g id="tv"><path d="M20.047,4.001l0.049,0.001l0.05,0.004l0.049,0.004l0.049,0.005l0.049,0.007l0.048,0.008l0.048,0.009l0.048,0.01l0.048,0.011l0.047,0.013l0.047,0.014l0.047,0.014l0.046,0.016l0.046,0.017l0.045,0.018l0.045,0.02l0.045,0.02l0.044,0.021l0.043,0.023l0.043,0.024l0.042,0.024l0.042,0.026l0.041,0.027l0.041,0.027l0.04,0.029l0.039,0.03l0.038,0.031l0.038,0.031l0.037,0.033l0.037,0.034l0.035,0.035l0.035,0.035l0.034,0.037l0.033,0.037l0.031,0.038l0.031,0.038l0.03,0.039l0.029,0.04l0.027,0.041l0.027,0.041l0.026,0.042l0.024,0.042l0.024,0.043l0.023,0.043l0.021,0.044l0.02,0.045l0.02,0.045l0.018,0.045l0.017,0.046l0.016,0.046l0.014,0.047l0.014,0.047l0.013,0.047l0.011,0.048l0.01,0.048l0.009,0.048l0.008,0.048l0.007,0.049l0.005,0.049l0.004,0.049l0.004,0.05l0.001,0.049l0.001,0.05l0,9.994l-0.001,0.05l-0.001,0.049l-0.004,0.05l-0.004,0.049l-0.005,0.049l-0.007,0.049l-0.008,0.048l-0.009,0.048l-0.01,0.048l-0.011,0.048l-0.013,0.047l-0.014,0.047l-0.014,0.047l-0.016,0.046l-0.017,0.046l-0.018,0.045l-0.02,0.045l-0.02,0.045l-0.021,0.044l-0.023,0.043l-0.024,0.043l-0.024,0.042l-0.026,0.042l-0.027,0.041l-0.027,0.041l-0.029,0.04l-0.03,0.039l-0.031,0.038l-0.031,0.038l-0.033,0.037l-0.034,0.037l-0.035,0.035l-0.035,0.035l-0.037,0.034l-0.037,0.033l-0.038,0.031l-0.038,0.031l-0.039,0.03l-0.04,0.029l-0.041,0.027l-0.041,0.027l-0.042,0.026l-0.042,0.024l-0.043,0.024l-0.043,0.023l-0.044,0.021l-0.045,0.02l-0.045,0.02l-0.045,0.018l-0.046,0.017l-0.046,0.016l-0.047,0.014l-0.047,0.014l-0.047,0.013l-0.048,0.011l-0.048,0.01l-0.048,0.009l-0.048,0.008l-0.049,0.007l-0.049,0.005l-0.049,0.004l-0.05,0.004l-0.049,0.001l-0.05,0.001l-15.994,0l-0.05,-0.001l-0.049,-0.001l-0.05,-0.004l-0.049,-0.004l-0.049,-0.005l-0.049,-0.007l-0.048,-0.008l-0.048,-0.009l-0.048,-0.01l-0.048,-0.011l-0.047,-0.013l-0.047,-0.014l-0.047,-0.014l-0.046,-0.016l-0.046,-0.017l-0.045,-0.018l-0.045,-0.02l-0.045,-0.02l-0.044,-0.021l-0.043,-0.023l-0.043,-0.024l-0.042,-0.024l-0.042,-0.026l-0.041,-0.027l-0.041,-0.027l-0.04,-0.029l-0.039,-0.03l-0.038,-0.031l-0.038,-0.031l-0.037,-0.033l-0.037,-0.034l-0.035,-0.035l-0.035,-0.035l-0.034,-0.037l-0.033,-0.037l-0.031,-0.038l-0.031,-0.038l-0.03,-0.039l-0.029,-0.04l-0.027,-0.041l-0.027,-0.041l-0.026,-0.042l-0.024,-0.042l-0.024,-0.043l-0.023,-0.043l-0.021,-0.044l-0.02,-0.045l-0.02,-0.045l-0.018,-0.045l-0.017,-0.046l-0.016,-0.046l-0.014,-0.047l-0.014,-0.047l-0.013,-0.047l-0.011,-0.048l-0.01,-0.048l-0.009,-0.048l-0.008,-0.048l-0.007,-0.049l-0.005,-0.049l-0.004,-0.049l-0.004,-0.05l-0.001,-0.049l-0.001,-0.05l0,-9.994l0.001,-0.05l0.001,-0.049l0.004,-0.05l0.004,-0.049l0.005,-0.049l0.007,-0.049l0.008,-0.048l0.009,-0.048l0.01,-0.048l0.011,-0.048l0.013,-0.047l0.014,-0.047l0.014,-0.047l0.016,-0.046l0.017,-0.046l0.018,-0.045l0.02,-0.045l0.02,-0.045l0.021,-0.044l0.023,-0.043l0.024,-0.043l0.024,-0.042l0.026,-0.042l0.027,-0.041l0.027,-0.041l0.029,-0.04l0.03,-0.039l0.031,-0.038l0.031,-0.038l0.033,-0.037l0.034,-0.037l0.035,-0.035l0.035,-0.035l0.037,-0.034l0.037,-0.033l0.038,-0.031l0.038,-0.031l0.039,-0.03l0.04,-0.029l0.041,-0.027l0.041,-0.027l0.042,-0.026l0.042,-0.024l0.043,-0.024l0.043,-0.023l0.044,-0.021l0.045,-0.02l0.045,-0.02l0.045,-0.018l0.046,-0.017l0.046,-0.016l0.047,-0.014l0.047,-0.014l0.047,-0.013l0.048,-0.011l0.048,-0.01l0.048,-0.009l0.048,-0.008l0.049,-0.007l0.049,-0.005l0.049,-0.004l0.05,-0.004l0.049,-0.001l0.05,-0.001l15.994,0l0.05,0.001ZM4.016,6l-0.013,0l0,0l-0.001,0l0,0l0,0l0,0.001l0,0l0,0l-0.001,0l0,0l0,0l0,0l0,0l0,0l0,0l0,0.001l0,0l-0.001,0l0,0l0,0l0,0l0,0l0,0l0,0.001l0,0l0,0l0,0l0,0l0,0.013l0,9.968l0,0.014l0.003,0.002l0.013,0l15.968,0l0.012,0l0.001,0l0,0l0.001,0l0,-0.001l0.001,0l0,0l0,0l0,0l0.001,-0.001l0,0l0,0l0,-0.001l0,0l0,-0.013l0,-9.968l0,-0.013l0,0l0,0l0,0l0,0l0,-0.001l0,0l0,0l0,0l0,0l0,0l-0.001,0l0,0l0,-0.001l0,0l0,0l0,0l0,0l0,0l0,0l-0.001,0l0,0l0,0l0,-0.001l0,0l0,0l-0.001,0l0,0l-0.013,0l-15.968,0Z" style="fill:#000;"/><path d="M18.002,20l-11.978,0l2.994,-2l5.989,0l2.995,2Z" style="fill:#000;"/></g></svg>