<?xml version="1.0" encoding="UTF-8" standalone="no"?><!DOCTYPE svg PUBLIC "-//W3C//DTD SVG 1.1//EN" "http://www.w3.org/Graphics/SVG/1.1/DTD/svg11.dtd"><svg width="100%" height="100%" viewBox="0 0 24 24" version="1.1" xmlns="http://www.w3.org/2000/svg" xmlns:xlink="http://www.w3.org/1999/xlink" xml:space="preserve" style="fill-rule:evenodd;clip-rule:evenodd;stroke-linejoin:round;stroke-miterlimit:1.41421;"><g id="twitter"><path d="M21.999,5.925c-0.738,0.325 -1.525,0.546 -2.357,0.646c0.847,-0.508 1.498,-1.312 1.804,-2.27c-0.792,0.469 -1.671,0.81 -2.606,0.994c-0.748,-0.797 -1.813,-1.295 -2.995,-1.295c-2.265,0 -4.103,1.835 -4.103,4.1c0,0.323 0.038,0.638 0.107,0.938c-3.41,-0.173 -6.434,-1.805 -8.458,-4.285c-0.355,0.603 -0.555,1.308 -0.555,2.062c0,1.425 0.725,2.679 1.825,3.415c-0.672,-0.021 -1.306,-0.206 -1.859,-0.512l0,0.05c0,1.987 1.413,3.647 3.292,4.025c-0.345,0.092 -0.708,0.142 -1.082,0.142c-0.262,0 -0.52,-0.025 -0.771,-0.072c0.523,1.629 2.038,2.816 3.834,2.849c-1.405,1.1 -3.175,1.755 -5.096,1.755c-0.332,0 -0.658,-0.018 -0.979,-0.056c1.816,1.163 3.972,1.843 6.29,1.843c7.547,0 11.675,-6.25 11.675,-11.673c0,-0.178 -0.005,-0.355 -0.013,-0.531c0.8,-0.579 1.498,-1.3 2.048,-2.125l-0.001,0Z" style="fill:#000;fill-rule:nonzero;"/></g></svg>