<?xml version="1.0" encoding="UTF-8" standalone="no"?><!DOCTYPE svg PUBLIC "-//W3C//DTD SVG 1.1//EN" "http://www.w3.org/Graphics/SVG/1.1/DTD/svg11.dtd"><svg width="100%" height="100%" viewBox="0 0 24 24" version="1.1" xmlns="http://www.w3.org/2000/svg" xmlns:xlink="http://www.w3.org/1999/xlink" xml:space="preserve" style="fill-rule:evenodd;clip-rule:evenodd;stroke-linejoin:round;stroke-miterlimit:1.41421;"><g id="unlock"><path d="M18.052,9.001c0.234,0.009 0.463,0.052 0.681,0.138c0.527,0.208 0.951,0.642 1.146,1.174c0.075,0.204 0.112,0.418 0.12,0.635c0.039,3.035 0.039,6.069 0,9.104c-0.008,0.217 -0.045,0.431 -0.12,0.635c-0.195,0.532 -0.619,0.966 -1.146,1.174c-0.218,0.086 -0.447,0.129 -0.681,0.138c-4.034,0.051 -8.07,0.051 -12.104,0c-0.234,-0.009 -0.463,-0.052 -0.681,-0.138c-0.527,-0.208 -0.951,-0.642 -1.146,-1.174c-0.075,-0.204 -0.112,-0.418 -0.12,-0.635c-0.039,-3.035 -0.039,-6.069 0,-9.104c0.008,-0.217 0.045,-0.431 0.12,-0.635c0.195,-0.532 0.619,-0.966 1.146,-1.174c0.218,-0.086 0.447,-0.129 0.681,-0.138c4.034,-0.051 8.07,-0.051 12.104,0ZM6.013,11c-0.005,0 -0.01,-0.002 -0.013,0c-0.003,0.003 0,0.009 0,0.013c0,2.991 0,5.983 0,8.974c0,0.004 -0.003,0.01 0,0.013c0.003,0.002 0.008,0 0.013,0c3.991,0 7.983,0 11.974,0c0.005,0 0.01,0.002 0.013,0c0.003,-0.003 0,-0.009 0,-0.013c0,-2.991 0,-5.983 0,-8.974c0,-0.004 0.003,-0.01 0,-0.013c-0.003,-0.002 -0.008,0 -0.013,0c-3.991,0 -7.983,0 -11.974,0Z" style="fill:#000;fill-rule:nonzero;"/><circle cx="12" cy="16" r="2" style="fill:#000;"/><path d="M18,11l-12,0c0,-1.376 -0.029,-2.753 0.002,-4.129c0.014,-0.38 0.075,-0.756 0.187,-1.12c0.093,-0.3 0.218,-0.589 0.372,-0.863c0.135,-0.24 0.291,-0.469 0.464,-0.683c0.821,-1.011 2.007,-1.687 3.262,-1.998c0.536,-0.133 1.084,-0.198 1.636,-0.207c0.078,0 0.077,0 0.154,0c0.576,0.01 1.149,0.08 1.706,0.225c1.249,0.324 2.426,1.011 3.232,2.03c0.183,0.233 0.347,0.481 0.484,0.744c0.146,0.277 0.263,0.57 0.347,0.872c0.012,0.043 0.023,0.086 0.034,0.129l-2.115,0c-0.332,-0.687 -0.966,-1.208 -1.645,-1.534c-0.147,-0.07 -0.297,-0.133 -0.451,-0.187c-0.193,-0.068 -0.39,-0.123 -0.59,-0.166c-0.263,-0.056 -0.531,-0.09 -0.8,-0.106c-0.112,-0.005 -0.223,-0.007 -0.335,-0.007c-0.291,0.005 -0.581,0.03 -0.868,0.082c-0.22,0.04 -0.438,0.095 -0.651,0.165c-0.156,0.051 -0.309,0.111 -0.459,0.179c-0.129,0.058 -0.255,0.123 -0.378,0.194c-0.711,0.411 -1.342,1.061 -1.531,1.883c-0.036,0.152 -0.053,0.307 -0.057,0.463l0,0.042l0,1.992l10,0l0,2Z" style="fill:#000;"/></g></svg>