<?xml version="1.0" encoding="UTF-8" standalone="no"?><!DOCTYPE svg PUBLIC "-//W3C//DTD SVG 1.1//EN" "http://www.w3.org/Graphics/SVG/1.1/DTD/svg11.dtd"><svg width="100%" height="100%" viewBox="0 0 24 24" version="1.1" xmlns="http://www.w3.org/2000/svg" xmlns:xlink="http://www.w3.org/1999/xlink" xml:space="preserve" style="fill-rule:evenodd;clip-rule:evenodd;stroke-linejoin:round;stroke-miterlimit:1.41421;"><g id="upload"><path d="M8,15.998c-0.787,-0.001 -0.574,-0.004 -1.361,-0.013c-0.122,-0.004 -0.121,-0.004 -0.243,-0.011c-0.239,-0.019 -0.475,-0.049 -0.709,-0.098c-0.487,-0.103 -0.96,-0.279 -1.394,-0.523c-0.517,-0.292 -0.979,-0.683 -1.346,-1.15c-0.254,-0.321 -0.462,-0.678 -0.616,-1.057c-0.463,-1.135 -0.433,-2.446 0.043,-3.57c0.284,-0.67 0.723,-1.271 1.272,-1.748c0.26,-0.225 0.545,-0.422 0.847,-0.586c0.775,-0.421 1.661,-0.617 2.541,-0.568c0.289,0.017 0.574,0.061 0.855,0.127l0.076,0.019l0.074,0.02c0.034,-0.082 0.068,-0.164 0.104,-0.246c0.163,-0.347 0.36,-0.675 0.598,-0.975c0.605,-0.764 1.441,-1.334 2.374,-1.612c0.413,-0.123 0.837,-0.184 1.267,-0.197c0.084,0 0.083,-0.001 0.167,0c0.382,0.009 0.761,0.057 1.131,0.153c0.733,0.192 1.416,0.561 1.979,1.068c0.237,0.213 0.449,0.449 0.641,0.703c0.115,-0.008 0.115,-0.008 0.23,-0.015c0.234,-0.007 0.467,-0.005 0.701,0.016c0.497,0.044 0.987,0.16 1.451,0.343c0.432,0.17 0.841,0.399 1.213,0.677c0.986,0.738 1.694,1.816 1.971,3.015c0.109,0.475 0.152,0.965 0.127,1.451c-0.027,0.537 -0.138,1.068 -0.333,1.569c-0.217,0.557 -0.537,1.072 -0.938,1.514c-0.443,0.49 -0.982,0.889 -1.576,1.176c-0.724,0.348 -1.515,0.521 -2.316,0.536c-0.609,0.003 -0.22,0 -0.83,-0.002l0,-2c0.602,0.003 0.206,0.005 0.805,0.002c0.509,-0.009 1.012,-0.117 1.472,-0.338c0.362,-0.175 0.692,-0.417 0.962,-0.715c0.23,-0.254 0.415,-0.548 0.543,-0.865c0.299,-0.739 0.285,-1.593 -0.006,-2.331c-0.193,-0.49 -0.506,-0.92 -0.901,-1.267c-0.462,-0.406 -1.051,-0.669 -1.659,-0.754c-0.254,-0.036 -0.507,-0.037 -0.763,-0.017l-0.125,0.005c-0.126,-0.002 -0.249,-0.008 -0.373,-0.03c-0.371,-0.065 -0.72,-0.235 -0.999,-0.488c-0.062,-0.056 -0.12,-0.116 -0.174,-0.18c-0.074,-0.085 -0.138,-0.177 -0.211,-0.263c-0.052,-0.06 -0.107,-0.118 -0.163,-0.174c-0.355,-0.343 -0.792,-0.593 -1.273,-0.711c-0.174,-0.042 -0.351,-0.066 -0.53,-0.075c-0.062,-0.003 -0.123,-0.003 -0.184,-0.003c-0.232,0.007 -0.461,0.037 -0.684,0.1c-0.579,0.16 -1.096,0.514 -1.459,0.991c-0.16,0.21 -0.285,0.44 -0.383,0.685l-0.051,0.116c-0.078,0.15 -0.163,0.293 -0.272,0.423c-0.354,0.422 -0.878,0.684 -1.428,0.712c-0.168,0.009 -0.337,-0.003 -0.502,-0.037c-0.12,-0.024 -0.237,-0.06 -0.357,-0.084c-0.075,-0.014 -0.15,-0.025 -0.225,-0.033c-0.252,-0.025 -0.504,-0.02 -0.754,0.021c-0.565,0.094 -1.092,0.368 -1.496,0.772c-0.284,0.284 -0.505,0.628 -0.643,1.004c-0.244,0.667 -0.228,1.439 0.091,2.078c0.091,0.18 0.205,0.349 0.338,0.502c0.221,0.254 0.495,0.461 0.796,0.612c0.403,0.203 0.844,0.298 1.293,0.314c0.772,0.008 0.543,0.011 1.315,0.012l0,2Z" style="fill:#000;"/><path d="M13,10.5l-2,0l0,8.5l2,0c0,-2.833 0,-5.667 0,-8.5Z" style="fill:#000;fill-rule:nonzero;"/><path d="M12,8l-4,5l8,0l-4,-5Z" style="fill:#000;"/></g></svg>