<?xml version="1.0" encoding="UTF-8" standalone="no"?><!DOCTYPE svg PUBLIC "-//W3C//DTD SVG 1.1//EN" "http://www.w3.org/Graphics/SVG/1.1/DTD/svg11.dtd"><svg width="100%" height="100%" viewBox="0 0 24 24" version="1.1" xmlns="http://www.w3.org/2000/svg" xmlns:xlink="http://www.w3.org/1999/xlink" xml:space="preserve" style="fill-rule:evenodd;clip-rule:evenodd;stroke-linejoin:round;stroke-miterlimit:1.41421;"><g id="videocamera"><path d="M17.012,15.922c-0.004,0.373 -0.008,0.746 -0.013,1.119c-0.008,0.219 -0.046,0.434 -0.121,0.64c-0.196,0.535 -0.622,0.971 -1.152,1.18c-0.219,0.086 -0.45,0.129 -0.685,0.138c-3.694,0.047 -7.388,0.047 -11.082,0c-0.219,-0.008 -0.434,-0.046 -0.64,-0.121c-0.535,-0.196 -0.971,-0.622 -1.18,-1.152c-0.086,-0.219 -0.129,-0.45 -0.138,-0.685c-0.039,-3.027 -0.039,-6.055 0,-9.082c0.009,-0.235 0.052,-0.466 0.138,-0.685c0.209,-0.53 0.645,-0.956 1.18,-1.152c0.206,-0.075 0.421,-0.113 0.64,-0.121c3.676,-0.047 7.353,-0.001 11.03,-0.001c0.237,0.003 0.469,0.041 0.692,0.122c0.55,0.202 0.995,0.647 1.197,1.197c0.075,0.206 0.113,0.421 0.121,0.64c0.009,0.697 0.016,1.394 0.021,2.091c1.206,-0.524 2.413,-1.045 3.649,-1.493c0.079,-0.026 0.158,-0.043 0.241,-0.052c0.041,-0.002 0.081,-0.003 0.122,-0.003c0.113,0.006 0.223,0.027 0.328,0.068c0.261,0.102 0.471,0.312 0.572,0.573c0.038,0.096 0.058,0.197 0.066,0.3c0.111,2.369 0.111,4.745 0,7.114c-0.01,0.134 -0.043,0.264 -0.103,0.384c-0.167,0.336 -0.518,0.555 -0.893,0.557c-0.135,0.001 -0.266,-0.027 -0.392,-0.077l-3.598,-1.499ZM15,10.917l0,-2.892c0,-0.009 0.003,-0.016 -0.004,-0.022c-0.002,-0.002 -0.003,-0.003 -0.006,-0.003c-3.655,-0.046 -7.311,0 -10.966,0c-0.012,0 -0.017,-0.002 -0.023,0.006c-0.004,0.005 -0.001,0.013 -0.001,0.019c0,2.983 0,5.967 0,8.95c0,0.009 -0.003,0.016 0.004,0.022c0.002,0.002 0.003,0.003 0.006,0.003c3.655,0.046 7.311,0 10.966,0c0.01,0 0.016,0.002 0.022,-0.004c0.004,-0.006 0.002,-0.015 0.002,-0.021l0,-1.892l0,0l0,-4.166l0,0ZM17.028,12.238c0,0.508 0,1.015 -0.002,1.523l2.974,1.239l0,-4l-2.972,1.238Z" style="fill:#000;"/></g></svg>