<?xml version="1.0" encoding="UTF-8" standalone="no"?><!DOCTYPE svg PUBLIC "-//W3C//DTD SVG 1.1//EN" "http://www.w3.org/Graphics/SVG/1.1/DTD/svg11.dtd"><svg width="100%" height="100%" viewBox="0 0 24 24" version="1.1" xmlns="http://www.w3.org/2000/svg" xmlns:xlink="http://www.w3.org/1999/xlink" xml:space="preserve" style="fill-rule:evenodd;clip-rule:evenodd;stroke-linejoin:round;stroke-miterlimit:1.41421;"><g id="visible"><path d="M12.102,5.001c0.396,0.012 0.789,0.048 1.179,0.119c1.678,0.305 3.212,1.151 4.545,2.189c0.213,0.166 0.421,0.337 0.625,0.513c0.278,0.239 0.547,0.487 0.81,0.742c0.331,0.323 0.65,0.657 0.958,1.001c0.512,0.572 0.996,1.17 1.437,1.799l0.434,0.636c-0.165,0.242 -0.328,0.487 -0.498,0.727c-0.23,0.324 -0.473,0.64 -0.725,0.949c-0.371,0.457 -0.761,0.898 -1.17,1.321c-0.293,0.304 -0.597,0.6 -0.91,0.884c-0.253,0.229 -0.511,0.451 -0.777,0.665c-1.444,1.159 -3.133,2.104 -4.986,2.376c-0.261,0.038 -0.524,0.063 -0.788,0.073c-0.399,0.015 -0.798,-0.004 -1.194,-0.055c-0.764,-0.099 -1.509,-0.316 -2.218,-0.617c-1.152,-0.489 -2.212,-1.192 -3.166,-1.998c-0.782,-0.66 -1.506,-1.384 -2.176,-2.156c-0.424,-0.491 -0.828,-1.001 -1.201,-1.532l-0.435,-0.637c0.166,-0.242 0.328,-0.487 0.498,-0.726c0.202,-0.286 0.415,-0.564 0.634,-0.837c0.357,-0.445 0.732,-0.876 1.124,-1.29c0.286,-0.303 0.581,-0.596 0.885,-0.879c0.891,-0.828 1.867,-1.576 2.938,-2.156c0.816,-0.443 1.691,-0.786 2.603,-0.968c0.387,-0.076 0.778,-0.121 1.172,-0.139c0.134,-0.004 0.268,-0.005 0.402,-0.004ZM11.872,7.001c-0.256,0.007 -0.511,0.029 -0.764,0.071c-0.65,0.106 -1.277,0.326 -1.869,0.613c-0.798,0.386 -1.535,0.893 -2.218,1.457c-0.229,0.19 -0.453,0.387 -0.672,0.59c-0.316,0.294 -0.62,0.601 -0.914,0.917c-0.392,0.423 -0.764,0.864 -1.117,1.319l-0.024,0.032c0.393,0.515 0.816,1.008 1.261,1.479c0.461,0.488 0.949,0.951 1.467,1.379c0.81,0.67 1.7,1.263 2.676,1.663c0.542,0.222 1.112,0.382 1.695,0.447c0.255,0.028 0.511,0.038 0.767,0.028c1.263,-0.048 2.463,-0.558 3.516,-1.231c0.174,-0.11 0.344,-0.226 0.511,-0.346c0.222,-0.158 0.438,-0.324 0.649,-0.497c0.258,-0.209 0.508,-0.428 0.751,-0.654c0.316,-0.294 0.621,-0.601 0.914,-0.917c0.393,-0.423 0.764,-0.863 1.117,-1.319l0.025,-0.032c-0.358,-0.468 -0.74,-0.919 -1.142,-1.351c-0.293,-0.316 -0.598,-0.623 -0.914,-0.917c-0.218,-0.203 -0.442,-0.4 -0.672,-0.59c-0.683,-0.564 -1.419,-1.071 -2.218,-1.457c-0.591,-0.287 -1.219,-0.507 -1.868,-0.613c-0.222,-0.037 -0.445,-0.058 -0.669,-0.068c-0.096,-0.003 -0.192,-0.004 -0.288,-0.003Z" style="fill:#000;fill-rule:nonzero;"/><circle cx="12" cy="12" r="3" style="fill:#000;"/></g></svg>