<?xml version="1.0" encoding="UTF-8" standalone="no"?><!DOCTYPE svg PUBLIC "-//W3C//DTD SVG 1.1//EN" "http://www.w3.org/Graphics/SVG/1.1/DTD/svg11.dtd"><svg width="100%" height="100%" viewBox="0 0 24 24" version="1.1" xmlns="http://www.w3.org/2000/svg" xmlns:xlink="http://www.w3.org/1999/xlink" xml:space="preserve" style="fill-rule:evenodd;clip-rule:evenodd;stroke-linejoin:round;stroke-miterlimit:1.41421;"><g id="volume_louder"><path d="M15,5.276c0.472,0.104 0.935,0.27 1.379,0.478c1.546,0.722 2.84,1.941 3.655,3.44c0.374,0.689 0.646,1.433 0.803,2.201c0.177,0.863 0.21,1.755 0.099,2.629c-0.104,0.817 -0.336,1.616 -0.684,2.361c-0.408,0.874 -0.975,1.671 -1.665,2.344c-0.713,0.697 -1.556,1.259 -2.474,1.648l-1.113,0.347l0,-2.077l0.198,-0.057c0.697,-0.275 1.339,-0.682 1.888,-1.192c0.529,-0.493 0.969,-1.081 1.291,-1.728c0.262,-0.528 0.445,-1.094 0.542,-1.675c0.112,-0.678 0.108,-1.376 -0.013,-2.052c-0.099,-0.555 -0.278,-1.096 -0.529,-1.601c-0.581,-1.168 -1.545,-2.132 -2.713,-2.713l-0.664,-0.22l0,-2.133Z" style="fill:#000;"/><path d="M15,9.576c0.705,0.381 1.261,0.983 1.605,1.696c0.171,0.355 0.289,0.736 0.349,1.126c0.061,0.402 0.061,0.814 0,1.216c-0.06,0.39 -0.178,0.771 -0.349,1.126c-0.209,0.434 -0.497,0.829 -0.846,1.161l-0.759,0.499l0,-2.13l0.163,-0.225c0.103,-0.212 0.173,-0.44 0.209,-0.673c0.04,-0.262 0.037,-0.531 -0.01,-0.791l-0.362,-0.833l0,-2.172Z" style="fill:#000;"/><path d="M13,22l-6,-6l-2,0l-0.052,-0.001l-0.051,-0.004l-0.051,-0.007l-0.05,-0.01l-0.051,-0.011l-0.049,-0.015l-0.05,-0.017l-0.049,-0.019l-0.048,-0.021l-0.049,-0.024l-0.047,-0.025l-0.047,-0.028l-0.047,-0.03l-0.046,-0.032l-0.046,-0.034l-0.045,-0.036l-0.045,-0.037l-0.044,-0.039l-0.043,-0.041l-0.043,-0.042l-0.042,-0.044l-0.042,-0.046l-0.041,-0.047l-0.04,-0.048l-0.039,-0.05l-0.039,-0.051l-0.038,-0.052l-0.038,-0.053l-0.037,-0.054l-0.035,-0.055l-0.036,-0.056l-0.034,-0.057l-0.033,-0.058l-0.033,-0.058l-0.032,-0.06l-0.031,-0.059l-0.03,-0.061l-0.029,-0.061l-0.029,-0.061l-0.027,-0.062l-0.027,-0.062l-0.025,-0.062l-0.025,-0.062l-0.023,-0.063l-0.023,-0.063l-0.022,-0.062l-0.02,-0.063l-0.02,-0.063l-0.018,-0.062l-0.018,-0.062l-0.016,-0.062l-0.015,-0.061l-0.014,-0.061l-0.013,-0.061l-0.012,-0.06l-0.01,-0.059l-0.01,-0.059l-0.008,-0.058l-0.007,-0.057l-0.006,-0.056l-0.004,-0.056l-0.003,-0.054l-0.002,-0.054l-0.001,-0.052l0,-2l0.001,-0.052l0.002,-0.054l0.003,-0.054l0.004,-0.056l0.006,-0.056l0.007,-0.057l0.008,-0.058l0.01,-0.059l0.01,-0.059l0.012,-0.06l0.013,-0.061l0.014,-0.061l0.015,-0.061l0.016,-0.062l0.018,-0.062l0.018,-0.062l0.02,-0.063l0.02,-0.063l0.022,-0.062l0.023,-0.063l0.023,-0.063l0.025,-0.062l0.025,-0.062l0.027,-0.062l0.027,-0.062l0.029,-0.061l0.029,-0.061l0.03,-0.061l0.031,-0.059l0.032,-0.06l0.033,-0.058l0.033,-0.058l0.034,-0.057l0.036,-0.056l0.035,-0.055l0.037,-0.054l0.038,-0.053l0.038,-0.052l0.039,-0.051l0.039,-0.05l0.04,-0.048l0.041,-0.047l0.042,-0.046l0.042,-0.044l0.043,-0.042l0.043,-0.041l0.044,-0.039l0.045,-0.037l0.045,-0.036l0.046,-0.034l0.046,-0.032l0.047,-0.03l0.047,-0.028l0.047,-0.025l0.049,-0.024l0.048,-0.021l0.049,-0.019l0.05,-0.017l0.049,-0.015l0.051,-0.011l0.05,-0.01l0.051,-0.007l0.051,-0.004l0.052,-0.001l2,0l6,-5l0,19ZM7.724,10l-2.35,0l0,0l-0.016,0.024l-0.017,0.025l-0.017,0.027l-0.016,0.028l-0.018,0.03l-0.017,0.031l-0.016,0.03l-0.017,0.033l-0.017,0.033l-0.016,0.034l-0.016,0.035l-0.016,0.035l-0.015,0.035l-0.014,0.036l-0.015,0.036l-0.013,0.037l-0.013,0.034l-0.011,0.034l-0.013,0.037l-0.01,0.034l-0.01,0.034l-0.01,0.033l-0.008,0.03l-0.007,0.032l-0.008,0.032l-0.006,0.027l-0.005,0.026l-0.004,0.025l-0.004,0.024l-0.003,0.021l-0.002,0.018l-0.002,0.016l-0.001,0.014l-0.001,0.011l0,0.006l0,0.014l0,1.978l0,0.014l0.001,0.017l0.001,0.014l0.002,0.016l0.002,0.018l0.003,0.021l0.004,0.024l0.004,0.025l0.005,0.026l0.006,0.027l0.007,0.032l0.008,0.03l0.008,0.032l0.01,0.035l0.01,0.032l0.01,0.034l0.012,0.036l0.012,0.036l0.013,0.035l0.013,0.035l0.015,0.037l0.014,0.035l0.015,0.035l0.016,0.035l0.016,0.035l0.016,0.034l0.017,0.033l0.017,0.033l0.016,0.03l0.017,0.031l0.018,0.03l0.016,0.028l0.017,0.026l0.017,0.026l0.016,0.024l2.454,0l3.172,3.172l0,-9.902l-3.276,2.73Z" style="fill:#000;"/></g></svg>