<?xml version="1.0" encoding="UTF-8" standalone="no"?><!DOCTYPE svg PUBLIC "-//W3C//DTD SVG 1.1//EN" "http://www.w3.org/Graphics/SVG/1.1/DTD/svg11.dtd"><svg width="100%" height="100%" viewBox="0 0 24 24" version="1.1" xmlns="http://www.w3.org/2000/svg" xmlns:xlink="http://www.w3.org/1999/xlink" xml:space="preserve" style="fill-rule:evenodd;clip-rule:evenodd;stroke-linejoin:round;stroke-miterlimit:1.41421;"><g id="zoom"><path d="M9.423,3.338l0.084,0.002l0.083,0.003l0.084,0.003l0.082,0.005l0.083,0.006l0.082,0.007l0.082,0.007l0.082,0.009l0.082,0.01l0.081,0.011l0.081,0.012l0.08,0.013l0.08,0.013l0.08,0.015l0.08,0.016l0.079,0.017l0.079,0.017l0.078,0.019l0.078,0.02l0.078,0.02l0.077,0.022l0.077,0.022l0.076,0.023l0.076,0.024l0.076,0.026l0.075,0.026l0.075,0.027l0.075,0.027l0.074,0.029l0.073,0.03l0.073,0.03l0.073,0.031l0.072,0.032l0.072,0.033l0.071,0.034l0.071,0.035l0.07,0.035l0.07,0.037l0.07,0.037l0.068,0.038l0.069,0.039l0.067,0.039l0.068,0.04l0.066,0.042l0.067,0.041l0.065,0.043l0.065,0.044l0.065,0.044l0.064,0.045l0.063,0.045l0.063,0.047l0.063,0.047l0.061,0.048l0.061,0.049l0.061,0.049l0.06,0.05l0.059,0.051l0.059,0.051l0.058,0.052l0.057,0.053l0.057,0.054l0.056,0.054l0.056,0.055l0.054,0.055l0.055,0.056l0.053,0.057l0.053,0.057l0.052,0.058l0.051,0.059l0.051,0.059l0.05,0.06l0.05,0.061l0.048,0.061l0.048,0.062l0.047,0.062l0.047,0.063l0.045,0.063l0.045,0.064l0.045,0.065l0.043,0.065l0.043,0.065l0.042,0.067l0.041,0.066l0.04,0.068l0.04,0.067l0.038,0.069l0.038,0.069l0.037,0.069l0.037,0.07l0.035,0.07l0.035,0.071l0.034,0.071l0.033,0.072l0.032,0.072l0.031,0.073l0.031,0.073l0.029,0.073l0.029,0.074l0.028,0.075l0.027,0.075l0.026,0.075l0.025,0.076l0.024,0.076l0.023,0.076l0.023,0.077l0.021,0.077l0.021,0.078l0.019,0.078l0.019,0.079l0.017,0.078l0.017,0.08l0.016,0.079l0.015,0.08l0.014,0.08l0.012,0.08l0.012,0.081l0.011,0.081l0.01,0.082l0.009,0.082l0.008,0.082l0.006,0.082l0.006,0.083l0.005,0.083l0.004,0.083l0.002,0.083l0.002,0.084l0,0.084l0,0.084l-0.002,0.083l-0.002,0.084l-0.004,0.083l-0.005,0.083l-0.006,0.083l-0.006,0.082l-0.008,0.082l-0.009,0.082l-0.01,0.081l-0.011,0.081l-0.012,0.081l-0.012,0.081l-0.014,0.08l-0.015,0.08l-0.016,0.079l-0.017,0.079l-0.017,0.079l-0.019,0.078l-0.019,0.078l-0.021,0.078l-0.021,0.077l-0.023,0.077l-0.023,0.077l-0.024,0.076l-0.025,0.076l-0.026,0.075l-0.027,0.075l-0.028,0.074l-0.029,0.074l-0.029,0.074l-0.031,0.073l-0.031,0.073l-0.032,0.072l-0.033,0.072l-0.034,0.071l-0.035,0.071l-0.035,0.07l-0.037,0.07l-0.037,0.069l-0.038,0.069l-0.038,0.068l-0.04,0.068l-0.04,0.067l-0.041,0.067l-0.042,0.066l-0.043,0.066l-0.043,0.065l-0.045,0.065l-0.045,0.064l-0.045,0.063l-0.047,0.063l-0.047,0.062l-0.048,0.062l-0.048,0.061l-0.05,0.06l-0.05,0.06l-0.051,0.06l-0.051,0.058l-0.052,0.058l-0.053,0.058l-0.053,0.056l-0.055,0.057l-0.054,0.055l-0.056,0.055l-0.056,0.054l-0.057,0.054l-0.057,0.052l-0.058,0.053l-0.059,0.051l-0.059,0.051l-0.06,0.05l-0.061,0.049l-0.061,0.049l-0.061,0.048l-0.063,0.047l-0.063,0.046l-0.063,0.046l-0.064,0.045l-0.065,0.044l-0.065,0.044l-0.065,0.042l-0.067,0.042l-0.066,0.041l-0.068,0.041l-0.067,0.039l-0.069,0.039l-0.068,0.038l-0.07,0.037l-0.07,0.036l-0.07,0.036l-0.071,0.034l-0.071,0.034l-0.072,0.033l-0.072,0.032l-0.073,0.032l-0.073,0.03l-0.073,0.03l-0.074,0.028l-0.075,0.028l-0.075,0.027l-0.075,0.026l-0.076,0.025l-0.076,0.024l-0.076,0.024l-0.077,0.022l-0.077,0.022l-0.078,0.02l-0.078,0.02l-0.078,0.018l-0.079,0.018l-0.079,0.017l-0.08,0.015l-0.08,0.015l-0.08,0.014l-0.08,0.013l-0.081,0.012l-0.081,0.011l-0.082,0.009l-0.082,0.009l-0.082,0.008l-0.082,0.007l-0.083,0.006l-0.082,0.004l-0.084,0.004l-0.083,0.003l-0.084,0.001l-0.084,0.001l-0.084,-0.001l-0.083,-0.001l-0.084,-0.003l-0.083,-0.004l-0.083,-0.004l-0.082,-0.006l-0.083,-0.007l-0.082,-0.008l-0.082,-0.009l-0.081,-0.009l-0.081,-0.011l-0.081,-0.012l-0.081,-0.013l-0.08,-0.014l-0.079,-0.015l-0.08,-0.015l-0.079,-0.017l-0.079,-0.018l-0.078,-0.018l-0.078,-0.02l-0.078,-0.02l-0.077,-0.022l-0.077,-0.022l-0.077,-0.024l-0.076,-0.024l-0.076,-0.025l-0.075,-0.026l-0.075,-0.027l-0.074,-0.028l-0.074,-0.028l-0.074,-0.03l-0.073,-0.03l-0.072,-0.032l-0.073,-0.032l-0.071,-0.033l-0.072,-0.034l-0.07,-0.034l-0.071,-0.036l-0.07,-0.036l-0.069,-0.037l-0.069,-0.038l-0.068,-0.039l-0.068,-0.039l-0.067,-0.041l-0.067,-0.041l-0.066,-0.042l-0.066,-0.042l-0.065,-0.044l-0.064,-0.044l-0.064,-0.045l-0.064,-0.046l-0.063,-0.046l-0.062,-0.047l-0.062,-0.048l-0.061,-0.049l-0.06,-0.049l-0.06,-0.05l-0.059,-0.051l-0.059,-0.051l-0.058,-0.053l-0.058,-0.052l-0.056,-0.054l-0.057,-0.054l-0.055,-0.055l-0.055,-0.055l-0.054,-0.057l-0.053,-0.056l-0.053,-0.058l-0.052,-0.058l-0.052,-0.058l-0.051,-0.06l-0.05,-0.06l-0.049,-0.06l-0.049,-0.061l-0.047,-0.062l-0.048,-0.062l-0.046,-0.063l-0.046,-0.063l-0.045,-0.064l-0.044,-0.065l-0.043,-0.065l-0.043,-0.066l-0.042,-0.066l-0.041,-0.067l-0.04,-0.067l-0.04,-0.068l-0.039,-0.068l-0.038,-0.069l-0.037,-0.069l-0.036,-0.07l-0.036,-0.07l-0.034,-0.071l-0.034,-0.071l-0.033,-0.072l-0.032,-0.072l-0.032,-0.073l-0.03,-0.073l-0.03,-0.074l-0.028,-0.074l-0.028,-0.074l-0.027,-0.075l-0.026,-0.075l-0.025,-0.076l-0.024,-0.076l-0.024,-0.077l-0.022,-0.077l-0.021,-0.077l-0.021,-0.078l-0.019,-0.078l-0.019,-0.078l-0.018,-0.079l-0.017,-0.079l-0.015,-0.079l-0.015,-0.08l-0.014,-0.08l-0.013,-0.081l-0.012,-0.081l-0.01,-0.081l-0.01,-0.081l-0.009,-0.082l-0.008,-0.082l-0.007,-0.082l-0.005,-0.083l-0.005,-0.083l-0.004,-0.083l-0.003,-0.084l-0.001,-0.083l-0.001,-0.084l0.001,-0.084l0.001,-0.084l0.003,-0.083l0.004,-0.083l0.005,-0.083l0.005,-0.083l0.007,-0.082l0.008,-0.082l0.009,-0.082l0.01,-0.082l0.01,-0.081l0.012,-0.081l0.013,-0.08l0.014,-0.08l0.015,-0.08l0.015,-0.079l0.017,-0.08l0.018,-0.078l0.019,-0.079l0.019,-0.078l0.021,-0.078l0.021,-0.077l0.022,-0.077l0.024,-0.076l0.024,-0.076l0.025,-0.076l0.026,-0.075l0.027,-0.075l0.028,-0.075l0.028,-0.074l0.03,-0.073l0.03,-0.073l0.032,-0.073l0.032,-0.072l0.033,-0.072l0.034,-0.071l0.034,-0.071l0.036,-0.07l0.036,-0.07l0.037,-0.069l0.038,-0.069l0.039,-0.069l0.04,-0.067l0.04,-0.068l0.041,-0.066l0.042,-0.067l0.043,-0.065l0.043,-0.065l0.044,-0.065l0.045,-0.064l0.046,-0.063l0.046,-0.063l0.048,-0.062l0.047,-0.062l0.049,-0.061l0.049,-0.061l0.05,-0.06l0.051,-0.059l0.052,-0.059l0.052,-0.058l0.053,-0.057l0.053,-0.057l0.054,-0.056l0.055,-0.055l0.055,-0.055l0.057,-0.054l0.056,-0.054l0.058,-0.053l0.058,-0.052l0.059,-0.051l0.059,-0.051l0.06,-0.05l0.06,-0.049l0.061,-0.049l0.062,-0.048l0.062,-0.047l0.063,-0.047l0.064,-0.045l0.064,-0.045l0.064,-0.044l0.065,-0.044l0.066,-0.043l0.066,-0.041l0.067,-0.042l0.067,-0.04l0.068,-0.039l0.068,-0.039l0.069,-0.038l0.069,-0.037l0.07,-0.037l0.071,-0.035l0.07,-0.035l0.072,-0.034l0.071,-0.033l0.073,-0.032l0.072,-0.031l0.073,-0.03l0.074,-0.03l0.074,-0.029l0.074,-0.027l0.075,-0.027l0.075,-0.026l0.076,-0.026l0.076,-0.024l0.077,-0.023l0.077,-0.022l0.077,-0.022l0.078,-0.02l0.078,-0.02l0.078,-0.019l0.079,-0.017l0.079,-0.017l0.08,-0.016l0.079,-0.015l0.08,-0.013l0.081,-0.013l0.081,-0.012l0.081,-0.011l0.081,-0.01l0.082,-0.009l0.082,-0.007l0.083,-0.007l0.082,-0.006l0.083,-0.005l0.083,-0.003l0.084,-0.003l0.083,-0.002l0.084,0l0.084,0ZM9.281,5.338l-0.059,0.001l-0.058,0.002l-0.057,0.003l-0.057,0.003l-0.059,0.004l-0.057,0.005l-0.057,0.005l-0.056,0.006l-0.056,0.007l-0.057,0.008l-0.055,0.008l-0.056,0.009l-0.056,0.009l-0.055,0.01l-0.054,0.011l-0.056,0.012l-0.054,0.012l-0.053,0.013l-0.055,0.014l-0.054,0.014l-0.052,0.014l-0.054,0.016l-0.053,0.016l-0.051,0.016l-0.052,0.018l-0.053,0.018l-0.052,0.019l-0.051,0.019l-0.051,0.019l-0.051,0.021l-0.051,0.021l-0.049,0.021l-0.05,0.022l-0.05,0.024l-0.049,0.023l-0.049,0.024l-0.048,0.024l-0.049,0.025l-0.048,0.026l-0.047,0.026l-0.047,0.027l-0.048,0.028l-0.047,0.028l-0.045,0.028l-0.046,0.029l-0.046,0.029l-0.045,0.03l-0.045,0.031l-0.044,0.031l-0.044,0.032l-0.044,0.032l-0.043,0.033l-0.043,0.033l-0.042,0.034l-0.042,0.034l-0.042,0.035l-0.041,0.035l-0.04,0.036l-0.041,0.037l-0.039,0.036l-0.04,0.037l-0.039,0.038l-0.039,0.038l-0.038,0.038l-0.038,0.04l-0.037,0.039l-0.036,0.04l-0.037,0.04l-0.035,0.04l-0.035,0.042l-0.035,0.041l-0.034,0.042l-0.034,0.043l-0.033,0.043l-0.033,0.043l-0.033,0.044l-0.031,0.043l-0.031,0.044l-0.031,0.046l-0.03,0.045l-0.03,0.045l-0.028,0.046l-0.029,0.046l-0.028,0.047l-0.027,0.047l-0.027,0.047l-0.026,0.048l-0.026,0.048l-0.025,0.048l-0.025,0.048l-0.024,0.05l-0.023,0.049l-0.023,0.049l-0.022,0.05l-0.022,0.05l-0.021,0.051l-0.02,0.051l-0.02,0.051l-0.019,0.051l-0.019,0.052l-0.018,0.052l-0.017,0.052l-0.017,0.052l-0.016,0.053l-0.015,0.053l-0.015,0.053l-0.014,0.054l-0.014,0.054l-0.012,0.054l-0.013,0.054l-0.011,0.055l-0.011,0.055l-0.01,0.055l-0.01,0.055l-0.009,0.056l-0.008,0.056l-0.007,0.056l-0.007,0.056l-0.006,0.057l-0.006,0.057l-0.004,0.057l-0.004,0.057l-0.004,0.058l-0.002,0.058l-0.002,0.058l-0.001,0.058l-0.001,0.059l0.001,0.058l0.001,0.059l0.002,0.058l0.002,0.058l0.004,0.057l0.004,0.058l0.004,0.057l0.006,0.057l0.006,0.056l0.007,0.057l0.007,0.056l0.008,0.056l0.009,0.055l0.01,0.056l0.01,0.055l0.011,0.055l0.011,0.054l0.013,0.055l0.012,0.054l0.014,0.054l0.014,0.053l0.015,0.053l0.015,0.054l0.016,0.053l0.017,0.052l0.017,0.052l0.018,0.052l0.019,0.051l0.019,0.052l0.02,0.051l0.02,0.051l0.021,0.05l0.022,0.051l0.022,0.049l0.023,0.05l0.023,0.049l0.024,0.049l0.025,0.049l0.025,0.048l0.026,0.048l0.026,0.048l0.027,0.047l0.027,0.047l0.028,0.047l0.028,0.045l0.029,0.046l0.03,0.046l0.03,0.045l0.031,0.045l0.031,0.044l0.032,0.044l0.032,0.044l0.033,0.043l0.033,0.043l0.033,0.042l0.035,0.042l0.035,0.042l0.034,0.041l0.037,0.041l0.036,0.04l0.036,0.04l0.038,0.04l0.037,0.039l0.038,0.038l0.039,0.038l0.038,0.037l0.04,0.038l0.04,0.037l0.041,0.036l0.04,0.035l0.042,0.036l0.041,0.034l0.041,0.034l0.043,0.034l0.043,0.033l0.043,0.033l0.044,0.032l0.044,0.032l0.045,0.032l0.044,0.03l0.045,0.03l0.046,0.03l0.046,0.029l0.046,0.028l0.046,0.028l0.048,0.028l0.047,0.026l0.047,0.027l0.048,0.025l0.049,0.025l0.048,0.025l0.049,0.024l0.05,0.024l0.048,0.022l0.05,0.022l0.051,0.022l0.051,0.021l0.049,0.02l0.052,0.02l0.052,0.019l0.051,0.019l0.052,0.018l0.052,0.017l0.053,0.017l0.052,0.016l0.053,0.015l0.054,0.015l0.054,0.014l0.053,0.014l0.054,0.013l0.055,0.012l0.055,0.011l0.054,0.011l0.055,0.01l0.056,0.01l0.056,0.009l0.055,0.008l0.056,0.007l0.057,0.007l0.056,0.006l0.057,0.006l0.058,0.005l0.057,0.004l0.058,0.003l0.057,0.002l0.058,0.002l0.059,0.001l0.058,0.001l0.059,-0.001l0.058,-0.001l0.058,-0.002l0.058,-0.002l0.058,-0.003l0.057,-0.004l0.057,-0.005l0.057,-0.006l0.057,-0.006l0.057,-0.007l0.056,-0.007l0.055,-0.008l0.056,-0.009l0.055,-0.01l0.055,-0.01l0.055,-0.011l0.054,-0.011l0.055,-0.012l0.055,-0.013l0.053,-0.014l0.053,-0.014l0.054,-0.015l0.053,-0.015l0.053,-0.016l0.052,-0.017l0.053,-0.017l0.052,-0.018l0.051,-0.019l0.052,-0.019l0.051,-0.02l0.05,-0.02l0.05,-0.021l0.051,-0.022l0.05,-0.022l0.049,-0.022l0.05,-0.024l0.049,-0.024l0.048,-0.025l0.049,-0.025l0.048,-0.025l0.047,-0.027l0.047,-0.026l0.047,-0.028l0.047,-0.028l0.046,-0.028l0.046,-0.029l0.045,-0.03l0.046,-0.03l0.044,-0.03l0.045,-0.032l0.044,-0.032l0.043,-0.032l0.044,-0.033l0.042,-0.033l0.043,-0.034l0.042,-0.034l0.041,-0.034l0.041,-0.036l0.041,-0.035l0.04,-0.036l0.041,-0.037l0.039,-0.038l0.039,-0.037l0.038,-0.038l0.038,-0.038l0.038,-0.039l0.037,-0.04l0.037,-0.04l0.036,-0.04l0.036,-0.041l0.035,-0.041l0.035,-0.042l0.034,-0.042l0.034,-0.042l0.033,-0.043l0.033,-0.043l0.032,-0.044l0.032,-0.044l0.031,-0.044l0.031,-0.045l0.029,-0.045l0.03,-0.046l0.029,-0.046l0.029,-0.045l0.028,-0.047l0.027,-0.047l0.027,-0.047l0.026,-0.048l0.026,-0.048l0.025,-0.048l0.025,-0.049l0.023,-0.049l0.024,-0.049l0.022,-0.049l0.023,-0.05l0.021,-0.051l0.021,-0.05l0.021,-0.051l0.02,-0.051l0.019,-0.052l0.018,-0.051l0.018,-0.052l0.018,-0.052l0.016,-0.052l0.016,-0.053l0.016,-0.054l0.015,-0.053l0.014,-0.053l0.013,-0.054l0.013,-0.054l0.012,-0.055l0.012,-0.054l0.011,-0.055l0.01,-0.055l0.009,-0.056l0.009,-0.055l0.008,-0.056l0.008,-0.056l0.007,-0.057l0.006,-0.056l0.005,-0.057l0.005,-0.057l0.004,-0.058l0.003,-0.057l0.003,-0.058l0.002,-0.058l0.001,-0.059l0,-0.058l0,-0.059l-0.001,-0.058l-0.002,-0.058l-0.003,-0.058l-0.003,-0.058l-0.004,-0.057l-0.005,-0.057l-0.005,-0.057l-0.006,-0.057l-0.007,-0.056l-0.007,-0.056l-0.009,-0.056l-0.009,-0.056l-0.009,-0.055l-0.01,-0.055l-0.011,-0.055l-0.012,-0.055l-0.012,-0.054l-0.013,-0.054l-0.013,-0.054l-0.014,-0.054l-0.015,-0.053l-0.016,-0.053l-0.016,-0.053l-0.017,-0.052l-0.017,-0.052l-0.018,-0.052l-0.018,-0.052l-0.019,-0.051l-0.02,-0.051l-0.021,-0.051l-0.021,-0.051l-0.021,-0.05l-0.023,-0.05l-0.022,-0.049l-0.024,-0.049l-0.024,-0.05l-0.024,-0.048l-0.025,-0.048l-0.026,-0.048l-0.026,-0.048l-0.027,-0.047l-0.027,-0.047l-0.028,-0.047l-0.029,-0.046l-0.029,-0.046l-0.029,-0.045l-0.03,-0.045l-0.031,-0.045l-0.032,-0.045l-0.031,-0.043l-0.032,-0.044l-0.033,-0.043l-0.033,-0.043l-0.034,-0.043l-0.034,-0.042l-0.035,-0.041l-0.035,-0.042l-0.036,-0.04l-0.036,-0.04l-0.037,-0.04l-0.037,-0.039l-0.038,-0.04l-0.038,-0.038l-0.038,-0.038l-0.039,-0.038l-0.04,-0.037l-0.039,-0.036l-0.041,-0.037l-0.041,-0.036l-0.04,-0.035l-0.042,-0.035l-0.042,-0.034l-0.043,-0.034l-0.042,-0.033l-0.044,-0.033l-0.043,-0.032l-0.044,-0.032l-0.044,-0.031l-0.046,-0.031l-0.045,-0.03l-0.045,-0.029l-0.046,-0.029l-0.046,-0.028l-0.047,-0.028l-0.047,-0.028l-0.047,-0.027l-0.047,-0.026l-0.048,-0.026l-0.049,-0.025l-0.049,-0.024l-0.048,-0.024l-0.049,-0.023l-0.051,-0.024l-0.049,-0.022l-0.05,-0.021l-0.051,-0.021l-0.051,-0.021l-0.05,-0.019l-0.052,-0.019l-0.051,-0.019l-0.053,-0.018l-0.053,-0.018l-0.051,-0.016l-0.053,-0.016l-0.053,-0.016l-0.053,-0.014l-0.053,-0.014l-0.055,-0.014l-0.054,-0.013l-0.054,-0.012l-0.055,-0.012l-0.055,-0.011l-0.055,-0.01l-0.055,-0.009l-0.056,-0.009l-0.055,-0.008l-0.057,-0.008l-0.056,-0.007l-0.057,-0.006l-0.057,-0.005l-0.056,-0.005l-0.059,-0.004l-0.057,-0.003l-0.058,-0.003l-0.058,-0.002l-0.058,-0.001l-0.059,0l-0.058,0Z" style="fill:#000;"/><path d="M9.501,7.523l0,5" style="fill:none;stroke-width:1px;stroke:#000;"/><path d="M12.002,9.522l-0.002,1l-5,-0.011l0.002,-1l5,0.011Z" style="fill:#000;"/><path d="M15.981,15.144l5.18,5.18l-1.415,1.414l-5.189,-5.189c0.225,-0.175 0.441,-0.361 0.647,-0.558c0.278,-0.264 0.537,-0.548 0.777,-0.847ZM14.555,13.718c-0.235,0.316 -0.499,0.611 -0.788,0.879c-0.201,0.188 -0.415,0.363 -0.638,0.523l-0.968,-0.968l1.414,-1.414l0.98,0.98Z" style="fill:#000;"/></g></svg>