<svg viewBox="0 0 24 24" xmlns="http://www.w3.org/2000/svg" fill-rule="evenodd" clip-rule="evenodd" stroke-linejoin="round" stroke-miterlimit="1.414"><path d="M15.386 19c-.63 1.205-1.916 2-3.386 2-1.47 0-2.756-.795-3.386-2h6.772zM12 3h.078l.077.002.077.002.077.004.076.004.077.005.076.007.075.007.076.008.075.009.075.01.075.011.074.012.074.013.074.013.073.015.073.015.073.017.072.017.072.018.072.019.072.02.071.02.07.022.07.022.07.023.07.024.069.025.069.026.068.026.068.027.067.029.068.028.066.03.066.03.066.032.066.032.065.032.064.034.064.034.063.035.064.036.062.036.062.038.062.038.061.038.061.04.06.04.059.04.059.042.059.042.058.043.057.044.057.044.057.045.056.045.055.046.055.047.054.048.053.048.053.048.053.05.051.05.052.05.05.052.05.051.05.053.048.053.048.053.048.054.047.055.046.055.045.056.045.057.044.057.044.057.043.058.042.059.042.059.04.059.04.06.04.061.038.061.038.062.038.062.036.062.036.064.035.063.034.064.034.064.032.065.032.066.032.066.03.066.03.066.028.068.029.067.027.068.026.068.026.069.025.069.024.07.023.07.022.07.022.07.02.071.02.072.019.072.018.072.017.072.017.073.015.073.015.073.013.074.013.074.012.074.011.075.01.075.009.075.008.076.007.075.007.076.005.077.004.076.004.077.002.077.002.077V11.2l4 6.8H2l4-6.8V8.922l.002-.077.002-.077.004-.077.004-.076.005-.077.007-.076.007-.075.008-.076.009-.075.01-.075.011-.075.012-.074.013-.074.013-.074.015-.073.015-.073.017-.073.017-.072.018-.072.019-.072.02-.072.02-.071.022-.07.022-.07.023-.07.024-.07.025-.069.026-.069.026-.068.027-.068.029-.067.028-.068.03-.066.03-.066.032-.066.032-.066.032-.065.034-.064.034-.064.035-.063.036-.064.036-.062.038-.062.038-.062.038-.061.04-.061.04-.06.04-.059.042-.059.042-.059.043-.058.044-.057.044-.057.045-.057.045-.056.046-.055.047-.055.048-.054.048-.053.048-.053.05-.053.05-.051.05-.052.052-.05.051-.05.053-.05.053-.048.053-.048.054-.048.055-.047.055-.046.056-.045.057-.045.057-.044.057-.044.058-.043.059-.042.059-.042.059-.04.06-.04.061-.04.061-.038.062-.038.062-.038.062-.036.064-.036.063-.035.064-.034.064-.034.065-.032.066-.032.066-.032.066-.03.066-.03.068-.028.067-.029.068-.027.068-.026.069-.026.069-.025.07-.024.07-.023.07-.022.07-.022.071-.02.072-.02.072-.019.072-.018.072-.017.073-.017.073-.015.073-.015.074-.013.074-.013.074-.012.075-.011.075-.01.075-.009.076-.008.075-.007.076-.007.077-.005.076-.004.077-.004.077-.002.077-.002H12zm-.053 2l-.052.001-.051.002-.051.002-.052.003-.051.004-.051.004-.05.005-.051.005-.05.006-.05.007-.049.007-.05.008-.05.009-.048.009-.05.009-.048.011-.048.01-.048.012-.048.012-.047.012-.048.014-.047.013-.047.015-.047.014-.046.016-.047.016-.045.016-.046.017-.046.018-.045.018-.044.018-.045.02-.044.02-.044.019-.044.022-.044.021-.043.022-.042.022-.043.022-.043.024-.042.024-.041.024-.042.025-.041.025-.04.026-.041.026-.04.027-.04.027-.039.028-.039.028-.039.029-.039.029-.038.029-.037.03-.037.03-.037.032-.037.031-.036.032-.036.031-.035.033-.036.034-.034.033-.034.034-.034.034-.034.035-.033.035-.032.035-.033.036-.031.036-.031.036-.031.037-.031.038-.03.038-.029.038-.029.038-.029.039-.028.039-.028.04-.027.039-.027.04-.026.04-.026.042-.025.04-.025.042-.024.042-.024.041-.023.042-.023.044-.023.042-.021.043-.022.044-.02.044-.021.044-.019.044-.019.045-.019.044-.018.046-.018.045-.017.046-.016.046-.016.046-.016.046-.014.047-.015.047-.013.047-.014.047-.012.048-.012.048-.012.048-.01.048-.011.049-.009.049-.009.049-.009.049-.008.049-.007.05-.007.05-.006.05-.005.051-.005.05-.004.051-.004.051-.003.051-.002.052-.002.052L8 8.948V11.745L5.497 16h13.006L16 11.745V8.948l-.001-.052-.002-.052-.002-.052-.003-.051-.004-.051-.004-.051-.005-.05-.005-.051-.006-.05-.007-.05-.007-.05-.008-.049-.009-.049-.009-.049-.009-.049-.011-.049-.01-.048-.012-.048-.012-.048-.012-.048-.014-.047-.013-.047-.015-.047-.014-.047-.016-.046-.016-.046-.016-.046-.017-.046-.018-.045-.018-.046-.019-.044-.019-.045-.019-.044-.021-.044-.021-.044-.021-.044-.021-.042-.023-.043-.023-.044-.023-.042-.024-.041-.024-.042-.025-.042-.025-.04-.026-.042-.026-.04-.027-.04-.027-.039-.028-.04-.028-.039-.029-.039-.029-.038-.029-.038-.03-.038-.031-.038-.031-.037-.031-.036-.031-.036-.033-.036-.032-.035-.033-.035-.034-.035-.034-.034-.034-.034-.034-.033-.036-.034-.035-.033-.036-.031-.036-.032-.037-.031-.037-.032-.037-.03-.037-.03-.038-.029-.039-.029-.039-.029-.039-.028-.039-.028-.04-.027-.04-.027-.041-.026-.04-.026-.041-.025-.042-.025-.041-.024-.042-.024-.043-.024-.043-.022-.042-.022-.043-.022-.044-.021-.044-.022-.044-.019-.044-.02-.045-.02-.044-.018-.045-.018-.046-.018-.046-.017-.045-.016-.047-.016-.046-.016-.047-.014-.047-.015-.047-.013-.048-.014-.047-.012-.048-.012-.048-.012-.048-.01-.048-.011-.05-.009-.048-.009-.05-.009-.05-.008-.049-.007-.05-.007-.05-.006-.051-.005-.05-.005-.051-.004-.051-.004-.052-.003-.051-.002-.051-.002L12.053 5h-.106z"/></svg>