<svg viewBox="0 0 24 24" xmlns="http://www.w3.org/2000/svg" fill-rule="evenodd" clip-rule="evenodd" stroke-linejoin="round" stroke-miterlimit="1.414"><path d="M20.429 9.783a1.234 1.234 0 0 0-2.468.003v5.168c0 .683.554 1.234 1.238 1.235.68 0 1.232-.552 1.232-1.235V9.783h-.002zM6.45 8.787l.003 8.01c0 .729.587 1.317 1.317 1.317h.896v2.735a1.236 1.236 0 0 0 2.469 0v-2.735H12.8v2.735a1.236 1.236 0 0 0 2.47-.003v-2.733h.9c.725 0 1.316-.59 1.316-1.319V8.783l-11.037.003.001.001zm8.05-2.445a.465.465 0 0 1-.467-.466.47.47 0 0 1 .466-.468.466.466 0 1 1 0 .933m-5.063 0a.466.466 0 1 1 .467-.464.467.467 0 0 1-.468.466m5.256-2.431l.86-1.575a.17.17 0 0 0-.067-.233.173.173 0 0 0-.231.069l-.874 1.59a5.915 5.915 0 0 0-2.419-.507c-.862 0-1.684.181-2.412.505l-.869-1.585a.172.172 0 0 0-.233-.069.17.17 0 0 0-.067.232l.862 1.572c-1.693.875-2.837 2.537-2.837 4.447h11.12c0-1.91-1.143-3.57-2.834-4.445M4.735 8.552c-.682 0-1.235.554-1.235 1.235v5.169a1.236 1.236 0 0 0 2.47 0v-5.17c0-.682-.554-1.234-1.235-1.234" fill-rule="nonzero"/></svg>