<svg viewBox="0 0 24 24" xmlns="http://www.w3.org/2000/svg" fill-rule="evenodd" clip-rule="evenodd" stroke-linejoin="round" stroke-miterlimit="1.414"><path d="M11.771 7.739c.675 0 1.93-.929 3.562-.929 2.813 0 3.919 2 3.919 2s-2.163 1.106-2.163 3.79c0 3.025 2.694 4.069 2.694 4.069s-1.884 5.302-4.427 5.302c-1.169 0-2.078-.787-3.309-.787-1.255 0-2.5.816-3.31.816-2.325 0-5.259-5.029-5.259-9.071 0-3.978 2.485-6.063 4.815-6.063 1.513 0 2.69.873 3.478.873zm.703-3.998c1.313-1.731 3.142-1.74 3.142-1.74s.271 1.629-1.034 3.198c-1.393 1.675-2.978 1.4-2.978 1.4s-.297-1.318.872-2.858h-.002z"/></svg>