<svg viewBox="0 0 24 24" xmlns="http://www.w3.org/2000/svg" fill-rule="evenodd" clip-rule="evenodd" stroke-linejoin="round" stroke-miterlimit="1.414"><path d="M13 14.026c.006.142.037.279.098.407.169.351.537.576.927.567a1.02 1.02 0 0 0 .628-.242 1.014 1.014 0 0 0 .347-.733 293.49 293.49 0 0 0-.001-7.146 3.035 3.035 0 0 0-.282-1.188A2.96 2.96 0 0 0 11.959 4a3.024 3.024 0 0 0-.953.155 2.956 2.956 0 0 0-2.005 2.721 442.936 442.936 0 0 0 0 11.176c.008.229.05.455.133.669.208.538.648.967 1.191 1.162.201.072.41.109.624.116.7.01 1.402.01 2.102 0 .214-.007.423-.044.624-.116a2.012 2.012 0 0 0 1.208-1.207c.079-.22.114-.448.117-.68V18h2a4.12 4.12 0 0 1-.304 1.532 4.021 4.021 0 0 1-1.16 1.563 4.024 4.024 0 0 1-1.186.671 4.15 4.15 0 0 1-1.249.233c-.734.01-1.468.01-2.202 0a4.15 4.15 0 0 1-1.249-.233 4.012 4.012 0 0 1-1.186-.671 4.018 4.018 0 0 1-1.196-1.653 4.129 4.129 0 0 1-.267-1.341C6.955 14.383 7 10.665 7 6.947a4.874 4.874 0 0 1 .39-1.922 4.973 4.973 0 0 1 2.747-2.681A5.003 5.003 0 0 1 11.947 2a4.948 4.948 0 0 1 4.578 2.837 4.96 4.96 0 0 1 .474 1.993c.029 2.415.03 4.83 0 7.245a2.993 2.993 0 0 1-1.988 2.75 3.034 3.034 0 0 1-1.903.04 3.025 3.025 0 0 1-1.843-1.63 3.086 3.086 0 0 1-.264-1.158L11 14.006V8h2c0 2.009-.025 4.018 0 6.026z" fill-rule="nonzero"/></svg>