<svg viewBox="0 0 24 24" xmlns="http://www.w3.org/2000/svg" fill-rule="evenodd" clip-rule="evenodd" stroke-linejoin="round" stroke-miterlimit="1.414"><path d="M20 10H4l2-8h12l2 8zM7.562 4l-1 4h10.876l-1-4H7.562z"/><path d="M9.168 17.001c.218.004.435.013.652.034.392.037.78.105 1.161.206a8.787 8.787 0 0 1 1.708.679c.328.168.652.344.982.508.408.199.828.372 1.273.469.514.111 1.036.114 1.559.089a9.5 9.5 0 0 0 2.172-.34 6.135 6.135 0 0 0 1.465-.619 3.71 3.71 0 0 0 .398-.27c.083-.065.166-.133.239-.21l.01-.011 1.49 1.334a3.15 3.15 0 0 1-.112.119c-.37.358-.797.652-1.249.898a8.577 8.577 0 0 1-1.97.758 11.78 11.78 0 0 1-2.347.339c-.356.017-.713.025-1.069.004a6.597 6.597 0 0 1-2.001-.436 10.237 10.237 0 0 1-.841-.379c-.332-.17-.66-.347-.992-.514a7.92 7.92 0 0 0-.685-.308 5.212 5.212 0 0 0-.837-.246c-.571-.114-1.151-.117-1.73-.091-.853.039-1.703.153-2.532.357-.654.162-1.296.38-1.906.668a7.415 7.415 0 0 0-.579.304c-.138.08-.273.165-.401.259l-.018.015-1.225-1.581c.069-.053.14-.104.211-.153a9.876 9.876 0 0 1 2.163-1.069c1.03-.37 2.107-.603 3.195-.721a17.41 17.41 0 0 1 1.816-.092z" fill-rule="nonzero"/><path d="M19.926 18.467l-.033.321c-.265.153-.522.317-.785.473-.284.163-.577.31-.887.419-.612.214-1.264.292-1.909.314-.241.008-.483.01-.723-.004a5.551 5.551 0 0 1-.969-.142 6.783 6.783 0 0 1-1.391-.523c-.365-.182-.722-.377-1.086-.561a9.653 9.653 0 0 0-.671-.306 6.236 6.236 0 0 0-.981-.308 6.449 6.449 0 0 0-1.045-.14 9.84 9.84 0 0 0-.925.002c-.774.032-1.547.138-2.287.372a7.732 7.732 0 0 0-.966.383c-.337.159-.664.336-.996.504l-.11.054L2 8h20l-2.074 10.467zM4.418 10l1.235 6.47c.119-.037.239-.072.359-.105a11.41 11.41 0 0 1 2.424-.352c.433-.018.866-.02 1.298.011a8.232 8.232 0 0 1 1.801.335c.48.148.944.342 1.395.563.399.195.786.411 1.183.609.097.047.194.093.293.137.288.125.584.226.895.279.363.062.733.061 1.101.041.39-.021.787-.066 1.157-.196a3.07 3.07 0 0 0 .476-.221l.033-.019L19.565 10H4.418z" fill-rule="nonzero"/><path fill-rule="nonzero" d="M11 9h2v8h-2z"/></svg>