<svg viewBox="0 0 24 24" xmlns="http://www.w3.org/2000/svg" fill-rule="evenodd" clip-rule="evenodd" stroke-linejoin="round" stroke-miterlimit="1.414"><path d="M15.087 2.001l.05.002.05.003.05.004.049.006.049.007.049.008.048.009.047.01.048.012.047.013.046.013.046.015.045.016.045.017.044.018.044.019.043.021.043.021.042.022.042.023.04.024.041.025.039.026.039.027.038.028.038.029.036.029.036.031.036.031.034.032.034.033.033.034.032.034.031.036.031.036.029.036.029.038.028.038.027.039.026.039.025.041.024.04.023.042.022.042.021.043.02.043.02.044.018.044.017.045.016.045.015.046.013.046.013.047.012.048.01.047.009.048.008.049.007.049.006.049.004.05.003.05.002.05.001.051v15.868l-.001.035-.002.035-.003.035-.004.035-.006.034-.007.034-.008.034-.009.033-.011.033-.012.032-.012.032-.014.032-.015.03-.016.031-.017.029-.018.029-.02.028-.02.028-.021.027-.022.026-.023.025-.024.025-.025.024-.025.022-.027.022-.028.021-.028.021-.029.019-.03.018-.031.017-.031.016-.032.015-.033.014-.033.012-.033.011-.034.01-.033.009-.034.007-.034.007-.035.004-.034.004-.034.003-.034.001h-.035l-.034-.001-.034-.003-.034-.004-.034-.004-.033-.007-.034-.007-.033-.008-.033-.01-.032-.011-.032-.012-.032-.013-.031-.014-.031-.016-.03-.016-.03-.018-.03-.019-.028-.02-.028-.021-.028-.022-.026-.024L11.5 17l-3.896 3.541-.026.024-.028.022-.028.021-.028.02-.03.019-.03.018-.03.016-.031.016-.031.014-.032.013-.032.012-.032.011-.033.01-.033.008-.034.007-.033.007-.034.004-.034.004-.034.003-.034.001h-.035l-.034-.001-.034-.003-.034-.004-.035-.004-.034-.007-.034-.007-.033-.009-.034-.01-.033-.011-.033-.012-.033-.014-.032-.015-.031-.016-.031-.017-.03-.018-.029-.019-.028-.021-.028-.021-.027-.022-.025-.022-.025-.024-.024-.025-.023-.025-.022-.026-.021-.027-.02-.028-.02-.028-.018-.029-.017-.029-.016-.031-.015-.03-.014-.032-.012-.032-.012-.032-.011-.033-.009-.033-.008-.034-.007-.034-.006-.034-.004-.035-.003-.035-.002-.035L6 19.832V3.964l.001-.051.002-.05.003-.05.004-.05.006-.049.007-.049.008-.049.009-.048.01-.047.012-.048.013-.047.013-.046.015-.046.016-.045.017-.045.018-.044.02-.044.02-.043.021-.043.022-.042.023-.042.024-.04.025-.041.026-.039.027-.039.028-.038.029-.038.029-.036.031-.036.031-.036.032-.034.033-.034.034-.033.034-.032.036-.031.036-.031.036-.029.038-.029.038-.028.039-.027.039-.026.041-.025.04-.024.042-.023.042-.022.043-.021.043-.021.044-.019.044-.018.045-.017.045-.016.046-.015.046-.013.047-.013.048-.012.047-.01.048-.009.049-.008.049-.007.049-.006.05-.004.05-.003.05-.002L7.964 2h7.072l.051.001zM8 4v13.479l3.5-3.182 3.5 3.182V4H8z"/></svg>