<svg viewBox="0 0 24 24" xmlns="http://www.w3.org/2000/svg" fill-rule="evenodd" clip-rule="evenodd" stroke-linejoin="round" stroke-miterlimit="1.414"><path d="M16.6 4.001l.099.001.099.003.097.004.097.005.096.005.095.007.094.008.094.009.093.01.091.01.091.012.091.012.089.013.088.014.088.015.087.016.086.016.085.017.084.018.084.019.082.019.082.019.081.021.08.021.079.022.078.022.077.022.152.047.148.049.145.051.141.052.137.053.134.055.129.056.127.056.122.057.118.058.115.058.111.058.107.058.103.058.099.057.095.057.091.056.087.056.047.035.045.036.044.037.043.039.042.04.04.041.039.042.038.043.036.044.035.045.034.046.032.047.031.048.029.048.028.05.026.05.025.051.024.052.022.052.02.053.019.054.018.054.015.055.015.055.012.056.011.056.01.057.007.057.006.058.005.057.002.058.001.059.009.453.008.525.007.588.006.642.004.688.005.723.003.752.003.771.003 1.564.002 1.536.001 1.437v1.27l-.001.034-.001.035-.003.034-.004.034-.006.033-.006.033-.007.033-.009.033-.01.032-.01.032-.012.031-.013.031-.013.03-.015.03-.016.03-.016.028-.018.029-.019.027-.019.028-.02.026-.022.026-.022.025-.023.024-.024.024-.024.023-.026.022-.026.021-.027.02-.028.02-.029.018-.029.018-.03.017-.031.016-.031.014-.031.014-.032.012-.032.011-.032.01-.033.009-.032.008-.033.007-.033.006-.033.004-.034.004-.033.002-.033.001h-.034l-.033-.001-.033-.002-.033-.003-.033-.005-.033-.005-.033-.007-.033-.007-.032-.009-.032-.01-.032-.011-.031-.012-.031-.013-.031-.014-.031-.016-.03-.016-.029-.018-.029-.018-.101-.079-.103-.078-.105-.078-.107-.078-.11-.078-.112-.076-.114-.077-.115-.075-.118-.074-.119-.073-.12-.071-.122-.07-.124-.068-.125-.066-.125-.064-.127-.062-.128-.06-.129-.056-.13-.054-.065-.026-.065-.025-.065-.024-.066-.024-.066-.023-.065-.022-.066-.021-.066-.02-.066-.019-.066-.018-.066-.018-.067-.016-.066-.015-.066-.015-.066-.013-.066-.012-.066-.012-.067-.01-.066-.009-.066-.008-.066-.006-.066-.006-.065-.004-.066-.003-.066-.002L16.5 17l-.072.001-.072.003-.071.004-.07.006-.07.008-.069.009-.069.011-.068.012-.067.013-.067.015-.066.017-.066.017-.065.019-.065.02-.063.021-.064.022-.063.023-.062.024-.062.025-.061.026-.06.027-.06.027-.06.028-.059.029-.058.03-.058.03-.114.061-.111.064-.11.064-.108.066-.105.066-.103.066-.102.066-.196.129-.188.124-.091.058-.09.056-.087.053-.085.05-.084.045-.041.021-.04.02-.041.019-.039.018-.039.017-.039.015-.001.024-.001.023-.003.023-.004.023-.005.022-.006.022-.007.022-.008.021-.009.02-.01.02-.011.02-.012.019-.012.018-.014.018-.014.017-.015.016-.016.015-.016.015-.017.014-.018.014-.019.012-.019.012-.019.01-.02.01-.021.009-.021.008-.022.007-.022.005-.023.005-.022.004-.024.003-.023.001-.546.02-.546-.02-.023-.001-.024-.003-.022-.004-.023-.005-.022-.005-.022-.007-.021-.008-.021-.009-.02-.01-.019-.01-.019-.012-.019-.012-.018-.014-.017-.014-.016-.015-.016-.015-.015-.016-.014-.017-.014-.018-.012-.018-.012-.019-.011-.02-.01-.02-.009-.02-.008-.021-.007-.022-.006-.022-.005-.022-.004-.023-.003-.023-.001-.023-.001-.024-.039-.015-.039-.017-.039-.018-.041-.019-.04-.02-.041-.021-.084-.045-.085-.05-.087-.053-.09-.056-.091-.058-.188-.124-.196-.129-.102-.066-.103-.066-.105-.066-.108-.066-.11-.064-.111-.064-.114-.061-.058-.03-.058-.03-.059-.029-.06-.028-.06-.027-.06-.027-.061-.026-.062-.025-.062-.024-.063-.023-.064-.022-.063-.021-.065-.02-.065-.019-.066-.017-.066-.017-.067-.015-.067-.013-.068-.012-.069-.011-.069-.009-.07-.008-.07-.006-.071-.004-.072-.003L7.5 17l-.068.001-.069.001-.068.003-.068.005-.068.005-.068.006-.068.008-.069.009-.067.009-.068.011-.068.012-.068.013-.067.013-.068.015-.067.016-.067.016-.067.018-.067.018-.066.019-.067.021-.066.02-.066.022-.066.023-.066.023-.065.024-.065.025-.13.051-.128.054-.128.057-.126.059-.125.061-.123.063-.122.065-.121.066-.119.069-.118.069-.115.071-.114.071-.112.073-.11.073-.108.074-.106.074-.104.074-.102.074-.099.074-.028.019-.028.017-.029.016-.029.015-.03.015-.03.013-.03.012-.031.011-.031.01-.031.008-.031.008-.032.007-.032.005-.032.005-.032.003-.032.003-.032.001h-.064l-.033-.002-.032-.003-.032-.005-.032-.005-.032-.006-.032-.007-.031-.009-.031-.009-.031-.011-.031-.012-.031-.013-.03-.014-.029-.015-.03-.016-.028-.017-.028-.018-.027-.018-.026-.02-.026-.02-.025-.021-.024-.022-.023-.023-.022-.024-.022-.024-.02-.025-.02-.025-.019-.026-.018-.027-.017-.027-.016-.028-.016-.029-.014-.029-.013-.029-.013-.03-.011-.03-.01-.031-.01-.031-.008-.031-.007-.032L2.053 18l-.005-.033-.004-.033-.003-.032-.002-.034v-.033l-.007-.616-.006-.667-.005-.708-.005-.741-.007-1.546-.004-1.57-.003-1.525-.001-1.408L2 6.87l.001-.057.002-.056.004-.056.006-.056.007-.055.008-.055.01-.055.012-.054.013-.054.014-.053.016-.053.018-.053.018-.052.021-.051.021-.051.023-.05.025-.05.025-.048.027-.048.029-.048.03-.046.031-.046.032-.045.034-.044.035-.043.036-.043.037-.041.039-.04.039-.04.041-.038.043-.037.043-.036.086-.052.09-.052.093-.054.098-.054.102-.055.106-.055.109-.056.114-.056.118-.055.122-.056.126-.054.13-.055.134-.053.138-.053.142-.051.147-.05.15-.048.155-.046.078-.023.08-.022.081-.021.082-.021.083-.02.084-.02.085-.019.086-.019.087-.017.088-.017.089-.017.091-.015.091-.015.092-.014.094-.013.094-.013.095-.011.097-.011.097-.01.099-.009.1-.007.1-.007.102-.006.103-.005.104-.004.105-.003.106-.001L7.5 4l.22.001.215.003.209.006.202.008.197.009.192.012.186.013.18.016.175.017.17.019.164.02.159.022.155.024.149.025.144.027.14.027.135.029.13.031.125.031.121.033.117.033.112.035.108.035.104.037.1.037.096.037.092.039.088.039.084.039.081.04.077.041.073.04.073-.04.077-.041.081-.04.084-.039.088-.039.092-.039.096-.037.1-.037.104-.037.108-.035.112-.035.117-.033.121-.033.125-.031.13-.031.135-.029.14-.027.144-.027.149-.025.155-.024.159-.022.164-.02.17-.019.175-.017.18-.016.186-.013.192-.012.197-.009.202-.008.209-.006.215-.003L16.5 4l.1.001zM7.414 6l-.084.002-.085.002-.082.003-.083.004-.081.005-.079.005-.079.006-.077.007-.078.008-.077.009-.073.008-.075.01-.073.011-.072.011-.072.011-.069.012-.069.013-.07.013-.068.014-.067.015-.065.014-.066.016-.065.016-.062.015-.062.017-.062.017-.057.016-.124.037-.116.038-.113.038L5 6.432l-.108.041-.103.041-.1.042-.098.043-.094.043-.091.042-.089.044-.087.044-.083.043-.079.043L4 6.896l.001 2.157.001 1.406.003 1.523.004 1.568.007 1.542.005.739.001.121.047-.025.153-.078.157-.077.159-.074.162-.072.165-.07.165-.065.09-.034.085-.032.087-.03.087-.03.089-.029.089-.028.089-.027.092-.027.091-.025.093-.024.092-.023.093-.022.096-.021.096-.019.096-.018.096-.017.097-.015.099-.015.1-.012.099-.011.101-.01.101-.008.101-.006.105-.004.103-.003.106-.001.118.001.121.005.119.007.119.01.116.013.114.015.113.018.111.02.111.022.107.024.105.026.104.028.104.029.1.031.097.032.097.034.095.035.092.036.09.036.088.038.087.038.087.04.082.039.08.039.082.041.083.043.145.079.144.081.136.081.131.08.124.078.118.075.112.073.2.131.178.117.073.047.068.042.057.035.047.027.04.022.019.01.283.111.283-.111.002-.001.011-.006.005-.003.041-.022.047-.027.057-.035.068-.042.073-.047.178-.117.2-.131.112-.073.118-.075.124-.078.131-.08.136-.081.144-.081.145-.079.083-.043.081-.041.082-.04.081-.038.087-.04.087-.038.088-.038.09-.036.092-.036.095-.035.097-.034.097-.032.1-.031.104-.029.104-.028.105-.026.107-.024.111-.022.111-.02.113-.018.114-.015.116-.013.119-.01.119-.007.121-.005.118-.001.107.001.103.003.103.005.104.007.099.008.102.01.1.013.098.013.098.015.097.016.097.018.096.02.095.02.094.022.094.023.094.025.09.025.09.026.091.028.09.029.09.029.087.031.088.031.087.033.085.033.09.035.163.068.165.073.162.075.161.078.157.08.153.081.073.04-.001-.843-.002-1.534-.003-1.561-.003-.769-.003-.749-.005-.722-.004-.683-.006-.638-.007-.582-.008-.517-.009-.454v-.001l-.018-.011-.072-.043-.074-.043-.08-.045-.08-.044-.085-.044-.088-.044-.09-.044-.094-.044-.097-.044-.1-.042-.103-.042-.104-.041-.108-.04-.112-.039-.114-.037-.12-.038-.055-.016-.06-.017-.061-.016-.062-.017-.061-.015-.063-.015-.063-.015-.063-.014-.065-.014-.066-.013-.066-.013-.066-.011-.067-.012-.069-.011-.069-.01-.069-.009-.07-.009-.071-.008-.071-.008-.071-.007-.073-.006-.074-.005-.075-.004-.074-.004-.075-.003-.077-.002L16.577 6H16.5l-.2.001-.193.003-.187.005-.18.007-.174.008-.168.01-.161.012-.156.013-.149.015-.143.016-.139.017-.131.018-.125.02-.12.02-.115.021-.109.022-.104.022-.098.023-.092.023-.088.024-.082.023-.077.024-.073.024-.067.023-.063.024-.059.023-.053.022-.049.022-.046.021-.04.02-.036.019L12 7.112l-1.023-.567-.035-.018-.041-.021-.046-.021-.049-.022-.053-.022-.059-.023-.063-.024-.067-.023-.073-.024-.077-.024-.082-.023-.088-.024-.092-.023-.098-.023-.104-.022-.109-.022-.115-.021-.12-.02-.125-.02-.131-.018-.139-.017-.143-.016-.149-.015-.156-.013-.161-.012-.168-.01-.174-.008-.18-.007-.187-.005-.193-.003L7.5 6h-.086z"/><path fill-rule="nonzero" d="M11 6h2v12h-2z"/></svg>