<svg viewBox="0 0 24 24" xmlns="http://www.w3.org/2000/svg" fill-rule="evenodd" clip-rule="evenodd" stroke-linejoin="round" stroke-miterlimit="1.414"><path d="M20.081 7.001l.051.002.05.003.05.004.049.006.049.007.049.008.048.009.048.01.048.012.047.013.046.014.046.014.046.017.045.017.044.018.044.019.043.02.043.021.042.023.042.023.041.024.04.025.04.026.039.027.038.028.037.029.037.03.036.03.036.032.034.032.034.033.033.034.032.034.032.036.03.036.03.037.029.037.028.038.027.039.026.04.025.04.024.041.023.042.023.042.021.043.02.043.019.044.018.044.017.045.017.046.014.046.014.046.013.047.012.048.01.048.009.048.008.048.007.05.006.049.004.05.003.05.002.051.001.05v11.062l-.001.05-.002.051-.003.05-.004.05-.006.049-.007.05-.008.048-.009.048-.01.048-.012.048-.013.047-.014.046-.014.046-.017.046-.017.045-.018.044-.019.044-.02.043-.021.043-.023.042-.023.042-.024.041-.025.04-.026.04-.027.039-.028.038-.029.037-.03.037-.03.036-.032.036-.032.034-.033.034-.034.033-.034.032-.036.032-.036.03-.037.03-.037.029-.038.028-.039.027-.04.026-.04.025-.041.024-.042.023-.042.023-.043.021-.043.02-.044.019-.044.018-.045.017-.046.017-.046.014-.046.014-.047.013-.048.012-.048.01-.048.009-.049.008-.049.007-.049.006-.05.004-.05.003-.051.002-.05.001H3.969l-.05-.001-.051-.002-.05-.003-.05-.004-.049-.006-.049-.007-.049-.008-.048-.009-.048-.01-.048-.012-.047-.013-.046-.014-.046-.014-.046-.017-.045-.017-.044-.018-.044-.019-.043-.02-.043-.021-.042-.023-.042-.023-.041-.024-.04-.025-.04-.026-.039-.027-.038-.028-.037-.029-.037-.03-.036-.03-.036-.032-.034-.032-.034-.033-.033-.034-.032-.034-.032-.036-.03-.036-.03-.037-.029-.037-.028-.038-.027-.039-.026-.04-.025-.04-.024-.041-.023-.042-.023-.042-.021-.043-.02-.043-.019-.044-.018-.044-.017-.045-.017-.046-.014-.046-.014-.046-.013-.047-.012-.048-.01-.048-.009-.048-.008-.048-.007-.05-.006-.049-.004-.05-.003-.05-.002-.051-.001-.05V8.969l.001-.05.002-.051.003-.05.004-.05.006-.049.007-.05.008-.048.009-.048.01-.048.012-.048.013-.047.014-.046.014-.046.017-.046.017-.045.018-.044.019-.044.02-.043.021-.043.023-.042.023-.042.024-.041.025-.04.026-.04.027-.039.028-.038.029-.037.03-.037.03-.036.032-.036.032-.034.033-.034.034-.033.034-.032.036-.032.036-.03.037-.03.037-.029.038-.028.039-.027.04-.026.04-.025.041-.024.042-.023.042-.023.043-.021.043-.02.044-.019.044-.018.045-.017.046-.017.046-.014.046-.014.047-.013.048-.012.048-.01.048-.009.049-.008.049-.007.049-.006.05-.004.05-.003.051-.002.05-.001h16.062l.05.001zM4 9v11h16V9H4z"/><path d="M14.043 3.001l.077.003.078.005.076.007.076.008.077.011.075.012.074.014.075.017.072.018.073.019.071.022.072.023.07.024.069.027.069.028.067.029.068.032.066.033.064.034.064.035.064.038.062.039.061.04.06.041.058.043.059.045.056.045.055.047.055.049.053.049.052.051.051.052.05.053.048.054.047.056.045.056.045.059.043.058.041.06.04.061.039.062.037.063.036.064.035.066.032.065.032.067.029.068.028.069.027.069.024.07.023.071.022.072.019.073.018.073.016.074.015.075.012.075.011.075.008.076.007.077.005.077.003.078.001.071V8h-2V6.007l-.001-.026-.002-.027-.002-.026-.003-.026-.004-.026-.004-.026-.005-.025-.006-.025-.006-.025-.006-.024-.007-.024-.008-.024-.009-.024-.009-.024-.009-.023-.01-.023-.011-.022-.011-.023-.011-.022-.013-.022-.012-.021-.013-.021-.014-.021-.015-.021-.014-.02-.015-.019-.016-.02-.016-.019-.017-.019-.017-.018-.017-.018-.018-.018-.018-.017-.019-.016-.019-.016-.019-.016-.02-.015-.02-.014-.021-.015-.021-.014-.021-.013-.021-.012-.022-.012-.023-.013-.022-.011-.022-.01-.023-.01-.023-.009-.024-.009-.024-.009-.023-.008-.025-.007-.024-.006-.026-.007-.024-.005-.025-.005-.026-.004-.025-.004-.026-.003-.027-.002-.026-.002L13.993 5H10.007l-.027.001-.026.002-.027.002-.026.003-.025.004-.026.004-.025.005-.024.005-.026.007-.024.006-.025.007-.023.008-.024.009-.024.009-.023.009-.023.01-.022.01-.022.011-.023.013-.022.012-.021.012-.021.013-.021.014-.021.015-.02.014-.02.015-.019.016-.019.016-.019.016-.018.017-.018.018-.017.018-.017.018-.017.019-.016.019-.016.02-.015.019-.014.02-.015.021-.014.021-.013.021-.012.021-.013.022-.011.022-.011.023-.011.022-.01.023-.009.023-.009.024-.009.024-.008.024-.007.024-.006.024-.006.025-.006.025-.005.025-.004.026-.004.026-.003.026-.002.026-.002.027L9 6.007V8H7V6.028l.001-.071.003-.078.005-.077.007-.077.008-.076.011-.075.012-.075.015-.075.016-.074.018-.073.019-.073.022-.072.023-.071.024-.07.027-.069.028-.069.029-.068.032-.067.032-.065.035-.066.036-.064.037-.063.039-.062.04-.061.041-.06.043-.058.045-.059.045-.056.047-.056.048-.054.05-.053.051-.052.052-.051.053-.049.055-.049.055-.047.056-.045.059-.045.058-.043.06-.041.061-.04.062-.039.064-.038.064-.035.064-.034.066-.033.068-.032.067-.029.069-.028.069-.027.07-.024.072-.023.071-.022.073-.019.072-.018.075-.017.074-.014.075-.012.077-.011.076-.008.076-.007.078-.005.077-.003.071-.001h3.944l.071.001z"/><path fill-rule="nonzero" d="M3 13h18v2H3zM10 16h4v2h-4z"/></svg>