<svg viewBox="0 0 24 24" xmlns="http://www.w3.org/2000/svg" fill-rule="evenodd" clip-rule="evenodd" stroke-linejoin="round" stroke-miterlimit="1.414"><path d="M12.065 7l.064.002.064.002.064.003.064.003.063.005.064.005.063.006.063.007.062.007.063.009.062.009.062.01.062.01.061.012.061.012.061.013.061.013.06.014.06.016.06.015.059.017.059.017.059.018.059.019.058.019.058.02.057.021.058.021.057.022.112.046.112.049.11.051.108.054.107.057.106.059.104.061.102.064.101.066.099.069.097.071.095.073.094.075.091.078.09.08.088.081.086.084.084.086.081.088.08.09.078.091.075.094.073.095.071.097.069.099.066.101.064.102.061.104.059.106.057.107.054.108.051.11.049.112.046.112.022.057.021.058.021.057.02.058.019.058.019.059.018.059.017.059.017.059.015.06.016.06.014.06.013.061.013.061.012.061.012.061.01.062.01.062.009.062.009.063.007.062.007.063.006.063.005.064.005.063.003.064.003.064.002.064.002.064v.13l-.002.064-.002.064-.003.064-.003.064-.005.063-.005.064-.006.063-.007.063-.007.062-.009.063-.009.062-.01.062-.01.062-.012.061-.012.061-.013.061-.013.061-.014.06-.016.06-.015.06-.017.059-.017.059-.018.059-.019.059-.019.058-.02.058-.021.057-.021.058-.022.057-.046.112-.049.112-.051.11-.054.108-.057.107-.059.106-.061.104-.064.102-.066.101-.069.099-.071.097-.073.095-.075.094-.078.091-.08.09-.081.088-.084.086-.086.084-.088.081-.09.08-.091.078-.094.075-.095.073-.097.071-.099.069-.101.066-.102.064-.104.061-.106.059-.107.057-.108.054-.11.051-.112.049-.112.046-.057.022-.058.021-.057.021-.058.02-.058.019-.059.019-.059.018-.059.017-.059.017-.06.015-.06.016-.06.014-.061.013-.061.013-.061.012-.061.012-.062.01-.062.01-.062.009-.063.009-.062.007-.063.007-.063.006-.064.005-.063.005-.064.003-.064.003-.064.002-.064.002h-.13l-.064-.002-.064-.002-.064-.003-.064-.003-.063-.005-.064-.005-.063-.006-.063-.007-.062-.007-.063-.009-.062-.009-.062-.01-.062-.01-.061-.012-.061-.012-.061-.013-.061-.013-.06-.014-.06-.016-.06-.015-.059-.017-.059-.017-.059-.018-.059-.019-.058-.019-.058-.02-.057-.021-.058-.021-.057-.022-.112-.046-.112-.049-.11-.051-.108-.054-.107-.057-.106-.059-.104-.061-.102-.064-.101-.066-.099-.069-.097-.071-.095-.073-.094-.075-.091-.078-.09-.08-.088-.081-.086-.084-.084-.086-.081-.088-.08-.09-.078-.091-.075-.094-.073-.095-.071-.097-.069-.099-.066-.101-.064-.102-.061-.104-.059-.106-.057-.107-.054-.108-.051-.11-.049-.112-.046-.112-.022-.057-.021-.058-.021-.057-.02-.058-.019-.058-.019-.059-.018-.059-.017-.059-.017-.059-.015-.06-.016-.06-.014-.06-.013-.061-.013-.061-.012-.061-.012-.061-.01-.062-.01-.062-.009-.062-.009-.063-.007-.062-.007-.063-.006-.063-.005-.064-.005-.063-.003-.064-.003-.064-.002-.064L7 12.065v-.13l.002-.064.002-.064.003-.064.003-.064.005-.063.005-.064.006-.063.007-.063.007-.062.009-.063.009-.062.01-.062.01-.062.012-.061.012-.061.013-.061.013-.061.014-.06.016-.06.015-.06.017-.059.017-.059.018-.059.019-.059.019-.058.02-.058.021-.057.021-.058.022-.057.046-.112.049-.112.051-.11.054-.108.057-.107.059-.106.061-.104.064-.102.066-.101.069-.099.071-.097.073-.095.075-.094.078-.091.08-.09.081-.088.084-.086.086-.084.088-.081.09-.08.091-.078.094-.075.095-.073.097-.071.099-.069.101-.066.102-.064.104-.061.106-.059.107-.057.108-.054.11-.051.112-.049.112-.046.057-.022.058-.021.057-.021.058-.02.058-.019.059-.019.059-.018.059-.017.059-.017.06-.015.06-.016.06-.014.061-.013.061-.013.061-.012.061-.012.062-.01.062-.01.062-.009.063-.009.062-.007.063-.007.063-.006.064-.005.063-.005.064-.003.064-.003.064-.002.064-.002h.13zm-.104 2l-.039.001-.039.001-.039.002-.039.002-.037.003-.039.003-.038.004-.037.004-.038.004-.038.005-.037.006-.037.006-.036.006-.036.007-.039.007-.036.008-.035.008-.037.008-.035.009-.035.01-.037.01-.035.01-.034.01-.036.012-.035.011-.033.012-.035.012-.035.013-.028.011-.073.03-.066.029-.067.031-.064.032-.064.034-.064.036-.062.036-.061.039-.061.04-.059.041-.059.043-.057.043-.057.046-.055.047-.054.048-.053.049-.052.05-.05.052-.049.053-.048.054-.047.055-.046.057-.044.057-.042.059-.041.059-.04.061-.039.061-.036.062-.036.064-.034.064-.032.065-.031.066-.029.066-.03.073-.011.029-.012.034-.013.034-.012.035-.011.034-.011.035-.011.035-.01.036-.01.035-.01.036-.009.036-.008.036-.008.036-.008.036-.007.037-.007.036-.006.037-.006.037-.006.038-.005.037-.004.038-.004.037-.004.038-.003.039-.003.038-.002.038-.002.039-.001.039-.001.039v.078l.001.039.001.039.002.039.002.038.003.038.003.039.004.038.004.037.004.038.005.037.006.038.006.037.006.037.007.036.007.037.008.036.008.036.008.036.009.036.01.036.01.035.01.036.011.035.011.035.011.034.012.035.013.034.012.034.011.029.03.073.029.066.031.066.032.065.034.064.036.064.036.062.039.061.04.061.041.059.042.059.044.057.046.057.047.055.048.054.049.053.05.052.052.05.053.049.054.048.055.047.057.046.057.043.059.043.059.041.061.04.061.039.062.036.064.036.064.034.064.032.067.031.066.029.073.03.028.011.035.013.035.012.033.012.035.011.036.012.034.01.035.01.037.01.035.01.035.009.037.008.035.008.036.008.039.007.036.007.036.006.037.006.037.006.038.005.038.004.037.004.038.004.039.003.037.003.039.002.039.002.039.001.039.001h.078l.039-.001.039-.001.039-.002.039-.002.037-.003.039-.003.038-.004.037-.004.038-.004.038-.005.037-.006.037-.006.036-.006.036-.007.039-.007.036-.008.035-.008.037-.008.035-.009.035-.01.037-.01.035-.01.034-.01.036-.012.035-.011.033-.012.035-.012.035-.013.028-.011.073-.03.066-.029.067-.031.064-.032.064-.034.064-.036.062-.036.061-.039.061-.04.059-.041.059-.043.057-.043.057-.046.055-.047.054-.048.053-.049.052-.05.05-.052.049-.053.048-.054.047-.055.046-.057.044-.057.042-.059.041-.059.04-.061.039-.061.036-.062.036-.064.034-.064.032-.065.031-.066.029-.066.03-.073.011-.029.012-.034.013-.034.012-.035.011-.034.011-.035.011-.035.01-.036.01-.035.01-.036.009-.036.008-.036.008-.036.008-.036.007-.037.007-.036.006-.037.006-.037.006-.038.005-.037.004-.038.004-.037.004-.038.003-.039.003-.038.002-.038.002-.039.001-.039.001-.039v-.078l-.001-.039-.001-.039-.002-.039-.002-.038-.003-.038-.003-.039-.004-.038-.004-.037-.004-.038-.005-.037-.006-.038-.006-.037-.006-.037-.007-.036-.007-.037-.008-.036-.008-.036-.008-.036-.009-.036-.01-.036-.01-.035-.01-.036-.011-.035-.011-.035-.011-.034-.012-.035-.013-.034-.012-.034-.011-.029-.03-.073-.029-.066-.031-.066-.032-.065-.034-.064-.036-.064-.036-.062-.039-.061-.04-.061-.041-.059-.042-.059-.044-.057-.046-.057-.047-.055-.048-.054-.049-.053-.05-.052-.052-.05-.053-.049-.054-.048-.055-.047-.057-.046-.057-.043-.059-.043-.059-.041-.061-.04-.061-.039-.062-.036-.064-.036-.064-.034-.064-.032-.067-.031-.066-.029-.073-.03-.028-.011-.035-.013-.035-.012-.033-.012-.035-.011-.036-.012-.034-.01-.035-.01-.037-.01-.035-.01-.035-.009-.037-.008-.035-.008-.036-.008-.039-.007-.036-.007-.036-.006-.037-.006-.037-.006-.038-.005-.038-.004-.037-.004-.038-.004-.039-.003-.037-.003-.039-.002-.039-.002-.039-.001L12.039 9h-.078zM11 4h2v2h-2zM18.364 7.05L16.95 5.636 15.536 7.05l1.414 1.414 1.414-1.414zM20 13v-2h-2v2h2zM16.95 18.364l1.414-1.414-1.414-1.414-1.414 1.414 1.414 1.414zM11 18h2v2h-2zM5.636 16.95l1.414 1.414 1.414-1.414-1.414-1.414-1.414 1.414zM4 11v2h2v-2H4zM7.05 5.636L5.636 7.05 7.05 8.464 8.464 7.05 7.05 5.636z"/></svg>