<svg viewBox="0 0 24 24" xmlns="http://www.w3.org/2000/svg" fill-rule="evenodd" clip-rule="evenodd" stroke-linejoin="round" stroke-miterlimit="1.414"><path fill="none" d="M0 0h24v24H0z"/><path d="M10.957 10.999c.004-2.017.018-4.034.044-6.051.009-.234.052-.463.138-.681a2.021 2.021 0 0 1 1.174-1.146c.204-.075.418-.112.635-.12 2.368-.03 4.736-.03 7.104 0 .217.008.431.045.635.12.532.195.966.619 1.174 1.146.086.218.129.447.138.681.06 4.701.06 9.403 0 14.104a2.061 2.061 0 0 1-.138.681 2.021 2.021 0 0 1-1.174 1.146 2.053 2.053 0 0 1-.635.12c-2.368.03-4.736.03-7.104 0a2.053 2.053 0 0 1-.635-.12 2.033 2.033 0 0 1-.313-.147 2.033 2.033 0 0 1-.313.147 2.053 2.053 0 0 1-.635.12c-2.368.03-4.736.03-7.104 0a2.053 2.053 0 0 1-.635-.12 2.021 2.021 0 0 1-1.174-1.146 2.061 2.061 0 0 1-.138-.681 238.848 238.848 0 0 1 0-6.104c.009-.234.052-.463.138-.681a2.021 2.021 0 0 1 1.174-1.146c.204-.075.418-.112.635-.12 2.336-.03 4.673-.03 7.009-.002zm2.043 8V19c.003.003.009 0 .013 0h6.974c.004 0 .01.003.013 0 .002-.003 0-.009 0-.013V5.013c0-.004.003-.01 0-.013-.003-.003-.009 0-.013 0h-6.974c-.004 0-.01-.003-.013 0-.003.003 0 .009 0 .013v7.988a239.85 239.85 0 0 1 0 5.998zM10.957 13H4.001c-.003.003-.001.008-.001.013 0 1.995-.025 3.991 0 5.986.003.003.009.001.013.001h6.974c.004 0 .01.003.013 0v-.001C10.975 17 10.96 15 10.957 13z"/><path d="M14 7h2v2h-2zM14 11h2v2h-2zM17 7h2v2h-2zM17 11h2v2h-2zM14 15h2v2h-2zM17 15h2v2h-2zM5 15h2v2H5zM8 15h2v2H8z"/></svg>