<svg viewBox="0 0 24 24" xmlns="http://www.w3.org/2000/svg" fill-rule="evenodd" clip-rule="evenodd" stroke-linejoin="round" stroke-miterlimit="1.414"><path d="M16.791 13.963c.176-.137.388-.22.614-.242.374-.037.744.095 1.01.361l2.996 2.995c.352.352.439.89.216 1.335l-.129.258-4.707-4.707zM2.86 5.132a11.185 11.185 0 0 1-.107-.227 1.952 1.952 0 0 1 .662-2.454l.199-.135c.004.012 4.828 4.983 4.828 4.983-.09.211-1.086.943-1.398 1.147.3.458.611.908.931 1.352a33.421 33.421 0 0 0 1.988 2.489c1.394 1.576 2.968 3.02 4.716 4.197.251-.379.54-.813.806-1.211.13-.195.311-.348.523-.437l4.781 4.68-.193.268a1.998 1.998 0 0 1-2.281.723 23.78 23.78 0 0 1-1.437-.532c-3.714-1.625-6.841-4.365-9.371-7.497a37.577 37.577 0 0 1-2.506-3.511 39.536 39.536 0 0 1-1.044-1.749A11.65 11.65 0 0 1 2.86 5.132zM9.321 6.521c.139-.174.223-.386.247-.611a1.255 1.255 0 0 0-.354-1.013L6.24 1.88a1.156 1.156 0 0 0-1.333-.227l-.259.128 4.673 4.74z"/></svg>