<svg viewBox="0 0 24 24" xmlns="http://www.w3.org/2000/svg" fill-rule="evenodd" clip-rule="evenodd" stroke-linejoin="round" stroke-miterlimit="1.414"><path d="M15.875 13.488a1.258 1.258 0 0 1 1.438.238l2.047 2.047c.352.352.439.89.216 1.335l-.027.054-3.674-3.674zM4.7 6.376v-.001a1.77 1.77 0 0 1 .6-2.243c.004.01 3.847 3.97 3.847 3.97-.072.168-.865.752-1.114.914a27.406 27.406 0 0 0 2.326 3.06c1.111 1.256 2.364 2.407 3.758 3.344.199-.302.43-.647.641-.965a.946.946 0 0 1 .417-.348l3.809 3.729a1.948 1.948 0 0 1-2.254.693 16.374 16.374 0 0 1-.862-.327c-2.959-1.295-5.451-3.478-7.466-5.973a28.043 28.043 0 0 1-.918-1.202 31.174 31.174 0 0 1-1.911-2.989A9.274 9.274 0 0 1 4.7 6.376zM9.772 7.406a1.251 1.251 0 0 0-.229-1.439L7.511 3.905a1.157 1.157 0 0 0-1.333-.226l-.054.027 3.648 3.7z"/></svg>