<svg viewBox="0 0 24 24" xmlns="http://www.w3.org/2000/svg" fill-rule="evenodd" clip-rule="evenodd" stroke-linejoin="round" stroke-miterlimit="1.414"><path d="M20.08 5.001l.051.002.05.003.05.004.05.006.049.007.048.008.049.009.048.01.047.012.047.013.047.014.046.015.045.016.045.017.045.018.043.019.044.02.043.022.042.022.041.023.041.024.041.025.039.027.039.027.039.027.037.029.037.03.036.03.035.032.035.032.034.033.033.034.032.035.032.035.03.036.03.037.029.037.027.039.027.039.027.039.025.041.024.041.023.041.022.042.022.043.02.044.019.043.018.045.017.045.016.045.015.046.014.047.013.047.012.047.01.048.009.049.008.048.007.049.006.05.004.05.003.05.002.051.001.05v6.06l-.001.05-.002.051-.003.05-.004.05-.006.05-.007.049-.008.048-.009.049-.01.048-.012.047-.013.047-.014.047-.015.046-.016.045-.017.045-.018.045-.019.043-.02.044-.022.043-.022.042-.023.041-.024.041-.025.041-.027.039-.027.039-.027.039-.029.037-.03.037-.03.036-.032.035-.032.035-.033.034-.034.033-.035.032-.035.032-.036.03-.037.03-.037.029-.039.027-.039.027-.039.027-.041.025-.041.024-.041.023-.042.022-.043.022-.044.02-.043.019-.045.018-.045.017-.045.016-.046.015-.047.014-.047.013-.047.012-.048.01-.049.009-.048.008-.049.007-.05.006-.05.004-.05.003-.051.002-.05.001H7.97l-.05-.001-.051-.002-.05-.003-.05-.004-.05-.006-.049-.007-.048-.008-.049-.009-.048-.01-.047-.012-.047-.013-.047-.014-.046-.015-.045-.016-.045-.017-.045-.018-.043-.019-.044-.02-.043-.022-.042-.022-.041-.023-.041-.024-.041-.025-.039-.027-.039-.027-.039-.027-.037-.029-.037-.03-.036-.03-.035-.032-.035-.032-.034-.033-.033-.034-.032-.035-.032-.035-.03-.036-.03-.037-.029-.037-.027-.039-.027-.039-.027-.039-.025-.041-.024-.041-.023-.041-.022-.042-.022-.043-.02-.044-.019-.043-.018-.045-.017-.045-.016-.045-.015-.046-.014-.047-.013-.047-.012-.047-.01-.048-.009-.049-.008-.048-.007-.049-.006-.05-.004-.05-.003-.05-.002-.051L6 13.03V6.97l.001-.05.002-.051.003-.05.004-.05.006-.05.007-.049.008-.048.009-.049.01-.048.012-.047.013-.047.014-.047.015-.046.016-.045.017-.045.018-.045.019-.043.02-.044.022-.043.022-.042.023-.041.024-.041.025-.041.027-.039.027-.039.027-.039.029-.037.03-.037.03-.036.032-.035.032-.035.033-.034.034-.033.035-.032.035-.032.036-.03.037-.03.037-.029.039-.027.039-.027.039-.027.041-.025.041-.024.041-.023.042-.022.043-.022.044-.02.043-.019.045-.018.045-.017.045-.016.046-.015.047-.014.047-.013.047-.012.048-.01.049-.009.048-.008.049-.007.05-.006.05-.004.05-.003.051-.002L7.97 5h12.06l.05.001zM8 7v6h12V7H8z"/><circle cx="10" cy="19" r="2"/><circle cx="19" cy="19" r="2"/><path d="M5.044 3.001a1.016 1.016 0 0 1 .663.292l2 2-1.414 1.414L4.586 5H2V3c1.015 0 2.029-.021 3.044.001zM8 16h12v2H7l-.071-.003a1.095 1.095 0 0 1-.278-.06 1.01 1.01 0 0 1-.588-.588A1.092 1.092 0 0 1 6 17v-4h2v3z" fill-rule="nonzero"/></svg>