<svg viewBox="0 0 24 24" xmlns="http://www.w3.org/2000/svg" fill-rule="evenodd" clip-rule="evenodd" stroke-linejoin="round" stroke-miterlimit="1.414"><path d="M12.129 3.001l.129.002.128.004.128.006.128.007.127.009.127.011.126.012.126.013.125.015.125.017.124.018.124.02.123.021.123.023.122.024.122.026.121.027.121.029.12.03.119.032.119.033.119.034.117.036.117.037.117.039.116.04.115.041.114.043.114.044.113.046.113.046.112.048.111.05.11.051.11.052.109.053.108.055.107.056.107.057.106.058.105.06.104.061.104.062.102.063.102.064.101.066.1.067.1.068.098.069.098.07.097.072.095.072.095.074.094.075.093.076.093.077.091.078.09.079.089.08.089.081.087.083.086.083.086.084.084.086.083.086.083.087.081.089.08.089.079.09.078.091.077.093.076.093.075.094.074.095.072.095.072.097.07.098.069.098.068.1.067.1.066.101.064.102.063.102.062.104.061.104.06.105.058.106.057.107.056.107.055.108.053.109.052.11.051.11.05.111.048.112.046.113.046.113.044.114.043.114.041.115.04.116.039.117.037.117.036.117.034.119.033.119.032.119.03.12.029.121.027.121.026.122.024.122.023.123.021.123.02.124.018.124.017.125.015.125.013.126.012.126.011.127.009.127.007.128.006.128.004.128.002.129L22 13l-.001.129-.002.129-.004.128-.006.128-.007.128-.009.127-.011.127-.012.126-.013.126-.015.125-.017.125-.018.124-.02.124-.021.123-.023.123-.024.122-.026.122-.027.121-.029.121-.03.12-.032.119-.033.119-.034.119-.036.117-.037.117-.039.117-.04.116-.041.115-.043.114-.044.114-.046.113-.046.113-.048.112-.05.111-.051.11-.052.11-.053.109-.055.108-.056.107-.057.107-.058.106-.06.105-.061.104-.062.104-.063.102-.064.102-.066.101-.067.1-.068.1-.069.098-.07.098-.072.097-.072.095-.074.095-.075.094-.076.093-.077.093-.078.091-.079.09-.08.089-.081.089-.083.087-.083.086-.084.086-.086.084-.086.083-.087.083-.089.081-.089.08-.09.079-.091.078-.093.077-.093.076-.094.075-.095.074-.095.072-.097.072-.098.07-.098.069-.1.068-.1.067-.101.066-.102.064-.102.063-.104.062-.104.061-.105.06-.106.058-.107.057-.107.056-.108.055-.109.053-.11.052-.11.051-.111.05-.112.048-.113.046-.113.046-.114.044-.114.043-.115.041-.116.04-.117.039-.117.037-.117.036-.119.034-.119.033-.119.032-.12.03-.121.029-.121.027-.122.026-.122.024-.123.023-.123.021-.124.02-.124.018-.125.017-.125.015-.126.013-.126.012-.127.011-.127.009-.128.007-.128.006-.128.004-.129.002L12 23l-.129-.001-.129-.002-.128-.004-.128-.006-.128-.007-.127-.009-.127-.011-.126-.012-.126-.013-.125-.015-.125-.017-.124-.018-.124-.02-.123-.021-.123-.023-.122-.024-.122-.026-.121-.027-.121-.029-.12-.03-.119-.032-.119-.033-.119-.034-.117-.036-.117-.037-.117-.039-.116-.04-.115-.041-.114-.043-.114-.044-.113-.046-.113-.046-.112-.048-.111-.05-.11-.051-.11-.052-.109-.053-.108-.055-.107-.056-.107-.057-.106-.058-.105-.06-.104-.061-.104-.062-.102-.063-.102-.064-.101-.066-.1-.067-.1-.068-.098-.069-.098-.07-.097-.072-.095-.072-.095-.074-.094-.075-.093-.076-.093-.077-.091-.078-.09-.079-.089-.08-.089-.081-.087-.083-.086-.083-.086-.084-.084-.086-.083-.086-.083-.087-.081-.089-.08-.089-.079-.09-.078-.091-.077-.093-.076-.093-.075-.094-.074-.095-.072-.095-.072-.097-.07-.098-.069-.098-.068-.1-.067-.1-.066-.101-.064-.102-.063-.102-.062-.104-.061-.104-.06-.105-.058-.106-.057-.107-.056-.107-.055-.108-.053-.109-.052-.11-.051-.11-.05-.111-.048-.112-.046-.113-.046-.113-.044-.114-.043-.114-.041-.115-.04-.116-.039-.117-.037-.117-.036-.117-.034-.119-.033-.119-.032-.119-.03-.12-.029-.121-.027-.121-.026-.122-.024-.122-.023-.123-.021-.123-.02-.124-.018-.124-.017-.125-.015-.125-.013-.126-.012-.126-.011-.127-.009-.127-.007-.128-.006-.128-.004-.128-.002-.129L2 13l.001-.129.002-.129.004-.128.006-.128.007-.128.009-.127.011-.127.012-.126.013-.126.015-.125.017-.125.018-.124.02-.124.021-.123.023-.123.024-.122.026-.122.027-.121.029-.121.03-.12.032-.119.033-.119.034-.119.036-.117.037-.117.039-.117.04-.116.041-.115.043-.114.044-.114.046-.113.046-.113.048-.112.05-.111.051-.11.052-.11.053-.109.055-.108.056-.107.057-.107.058-.106.06-.105.061-.104.062-.104.063-.102.064-.102.066-.101.067-.1.068-.1.069-.098.07-.098.072-.097.072-.095.074-.095.075-.094.076-.093.077-.093.078-.091.079-.09.08-.089.081-.089.083-.087.083-.086.084-.086.086-.084.086-.083.087-.083.089-.081.089-.08.09-.079.091-.078.093-.077.093-.076.094-.075.095-.074.095-.072.097-.072.098-.07.098-.069.1-.068.1-.067.101-.066.102-.064.102-.063.104-.062.104-.061.105-.06.106-.058.107-.057.107-.056.108-.055.109-.053.11-.052.11-.051.111-.05.112-.048.113-.046.113-.046.114-.044.114-.043.115-.041.116-.04.117-.039.117-.037.117-.036.119-.034.119-.033.119-.032.12-.03.121-.029.121-.027.122-.026.122-.024.123-.023.123-.021.124-.02.124-.018.125-.017.125-.015.126-.013.126-.012.127-.011.127-.009.128-.007.128-.006.128-.004.129-.002L12 3l.129.001zm-.233 2l-.103.002-.103.003-.103.004-.102.006-.102.007-.101.009-.102.009-.1.011-.1.012-.1.014-.1.014-.099.016-.098.017-.098.018-.098.02-.097.02-.097.022-.096.023-.096.024-.096.025-.095.026-.094.028-.094.029-.093.029-.093.031-.093.032-.092.033-.091.034-.091.035-.09.037-.09.037-.089.039-.089.039-.088.041-.088.041-.087.043-.086.043-.087.045-.085.046-.084.046-.084.048-.084.049-.083.05-.082.05-.081.052-.081.053-.081.053-.079.054-.079.056-.078.056-.078.057-.076.058-.076.059-.076.06-.074.061-.074.062-.073.063-.072.063-.072.064-.071.066-.07.065-.069.067-.068.067-.068.069-.067.069-.066.07-.065.071-.064.072-.063.071-.063.074-.062.074-.061.075-.06.075-.059.076-.058.076-.057.078-.056.078-.055.079-.055.08-.054.08-.052.081-.052.081-.05.082-.05.083-.048.083-.048.084-.047.086-.046.085-.044.085-.044.086-.043.088-.041.087-.041.089-.039.089-.039.088-.037.09-.037.091-.035.091-.034.092-.033.092-.032.091-.031.094-.03.093-.028.094-.027.094-.027.096-.025.095-.024.095-.023.097-.022.096-.02.097-.02.1-.018.098-.017.097-.016.099-.014.1-.014.1-.012.1-.011.101-.009.101-.009.101-.007.102-.005.101-.005.104-.003.103-.002.103L4 13l.001.104.002.103.003.103.005.104.005.101.007.102.009.101.009.101.011.101.012.1.014.1.014.1.016.099.017.097.018.098.02.1.02.097.022.096.023.097.024.095.025.095.027.096.027.094.028.094.03.093.031.094.032.091.033.092.034.092.035.091.037.091.037.09.039.088.039.089.041.089.041.087.043.088.044.086.044.085.046.085.047.085.048.085.048.083.05.083.05.082.052.081.052.081.054.08.055.08.055.079.056.078.057.078.058.076.059.076.06.075.061.075.062.074.063.074.063.071.064.072.065.071.066.07.067.069.068.069.068.067.069.067.07.065.071.066.072.064.072.063.073.063.074.062.074.061.076.06.076.059.077.058.077.057.078.056.079.056.079.054.08.053.082.053.081.052.082.05.083.05.083.049.085.048.084.046.085.046.087.045.086.043.087.043.088.041.088.041.088.039.09.039.09.037.09.036.091.036.091.034.092.033.093.032.093.031.093.029.094.029.094.028.095.026.096.025.096.024.096.023.097.022.097.02.098.02.098.018.098.017.099.016.1.014.1.014.1.012.1.011.101.009.102.009.102.007.102.006.103.004.103.003.103.002L12 21l.104-.001.103-.002.103-.003.103-.004.102-.006.102-.007.102-.009.101-.009.1-.011.1-.012.1-.014.1-.014.099-.016.098-.017.098-.018.098-.02.097-.02.097-.022.096-.023.096-.024.096-.025.095-.026.094-.028.094-.029.093-.029.093-.031.093-.032.092-.033.091-.034.091-.036.09-.036.09-.037.09-.039.088-.039.088-.041.088-.041.087-.043.086-.043.087-.045.085-.046.084-.046.085-.048.083-.049.083-.05.082-.05.081-.052.082-.053.08-.053.079-.054.079-.056.078-.056.077-.057.077-.058.076-.059.076-.06.074-.061.074-.062.073-.063.072-.063.072-.064.071-.066.07-.065.069-.067.068-.067.068-.069.067-.069.066-.07.065-.071.064-.072.063-.071.063-.074.062-.074.061-.075.06-.075.059-.076.058-.076.057-.078.056-.078.055-.079.055-.08.054-.08.052-.081.052-.081.05-.082.05-.083.048-.083.048-.085.047-.085.046-.085.044-.085.044-.086.043-.088.041-.087.041-.089.039-.089.039-.088.037-.09.037-.091.035-.091.034-.092.033-.092.032-.091.031-.094.03-.093.028-.094.027-.094.027-.096.025-.095.024-.095.023-.097.022-.096.02-.097.02-.1.018-.098.017-.097.016-.099.014-.1.014-.1.012-.1.011-.101.009-.101.009-.101.007-.102.005-.101.005-.104.003-.103.002-.103L20 13l-.001-.104-.002-.103-.003-.103-.005-.104-.005-.101-.007-.102-.009-.101-.009-.101-.011-.101-.012-.1-.014-.1-.014-.1-.016-.099-.017-.097-.018-.098-.02-.1-.02-.097-.022-.096-.023-.097-.024-.095-.025-.095-.027-.096-.027-.094-.028-.094-.03-.093-.031-.094-.032-.091-.033-.092-.034-.092-.035-.091-.037-.091-.037-.09-.039-.088-.039-.089-.041-.089-.041-.087-.043-.088-.044-.086-.044-.085-.046-.085-.047-.086-.048-.084-.048-.083-.05-.083-.05-.082-.052-.081-.052-.081-.054-.08-.055-.08-.055-.079-.056-.078-.057-.078-.058-.076-.059-.076-.06-.075-.061-.075-.062-.074-.063-.074-.063-.071-.064-.072-.065-.071-.066-.07-.067-.069-.068-.069-.068-.067-.069-.067-.07-.065-.071-.066-.072-.064-.072-.063-.073-.063-.074-.062-.074-.061-.076-.06-.076-.059-.076-.058-.078-.057-.078-.056-.079-.056-.079-.054-.081-.053-.081-.053-.081-.052-.082-.05-.083-.05-.084-.049-.084-.048-.084-.046-.085-.046-.087-.045-.086-.043-.087-.043-.088-.041-.088-.041-.089-.039-.089-.039-.09-.037-.09-.037-.091-.035-.091-.034-.092-.033-.093-.032-.093-.031-.093-.029-.094-.029-.094-.028-.095-.026-.096-.025-.096-.024-.096-.023-.097-.022-.097-.02-.098-.02-.098-.018-.098-.017-.099-.016-.1-.014-.1-.014-.1-.012-.1-.011-.102-.009-.101-.009-.102-.007-.102-.006-.103-.004-.103-.003-.103-.002L12 5l-.104.001z"/><path d="M12.077 10.001l.077.003.077.005.076.007.075.008.075.011.074.012.073.014.073.016.072.018.072.019.071.021.07.023.069.024.069.026.067.028.067.029.066.031.065.032.064.034.064.036.062.037.061.038.061.04.059.041.058.042.058.044.056.045.055.047.054.048.052.049.052.05.05.052.049.052.048.054.047.055.045.056.044.058.042.058.041.059.04.061.038.061.037.062.036.064.034.064.032.065.031.066.029.067.028.067.026.069.024.069.023.07.021.071.019.072.018.072.016.073.014.073.012.074.011.075.008.075.007.076.005.077.003.077L15 13l-.001.077-.003.077-.005.077-.007.076-.008.075-.011.075-.012.074-.014.073-.016.073-.018.072-.019.072-.021.071-.023.07-.024.069-.026.069-.028.067-.029.067-.031.066-.032.065-.034.064-.036.064-.037.062-.038.061-.04.061-.041.059-.042.058-.044.058-.045.056-.047.055-.048.054-.049.052-.05.052-.052.05-.052.049-.054.048-.055.047-.056.045-.058.044-.058.042-.059.041-.061.04-.061.038-.062.037-.064.036-.064.034-.065.032-.066.031-.067.029-.067.028-.069.026-.069.024-.07.023-.071.021-.072.019-.072.018-.073.016-.073.014-.074.012-.075.011-.075.008-.076.007-.077.005-.077.003L12 16l-.077-.001-.077-.003-.077-.005-.076-.007-.075-.008-.075-.011-.074-.012-.073-.014-.073-.016-.072-.018-.072-.019-.071-.021-.07-.023-.069-.024-.069-.026-.067-.028-.067-.029-.066-.031-.065-.032-.064-.034-.064-.036-.062-.037-.061-.038-.061-.04-.059-.041-.058-.042-.058-.044-.056-.045-.055-.047-.054-.048-.052-.049-.052-.05-.05-.052-.049-.052-.048-.054-.047-.055-.045-.056-.044-.058-.042-.058-.041-.059-.04-.061-.038-.061-.037-.062-.036-.064-.034-.064-.032-.065-.031-.066-.029-.067-.028-.067-.026-.069-.024-.069-.023-.07-.021-.071-.019-.072-.018-.072-.016-.073-.014-.073-.012-.074-.011-.075-.008-.075-.007-.076-.005-.077-.003-.077L9 13l.001-.077.003-.077.005-.077.007-.076.008-.075.011-.075.012-.074.014-.073.016-.073.018-.072.019-.072.021-.071.023-.07.024-.069.026-.069.028-.067.029-.067.031-.066.032-.065.034-.064.036-.064.037-.062.038-.061.04-.061.041-.059.042-.058.044-.058.045-.056.047-.055.048-.054.049-.052.05-.052.052-.05.052-.049.054-.048.055-.047.056-.045.058-.044.058-.042.059-.041.061-.04.061-.038.062-.037.064-.036.064-.034.065-.032.066-.031.067-.029.067-.028.069-.026.069-.024.07-.023.071-.021.072-.019.072-.018.073-.016.073-.014.074-.012.075-.011.075-.008.076-.007.077-.005.077-.003L12 10l.077.001zM11.973 12l-.026.001-.026.002-.025.002-.025.003-.025.004-.025.004-.024.004-.024.006-.023.005-.024.007-.023.007-.023.007-.023.008-.022.009-.023.009-.022.01-.021.01-.022.01-.021.012-.022.012-.021.012-.019.012-.021.014-.02.014-.019.014-.02.015-.019.015-.018.016-.018.015-.018.018-.018.017-.016.016-.017.019-.017.018-.015.018-.015.019-.015.02-.014.019-.015.021-.012.019-.013.02-.013.022-.011.021-.012.021-.01.021-.011.023-.009.022-.009.021-.009.024-.008.023-.007.021-.007.023-.007.025-.006.024-.005.023-.004.024-.004.025-.004.024-.003.025-.002.026-.001.026-.002.026v.054l.002.026.001.026.002.026.003.025.004.024.004.025.004.024.005.023.006.024.007.025.007.023.007.021.008.023.009.024.009.021.009.022.011.023.01.021.012.021.011.021.013.022.013.02.012.019.014.021.015.019.015.02.016.019.014.018.017.018.017.019.016.016.018.017.018.018.018.015.018.016.019.015.02.015.019.014.02.014.021.014.02.012.02.012.022.012.021.012.022.01.021.01.022.01.023.009.022.009.023.008.023.007.023.007.023.007.024.005.024.006.024.004.025.004.025.004.025.003.025.002.026.002.026.001h.054l.026-.001.026-.002.025-.002.026-.003.024-.004.025-.004.024-.004.024-.006.024-.005.023-.007.023-.007.023-.007.023-.008.022-.009.023-.009.022-.01.021-.01.023-.011.021-.011.02-.011.021-.012.021-.014.02-.013.02-.014.019-.014.019-.014.02-.016.018-.016.019-.016.017-.017.017-.016.017-.017.017-.019.017-.018.015-.019.015-.018.015-.02.015-.019.013-.02.013-.02.013-.02.013-.022.011-.021.012-.021.011-.022.01-.022.009-.02.009-.023.009-.024.008-.023.007-.021.007-.025.007-.023.005-.022.006-.025.004-.024.004-.025.004-.024.002-.025.003-.028.002-.024.001-.026v-.054l-.001-.026-.002-.024-.003-.028-.002-.025-.004-.024-.004-.025-.004-.024-.006-.025-.005-.022-.007-.023-.007-.025-.007-.021-.008-.023-.009-.024-.009-.023-.009-.02-.01-.022-.011-.022-.012-.021-.011-.021-.013-.022-.013-.02-.013-.02-.013-.02-.015-.019-.015-.02-.014-.018-.016-.019-.017-.018-.017-.019-.017-.017-.017-.016-.017-.017-.019-.016-.018-.016-.02-.016-.019-.014-.019-.014-.02-.014-.02-.013-.021-.014-.021-.012-.02-.011-.021-.011-.023-.011-.021-.01-.022-.01-.023-.009-.022-.009-.023-.008-.023-.007-.023-.007-.024-.007-.023-.005-.024-.006-.024-.004-.025-.004-.025-.004-.025-.003-.025-.002-.026-.002-.026-.001h-.054z"/><path d="M19.071 18.657l-1.414 1.414-4.95-4.95 1.414-1.414 4.95 4.95z" fill-rule="nonzero"/><path d="M20.952 14.363l-.517 1.932-6.762-1.811.518-1.932 6.761 1.811zM11.293 10.879l-1.414 1.414-4.95-4.95 1.414-1.414 4.95 4.95z" fill-rule="nonzero"/><path d="M12.448 10.809l-1.932.518-1.811-6.762 1.932-.517 1.811 6.761z" fill-rule="nonzero"/></svg>