<svg viewBox="0 0 24 24" xmlns="http://www.w3.org/2000/svg" fill-rule="evenodd" clip-rule="evenodd" stroke-linejoin="round" stroke-miterlimit="1.414"><path d="M15 4v2H6v12h12v-6h2v6.048a2.013 2.013 0 0 1-.103.626 1.97 1.97 0 0 1-1.178 1.208 2.012 2.012 0 0 1-.671.118c-4.049 0-8.098.051-12.147-.001a1.995 1.995 0 0 1-.665-.134 1.973 1.973 0 0 1-1.118-1.146 2.014 2.014 0 0 1-.117-.62 476.914 476.914 0 0 1 0-12.198c.008-.212.044-.421.117-.62a1.97 1.97 0 0 1 1.163-1.163c.215-.079.441-.115.671-.118H15z"/><path d="M21.344 4.037l-7.539 11.847-.174.027-6.771-5.643 1.28-1.536 5.127 4.272 6.389-10.041 1.688 1.074z" fill-rule="nonzero"/></svg>