<svg viewBox="0 0 24 24" xmlns="http://www.w3.org/2000/svg" fill-rule="evenodd" clip-rule="evenodd" stroke-linejoin="round" stroke-miterlimit="1.414"><path d="M18.075 4.001l.051.002.05.003.05.004.05.006.049.007.049.008.048.009.048.011.048.011.047.013.047.014.046.015.045.016.045.017.045.018.044.02.044.02.043.021.042.023.041.023.042.024.04.025.04.026.039.028.038.028.038.028.037.03.036.031.036.031.034.033.034.033.033.034.033.034.031.036.031.036.03.037.028.038.028.038.028.039.026.04.025.04.024.042.023.041.023.042.021.043.02.044.02.044.018.045.017.045.016.045.015.046.014.047.013.047.011.048.011.048.009.048.008.049.007.049.006.05.004.05.003.05.002.051.001.051v12.072l-.001.051-.002.05-.003.05-.004.049-.006.049-.006.049-.008.048-.01.048-.01.047-.011.047-.013.047-.014.046-.015.045-.015.045-.017.045-.018.044-.019.044-.02.042-.022.043-.022.042-.023.041-.024.04-.024.04-.026.04-.027.038-.028.038-.028.037-.03.037-.03.036-.031.035-.032.034-.033.033-.033.033-.034.032-.035.031-.036.03-.037.03-.037.028-.038.028-.038.027-.04.026-.04.024-.04.024-.041.023-.042.022-.043.022-.042.02-.044.019-.044.018-.045.017-.045.015-.045.015-.046.014-.047.013-.047.011-.047.01-.048.01-.048.008-.049.006-.049.006-.049.004-.05.003-.05.002-.051.001H5.952l-.051-.001-.05-.002-.05-.003-.049-.004-.049-.006-.049-.006-.048-.008-.048-.01-.047-.01-.047-.011-.047-.013-.046-.014-.045-.015-.045-.015-.045-.017-.044-.018-.044-.019-.042-.02-.043-.022-.042-.022-.041-.023-.04-.024-.04-.024-.04-.026-.038-.027-.038-.028-.037-.028-.037-.03-.036-.03-.035-.031-.034-.032-.033-.033-.033-.033-.032-.034-.031-.035-.03-.036-.03-.037-.028-.037-.028-.038-.027-.038-.026-.04-.024-.04-.024-.04-.023-.041-.022-.042-.022-.043-.02-.042-.019-.044-.018-.044-.017-.045-.015-.045-.015-.045-.014-.046-.013-.047-.011-.047-.01-.047-.01-.048-.008-.048-.006-.049-.006-.049-.004-.049-.003-.05-.002-.05L4 18.048V5.952l.001-.051.002-.05.003-.05.004-.049.006-.049.006-.049.008-.048.01-.048.01-.047.011-.047.013-.047.014-.046.015-.045.015-.045.017-.045.018-.044.019-.044.02-.042.022-.043.022-.042.023-.041.024-.04.024-.04.026-.04.027-.038.028-.038.028-.037.03-.037.03-.036.031-.035.032-.034.033-.033.033-.033.034-.032.035-.031.036-.03.037-.03.037-.028.038-.028.038-.027.04-.026.04-.024.04-.024.041-.023.042-.022.043-.022.042-.02.044-.019.044-.018.045-.017.045-.015.045-.015.046-.014.047-.013.047-.011.047-.01.048-.01.048-.008.049-.006.049-.006.049-.004.05-.003.05-.002L5.952 4h12.072l.051.001zM6 6v12h12V6H6z"/></svg>