<svg viewBox="0 0 24 24" xmlns="http://www.w3.org/2000/svg" fill-rule="evenodd" clip-rule="evenodd" stroke-linejoin="round" stroke-miterlimit="1.414"><path d="M3.997 15.999c-.011-3.344-.038-6.688.004-10.032.008-.232.051-.459.134-.676.21-.543.654-.977 1.202-1.173.203-.073.415-.109.63-.117C9.972 3.951 13.978 4 17.983 4a2.1 2.1 0 0 1 .68.118c.58.208 1.041.681 1.235 1.266.068.205.099.418.102.633V16h.05c.224.003.445.038.657.114.545.195.984.634 1.179 1.179.07.196.106.401.113.609.005.399.005.797 0 1.196a2.008 2.008 0 0 1-.13.654 1.962 1.962 0 0 1-1.162 1.134c-.196.07-.401.106-.609.113-5.398.067-10.798.067-16.196 0a2.006 2.006 0 0 1-.609-.113c-.53-.19-.96-.609-1.162-1.134a2.008 2.008 0 0 1-.13-.654 47.682 47.682 0 0 1 0-1.196c.008-.224.049-.444.13-.654a1.962 1.962 0 0 1 1.162-1.134c.196-.07.401-.106.609-.113l.095-.002zM20 18H4v1h16v-1zm-2-2.003V6.03c0-.009.001-.017-.005-.024A.014.014 0 0 0 17.983 6c-3.984-.048-7.969 0-11.954 0-.009 0-.019-.001-.025.006A.021.021 0 0 0 6 6.017v9.964c4-.027 8 .006 12 .016z"/></svg>