<svg viewBox="0 0 24 24" xmlns="http://www.w3.org/2000/svg" fill-rule="evenodd" clip-rule="evenodd" stroke-linejoin="round" stroke-miterlimit="1.414"><path fill-rule="nonzero" d="M11 4h2v16h-2z"/><path d="M20.184 6.017l-.368 1.966-16-3 .368-1.966 16 3zM5 19h14v2H5z" fill-rule="nonzero"/><path fill-rule="nonzero" d="M5 4h2v6H5zM17 6h2v6h-2z"/><path d="M9.889 10.06l.014.061.013.06.012.062.012.061.01.062.009.062.009.062.007.063.007.063.005.063.005.064.003.064.003.064.001.064L10 11l-.001.103-.004.103-.007.102-.009.101-.011.1-.014.1-.017.099-.018.098-.022.097-.023.096-.026.096-.028.094-.03.093-.033.093-.035.091-.037.09-.039.09-.041.088-.043.086-.045.086-.047.084-.049.083-.052.082-.053.081-.054.079-.057.078-.059.076-.06.075-.062.073-.064.072-.065.07-.067.069-.069.067-.07.065-.072.064-.073.062-.075.06-.076.059-.078.057-.079.054-.081.053-.082.052-.083.049-.084.047-.086.045-.086.043-.088.041-.09.039-.09.037-.091.035-.093.033-.093.03-.094.028-.096.026-.096.023-.097.022-.098.018-.099.017-.1.014-.1.011-.101.009-.102.007-.103.004L6 15l-.103-.001-.103-.004-.102-.007-.101-.009-.1-.011-.1-.014-.099-.017-.098-.018-.097-.022-.096-.023-.096-.026-.094-.028-.093-.03-.093-.033-.091-.035-.09-.037-.09-.039-.088-.041-.086-.043-.086-.045-.084-.047-.083-.049-.082-.052-.081-.053-.079-.054-.078-.057-.076-.059-.075-.06-.073-.062-.072-.064-.07-.065-.069-.067-.067-.069-.065-.07-.064-.072-.062-.073-.06-.075-.059-.076-.057-.078-.054-.079-.053-.081-.052-.082-.049-.083-.047-.084-.045-.086-.043-.086-.041-.088-.039-.09-.037-.09-.035-.091-.033-.093-.03-.093-.028-.094-.026-.096-.023-.096-.022-.097-.018-.098-.017-.099-.014-.1-.011-.1-.009-.101-.007-.102-.004-.103L2 11l.001-.065.001-.064.003-.064.003-.064.005-.064.005-.063.007-.063.007-.063.009-.062.009-.062.01-.062.012-.061.012-.062.013-.06.014-.061.015-.06h7.748l.015.06zM4.268 12l.021.034.025.041.027.041.027.039.029.04.029.038.031.038.03.036.033.037.033.035.033.034.035.034.036.033.035.032.037.032.038.03.038.029.04.029.039.028.041.026.04.025.041.025.043.024.043.022.043.022.044.02.045.02.044.018.045.017.046.016.046.015.048.014.047.013.047.012.049.01.048.01.049.008.05.007.051.005.051.005.051.003.051.002L6 13l.053-.001.051-.002.051-.003.051-.005.051-.005.05-.007.049-.008.048-.01.049-.01.047-.012.047-.013.048-.014.046-.015.046-.016.045-.017.044-.018.045-.02.044-.02.043-.022.043-.022.043-.024.041-.025.04-.025.041-.026.039-.028.04-.029.038-.029.038-.03.037-.032.035-.032.036-.033.035-.034.033-.034.033-.035.033-.037.03-.036.031-.038.029-.038.029-.04.027-.039.027-.041.025-.041.021-.034H4.268zM21.889 12.06l.014.061.013.06.012.062.012.061.01.062.009.062.009.062.007.063.007.063.005.063.005.064.003.064.003.064.001.064L22 13l-.001.103-.004.103-.007.102-.009.101-.011.1-.014.1-.017.099-.018.098-.022.097-.023.096-.026.096-.028.094-.03.093-.033.093-.035.091-.037.09-.039.09-.041.088-.043.086-.045.086-.047.084-.049.083-.052.082-.053.081-.054.079-.057.078-.059.076-.06.075-.062.073-.064.072-.065.07-.067.069-.069.067-.07.065-.072.064-.073.062-.075.06-.076.059-.078.057-.079.054-.081.053-.082.052-.083.049-.084.047-.086.045-.086.043-.088.041-.09.039-.09.037-.091.035-.093.033-.093.03-.094.028-.096.026-.096.023-.097.022-.098.018-.099.017-.1.014-.1.011-.101.009-.102.007-.103.004L18 17l-.103-.001-.103-.004-.102-.007-.101-.009-.1-.011-.1-.014-.099-.017-.098-.018-.097-.022-.096-.023-.096-.026-.094-.028-.093-.03-.093-.033-.091-.035-.09-.037-.09-.039-.088-.041-.086-.043-.086-.045-.084-.047-.083-.049-.082-.052-.081-.053-.079-.054-.078-.057-.076-.059-.075-.06-.073-.062-.072-.064-.07-.065-.069-.067-.067-.069-.065-.07-.064-.072-.062-.073-.06-.075-.059-.076-.057-.078-.054-.079-.053-.081-.052-.082-.049-.083-.047-.084-.045-.086-.043-.086-.041-.088-.039-.09-.037-.09-.035-.091-.033-.093-.03-.093-.028-.094-.026-.096-.023-.096-.022-.097-.018-.098-.017-.099-.014-.1-.011-.1-.009-.101-.007-.102-.004-.103L14 13l.001-.065.001-.064.003-.064.003-.064.005-.064.005-.063.007-.063.007-.063.009-.062.009-.062.01-.062.012-.061.012-.062.013-.06.014-.061.015-.06h7.748l.015.06zM16.268 14l.021.034.025.041.027.041.027.039.029.04.029.038.031.038.03.036.033.037.033.035.033.034.035.034.036.033.035.032.037.032.038.03.038.029.04.029.039.028.041.026.04.025.041.025.043.024.043.022.043.022.044.02.045.02.044.018.045.017.046.016.046.015.048.014.047.013.047.012.049.01.048.01.049.008.05.007.051.005.051.005.051.003.051.002L18 15l.053-.001.051-.002.051-.003.051-.005.051-.005.05-.007.049-.008.048-.01.049-.01.047-.012.047-.013.048-.014.046-.015.046-.016.045-.017.044-.018.045-.02.044-.02.043-.022.043-.022.043-.024.041-.025.04-.025.041-.026.039-.028.04-.029.038-.029.038-.03.037-.032.035-.032.036-.033.035-.034.033-.034.033-.035.033-.037.03-.036.031-.038.029-.038.029-.04.027-.039.027-.041.025-.041.021-.034h-3.464z"/></svg>