<svg viewBox="0 0 24 24" xmlns="http://www.w3.org/2000/svg" fill-rule="evenodd" clip-rule="evenodd" stroke-linejoin="round" stroke-miterlimit="1.414"><path d="M20.052 4.001l.051.002.051.003.05.004.051.006.049.007.05.008.049.01.048.01.049.012.047.013.047.014.047.015.046.016.046.018.045.018.045.02.044.02.043.022.043.023.042.023.042.025.041.025.04.027.039.027.039.029.038.029.038.03.037.031.035.032.036.033.034.033.033.034.033.036.032.035.031.037.03.038.029.038.029.039.027.039.027.04.025.041.025.042.023.042.023.043.022.043.02.044.02.045.018.045.018.046.016.046.015.047.014.047.013.047.012.049.01.048.01.049.008.05.007.049.006.051.004.05.003.051.002.051L22 6v12l-.001.052-.002.051-.003.051-.004.05-.006.051-.007.049-.008.05-.01.049-.01.048-.012.049-.013.047-.014.047-.015.047-.016.046-.018.046-.018.045-.02.045-.02.044-.022.043-.023.043-.023.042-.025.042-.025.041-.027.04-.027.039-.029.039-.029.038-.03.038-.031.037-.032.035-.033.036-.033.034-.034.033-.036.033-.035.032-.037.031-.038.03-.038.029-.039.029-.039.027-.04.027-.041.025-.042.025-.042.023-.043.023-.043.022-.044.02-.045.02-.045.018-.046.018-.046.016-.047.015-.047.014-.047.013-.049.012-.048.01-.049.01-.05.008-.049.007-.051.006-.05.004-.051.003-.051.002L20 20H4l-.052-.001-.051-.002-.051-.003-.05-.004-.051-.006-.049-.007-.05-.008-.049-.01-.048-.01-.049-.012-.047-.013-.047-.014-.047-.015-.046-.016-.046-.018-.045-.018-.045-.02-.044-.02-.043-.022-.043-.023-.042-.023-.042-.025-.041-.025-.04-.027-.039-.027-.039-.029-.038-.029-.038-.03-.037-.031-.035-.032-.036-.033-.034-.033-.033-.034-.033-.036-.032-.035-.031-.037-.03-.038-.029-.038-.029-.039-.027-.039-.027-.04-.025-.041-.025-.042-.023-.042-.023-.043-.022-.043-.02-.044-.02-.045-.018-.045-.018-.046-.016-.046-.015-.047-.014-.047-.013-.047-.012-.049-.01-.048-.01-.049-.008-.05-.007-.049-.006-.051-.004-.05-.003-.051-.002-.051L2 18V6l.001-.052.002-.051.003-.051.004-.05.006-.051.007-.049.008-.05.01-.049.01-.048.012-.049.013-.047.014-.047.015-.047.016-.046.018-.046.018-.045.02-.045.02-.044.022-.043.023-.043.023-.042.025-.042.025-.041.027-.04.027-.039.029-.039.029-.038.03-.038.031-.037.032-.035.033-.036.033-.034.034-.033.036-.033.035-.032.037-.031.038-.03.038-.029.039-.029.039-.027.04-.027.041-.025.042-.025.042-.023.043-.023.043-.022.044-.02.045-.02.045-.018.046-.018.046-.016.047-.015.047-.014.047-.013.049-.012.048-.01.049-.01.05-.008.049-.007.051-.006.05-.004.051-.003.051-.002L4 4h16l.052.001zM4.012 6H4v11.999l.001.001H20V6H4.012z"/><path d="M3 8h18v4H3z"/></svg>