<svg viewBox="0 0 24 24" xmlns="http://www.w3.org/2000/svg" fill-rule="evenodd" clip-rule="evenodd" stroke-linejoin="round" stroke-miterlimit="1.414"><path d="M7.158 11.14c-.635.066-1.273.043-1.91.053-.118.003-.236.007-.354.014a2.762 2.762 0 0 0-.503.067 1.248 1.248 0 0 0-.273.09.403.403 0 0 0-.211.217.949.949 0 0 0-.06.216 1.853 1.853 0 0 0-.025.278c-.003.149.006.299.022.447.027.252.074.501.129.748.01.038.02.074.032.111.074.198.194.372.336.527.18.196.392.361.618.501a4.213 4.213 0 0 0 2.704.581c.097-.012.193-.03.29-.042.06-.006.059-.006.119-.01.127-.004.253-.003.379.008.162.013.323.039.485.052l.035.001.047.001-.036 2c-.087-.002-.087-.002-.173-.006-.187-.015-.372-.044-.558-.058-.026-.001-.053-.003-.078 0-.088.014-.174.027-.262.039a6.263 6.263 0 0 1-3.807-.748 4.842 4.842 0 0 1-1.451-1.22 3.466 3.466 0 0 1-.495-.856 3.33 3.33 0 0 1-.156-.534 8.734 8.734 0 0 1-.147-.883c-.082-.773-.032-1.6.388-2.276a2.31 2.31 0 0 1 .701-.721c.726-.483 1.632-.539 2.479-.547l.423-.001c.165 0 .331 0 .496-.003.12-.002.239-.007.359-.013.083-.006.166-.013.25-.022l.207 1.989z" fill-rule="nonzero"/><path d="M21.876 8.111l.016.11.015.112.013.112.013.112.011.112.011.113.009.114.009.114.007.114.006.114.005.115.004.115.003.116.001.116.001.116-.001.125-.002.125-.003.124-.004.124-.006.123-.007.123-.009.123-.009.122-.011.122-.012.121-.014.121-.014.121-.016.12-.017.119-.018.119-.02.118-.02.118-.022.118-.023.117-.024.116-.025.116-.027.115-.027.114-.029.114-.03.114-.031.112-.032.113-.033.111-.034.111-.035.11-.037.11-.037.109-.039.108-.039.108-.041.107-.041.106-.043.105-.044.105-.044.104-.046.103-.047.103-.048.102-.048.101-.05.1-.05.099-.052.099-.053.098-.053.097-.054.096-.056.095-.056.095-.057.093-.058.093-.059.092-.06.091-.061.09-.061.09-.063.088-.063.087-.064.087-.065.085-.066.085-.067.084-.067.082-.069.082-.069.081-.069.079-.071.079-.072.078-.072.076-.073.076-.073.074-.075.074-.075.072-.076.072-.077.07-.077.069-.078.068-.079.067-.079.066-.081.065-.08.063-.082.063-.082.061-.083.06-.083.059-.084.058-.085.056-.085.056-.086.054-.087.053-.087.051-.088.051-.088.049-.089.048-.089.046-.09.046-.091.044-.091.043-.092.041-.092.04-.092.039-.093.037-.094.036-.094.035-.095.033-.095.032-.096.031-.096.029-.096.028-.097.026-.098.025-.097.024-.099.022-.098.02-.099.019-.1.018-.1.016-.1.015-.101.013-.101.012-.101.01-.102.008-.102.007-.102.006-.103.004-.103.002L14 19.5l-.103-.001-.103-.002-.103-.004-.102-.006-.102-.007-.102-.008-.101-.01-.101-.012-.101-.013-.1-.015-.1-.016-.1-.018-.099-.019-.098-.02-.099-.022-.097-.024-.098-.025-.097-.026-.096-.028-.096-.029-.096-.031-.095-.032-.095-.033-.094-.035-.094-.036-.093-.037-.092-.039-.092-.04-.092-.041-.091-.043-.091-.044-.09-.046-.089-.046-.089-.048-.088-.049-.088-.051-.087-.051-.087-.053-.086-.054-.085-.056-.085-.056-.084-.058-.083-.059-.083-.06-.082-.061-.082-.063-.08-.063-.081-.065-.079-.066-.079-.067-.078-.068-.077-.069-.077-.07-.076-.072-.075-.072-.075-.074-.073-.074-.073-.076-.072-.076-.072-.078-.071-.079-.069-.079-.069-.081-.069-.082-.067-.082-.067-.084-.066-.085-.065-.085-.064-.087-.063-.087-.063-.088-.061-.09-.061-.09-.06-.091-.059-.092-.058-.093-.057-.093-.056-.095-.056-.095-.054-.096-.053-.097-.053-.098-.052-.099-.05-.099-.05-.1-.048-.101-.048-.102-.047-.103-.046-.103-.044-.104-.044-.105-.043-.105-.041-.106-.041-.107-.039-.108-.039-.108-.037-.109-.037-.11-.035-.11-.034-.111-.033-.111-.032-.113-.031-.112-.03-.114-.029-.114-.027-.114-.027-.115-.025-.116-.024-.116-.023-.117-.022-.118-.02-.118-.02-.118-.018-.119-.017-.119-.016-.12-.014-.121-.014-.121-.012-.121-.011-.122-.009-.122-.009-.123-.007-.123-.006-.123-.004-.124-.003-.124-.002-.125L6 9.816l.001-.116.001-.116.003-.116.004-.115.005-.115.006-.114.007-.114.009-.114.009-.114.011-.113.011-.112.013-.112.013-.112.015-.112.016-.11L6.141 8h15.718l.017.111zM8.002 10v.024l.003.103.004.103.004.102.006.102.007.102.008.103.009.1.011.101.01.1.012.099.014.099.014.099.015.098.016.098.017.097.017.096.02.097.02.097.02.093.022.095.022.095.024.092.025.095.025.092.026.091.027.091.028.092.029.09.03.089.03.088.031.088.033.088.033.088.034.086.034.085.036.085.036.085.037.083.037.083.039.082.04.082.039.081.041.079.041.079.042.079.044.078.043.076.044.077.045.075.046.075.046.074.047.073.047.072.048.071.049.072.049.069.05.069.051.069.05.065.052.067.053.066.052.064.053.064.055.064.053.06.055.061.056.061.055.059.057.059.056.056.057.056.058.057.058.054.058.053.059.053.059.052.06.051.06.049.06.049.062.048.06.047.061.045.062.045.062.044.062.043.064.042.063.041.063.039.062.039.065.038.064.037.065.036.065.035.064.034.065.032.065.032.066.031.067.03.066.028.066.028.067.027.066.025.068.025.067.024.068.023.066.021.069.021.068.02.068.018.069.018.069.016.069.016.069.014.069.014.07.012.07.011.07.011.071.009.071.008.071.007.071.006.071.005.072.004.072.003.072.001.073.001.073-.001.072-.001.072-.003.072-.004.071-.005.071-.006.071-.007.071-.008.071-.009.07-.011.07-.011.07-.012.069-.014.069-.014.069-.016.069-.016.069-.018.068-.018.068-.02.069-.021.066-.021.068-.023.067-.024.068-.025.066-.025.067-.027.066-.028.066-.028.067-.03.066-.031.065-.032.065-.032.064-.034.065-.035.065-.036.064-.037.065-.038.062-.039.063-.039.063-.041.064-.042.062-.043.062-.044.062-.045.061-.045.06-.047.062-.048.06-.049.06-.049.06-.051.059-.052.059-.053.058-.053.058-.054.058-.057.057-.056.056-.056.057-.059.055-.059.056-.061.055-.061.053-.06.055-.064.053-.064.052-.064.053-.066.052-.067.05-.065.051-.069.05-.069.049-.069.049-.072.048-.071.047-.072.047-.073.046-.074.046-.075.045-.075.044-.077.043-.076.044-.078.042-.079.041-.079.041-.079.039-.081.04-.082.039-.082.037-.083.037-.083.036-.085.036-.085.034-.085.034-.086.033-.088.033-.088.031-.088.03-.088.03-.089.029-.09.028-.092.027-.091.026-.091.025-.092.025-.095.024-.092.022-.095.022-.095.02-.093.02-.097.02-.097.017-.096.017-.097.016-.098.015-.098.014-.099.014-.099.012-.099.01-.1.011-.101.009-.1.008-.103.007-.102.006-.102.004-.102.004-.103.003-.103V10H8.002z"/></svg>