<svg viewBox="0 0 24 24" xmlns="http://www.w3.org/2000/svg" fill-rule="evenodd" clip-rule="evenodd" stroke-linejoin="round" stroke-miterlimit="1.414"><path d="M17.905 19.29l-.007.046-.009.045-.009.045-.01.045-.011.044-.013.044-.013.044-.014.043-.015.042-.016.042-.016.042-.018.041-.019.04-.019.04-.02.04-.021.039-.022.038-.023.038-.024.037-.024.037-.025.036-.026.035-.026.035-.028.035-.028.033-.029.033-.029.033-.03.031-.031.031-.031.031-.033.029-.032.029-.034.029-.034.027-.034.027-.035.026-.036.025-.036.024-.037.024-.038.023-.038.022-.038.021-.039.021-.039.019-.04.019-.04.018-.041.017-.041.016-.042.015-.042.014-.042.014-.043.012-.043.012-.044.011-.044.009-.044.009-.044.008-.045.006-.045.006-.046.005-.045.003-.046.003-.047.001-.046.001H8.074l-.046-.001-.047-.001-.046-.003-.045-.003-.046-.005-.045-.006-.045-.006-.044-.008-.044-.009-.044-.009-.044-.011-.043-.012-.043-.012-.042-.014-.042-.014-.042-.015-.041-.016-.041-.017-.04-.018-.04-.019-.039-.019-.039-.021-.038-.021-.038-.022-.038-.023-.037-.024-.036-.024-.036-.025-.035-.026-.034-.027-.034-.027-.034-.029-.032-.029-.033-.029-.031-.031-.031-.031-.03-.031-.029-.033-.029-.033-.028-.033-.028-.035-.026-.035-.026-.035-.025-.036-.024-.037-.024-.037-.023-.038-.022-.038-.021-.039-.02-.04-.019-.04-.019-.04-.018-.041-.016-.042-.016-.042-.015-.042-.014-.043-.013-.044-.013-.044-.011-.044-.01-.045-.009-.045-.009-.045-.007-.046L4 5h16l-2.095 14.29zM6.315 7l1.758 11.99.001.01H15.926l.001-.01L17.685 7H6.315z"/><path d="M3 5h18v2H3zM17 3H7L5 5h14l-2-2z"/></svg>