<svg viewBox="0 0 24 24" xmlns="http://www.w3.org/2000/svg" fill-rule="evenodd" clip-rule="evenodd" stroke-linejoin="round" stroke-miterlimit="1.414"><path d="M6.856 2.015l.096.003.095.006.096.008.096.01.095.013.095.015.095.017.094.019.094.022.094.024.093.026.092.029.092.031.091.033.091.035.09.038.089.04.089.042.087.045.087.047.085.049.085.051.084.054.082.056.082.059.08.06.079.063.078.065.077.068.075.069.074.072.072.074.07.076.067.076.065.078.063.079.061.081.058.081.056.083.054.083.051.085.05.086.046.086.045.088.042.088.04.089.038.09.036.091.033.091.031.092.028.093.026.093.024.093.022.094.02.095.017.094.015.095.012.096.011.095.008.096.005.096.004.096.001.096-.001.096-.004.096-.005.096-.008.095-.011.096-.012.095-.015.095-.017.095-.02.094-.022.094-.024.094-.026.093-.028.092-.031.092-.033.092-.036.09-.038.09-.04.089-.042.089-.045.087-.046.087-.05.086-.051.084-.054.084-.056.083-.058.081-.061.08-.063.08-.065.078-.067.076-.07.075-.072.074-.074.072-.075.07-.077.067-.078.066-.079.063-.08.06-.082.058-.082.056-.084.054-.085.052-.085.049-.087.047-.087.044-.089.043-.089.04-.09.037-.091.036-.091.033-.092.031-.092.028-.093.027-.094.024-.094.021-.094.02-.095.017-.095.015-.095.012-.096.011-.096.008-.095.005-.096.004-.096.001-.096-.001-.096-.004-.096-.005-.096-.008-.095-.011-.096-.012-.095-.015-.095-.017-.094-.02-.094-.021-.093-.024-.093-.027-.093-.028-.092-.031-.091-.033-.091-.036-.09-.037-.089-.04-.088-.043-.088-.044-.086-.047-.086-.049-.085-.052-.084-.054-.082-.056-.082-.058-.08-.06-.079-.063-.078-.066-.077-.067-.075-.07-.074-.072-.072-.074-.07-.075-.067-.076-.065-.078-.063-.08-.061-.08-.058-.081-.056-.083-.054-.084-.051-.084-.049-.086-.047-.087-.045-.087-.042-.089-.04-.089-.038-.09-.035-.09-.034-.092-.03-.092-.029-.092-.026-.093-.024-.094-.022-.094-.019-.094-.018-.095-.014-.095-.013-.095-.01-.096-.008-.095-.006-.096-.003-.096-.002-.096.002-.096.003-.096.006-.096.008-.096.01-.095.013-.096.014-.095.018-.094.019-.095.022-.094.024-.093.026-.093.029-.093.03-.092.034-.091.035-.091.038-.09.04-.089.042-.088.045-.088.047-.086.049-.086.051-.085.054-.083.056-.083.058-.081.061-.081.063-.079.065-.078.067-.076.07-.076.072-.074.074-.072.075-.069.077-.068.078-.065.079-.063.08-.06.082-.059.082-.056.084-.054.085-.051.086-.049.086-.047.088-.045.088-.042.089-.04.09-.038.091-.035.091-.033.092-.031.093-.029.093-.026.093-.024.094-.022.094-.019.095-.017.095-.015.096-.013.095-.01.096-.008.096-.006.096-.003.096-.001.096.001zm-.144 1.999l-.049.002-.049.003-.047.004-.049.005-.048.006-.046.008-.049.009-.048.009-.046.011-.046.012-.047.013-.047.015-.045.015-.046.017-.045.017-.044.019-.045.02-.044.021-.043.022-.042.023-.043.024-.042.026-.042.027-.041.028-.041.028-.04.031-.039.031-.039.033-.039.034-.038.035-.037.036-.037.038-.035.038-.035.039-.032.039-.032.04-.03.039-.029.041-.028.041-.026.042-.026.042-.024.043-.023.042-.022.043-.022.045-.02.044-.018.045-.018.044-.016.046-.016.046-.014.046-.013.047-.012.046-.011.047-.01.048-.008.047-.008.048-.006.048-.005.048-.004.048-.003.048-.002.049v.096l.002.048.003.049.004.048.005.048.006.048.008.048.008.047.01.048.011.046.012.047.013.047.014.046.016.046.016.045.018.045.018.044.02.045.021.044.023.043.023.044.024.042.026.042.026.041.028.042.029.04.03.04.032.04.032.038.035.039.035.039.037.037.037.037.038.035.039.034.039.032.039.032.04.03.041.029.041.028.042.027.042.026.042.023.042.023.045.023.044.021.043.02.045.019.045.017.045.017.047.015.046.014.046.013.047.012.047.011.047.01.048.009.048.007.048.007.048.005.047.004.048.003.05.001.048.001.048-.001.049-.001.048-.003.048-.004L7 7.998l.048-.007.049-.007.047-.009.047-.01.048-.011.046-.012.046-.013.046-.014.047-.015.045-.017.045-.017.045-.019.043-.02.044-.021.045-.023.042-.023.042-.023.043-.026.041-.027.041-.028.041-.029.04-.03.039-.031.04-.033.038-.034.038-.036.038-.036.036-.037.035-.038.035-.039.032-.039.032-.04.03-.04.029-.04.028-.042.027-.041.025-.043.025-.042.023-.043.022-.043.021-.044.02-.044.018-.045.018-.045.017-.045.015-.046.014-.046.013-.047.012-.047.011-.046.01-.048.009-.048.007-.047.006-.048.005-.048.005-.048.002-.049.002-.048.001-.048-.001-.049-.002-.048-.002-.048-.005-.048-.005-.049-.006-.048-.007-.047-.009-.047-.01-.048-.011-.047-.012-.047-.013-.046-.014-.046-.015-.046-.017-.046-.018-.044-.018-.045-.02-.044-.021-.045-.022-.043-.023-.042-.025-.043-.025-.042-.027-.042-.028-.041-.029-.04-.03-.04-.031-.04-.033-.039-.035-.039-.035-.038-.037-.038-.037-.036-.038-.035-.039-.034-.039-.033-.039-.031-.04-.03-.04-.029-.042-.029-.041-.026-.042-.025-.043-.025-.043-.023-.043-.022-.044-.021-.045-.02-.044-.019-.045-.017-.046-.017-.045-.015-.047-.015-.047-.013-.045-.012-.047-.011-.048-.009-.049-.009-.046-.008-.048-.006-.048-.005-.048-.004-.049-.003-.048-.002h-.096zM7.086 13.996l.096.004.095.006.096.008.096.01.095.012.095.015.095.017.094.02.094.022.094.024.093.026.092.028.092.031.091.033.091.036.09.038.089.04.089.042.087.045.087.046.085.05.085.051.084.054.082.056.082.058.08.061.079.063.078.065.077.067.075.07.074.072.072.074.07.075.067.077.065.078.063.079.061.08.058.082.056.082.054.084.051.085.05.085.046.087.045.087.042.089.04.089.038.09.036.091.033.091.031.092.028.092.026.093.024.094.022.094.02.094.017.095.015.095.012.095.011.096.008.096.005.096.004.095.001.096-.001.096-.004.096-.005.096-.008.096-.011.095-.012.096-.015.095-.017.095-.02.094-.022.094-.024.094-.026.093-.028.092-.031.092-.033.091-.036.091-.038.09-.04.089-.042.088-.045.088-.046.087-.05.085-.051.085-.054.084-.056.082-.058.082-.061.08-.063.079-.065.078-.067.077-.07.075-.072.074-.074.072-.075.07-.077.067-.078.065-.079.063-.08.061-.082.058-.082.056-.084.054-.085.051-.085.049-.087.047-.087.045-.089.042-.089.04-.09.038-.091.035-.091.034-.092.03-.092.029-.093.026-.094.024-.094.022-.094.019-.095.018-.095.015-.095.012-.096.01-.096.008-.095.006-.096.004-.096.001-.096-.001-.096-.004-.096-.006-.096-.008-.095-.01-.096-.012-.095-.015-.095-.018-.094-.019-.094-.022-.093-.024-.094-.026-.092-.029-.092-.03-.091-.034-.091-.035-.09-.038-.089-.04-.088-.042-.088-.045-.087-.047-.085-.049-.085-.051-.084-.054-.082-.056-.082-.058-.08-.061-.079-.063-.078-.065-.077-.067-.075-.07-.074-.072-.072-.074-.07-.075-.067-.077-.065-.078-.063-.079-.061-.08-.058-.082-.056-.082-.054-.084-.051-.085-.049-.085-.047-.087-.045-.088-.042-.088-.04-.089-.038-.09-.035-.091-.034-.091-.03-.092-.029-.092-.026-.093-.024-.094-.022-.094-.019-.094-.018-.095-.014-.095-.013-.096-.01-.095-.008-.096-.006-.096-.003-.096-.002-.096.002-.096.003-.095.006-.096.008-.096.01-.096.013-.095.014-.095.018-.095.019-.094.022-.094.024-.094.026-.093.029-.092.03-.092.034-.091.035-.091.038-.09.04-.089.042-.089.045-.087.047-.087.049-.085.051-.085.054-.084.056-.082.058-.082.061-.08.063-.079.065-.078.067-.077.07-.075.072-.074.074-.072.075-.07.077-.067.078-.065.079-.063.08-.061.082-.058.082-.056.084-.054.085-.051.085-.05.087-.046.088-.045.088-.042.089-.04.09-.038.091-.036.091-.033.092-.031.092-.028.094-.026.093-.024.094-.022.094-.02.095-.017.095-.015.096-.012.095-.01.096-.008.096-.006.096-.004.096-.001.096.001zm-.144 2l-.05.002-.048.003-.047.004-.048.005-.048.006-.048.008-.048.008-.047.01-.047.011-.047.012-.046.013-.046.014-.047.016-.045.016-.045.018-.044.018-.044.02-.044.021-.044.022-.043.024-.043.024-.041.026-.042.026-.041.028-.041.029-.04.03-.039.032-.039.032-.039.035-.038.035-.037.036-.037.038-.036.038-.033.039-.033.039-.031.039-.031.04-.029.041-.028.041-.027.042-.025.041-.024.043-.024.043-.022.043-.02.044-.02.044-.019.045-.018.045-.016.046-.016.045-.014.047-.013.046-.012.047-.011.047-.01.047-.008.047-.008.049-.006.047-.005.048-.004.049-.003.048-.002.048v.097l.002.048.003.048.004.049.005.048.006.047.008.048.008.048.01.047.011.047.012.047.013.046.014.046.016.046.016.045.018.046.019.045.019.044.021.043.022.044.024.043.024.042.026.042.026.042.028.041.029.041.03.04.032.039.033.039.034.039.035.038.037.038.037.036.038.035.039.035.039.032.039.032.04.03.041.029.041.028.042.026.041.026.044.024.042.024.044.022.043.021.045.02.044.018.045.018.046.017.046.015.046.014.046.013.047.012.046.011.048.01.049.008.046.008.048.006.049.005.048.004.048.003.047.002h.099l.047-.002.048-.003.049-.004.048-.005.048-.006.047-.008.048-.008.048-.01.047-.011.046-.012.046-.013.046-.014.046-.015.046-.017.045-.018.044-.018.045-.021.044-.02.043-.022.043-.024.043-.024.041-.026.042-.026.041-.028.041-.029.04-.03.039-.032.039-.032.039-.035.038-.035.037-.036.037-.038.036-.038.034-.039.032-.039.032-.04.03-.039.029-.041.028-.041.026-.041.026-.042.025-.043.023-.043.022-.044.021-.044.02-.044.018-.044.018-.045.016-.045.016-.047.014-.046.013-.046.012-.047.011-.047.01-.047.008-.048.008-.048.006-.048.005-.048.004-.047.003-.049.002-.049.001-.048-.001-.048-.002-.048-.003-.049-.004-.048-.005-.047-.006-.048-.008-.049-.008-.047-.01-.047-.011-.047-.012-.047-.013-.046-.014-.047-.016-.046-.016-.045-.018-.045-.018-.044-.02-.045-.021-.044-.022-.043-.024-.043-.024-.043-.025-.041-.027-.042-.028-.041-.029-.041-.03-.04-.032-.04-.032-.038-.034-.038-.035-.039-.038-.038-.037-.036-.038-.036-.039-.034-.039-.032-.039-.032-.04-.03-.041-.029-.041-.028-.042-.027-.041-.025-.043-.024-.043-.024-.043-.022-.045-.021-.044-.02-.044-.018-.045-.018-.045-.016-.047-.016-.046-.014-.046-.013-.046-.012-.048-.011-.047-.01-.047-.008-.049-.008-.048-.006-.047-.005-.048-.004-.048-.003-.049-.002-.048-.001-.048.001z"/><circle cx="12.025" cy="11.938" r="1" fill="#fff"/><path d="M22 19.425V22h-1.667L7.559 9.227l2.122-2.121L22 19.425z"/><path d="M12.264 9.697l2.122 2.121-5.275 5.275-2.121-2.121 5.274-5.275zM22 4.204l-6.2 6.2-2.122-2.121L19.961 2H22v2.204z"/></svg>