<svg viewBox="0 0 24 24" xmlns="http://www.w3.org/2000/svg" fill-rule="evenodd" clip-rule="evenodd" stroke-linejoin="round" stroke-miterlimit="1.414"><path d="M12 8H4v.002A3.998 3.998 0 0 0 7.998 12h.004A3.998 3.998 0 0 0 12 8.002V8z"/><path d="M9 11H7v10.5c0 .133.053.26.146.354A.504.504 0 0 0 7.5 22h1c.133 0 .26-.053.354-.146A.504.504 0 0 0 9 21.5V11zM6 3.463a.46.46 0 0 0-.136-.327A.46.46 0 0 0 5.537 3H4.463a.46.46 0 0 0-.327.136.46.46 0 0 0-.136.327V8h2V3.463zM9 3.5a.504.504 0 0 0-.146-.354A.504.504 0 0 0 8.5 3h-1a.504.504 0 0 0-.354.146A.504.504 0 0 0 7 3.5V8h2V3.5zM12 3.463a.46.46 0 0 0-.136-.327.46.46 0 0 0-.327-.136h-1.074a.46.46 0 0 0-.327.136.46.46 0 0 0-.136.327V8h2V3.463zM16 15h2v7h-2z"/><path d="M18 2a7.237 7.237 0 0 0-4 6.472v5.553a.975.975 0 0 0 .975.975H18V2z"/></svg>