<svg viewBox="0 0 24 24" xmlns="http://www.w3.org/2000/svg" fill-rule="evenodd" clip-rule="evenodd" stroke-linejoin="round" stroke-miterlimit="1.414"><path d="M8.014 22.038a684.547 684.547 0 0 1-4.053-.039 2.06 2.06 0 0 1-.686-.139 2.027 2.027 0 0 1-1.153-1.181 2.085 2.085 0 0 1-.121-.64 382.786 382.786 0 0 1 0-10.166 2.05 2.05 0 0 1 .373-1.114c.085-.119.183-.226.29-.325C4.98 6.399 7.287 4.349 9.696 2.426c.095-.072.194-.138.299-.193a2.07 2.07 0 0 1 .85-.231c.74-.025 1.48-.002 2.221-.002a2.04 2.04 0 0 1 1.234.424c-.022 2.379.006 1.887-.014 2.602a146.77 146.77 0 0 1-1.204-1.016c-.005-.004-.009-.009-.016-.01-.706-.024-1.414 0-2.12 0-.007 0-.013-.001-.019.002C8.517 5.84 6.319 7.94 4.015 9.909c-.005.005-.014.01-.015.018-.137 3.346 0 6.698 0 10.048 0 .01-.002.015.004.021.002.003.004.004.008.004 1.328.017 2.655.026 3.983.03l-.001-.36.018.015s.027 1.647.002 2.353z"/><path d="M16.598 7.377c.356.167.702.353 1.036.56.304.19.598.396.88.618 1.611 1.264 2.866 3.05 3.302 5.069.077.359.128.724.151 1.091.03.488.01.98-.062 1.464a7.28 7.28 0 0 1-.571 1.93 7.961 7.961 0 0 1-.473.891c-.031.05-.06.101-.093.15-.031.043-.066.083-.099.125a7.654 7.654 0 0 1-.664.73 7.192 7.192 0 0 1-1.999 1.369 6.903 6.903 0 0 1-3.528.591 6.995 6.995 0 0 1-1.725-.397 7.474 7.474 0 0 1-2.264-1.34 8.25 8.25 0 0 1-.929-.936c-.011-.014-.026-.03-.012-.018a3.1 3.1 0 0 1-.126-.13c-.603-.689-.821-1.637-.829-2.534-.012-1.389.48-2.798 1.421-3.829.278-.305.594-.571.937-.801l1.689-1.094c-.031.705-.07 1.41-.093 2.116a5.997 5.997 0 0 0 .019.673c.008.084.018.167.031.25.067.438.213.915.568 1.207a1.189 1.189 0 0 0 .475.238c.165.044.335.061.505.058.056-.046.109-.095.161-.145.112-.112.218-.229.315-.354.663-.858.933-1.956.974-3.023a9.336 9.336 0 0 0-.049-1.295c-.033-.311-.081-.62-.14-.927a14.69 14.69 0 0 0-.24-1.032l-.612-2.209 2.044.934zm.937 3.02c.065.638.087 1.28.04 1.921-.082 1.107-.37 2.208-.929 3.173a5.91 5.91 0 0 1-.518.756c-.297.368-.641.7-1.034.965l-.048.03c-.061.037-.116.087-.183.11a3.83 3.83 0 0 1-1.941-.11 3.227 3.227 0 0 1-1.627-1.218 3.792 3.792 0 0 1-.439-.857c-.03.079-.03.078-.058.158-.186.572-.265 1.19-.159 1.787.027.155.067.31.13.456a.826.826 0 0 0 .156.255l.005.005.061.057c.082.099.166.197.252.292a5.9 5.9 0 0 0 1.542 1.216c.48.258.999.441 1.536.534a4.869 4.869 0 0 0 3.335-.625c.535-.319 1-.733 1.398-1.211l.052-.064.022-.028a5.609 5.609 0 0 0 .739-1.787 5.048 5.048 0 0 0 .074-1.693 5.409 5.409 0 0 0-.116-.63c-.344-1.393-1.204-2.611-2.279-3.542l-.019-.016.008.066z" fill-rule="nonzero"/></svg>