<svg viewBox="0 0 24 24" xmlns="http://www.w3.org/2000/svg" fill-rule="evenodd" clip-rule="evenodd" stroke-linejoin="round" stroke-miterlimit="1.414"><path d="M8.014 22.038a684.547 684.547 0 0 1-4.053-.039 2.06 2.06 0 0 1-.686-.139 2.027 2.027 0 0 1-1.153-1.181 2.085 2.085 0 0 1-.121-.64 382.786 382.786 0 0 1 0-10.166 2.05 2.05 0 0 1 .373-1.114c.085-.119.183-.226.29-.325C4.98 6.399 7.287 4.349 9.696 2.426c.095-.072.194-.138.299-.193a2.07 2.07 0 0 1 .85-.231c.74-.025 1.48-.002 2.221-.002a2.04 2.04 0 0 1 1.234.424c-.022 2.379.006 1.887-.014 2.602a146.77 146.77 0 0 1-1.204-1.016c-.005-.004-.009-.009-.016-.01-.706-.024-1.414 0-2.12 0-.007 0-.013-.001-.019.002C8.517 5.84 6.319 7.94 4.015 9.909c-.005.005-.014.01-.015.018-.137 3.346 0 6.698 0 10.048 0 .01-.002.015.004.021.002.003.004.004.008.004 1.328.017 2.655.026 3.983.03l-.001-.36.018.015s.027 1.647.002 2.353z"/><path d="M16.373 6.91c.254.122.502.255.74.405a8.654 8.654 0 0 1 2.154 1.952c.7.878 1.252 1.874 1.626 2.932.317.897.506 1.843.532 2.795a7.536 7.536 0 0 1-.649 3.31 7.026 7.026 0 0 1-.491.901 6.962 6.962 0 0 1-2.388 1.994 6.506 6.506 0 0 1-3.422.671 6.562 6.562 0 0 1-1.628-.344 7.029 7.029 0 0 1-2.247-1.302 7.625 7.625 0 0 1-.81-.807l-.063-.074a.15.15 0 0 1-.02-.023c-.003-.005.009.008.013.012a2.845 2.845 0 0 1-.121-.125c-.548-.626-.763-1.475-.788-2.29-.041-1.303.394-2.636 1.246-3.628.286-.333.617-.62.981-.864l.96-.621.687.394c-.019.436-.047.876-.056 1.314a4.596 4.596 0 0 0 .065.877c.075.396.23.823.586 1.05.065.042.136.076.209.103a1.5 1.5 0 0 0 .441.085c.059-.072.116-.147.171-.223.203-.285.382-.586.534-.902.579-1.2.781-2.55.712-3.873a11.898 11.898 0 0 0-.406-2.449l-.329-1.19.678-.577 1.083.497zm.946 3.235c.047.601.056 1.204.011 1.805-.092 1.232-.402 2.45-.959 3.554-.325.645-.731 1.26-1.24 1.775l-.268.257c-.165.028-.331.06-.498.077-.28.027-.564.021-.843-.016a3.375 3.375 0 0 1-.727-.179 3.064 3.064 0 0 1-1.375-1.017 3.62 3.62 0 0 1-.423-.737l-.008-.019c-.168.514-.233 1.075-.139 1.61.025.14.061.279.117.41.03.071.067.141.116.201l.019.02.059.055c.078.092.155.184.236.274a5.47 5.47 0 0 0 1.421 1.12c.464.25.97.423 1.492.503a4.467 4.467 0 0 0 3.055-.631 5.07 5.07 0 0 0 1.262-1.129c.022-.028.021-.028.04-.059.18-.3.332-.613.45-.943.525-1.475.342-3.119-.238-4.549a8.367 8.367 0 0 0-.808-1.513 8.046 8.046 0 0 0-.707-.896l-.052-.057.007.084z" fill-rule="nonzero"/></svg>