<svg viewBox="0 0 24 24" xmlns="http://www.w3.org/2000/svg" fill-rule="evenodd" clip-rule="evenodd" stroke-linejoin="round" stroke-miterlimit="1.414"><path d="M18.052 5.001l.051.002.051.003.05.004.051.006.049.007.05.008.049.01.048.01.049.012.047.013.047.014.047.015.046.016.046.018.045.018.045.02.044.02.043.022.043.023.042.023.042.025.041.025.04.027.039.027.039.029.038.029.038.03.037.031.035.032.036.033.034.033.033.034.033.036.032.035.031.037.03.038.029.038.029.039.027.039.027.04.025.041.025.042.023.042.023.043.022.043.02.044.02.045.018.045.018.046.016.046.015.047.014.047.013.047.012.049.01.048.01.049.008.05.007.049.006.051.004.05.003.051.002.051L20 7v13l-.001.052-.002.051-.003.051-.004.05-.006.051-.007.049-.008.05-.01.049-.01.048-.012.049-.013.047-.014.047-.015.047-.016.046-.018.046-.018.045-.02.045-.02.044-.022.043-.023.043-.023.042-.025.042-.025.041-.027.04-.027.039-.029.039-.029.038-.03.038-.031.037-.032.035-.033.036-.033.034-.034.033-.036.033-.035.032-.037.031-.038.03-.038.029-.039.029-.039.027-.04.027-.041.025-.042.025-.042.023-.043.023-.043.022-.044.02-.045.02-.045.018-.046.018-.046.016-.047.015-.047.014-.047.013-.049.012-.048.01-.049.01-.05.008-.049.007-.051.006-.05.004-.051.003-.051.002L18 22H6l-.052-.001-.051-.002-.051-.003-.05-.004-.051-.006-.049-.007-.05-.008-.049-.01-.048-.01-.049-.012-.047-.013-.047-.014-.047-.015-.046-.016-.046-.018-.045-.018-.045-.02-.044-.02-.043-.022-.043-.023-.042-.023-.042-.025-.041-.025-.04-.027-.039-.027-.039-.029-.038-.029-.038-.03-.037-.031-.035-.032-.036-.033-.034-.033-.033-.034-.033-.036-.032-.035-.031-.037-.03-.038-.029-.038-.029-.039-.027-.039-.027-.04-.025-.041-.025-.042-.023-.042-.023-.043-.022-.043-.02-.044-.02-.045-.018-.045-.018-.046-.016-.046-.015-.047-.014-.047-.013-.047-.012-.049-.01-.048-.01-.049-.008-.05-.007-.049-.006-.051-.004-.05-.003-.051-.002-.051L4 20V7l.001-.052.002-.051.003-.051.004-.05.006-.051.007-.049.008-.05.01-.049.01-.048.012-.049.013-.047.014-.047.015-.047.016-.046.018-.046.018-.045.02-.045.02-.044.022-.043.023-.043.023-.042.025-.042.025-.041.027-.04.027-.039.029-.039.029-.038.03-.038.031-.037.032-.035.033-.036.033-.034.034-.033.036-.033.035-.032.037-.031.038-.03.038-.029.039-.029.039-.027.04-.027.041-.025.042-.025.042-.023.043-.023.043-.022.044-.02.045-.02.045-.018.046-.018.046-.016.047-.015.047-.014.047-.013.049-.012.048-.01.049-.01.05-.008.049-.007.051-.006.05-.004.051-.003.051-.002L6 5h12l.052.001zM6.012 7h-.011L6 7.001v12.998l.001.001H18V7H6.012z"/><path fill-rule="nonzero" d="M8 10h2v7H8zM11 10h2v7h-2zM14 10h2v7h-2z"/><path d="M13.931 3.001l.052.002.051.003.052.005.051.006.051.007.05.009.051.01.049.011.05.013.049.013.049.015.048.017.048.017.047.019.047.02.047.021.045.022.046.023.044.025.044.026.044.027.042.028.042.029.042.03.04.032.04.032.039.034.038.035.037.035.037.037.035.038L17.5 6h-11l2.162-2.358.035-.038.037-.037.037-.035.038-.035.039-.034.04-.032.04-.032.042-.03.042-.029.042-.028.044-.027.044-.026.044-.025.046-.023.045-.022.047-.021.047-.02.047-.019.048-.017.048-.017.049-.015.049-.013.05-.013.049-.011.051-.01.05-.009.051-.007.051-.006.052-.005.051-.003.052-.002.052-.001h3.758l.052.001z"/><path fill-rule="nonzero" d="M3 5h18v2H3z"/></svg>