<svg viewBox="0 0 24 24" xmlns="http://www.w3.org/2000/svg" fill-rule="evenodd" clip-rule="evenodd" stroke-linejoin="round" stroke-miterlimit="1.414"><path d="M13 16h3l-4 5-4-5h3v-6h2v6zm-5-1.002c-.787-.001-.574-.004-1.361-.013-.122-.004-.121-.004-.243-.011a4.934 4.934 0 0 1-2.103-.621 4.576 4.576 0 0 1-1.346-1.15 4.337 4.337 0 0 1-.616-1.057c-.463-1.135-.433-2.446.043-3.57a4.788 4.788 0 0 1 2.119-2.334 4.783 4.783 0 0 1 3.396-.441l.076.019.074.02c.034-.082.068-.164.104-.246a4.791 4.791 0 0 1 2.972-2.587 4.945 4.945 0 0 1 1.267-.197h.167a4.96 4.96 0 0 1 1.131.153 4.776 4.776 0 0 1 2.62 1.771l.23-.015a5.214 5.214 0 0 1 3.365 1.036 5.273 5.273 0 0 1 1.971 3.015c.109.475.152.965.127 1.451a4.914 4.914 0 0 1-1.271 3.083c-.443.49-.982.889-1.576 1.176a5.575 5.575 0 0 1-2.316.536c-.609.003-.22 0-.83-.002v-2c.602.003.206.005.805.002a3.535 3.535 0 0 0 1.472-.338c.362-.175.692-.417.962-.715.23-.254.415-.548.543-.865a3.18 3.18 0 0 0-.006-2.331 3.302 3.302 0 0 0-.901-1.267 3.205 3.205 0 0 0-2.422-.771l-.125.005a2.008 2.008 0 0 1-1.546-.698c-.074-.085-.138-.177-.211-.263a2.796 2.796 0 0 0-1.436-.885 2.868 2.868 0 0 0-.53-.075c-.062-.003-.123-.003-.184-.003a2.775 2.775 0 0 0-2.526 1.776l-.051.116c-.078.15-.163.293-.272.423a2.011 2.011 0 0 1-1.93.675c-.12-.024-.237-.06-.357-.084a2.885 2.885 0 0 0-.979-.012A2.77 2.77 0 0 0 4.167 9.48c-.244.667-.228 1.439.091 2.078.091.18.205.349.338.502.221.254.495.461.796.612a3.1 3.1 0 0 0 1.293.314c.772.008.543.011 1.315.012v2z"/></svg>