<svg viewBox="0 0 25 24" xmlns="http://www.w3.org/2000/svg" fill-rule="evenodd" clip-rule="evenodd" stroke-linejoin="round" stroke-miterlimit="1.414"><path d="M20.874 3l.039.001.037.004.038.007.036.009.036.012.034.014.033.017.032.019.031.021.029.023.028.025.026.027.024.029.022.03.02.033.017.034.016.035.012.036.01.037.007.037.005.037.002.037-.001.037-.003.037-.006.037-.008.036-.011.036-.014.035-.015.034-.019.033-.021.032-.023.03L13 14 4.713 3.871l-.023-.03-.021-.032-.019-.033-.015-.034-.014-.035-.011-.036-.008-.036-.006-.037-.003-.037-.001-.037.002-.037.005-.037.007-.037.01-.037.012-.036.016-.035.017-.034.02-.033.022-.03.024-.029.026-.027.028-.025.029-.023.031-.021.032-.019.033-.017.034-.014.036-.012.036-.009.038-.007.037-.004L5.126 3h15.748zM8.22 5L13 10.842 17.78 5H8.22z"/><path fill-rule="nonzero" d="M12 12h2v9h-2z"/><path d="M18 21a1 1 0 0 0-1-1H9a1 1 0 0 0 0 2h8a1 1 0 0 0 1-1z"/></svg>