<svg viewBox="0 0 24 24" xmlns="http://www.w3.org/2000/svg" fill-rule="evenodd" clip-rule="evenodd" stroke-linejoin="round" stroke-miterlimit="1.414"><path d="M11 5v2H7.038c-.013 0-.021-.002-.03.007A.02.02 0 0 0 7 7.021c-.125 3.312 0 6.628 0 9.942 0 .01-.002.018.004.026.005.006.01.01.017.011 3.312.128 6.629 0 9.943 0 .009 0 .018.001.025-.004a.025.025 0 0 0 .011-.017V13h2v3.976a2.09 2.09 0 0 1-.123.696 2.043 2.043 0 0 1-1.205 1.205 2.082 2.082 0 0 1-.644.122c-3.352.043-6.704.043-10.056 0a2.089 2.089 0 0 1-.69-.139 2.043 2.043 0 0 1-1.159-1.188 2.082 2.082 0 0 1-.122-.644 391.966 391.966 0 0 1 0-10.056c.008-.22.046-.437.122-.644a2.043 2.043 0 0 1 1.205-1.205A2.09 2.09 0 0 1 7.024 5H11z"/><path d="M17.924 7.469l-6.023 6.024-1.414-1.415 6.023-6.023 1.414 1.414z" fill-rule="nonzero"/><path d="M18.962 5.026l-.707 6.364-5.657-5.656 6.364-.708z"/></svg>