<svg viewBox="0 0 24 24" xmlns="http://www.w3.org/2000/svg" fill-rule="evenodd" clip-rule="evenodd" stroke-linejoin="round" stroke-miterlimit="1.414"><path d="M20.896 2H3.104C2.494 2 2 2.494 2 3.104v17.792C2 21.506 2.494 22 3.104 22h9.579v-7.745h-2.608v-3.018l2.608.001V9.009c0-2.583 1.577-3.988 3.882-3.988 1.104 0 2.053.08 2.329.118v2.7h-1.6c-1.25 0-1.494.595-1.494 1.47v1.925h2.988l-.388 3.02h-2.6V22h5.096c.61 0 1.104-.494 1.104-1.104V3.104C22 2.494 21.506 2 20.896 2" fill-rule="nonzero"/></svg>