<svg viewBox="0 0 24 24" xmlns="http://www.w3.org/2000/svg" fill-rule="evenodd" clip-rule="evenodd" stroke-linejoin="round" stroke-miterlimit="1.414"><path d="M20.052 2.001c.234.009.463.052.681.138.527.208.951.642 1.146 1.174.075.204.112.418.12.635a635.66 635.66 0 0 1 0 16.104 2.053 2.053 0 0 1-.12.635 2.021 2.021 0 0 1-1.146 1.174 2.061 2.061 0 0 1-.681.138 635.66 635.66 0 0 1-16.104 0 2.053 2.053 0 0 1-.635-.12 2.021 2.021 0 0 1-1.174-1.146 2.061 2.061 0 0 1-.138-.681 635.66 635.66 0 0 1 0-16.104c.009-.234.052-.463.138-.681a2.021 2.021 0 0 1 1.174-1.146c.204-.075.418-.112.635-.12a635.66 635.66 0 0 1 16.104 0zM4.012 4c-.004 0-.009-.002-.012.001-.002.003 0 .008 0 .012v15.974c0 .004-.003.01 0 .013.003.002.008 0 .012 0h15.976c.004 0 .009.002.012-.001.002-.003 0-.008 0-.012V4.013c0-.004.003-.01 0-.013-.003-.002-.008 0-.012 0H4.012z" fill-rule="nonzero"/><path d="M6 7h12v2H6zM6 11h12v2H6zM6 15h12v2H6z"/><path fill="none" d="M0 0h24v24H0z"/></svg>