<svg viewBox="0 0 24 24" xmlns="http://www.w3.org/2000/svg" fill-rule="evenodd" clip-rule="evenodd" stroke-linejoin="round" stroke-miterlimit="1.414"><path d="M16.581 15.049l5.284 5.284-1.414 1.414-5.354-5.353a8.336 8.336 0 0 0 1.484-1.345zM10.12 2.001l.12.003.119.005.119.007.118.009.118.011.117.013.116.015.116.016.116.019.115.021.114.022.114.024.112.026.112.028.112.03.111.031.11.034.109.034.108.037.108.039.107.04.106.041.105.044.104.045.104.047.102.048.101.05.101.051.1.053.098.055.098.056.097.058.095.059.095.06.094.063.092.063.091.065.09.066.09.068.088.069.087.071.085.071.085.074.083.074.083.076.081.077.079.078.079.08.077.081.076.082.074.083.074.085.072.085.07.087.07.088.067.089.067.09.065.092.064.092.062.093.06.095.06.095.053.09-1.716 1.027-.045-.076-.043-.068-.043-.068-.044-.067-.046-.066-.047-.065-.047-.064-.049-.064-.049-.063-.051-.062-.051-.062-.053-.06-.053-.06-.054-.058-.056-.058-.056-.057-.057-.056-.058-.056-.059-.054-.059-.053-.061-.052-.062-.052-.062-.051-.063-.049-.063-.048-.065-.048-.066-.046-.066-.046-.066-.044-.068-.043-.069-.043-.069-.041-.069-.04-.071-.039-.071-.038-.071-.036-.073-.036-.073-.035-.074-.033-.074-.032-.075-.031-.075-.03-.077-.028-.076-.028-.077-.026-.078-.025-.078-.023-.079-.023-.08-.021-.08-.02-.08-.018-.081-.018-.082-.015-.081-.015-.082-.013-.083-.012-.084-.011-.084-.009-.084-.008-.084-.006-.085-.005-.086-.004-.086-.002L9.999 4h-.063l-.065.002-.065.002-.064.003-.064.003-.063.005-.064.005-.063.006-.063.007-.063.007-.062.009-.062.009-.062.01-.061.01-.062.012-.061.012-.061.013-.06.013-.06.014-.06.015-.06.016-.059.017-.059.017-.059.018-.059.018-.058.02-.057.02-.058.02-.057.022-.057.022-.057.022-.056.024L8 4.417l-.056.025-.056.025-.054.026-.054.026-.055.028-.053.028-.053.028-.053.029-.053.03-.052.031-.052.031-.051.031-.051.033-.051.032-.05.034-.049.034-.05.034-.048.036-.049.035-.048.037-.047.036-.047.038-.047.038-.046.039-.046.039-.045.039-.045.04-.044.041-.044.041-.043.042-.043.042-.042.043-.042.043-.041.044-.041.044-.04.045-.039.045-.039.046-.039.046-.038.047-.038.047-.036.047-.037.048-.035.048-.036.049-.034.05-.034.049-.034.05-.032.051-.033.051-.031.051-.031.052-.031.052-.03.053-.029.052-.028.054-.028.054-.027.053-.027.055-.026.055-.025.055-.025.055-.024.056-.024.056-.022.057-.022.057-.022.057-.02.057-.02.058-.02.058-.018.059-.018.059-.017.059-.017.059-.016.06-.015.06-.014.06-.013.06-.013.061-.012.061-.012.062-.01.061-.01.062-.009.062-.009.063-.007.062-.007.063-.006.063-.005.064-.005.063-.003.064-.003.064-.002.065L5 8.935v.071l-2-.012.001-.084.001-.09.003-.09.004-.089.005-.089.006-.089.008-.089.008-.088.01-.088.01-.088.012-.087.013-.088.014-.086.014-.087.016-.086.017-.085.018-.086.019-.084.021-.085.021-.084.022-.084.023-.083.024-.083.025-.083.026-.082.027-.081.028-.081.029-.081.03-.081.031-.079.032-.08.033-.078.034-.078.034-.078.036-.078.036-.077.038-.076.038-.076.039-.075.04-.074.041-.075.042-.073.042-.073.044-.073.044-.071.045-.072.046-.071.047-.07.047-.069.049-.069.049-.068.05-.068.051-.067.051-.067.052-.065.054-.065.053-.065.055-.063.055-.064.057-.062.056-.062.058-.061.058-.06.059-.06.06-.059.06-.058.061-.058.062-.056.062-.057.064-.055.064-.055.064-.053.065-.053.065-.053.067-.051.067-.051.068-.05.068-.049.069-.049.069-.047.07-.047.071-.046.071-.045.072-.044.073-.044.073-.043.073-.041.074-.041.075-.04.076-.039.075-.038.076-.038.078-.036.077-.036.077-.034.079-.034.079-.033.079-.032.08-.031.08-.03.08-.029.082-.028.082-.027.082-.026.082-.025.083-.024.083-.023.084-.022.084-.021.084-.021.086-.019.084-.018.086-.017.086-.016.087-.015.087-.013.087-.013.087-.012.088-.01.088-.01.088-.008.089-.008.088-.006.09-.005.09-.004.089-.003.089-.001.092-.001.119.001z"/><path d="M16.727 8.096l-6.259-1.35 6.203-5.052.056 6.402zM17 9.006l-.001.084-.001.09-.003.09-.004.089-.005.089-.006.089-.008.089-.008.088-.01.088-.01.088-.012.087-.013.087-.014.087-.014.087-.016.086-.017.085-.018.086-.019.084-.021.085-.021.084-.022.084-.023.083-.024.083-.025.083-.026.082-.027.081-.028.081-.029.081-.03.081-.031.079-.032.08-.033.078-.034.079-.034.078-.036.077-.036.077-.038.076-.038.076-.039.075-.04.075-.041.074-.042.073-.042.073-.044.073-.044.071-.045.072-.046.071-.047.07-.047.069-.049.069-.049.068-.05.068-.051.067-.051.067-.052.065-.054.065-.053.065-.055.063-.055.064-.056.062-.057.062-.058.061-.058.06-.059.06-.06.059-.06.058-.061.058-.062.056-.062.057-.064.055-.063.054-.065.054-.065.054-.065.052-.067.051-.067.051-.068.05-.068.049-.069.049-.069.047-.07.047-.071.046-.071.045-.072.044-.073.044-.073.042-.073.042-.074.041-.075.04-.075.039-.076.038-.076.038-.077.036-.078.036-.077.034-.078.034-.08.033-.079.032-.08.031-.08.03-.08.029-.082.028-.082.027-.082.026-.082.025-.083.024-.083.023-.084.022-.084.021-.084.021-.086.019-.084.018-.086.017-.086.016-.087.015-.087.013-.087.013-.087.012-.088.01-.088.01-.088.008-.089.008-.088.006-.089.005-.091.004-.089.003-.089.001-.092.001-.119-.001-.12-.003-.119-.005-.119-.007-.118-.009-.118-.011-.117-.013-.116-.015-.116-.016-.116-.019-.115-.021-.114-.022-.114-.024-.112-.026-.112-.028-.112-.03-.111-.031-.11-.034-.109-.034-.108-.037-.108-.039-.107-.04-.106-.041-.105-.044-.104-.045-.103-.047-.103-.048-.102-.05-.1-.051-.1-.053-.098-.055-.098-.056-.097-.058-.095-.059-.095-.06-.094-.063-.092-.063-.091-.065-.09-.066-.09-.068-.088-.069-.087-.071-.085-.071-.085-.074-.083-.074-.083-.076-.081-.077-.079-.078-.079-.08-.077-.081-.076-.082-.074-.083-.074-.085-.072-.085-.07-.087-.07-.088-.067-.089-.067-.09-.065-.092-.064-.092-.062-.093-.061-.095-.059-.095-.053-.09 1.716-1.027.045.076.043.068.043.068.044.067.046.066.047.065.047.064.049.064.049.063.051.062.051.062.053.06.053.06.054.058.056.058.056.057.057.056.058.056.059.054.059.053.061.052.062.052.062.051.063.049.063.048.065.048.066.046.066.046.066.044.068.043.069.043.069.041.069.04.071.039.071.038.072.037.072.035.073.035.074.033.074.032.075.031.075.03.077.028.076.028.077.026.078.025.078.023.079.023.08.021.08.02.08.018.081.018.082.015.081.015.082.013.083.012.084.011.084.009.084.008.084.006.085.005.086.004.086.002.087.001h.063l.065-.002.065-.002.064-.003.064-.003.063-.005.064-.005.063-.006.063-.007.063-.007.062-.009.062-.009.062-.01.061-.01.062-.012.061-.012.061-.013.06-.013.06-.014.06-.015.06-.016.059-.017.059-.017.059-.018.059-.018.058-.02.057-.02.058-.02.057-.022.057-.022.057-.022.055-.024.057-.024.055-.025.055-.025.055-.026.054-.026.054-.028.054-.028.053-.028.053-.029.053-.03.052-.031.052-.031.051-.031.051-.033.051-.032.05-.034.049-.034.05-.034.048-.036.049-.035.048-.037.047-.036.048-.038.046-.038.046-.039.046-.039.045-.039.045-.04.044-.041.044-.041.043-.042.043-.042.042-.043.042-.043.041-.044.04-.044.041-.045.039-.045.039-.046.039-.046.038-.047.038-.047.036-.047.037-.048.035-.048.036-.049.034-.05.034-.049.034-.05.032-.051.033-.051.031-.051.031-.052.031-.052.03-.053.029-.053.028-.053.028-.053.027-.055.027-.054.026-.055.026-.055.024-.055.024-.056.024-.056.022-.057.022-.057.022-.057.02-.057.02-.058.02-.058.018-.059.018-.059.017-.059.017-.059.016-.06.015-.06.014-.06.013-.06.013-.061.012-.061.012-.062.01-.061.01-.062.009-.062.009-.063.007-.062.007-.063.006-.063.005-.064.005-.063.003-.064.003-.064.002-.065.002-.064v-.071l2 .012z"/><path d="M3.199 9.82l6.287 1.209-6.087 5.191-.2-6.4z"/></svg>