<svg viewBox="0 0 24 24" xmlns="http://www.w3.org/2000/svg" fill-rule="evenodd" clip-rule="evenodd" stroke-linejoin="round" stroke-miterlimit="1.414"><path d="M13.269 5.904l.08.038.08.04.079.041.078.042.078.043.078.045.076.046.076.047.076.048.075.049.074.05.074.052.073.052.072.053.072.055.072.055.07.057.07.057.069.059.068.059.069.06.067.062.066.062.066.063.065.063.065.065.064.066.063.066.062.068.062.068.061.069.06.069.06.071.059.071.058.072.057.073.057.073.056.075.055.075.055.075.053.077.053.077.052.077.051.079.05.079.05.079.049.081.047.08.047.082.047.082.045.082.044.083.044.084.042.084.042.085.041.085.04.086.039.087.038.086.037.088.037.087.035.089.034.088.033.09.033.089.031.09.03.09.029.091.028.091.027.092.026.092.025.092.024.093.023.093.022.093.02.094.019.093.019.095.017.094.016.095.014.095.014.095.012.096.011.095.01.096.008.096.007.096.006.097.005.096.003.097.002.097v.194l-.003.097-.003.097-.005.098-.007.097-.007.097-.01.098-.011.097-.012.097-.014.098-.015.097-.017.097-.018.097-.02.097-.022.097-.023.096-.025.096-.026.097-.028.096-.03.096-.031.095-.033.095-.035.095-.036.095-.038.094-.04.093-.041.094-.043.093-.045.092-.047.092-.048.092-.051.091-.052.09-.053.09-.08.128-.085.108-.055.069-.057.067-.057.067-.058.066-.059.064-.059.063-.061.063-.06.061-.062.061-.062.059-.063.058-.064.058-.065.056-.065.055-.06.049-1.269-1.545.049-.04.042-.036.043-.037.042-.038.042-.039.041-.039.041-.04.041-.041.039-.042.04-.042.04-.044.039-.044.038-.045.039-.046.037-.046.008-.009.012-.021.036-.06.035-.06.033-.06.032-.061.031-.061.03-.062.029-.062.027-.062.027-.062.025-.063.025-.063.023-.063.022-.064.021-.064.02-.064.018-.065.018-.064.017-.065.015-.066.015-.066.014-.065.012-.066.012-.067.01-.067.01-.066.008-.068.008-.067.006-.068.006-.068.004-.068.004-.068.002-.068.002-.069v-.138l-.001-.068-.003-.069-.003-.07-.004-.069-.005-.07-.007-.069-.007-.07-.008-.07-.009-.069-.009-.07-.011-.07-.012-.07-.012-.069-.014-.07-.014-.07-.015-.069-.017-.07-.017-.069-.017-.07-.019-.069-.02-.069-.02-.069-.021-.069-.022-.068-.023-.069-.024-.068-.025-.068-.025-.068-.026-.067-.027-.068-.027-.067-.029-.066-.029-.067-.03-.066-.03-.065-.032-.066-.032-.065-.032-.064-.034-.065-.034-.063-.035-.064-.035-.062-.036-.063-.037-.062-.037-.061-.038-.061-.038-.061-.04-.06-.039-.059-.041-.059-.04-.058-.042-.057-.042-.057-.042-.057-.043-.055-.011-.014.002.054.003.102.001.102.001.101-.001.099-.001.099-.003.098-.004.097-.004.096-.006.095-.006.094-.008.094-.008.092-.01.091-.01.091-.011.089-.012.089-.012.088-.014.086-.014.086-.015.085-.015.084-.017.083-.017.082-.018.083-.037.157-.039.155-.042.151-.044.147-.046.144-.048.139-.049.136-.051.131-.052.128-.053.124-.054.12-.055.116-.055.112-.056.107-.055.104-.056.101-.056.096-.056.092-.055.088-.054.085-.054.08-.053.077-.052.073-.05.069-.05.065-.047.061-.046.057-.046.056-.079.093-.073.081-.062.065-.051.052-.262.251-.346.058-.059.008-.07.008-.083.007-.094.005-.101.002h-.062l-.06-.001-.061-.002-.065-.004-.067-.005-.068-.007-.072-.009-.073-.011-.076-.013-.077-.015-.078-.018-.081-.02-.082-.023-.083-.027-.084-.029-.086-.034-.086-.036-.087-.041-.086-.044-.088-.05-.087-.053-.086-.057-.086-.062-.085-.067-.083-.071-.078-.073-.043-.043-.04-.041-.039-.043-.038-.043-.038-.044-.037-.046-.036-.047-.035-.047-.035-.049-.034-.051-.033-.051-.012-.018-.001.009-.008.061-.007.059-.005.059-.004.059-.003.058-.001.057-.001.056.002.055.002.055.003.052.005.052.006.05.006.048.008.047.008.045.01.043.01.041.01.038.011.037.012.033.011.032.012.028.011.025.012.023.01.02.01.016.009.014.007.011.006.007.003.004.002.002.059.056.077.092.038.044.038.044.038.042.039.042.039.042.04.04.039.04.039.039.041.038.04.038.04.036.041.036.04.036.041.034.042.035.041.033.041.032.042.032.042.031.042.031.042.029.042.029.043.029.042.027.043.027.043.027.043.026.043.025.044.024.043.024.049.025-.934 1.769-.061-.032-.066-.036-.066-.037-.065-.038-.065-.039-.065-.04-.064-.04-.064-.042-.064-.043-.063-.043-.063-.044-.063-.046-.062-.046-.061-.047-.062-.048-.061-.049-.06-.05-.06-.05-.06-.052-.059-.053-.059-.053-.058-.055-.057-.055-.057-.056-.057-.057-.057-.059-.055-.058-.055-.06-.055-.061-.054-.061-.054-.062-.014-.017-.016-.016-.071-.075-.067-.079-.062-.08-.057-.081-.054-.083-.049-.084-.046-.086-.043-.087-.039-.088-.037-.089-.033-.09-.031-.091-.028-.092-.025-.092-.023-.094-.021-.094-.018-.096-.016-.096-.013-.097-.011-.097-.009-.099-.006-.099-.005-.1-.002-.1.001-.101.002-.102.005-.102.007-.102.009-.103.012-.104.014-.103.017-.104.019-.105.021-.104.024-.105.026-.104.029-.105.031-.104.034-.104.037-.104.039-.104.043-.104.045-.103.048-.102.05-.102.054-.101.057-.101.06-.099.062-.099.066-.097.069-.096.073-.095.075-.093.079-.092.082-.09.086-.088.088-.085.092-.084.095-.082.095-.077.054-.041.051-.038.052-.038.053-.036.054-.036.951-.616.687.394-.051 1.144-.002.062-.001.06-.001.059v.057l.001.056.002.054.002.052.003.051.004.05.004.048.004.046.006.045.005.044.006.041.007.041.007.04.007.037.008.037.008.035.009.034.008.032.009.031.009.03.01.028.009.028.01.026.01.025.01.024.01.024.01.021.01.021.01.02.01.019.01.018.01.017.011.017.01.016.01.014.01.014.01.014.01.013.01.012.01.012.01.012.01.01.01.01.006.007.024.022.02.017.021.016.02.015.021.014.022.013.021.012.023.012.023.011.024.01.024.01.025.008.026.008.025.008.026.006.027.006.026.005.026.005.026.004.012.001.009-.013.033-.042.033-.046.035-.049.036-.052.037-.056.038-.058.038-.061.039-.065.04-.068.039-.071.04-.075.04-.077.04-.081.039-.083.04-.087.038-.091.038-.093.037-.096.037-.1.035-.103.034-.106.033-.11.031-.113.03-.116.028-.122.013-.059.013-.062.013-.062.011-.064.012-.064.01-.065.011-.067.009-.067.009-.067.009-.069.008-.07.007-.07.006-.072.006-.072.005-.073.005-.074.003-.075.003-.076.002-.077.001-.078.001-.078v-.08l-.002-.08-.002-.082-.003-.082-.004-.083-.004-.084-.006-.086-.007-.085-.008-.088-.008-.088-.01-.089-.011-.089-.012-.091-.013-.092-.014-.093-.015-.094-.016-.095-.018-.095-.019-.097-.02-.098-.021-.099-.022-.099-.024-.101-.025-.102-.026-.103-.028-.103-.322-1.165.679-.577 1.068.491z"/><path d="M10.473 1.778l.112.001.112.002.111.004.111.004.11.005.111.006.109.008.108.008.108.009.109.011.107.011.106.012.106.013.105.014.106.016.104.016.104.017.103.018.104.019.102.02.101.02.102.022.1.023.101.024.099.024.099.025.099.027.098.027.096.028.097.029.097.03.096.031.094.032.095.032.093.033.093.035.094.035.092.036.091.036.091.038.09.038.089.04.09.04.088.04.088.042.087.043.087.043.086.044.085.044.085.046.085.046.083.047.082.048.083.048.081.049.081.05.081.051.08.052.079.051.078.053.079.054.077.054.076.054.076.056.076.056.074.057.074.057.074.058.072.059.072.059.071.059.072.061.07.062.069.061.069.062.069.063.067.064.067.064.066.064.066.065.065.066.064.066.064.066.064.069.123.135.122.138.119.14.116.142.114.144.111.145.108.147.106.15.104.15.1.152.099.154.095.156.093.157.091.158.088.159.085.161.083.163.08.163.078.165.075.165.073.167.07.168.068.169.065.17.062.17.06.172.057.172.055.174.053.173.05.175.047.175.045.176.042.177.04.177.037.177.035.178.033.179.029.178.028.179.024.18.023.179.019.18.018.18.014.18.013.18.009.18.008.18.004.18.002.18v.18l-.003.18-.005.18-.008.179-.011.179-.013.178-.015.179-.018.178-.021.177-.023.177-.026.176-.028.176-.031.176-.034.174-.036.174-.039.173-.041.173-.044.171-.046.171-.049.17-.052.168-.055.168-.057.167-.06.166-.062.164-.065.164-.068.162-.07.161-.074.159-.076.158-.078.157-.082.155-.084.154-.087.152-.089.15-.111.179-.061.081-.031.044-.038.054-.044.065-.101.15-.06.086-.063.091-.07.096-.075.101-.081.104-.085.105-.048.056-.047.055-.049.056-.051.056-.053.056-.054.056-.056.057-.058.056-.06.057-.062.056-.063.057-.066.057-.068.055-.069.055-.072.056-.073.055-.076.054-.077.054-.08.053-.082.052-.084.051-.086.051-.088.049-.091.049-.092.047-.095.047-.096.045-.099.044-.102.043-.103.042-.106.04-.108.039-.11.037-.112.036-.115.034-.117.033-.119.031-.122.03-.124.028-.118.024-.406-1.958.102-.021.091-.021.087-.021.086-.023.083-.023.081-.024.078-.025.076-.026.073-.026.072-.027.069-.028.067-.028.065-.029.063-.03.061-.03.06-.03.057-.031.056-.031.054-.032.052-.032.051-.033.049-.032.048-.033.047-.034.045-.033.043-.034.043-.034.042-.035.039-.034.039-.034.038-.035.037-.036.036-.035.035-.035.035-.035.033-.036.032-.035.032-.036.031-.036.028-.033.06-.075.056-.072.054-.072.052-.072.051-.072.049-.072.099-.145.049-.073.051-.074.055-.076.022-.03.054-.087.071-.119.068-.12.067-.122.065-.124.063-.125.061-.127.059-.128.057-.13.054-.131.053-.132.051-.134.048-.134.047-.136.044-.137.043-.139.04-.139.039-.141.036-.141.034-.143.032-.143.03-.145.028-.145.026-.146.023-.146.022-.148.019-.148.018-.148.015-.149.013-.15.011-.15.009-.151.006-.151.005-.151.002-.152v-.152l-.001-.152-.004-.152-.006-.152-.009-.152-.01-.153-.013-.152-.014-.152-.017-.152-.019-.152-.021-.152-.023-.152-.025-.151-.027-.151-.03-.15-.031-.15-.034-.149-.036-.149-.037-.149-.04-.147-.042-.147-.044-.147-.047-.145-.048-.145-.05-.144-.052-.143-.055-.142-.056-.141-.059-.14-.06-.139-.063-.138-.065-.137-.066-.136-.069-.134-.07-.133-.073-.132-.075-.131-.076-.129-.079-.127-.08-.126-.083-.125-.084-.123-.087-.122-.088-.12-.091-.118-.092-.117-.094-.115-.096-.113-.098-.111-.102-.111-.049-.053-.051-.053-.052-.054-.052-.052-.053-.052-.053-.052-.053-.051-.054-.051-.055-.05-.055-.05-.056-.05-.056-.048-.056-.048-.057-.048-.057-.047-.058-.047-.059-.046-.058-.046-.06-.045-.06-.044-.06-.044-.061-.044-.061-.043-.062-.042-.062-.042-.063-.041-.063-.041-.064-.04-.064-.039-.065-.04-.065-.038-.066-.038-.066-.037-.066-.036-.067-.036-.068-.036-.069-.035-.068-.034-.069-.034-.07-.033-.07-.032-.071-.032-.071-.031-.072-.031-.072-.029-.073-.03-.073-.028-.074-.028-.074-.028-.075-.026-.076-.026-.076-.026-.076-.024-.077-.024-.077-.023-.079-.023-.078-.022-.079-.021-.08-.02-.08-.02-.081-.019-.081-.019-.082-.017-.083-.017-.083-.016-.083-.016-.084-.014-.085-.014-.086-.013-.085-.013-.086-.011-.087-.011-.088-.01-.089-.009-.022-.003-.008.096-.011.11-.014.11-.016.109-.019.106-.02.106-.023.104-.024.103-.027.101-.028.099-.029.098-.031.097-.032.095-.033.093-.034.091-.035.09-.036.089-.037.086-.037.085-.038.083-.038.081-.039.08-.039.078-.039.075-.04.076-.076.14-.078.134-.075.126-.073.116-.07.109-.066.099-.062.089-.057.08-.05.069-.046.061-.064.083-.023.028-.031.039-.048.057-.063.074-.084.095-.106.118-.13.142-.157.167-.187.196-.217.224-.252.256-.287.288-.326.322-.365.358-.2.194-.21.203-.221.212-.299.286-.141.092-.054.037-.053.038-.051.038-.049.039-.049.04-.048.041-.047.042-.046.043-.045.043-.044.045-.043.045-.042.047-.041.047-.04.047-.04.05-.038.05-.038.051-.036.051-.036.053-.035.053-.034.055-.034.055-.032.055-.032.057-.031.058-.029.059-.03.059-.028.06-.027.061-.027.062-.026.062-.024.063-.024.064-.024.065-.022.065-.022.066-.02.067-.02.067-.019.068-.018.068-.017.069-.017.069-.015.07-.015.071-.014.071-.013.072-.012.071-.012.072-.01.073-.01.073-.009.073-.008.073-.008.074-.006.074-.006.074-.005.075-.004.074-.003.075-.003.075-.002.074-.001.075v.075l.001.075.001.075.002.075.003.074.003.075.004.074.005.075.006.074.006.074.007.073.007.073.008.074.009.072.01.072.01.072.011.072.011.069.025.143.026.138.029.136.031.134.033.131.035.127.038.127.018.059.019.06.02.059.02.058.02.057.021.056.021.055.021.054.022.052.022.052.022.05.022.049.022.048.022.047.023.045.022.043.023.043.022.041.023.039.022.037.022.037.022.035.022.032.022.032.021.03.02.027.021.027.019.024.019.022.018.021.017.018.016.017.016.016.069.064.077.091.034.04.034.039.036.04.036.039.038.039.038.04.039.039.04.04.041.039.042.039.043.039.044.039.045.039.046.039.047.039.047.038.049.038.05.038.051.038.052.038.053.037.054.037.055.037.056.037.057.036.059.036.059.036.061.036.061.035.063.034.064.035.065.033.066.034.067.033.069.033.07.032.071.031.073.032.073.031.074.03.076.029.078.03.078.028.079.028.082.027.082.027.084.026.085.025.086.025.088.024.089.024.09.022.092.022.093.021.095.021.096.019.097.019.099.018.1.017.102.016.103.015.105.015.111.014L10.081 22l-.121-.016-.126-.017-.124-.018-.122-.02-.122-.02-.12-.022-.119-.023-.117-.024-.116-.025-.115-.026-.114-.027-.112-.028-.111-.029-.109-.03-.108-.031-.107-.032-.106-.033-.105-.034-.102-.035-.102-.035-.101-.037-.099-.037-.098-.038-.097-.04-.096-.04-.093-.04-.093-.042-.092-.042-.09-.043-.09-.044-.088-.044-.086-.046-.086-.045-.084-.047-.083-.047-.081-.048-.081-.048-.079-.049-.078-.05-.077-.05-.075-.05-.074-.051-.074-.052-.072-.053-.07-.052-.07-.053-.068-.053-.067-.055-.066-.054-.064-.054-.064-.056-.062-.055-.062-.056-.059-.056-.059-.056-.058-.056-.056-.057-.056-.057-.054-.057-.053-.058-.052-.057-.051-.058-.049-.057-.005-.007.001.002-.052-.052-.051-.052-.05-.054-.048-.055-.047-.056-.046-.057-.044-.058-.044-.059-.043-.06-.041-.06-.041-.062-.039-.062-.039-.064-.039-.065-.037-.065-.037-.066-.035-.067-.035-.069-.035-.069-.033-.07-.034-.07-.032-.072-.031-.072-.031-.073-.031-.075-.029-.075-.029-.075-.028-.077-.028-.077-.027-.078-.026-.079-.026-.08-.026-.082-.047-.161-.045-.165-.042-.168-.04-.17-.037-.173-.034-.175-.03-.175-.015-.092-.013-.089-.013-.091-.012-.091-.011-.091-.01-.091-.01-.092-.008-.092-.008-.093-.007-.093-.006-.093-.005-.094-.005-.094-.003-.094-.003-.094-.001-.095-.001-.095.001-.095.001-.095.002-.096.003-.095.005-.096.005-.095.006-.096.008-.096.008-.096.01-.096.01-.096.012-.096.013-.096.014-.096.015-.096.016-.096.018-.096.019-.095.02-.096.021-.095.022-.095.024-.095.025-.095.027-.094.027-.095.03-.093.03-.094.032-.093.033-.093.035-.092.036-.093.038-.091.039-.091.041-.091.042-.09.044-.089.046-.089.047-.088.049-.088.05-.087.052-.086.054-.086.055-.084.057-.084.059-.083.061-.082.063-.081.063-.08.067-.079.068-.078.069-.076.072-.076.073-.074.075-.073.076-.071.08-.071.08-.069.082-.067.084-.066.086-.065.088-.062.089-.061.004-.003.163-.156.218-.209.206-.199.194-.189.359-.351.317-.314.278-.279.242-.245.207-.214.175-.183.144-.155.117-.127.091-.1.068-.077.046-.054.025-.03.022-.028.015-.017.04-.053.029-.038.036-.05.041-.057.046-.067.049-.074.053-.081.055-.089.057-.094.058-.101.059-.108.028-.053.029-.056.028-.057.029-.058.027-.058.027-.06.027-.061.026-.061.025-.062.025-.062.023-.063.023-.063.021-.064.02-.064.019-.063.018-.064.017-.064.015-.064.014-.064.013-.063.011-.064.009-.063.008-.062.006-.062.005-.061.003-.061.001-.06V3.5l-.002-.059-.004-.058-.005-.057-.007-.056-.009-.056-.011-.06-.005-.023-.007-.027-.006-.027-.277-1.014.209-.277 1.124-.008h.113z"/></svg>