<svg viewBox="0 0 24 24" xmlns="http://www.w3.org/2000/svg" fill-rule="evenodd" clip-rule="evenodd" stroke-linejoin="round" stroke-miterlimit="1.414"><path d="M13.265 6.902l.076.036.076.036.076.038.075.039.074.039.075.04.074.041.073.042.074.043.072.044.072.044.072.045.071.046.07.047.071.048.07.048.069.049.068.049.069.051.068.052.066.051.066.053.067.054.066.054.064.055.064.056.064.057.063.057.063.057.061.059.062.059.06.06.06.06.059.061.059.062.058.063.057.063.057.064.055.064.056.065.054.066.054.066.053.067.052.068.051.068.051.068.05.07.049.07.048.07.047.071.047.072.045.072.045.073.044.074.043.073.042.075.042.075.04.076.039.076.039.076.037.078.037.078.035.078.035.078.033.079.033.08.031.08.031.081.029.081.028.082.027.082.026.082.025.083.024.084.023.084.021.084.02.084.019.086.018.085.016.086.016.086.014.086.013.087.011.088.01.087.009.088.008.088.006.088.004.089.004.089.002.089v.179l-.003.09-.003.09-.006.09-.006.09-.008.091-.01.09-.011.091-.013.091-.014.09-.016.091-.017.091-.019.091-.02.091-.022.09-.024.092-.025.09-.026.091-.029.091-.03.09-.031.09-.033.091-.035.09-.036.09-.038.089-.04.09-.041.09-.043.089-.044.088-.046.089-.048.089-.05.088-.051.087-.052.087-.079.128-.085.107-.056.069-.056.067-.057.067-.058.065-.058.065-.06.064-.061.062-.06.061-.062.061-.062.059-.063.058-.064.058-.065.056-.065.055-.06.05-1.269-1.547.049-.039.042-.036.043-.038.042-.037.042-.039.041-.039.041-.04.041-.041.04-.042.039-.042.04-.044.039-.044.038-.045.039-.046.037-.046.008-.01.013-.021.037-.062.036-.061.034-.06.033-.061.031-.061.031-.061.029-.06.028-.06.026-.06.026-.061.024-.06.023-.059.022-.06.02-.06.02-.059.019-.059.017-.06.016-.059.016-.059.014-.059.013-.059.012-.058.011-.059.011-.058.009-.059.008-.058.007-.058.006-.059.005-.058.005-.058.003-.058.002-.058.002-.058v-.115l-.001-.058-.003-.057-.003-.058-.004-.057-.004-.057-.006-.058-.007-.057-.007-.057-.009-.057-.009-.057-.01-.057-.011-.057-.012-.056-.012-.057-.014-.056-.014-.057-.016-.056-.016-.057-.016-.055-.018-.057-.018-.055-.02-.056-.02-.056-.021-.055-.021-.055-.023-.055-.023-.055-.024-.055-.025-.055-.025-.054-.027-.054-.027-.054-.028-.054-.028-.054-.029-.053-.03-.053-.031-.053-.032-.052-.032-.052-.033-.052-.033-.052-.034-.051-.035-.051-.036-.051-.036-.05-.037-.051-.037-.049-.038-.05-.039-.049-.04-.049-.039-.048-.041-.047-.041-.048-.042-.047-.042-.047-.043-.046-.036-.037.002.031.003.096.003.095.001.094v.093l-.001.092-.002.091-.003.09-.004.089-.005.088-.006.087-.006.086-.008.085-.009.084-.01.083-.01.083-.012.081-.012.08-.013.079-.014.078-.015.077-.016.077-.016.075-.017.074-.018.073-.019.073-.019.071-.021.073-.04.135-.045.133-.046.13-.049.126-.05.121-.052.118-.054.114-.055.11-.057.106-.058.102-.058.098-.059.095-.06.091-.06.086-.06.083-.06.08-.059.075-.06.072-.059.069-.058.064-.057.062-.057.058-.054.054-.054.052-.052.047-.05.045-.051.044-.086.07-.082.062-.069.05-.059.04-.212.132-.24.04-.058.008-.069.008-.082.007-.095.005-.101.002h-.061l-.061-.001-.062-.002-.063-.004-.068-.005-.069-.007-.071-.009-.074-.011-.074-.012-.078-.016-.079-.018-.08-.02-.082-.023-.083-.027-.085-.029-.085-.034-.086-.036-.087-.041-.087-.045-.087-.048-.087-.053-.086-.058-.086-.062-.085-.067-.083-.071-.078-.073-.044-.044-.038-.04-.04-.043-.039-.043-.037-.045-.037-.045-.036-.046-.035-.048-.035-.049-.034-.051-.033-.05-.012-.019-.001.009-.008.06-.007.06-.005.059-.004.059-.003.058-.001.057-.001.056.002.055.002.055.003.052.005.052.006.05.006.048.008.047.008.045.01.043.01.041.01.038.011.037.012.033.011.031.012.029.012.026.01.022.011.02.01.017.009.013.007.01.006.008.003.004.002.002.059.056.077.092.038.044.038.043.038.043.039.042.039.042.04.04.039.04.04.039.04.038.04.038.04.036.04.036.042.036.041.035.04.033.042.033.042.033.041.032.042.031.041.03.043.031.043.029.041.028.044.028.042.027.043.026.043.026.043.024.044.025.044.024.049.026-.935 1.768-.061-.032-.066-.036-.065-.037-.066-.038-.065-.039-.065-.04-.065-.041-.063-.041-.064-.043-.064-.043-.062-.044-.062-.045-.063-.047-.062-.047-.061-.048-.06-.049-.061-.05-.06-.051-.059-.051-.06-.053-.059-.053-.058-.055-.057-.055-.057-.056-.057-.058-.056-.057-.056-.059-.055-.06-.055-.06-.054-.062-.054-.063-.014-.016-.016-.016-.071-.075-.067-.079-.062-.079-.057-.082-.054-.083-.049-.084-.046-.086-.043-.087-.04-.088-.036-.089-.033-.09-.031-.091-.028-.092-.025-.092-.023-.094-.021-.094-.018-.095-.016-.097-.013-.097-.011-.097-.009-.099-.006-.099-.005-.1-.002-.1.001-.101.002-.102.005-.102.007-.102.009-.103.012-.104.014-.103.017-.104.018-.105.022-.104.024-.104.026-.105.029-.105.031-.104.034-.105.037-.104.039-.104.043-.103.045-.103.048-.102.05-.102.054-.101.057-.101.06-.099.062-.098.066-.098.07-.096.072-.095.075-.093.079-.092.082-.089.085-.089.089-.086.092-.084.095-.081.095-.077.055-.042.05-.037.052-.037.053-.037.054-.036 1.677-1.085-.09 2.007-.002.062-.001.06-.001.059v.057l.001.056.002.054.002.053.003.05.004.05.004.048.004.046.006.045.005.044.006.042.007.04.007.04.007.037.008.037.008.035.009.033.008.033.009.031.009.03.01.029.009.027.01.026.01.026.009.023.01.023.011.022.01.021.01.02.01.019.01.018.01.017.01.016.011.017.01.014.01.014.01.014.01.013.01.012.011.013.009.01.009.011.011.011.006.006.024.022.021.018.02.015.02.015.021.014.021.013.023.013.022.011.023.011.024.01.024.01.025.008.025.008.026.008.026.006.026.006.026.005.028.005.026.004.026.003.026.003.024.001.025.002h.005l.019-.018.027-.025.028-.029.03-.03.03-.032.032-.036.032-.037.033-.04.034-.043.034-.045.034-.047.035-.051.035-.052.035-.056.034-.059.035-.061.034-.064.034-.068.033-.07.033-.073.032-.077.03-.08.03-.083.029-.087.028-.093.012-.043.013-.048.013-.048.012-.049.011-.05.011-.051.011-.052.01-.053.01-.054.009-.055.009-.056.008-.057.007-.058.007-.06.006-.06.006-.061.005-.062.004-.063.004-.065.003-.066.002-.066.001-.068.001-.069v-.07l-.001-.071-.002-.072-.002-.074-.004-.075-.004-.075-.006-.078-.006-.078-.007-.079-.009-.081-.009-.082-.01-.083-.011-.084-.013-.086-.013-.087-.015-.088-.016-.089-.017-.091-.018-.092-.019-.093-.021-.094-.021-.096-.023-.097-.025-.098-.025-.1-.027-.101-.602-2.173 2.023.923z"/><path d="M10.473 1.778l.112.001.112.002.111.004.111.004.11.005.111.006.109.008.108.008.108.009.109.011.107.011.106.012.106.013.105.014.106.016.104.016.104.017.103.018.104.019.102.02.101.02.102.022.1.023.101.024.099.024.099.025.099.027.098.027.096.028.097.029.097.03.096.031.094.032.095.032.093.033.093.035.094.035.092.036.091.036.091.038.09.038.089.04.09.04.088.04.088.042.087.043.087.043.086.044.085.044.085.046.085.046.083.047.082.048.083.048.081.049.081.05.081.051.08.052.079.051.078.053.079.054.077.054.076.054.076.056.076.056.074.057.074.057.074.058.072.059.072.059.071.059.072.061.07.062.069.061.069.062.069.063.067.064.067.064.066.064.066.065.065.066.064.066.064.066.064.069.123.135.122.138.119.14.116.142.114.144.111.145.108.147.106.15.104.15.1.152.099.154.095.156.093.157.091.158.088.159.085.161.083.163.08.163.078.165.075.165.073.167.07.168.068.169.065.17.062.17.06.172.057.172.055.174.053.173.05.175.047.175.045.176.042.177.04.177.037.177.035.178.033.179.029.178.028.179.024.18.023.179.019.18.018.18.014.18.013.18.009.18.008.18.004.18.002.18v.18l-.003.18-.005.18-.008.179-.011.179-.013.178-.015.179-.018.178-.021.177-.023.177-.026.176-.028.176-.031.176-.034.174-.036.174-.039.173-.041.173-.044.171-.046.171-.049.17-.052.168-.055.168-.057.167-.06.166-.062.164-.065.164-.068.162-.07.161-.074.159-.076.158-.078.157-.082.155-.084.154-.087.152-.089.15-.111.179-.061.081-.031.044-.038.054-.044.065-.101.15-.06.086-.063.091-.07.096-.075.101-.081.104-.085.105-.048.056-.047.055-.049.056-.051.056-.053.056-.054.056-.056.057-.058.056-.06.057-.062.056-.063.057-.066.057-.068.055-.069.055-.072.056-.073.055-.076.054-.077.054-.08.053-.082.052-.084.051-.086.051-.088.049-.091.049-.092.047-.095.047-.096.045-.099.044-.102.043-.103.042-.106.04-.108.039-.11.037-.112.036-.115.034-.117.033-.119.031-.122.03-.124.028-.118.024-.406-1.958.102-.021.091-.021.087-.021.086-.023.083-.023.081-.024.078-.025.076-.026.073-.026.072-.027.069-.028.067-.028.065-.029.063-.03.061-.03.06-.03.057-.031.056-.031.054-.032.052-.032.051-.033.049-.032.048-.033.047-.034.045-.033.043-.034.043-.034.042-.035.039-.034.039-.034.038-.035.037-.036.036-.035.035-.035.035-.035.033-.036.032-.035.032-.036.031-.036.028-.033.06-.075.056-.072.054-.072.052-.072.051-.072.049-.072.099-.145.049-.073.051-.074.055-.076.022-.03.054-.087.071-.119.068-.12.067-.122.065-.124.063-.125.061-.127.059-.128.057-.13.054-.131.053-.132.051-.134.048-.134.047-.136.044-.137.043-.139.04-.139.039-.141.036-.141.034-.143.032-.143.03-.145.028-.145.026-.146.023-.146.022-.148.019-.148.018-.148.015-.149.013-.15.011-.15.009-.151.006-.151.005-.151.002-.152v-.152l-.001-.152-.004-.152-.006-.152-.009-.152-.01-.153-.013-.152-.014-.152-.017-.152-.019-.152-.021-.152-.023-.152-.025-.151-.027-.151-.03-.15-.031-.15-.034-.149-.036-.149-.037-.149-.04-.147-.042-.147-.044-.147-.047-.145-.048-.145-.05-.144-.052-.143-.055-.142-.056-.141-.059-.14-.06-.139-.063-.138-.065-.137-.066-.136-.069-.134-.07-.133-.073-.132-.075-.131-.076-.129-.079-.127-.08-.126-.083-.125-.084-.123-.087-.122-.088-.12-.091-.118-.092-.117-.094-.115-.096-.113-.098-.111-.102-.111-.049-.053-.051-.053-.052-.054-.052-.052-.053-.052-.053-.052-.053-.051-.054-.051-.055-.05-.055-.05-.056-.05-.056-.048-.056-.048-.057-.048-.057-.047-.058-.047-.059-.046-.058-.046-.06-.045-.06-.044-.06-.044-.061-.044-.061-.043-.062-.042-.062-.042-.063-.041-.063-.041-.064-.04-.064-.039-.065-.04-.065-.038-.066-.038-.066-.037-.066-.036-.067-.036-.068-.036-.069-.035-.068-.034-.069-.034-.07-.033-.07-.032-.071-.032-.071-.031-.072-.031-.072-.029-.073-.03-.073-.028-.074-.028-.074-.028-.075-.026-.076-.026-.076-.026-.076-.024-.077-.024-.077-.023-.079-.023-.078-.022-.079-.021-.08-.02-.08-.02-.081-.019-.081-.019-.082-.017-.083-.017-.083-.016-.083-.016-.084-.014-.085-.014-.086-.013-.085-.013-.086-.011-.087-.011-.088-.01-.089-.009-.022-.003-.008.096-.011.11-.014.11-.016.109-.019.106-.02.106-.023.104-.024.103-.027.101-.028.099-.029.098-.031.097-.032.095-.033.093-.034.091-.035.09-.036.089-.037.086-.037.085-.038.083-.038.081-.039.08-.039.078-.039.075-.04.076-.076.14-.078.134-.075.126-.073.116-.07.109-.066.099-.062.089-.057.08-.05.069-.046.061-.064.083-.023.028-.031.039-.048.057-.063.074-.084.095-.106.118-.13.142-.157.167-.187.196-.217.224-.252.256-.287.288-.326.322-.365.358-.2.194-.21.203-.221.212-.299.286-.141.092-.054.037-.053.038-.051.038-.049.039-.049.04-.048.041-.047.042-.046.043-.045.043-.044.045-.043.045-.042.047-.041.047-.04.047-.04.05-.038.05-.038.051-.036.051-.036.053-.035.053-.034.055-.034.055-.032.055-.032.057-.031.058-.029.059-.03.059-.028.06-.027.061-.027.062-.026.062-.024.063-.024.064-.024.065-.022.065-.022.066-.02.067-.02.067-.019.068-.018.068-.017.069-.017.069-.015.07-.015.071-.014.071-.013.072-.012.071-.012.072-.01.073-.01.073-.009.073-.008.073-.008.074-.006.074-.006.074-.005.075-.004.074-.003.075-.003.075-.002.074-.001.075v.075l.001.075.001.075.002.075.003.074.003.075.004.074.005.075.006.074.006.074.007.073.007.073.008.074.009.072.01.072.01.072.011.072.011.069.025.143.026.138.029.136.031.134.033.131.035.127.038.127.018.059.019.06.02.059.02.058.02.057.021.056.021.055.021.054.022.052.022.052.022.05.022.049.022.048.022.047.023.045.022.043.023.043.022.041.023.039.022.037.022.037.022.035.022.032.022.032.021.03.02.027.021.027.019.024.019.022.018.021.017.018.016.017.016.016.069.064.077.091.034.04.034.039.036.04.036.039.038.039.038.04.039.039.04.04.041.039.042.039.043.039.044.039.045.039.046.039.047.039.047.038.049.038.05.038.051.038.052.038.053.037.054.037.055.037.056.037.057.036.059.036.059.036.061.036.061.035.063.034.064.035.065.033.066.034.067.033.069.033.07.032.071.031.073.032.073.031.074.03.076.029.078.03.078.028.079.028.082.027.082.027.084.026.085.025.086.025.088.024.089.024.09.022.092.022.093.021.095.021.096.019.097.019.099.018.1.017.102.016.103.015.105.015.111.014L10.081 22l-.121-.016-.126-.017-.124-.018-.122-.02-.122-.02-.12-.022-.119-.023-.117-.024-.116-.025-.115-.026-.114-.027-.112-.028-.111-.029-.109-.03-.108-.031-.107-.032-.106-.033-.105-.034-.102-.035-.102-.035-.101-.037-.099-.037-.098-.038-.097-.04-.096-.04-.093-.04-.093-.042-.092-.042-.09-.043-.09-.044-.088-.044-.086-.046-.086-.045-.084-.047-.083-.047-.081-.048-.081-.048-.079-.049-.078-.05-.077-.05-.075-.05-.074-.051-.074-.052-.072-.053-.07-.052-.07-.053-.068-.053-.067-.055-.066-.054-.064-.054-.064-.056-.062-.055-.062-.056-.059-.056-.059-.056-.058-.056-.056-.057-.056-.057-.054-.057-.053-.058-.052-.057-.051-.058-.049-.057-.005-.007.001.002-.052-.052-.051-.052-.05-.054-.048-.055-.047-.056-.046-.057-.044-.058-.044-.059-.043-.06-.041-.06-.041-.062-.039-.062-.039-.064-.039-.065-.037-.065-.037-.066-.035-.067-.035-.069-.035-.069-.033-.07-.034-.07-.032-.072-.031-.072-.031-.073-.031-.075-.029-.075-.029-.075-.028-.077-.028-.077-.027-.078-.026-.079-.026-.08-.026-.082-.047-.161-.045-.165-.042-.168-.04-.17-.037-.173-.034-.175-.03-.175-.015-.092-.013-.089-.013-.091-.012-.091-.011-.091-.01-.091-.01-.092-.008-.092-.008-.093-.007-.093-.006-.093-.005-.094-.005-.094-.003-.094-.003-.094-.001-.095-.001-.095.001-.095.001-.095.002-.096.003-.095.005-.096.005-.095.006-.096.008-.096.008-.096.01-.096.01-.096.012-.096.013-.096.014-.096.015-.096.016-.096.018-.096.019-.095.02-.096.021-.095.022-.095.024-.095.025-.095.027-.094.027-.095.03-.093.03-.094.032-.093.033-.093.035-.092.036-.093.038-.091.039-.091.041-.091.042-.09.044-.089.046-.089.047-.088.049-.088.05-.087.052-.086.054-.086.055-.084.057-.084.059-.083.061-.082.063-.081.063-.08.067-.079.068-.078.069-.076.072-.076.073-.074.075-.073.076-.071.08-.071.08-.069.082-.067.084-.066.086-.065.088-.062.089-.061.004-.003.163-.156.218-.209.206-.199.194-.189.359-.351.317-.314.278-.279.242-.245.207-.214.175-.183.144-.155.117-.127.091-.1.068-.077.046-.054.025-.03.022-.028.015-.017.04-.053.029-.038.036-.05.041-.057.046-.067.049-.074.053-.081.055-.089.057-.094.058-.101.059-.108.028-.053.029-.056.028-.057.029-.058.027-.058.027-.06.027-.061.026-.061.025-.062.025-.062.023-.063.023-.063.021-.064.02-.064.019-.063.018-.064.017-.064.015-.064.014-.064.013-.063.011-.064.009-.063.008-.062.006-.062.005-.061.003-.061.001-.06V3.5l-.002-.059-.004-.058-.005-.057-.007-.056-.009-.056-.011-.06-.005-.023-.007-.027-.006-.027-.277-1.014.209-.277 1.124-.008h.113z"/></svg>