<svg viewBox="0 0 24 24" xmlns="http://www.w3.org/2000/svg" fill-rule="evenodd" clip-rule="evenodd" stroke-linejoin="round" stroke-miterlimit="1.414"><g fill-rule="nonzero"><path d="M20.033 6c.231.003.459.04.677.119.538.198.973.633 1.171 1.171.073.202.11.412.118.626.052 4.056.052 8.112 0 12.168a2.059 2.059 0 0 1-.118.626 1.987 1.987 0 0 1-1.127 1.154 2.02 2.02 0 0 1-.67.135c-5.389.069-10.779.069-16.168 0a2.059 2.059 0 0 1-.626-.118 1.987 1.987 0 0 1-1.154-1.127 2.02 2.02 0 0 1-.135-.67 474.571 474.571 0 0 1 0-12.168c.008-.214.045-.424.118-.626a1.987 1.987 0 0 1 1.127-1.154 2.02 2.02 0 0 1 .67-.135C9.288 5.933 14.661 6 20.033 6zM4 8v12h16V8H4z"/><path d="M11.235 2.001a3.043 3.043 0 0 1 2.012.833l.05.048 3.41 3.411-1.414 1.414C14.146 6.56 13.039 5.37 11.85 4.266A1.047 1.047 0 0 0 11.184 4c-1.555-.023-3.114-.079-4.667.002a1.039 1.039 0 0 0-.926.756l-.006.027-.615 2.458-1.94-.486c.21-.841.412-1.685.632-2.525a3.093 3.093 0 0 1 .39-.865 3.046 3.046 0 0 1 1.594-1.218c.283-.092.576-.138.873-.148 1.572-.017 3.144-.023 4.716 0z"/></g></svg>