<svg viewBox="0 0 24 24" xmlns="http://www.w3.org/2000/svg" fill-rule="evenodd" clip-rule="evenodd" stroke-linejoin="round" stroke-miterlimit="1.414"><path d="M22 18.01a2.103 2.103 0 0 1-.122.676c-.2.549-.643.991-1.192 1.192-.218.08-.444.116-.675.122H15v-2h4.984c.009 0 .012.003.016-.002.002-.003 0-.009 0-.013V13h2v5.01zM4 17.985c0 .008-.003.011.001.015.004.002.01 0 .015 0H9v2H3.989l-.089-.002a2.14 2.14 0 0 1-.678-.156 2.017 2.017 0 0 1-1.132-1.249A2.13 2.13 0 0 1 2 18.01V13h2v4.985zM9 6H4.015c-.008 0-.011-.003-.015.002-.002.003 0 .009 0 .013V11H2V5.99l.002-.09c.007-.089.007-.112.021-.201A2.013 2.013 0 0 1 3.408 4.09c.19-.059.384-.085.582-.09H9v2zM20.1 4.002c.089.007.113.007.201.021a2.013 2.013 0 0 1 1.609 1.384c.059.19.085.384.09.583V11h-2V6.015c0-.008.003-.011-.002-.015-.003-.002-.008 0-.013 0H15V4c1.7 0 3.4-.04 5.1.002z" fill-rule="nonzero"/><path d="M17.084 8.001l.048.004.047.006.047.008.046.01.045.013.045.014.043.017.043.019.042.021.041.024.04.025.039.027.037.029.036.031.035.033.033.035.031.036.029.037.027.039.025.04.024.041.021.042.019.043.017.043.014.045.013.045.01.046.008.047.006.047.004.048.001.047v6.074l-.001.047-.004.048-.006.047-.008.047-.01.046-.013.045-.014.045-.017.043-.019.043-.021.042-.024.041-.025.04-.027.039-.029.037-.031.036-.033.035-.035.033-.036.031-.037.029-.039.027-.04.025-.041.024-.042.021-.043.019-.043.017-.045.014-.045.013-.046.01-.047.008-.047.006-.048.004-.047.001H6.963l-.047-.001-.048-.004-.047-.006-.047-.008-.046-.01-.045-.013-.045-.014-.043-.017-.043-.019-.042-.021-.041-.024-.04-.025-.039-.027-.037-.029-.036-.031-.035-.033-.033-.035-.031-.036-.029-.037-.027-.039-.025-.04-.024-.041-.021-.042-.019-.043-.017-.043-.014-.045-.013-.045-.01-.046-.008-.047-.006-.047-.004-.048L6 15.037V8.963l.001-.047.004-.048.006-.047.008-.047.01-.046.013-.045.014-.045.017-.043.019-.043.021-.042.024-.041.025-.04.027-.039.029-.037.031-.036.033-.035.035-.033.036-.031.037-.029.039-.027.04-.025.041-.024.042-.021.043-.019.043-.017.045-.014.045-.013.046-.01.047-.008.047-.006.048-.004L6.963 8h10.074l.047.001zM8 10v4h8v-4H8z"/></svg>