<svg viewBox="0 0 24 24" xmlns="http://www.w3.org/2000/svg" fill-rule="evenodd" clip-rule="evenodd" stroke-linejoin="round" stroke-miterlimit="1.414"><path d="M12.008 2.248C6.479 2.248 2 6.719 2 12.234c0 4.413 2.867 8.155 6.843 9.475.501.093.684-.215.684-.481 0-.237-.008-.865-.012-1.698-2.785.603-3.372-1.339-3.372-1.339-.455-1.153-1.113-1.46-1.113-1.46-.907-.62.07-.607.07-.607 1.005.07 1.533 1.028 1.533 1.028.893 1.527 2.343 1.086 2.914.831.091-.646.348-1.086.635-1.336-2.223-.25-4.559-1.109-4.559-4.935 0-1.089.388-1.981 1.03-2.68-.104-.252-.448-1.267.096-2.642 0 0 .841-.269 2.752 1.023a9.636 9.636 0 0 1 2.506-.337 9.647 9.647 0 0 1 2.506.337c1.91-1.292 2.75-1.023 2.75-1.023.546 1.375.204 2.39.1 2.642.641.699 1.029 1.591 1.029 2.68 0 3.836-2.339 4.681-4.57 4.927.359.307.68.918.68 1.848 0 1.336-.013 2.413-.013 2.74 0 .268.18.578.688.481 3.975-1.322 6.84-5.062 6.84-9.474 0-5.515-4.482-9.986-10.009-9.986"/></svg>