<svg viewBox="0 0 24 24" xmlns="http://www.w3.org/2000/svg" fill-rule="evenodd" clip-rule="evenodd" stroke-linejoin="round" stroke-miterlimit="1.414"><path d="M19.692 2l.055.001.054.002.054.004.053.005.054.006.053.008.052.009.053.011.052.012.051.014.052.015.05.016.051.017.049.019.049.02.049.022.048.022.048.024.046.026.047.026.045.028.045.029.044.03.043.031.042.033.042.034.041.035.039.036.039.037.039.038.037.04.036.04.035.042.033.042.033.043.031.044.03.045.029.045.028.046.026.046.025.048.023.047.023.049.021.049.019.049.019.05.017.05.015.051.015.051.012.052.012.052.01.052.009.053.007.052.006.053.005.054.003.053.002.053v.054l-.001.054-.002.054-.004.054-.006.053-.007.054-2.297 16-.007.046-.008.046-.01.045-.01.045-.011.044-.012.044-.013.044-.014.043-.015.042-.016.042-.017.042-.017.041-.019.041-.019.04-.02.04-.021.039-.022.038-.023.038-.023.038-.025.037-.025.036-.026.035-.026.035-.027.035-.028.034-.029.033-.03.032-.03.032-.031.031-.031.031-.032.029-.033.029-.033.029-.034.027-.035.027-.035.026-.036.025-.036.025-.037.024-.038.023-.038.022-.038.021-.039.021-.039.019-.04.019-.041.018-.041.017-.041.016-.041.016-.043.014-.042.014-.043.012-.043.012-.044.01-.044.01-.044.009-.045.007-.045.007-.045.006-.045.005-.046.003-.046.003-.046.001-.047.001H6.605l-.047-.001-.046-.001-.046-.003-.046-.003-.045-.005-.045-.006-.045-.007-.045-.007-.044-.009-.044-.01-.044-.01-.043-.012-.043-.012-.042-.014-.043-.014-.041-.016-.041-.016-.041-.017-.041-.018-.04-.019-.039-.019-.039-.021-.038-.021-.038-.022-.038-.023-.037-.024-.036-.025-.036-.025-.035-.026-.035-.027-.034-.027-.033-.029-.033-.029-.032-.029-.031-.031-.031-.031-.03-.032-.03-.032-.029-.033-.028-.034-.027-.035-.026-.035-.026-.035-.025-.036-.025-.037-.023-.038-.023-.038-.022-.038-.021-.039-.02-.04-.019-.04-.019-.041-.017-.041-.017-.042-.016-.042-.015-.042-.014-.043-.013-.044-.012-.044-.011-.044-.01-.045-.01-.045-.008-.046-.007-.046-2.297-16-.007-.054-.006-.053-.004-.054-.002-.054-.001-.054v-.054l.002-.053.003-.053.005-.054.006-.053.007-.052.009-.053.01-.052.012-.052.012-.052.015-.051.015-.051.017-.05.019-.05.019-.049.021-.049.023-.049.023-.047.025-.048.026-.046.028-.046.029-.045.03-.045.031-.044.033-.043.033-.042.035-.042.036-.04.037-.04.039-.038.039-.037.039-.036.041-.035.042-.034.042-.033.043-.031.044-.03.045-.029.045-.028.047-.026.046-.026.048-.024.048-.022.049-.022.049-.02.049-.019.051-.017.05-.016.052-.015.051-.014.052-.012.053-.011.052-.009.053-.008.054-.006.053-.005.054-.004.054-.002L4.308 2h15.384zM4.321 4h-.013l.002.013 2.293 15.973.002.013V20H17.395l.002-.014L19.69 4.013 19.692 4H4.321z"/><path d="M9.184 7.001c.66.008 1.321.041 1.976.131.443.061.879.152 1.313.26.39.104.778.219 1.168.324.297.076.596.143.899.188.529.078 1.064.101 1.598.095.462-.004.924-.031 1.382-.096a5.56 5.56 0 0 0 1.2-.291c.124-.047.246-.101.362-.167a1.315 1.315 0 0 0 .164-.107l.012-.009.007-.007.003-.003c-.004.006-.009.01-.014.015l-.001.002 1.494 1.328a1.573 1.573 0 0 1-.098.102 3.474 3.474 0 0 1-1.003.628 6.845 6.845 0 0 1-1.614.453A12.34 12.34 0 0 1 16 10c-.661 0-1.324-.041-1.976-.154a10.353 10.353 0 0 1-.889-.195c-.335-.088-.666-.187-.999-.279a9.571 9.571 0 0 0-1.25-.259A13.82 13.82 0 0 0 9 9c-.749 0-1.499.039-2.241.146a8.065 8.065 0 0 0-1.495.345 4.29 4.29 0 0 0-.434.177 1.572 1.572 0 0 0-.216.121l.002-.001-1.232-1.576c.037-.029.075-.056.113-.082.52-.345 1.123-.556 1.723-.713 1.055-.278 2.149-.378 3.238-.41.242-.005.484-.007.726-.006z" fill-rule="nonzero"/></svg>