<svg viewBox="0 0 24 24" xmlns="http://www.w3.org/2000/svg" fill-rule="evenodd" clip-rule="evenodd" stroke-linejoin="round" stroke-miterlimit="1.414"><path d="M12.129 2.001a9.946 9.946 0 0 1 4.095.934 10.088 10.088 0 0 1 4.681 4.514 9.94 9.94 0 0 1 .916 2.659c.207 1.082.235 2.199.082 3.29a9.967 9.967 0 0 1-3.005 5.839A9.984 9.984 0 0 1 12 22a9.984 9.984 0 0 1-6.898-2.763 9.967 9.967 0 0 1-3.005-5.839 10.093 10.093 0 0 1 .082-3.29 9.94 9.94 0 0 1 .916-2.659 10.088 10.088 0 0 1 4.681-4.514 9.946 9.946 0 0 1 4.095-.934h.258zM6.04 13H4.062l.016.12c.109.781.335 1.544.669 2.258a8.043 8.043 0 0 0 3.695 3.788 11.311 11.311 0 0 1-1.68-2.941A11.566 11.566 0 0 1 6.04 13zm13.898 0H17.96a11.566 11.566 0 0 1-.722 3.225 11.337 11.337 0 0 1-1.679 2.941 8.05 8.05 0 0 0 3.61-3.614A7.941 7.941 0 0 0 19.938 13zm-3.985 0H13v6.002a9.427 9.427 0 0 0 2.409-3.593A9.584 9.584 0 0 0 15.953 13zM11 19.002V13H8.048c.092.961.32 1.907.698 2.799a9.495 9.495 0 0 0 2.143 3.098l.111.105zM8.441 4.834a8.09 8.09 0 0 0-3.522 3.441A7.943 7.943 0 0 0 4.062 11H6.04c.088-1.102.325-2.191.722-3.225a11.308 11.308 0 0 1 1.679-2.941zM11 4.998a9.417 9.417 0 0 0-2.445 3.694A9.52 9.52 0 0 0 8.047 11H11V4.998zm2 0V11h2.952a9.484 9.484 0 0 0-.698-2.799A9.482 9.482 0 0 0 13 4.998zm2.558-.164c.676.856 1.23 1.807 1.634 2.821.425 1.07.676 2.2.768 3.345h1.978a7.953 7.953 0 0 0-.857-2.725 8.092 8.092 0 0 0-3.523-3.441z"/></svg>