<svg viewBox="0 0 24 24" xmlns="http://www.w3.org/2000/svg" fill-rule="evenodd" clip-rule="evenodd" stroke-linejoin="round" stroke-miterlimit="1.414"><path d="M12.129 2.001a9.946 9.946 0 0 1 4.095.934 10.088 10.088 0 0 1 4.681 4.514 9.94 9.94 0 0 1 .916 2.659c.207 1.082.235 2.199.082 3.29a9.967 9.967 0 0 1-3.005 5.839A9.984 9.984 0 0 1 12 22a9.984 9.984 0 0 1-6.898-2.763 9.967 9.967 0 0 1-3.005-5.839 10.093 10.093 0 0 1 .082-3.29 9.94 9.94 0 0 1 .916-2.659 10.088 10.088 0 0 1 4.681-4.514 9.946 9.946 0 0 1 4.095-.934h.258zm-.233 2a7.912 7.912 0 0 0-3.273.746 8.082 8.082 0 0 0-3.704 3.528 7.943 7.943 0 0 0-.756 2.112 8.068 8.068 0 0 0-.085 2.733 7.955 7.955 0 0 0 2.404 4.67 8.055 8.055 0 0 0 2.496 1.619 8.006 8.006 0 0 0 10.944-6.289 8.068 8.068 0 0 0-.085-2.733 7.943 7.943 0 0 0-.756-2.112 8.082 8.082 0 0 0-3.704-3.528 7.912 7.912 0 0 0-3.273-.746h-.208z" fill-rule="nonzero"/><path d="M12.077 6a5.971 5.971 0 0 1 2.457.561 6.043 6.043 0 0 1 2.741 2.58 5.967 5.967 0 0 1 .677 3.623 5.977 5.977 0 0 1-1.761 3.528 6.016 6.016 0 0 1-1.856 1.236A6.002 6.002 0 0 1 6.592 9.4a6.054 6.054 0 0 1 2.742-2.776 5.94 5.94 0 0 1 2.434-.62c.103-.003.206-.004.309-.004zm-.129 2a4.037 4.037 0 0 0-1.636.373 4.024 4.024 0 0 0-2.286 3.165 3.983 3.983 0 0 0 .456 2.366 4.042 4.042 0 0 0 1.963 1.782 4.005 4.005 0 0 0 4.279-.758 4.04 4.04 0 0 0 .861-1.153c.175-.351.297-.728.361-1.115a4.06 4.06 0 0 0 0-1.32 3.944 3.944 0 0 0-.319-1.028 4.046 4.046 0 0 0-1.852-1.897A4.023 4.023 0 0 0 11.948 8z" fill-rule="nonzero"/><circle cx="12" cy="12" r="2"/><path fill="none" d="M0 0h24v24H0z"/></svg>