<svg viewBox="0 0 24 24" xmlns="http://www.w3.org/2000/svg" fill-rule="evenodd" clip-rule="evenodd" stroke-linejoin="round" stroke-miterlimit="1.414"><path d="M12.103 4.001l.103.002.103.003.102.004.102.006.102.007.101.009.101.009.101.011.1.012.1.014.1.014.099.016.098.017.099.018.097.02.098.02.097.022.096.023.096.024.096.025.095.027.095.027.094.029.094.03.093.031.092.032.092.033.092.034.091.035.091.037.09.037.089.039.089.039.088.041.088.041.087.043.087.044.086.044.085.046.085.047.084.048.083.048.083.05.082.05.082.052.08.053.081.053.079.054.079.056.078.056.077.057.077.058.076.059.075.06.075.061.073.061.073.063.072.063.072.064.071.065.069.066.069.067.069.067.067.069.067.069.066.069.065.071.064.072.063.072.063.073.061.073.061.075.06.075.059.076.058.077.057.077.056.078.056.079.054.079.053.081.053.08.052.082.05.082.05.083.048.083.048.084.047.085.046.085.044.086.044.087.043.087.041.088.041.088.039.089.039.089.037.09.037.091.035.091.034.092.033.092.032.092.031.093.03.094.029.094.027.095.027.095.025.096.024.096.023.096.022.097.02.098.02.097.018.099.017.098.016.099.014.1.014.1.012.1.011.101.009.101.009.101.007.102.006.102.004.102.003.103.002.103L20 12l-.001.103-.002.103-.003.103-.004.102-.006.102-.007.102-.009.101-.009.101-.011.101-.012.1-.014.1-.014.1-.016.099-.017.098-.018.099-.02.097-.02.098-.022.097-.023.096-.024.096-.025.096-.027.095-.027.095-.029.094-.03.094-.031.093-.032.092-.033.092-.034.092-.035.091-.037.091-.037.09-.039.089-.039.089-.041.088-.041.088-.043.087-.044.087-.044.086-.046.085-.047.085-.048.084-.048.083-.05.083-.05.082-.052.082-.053.08-.053.081-.054.079-.056.079-.056.078-.057.077-.058.077-.059.076-.06.075-.061.075-.061.073-.063.073-.063.072-.064.072-.065.071-.066.069-.067.069-.067.069-.069.067-.069.067-.069.066-.071.065-.072.064-.072.063-.073.063-.073.061-.075.061-.075.06-.076.059-.077.058-.077.057-.078.056-.079.056-.079.054-.081.053-.08.053-.082.052-.082.05-.083.05-.083.048-.084.048-.085.047-.085.046-.086.044-.087.044-.087.043-.088.041-.088.041-.089.039-.089.039-.09.037-.091.037-.091.035-.092.034-.092.033-.092.032-.093.031-.094.03-.094.029-.095.027-.095.027-.096.025-.096.024-.096.023-.097.022-.098.02-.097.02-.099.018-.098.017-.099.016-.1.014-.1.014-.1.012-.101.011-.101.009-.101.009-.102.007-.102.006-.102.004-.103.003-.103.002L12 20l-.103-.001-.103-.002-.103-.003-.102-.004-.102-.006-.102-.007-.101-.009-.101-.009-.101-.011-.1-.012-.1-.014-.1-.014-.099-.016-.098-.017-.099-.018-.097-.02-.098-.02-.097-.022-.096-.023-.096-.024-.096-.025-.095-.027-.095-.027-.094-.029-.094-.03-.093-.031-.092-.032-.092-.033-.092-.034-.091-.035-.091-.037-.09-.037-.089-.039-.089-.039-.088-.041-.088-.041-.087-.043-.087-.044-.086-.044-.085-.046-.085-.047-.084-.048-.083-.048-.083-.05-.082-.05-.082-.052-.08-.053-.081-.053-.079-.054-.079-.056-.078-.056-.077-.057-.077-.058-.076-.059-.075-.06-.075-.061-.073-.061-.073-.063-.072-.063-.072-.064-.071-.065-.069-.066-.069-.067-.069-.067-.067-.069-.067-.069-.066-.069-.065-.071-.064-.072-.063-.072-.063-.073-.061-.073-.061-.075-.06-.075-.059-.076-.058-.077-.057-.077-.056-.078-.056-.079-.054-.079-.053-.081-.053-.08-.052-.082-.05-.082-.05-.083-.048-.083-.048-.084-.047-.085-.046-.085-.044-.086-.044-.087-.043-.087-.041-.088-.041-.088-.039-.089-.039-.089-.037-.09-.037-.091-.035-.091-.034-.092-.033-.092-.032-.092-.031-.093-.03-.094-.029-.094-.027-.095-.027-.095-.025-.096-.024-.096-.023-.096-.022-.097-.02-.098-.02-.097-.018-.099-.017-.098-.016-.099-.014-.1-.014-.1-.012-.1-.011-.101-.009-.101-.009-.101-.007-.102-.006-.102-.004-.102-.003-.103-.002-.103L4 12l.001-.103.002-.103.003-.103.004-.102.006-.102.007-.102.009-.101.009-.101.011-.101.012-.1.014-.1.014-.1.016-.099.017-.098.018-.099.02-.097.02-.098.022-.097.023-.096.024-.096.025-.096.027-.095.027-.095.029-.094.03-.094.031-.093.032-.092.033-.092.034-.092.035-.091.037-.091.037-.09.039-.089.039-.089.041-.088.041-.088.043-.087.044-.087.044-.086.046-.085.047-.085.048-.084.048-.083.05-.083.05-.082.052-.082.053-.08.053-.081.054-.079.056-.079.056-.078.057-.077.058-.077.059-.076.06-.075.061-.075.061-.073.063-.073.063-.072.064-.072.065-.071.066-.069.067-.069.067-.069.069-.067.069-.067.069-.066.071-.065.072-.064.072-.063.073-.063.073-.061.075-.061.075-.06.076-.059.077-.058.077-.057.078-.056.079-.056.079-.054.081-.053.08-.053.082-.052.082-.05.083-.05.083-.048.084-.048.085-.047.085-.046.086-.044.087-.044.087-.043.088-.041.088-.041.089-.039.089-.039.09-.037.091-.037.091-.035.092-.034.092-.033.092-.032.093-.031.094-.03.094-.029.095-.027.095-.027.096-.025.096-.024.096-.023.097-.022.098-.02.097-.02.099-.018.098-.017.099-.016.1-.014.1-.014.1-.012.101-.011.101-.009.101-.009.102-.007.102-.006.102-.004.103-.003.103-.002L12 4l.103.001zm-.181 2l-.078.001-.077.002-.077.004-.077.004-.076.006-.076.006-.076.007-.076.008-.075.009-.074.01-.075.011-.075.012-.073.013-.074.013-.073.015-.073.015-.073.017-.071.017-.072.018-.072.019-.071.02-.071.02-.071.022-.069.022-.07.023-.07.024-.068.025-.069.025-.068.027-.068.027-.067.028L9.6 6.5l-.067.029-.066.031-.066.031-.065.032-.064.032-.065.034-.064.035-.063.034-.063.036-.063.037-.062.037-.061.038-.062.039-.061.039-.06.04-.059.041-.06.042-.058.042-.058.043-.057.043-.058.044-.057.046-.055.045-.056.047-.055.046-.053.048-.055.048-.053.05-.052.049-.052.049-.051.051-.052.052-.049.052-.05.052-.049.054-.048.053-.047.054-.047.055-.047.056-.046.056-.044.056-.045.057-.043.058-.043.058-.042.058-.042.06-.041.06-.04.059-.039.061-.039.062-.038.061-.037.062-.036.062-.036.064-.036.064-.034.064-.033.063-.033.065-.032.066-.031.065-.031.067L6.5 9.6l-.029.066-.028.068-.027.068-.027.068-.026.069-.024.069-.024.068-.023.07-.023.071-.021.07-.02.07-.02.072-.019.072-.018.071-.017.072-.017.073-.015.072-.015.075-.013.074-.013.073-.012.073-.011.075-.01.076-.009.074-.008.076-.007.076-.006.076-.006.076-.004.076-.004.078-.002.077-.001.078L6 12l.001.078.001.078.002.077.004.078.004.076.006.076.006.076.007.076.008.076.009.074.01.076.011.075.012.073.013.073.013.074.015.075.015.072.017.073.017.072.018.071.019.072.02.072.02.07.021.07.023.071.023.07.024.068.024.069.026.069.027.068.027.068.028.068.029.066.029.066.031.067.031.065.032.066.033.065.033.063.034.064.036.064.036.064.036.062.037.062.038.061.039.062.039.061.04.059.041.06.042.06.042.058.043.058.043.058.045.057.044.056.046.056.047.056.047.055.047.054.048.053.049.054.05.052.049.052.052.052.051.051.052.049.052.049.053.05.055.048.053.048.055.046.056.047.055.045.057.046.058.044.057.043.058.043.058.042.06.042.059.041.06.04.061.039.062.039.061.038.062.037.063.037.063.036.063.034.064.035.065.034.064.032.065.032.066.031.066.031.067.029.067.029.067.028.068.027.068.027.069.025.068.025.07.024.07.023.069.022.071.022.071.02.071.02.072.019.072.018.071.017.073.017.073.015.073.015.074.013.073.013.075.012.075.011.074.01.075.009.076.008.076.007.076.006.076.006.077.004.077.004.077.002.078.001L12 18l.078-.001.078-.001.077-.002.077-.004.077-.004.076-.006.076-.006.076-.007.076-.008.075-.009.074-.01.075-.011.075-.012.073-.013.074-.013.073-.015.073-.015.073-.017.071-.017.072-.018.072-.019.071-.02.071-.02.071-.022.069-.022.07-.023.07-.024.068-.025.069-.025.068-.027.068-.027.067-.028.067-.029.067-.029.066-.031.066-.031.065-.032.064-.032.065-.034.064-.035.063-.034.063-.036.063-.037.062-.037.061-.038.062-.039.061-.039.06-.04.059-.041.06-.042.058-.042.058-.043.057-.043.058-.044.057-.046.055-.045.056-.047.055-.046.053-.048.055-.048.053-.05.052-.049.052-.049.051-.051.052-.052.049-.052.05-.052.049-.054.048-.053.047-.054.047-.055.047-.056.046-.056.044-.056.045-.057.043-.058.043-.058.042-.058.042-.06.041-.06.04-.059.039-.061.039-.062.038-.061.037-.062.036-.062.036-.064.036-.064.034-.064.033-.063.033-.065.032-.066.031-.065.031-.067.029-.066.029-.066.028-.068.027-.068.027-.068.026-.069.024-.069.024-.068.023-.07.023-.071.021-.07.02-.07.02-.072.019-.072.018-.071.017-.072.017-.073.015-.072.015-.075.013-.074.013-.073.012-.073.011-.075.01-.076.009-.074.008-.076.007-.076.006-.076.006-.076.004-.076.004-.078.002-.077.001-.078L18 12l-.001-.078-.001-.078-.002-.077-.004-.078-.004-.076-.006-.076-.006-.076-.007-.076-.008-.076-.009-.074-.01-.076-.011-.075-.012-.073-.013-.073-.013-.074-.015-.075-.015-.072-.017-.073-.017-.072-.018-.071-.019-.072-.02-.072-.02-.07-.021-.07-.023-.071-.023-.07-.024-.068-.024-.069-.026-.069-.027-.068-.027-.068-.028-.068L17.5 9.6l-.029-.066-.031-.067-.031-.065-.032-.066-.033-.065-.033-.063-.034-.064-.036-.064-.036-.064-.036-.062-.037-.062-.038-.061-.039-.062-.039-.061-.04-.059-.041-.06-.042-.06-.042-.058-.043-.058-.043-.058-.045-.057-.044-.056-.046-.056-.047-.056-.047-.055-.047-.054-.048-.053-.049-.054-.05-.052-.049-.052-.052-.052-.051-.051-.052-.049-.052-.049-.053-.05-.055-.048-.053-.048-.055-.046-.056-.047-.055-.045-.057-.046-.058-.044-.057-.043-.058-.043-.058-.042-.06-.042-.059-.041-.06-.04-.061-.039-.062-.039-.061-.038-.062-.037-.063-.037-.063-.036-.063-.034-.064-.035-.065-.034-.064-.032-.065-.032-.066-.031-.066-.031L14.4 6.5l-.067-.029-.067-.028-.068-.027-.068-.027-.069-.025-.068-.025-.07-.024-.07-.023-.069-.022-.071-.022-.071-.02-.071-.02-.072-.019-.072-.018-.071-.017-.073-.017-.073-.015-.073-.015-.074-.013-.073-.013-.075-.012-.075-.011-.074-.01-.075-.009-.076-.008-.076-.007-.076-.006-.076-.006-.077-.004-.077-.004-.077-.002-.078-.001L12 6l-.078.001z"/><circle cx="12" cy="12" r="3"/><path d="M11 2h2v3h-2zM22 13v-2h-3v2h3zM11 19h2v3h-2zM2 11v2h3v-2H2z"/></svg>