<svg viewBox="0 0 24 24" xmlns="http://www.w3.org/2000/svg" fill-rule="evenodd" clip-rule="evenodd" stroke-linejoin="round" stroke-miterlimit="1.414"><path d="M7.524 13.062a1.255 1.255 0 0 1-1.185.848H3.444c-.498 0-.939-.319-1.097-.791l-.019-.057h5.196zM20.455 10.017h.001a1.77 1.77 0 0 1 1.163 2.003l-.001.007c-.01-.004-5.528-.086-5.528-.086-.068-.17.08-1.144.141-1.435a28.053 28.053 0 0 0-2.7-.426c-.369-.039-.738-.07-1.108-.093-1.673-.102-3.373-.029-5.022.293.073.355.154.762.229 1.136a.937.937 0 0 1-.048.54l-5.331.057A1.947 1.947 0 0 1 3.355 9.93c.328-.155.64-.3.841-.379 3.008-1.177 6.314-1.394 9.503-1.055.501.053 1.001.12 1.499.2a31.737 31.737 0 0 1 3.464.763 9.195 9.195 0 0 1 1.793.558zM16.141 13.035a1.256 1.256 0 0 0 1.179.857l2.895.02c.497.004.941-.311 1.102-.782l.02-.057-5.196-.038z"/></svg>