<svg viewBox="0 0 24 24" xmlns="http://www.w3.org/2000/svg" fill-rule="evenodd" clip-rule="evenodd" stroke-linejoin="round" stroke-miterlimit="1.414"><path d="M16.092 2.19l.092.001.09.003.091.003.089.004.089.006.088.006.087.007.087.008.085.009.086.01.084.011.084.012.083.013.083.014.081.014.081.016.081.016.079.017.079.018.078.019.078.02.077.021.076.021.075.022.075.024.074.024.073.025.073.025.071.027.072.027.07.028.07.029.069.03.068.03.068.031.067.032.066.033.065.034.065.034.064.035.063.036.063.036.062.037.061.038.061.039.059.039.059.04.059.041.057.042.057.042.056.043.056.043.055.045.054.044.053.046.053.046.051.047.052.048.05.048.05.048.049.05.048.05.047.05.047.052.046.051.046.053.044.053.044.053.044.055.042.054.042.056.041.055.04.057.04.057.038.057.039.058.037.059.037.059.036.06.035.06.034.06.034.061.033.062.032.062.032.063.03.063.031.063.029.064.028.065.028.065.027.065.027.066.026.066.024.067.025.067.023.067.023.068.022.068.021.069.021.069.019.07.019.07.019.07.017.07.017.071.016.072.015.071.015.072.014.073.013.073.012.073.012.073.011.074.01.074.009.074.009.075.007.074.008.076.006.075.006.076.004.076.005.076.003.077.003.076.001.077.002.078v.148l-.002.072-.002.071-.003.072-.004.072-.005.072-.006.072-.007.072-.007.072-.009.073-.009.073-.01.072-.011.073-.011.073-.013.074-.013.073-.014.073-.015.074-.033.147-.035.148-.038.148-.041.149-.045.149-.047.149-.05.149-.052.15-.056.15-.058.15-.06.15-.063.15-.066.151-.068.15-.07.15-.072.151-.075.15-.077.151-.079.15-.081.151-.083.15-.086.15-.086.15-.089.149-.091.149-.092.15-.094.148-.096.149-.097.148-.098.148-.1.147-.102.147-.102.146-.104.146-.106.146-.106.144-.107.145-.109.143-.109.143-.11.143-.112.141-.112.141-.112.141-.114.139-.114.139-.114.137-.115.137-.116.136-.116.136-.116.134-.117.133-.117.132-.117.131-.117.131-.117.129-.234.254-.234.251-.233.245-.232.24-.229.235-.228.229-.224.223-.222.218-.218.211-.213.205-.21.198-.204.191-.198.184-.193.176-.186.169-.18.162-.172.153-.164.145-.156.136-.147.128-.267.228-.226.191-.183.152-.135.111-.112.09-.112-.091-.135-.112-.183-.153-.226-.193-.267-.231-.147-.129-.156-.137-.164-.147-.173-.154-.179-.163-.186-.17-.193-.178-.198-.186-.204-.192-.21-.199-.213-.207-.218-.212-.222-.219-.224-.225-.228-.23-.229-.236-.232-.242-.233-.246-.234-.251L7 17.43l-.117-.13-.117-.131-.117-.131-.117-.133-.117-.134-.116-.134-.116-.136-.116-.136-.115-.138-.114-.138-.114-.139-.114-.139-.112-.141-.112-.141-.112-.142-.11-.143-.109-.143-.109-.144-.107-.144-.106-.145-.106-.145-.104-.146-.102-.146-.102-.147-.1-.148-.098-.147-.097-.148-.096-.148-.094-.149-.092-.149-.091-.149-.088-.149-.087-.149-.086-.15-.083-.149-.081-.15-.079-.15-.077-.15-.075-.149-.072-.15-.07-.15-.068-.15-.066-.149-.063-.149-.06-.15-.058-.149-.056-.148-.052-.149-.05-.148-.047-.148-.045-.148-.041-.147-.038-.146-.035-.147-.033-.146-.015-.072-.014-.073-.013-.072-.013-.073-.011-.072-.011-.072-.01-.072-.009-.072-.009-.072-.007-.071-.007-.071-.006-.071-.005-.071-.004-.071-.003-.071-.002-.07L2 8.259v-.07l.001-.155.002-.077.003-.076.003-.077.004-.076.005-.076.006-.076.006-.075.007-.076.008-.074.009-.075.009-.074.01-.074.011-.074.011-.073.013-.073.013-.073.013-.073.015-.072.015-.071.016-.072.017-.071.017-.07.019-.07.019-.07.019-.07.021-.069.021-.069.022-.068.022-.068.024-.067.024-.067.025-.067.025-.066.027-.066.027-.065.027-.065.029-.065.029-.064.03-.063.031-.063.031-.063.032-.062.033-.062.034-.061.034-.06.035-.06.036-.06.037-.059.037-.059.038-.058.039-.057.039-.057.041-.057.04-.055.042-.056.043-.054.043-.055.044-.053.044-.053.045-.053.046-.051.047-.052.048-.05.048-.05.049-.05.049-.048.051-.048.051-.048.052-.047.052-.046.053-.046.054-.044.055-.045.056-.043.056-.043.057-.042.057-.042.059-.041.059-.04.059-.039.061-.039.061-.038.062-.037.062-.036.064-.036.064-.035.065-.034.065-.034.066-.033.067-.032.068-.031.068-.03.069-.03.07-.029.071-.028.071-.027.072-.027.072-.025.074-.025.074-.024.074-.024.076-.022.076-.021.077-.021.078-.02.078-.019.079-.018.08-.017.08-.016.081-.016.082-.014.083-.014.083-.013.084-.012.085-.011.085-.01.086-.009.087-.008.088-.007.088-.006.089-.006.089-.004.091-.003.091-.003.092-.001L8 2.189l.072.001.072.004.071.005.071.008.071.01.071.012.071.014.07.016.071.018.069.019.07.022.07.023.069.025.069.027.068.028.069.03.068.031.068.033.067.034.068.035.067.037.066.038.067.039.066.041.065.041.066.043.065.043.065.045.064.045.065.046.063.048.064.047.126.098.124.1.123.102.122.103.12.105.118.106.117.105.115.106.225.21.218.205.211.196.102.095.101.091.101-.091.102-.095.211-.196.218-.205.225-.21.115-.106.117-.105.118-.106.12-.105.122-.103.123-.102.124-.1.126-.098.064-.047.063-.048.065-.046.064-.045.065-.045.065-.043.066-.043.065-.041.066-.041.067-.039.066-.038.067-.037.068-.035.067-.034.068-.033.068-.031.069-.03.068-.028.069-.027.069-.025.07-.023.07-.022.069-.019.071-.018.07-.016.071-.014.071-.012.071-.01.071-.008.071-.005.072-.004.072-.001.092.001zm-8.163 2l-.071.001-.068.002-.069.002-.068.003-.066.004-.066.005-.065.005-.064.007-.064.006-.062.007-.061.008-.061.009-.06.009-.059.01-.058.01-.057.011-.057.012-.055.011-.054.013-.056.013-.053.014-.052.014-.051.014-.051.015-.051.016-.05.016-.048.017-.048.017-.047.017-.047.018-.046.018-.044.019-.045.019-.044.019-.043.02-.043.021-.042.021-.041.021-.041.021-.04.022-.039.022-.039.023-.038.023-.038.023-.037.024-.037.024-.036.025-.036.025-.035.025-.035.026-.034.026-.033.027-.033.026-.033.027-.033.028-.031.028-.031.028-.032.03-.031.029-.029.029-.03.03-.029.03-.029.031-.029.031-.027.031-.028.032-.027.033-.027.033-.026.033-.026.033-.026.035-.026.034-.024.035-.025.035-.024.036-.024.037-.023.036-.023.038-.023.037-.022.038-.022.039-.022.039-.021.039-.02.04-.021.041-.02.04-.019.042-.019.041-.019.043-.018.042-.018.044-.017.043-.017.044-.017.045-.016.045-.016.045-.015.046-.015.047-.015.047-.014.047-.013.048-.013.048-.013.049-.012.049-.012.05-.011.05-.011.05-.01.05-.009.052-.01.052-.008.052-.009.052-.008.054-.007.053-.007.053-.006.054-.005.055-.006.055-.004.056-.004.055-.004.056-.003.057-.003.056-.001.057-.002.053L4 8.192v.042l.001.044.002.045.002.046.002.046.004.047.003.047.005.048.005.049.006.049.006.049.007.05.008.05.008.052.009.051.009.052.011.053.01.048.024.112.027.109.029.111.031.113.035.114.037.117.039.117.042.119.045.12.047.122.05.123.052.124.055.125.058.126.059.127.062.128.065.129.066.129.069.131.071.131.073.131.075.132.077.133.079.132.081.134.083.134.085.133.086.134.088.135.09.134.091.134.093.135.095.134.095.135.097.134.099.134.099.133.101.134.102.133.102.133.104.133.105.132.106.131.106.132.107.13.108.13.109.13.109.129.11.128.11.127.11.127.111.126.111.125.111.124.11.122.225.245.223.24.222.235.222.231.22.226.218.221.216.216.212.21.21.204.205.198.201.192.196.185.191.178.186.172.179.164.172.156.165.148.064.057.058-.051.165-.147.172-.155.179-.162.185-.17.191-.177.196-.183.201-.191.205-.196.209-.203.213-.208.215-.215.218-.219.22-.225.221-.229.222-.234.223-.238.225-.244.109-.121.112-.124.11-.124.111-.126.111-.126.11-.127.109-.127.109-.129.108-.128.108-.13.107-.13.107-.131.105-.131.105-.132.103-.132.103-.133.102-.133.1-.133.1-.133.098-.134.097-.134.095-.134.095-.135.092-.134.091-.134.09-.134.088-.135.086-.134.085-.134.083-.134.081-.133.079-.133.077-.133.075-.132.073-.132.071-.131.068-.131.067-.13.064-.129.062-.129.06-.127.057-.127.055-.126.052-.125.05-.123.047-.123.045-.122.042-.119.04-.119.037-.117.034-.116.032-.114.029-.113.027-.11.025-.114.01-.05.01-.053.009-.053.009-.052.009-.052.007-.052.007-.051.007-.051.006-.05.005-.049.004-.049.004-.049.004-.048.002-.047.002-.048.002-.046.001-.046V8.131l-.001-.058-.002-.057-.001-.057-.003-.057-.003-.056-.004-.056-.004-.056-.004-.055-.006-.055-.005-.054-.007-.054-.006-.054-.008-.054-.007-.052-.009-.053-.008-.052-.01-.051-.01-.052-.01-.05-.011-.051-.011-.05-.012-.049-.012-.049-.012-.049-.014-.048-.013-.048-.014-.047-.015-.047-.015-.047-.015-.045-.016-.046-.016-.045-.017-.045-.017-.044-.017-.043-.018-.043-.019-.043-.018-.042-.019-.042-.02-.041-.02-.041-.02-.041-.021-.039-.021-.04-.022-.039-.022-.039-.022-.038-.023-.038-.023-.037-.023-.036-.024-.037-.024-.036-.025-.036-.025-.034-.025-.035-.026-.034-.026-.034-.027-.033-.027-.033-.027-.033-.028-.032-.028-.031-.028-.031-.03-.031-.029-.03-.029-.03-.03-.03-.031-.029-.032-.029-.031-.028-.031-.028-.033-.028-.033-.028-.033-.026-.034-.027-.034-.026-.035-.025-.035-.026-.035-.025-.037-.024-.037-.025-.037-.024-.038-.023-.038-.023-.039-.023-.04-.022-.04-.022-.041-.022-.04-.02-.042-.021-.043-.021-.044-.02-.043-.019-.045-.019-.045-.019-.046-.018-.046-.018-.047-.018-.049-.017-.048-.016-.049-.016-.051-.016-.051-.015-.051-.014-.052-.014-.053-.014-.055-.013-.055-.013-.054-.012-.057-.011-.057-.011-.058-.01-.059-.01-.06-.009-.06-.009-.061-.008-.062-.007-.063-.007-.064-.006-.065-.005-.066-.005-.066-.004-.067-.003-.068-.002-.069-.002-.07-.001-.061-.001-.018.001h-.009l-.012.001-.011.001-.013.002-.016.003-.015.003-.018.004-.02.005-.021.006-.024.007-.025.008-.026.01-.028.011-.03.012-.032.014-.032.015-.034.016-.036.018-.036.019-.039.021-.039.023-.04.024-.042.025-.042.026-.043.029-.044.029-.045.031-.046.032-.047.034-.047.034-.044.034-.101.078-.099.079-.1.084-.103.087-.103.09-.105.093-.105.096-.104.096-.218.202-.218.205-.218.204-.114.105L12 7.415l-1.448-1.309-.114-.105-.218-.204-.218-.205-.218-.202-.104-.096-.105-.096-.105-.093-.103-.09-.103-.087-.1-.084-.099-.079-.101-.078-.044-.034-.047-.034-.047-.034-.046-.032-.045-.031-.044-.029-.043-.029-.042-.026-.042-.025-.04-.024-.039-.023-.039-.021-.036-.019-.036-.018-.034-.016-.032-.015-.032-.014-.03-.012-.028-.011-.026-.01-.025-.008-.024-.007-.021-.006-.02-.005-.018-.004-.015-.003-.016-.003-.013-.002-.011-.001-.012-.001h-.009l-.018-.001-.061.001z"/></svg>