<svg viewBox="0 0 24 24" xmlns="http://www.w3.org/2000/svg" fill-rule="evenodd" clip-rule="evenodd" stroke-linejoin="round" stroke-miterlimit="1.414"><g fill-rule="nonzero"><path d="M12.129 2.001a9.946 9.946 0 0 1 4.095.934 10.088 10.088 0 0 1 4.681 4.514 9.94 9.94 0 0 1 .916 2.659c.207 1.082.235 2.199.082 3.29a9.967 9.967 0 0 1-3.005 5.839A9.984 9.984 0 0 1 12 22a9.984 9.984 0 0 1-6.898-2.763 9.967 9.967 0 0 1-3.005-5.839 10.093 10.093 0 0 1 .082-3.29 9.94 9.94 0 0 1 .916-2.659 10.088 10.088 0 0 1 4.681-4.514 9.946 9.946 0 0 1 4.095-.934h.258zm-.233 2a7.912 7.912 0 0 0-3.273.746 8.082 8.082 0 0 0-3.704 3.528 7.943 7.943 0 0 0-.756 2.112 8.068 8.068 0 0 0-.085 2.733 7.955 7.955 0 0 0 2.404 4.67 8.055 8.055 0 0 0 2.496 1.619 8.006 8.006 0 0 0 10.944-6.289 8.068 8.068 0 0 0-.085-2.733 7.943 7.943 0 0 0-.756-2.112 8.082 8.082 0 0 0-3.704-3.528 7.912 7.912 0 0 0-3.273-.746h-.208zm.219 3.501a4.506 4.506 0 0 1 3.986 2.645 4.516 4.516 0 0 1 .347 2.536 4.485 4.485 0 0 1-1.343 2.574A4.514 4.514 0 0 1 12 16.5a4.508 4.508 0 0 1-3.105-1.243 4.485 4.485 0 0 1-1.343-3.94c.062-.403.179-.798.347-1.17a4.506 4.506 0 0 1 3.986-2.645c.115-.002.115-.002.23 0zm-.179 1.999a2.557 2.557 0 0 0-1.074.273 2.521 2.521 0 0 0-1.311 1.722 2.507 2.507 0 0 0 1.421 2.783 2.507 2.507 0 0 0 2.708-.429 2.51 2.51 0 0 0 .781-1.408c.044-.25.051-.508.019-.76a2.519 2.519 0 0 0-1.236-1.85 2.539 2.539 0 0 0-1.308-.331z"/><path d="M12.109 2.001a10 10 0 0 1 6.281 2.307l-4.793 5.769a3.165 3.165 0 0 0-.264-.191 2.58 2.58 0 0 0-.586-.272 2.513 2.513 0 0 0-2.344.463L5.61 4.308a10 10 0 0 1 6.281-2.307h.218zm-.196 2a8.17 8.17 0 0 0-1.721.206 8.227 8.227 0 0 0-1.548.531l-.055.026 2.374 2.858.162-.036a4.75 4.75 0 0 1 1.071-.082c.261.012.518.048.773.102l.068.016 2.374-2.858a8.223 8.223 0 0 0-1.856-.612 8.223 8.223 0 0 0-1.468-.151h-.174zM9.536 11.578a2.998 2.998 0 0 0-.034.325 2.512 2.512 0 0 0 .97 2.076c.202.155.424.275.662.366l-2.6 7.035a10.02 10.02 0 0 1-5.248-4.475 10.026 10.026 0 0 1-1.197-3.57 10.178 10.178 0 0 1 .055-3.023l7.392 1.266zm-5.503 1.147a8.025 8.025 0 0 0 1.948 4.545c.418.477.892.899 1.408 1.267l.05.035 1.288-3.484c-.057-.061-.057-.061-.112-.124a4.67 4.67 0 0 1-.56-.8 4.69 4.69 0 0 1-.345-.806l-.021-.067-3.661-.627.005.061zM21.874 10.42c.149.965.167 1.946.037 2.915a10.013 10.013 0 0 1-6.445 8.045l-2.6-7.035c.052-.02.102-.04.152-.062.049-.023.098-.046.147-.071a2.514 2.514 0 0 0 1.299-2.634l7.392-1.266.018.108zm-5.563 2.871l-.051.158c-.032.093-.032.092-.067.184-.098.243-.21.478-.346.702a4.868 4.868 0 0 1-.526.702l-.048.051 1.288 3.484a8.236 8.236 0 0 0 1.571-1.434 8.032 8.032 0 0 0 1.546-2.89c.137-.47.229-.951.281-1.437l.008-.086.005-.061-3.661.627z"/></g></svg>