<svg viewBox="0 0 24 24" xmlns="http://www.w3.org/2000/svg" fill-rule="evenodd" clip-rule="evenodd" stroke-linejoin="round" stroke-miterlimit="1.414"><path d="M13.066 2c.134.001.267.013.398.04.322.065.619.21.875.414a371.947 371.947 0 0 1 6.997 5.98c.107.099.205.206.29.325.233.327.357.713.373 1.114.047 3.388.043 6.778 0 10.166a2.085 2.085 0 0 1-.121.64 2.027 2.027 0 0 1-1.153 1.181 2.06 2.06 0 0 1-.686.139c-5.359.068-10.719.068-16.078 0a2.06 2.06 0 0 1-.686-.139 2.027 2.027 0 0 1-1.153-1.181 2.085 2.085 0 0 1-.121-.64 382.786 382.786 0 0 1 0-10.166 2.05 2.05 0 0 1 .373-1.114c.085-.119.183-.226.29-.325C4.98 6.399 7.287 4.349 9.696 2.426c.095-.072.194-.138.299-.193a2.07 2.07 0 0 1 .85-.231c.74-.025 1.48-.002 2.221-.002zM16 20.01a877.38 877.38 0 0 1 3.974-.01c.009 0 .016.002.022-.004.003-.002.004-.004.004-.007.042-3.349 0-6.699 0-10.048 0-.007.002-.017-.004-.023-2.222-2.062-4.609-3.939-6.914-5.908-.005-.004-.009-.009-.016-.01-.706-.024-1.414 0-2.12 0-.007 0-.013-.001-.019.002C8.517 5.84 6.319 7.94 4.015 9.909c-.005.005-.014.01-.015.018-.137 3.346 0 6.698 0 10.048 0 .01-.002.015.004.021.002.003.004.004.008.004 1.328.017 2.655.026 3.983.03-.007-2.03-.02-4.059.006-6.088.009-.233.051-.462.137-.679a2.01 2.01 0 0 1 1.17-1.142c.204-.075.417-.112.634-.12 1.355-.017 2.71-.001 4.064-.001.235.003.465.04.686.121a2.01 2.01 0 0 1 1.203 1.233c.07.207.102.422.105.64v6.016zM10.006 14H10v6h4v-6c-1.331-.016-2.663 0-3.994 0z"/></svg>