<svg viewBox="0 0 24 24" xmlns="http://www.w3.org/2000/svg" fill-rule="evenodd" clip-rule="evenodd" stroke-linejoin="round" stroke-miterlimit="1.414"><path d="M8.055 18.646c.22-2.975 1.903-5.292 3.945-5.292s3.725 2.317 3.945 5.292h-7.89zM13.945 8.695c-.108 1.467-.938 2.61-1.945 2.61-1.007 0-1.837-1.143-1.945-2.61h3.89z"/><path d="M18.743 2.001c.239.01.474.055.697.146a2.015 2.015 0 0 1 1.21 1.467c.046.236.047.475.011.713-.022.118-.049.235-.075.353-.333 1.451-.822 2.868-1.52 4.185a12.63 12.63 0 0 1-1.515 2.259c-.211.248-.433.484-.664.712l-.087.083-.086.081a11.27 11.27 0 0 1 .917.971 12.635 12.635 0 0 1 1.494 2.285c.546 1.059.96 2.184 1.261 3.336.089.342.166.686.237 1.032a2.032 2.032 0 0 1-.025.862 1.987 1.987 0 0 1-1.169 1.341 2.03 2.03 0 0 1-.687.145c-.492.007-.984.007-1.476.01-2.372.009-4.745.015-7.117.017L8.369 22c-1.037 0-2.074.013-3.112-.001a2.1 2.1 0 0 1-.797-.19 2.014 2.014 0 0 1-1.11-1.423 2.082 2.082 0 0 1-.011-.713c.022-.118.049-.235.075-.353.333-1.451.822-2.868 1.52-4.185a12.63 12.63 0 0 1 1.515-2.259c.211-.248.433-.484.664-.712l.087-.083.086-.081a11.27 11.27 0 0 1-.917-.971 12.635 12.635 0 0 1-1.494-2.285 16.228 16.228 0 0 1-1.261-3.336 20.272 20.272 0 0 1-.237-1.032 2.032 2.032 0 0 1 .025-.862 1.987 1.987 0 0 1 1.169-1.341c.22-.09.451-.135.687-.145.492-.007.984-.007 1.476-.01 1.755-.007 3.51-.011 5.266-.015L15.631 2c1.037 0 2.074-.013 3.112.001zM15.631 4c-3.208.002-6.417.004-9.626.023l-.658.004c.277 1.354.714 2.681 1.36 3.905.492.933 1.106 1.803 1.869 2.536l1.539 1.441v.183c-.536.501-1.078.997-1.607 1.506-.76.748-1.371 1.632-1.861 2.577-.624 1.204-1.052 2.501-1.334 3.825 1.014.099 2.037 0 3.055 0l3.629-.003c1.753-.004 3.506-.008 5.26-.015l.738-.005.658-.004a17.376 17.376 0 0 0-.344-1.384 13.79 13.79 0 0 0-1.07-2.624 9.901 9.901 0 0 0-1.747-2.367l-.068-.065-1.539-1.441v-.183c.536-.502 1.077-.998 1.607-1.507.092-.09.182-.182.27-.276 1.287-1.395 2.123-3.163 2.641-4.976.086-.301.162-.605.232-.91l.03-.133.022-.107c-1.018-.013-2.037 0-3.056 0z" fill-rule="nonzero"/></svg>