<svg viewBox="0 0 24 24" xmlns="http://www.w3.org/2000/svg" fill-rule="evenodd" clip-rule="evenodd" stroke-linejoin="round" stroke-miterlimit="1.414"><path d="M13 21v.024a.976.976 0 0 1-.976.976h-.048a.976.976 0 0 1-.976-.976V21h2zm1-2a.997.997 0 0 1 1 1 .997.997 0 0 1-1 1h-4a.997.997 0 0 1-1-1 .997.997 0 0 1 1-1h4zM12.09 2.001l.091.001.089.003.09.004.089.005.089.006.089.008.088.008.088.01.088.01.087.012.087.013.087.014.086.014.086.016.086.017.085.018.085.019.084.02.085.022.083.022.083.023.083.024.083.025.082.026.081.027.081.028.081.029.08.03.08.031.079.032.079.032.078.034.078.035.077.035.077.037.076.037.076.038.075.039.074.04.075.041.073.042.073.043.073.043.071.044.072.045.071.046.07.047.069.048.069.048.068.049.068.05.067.051.067.052.065.052.066.053.064.054.064.055.063.055.063.056.061.057.062.058.06.058.06.059.059.06.058.06.058.062.057.061.056.063.055.063.055.064.054.064.053.066.052.065.052.067.051.067.05.068.049.068.048.069.048.069.047.07.046.071.045.072.044.071.043.073.043.073.042.073.041.075.04.074.039.075.038.076.037.076.037.077.035.077.035.078.034.078.032.079.032.079.031.08.03.08.029.081.028.081.027.081.026.082.025.083.024.083.023.083.022.083.022.085.02.084.019.085.018.085.017.086.016.086.014.086.014.087.013.087.012.087.01.088.01.088.008.088.008.089.006.089.005.089.004.09.003.089.001.091L19 9l-.001.131-.004.129-.006.13-.008.128-.011.129-.012.127-.016.127-.017.126-.02.125-.021.125-.024.123-.027.123-.028.123-.03.121-.033.121-.035.119-.036.119-.039.118-.041.117-.043.116-.044.115-.047.114-.049.113-.05.112-.053.111-.054.11-.056.109-.058.107-.06.107-.062.105-.063.104-.065.103-.067.102-.069.101-.07.099-.072.098-.074.097-.075.095-.077.094-.078.093-.08.091-.082.09-.083.088-.085.087-.086.086-.087.084-.089.082-.091.081-.091.08-.094.077-.094.077-.096.074-.097.073-.099.072-.099.069-.101.068-.103.066-.103.065-.105.063-.105.061-.107.059-.109.057-.109.056-.11.053v.691l-.001.05-.001.049-.003.049-.005.049-.005.048-.007.048-.008.048-.008.048-.011.048-.011.047-.012.047-.014.046-.014.047-.016.045-.017.046-.018.045-.019.044-.02.044-.021.044-.023.043-.023.042-.024.042-.026.041-.026.041-.028.04-.028.04-.03.038-.03.039-.032.037-.032.037-.034.036-.034.035-.035.034-.036.034-.037.032-.037.032-.039.03-.038.03-.04.028-.04.028-.041.026-.041.026-.042.024-.042.023-.043.023-.044.021-.044.02-.044.019-.045.018-.046.017-.045.016-.047.014-.046.014-.047.012-.047.011-.048.011-.048.008-.048.008-.048.007-.048.005-.049.005-.049.003-.049.001-.049.001h-2.034l-.049-.001-.049-.001-.049-.003-.049-.005-.048-.005-.048-.007-.048-.008-.048-.008-.048-.011-.047-.011-.047-.012-.046-.014-.047-.014-.045-.016-.046-.017-.045-.018-.044-.019-.044-.02-.044-.021-.043-.023-.042-.023-.042-.024-.041-.026-.041-.026-.04-.028-.04-.028-.038-.03-.039-.03-.037-.032-.037-.032-.036-.034-.035-.034-.034-.035-.034-.036-.032-.037-.032-.037-.03-.039-.03-.038-.028-.04-.028-.04-.026-.041-.026-.041-.024-.042-.023-.042-.023-.043-.021-.044-.02-.044-.019-.044-.018-.045-.017-.046-.016-.045-.014-.047-.014-.046-.012-.047-.011-.047-.011-.048-.008-.048-.008-.048-.007-.048-.005-.048-.005-.049-.003-.049-.001-.049-.001-.05v-.691l-.11-.053-.109-.056-.109-.057-.107-.059-.105-.061-.105-.063-.103-.065-.103-.066-.101-.068-.099-.069-.099-.072-.097-.073-.096-.074-.094-.077-.094-.077-.091-.08-.091-.081-.089-.082-.087-.084-.086-.086-.085-.087-.083-.088-.082-.09-.08-.091-.078-.093-.077-.094-.075-.095-.074-.097-.072-.098-.07-.099-.069-.101-.067-.102-.065-.103-.063-.104-.062-.105-.06-.107-.058-.107-.056-.109-.054-.11-.053-.111-.05-.112-.049-.113-.047-.114-.044-.115-.043-.116-.041-.117-.039-.118-.036-.119-.035-.119-.033-.121-.03-.121-.028-.123-.027-.123-.024-.123-.021-.125-.02-.125-.017-.126-.016-.127-.012-.127-.011-.129-.008-.128-.006-.13-.004-.129L5 9l.001-.09.001-.091.003-.089.004-.09.005-.089.006-.089.008-.089.008-.088.01-.088.01-.088.012-.087.013-.087.014-.087.014-.086.016-.086.017-.086.018-.085.019-.085.02-.084.022-.085.022-.083.023-.083.024-.083.025-.083.026-.082.027-.081.028-.081.029-.081.03-.08.031-.08.032-.079.032-.079.034-.078.035-.078.035-.077.037-.077.037-.076.038-.076.039-.075.04-.074.041-.075.042-.073.043-.073.043-.073.044-.071.045-.072.046-.071.047-.07.048-.069.048-.069.049-.068.05-.068.051-.067.052-.067.052-.065.053-.066.054-.064.055-.064.055-.063.056-.063.057-.061.058-.062.058-.06.059-.06.06-.059.06-.058.062-.058.061-.057.063-.056.063-.055.064-.055.064-.054.066-.053.065-.052.067-.052.067-.051.068-.05.068-.049.069-.048.069-.048.07-.047.071-.046.072-.045.071-.044.073-.043.073-.043.073-.042.075-.041.074-.04.075-.039.076-.038.076-.037.077-.037.077-.035.078-.035.078-.034.079-.032.079-.032.08-.031.08-.03.081-.029.081-.028.081-.027.082-.026.083-.025.083-.024.083-.023.083-.022.085-.022.084-.02.085-.019.085-.018.086-.017.086-.016.086-.014.087-.014.087-.013.087-.012.088-.01.088-.01.088-.008.089-.008.089-.006.089-.005.09-.004.089-.003.091-.001L12 2l.09.001zM11.935 4l-.066.002-.064.002-.063.003-.065.003-.064.005-.062.005-.063.006-.064.007-.062.007-.063.009-.063.009-.061.01-.061.01-.062.012-.061.012-.06.012-.06.014-.062.015-.06.015-.058.015-.06.017-.058.017-.059.017-.059.019-.057.019-.058.02-.058.021-.056.021-.058.022-.056.023-.057.024-.055.023-.055.025-.056.026-.054.025-.054.027-.055.027-.053.028-.054.029-.052.029-.052.029-.053.031-.052.031-.051.032-.051.032-.05.032-.051.034-.05.034-.049.035-.049.035-.048.036-.048.036-.047.037-.048.038-.047.038-.046.039-.046.039-.044.039-.045.04-.045.041-.044.042-.043.042-.042.041-.043.043-.042.044-.041.043-.041.045-.04.044-.04.046-.039.046-.038.045-.038.047-.038.048-.037.047-.036.048-.036.048-.035.049-.035.049-.034.05-.033.051-.033.05-.032.051-.032.051-.031.052-.03.052-.03.053-.029.052-.029.054-.028.054-.027.054-.027.054-.025.054-.026.056L7.416 7l-.024.056-.023.056-.023.057-.022.056-.021.057-.021.058-.02.057-.019.058-.018.059-.018.059-.017.059-.017.059-.016.059-.015.06-.014.06-.013.06-.013.061-.012.061-.012.062-.01.061-.01.062-.009.062-.009.062-.007.063-.007.063-.006.063-.005.064-.005.063-.003.064-.003.065-.002.064L7 8.935v.062l.001.097.003.093.004.093.006.092.007.092.009.091.011.09.013.09.014.09.015.088.017.089.019.088.02.086.022.087.023.086.025.085.026.085.027.083.029.084.031.082.032.082.033.082.035.08.036.08.037.079.039.078.04.078.042.077.042.076.044.075.046.075.046.073.048.073.049.072.05.071.052.07.052.069.054.068.056.068.056.066.057.065.058.065.06.063.061.062.061.062.063.06.064.059.064.058.066.057.067.056.067.054.069.054.069.052.071.051.071.05.072.048.074.048.074.046.074.045.076.043.076.042.078.041.078.04.093.046.099.051.097.057.092.063.089.067.086.073.081.077.076.081.072.086.067.089.062.093.057.097.051.099.046.102.039.105.034.106.028.109.022.109.016.111.009.112.003.111V16h2v-.675l.003-.111.009-.112.016-.111.022-.109.028-.109.034-.106.039-.105.046-.102.051-.099.057-.097.062-.093.067-.089.072-.086.076-.081.081-.077.086-.073.089-.067.092-.063.097-.057.099-.051.093-.046.078-.04.078-.041.076-.042.076-.043.074-.045.074-.046.074-.048.072-.048.071-.05.071-.051.069-.052.069-.054.067-.054.067-.056.066-.057.064-.058.064-.059.063-.06.061-.062.061-.062.06-.063.058-.065.057-.065.056-.066.056-.068.054-.068.052-.069.052-.07.05-.071.049-.072.048-.073.046-.073.046-.075.044-.075.042-.076.042-.077.04-.078.039-.078.037-.079.036-.08.035-.08.033-.082.032-.082.031-.083.029-.083.027-.083.026-.085.025-.085.023-.086.022-.086.02-.087.019-.088.017-.089.015-.088.014-.09.013-.09.011-.09.009-.091.007-.092.006-.092.004-.093.003-.093.001-.097v-.062l-.002-.065-.002-.064-.003-.065-.003-.064-.005-.063-.005-.064-.006-.063-.007-.063-.007-.062-.009-.063-.009-.062-.01-.062-.01-.061-.012-.062-.012-.061-.013-.061-.013-.06-.014-.059-.015-.061-.016-.059-.016-.059-.018-.06-.018-.058-.018-.059-.019-.057-.02-.058-.021-.058-.021-.057-.022-.056-.023-.057-.023-.056L16.584 7l-.025-.055-.025-.056-.026-.054-.027-.054-.027-.054-.028-.054-.029-.054-.029-.052-.03-.053-.03-.052-.031-.052-.032-.051-.032-.051-.033-.05-.033-.051-.034-.05-.035-.049-.035-.049-.036-.048-.036-.048-.037-.047-.038-.048-.038-.047-.038-.045-.039-.046-.04-.046-.04-.044-.041-.045-.041-.043-.042-.044-.043-.043-.042-.041-.043-.042-.044-.042-.045-.041-.045-.04-.044-.039-.046-.039-.046-.039-.047-.038-.048-.038-.047-.037-.048-.036-.048-.036-.049-.035-.049-.035-.05-.034-.051-.034-.05-.032-.051-.032-.051-.032-.052-.031-.053-.031-.052-.029-.052-.029-.054-.029-.053-.028-.055-.027-.054-.027-.054-.025-.056-.026L14 4.416l-.055-.023-.057-.024-.056-.023-.058-.022-.056-.021-.058-.021-.058-.02-.057-.019-.059-.019-.059-.017-.058-.017-.06-.017-.058-.015-.06-.015-.062-.015-.06-.014-.06-.012-.061-.012-.062-.012-.061-.01-.061-.01-.063-.009-.063-.009-.062-.007-.064-.007-.063-.006-.062-.005-.064-.005-.065-.003-.063-.003-.064-.002L12.065 4h-.13z"/></svg>