<svg viewBox="0 0 24 24" xmlns="http://www.w3.org/2000/svg" fill-rule="evenodd" clip-rule="evenodd" stroke-linejoin="round" stroke-miterlimit="1.414"><path d="M13.417 12.004c.075.008.148.02.22.043.201.064.366.189.496.352.937 1.324 1.8 2.697 2.699 4.046.111.177.174.374.168.584a1.011 1.011 0 0 1-.806.952.992.992 0 0 1-.703-.12 1.06 1.06 0 0 1-.323-.306l-1.835-2.752-1.834 2.752c-.033.046-.033.046-.068.089a1.06 1.06 0 0 1-.305.244 1.006 1.006 0 0 1-1.291-.333l-.502-.752-.501.752c-.032.045-.032.045-.067.089-.126.142-.279.25-.46.308a1.006 1.006 0 0 1-1.257-.647 1.02 1.02 0 0 1-.045-.388c.013-.152.062-.292.135-.424.436-.695.908-1.365 1.363-2.048a1.08 1.08 0 0 1 .276-.276 1.008 1.008 0 0 1 1.112 0c.111.074.2.168.276.276l.502.752 1.834-2.752c.033-.046.032-.045.068-.089a1.13 1.13 0 0 1 .162-.155 1.04 1.04 0 0 1 .686-.197z" fill-rule="nonzero"/><circle cx="9.25" cy="10.81" r="2"/><path d="M15.017 2L17 4l3 2.978v13.021l-.001.05-.001.049-.004.05-.004.049-.005.049-.007.049-.008.048-.009.048-.01.048-.011.048-.013.047-.013.047-.015.047-.016.046-.017.046-.018.045-.02.045-.02.044-.021.044-.023.043-.023.043-.025.042-.025.042-.027.041-.028.041-.029.04-.029.039-.031.038-.032.038-.033.037-.033.036-.035.036-.036.035-.036.033-.037.033-.038.032-.038.031-.039.029-.04.029-.041.028-.041.027-.042.025-.042.025-.043.023-.043.023-.044.021-.044.02-.045.02-.045.018-.046.017-.046.016-.047.015-.047.013-.047.013-.048.011-.048.01-.048.009-.048.008-.049.007-.049.005-.049.004-.05.004-.049.001-.05.001H6.02l-.05-.001-.05-.001-.05-.004-.05-.004-.049-.005-.049-.007-.049-.008-.049-.009-.048-.01-.049-.012-.047-.013-.048-.013-.047-.015-.046-.016-.046-.017-.046-.019-.045-.019-.045-.021-.045-.021-.043-.023-.044-.024-.042-.025-.042-.025-.042-.027-.041-.028-.04-.029-.039-.03-.039-.031-.038-.032-.038-.034-.037-.034-.035-.035-.035-.035-.034-.037-.034-.038-.032-.038-.031-.039-.03-.039-.029-.04-.028-.041-.027-.042-.025-.042-.025-.042-.024-.044-.023-.043-.021-.045-.021-.045-.019-.045-.019-.046-.017-.046-.016-.046-.015-.047-.013-.048-.013-.047-.012-.049-.01-.048-.009-.049-.008-.049-.007-.049-.005-.049-.004-.05-.004-.05-.001-.05L4 19.98V3.969l.001-.049.001-.049.003-.048.005-.048.005-.049.007-.048.007-.047.009-.048.01-.047.011-.047.013-.046.013-.047.015-.045.015-.046.017-.045.018-.044.019-.045.02-.043.021-.043.022-.043L4.255 3l.024-.042.026-.041.026-.04.027-.04.028-.039.03-.039.03-.038.031-.037.032-.036.034-.036.034-.035.035-.034.035-.034.037-.032.037-.031.038-.03.039-.03.039-.028.04-.027.04-.026.041-.026L5 2.255l.042-.023.043-.022.043-.021.043-.02.045-.019.044-.018.045-.017.046-.015.045-.015.047-.013.046-.013.047-.011.047-.01.048-.009.047-.007.048-.007.049-.005.048-.005.048-.003.049-.001L5.969 2h9.048zM6 4v15.968l.001.017.002.006.007.006.007.003H18V10h-6V4H6zm8 4h4l-4-4v4z"/></svg>