<svg viewBox="0 0 24 24" xmlns="http://www.w3.org/2000/svg" fill-rule="evenodd" clip-rule="evenodd" stroke-linejoin="round" stroke-miterlimit="1.414"><path d="M11.319 16.638c-.945.548-1.894 1.09-2.846 1.624a3.795 3.795 0 0 1-1.606.459 3.821 3.821 0 0 1-3.412-5.909 3.817 3.817 0 0 1 1.201-1.161 227.052 227.052 0 0 1 4.809-2.777 3.852 3.852 0 0 1 1.606-.459 3.82 3.82 0 0 1 3.945 2.971l-1.927 1.112a1.829 1.829 0 0 0-1.371-2.038 1.824 1.824 0 0 0-1.295.17c-1.569.881-3.117 1.799-4.675 2.699a1.816 1.816 0 0 0 .958 3.397 1.86 1.86 0 0 0 .77-.199c.964-.51 1.91-1.055 2.849-1.609l.994 1.72z"/><path d="M12.681 6.998c.945-.548 1.894-1.089 2.846-1.624a3.852 3.852 0 0 1 1.606-.459 3.816 3.816 0 0 1 3.806 2.5 3.821 3.821 0 0 1-.394 3.409 3.822 3.822 0 0 1-1.201 1.161 218.687 218.687 0 0 1-4.809 2.777 3.795 3.795 0 0 1-1.606.459 3.821 3.821 0 0 1-3.874-2.703l1.836-1.06a1.802 1.802 0 0 0 .512 1.216c.354.366.857.569 1.366.552.269-.009.528-.079.769-.199 1.62-.857 3.188-1.811 4.763-2.748a1.825 1.825 0 0 0 .841-1.877A1.829 1.829 0 0 0 17.78 6.96a1.824 1.824 0 0 0-1.295.17c-.938.527-1.869 1.067-2.799 1.608l-1.005-1.74z"/></svg>