<svg viewBox="0 0 24 24" xmlns="http://www.w3.org/2000/svg" fill-rule="evenodd" clip-rule="evenodd" stroke-linejoin="round" stroke-miterlimit="1.414"><path d="M20.339 2.213c.799 0 1.449.632 1.449 1.411v16.752c0 .78-.65 1.413-1.449 1.413H3.657c-.798 0-1.445-.633-1.445-1.413V3.624c0-.779.647-1.411 1.445-1.411h16.682zM8.018 18.894V9.552H5.114v9.342h2.904zm10.875 0V13.77c0-2.516-.543-4.451-3.483-4.451-1.412 0-2.36.775-2.747 1.509h-.039V9.552H9.839v9.342h2.901v-4.621c0-1.219.232-2.399 1.743-2.399 1.489 0 1.509 1.393 1.509 2.477v4.543h2.901zM6.567 4.908a1.683 1.683 0 1 1-.003 3.367 1.683 1.683 0 0 1 .003-3.367z"/><path fill="none" d="M0 0h24v24H0z"/></svg>