<svg viewBox="0 0 24 24" xmlns="http://www.w3.org/2000/svg" fill-rule="evenodd" clip-rule="evenodd" stroke-linejoin="round" stroke-miterlimit="1.414"><path d="M18.052 9.001c.234.009.463.052.681.138.527.208.951.642 1.146 1.174.075.204.112.418.12.635.039 3.035.039 6.069 0 9.104a2.053 2.053 0 0 1-.12.635 2.021 2.021 0 0 1-1.146 1.174 2.061 2.061 0 0 1-.681.138 478.8 478.8 0 0 1-12.104 0 2.061 2.061 0 0 1-.681-.138 2.021 2.021 0 0 1-1.146-1.174 2.053 2.053 0 0 1-.12-.635 354.215 354.215 0 0 1 0-9.104c.008-.217.045-.431.12-.635a2.021 2.021 0 0 1 1.146-1.174c.218-.086.447-.129.681-.138a478.8 478.8 0 0 1 12.104 0zM6.013 11c-.005 0-.01-.002-.013 0-.003.003 0 .009 0 .013v8.974c0 .004-.003.01 0 .013.003.002.008 0 .013 0h11.974c.005 0 .01.002.013 0 .003-.003 0-.009 0-.013v-8.974c0-.004.003-.01 0-.013-.003-.002-.008 0-.013 0H6.013z" fill-rule="nonzero"/><path d="M12.077 2l.078.002.077.002.077.003.076.003.076.005.076.005.076.006.076.007.075.007.075.009.074.009.075.01.074.01.073.012.074.012.073.013.072.013.073.014.072.016.071.015.072.017.071.017.07.018.071.019.07.019.069.02.069.021.069.021.068.022.068.023.068.023.067.024.066.025.066.025.066.026.066.027.065.027.064.028.064.029.063.029.064.03.062.03.062.031.062.032.061.032.061.033.06.033.059.034.059.035.059.035.058.036.057.036.057.037.057.037.056.038.055.039.055.039.054.039.053.041.053.04.053.041.052.042.051.042.05.043.05.043.05.044.049.044.048.044.047.046.047.045.046.046.046.047.045.047.044.047.043.048.043.049.042.048.042.05.041.049.04.05.039.051.039.051.038.051.037.052.037.052.035.053.035.053.035.053.033.054.033.054.032.054.031.055.031.055.029.056.029.056.028.056.028.056.026.057.026.058.025.057.024.058.023.058.022.059.022.059.02.059.02.059.019.06.018.06.017.06.017.061.015.061.015.061.013.061.013.062.012.062.011.062.01.063.009.062.008.063.007.063.006.064.006.063.004.064.004.064.002.064.002.064V11H6V6.935l.002-.064.002-.064.004-.064.004-.064.006-.063.006-.064.007-.063.008-.063.009-.062.01-.063.011-.062.012-.062.013-.062.013-.061.015-.061.015-.061.017-.061.017-.06.018-.06.019-.06.02-.059.02-.059.022-.059.022-.059.023-.058.024-.058.025-.057.026-.058.026-.057.028-.056.028-.056.029-.056.029-.056.031-.055.031-.055.032-.054.033-.054.033-.054.035-.053.035-.053.035-.053.037-.052.037-.052.038-.051.039-.051.039-.051.04-.05.041-.049.042-.05.042-.048.043-.049.043-.048.044-.047.045-.047.046-.047.046-.046.047-.045.047-.046.048-.044.049-.044.05-.044.05-.043.05-.043.051-.042.052-.042.053-.041.053-.04.053-.041.054-.039.055-.039.055-.039.056-.038.057-.037.057-.037.057-.036.058-.036.059-.035.059-.035.059-.034.06-.033.061-.033.061-.032.062-.032.062-.031.062-.03.064-.03.063-.029.064-.029.064-.028.065-.027.066-.027.066-.026.066-.025.066-.025.067-.024.068-.023.068-.023.068-.022.069-.021.069-.021.069-.02.07-.019.071-.019.07-.018.071-.017.072-.017.071-.015.072-.016.073-.014.072-.013.073-.013.074-.012.073-.012.074-.01.075-.01.074-.009.075-.009.075-.007.076-.007.076-.006.076-.005.076-.005.076-.003.077-.003.077-.002.078-.002h.154zm-.133 2l-.056.001-.056.002-.056.002-.055.002-.056.004-.055.003-.054.005-.054.005-.055.005-.053.006-.054.007-.054.007-.052.007-.054.009-.052.008-.052.009-.052.01-.052.01-.051.011-.051.011-.051.012-.051.012-.048.013-.051.013-.05.014-.048.014-.049.014-.049.016-.048.015-.047.016-.047.016-.047.017-.047.017-.046.018-.045.018-.046.019-.046.019-.044.019-.044.02-.043.02-.043.02-.044.021-.043.022-.041.021-.042.022-.042.023-.041.022-.039.023-.04.023-.04.024-.039.024-.039.024-.037.025-.039.025-.036.025-.037.026-.036.026-.036.026-.035.026-.034.026-.035.027-.034.028-.033.027-.032.027-.032.028-.032.028-.03.028-.032.029-.03.028-.029.028-.029.03-.029.029-.027.029-.028.029-.027.031-.027.029-.025.03-.025.03-.025.03-.025.031-.023.029-.023.031-.023.031-.022.031-.022.03-.021.031-.02.031-.02.031-.019.031-.019.031-.019.032-.018.031-.017.032-.017.031-.016.031-.016.032-.015.031-.015.032-.014.032-.013.031-.014.032-.012.032-.013.032-.011.031-.011.033-.011.032-.01.032-.01.032-.009.032-.009.032-.008.032-.007.033-.008.032-.006.032-.007.033-.005.033-.006.033-.004.032-.005.033-.003.033-.004.034-.003.033-.002.033-.002.034-.001.034L8 6.966V9h8V6.966l-.001-.034-.001-.034-.002-.034-.002-.033-.003-.033-.004-.034-.003-.033-.005-.033-.004-.032-.006-.033-.005-.033-.007-.033-.006-.032-.008-.032-.007-.033-.008-.032-.009-.032-.009-.032-.01-.032-.01-.032-.011-.032-.011-.033-.011-.031-.013-.032-.012-.032-.014-.032-.013-.031-.014-.032-.015-.032-.015-.031-.016-.032-.016-.031-.017-.031-.017-.032-.018-.031-.019-.032-.019-.031-.019-.031-.02-.031-.02-.031-.021-.031-.022-.03-.022-.031-.023-.031-.023-.031-.023-.029-.025-.031-.025-.03-.025-.03-.025-.03-.027-.029-.027-.031-.028-.029-.027-.029-.029-.029-.029-.03-.029-.028-.03-.028-.032-.029-.03-.028-.032-.028-.032-.028-.032-.027-.033-.027-.034-.028-.035-.027-.034-.026-.035-.026-.036-.026-.036-.026-.037-.026-.036-.025-.039-.025-.037-.025-.039-.024-.039-.024-.04-.024-.04-.023-.039-.023-.041-.022-.042-.023-.042-.022-.041-.021-.043-.022-.044-.021-.043-.02-.043-.02-.044-.02-.044-.019-.046-.019-.046-.019-.045-.018-.046-.018-.047-.017-.047-.017-.047-.016-.047-.016-.048-.015-.049-.016-.049-.014-.048-.014-.05-.014-.051-.013-.048-.013-.051-.012-.051-.012-.051-.011-.051-.011-.052-.01-.052-.01-.052-.009-.052-.008-.054-.009-.052-.007-.054-.007-.054-.007-.053-.006-.055-.005-.054-.005-.054-.005-.055-.003-.056-.004-.055-.002-.056-.002-.056-.002L12.056 4h-.112z"/><circle cx="12" cy="16" r="2"/></svg>