<svg viewBox="0 0 24 24" xmlns="http://www.w3.org/2000/svg" fill-rule="evenodd" clip-rule="evenodd" stroke-linejoin="round" stroke-miterlimit="1.414"><path d="M4.969 7c.008-1.021.019-2.042.032-3.063.008-.216.045-.429.12-.632.193-.529.614-.96 1.138-1.167.217-.086.445-.129.678-.137 4.042-.052 8.084-.052 12.126 0 .233.008.461.051.678.137.524.207.945.638 1.138 1.167.075.203.112.416.12.632.068 5.375.068 10.751 0 16.126a2.018 2.018 0 0 1-.137.678 2.004 2.004 0 0 1-1.167 1.138 2.034 2.034 0 0 1-.632.12c-4.042.052-8.084.052-12.126 0a2.034 2.034 0 0 1-.632-.12 2.004 2.004 0 0 1-1.167-1.138 2.018 2.018 0 0 1-.137-.678A625.568 625.568 0 0 1 4.969 17h2c.008 1 .018 2 .031 3 4 .049 8 .049 12 0 .068-5.333.068-10.667 0-16-3.999-.049-8 0-11.999 0H7c-.013 1-.023 2-.031 3h-2z"/><path fill-rule="nonzero" d="M3 11h7.5v2H3z"/><path d="M14 12l-5 4V8l5 4z"/></svg>