<svg viewBox="0 0 24 24" xmlns="http://www.w3.org/2000/svg" fill-rule="evenodd" clip-rule="evenodd" stroke-linejoin="round" stroke-miterlimit="1.414"><path d="M19.05 7a625.562 625.562 0 0 0-.031-3.063 2.034 2.034 0 0 0-.12-.632 2.009 2.009 0 0 0-1.139-1.167 2.018 2.018 0 0 0-.678-.137 471.223 471.223 0 0 0-12.125 0 2.018 2.018 0 0 0-.678.137A2.009 2.009 0 0 0 3.14 3.305a2.093 2.093 0 0 0-.12.632 637.398 637.398 0 0 0 0 16.126c.009.233.052.461.138.678a2 2 0 0 0 1.166 1.138c.204.075.416.112.633.12 4.041.052 8.084.052 12.125 0a2.04 2.04 0 0 0 .633-.12c.529-.193.96-.614 1.167-1.138.085-.217.128-.445.137-.678.013-1.021.023-2.042.031-3.063h-1.999c-.008 1-.019 2-.031 3-4 .049-8.001.049-12 0a618.383 618.383 0 0 1 0-16c3.999-.049 7.999 0 11.999 0h.001c.012 1 .023 2 .031 3h1.999z"/><path fill-rule="nonzero" d="M10 11h7.5v2H10z"/><path d="M21 12l-5 4V8l5 4z"/></svg>