<svg viewBox="0 0 24 24" xmlns="http://www.w3.org/2000/svg" fill-rule="evenodd" clip-rule="evenodd" stroke-linejoin="round" stroke-miterlimit="1.414"><g fill-rule="nonzero"><path d="M12.129 1.001a10.022 10.022 0 0 1 3.308.606 10.049 10.049 0 0 1 5.955 5.956 9.96 9.96 0 0 1 .607 3.308l.001.126V22h-6V10.982c0-.059.003-.119.002-.179a5.805 5.805 0 0 0-.012-.262c-.08-.953-.403-1.933-1.115-2.602a3.001 3.001 0 0 0-.31-.253C13.825 7.159 12.89 7 12 7c-.89 0-1.825.159-2.565.686a3.001 3.001 0 0 0-.31.253c-.581.546-.906 1.307-1.047 2.081-.058.316-.089.64-.078.962V22H2c0-3.71-.023-7.419.001-11.129a9.966 9.966 0 0 1 2.762-6.769 10.049 10.049 0 0 1 3.8-2.495 10.022 10.022 0 0 1 3.308-.606h.258zm.145 4.003c.261.01.521.027.78.06a6.446 6.446 0 0 1 1.582.4c.415.167.809.384 1.168.65.228.169.441.357.637.563 1.062 1.116 1.551 2.682 1.562 4.202l-.001.089-.002.05V20h2c0-3.035.019-6.069-.001-9.104a7.996 7.996 0 0 0-.554-2.828 8.07 8.07 0 0 0-2.816-3.592 8.01 8.01 0 0 0-2.345-1.145 8.033 8.033 0 0 0-5.306.26A8.043 8.043 0 0 0 4.707 7.71 7.942 7.942 0 0 0 4 11.003V20h2v-8.982c0-.084-.003-.167-.002-.251.038-1.309.408-2.634 1.213-3.683A4.92 4.92 0 0 1 8.356 6a5.328 5.328 0 0 1 1.214-.614 6.718 6.718 0 0 1 1.629-.35c.266-.025.533-.034.801-.036l.274.004z"/><path d="M3 16h4v2H3zM17 16h4v2h-4z"/></g></svg>