<svg viewBox="0 0 24 24" xmlns="http://www.w3.org/2000/svg" fill-rule="evenodd" clip-rule="evenodd" stroke-linejoin="round" stroke-miterlimit="1.414"><g fill-rule="nonzero"><path d="M20.052 4.001c.217.008.431.045.635.12.532.195.966.619 1.174 1.146.086.218.129.447.138.681a478.8 478.8 0 0 1 0 12.104 2.061 2.061 0 0 1-.138.681 2.021 2.021 0 0 1-1.174 1.146 2.053 2.053 0 0 1-.635.12 635.66 635.66 0 0 1-16.104 0 2.053 2.053 0 0 1-.635-.12 2.021 2.021 0 0 1-1.174-1.146 2.061 2.061 0 0 1-.138-.681 478.8 478.8 0 0 1 0-12.104c.009-.234.052-.463.138-.681a2.021 2.021 0 0 1 1.174-1.146c.204-.075.418-.112.635-.12a635.66 635.66 0 0 1 16.104 0zM4.012 6C4.008 6 4.003 5.998 4 6c-.002.003 0 .009 0 .013v11.974c0 .004-.002.01 0 .013.003.002.008 0 .012 0h15.976c.004 0 .009.002.012 0 .002-.003 0-.009 0-.013V6.013c0-.004.002-.01 0-.013-.003-.002-.008 0-.012 0H4.012z"/><path d="M18.555 8.832L12 13.207 5.445 8.832l1.11-1.664L12 10.802l5.445-3.634 1.11 1.664z"/></g></svg>