<svg viewBox="0 0 24 24" xmlns="http://www.w3.org/2000/svg" fill-rule="evenodd" clip-rule="evenodd" stroke-linejoin="round" stroke-miterlimit="1.414"><path d="M20.052 2.01l.051.002.051.003.05.005.051.006.049.007.05.008.049.009.048.011.049.011.047.013.047.014.047.016.046.016.046.017.045.019.045.019.044.021.043.021.043.023.042.024.042.024.041.026.04.026.039.028.039.028.038.029.038.03.037.031.035.032.036.033.034.034.033.034.033.035.032.036.031.037.03.037.029.038.029.039.027.04.027.04.025.041.025.041.023.042.023.043.022.044.02.044.02.044.018.045.018.046.016.046.015.047.014.047.013.048.012.048.01.049.01.049.008.049.007.05.006.05.004.051.003.051.002.051.001.051v12l-.001.052-.002.051-.003.051-.004.051-.006.05-.007.05-.008.049-.01.049-.01.049-.012.048-.013.048-.014.047-.015.047-.016.046-.018.046-.018.045-.02.044-.02.044-.022.044-.023.042-.023.043-.025.041-.025.041-.027.04-.027.04-.029.039-.029.038-.03.037-.031.037-.032.036-.033.035-.033.034-.034.034-.036.033-.035.032-.037.031-.038.03-.038.029-.039.028-.039.028-.04.026-.041.026-.042.024-.042.024-.043.023-.043.021-.044.021-.045.019-.045.019-.046.017-.046.016-.047.015-.047.015-.047.012-.049.012-.048.011-.049.009-.05.008-.049.007-.051.006-.05.005-.051.003-.051.002H13L5 22v-3.991H3.948l-.051-.002-.051-.003-.05-.005-.051-.006-.049-.007-.05-.008-.049-.009-.048-.011-.049-.012-.047-.012-.047-.015-.047-.015-.046-.016-.046-.017-.045-.019-.045-.019-.044-.021-.043-.021-.043-.023-.042-.024-.042-.024-.041-.026-.04-.026-.039-.028-.039-.028-.038-.029-.038-.03-.037-.031-.035-.032-.036-.033-.034-.034-.033-.034-.033-.035-.032-.036-.031-.037-.03-.037-.029-.038-.029-.039-.027-.04-.027-.04-.025-.041-.025-.041-.023-.043-.023-.042-.022-.044-.02-.044-.02-.044-.018-.045-.018-.046-.016-.046-.015-.047-.014-.047-.013-.048-.012-.048-.01-.049-.01-.049-.008-.049-.007-.05-.006-.05-.004-.051-.003-.051-.002-.051L2 16.009v-12l.001-.051.002-.051.003-.051.004-.051.006-.05.007-.05.008-.049.01-.049.01-.049.012-.048.013-.048.014-.047.015-.047.016-.046.018-.046.018-.045.02-.044.02-.044.022-.044.023-.043.023-.042.025-.041.025-.041.027-.04.027-.04.029-.039.029-.038.03-.037.031-.037.032-.036.033-.035.033-.034.034-.034.036-.033.035-.032.037-.031.038-.03.038-.029.039-.028.039-.028.04-.026.041-.026.042-.024.042-.024.043-.023.043-.021.044-.021.045-.019.045-.019.046-.017.046-.016.047-.016.047-.014.047-.013.049-.011.048-.011.049-.009.05-.008.049-.007.051-.006.05-.005.051-.003.051-.002L4 2.009h16l.052.001zm-16.04 2H4v11.999h.001l.012.001H7v2.757l5.529-2.758H20V4.01h-.001l-.011-.001H4.012z"/><path d="M6 6h12v2H6zM6 9h12v2H6zM6 12h8v2H6z"/></svg>