<svg viewBox="0 0 24 24" xmlns="http://www.w3.org/2000/svg" fill-rule="evenodd" clip-rule="evenodd" stroke-linejoin="round" stroke-miterlimit="1.414"><path d="M3.005 7.871c.015-.202.056-.4.129-.589a2.02 2.02 0 0 1 1.194-1.165c.201-.072.411-.108.625-.116a602.745 602.745 0 0 1 15.094 0c.214.008.424.044.625.116a2.02 2.02 0 0 1 1.194 1.165 2.05 2.05 0 0 1 .133.666v.01A.589.589 0 0 1 22 8v.003c.037 2.998.037 5.996 0 8.994V17l-.001.042v.011l-.004.072c-.013.187-.049.37-.112.547a2.02 2.02 0 0 1-1.165 1.194 2.054 2.054 0 0 1-.671.133c-5.031.063-10.063.063-15.094 0a2.054 2.054 0 0 1-.671-.133 2.02 2.02 0 0 1-1.165-1.194 2.048 2.048 0 0 1-.112-.547l-.004-.072v-.011L3 17v-.003a364.392 364.392 0 0 1 0-8.994V8l.001-.042v-.01l.004-.077zm14.003-.037c-2.997-.083-6.004.052-9.009.125A.561.561 0 0 1 8 8c0 1.104-1.12 2-2.5 2-.197 0-.389-.018-.574-.053-.028 1.697.023 3.397.054 5.096.168-.028.342-.043.52-.043 1.38 0 2.5.896 2.5 2l-.002.073c3 .037 6.001-.023 9.002-.055V17c0-1.104 1.12-2 2.5-2 .187 0 .369.016.544.048.017-1.696-.013-3.393-.032-5.09A3.168 3.168 0 0 1 19.5 10c-1.38 0-2.5-.896-2.5-2 0-.056.003-.111.008-.166zM12.5 9c1.38 0 2.5 1.568 2.5 3.5S13.88 16 12.5 16 10 14.432 10 12.5 11.12 9 12.5 9z"/></svg>