<svg viewBox="0 0 24 24" xmlns="http://www.w3.org/2000/svg" fill-rule="evenodd" clip-rule="evenodd" stroke-linejoin="round" stroke-miterlimit="1.414"><path d="M6.103 11.001l.103.004.102.007.101.009.1.011.1.014.099.017.098.018.097.022.096.023.096.026.094.028.093.03.093.033.091.035.09.037.09.039.088.041.086.043.086.045.084.047.083.049.082.052.081.053.079.054.078.057.076.059.075.06.073.062.072.064.07.065.069.067.067.069.065.07.064.072.062.073.06.075.059.076.057.078.054.079.053.081.052.082.049.083.047.084.045.086.043.086.041.088.039.09.037.09.035.091.033.093.03.093.028.094.026.096.023.096.022.097.018.098.017.099.014.1.011.1.009.101.007.102.004.103L10 15l-.001.103-.004.103-.007.102-.009.101-.011.1-.014.1-.017.099-.018.098-.022.097-.023.096-.026.096-.028.094-.03.093-.033.093-.035.091-.037.09-.039.09-.041.088-.043.086-.045.086-.047.084-.049.083-.052.082-.053.081-.054.079-.057.078-.059.076-.06.075-.062.073-.064.072-.065.07-.067.069-.069.067-.07.065-.072.064-.073.062-.075.06-.076.059-.078.057-.079.054-.081.053-.082.052-.083.049-.084.047-.086.045-.086.043-.088.041-.09.039-.09.037-.091.035-.093.033-.093.03-.094.028-.096.026-.096.023-.097.022-.098.018-.099.017-.1.014-.1.011-.101.009-.102.007-.103.004L6 19l-.103-.001-.103-.004-.102-.007-.101-.009-.1-.011-.1-.014-.099-.017-.098-.018-.097-.022-.096-.023-.096-.026-.094-.028-.093-.03-.093-.033-.091-.035-.09-.037-.09-.039-.088-.041-.086-.043-.086-.045-.084-.047-.083-.049-.082-.052-.081-.053-.079-.054-.078-.057-.076-.059-.075-.06-.073-.062-.072-.064-.07-.065-.069-.067-.067-.069-.065-.07-.064-.072-.062-.073-.06-.075-.059-.076-.057-.078-.054-.079-.053-.081-.052-.082-.049-.083-.047-.084-.045-.086-.043-.086-.041-.088-.039-.09-.037-.09-.035-.091-.033-.093-.03-.093-.028-.094-.026-.096-.023-.096-.022-.097-.018-.098-.017-.099-.014-.1-.011-.1-.009-.101-.007-.102-.004-.103L2 15l.001-.103.004-.103.007-.102.009-.101.011-.1.014-.1.017-.099.018-.098.022-.097.023-.096.026-.096.028-.094.03-.093.033-.093.035-.091.037-.09.039-.09.041-.088.043-.086.045-.086.047-.084.049-.083.052-.082.053-.081.054-.079.057-.078.059-.076.06-.075.062-.073.064-.072.065-.07.067-.069.069-.067.07-.065.072-.064.073-.062.075-.06.076-.059.078-.057.079-.054.081-.053.082-.052.083-.049.084-.047.086-.045.086-.043.088-.041.09-.039.09-.037.091-.035.093-.033.093-.03.094-.028.096-.026.096-.023.097-.022.098-.018.099-.017.1-.014.1-.011.101-.009.102-.007.103-.004L6 11l.103.001zm-.156 2l-.051.002-.052.003-.05.005-.051.005-.049.007-.049.008-.049.01-.049.01-.047.012-.047.013-.047.014-.046.015-.047.016-.045.017-.045.018-.044.02-.044.021-.043.021-.042.022-.043.024-.041.025-.041.025-.041.027-.039.027-.04.029-.038.029-.038.031-.036.03-.037.033-.035.033-.034.033-.034.035-.033.036-.032.035-.031.037-.031.038-.029.038-.029.04-.028.039-.026.041-.025.04-.025.042-.024.042-.022.043-.022.043-.02.044-.02.045-.018.044-.017.045-.016.046-.015.046-.014.048-.013.047-.012.047-.01.049-.01.048-.008.049-.007.05-.005.051-.005.051-.003.051-.002.051L4 15l.001.053.002.051.003.051.005.051.005.051.007.05.008.049.01.048.01.049.012.047.013.047.014.048.015.046.016.046.017.045.018.044.02.045.02.044.022.043.022.043.024.042.025.042.025.04.026.041.028.039.029.04.029.038.031.038.031.037.032.035.033.036.034.035.034.033.035.033.037.033.036.03.038.031.038.029.04.029.039.027.041.027.041.025.041.025.043.024.042.022.043.021.044.021.044.02.045.018.045.017.047.016.046.015.047.014.047.013.047.012.049.01.049.01.049.008.049.007.051.005.05.005.052.003.051.002L6 17l.053-.001.051-.002.052-.003.05-.005.051-.005.049-.007.049-.008.049-.01.049-.01.047-.012.047-.013.047-.014.046-.015.047-.016.045-.017.045-.018.044-.02.044-.021.043-.021.042-.022.043-.024.041-.025.041-.025.041-.027.039-.027.04-.029.038-.029.038-.031.036-.03.037-.033.035-.033.034-.033.034-.035.033-.036.032-.035.031-.037.031-.038.029-.038.029-.04.028-.039.026-.041.025-.04.025-.042.024-.042.022-.043.022-.043.02-.044.02-.045.018-.044.017-.045.016-.046.015-.046.014-.048.013-.047.012-.047.01-.049.01-.048.008-.049.007-.05.005-.051.005-.051.003-.051.002-.051L8 15l-.001-.053-.002-.051-.003-.051-.005-.051-.005-.051-.007-.05-.008-.049-.01-.048-.01-.049-.012-.047-.013-.047-.014-.048-.015-.046-.016-.046-.017-.045-.018-.044-.02-.045-.02-.044-.022-.043-.022-.043-.024-.042-.025-.042-.025-.04-.026-.041-.028-.039-.029-.04-.029-.038-.031-.038-.031-.037-.032-.035-.033-.036-.034-.035-.034-.033-.035-.033-.037-.033-.036-.03-.038-.031-.038-.029-.04-.029-.039-.027-.041-.027-.041-.025-.041-.025-.043-.024-.042-.022-.043-.021-.044-.021-.044-.02-.045-.018-.045-.017-.047-.016-.046-.015-.047-.014-.047-.013-.047-.012-.049-.01-.049-.01-.049-.008-.049-.007-.051-.005-.05-.005-.052-.003-.051-.002L6 13l-.053.001zM18.103 11.001l.103.004.102.007.101.009.1.011.1.014.099.017.098.018.097.022.096.023.096.026.094.028.093.03.093.033.091.035.09.037.09.039.088.041.086.043.086.045.084.047.083.049.082.052.081.053.079.054.078.057.076.059.075.06.073.062.072.064.07.065.069.067.067.069.065.07.064.072.062.073.06.075.059.076.057.078.054.079.053.081.052.082.049.083.047.084.045.086.043.086.041.088.039.09.037.09.035.091.033.093.03.093.028.094.026.096.023.096.022.097.018.098.017.099.014.1.011.1.009.101.007.102.004.103L22 15l-.001.103-.004.103-.007.102-.009.101-.011.1-.014.1-.017.099-.018.098-.022.097-.023.096-.026.096-.028.094-.03.093-.033.093-.035.091-.037.09-.039.09-.041.088-.043.086-.045.086-.047.084-.049.083-.052.082-.053.081-.054.079-.057.078-.059.076-.06.075-.062.073-.064.072-.065.07-.067.069-.069.067-.07.065-.072.064-.073.062-.075.06-.076.059-.078.057-.079.054-.081.053-.082.052-.083.049-.084.047-.086.045-.086.043-.088.041-.09.039-.09.037-.091.035-.093.033-.093.03-.094.028-.096.026-.096.023-.097.022-.098.018-.099.017-.1.014-.1.011-.101.009-.102.007-.103.004L18 19l-.103-.001-.103-.004-.102-.007-.101-.009-.1-.011-.1-.014-.099-.017-.098-.018-.097-.022-.096-.023-.096-.026-.094-.028-.093-.03-.093-.033-.091-.035-.09-.037-.09-.039-.088-.041-.086-.043-.086-.045-.084-.047-.083-.049-.082-.052-.081-.053-.079-.054-.078-.057-.076-.059-.075-.06-.073-.062-.072-.064-.07-.065-.069-.067-.067-.069-.065-.07-.064-.072-.062-.073-.06-.075-.059-.076-.057-.078-.054-.079-.053-.081-.052-.082-.049-.083-.047-.084-.045-.086-.043-.086-.041-.088-.039-.09-.037-.09-.035-.091-.033-.093-.03-.093-.028-.094-.026-.096-.023-.096-.022-.097-.018-.098-.017-.099-.014-.1-.011-.1-.009-.101-.007-.102-.004-.103L14 15l.001-.103.004-.103.007-.102.009-.101.011-.1.014-.1.017-.099.018-.098.022-.097.023-.096.026-.096.028-.094.03-.093.033-.093.035-.091.037-.09.039-.09.041-.088.043-.086.045-.086.047-.084.049-.083.052-.082.053-.081.054-.079.057-.078.059-.076.06-.075.062-.073.064-.072.065-.07.067-.069.069-.067.07-.065.072-.064.073-.062.075-.06.076-.059.078-.057.079-.054.081-.053.082-.052.083-.049.084-.047.086-.045.086-.043.088-.041.09-.039.09-.037.091-.035.093-.033.093-.03.094-.028.096-.026.096-.023.097-.022.098-.018.099-.017.1-.014.1-.011.101-.009.102-.007.103-.004L18 11l.103.001zm-.156 2l-.051.002-.052.003-.05.005-.051.005-.049.007-.049.008-.049.01-.049.01-.047.012-.047.013-.047.014-.046.015-.047.016-.045.017-.045.018-.044.02-.044.021-.043.021-.042.022-.043.024-.041.025-.041.025-.041.027-.039.027-.04.029-.038.029-.038.031-.036.03-.037.033-.035.033-.034.033-.034.035-.033.036-.032.035-.031.037-.031.038-.029.038-.029.04-.028.039-.026.041-.025.04-.025.042-.024.042-.022.043-.022.043-.02.044-.02.045-.018.044-.017.045-.016.046-.015.046-.014.048-.013.047-.012.047-.01.049-.01.048-.008.049-.007.05-.005.051-.005.051-.003.051-.002.051L16 15l.001.053.002.051.003.051.005.051.005.051.007.05.008.049.01.048.01.049.012.047.013.047.014.048.015.046.016.046.017.045.018.044.02.045.02.044.022.043.022.043.024.042.025.042.025.04.026.041.028.039.029.04.029.038.031.038.031.037.032.035.033.036.034.035.034.033.035.033.037.033.036.03.038.031.038.029.04.029.039.027.041.027.041.025.041.025.043.024.042.022.043.021.044.021.044.02.045.018.045.017.047.016.046.015.047.014.047.013.047.012.049.01.049.01.049.008.049.007.051.005.05.005.052.003.051.002L18 17l.053-.001.051-.002.052-.003.05-.005.051-.005.049-.007.049-.008.049-.01.049-.01.047-.012.047-.013.047-.014.046-.015.047-.016.045-.017.045-.018.044-.02.044-.021.043-.021.042-.022.043-.024.041-.025.041-.025.041-.027.039-.027.04-.029.038-.029.038-.031.036-.03.037-.033.035-.033.034-.033.034-.035.033-.036.032-.035.031-.037.031-.038.029-.038.029-.04.028-.039.026-.041.025-.04.025-.042.024-.042.022-.043.022-.043.02-.044.02-.045.018-.044.017-.045.016-.046.015-.046.014-.048.013-.047.012-.047.01-.049.01-.048.008-.049.007-.05.005-.051.005-.051.003-.051.002-.051L20 15l-.001-.053-.002-.051-.003-.051-.005-.051-.005-.051-.007-.05-.008-.049-.01-.048-.01-.049-.012-.047-.013-.047-.014-.048-.015-.046-.016-.046-.017-.045-.018-.044-.02-.045-.02-.044-.022-.043-.022-.043-.024-.042-.025-.042-.025-.04-.026-.041-.028-.039-.029-.04-.029-.038-.031-.038-.031-.037-.032-.035-.033-.036-.034-.035-.034-.033-.035-.033-.037-.033-.036-.03-.038-.031-.038-.029-.04-.029-.039-.027-.041-.027-.041-.025-.041-.025-.043-.024-.042-.022-.043-.021-.044-.021-.044-.02-.045-.018-.045-.017-.047-.016-.046-.015-.047-.014-.047-.013-.047-.012-.049-.01-.049-.01-.049-.008-.049-.007-.051-.005-.05-.005-.052-.003-.051-.002L18 13l-.053.001z"/><path d="M16.009 8l-.018 2-4.957-.045a5.483 5.483 0 0 1 .396.459c.257.334.485.688.678 1.063.465.907.724 1.909.833 2.919.058.541.072 1.085.059 1.629l-2-.05c.004-.15.006-.299.005-.449a14.679 14.679 0 0 0-.013-.421 7.808 7.808 0 0 0-.289-1.771 5.391 5.391 0 0 0-.501-1.175 4.508 4.508 0 0 0-1.935-1.789 5.532 5.532 0 0 0-1.288-.438l-.077-.016-1.394-.256.168-1.754L16.009 8z" fill-rule="nonzero"/><path d="M17.949 11.684l-1.898.632-2-6 1.898-.632 2 6z" fill-rule="nonzero"/></svg>