<svg viewBox="0 0 24 24" xmlns="http://www.w3.org/2000/svg" fill-rule="evenodd" clip-rule="evenodd" stroke-linejoin="round" stroke-miterlimit="1.414"><path d="M19 4l.052.001.051.002.051.003.05.004.051.006.05.007.049.008.049.01.049.01.048.012.048.013.047.014.046.015.047.016.045.018.045.018.045.02.044.02.044.022.042.022.043.024.041.025.041.025.04.027.04.027.039.028.038.03.037.03.037.031.036.032.035.032.034.034.034.034.032.035.032.036.031.037.03.037.03.038.028.039.027.04.027.04.025.041.025.041.024.043.022.043.022.043.02.044.02.045.018.045.018.045.016.047.015.046.014.047.013.048.012.048.01.049.01.049.008.049.007.05.006.051.004.05.003.051.002.051L21 6v13l-.001.052-.002.051-.003.051-.004.05-.006.051-.007.05-.008.049-.01.049-.01.049-.012.048-.013.048-.014.047-.015.046-.016.047-.018.045-.018.045-.02.045-.02.044-.022.043-.022.043-.024.043-.025.041-.025.041-.027.04-.027.04-.028.039-.03.038-.03.037-.031.037-.032.036-.032.035-.034.034-.034.034-.035.032-.036.032-.037.031-.037.03-.038.03-.039.028-.04.027-.04.027-.041.025-.041.025-.043.024-.042.022-.044.022-.044.02-.045.02-.045.018-.045.018-.047.016-.046.015-.047.014-.048.013-.048.012-.049.01-.049.01-.049.008-.05.007-.051.006-.05.004-.051.003-.051.002L19 21H9l-.052-.001-.051-.002-.051-.003-.05-.004-.051-.006-.05-.007-.049-.008-.049-.01-.049-.01-.048-.012-.048-.013-.047-.014-.046-.015-.047-.016-.045-.018-.045-.018-.045-.02-.044-.02-.044-.022-.042-.022-.043-.024-.041-.025-.041-.025-.04-.027-.04-.027-.039-.028-.038-.03-.037-.03-.037-.031-.036-.032-.035-.032-.034-.034-.034-.034-.032-.035-.032-.036-.031-.037-.03-.037-.03-.038-.028-.039-.027-.04-.027-.04-.025-.041-.025-.041-.024-.043-.022-.043-.022-.043-.02-.044-.02-.045-.018-.045-.018-.045-.016-.047-.015-.046-.014-.047-.013-.048-.012-.048-.01-.049-.01-.049-.008-.049-.007-.05-.006-.051-.004-.05-.003-.051-.002-.051L7 19V6l.001-.052.002-.051.003-.051.004-.05.006-.051.007-.05.008-.049.01-.049.01-.049.012-.048.013-.048.014-.047.015-.046.016-.047.018-.045.018-.045.02-.045.02-.044.022-.043.022-.043.024-.043.025-.041.025-.041.027-.04.027-.04.028-.039.03-.038.03-.037.031-.037.032-.036.032-.035.034-.034.034-.034.035-.032.036-.032.037-.031.037-.03.038-.03.039-.028.04-.027.04-.027.041-.025.041-.025.043-.024.042-.022.044-.022.044-.02.045-.02.045-.018.045-.018.047-.016.046-.015.047-.014.048-.013.048-.012.049-.01.049-.01.049-.008.05-.007.051-.006.05-.004.051-.003.051-.002L9 4h10zM9.012 6H9V19H19V6H9.012z"/><path d="M8.012 8c-.104.001-.104.001-.208.005-.097.006-.096.006-.193.014a3.957 3.957 0 0 0-1.585.502A4.028 4.028 0 0 0 4.19 10.78a3.997 3.997 0 0 0 .053 2.596 4.038 4.038 0 0 0 2.219 2.317A4.054 4.054 0 0 0 8.006 16l-.012 2a6.072 6.072 0 0 1-2.063-.367 6.025 6.025 0 0 1-1.755-1.01 6.038 6.038 0 0 1-1.932-2.926 6.014 6.014 0 0 1 .172-3.894A6.011 6.011 0 0 1 7.988 6l.024 2z" fill-rule="nonzero"/><path d="M19 4l.052.001.051.002.051.003.05.004.051.006.05.007.049.008.049.01.049.01.048.012.048.013.047.014.046.015.047.016.045.018.045.018.045.02.044.02.044.022.042.022.043.024.041.025.041.025.04.027.04.027.039.028.038.03.037.03.037.031.036.032.035.032.034.034.034.034.032.035.032.036.031.037.03.037.03.038.028.039.027.04.027.04.025.041.025.041.024.043.022.043.022.043.02.044.02.045.018.045.018.045.016.047.015.046.014.047.013.048.012.048.01.049.01.049.008.049.007.05.006.051.004.05.003.051.002.051L21 6v13l-.001.052-.002.051-.003.051-.004.05-.006.051-.007.05-.008.049-.01.049-.01.049-.012.048-.013.048-.014.047-.015.046-.016.047-.018.045-.018.045-.02.045-.02.044-.022.043-.022.043-.024.043-.025.041-.025.041-.027.04-.027.04-.028.039-.03.038-.03.037-.031.037-.032.036-.032.035-.034.034-.034.034-.035.032-.036.032-.037.031-.037.03-.038.03-.039.028-.04.027-.04.027-.041.025-.041.025-.043.024-.042.022-.044.022-.044.02-.045.02-.045.018-.045.018-.047.016-.046.015-.047.014-.048.013-.048.012-.049.01-.049.01-.049.008-.05.007-.051.006-.05.004-.051.003-.051.002L19 21H9l-.05-.001-.049-.001-.05-.004-.049-.004-.049-.005-.048-.007-.049-.008-.048-.009-.048-.01-.048-.011-.047-.013-.047-.013-.046-.015-.046-.016-.046-.017-.045-.018-.045-.019-.045-.021-.043-.021-.044-.023-.043-.023-.042-.025-.042-.025-.041-.027-.04-.028-.04-.028-.039-.03-.039-.031-.037-.032-.037-.032-.037-.034-.035-.035-.035-.035-.034-.037-.032-.037-.032-.037-.031-.039-.03-.039-.028-.04-.028-.04-.027-.041-.025-.042-.025-.042-.023-.043-.023-.044-.021-.043-.021-.045-.019-.045-.018-.045-.017-.046-.016-.046-.015-.046-.013-.047-.013-.048-.011-.047-.01-.048-.009-.048-.008-.049-.007-.048-.005-.049-.004-.049-.004-.05-.001-.049L7 19V6l.001-.05.001-.049.004-.05.004-.049.005-.049.007-.048.008-.049.009-.048.01-.048.011-.047.013-.048.013-.047.015-.046.016-.046.017-.046.018-.045.019-.045.021-.045.021-.043.023-.044.023-.043.025-.042.025-.042.027-.041.028-.04.028-.04.03-.039.031-.039.032-.037.032-.037.034-.037.035-.035.035-.035.037-.034.037-.032.037-.032.039-.031.039-.03.04-.028.04-.028.041-.027.042-.025.042-.025.043-.023.044-.023.043-.021.045-.021.045-.019.045-.018.046-.017.046-.016.046-.015.047-.013.047-.013.048-.011.048-.01.048-.009.049-.008.048-.007.049-.005.049-.004.05-.004.049-.001L9 4h10zM9.013 6H9v13h10V6H9.013z"/></svg>