<svg viewBox="0 0 24 24" xmlns="http://www.w3.org/2000/svg" fill-rule="evenodd" clip-rule="evenodd" stroke-linejoin="round" stroke-miterlimit="1.414"><path d="M19.471 8.772c.256.257.506.522.748.793.512.572.996 1.17 1.437 1.799l.434.636c-.165.242-.328.487-.498.727a20.366 20.366 0 0 1-2.805 3.154c-.253.229-.511.451-.777.665-1.444 1.159-3.133 2.104-4.986 2.376a7.22 7.22 0 0 1-1.982.018 8.036 8.036 0 0 1-1.42-.32l1.666-1.665.105.013c.255.028.511.038.767.028 1.263-.048 2.463-.558 3.516-1.231a11.98 11.98 0 0 0 1.16-.843c.258-.209.508-.428.751-.654.316-.294.621-.601.914-.917.393-.423.764-.863 1.117-1.319l.025-.032a18.361 18.361 0 0 0-1.587-1.814l1.415-1.414zM4.498 15.259c-.352-.35-.69-.715-1.016-1.09a19.5 19.5 0 0 1-1.201-1.532L1.846 12c.166-.242.328-.487.498-.726a20.88 20.88 0 0 1 2.643-3.006c.891-.828 1.867-1.576 2.938-2.156a9.297 9.297 0 0 1 2.603-.968 7.958 7.958 0 0 1 1.172-.139c.134-.004.268-.005.402-.004.396.012.789.048 1.179.119.368.067.728.16 1.081.275l-1.657 1.658a5.836 5.836 0 0 0-.833-.052 5.593 5.593 0 0 0-.764.071 6.821 6.821 0 0 0-1.869.613c-.798.386-1.535.893-2.218 1.457a16.29 16.29 0 0 0-1.586 1.507c-.392.423-.764.864-1.117 1.319L4.294 12a18.498 18.498 0 0 0 1.618 1.846l-1.414 1.413zM19.071 3.515L3.515 19.071l1.414 1.414L20.485 4.929l-1.414-1.414z"/></svg>