<svg viewBox="0 0 24 24" xmlns="http://www.w3.org/2000/svg" fill-rule="evenodd" clip-rule="evenodd" stroke-linejoin="round" stroke-miterlimit="1.414"><path d="M8 16.241V7a1.008 1.008 0 0 1 .532-.884c.087-.046.177-.074.272-.097l10-2c.073-.011.073-.011.146-.018.074-.001.074-.001.147.004a1.007 1.007 0 0 1 .836.635c.045.117.062.236.067.36v11c-.325 1.141-1.808 2-3.5 2-1.932 0-3.5-1.12-3.5-2.5s1.568-2.5 3.5-2.5c.537 0 1.045.086 1.5.241V6.22l-8 1.6V19c-.325 1.141-1.808 2-3.5 2C4.568 21 3 19.88 3 18.5S4.568 16 6.5 16c.537 0 1.045.086 1.5.241z"/></svg>