<svg viewBox="0 0 24 24" xmlns="http://www.w3.org/2000/svg" fill-rule="evenodd" clip-rule="evenodd" stroke-linejoin="round" stroke-miterlimit="1.414"><path d="M12.103 5.001l.103.004.102.007.101.009.1.011.1.014.099.017.098.018.097.022.096.023.096.026.094.028.093.03.093.033.091.035.09.037.09.039.088.041.086.043.086.045.084.047.083.049.082.052.081.053.079.054.078.057.076.059.075.06.073.062.072.064.07.065.069.067.067.069.065.07.064.072.062.073.06.075.059.076.057.078.054.079.053.081.052.082.049.083.047.084.045.086.043.086.041.088.039.09.037.09.035.091.033.093.03.093.028.094.026.096.023.096.022.097.018.098.017.099.014.1.011.1.009.101.007.102.004.103L16 9l-.001.103-.004.103-.007.102-.009.101-.011.1-.014.1-.017.099-.018.098-.022.097-.023.096-.026.096-.028.094-.03.093-.033.093-.035.091-.037.09-.039.09-.041.088-.043.086-.045.086-.047.084-.049.083-.052.082-.053.081-.054.079-.057.078-.059.076-.06.075-.062.073-.064.072-.065.07-.067.069-.069.067-.07.065-.072.064-.073.062-.075.06-.076.059-.078.057-.079.054-.081.053-.082.052-.083.049-.084.047-.086.045-.086.043-.088.041-.09.039-.09.037-.091.035-.093.033-.093.03-.094.028-.096.026-.096.023-.097.022-.098.018-.099.017-.1.014-.1.011-.101.009-.102.007-.103.004L12 13l-.103-.001-.103-.004-.102-.007-.101-.009-.1-.011-.1-.014-.099-.017-.098-.018-.097-.022-.096-.023-.096-.026-.094-.028-.093-.03-.093-.033-.091-.035-.09-.037-.09-.039-.088-.041-.086-.043-.086-.045-.084-.047-.083-.049-.082-.052-.081-.053-.079-.054-.078-.057-.076-.059-.075-.06-.073-.062-.072-.064-.07-.065-.069-.067-.067-.069-.065-.07-.064-.072-.062-.073-.06-.075-.059-.076-.057-.078-.054-.079-.053-.081-.052-.082-.049-.083-.047-.084-.045-.086-.043-.086-.041-.088-.039-.09-.037-.09-.035-.091-.033-.093-.03-.093-.028-.094-.026-.096-.023-.096-.022-.097-.018-.098-.017-.099-.014-.1-.011-.1-.009-.101-.007-.102-.004-.103L8 9l.001-.103.004-.103.007-.102.009-.101.011-.1.014-.1.017-.099.018-.098.022-.097.023-.096.026-.096.028-.094.03-.093.033-.093.035-.091.037-.09.039-.09.041-.088.043-.086.045-.086.047-.084.049-.083.052-.082.053-.081.054-.079.057-.078.059-.076.06-.075.062-.073.064-.072.065-.07.067-.069.069-.067.07-.065.072-.064.073-.062.075-.06.076-.059.078-.057.079-.054.081-.053.082-.052.083-.049.084-.047.086-.045.086-.043.088-.041.09-.039.09-.037.091-.035.093-.033.093-.03.094-.028.096-.026.096-.023.097-.022.098-.018.099-.017.1-.014.1-.011.101-.009.102-.007.103-.004L12 5l.103.001zm-.156 2l-.051.002-.051.003-.051.005-.051.005-.05.007-.049.008-.048.01-.049.01-.047.012-.047.013-.048.014-.046.015-.046.016-.045.017-.044.018-.045.02-.044.02-.043.022-.043.022-.043.024-.041.025-.04.025-.041.026-.039.028-.04.029-.038.029-.038.03-.037.032-.035.032-.036.033-.035.034-.033.034-.033.035-.033.037-.03.036-.031.038-.029.038-.029.04-.027.039-.027.041-.025.041-.025.041-.024.042-.022.043-.022.043-.02.044-.019.044-.019.045-.017.045-.016.046-.015.047-.014.046-.013.048-.012.047-.01.049-.01.048-.008.05-.007.049-.005.05-.005.052-.003.051-.002.051L10 9l.001.053.002.051.003.051.005.052.005.05.007.049.008.05.01.048.01.049.012.047.013.048.014.046.015.047.016.046.017.045.019.045.019.044.02.044.022.043.022.043.024.042.025.041.025.041.027.041.027.039.029.04.029.038.031.038.03.036.033.037.033.035.033.034.035.034.036.033.035.032.037.032.038.03.038.029.04.029.039.028.041.026.04.025.041.025.043.024.043.022.043.022.044.02.045.02.044.018.045.017.046.016.046.015.048.014.047.013.047.012.049.01.048.01.049.008.05.007.051.005.051.005.051.003.051.002L12 11l.053-.001.051-.002.051-.003.051-.005.051-.005.05-.007.049-.008.048-.01.049-.01.047-.012.047-.013.048-.014.046-.015.046-.016.045-.017.044-.018.045-.02.044-.02.043-.022.043-.022.043-.024.041-.025.04-.025.041-.026.039-.028.04-.029.038-.029.038-.03.037-.032.035-.032.036-.033.035-.034.033-.034.033-.035.033-.037.03-.036.031-.038.029-.038.029-.04.027-.039.027-.041.025-.041.025-.041.024-.042.022-.043.022-.043.02-.044.019-.044.019-.045.017-.045.016-.046.015-.047.014-.046.013-.048.012-.047.01-.049.01-.048.008-.05.007-.049.005-.05.005-.052.003-.051.002-.051L14 9l-.001-.053-.002-.051-.003-.051-.005-.052-.005-.05-.007-.049-.008-.05-.01-.048-.01-.049-.012-.047-.013-.048-.014-.046-.015-.047-.016-.046-.017-.045-.019-.045-.019-.044-.02-.044-.022-.043-.022-.043-.024-.042-.025-.041-.025-.041-.027-.041-.027-.039-.029-.04-.029-.038-.031-.038-.03-.036-.033-.037-.033-.035-.033-.034-.035-.034-.036-.033-.035-.032-.037-.032-.038-.03-.038-.029-.04-.029-.039-.028-.041-.026-.04-.025-.041-.025-.043-.024-.043-.022-.043-.022-.044-.02-.045-.02-.044-.018-.045-.017-.046-.016-.046-.015-.048-.014-.047-.013-.047-.012-.049-.01-.048-.01-.049-.008-.05-.007-.051-.005-.051-.005-.051-.003-.051-.002L12 7l-.053.001z"/><circle cx="19.019" cy="11.5" r="2.5"/><circle cx="5.019" cy="11.5" r="2.5"/><path d="M15.991 15l.05.001.049.001.05.004.049.004.05.005.049.007.048.008.049.009.048.01.048.012.047.012.047.014.047.015.046.016.046.017.046.018.045.019.044.021.044.021.044.023.043.023.042.025.042.026.042.027.04.027.04.029.04.03.038.031.038.032.037.033.037.034.036.034.034.036.034.037.033.037.032.038.031.038.03.04.029.04.027.04.027.042.026.042.025.042.023.043.023.044.021.044.021.044.019.045.018.046.017.046.016.046.015.047.014.047.012.047.012.048.01.048.009.049.008.048.007.049.005.05.004.049.004.049.001.05.001.05V21H6v-4.009l.001-.05.001-.049.003-.049.005-.049.005-.049.007-.048.008-.049.009-.048.01-.047.011-.048.012-.047.014-.046.015-.047.016-.046.016-.045.019-.045.019-.045.02-.044.021-.044.022-.043.024-.042.024-.042.026-.042.026-.041.028-.04.029-.04.029-.039.031-.038.031-.038.033-.036.033-.037.035-.035.035-.035.037-.033.036-.033.038-.031.038-.031.039-.029.04-.029.04-.028.041-.026.042-.026.042-.024.042-.024.043-.022.044-.021.044-.02.045-.019.045-.019.045-.016.046-.016.047-.015.046-.014.047-.012.048-.011.047-.01.048-.009.049-.008.048-.007.049-.005.049-.005.049-.003.049-.001.05-.001h8zm-7.987 2H8v2h8V17.007l-.001-.001v-.001l-.001-.001v-.001h-.001l-.001-.001-.001-.001h-.001L15.993 17H8.004z"/><path d="M4.945 14.995l.122.007-.134 1.996a.955.955 0 0 0-.131-.002.411.411 0 0 0-.098.017c-.14.044-.23.18-.297.303a2.037 2.037 0 0 0-.103.224 2.885 2.885 0 0 0-.062.178 5.198 5.198 0 0 0-.185.958c-.048.438-.058.88-.057 1.321l-2 .006c-.001-.272.002-.543.014-.815.011-.244.029-.487.055-.73a8.49 8.49 0 0 1 .144-.887c.163-.725.458-1.456 1.019-1.965a2.315 2.315 0 0 1 .742-.457 2.52 2.52 0 0 1 .971-.154zM19.195 14.994c.256.008.509.045.753.127a2.306 2.306 0 0 1 .751.425c.604.509.917 1.271 1.087 2.024a8.49 8.49 0 0 1 .144.888c.027.243.044.487.055.73.013.272.015.544.014.815l-2-.006a16.653 16.653 0 0 0-.018-.848c-.01-.158-.022-.316-.039-.473a6.947 6.947 0 0 0-.107-.666 2.543 2.543 0 0 0-.262-.729c-.058-.1-.135-.211-.246-.257a.559.559 0 0 0-.26-.026l-.135-1.996a3.85 3.85 0 0 1 .263-.008z" fill-rule="nonzero"/></svg>