<svg viewBox="0 0 24 24" xmlns="http://www.w3.org/2000/svg" fill-rule="evenodd" clip-rule="evenodd" stroke-linejoin="round" stroke-miterlimit="1.414"><path d="M17.027 2c.227.003.451.039.665.116.551.197.995.641 1.192 1.192.072.199.108.406.115.616.067 5.384.067 10.768 0 16.152a1.985 1.985 0 0 1-1.262 1.792 2.019 2.019 0 0 1-.661.131c-3.384.042-6.768.042-10.152 0a1.985 1.985 0 0 1-1.792-1.262 2.019 2.019 0 0 1-.131-.661 648.998 648.998 0 0 1 0-16.152 1.985 1.985 0 0 1 1.262-1.792c.212-.082.434-.123.661-.131C10.292 1.959 13.659 2 17.027 2zM17 18H7v2h10v-2zM7 7v9h10V7H7zm10-2V4H7v1h10z"/></svg>