<svg viewBox="0 0 24 25" xmlns="http://www.w3.org/2000/svg" fill-rule="evenodd" clip-rule="evenodd" stroke-linejoin="round" stroke-miterlimit="1.414"><path d="M12 13l8.753 2.096-.024.095-.024.094-.025.094-.026.093-.027.093-.028.092-.029.092-.03.092-.031.091-.031.09-.033.09-.033.09-.035.089-.035.089-.036.088-.037.087-.038.087-.039.087-.04.086-.04.085-.041.085-.043.084-.043.084-.044.084-.044.082-.046.083-.046.081-.047.081-.048.081-.049.08-.049.079-.051.079-.051.078-.052.078-.052.077-.054.076-.054.076-.055.075-.055.074-.057.074-.057.074-.058.072-.058.072-.059.072-.06.07-.061.071-.061.069-.062.069-.063.068-.063.067-.064.067-.065.066-.065.065-.066.065-.067.064-.067.064-.068.062-.069.062-.069.061-.07.061-.07.059-.071.059-.072.059-.072.057-.073.057-.073.056-.074.055-.075.055-.075.054-.075.053-.077.052-.076.052-.078.05-.077.05-.079.049-.078.049-.08.047-.08.047-.08.046-.081.045-.081.044-.082.044-.082.043-.083.041-.083.041-.084.04-.084.04-.085.038-.085.038-.085.037-.086.035-.086.035-.087.035-.087.033-.088.032-.087.032-.089.03-.088.03-.09.029-.089.028-.09.026-.09.027-.091.025-.09.024-.092.023-.091.022-.092.022-.092.02-.093.02-.093.018-.093.018-.093.016-.094.016-.094.015-.095.013-.094.013-.095.012-.095.011-.096.009-.095.009-.096.008-.096.006-.097.006-.096.005-.097.003-.097.003-.098.001L12 22l-.116-.001-.116-.002-.116-.004-.115-.005-.115-.006-.114-.008-.114-.01-.114-.011-.113-.012-.113-.013-.112-.015-.112-.017-.111-.018-.111-.019-.111-.02-.11-.022-.109-.023-.109-.025-.109-.025-.108-.028-.108-.028-.107-.03-.106-.031-.106-.032-.105-.033-.105-.035-.105-.036-.103-.037-.103-.039-.103-.04-.102-.041-.101-.042-.1-.043-.1-.045-.1-.045-.098-.047-.098-.048-.098-.049-.096-.051-.096-.051-.096-.052-.094-.054-.094-.055-.093-.056-.093-.057-.091-.058-.091-.059-.091-.06-.089-.061-.089-.062-.087-.064-.087-.064-.087-.065-.085-.067-.085-.067-.083-.068-.083-.07-.082-.07-.082-.071-.08-.072-.08-.073-.078-.074-.078-.075-.077-.076-.076-.077-.075-.078-.074-.078-.073-.08-.072-.08-.071-.082-.07-.082-.07-.083-.068-.083-.067-.085-.067-.085-.065-.087-.064-.087-.064-.087-.062-.089-.061-.089-.06-.091-.059-.091-.058-.091-.057-.093-.056-.093-.055-.094-.054-.094-.052-.096-.051-.096-.051-.096-.049-.098-.048-.098-.047-.098-.045-.1-.045-.1-.043-.1-.042-.101-.041-.102-.04-.103-.039-.103-.037-.103-.036-.105-.035-.105-.033-.105-.032-.106-.031-.106-.03-.107-.028-.108-.028-.108-.025-.109-.025-.109-.023-.109-.022-.11-.02-.111-.019-.111-.018-.111-.017-.112-.015-.112-.013-.113-.012-.113-.011-.114-.01-.114-.008-.114-.006-.115-.005-.115-.004-.116-.002-.116L3 13l.001-.116.002-.116.004-.116.005-.115.006-.115.008-.114.01-.115.01-.113.013-.113.013-.113.015-.113.017-.112.017-.111.02-.111.02-.111.022-.11.023-.109.024-.11.026-.108.027-.108.029-.108.029-.107.031-.106.033-.106.033-.106.035-.105.036-.104.037-.104.039-.103.039-.102.041-.102.042-.101.044-.101.044-.1.046-.099.046-.099L3.935 9l.05-.097.05-.097.051-.096.053-.095.053-.095.055-.094.056-.093.057-.092.058-.092.059-.091.06-.09.061-.089.062-.089.064-.088.064-.087.065-.086.067-.085.067-.085.068-.084.069-.083.071-.082.071-.081.072-.08.073-.08.074-.078.075-.078.076-.077.077-.076.078-.075.078-.074.08-.073.08-.072.081-.071.082-.071.083-.069.084-.068.085-.067.085-.067.086-.065.087-.064.088-.064.089-.062.089-.061.09-.06.091-.059.092-.058.092-.057.093-.056.094-.055.095-.053.095-.053.096-.051.097-.05.097-.05.098-.048.099-.046.099-.046.1-.044.101-.044.101-.042.102-.041.102-.039.103-.039.104-.037.104-.036.105-.035.106-.033.106-.033.106-.031.107-.029.108-.029.108-.027.108-.026.11-.024.109-.023.11-.022.111-.02.111-.02.111-.017.112-.017.113-.015.113-.013.113-.013.113-.01.115-.01.114-.008.115-.006.115-.005.116-.004.116-.002L12 4v9zM9.918 6.314l-.083.027-.081.027-.08.027-.081.029-.08.03-.079.031-.079.032-.079.032-.078.034-.078.035-.077.035-.077.037-.076.037-.075.037-.075.04-.076.04-.074.041-.072.041-.074.043-.072.043-.072.045-.072.045-.07.045-.07.047-.07.048-.069.049-.069.049-.067.049-.067.051-.067.052-.066.053-.065.053-.064.054-.065.055-.062.055-.063.056-.062.057-.061.058-.061.058-.06.059-.059.06-.059.061-.057.061-.057.062-.056.062-.055.064-.055.064-.055.065-.053.065-.052.065-.051.067-.051.067-.051.068-.048.068-.049.069-.048.07-.046.07-.046.071-.046.071-.044.072-.043.072-.043.073-.042.074-.04.074-.04.074-.039.076-.038.075-.038.076-.036.077-.036.077-.034.078-.034.078-.032.079-.032.079-.031.079-.03.08-.029.081-.028.08-.026.082-.027.082-.025.082-.024.082-.023.084-.022.083-.021.084-.02.084-.019.085-.018.085-.017.085-.016.087-.014.086-.014.086-.013.087-.012.088-.01.088-.01.088-.008.088-.007.089-.007.09-.005.089-.004.09-.003.09-.001.091L5 13l.001.091.001.09.003.091.004.089.005.09.007.089.007.089.008.088.01.088.01.088.012.087.013.087.014.087.015.086.015.086.017.085.018.086.019.084.02.084.021.084.023.084.022.083.024.082.026.083.026.081.027.082.027.081.029.08.03.08.031.079.032.079.033.079.033.078.035.078.035.077.037.077.037.076.038.076.039.075.04.074.041.075.042.073.042.073.044.072.044.072.045.072.046.071.047.07.048.069.048.069.05.069.049.067.051.068.052.066.052.066.053.065.055.065.055.064.055.063.056.063.057.062.058.061.059.061.058.059.06.059.061.059.061.058.062.057.063.056.063.056.064.054.065.054.065.054.066.052.066.052.068.05.067.051.069.049.069.049.069.047.07.046.071.047.072.045.072.044.073.044.072.042.074.042.074.041.074.04.075.039.076.038.076.037.077.037.077.035.077.035.079.034.078.032.079.032.08.031.081.03.08.029.08.027.081.027.083.027.081.024.083.024.084.024.083.022.083.021.085.02.085.019.085.018.085.017.086.016.086.014.086.014.087.013.088.012.088.01.088.01.088.008.089.008.089.006.089.005.09.004.091.003.09.001L12 20h.077l.075-.002.075-.002.077-.003.074-.003.075-.005.075-.005.075-.006.074-.007.074-.007.075-.009.073-.009.074-.01.073-.01.073-.011.074-.013.072-.012.072-.014.073-.015.071-.015.072-.015.071-.017.072-.018.071-.018.069-.018.071-.02.07-.02.07-.021.07-.022.068-.022.069-.023.069-.024.069-.025.068-.025.067-.025.068-.027.067-.027.066-.028.067-.028.067-.03.065-.03.064-.03.067-.032.064-.031.064-.033.065-.033.063-.034.063-.034.063-.035.063-.036.062-.037.062-.037.061-.037.061-.038.06-.039.061-.04.06-.04.059-.04.059-.042.058-.042.058-.042.058-.043.057-.044.056-.044.056-.045.056-.045.055-.046.056-.047.054-.047.053-.047.054-.049.053-.049.052-.048.052-.051.052-.05.05-.05.05-.052.051-.052.049-.052.048-.053.049-.054.048-.054.047-.054.046-.056.046-.055.046-.056.045-.057.044-.056.044-.058.043-.058.043-.059.042-.059.042-.059.04-.059.041-.06.039-.062.04-.061.038-.061.038-.062.037-.063.025-.042L10 14.578V6.289l-.082.025z"/><path d="M14.339 3.1l.104.016.103.018.103.018.103.02.101.021.102.022.101.023.1.024.101.025.099.026.099.028.099.028.098.03.098.03.097.032.096.033.096.034.096.034.095.036.094.037.094.038.094.039.093.04.092.041.091.042.092.043.09.043.09.045.089.046.089.047.088.047.088.049.087.05.086.05.085.051.085.053.085.053.083.054.083.055.083.056.081.057.081.057.081.059.079.059.079.06.078.061.078.062.077.063.076.063.075.065.075.065.074.066.073.066.072.068.072.068.071.069.07.07.069.07.069.072.067.072.067.072.066.074.066.074.064.075.064.075.063.077.062.077.061.077.06.079.06.079.058.079.058.081.057.08.056.082.055.082.054.083.054.084.052.084.052.084.05.086.05.085.049.087.048.087.047.087.046.089.045.088.044.09.043.089.042.091.041.09.04.092.039.092.038.092.037.093.037.093.035.094.034.094.033.095.032.095.031.096.03.096.029.097.028.097.027.097.025.098.025.098.024.099.022.099.021.099.021.1.019.1.018.101.017.101.016.101.014.101.014.102.012.103.012.102.01.103.009.103.007.104.007.104.005.104.005.104.003.105.001.105L22 12l-.001.155-.004.155-.007.155-.009.154-.012.155-.015.154-.017.154-.02.153L13 12l1.235-8.915.104.015zm.917 7.193l4.664.647-.01-.066-.014-.079-.014-.078-.014-.078-.016-.077-.017-.078-.017-.076-.019-.077-.019-.076-.02-.076-.02-.076-.022-.075-.023-.076-.023-.074-.024-.074-.025-.074-.026-.074-.026-.073-.027-.073-.028-.072-.029-.073-.03-.071-.03-.072-.032-.071-.032-.07-.032-.07-.034-.07-.034-.07-.035-.068-.036-.069-.036-.068-.037-.068-.038-.067-.039-.066-.04-.067-.04-.066-.04-.065-.042-.066-.042-.064-.043-.064-.044-.064-.044-.063-.045-.062-.046-.062-.046-.062-.047-.06-.047-.061-.049-.06-.049-.059-.049-.059-.05-.058-.051-.058-.052-.058-.052-.056-.053-.056-.053-.056-.054-.054-.054-.054-.056-.055-.056-.053-.056-.052-.057-.052-.058-.052-.057-.05-.059-.05-.059-.049-.06-.049-.06-.048-.061-.048-.062-.047-.062-.046-.062-.045-.063-.045-.064-.044-.064-.044-.064-.043-.065-.042-.065-.041-.066-.04-.067-.04-.068-.04-.067-.038-.068-.038-.068-.037-.069-.036-.069-.036-.07-.035-.071-.034-.07-.033-.045-.021-.646 4.665z"/></svg>