<svg viewBox="0 0 24 24" xmlns="http://www.w3.org/2000/svg" fill-rule="evenodd" clip-rule="evenodd" stroke-linejoin="round" stroke-miterlimit="1.414"><path d="M12.129 2.001l.129.002.128.004.128.006.128.007.127.009.127.011.126.012.126.013.125.015.125.017.124.018.124.02.123.021.123.023.122.024.122.026.121.027.121.029.12.03.119.032.119.033.119.034.117.036.117.037.117.039.116.04.115.041.114.043.114.044.113.046.113.046.112.048.111.05.11.051.11.052.109.053.108.055.107.056.107.057.106.058.105.06.104.061.104.062.102.063.102.064.101.066.1.067.1.068.098.069.098.07.097.072.095.072.095.074.094.075.093.076.093.077.091.078.09.079.089.08.089.081.087.083.086.083.086.084.084.086.083.086.083.087.081.089.08.089.079.09.078.091.077.093.076.093.075.094.074.095.072.095.072.097.07.098.069.098.068.1.067.1.066.101.064.102.063.102.062.104.061.104.06.105.058.106.057.107.056.107.055.108.053.109.052.11.051.11.05.111.048.112.046.113.046.113.044.114.043.114.041.115.04.116.039.117.037.117.036.117.034.119.033.119.032.119.03.12.029.121.027.121.026.122.024.122.023.123.021.123.02.124.018.124.017.125.015.125.013.126.012.126.011.127.009.127.007.128.006.128.004.128.002.129L22 12l-.001.129-.002.129-.004.128-.006.128-.007.128-.009.127-.011.127-.012.126-.013.126-.015.125-.017.125-.018.124-.02.124-.021.123-.023.123-.024.122-.026.122-.027.121-.029.121-.03.12-.032.119-.033.119-.034.119-.036.117-.037.117-.039.117-.04.116-.041.115-.043.114-.044.114-.046.113-.046.113-.048.112-.05.111-.051.11-.052.11-.053.109-.055.108-.056.107-.057.107-.058.106-.06.105-.061.104-.062.104-.063.102-.064.102-.066.101-.067.1-.068.1-.069.098-.07.098-.072.097-.072.095-.074.095-.075.094-.076.093-.077.093-.078.091-.079.09-.08.089-.081.089-.083.087-.083.086-.084.086-.086.084-.086.083-.087.083-.089.081-.089.08-.09.079-.091.078-.093.077-.093.076-.094.075-.095.074-.095.072-.097.072-.098.07-.098.069-.1.068-.1.067-.101.066-.102.064-.102.063-.104.062-.104.061-.105.06-.106.058-.107.057-.107.056-.108.055-.109.053-.11.052-.11.051-.111.05-.112.048-.113.046-.113.046-.114.044-.114.043-.115.041-.116.04-.117.039-.117.037-.117.036-.119.034-.119.033-.119.032-.12.03-.121.029-.121.027-.122.026-.122.024-.123.023-.123.021-.124.02-.124.018-.125.017-.125.015-.126.013-.126.012-.127.011-.127.009-.128.007-.128.006-.128.004-.129.002L12 22l-.129-.001-.129-.002-.128-.004-.128-.006-.128-.007-.127-.009-.127-.011-.126-.012-.126-.013-.125-.015-.125-.017-.124-.018-.124-.02-.123-.021-.123-.023-.122-.024-.122-.026-.121-.027-.121-.029-.12-.03-.119-.032-.119-.033-.119-.034-.117-.036-.117-.037-.117-.039-.116-.04-.115-.041-.114-.043-.114-.044-.113-.046-.113-.046-.112-.048-.111-.05-.11-.051-.11-.052-.109-.053-.108-.055-.107-.056-.107-.057-.106-.058-.105-.06-.104-.061-.104-.062-.102-.063-.102-.064-.101-.066-.1-.067-.1-.068-.098-.069-.098-.07-.097-.072-.095-.072-.095-.074-.094-.075-.093-.076-.093-.077-.091-.078-.09-.079-.089-.08-.089-.081-.087-.083-.086-.083-.086-.084-.084-.086-.083-.086-.083-.087-.081-.089-.08-.089-.079-.09-.078-.091-.077-.093-.076-.093-.075-.094-.074-.095-.072-.095-.072-.097-.07-.098-.069-.098-.068-.1-.067-.1-.066-.101-.064-.102-.063-.102-.062-.104-.061-.104-.06-.105-.058-.106-.057-.107-.056-.107-.055-.108-.053-.109-.052-.11-.051-.11-.05-.111-.048-.112-.046-.113-.046-.113-.044-.114-.043-.114-.041-.115-.04-.116-.039-.117-.037-.117-.036-.117-.034-.119-.033-.119-.032-.119-.03-.12-.029-.121-.027-.121-.026-.122-.024-.122-.023-.123-.021-.123-.02-.124-.018-.124-.017-.125-.015-.125-.013-.126-.012-.126-.011-.127-.009-.127-.007-.128-.006-.128-.004-.128-.002-.129L2 12l.001-.129.002-.129.004-.128.006-.128.007-.128.009-.127.011-.127.012-.126.013-.126.015-.125.017-.125.018-.124.02-.124.021-.123.023-.123.024-.122.026-.122.027-.121.029-.121.03-.12.032-.119.033-.119.034-.119.036-.117.037-.117.039-.117.04-.116.041-.115.043-.114.044-.114.046-.113.046-.113.048-.112.05-.111.051-.11.052-.11.053-.109.055-.108.056-.107.057-.107.058-.106.06-.105.061-.104.062-.104.063-.102.064-.102.066-.101.067-.1.068-.1.069-.098.07-.098.072-.097.072-.095.074-.095.075-.094.076-.093.077-.093.078-.091.079-.09.08-.089.081-.089.083-.087.083-.086.084-.086.086-.084.086-.083.087-.083.089-.081.089-.08.09-.079.091-.078.093-.077.093-.076.094-.075.095-.074.095-.072.097-.072.098-.07.098-.069.1-.068.1-.067.101-.066.102-.064.102-.063.104-.062.104-.061.105-.06.106-.058.107-.057.107-.056.108-.055.109-.053.11-.052.11-.051.111-.05.112-.048.113-.046.113-.046.114-.044.114-.043.115-.041.116-.04.117-.039.117-.037.117-.036.119-.034.119-.033.119-.032.12-.03.121-.029.121-.027.122-.026.122-.024.123-.023.123-.021.124-.02.124-.018.125-.017.125-.015.126-.013.126-.012.127-.011.127-.009.128-.007.128-.006.128-.004.129-.002L12 2l.129.001zm-.233 2l-.103.002-.103.003-.103.004-.102.006-.102.007-.101.009-.102.009-.1.011-.101.012-.099.014-.099.014-.1.016-.098.017-.098.018-.098.02-.097.02-.097.022-.096.023-.096.024-.096.025-.095.026-.094.028-.094.029-.093.029-.093.031-.093.032-.092.033-.091.034-.091.036-.09.036-.09.037-.09.039-.088.039-.088.041-.088.041-.087.043-.086.043-.087.045-.085.046-.084.046-.084.048-.085.049-.082.05-.082.05-.081.052-.081.052-.081.054-.079.054-.079.056-.078.056-.078.057-.076.058-.076.059-.076.061-.074.06-.074.062-.073.062-.072.064-.072.064-.071.066-.07.065-.069.067-.068.067-.068.069-.067.069-.066.07-.065.071-.064.072-.063.072-.063.073-.062.074-.061.075-.06.075-.059.076-.058.076-.057.078-.056.078-.056.079-.054.08-.054.08-.052.08-.052.082-.051.083-.049.082-.048.083-.048.084-.047.086-.046.085-.044.084-.044.087-.043.088-.041.087-.041.089-.04.089-.038.088-.037.091-.037.09-.035.091-.034.092-.033.092-.032.091-.031.094-.03.094-.028.093-.027.094-.027.096-.025.095-.024.095-.023.097-.022.096-.02.097-.02.1-.018.098-.017.097-.016.099-.014.1-.014.1-.012.1-.011.101-.009.101-.009.101-.007.102-.005.101-.005.104-.003.103-.002.103L4 12l.001.104.002.103.003.103.005.104.005.101.007.102.009.101.009.101.011.101.012.1.014.1.014.1.016.099.017.097.018.098.02.1.02.097.022.096.023.097.024.095.025.095.027.096.027.094.028.093.03.094.031.094.032.091.033.092.034.092.035.091.037.09.037.091.038.088.04.089.041.089.041.087.043.088.044.087.044.084.046.085.047.086.048.084.048.083.049.082.051.083.052.082.052.08.054.08.054.08.056.079.056.078.057.078.058.076.059.076.06.075.061.075.062.074.063.073.063.072.064.072.065.071.066.07.067.069.068.069.068.067.069.067.07.065.071.066.072.064.072.064.073.062.074.062.074.06.076.061.076.059.076.058.078.057.078.056.079.056.079.054.081.054.081.052.081.052.082.05.082.05.085.049.084.048.084.046.085.046.087.045.086.043.087.043.088.041.088.041.088.039.09.039.09.037.09.036.091.036.091.034.092.033.093.032.093.031.093.029.094.029.094.028.095.026.096.025.096.024.096.023.097.022.097.02.098.02.098.018.098.017.1.016.099.014.099.014.101.012.1.011.102.009.101.009.102.007.102.006.103.004.103.003.103.002L12 20l.104-.001.103-.002.103-.003.103-.004.102-.006.102-.007.101-.009.102-.009.1-.011.101-.012.099-.014.099-.014.1-.016.098-.017.098-.018.098-.02.097-.02.097-.022.096-.023.096-.024.096-.025.095-.026.094-.028.094-.029.093-.029.093-.031.093-.032.092-.033.091-.034.091-.036.09-.036.09-.037.09-.039.088-.039.088-.041.088-.041.087-.043.086-.043.087-.045.085-.046.084-.046.084-.048.085-.049.082-.05.082-.05.081-.052.081-.052.081-.054.079-.054.079-.056.078-.056.078-.057.076-.058.076-.059.076-.061.074-.06.074-.062.073-.062.072-.064.072-.064.071-.066.07-.065.069-.067.068-.067.068-.069.067-.069.066-.07.065-.071.064-.072.063-.072.063-.073.062-.074.061-.075.06-.075.059-.076.058-.076.057-.078.056-.078.056-.079.054-.08.054-.08.052-.08.052-.082.051-.083.049-.082.048-.083.048-.084.047-.086.046-.085.044-.084.044-.087.043-.088.041-.087.041-.089.04-.089.038-.088.037-.091.037-.09.035-.091.034-.092.033-.092.032-.091.031-.094.03-.094.028-.093.027-.094.027-.096.025-.095.024-.095.023-.097.022-.096.02-.097.02-.1.018-.098.017-.097.016-.099.014-.1.014-.1.012-.1.011-.101.009-.101.009-.101.007-.102.005-.101.005-.104.003-.103.002-.103L20 12l-.001-.104-.002-.103-.003-.103-.005-.104-.005-.101-.007-.102-.009-.101-.009-.101-.011-.101-.012-.1-.014-.1-.014-.1-.016-.099-.017-.097-.018-.098-.02-.1-.02-.097-.022-.096-.023-.097-.024-.095-.025-.095-.027-.096-.027-.094-.028-.093-.03-.094-.031-.094-.032-.091-.033-.092-.034-.092-.035-.091-.037-.09-.037-.091-.038-.088-.04-.089-.041-.089-.041-.087-.043-.088-.044-.087-.044-.084-.046-.085-.047-.086-.048-.084-.048-.083-.049-.082-.051-.083-.052-.082-.052-.08-.054-.08-.054-.08-.056-.079-.056-.078-.057-.078-.058-.076-.059-.076-.06-.075-.061-.075-.062-.074-.063-.073-.063-.072-.064-.072-.065-.071-.066-.07-.067-.069-.068-.069-.068-.067-.069-.067-.07-.065-.071-.066-.072-.064-.072-.064-.073-.062-.074-.062-.074-.06-.076-.061-.076-.059-.076-.058-.078-.057-.078-.056-.079-.056-.079-.054-.081-.054-.081-.052-.081-.052-.082-.05-.082-.05-.085-.049-.084-.048-.084-.046-.085-.046-.087-.045-.086-.043-.087-.043-.088-.041-.088-.041-.088-.039-.09-.039-.09-.037-.09-.036-.091-.036-.091-.034-.092-.033-.093-.032-.093-.031-.093-.029-.094-.029-.094-.028-.095-.026-.096-.025-.096-.024-.096-.023-.097-.022-.097-.02-.098-.02-.098-.018-.098-.017-.1-.016-.099-.014-.099-.014-.101-.012-.1-.011-.102-.009-.101-.009-.102-.007-.102-.006-.103-.004-.103-.003-.103-.002L12 4l-.104.001z"/><path d="M12.09 5.001l.091.001.089.003.09.004.089.005.089.006.089.008.088.008.088.01.088.01.087.012.087.013.087.014.086.014.086.016.086.017.085.018.085.019.084.02.085.022.083.022.083.023.083.024.083.025.082.026.081.027.081.028.081.029.08.03.08.031.079.032.079.032.078.034.078.035.077.035.077.037.076.037.076.038.075.039.074.04.075.041.073.042.073.043.073.043.071.044.072.045.071.046.07.047.069.048.069.048.068.049.068.05.067.051.067.052.065.052.066.053.064.054.064.055.063.055.063.056.061.057.062.058.06.058.06.059.059.06.058.06.058.062.057.061.056.063.055.063.055.064.054.064.053.066.052.065.052.067.051.067.05.068.049.068.048.069.048.069.047.07.046.071.045.072.044.071.043.073.043.073.042.073.041.075.04.074.039.075.038.076.037.076.037.077.035.077.035.078.034.078.032.079.032.079.031.08.03.08.029.081.028.081.027.081.026.082.025.083.024.083.023.083.022.083.022.085.02.084.019.085.018.085.017.086.016.086.014.086.014.087.013.087.012.087.01.088.01.088.008.088.008.089.006.089.005.089.004.09.003.089.001.091L19 12l-.001.09-.001.091-.003.089-.004.09-.005.089-.006.089-.008.089-.008.088-.01.088-.01.088-.012.087-.013.087-.014.087-.014.086-.016.086-.017.086-.018.085-.019.085-.02.084-.022.085-.022.083-.023.083-.024.083-.025.083-.026.082-.027.081-.028.081-.029.081-.03.08-.031.08-.032.079-.032.079-.034.078-.035.078-.035.077-.037.077-.037.076-.038.076-.039.075-.04.074-.041.075-.042.073-.043.073-.043.073-.044.071-.045.072-.046.071-.047.07-.048.069-.048.069-.049.068-.05.068-.051.067-.052.067-.052.065-.053.066-.054.064-.055.064-.055.063-.056.063-.057.061-.058.062-.058.06-.059.06-.06.059-.06.058-.062.058-.061.057-.063.056-.063.055-.064.055-.064.054-.066.053-.065.052-.067.052-.067.051-.068.05-.068.049-.069.048-.069.048-.07.047-.071.046-.072.045-.071.044-.073.043-.073.043-.073.042-.075.041-.074.04-.075.039-.076.038-.076.037-.077.037-.077.035-.078.035-.078.034-.079.032-.079.032-.08.031-.08.03-.081.029-.081.028-.081.027-.082.026-.083.025-.083.024-.083.023-.083.022-.085.022-.084.02-.085.019-.085.018-.086.017-.086.016-.086.014-.087.014-.087.013-.087.012-.088.01-.088.01-.088.008-.089.008-.089.006-.089.005-.09.004-.089.003-.091.001L12 19l-.09-.001-.091-.001-.089-.003-.09-.004-.089-.005-.089-.006-.089-.008-.088-.008-.088-.01-.088-.01-.087-.012-.087-.013-.087-.014-.086-.014-.086-.016-.086-.017-.085-.018-.085-.019-.084-.02-.085-.022-.083-.022-.083-.023-.083-.024-.083-.025-.082-.026-.081-.027-.081-.028-.081-.029-.08-.03-.08-.031-.079-.032-.079-.032-.078-.034-.078-.035-.077-.035-.077-.037-.076-.037-.076-.038-.075-.039-.074-.04-.075-.041-.073-.042-.073-.043-.073-.043-.071-.044-.072-.045-.071-.046-.07-.047-.069-.048-.069-.048-.068-.049-.068-.05-.067-.051-.067-.052-.065-.052-.066-.053-.064-.054-.064-.055-.063-.055-.063-.056-.061-.057-.062-.058-.06-.058-.06-.059-.059-.06-.058-.06-.058-.062-.057-.061-.056-.063-.055-.063-.055-.064-.054-.064-.053-.066-.052-.065-.052-.067-.051-.067-.05-.068-.049-.068-.048-.069-.048-.069-.047-.07-.046-.071-.045-.072-.044-.071-.043-.073-.043-.073-.042-.073-.041-.075-.04-.074-.039-.075-.038-.076-.037-.076-.037-.077-.035-.077-.035-.078-.034-.078-.032-.079-.032-.079-.031-.08-.03-.08-.029-.081-.028-.081-.027-.081-.026-.082-.025-.083-.024-.083-.023-.083-.022-.083-.022-.085-.02-.084-.019-.085-.018-.085-.017-.086-.016-.086-.014-.086-.014-.087-.013-.087-.012-.087-.01-.088-.01-.088-.008-.088-.008-.089-.006-.089-.005-.089-.004-.09-.003-.089-.001-.091L5 12l.001-.09.001-.091.003-.089.004-.09.005-.089.006-.089.008-.089.008-.088.01-.088.01-.088.012-.087.013-.087.014-.087.014-.086.016-.086.017-.086.018-.085.019-.085.02-.084.022-.085.022-.083.023-.083.024-.083.025-.083.026-.082.027-.081.028-.081.029-.081.03-.08.031-.08.032-.079.032-.079.034-.078.035-.078.035-.077.037-.077.037-.076.038-.076.039-.075.04-.074.041-.075.042-.073.043-.073.043-.073.044-.071.045-.072.046-.071.047-.07.048-.069.048-.069.049-.068.05-.068.051-.067.052-.067.052-.065.053-.066.054-.064.055-.064.055-.063.056-.063.057-.061.058-.062.058-.06.059-.06.06-.059.06-.058.062-.058.061-.057.063-.056.063-.055.064-.055.064-.054.066-.053.065-.052.067-.052.067-.051.068-.05.068-.049.069-.048.069-.048.07-.047.071-.046.072-.045.071-.044.073-.043.073-.043.073-.042.075-.041.074-.04.075-.039.076-.038.076-.037.077-.037.077-.035.078-.035.078-.034.079-.032.079-.032.08-.031.08-.03.081-.029.081-.028.081-.027.082-.026.083-.025.083-.024.083-.023.083-.022.085-.022.084-.02.085-.019.085-.018.086-.017.086-.016.086-.014.087-.014.087-.013.087-.012.088-.01.088-.01.088-.008.089-.008.089-.006.089-.005.09-.004.089-.003.091-.001L12 5l.09.001zM11.935 7l-.065.002-.064.002-.064.003-.065.003-.063.005-.064.005-.063.006-.063.007-.063.007-.062.009-.062.009-.062.01-.061.01-.062.012-.06.012-.061.012-.061.014-.06.014-.06.015-.059.016-.059.017-.06.017-.058.018-.059.018-.058.019-.058.02-.056.021-.058.021-.057.022-.056.023-.056.023-.056.024-.056.025-.055.025-.054.026-.055.027-.053.027-.054.028-.053.029-.053.029-.053.03-.052.03-.052.031-.051.032-.051.032-.051.033-.049.033-.05.034-.049.035-.049.035-.05.037-.047.035-.047.037-.049.039-.046.037-.045.038-.046.039-.046.04-.045.041-.044.04-.043.041-.044.042-.043.042-.041.042-.043.045-.042.045-.039.042-.04.045-.041.046-.039.046-.039.046-.037.046-.038.048-.037.047-.036.047-.036.05-.035.049-.035.049-.033.049-.034.051-.034.051-.031.05-.032.051-.031.051-.031.053-.029.053-.029.053-.029.053-.028.053-.027.055-.026.053-.027.055-.025.056-.025.056-.024.056-.023.055-.022.056-.022.056-.022.059-.021.057-.019.056-.02.059-.019.06-.017.057-.018.06-.016.06-.015.057-.015.061-.015.061-.014.06-.012.06-.012.061-.012.061-.01.062-.01.062-.009.061-.009.063-.007.063-.007.062-.006.064-.005.065-.005.063-.003.064-.003.064-.002.064-.002.065v.13l.002.065.002.064.003.064.003.064.005.063.005.065.006.064.007.062.007.063.009.063.009.061.01.062.01.061.012.062.012.061.012.06.014.06.015.061.015.061.015.057.017.06.017.06.017.057.019.06.02.059.019.056.021.057.022.059.021.056.023.056.023.055.024.056.025.056.025.056.027.055.026.053.027.054.028.054.029.053.029.053.029.053.031.053.031.051.032.051.031.05.034.051.034.051.033.049.035.049.035.049.036.05.036.047.037.047.038.048.037.046.04.047.038.045.04.046.041.045.039.043.042.044.043.045.041.042.043.042.044.042.043.041.044.04.045.041.046.04.046.039.045.038.047.038.048.038.047.037.047.035.05.037.049.035.049.035.05.034.049.033.051.033.051.032.051.031.052.032.052.03.053.03.053.029.053.029.054.028.053.027.055.027.054.026.056.025.056.025.055.024.056.023.056.023.057.022.058.021.056.021.058.02.058.019.059.018.059.019.059.017.058.016.059.015.062.016.059.014.06.013.062.013.06.012.062.012.061.01.062.01.062.009.062.009.063.007.063.007.063.006.064.005.063.005.065.003.064.003.064.002.066.002h.128l.066-.002.064-.002.064-.003.065-.003.063-.005.064-.005.063-.006.063-.007.063-.007.062-.009.062-.009.062-.01.061-.01.062-.012.06-.012.062-.013.06-.013.059-.014.062-.016.059-.015.058-.016.059-.017.059-.019.059-.018.058-.019.058-.02.056-.021.058-.021.057-.022.056-.023.056-.023.055-.024.056-.025.056-.025.054-.026.055-.027.053-.027.054-.028.053-.029.053-.029.053-.03.052-.03.052-.032.051-.031.051-.032.051-.033.049-.033.05-.034.049-.035.049-.035.05-.037.047-.035.047-.037.048-.038.047-.038.045-.038.046-.039.046-.04.045-.041.044-.04.043-.041.044-.042.043-.042.041-.042.043-.045.042-.044.039-.043.041-.045.04-.046.038-.045.04-.047.037-.046.038-.048.037-.047.036-.047.036-.05.035-.049.035-.049.033-.049.034-.051.034-.051.031-.05.032-.051.031-.051.031-.053.029-.053.029-.053.029-.053.028-.054.027-.054.026-.053.027-.055.025-.056.025-.056.024-.056.023-.055.023-.056.021-.056.022-.059.021-.057.019-.056.02-.059.019-.06.017-.057.017-.06.017-.06.015-.057.015-.061.015-.061.014-.06.012-.06.012-.061.012-.062.01-.061.01-.062.009-.061.009-.063.007-.063.007-.062.006-.064.005-.065.005-.063.003-.064.003-.064.002-.064.002-.065v-.13l-.002-.065-.002-.064-.003-.064-.003-.064-.005-.063-.005-.065-.006-.064-.007-.062-.007-.063-.009-.063-.009-.061-.01-.062-.01-.062-.012-.061-.012-.061-.012-.06-.014-.06-.015-.061-.015-.061-.015-.057-.016-.06-.018-.06-.017-.057-.019-.06-.02-.059-.019-.056-.021-.057-.022-.059-.022-.056-.022-.056-.023-.055-.024-.056-.025-.056-.025-.056-.027-.055-.026-.053-.027-.055-.028-.053-.029-.053-.029-.053-.029-.053-.031-.053-.031-.051-.032-.051-.031-.05-.034-.051-.034-.051-.033-.049-.035-.049-.035-.049-.036-.05-.036-.047-.037-.047-.038-.048-.037-.046-.039-.046-.039-.046-.041-.046-.04-.045-.039-.042-.042-.045-.043-.045-.041-.042-.043-.042-.044-.042-.043-.041-.044-.04-.045-.041-.046-.04-.046-.039-.045-.038-.046-.037-.049-.039-.047-.037-.047-.035-.05-.037-.049-.035-.049-.035-.05-.034-.049-.033-.051-.033-.051-.032-.051-.032-.052-.031-.052-.03-.053-.03-.053-.029-.053-.029-.054-.028-.053-.027-.055-.027-.054-.026-.055-.025L14 7.416l-.056-.024-.056-.023-.056-.023-.057-.022-.058-.021-.056-.021-.058-.02-.058-.019-.059-.018-.058-.018-.06-.017-.059-.017-.059-.016-.06-.015-.06-.014-.061-.014-.061-.012-.06-.012-.062-.012-.061-.01-.062-.01-.062-.009-.062-.009-.063-.007-.063-.007-.063-.006-.064-.005-.063-.005-.065-.003-.064-.003-.064-.002L12.065 7h-.13z"/></svg>