<svg viewBox="0 0 24 24" xmlns="http://www.w3.org/2000/svg" fill-rule="evenodd" clip-rule="evenodd" stroke-linejoin="round" stroke-miterlimit="1.414"><path d="M10.964 1.985l1.017.002 1.017.004 1.017.004 1.017.004L16.049 2l.08.002.079.006.079.008.04.005.039.006.039.006.039.008.039.008.039.009.038.01.039.011.038.011.038.013.051.018.052.02.05.021.05.022.049.024.048.026.047.026.047.028.046.03.045.03.044.032.043.033.043.034.041.035.04.036.04.038.038.038.037.039.036.041.036.041.033.043.033.043.032.044.03.046.029.046.028.046.027.048.025.048.024.05.022.049.021.051.02.051.014.041.013.041.013.041.011.041.011.041.009.042.009.042.007.042.007.042.006.042.005.042.004.043.004.042.002.043.002.043.001.043v2.027l1.043.01 1.044.013.079.004.08.007.079.01.039.006.04.007.039.008.038.008.039.01.039.01.038.011.038.011.038.013.038.013.049.019.048.02.048.021.046.022.047.024.045.025.045.026.044.027.043.028.043.03.042.03.041.032.04.032.039.034.038.035.038.035.036.037.036.037.035.039.033.039.033.04.031.041.031.042.029.043.028.043.027.044.026.045.025.046.024.046.022.047.021.048.02.048.015.04.014.041.014.041.012.041.012.041.011.041.009.042.009.042.008.042.007.042.006.043.005.042.005.043.003.042.003.043.002.043.006.511.006.511.004.511.004.511.003.51.002.511.001.511v1.022l-.001.511-.002.511-.003.51-.004.511-.004.511-.006.511-.006.511-.002.043-.003.043-.003.042-.005.043-.005.042-.006.043-.007.042-.008.042-.009.042-.009.042-.011.041-.012.041-.012.041-.014.041-.014.041-.015.04-.02.048-.021.048-.022.047-.024.046-.025.046-.026.045-.027.044-.028.043-.029.043-.031.042-.031.041-.033.04-.033.039-.035.039-.036.037-.036.037-.038.035-.038.035-.039.034-.04.032-.041.032-.042.03-.043.03-.043.028-.044.027-.045.026-.045.025-.047.024-.046.022-.048.021-.048.02-.049.019-.038.013-.038.013-.038.011-.038.011-.039.01-.039.01-.038.008-.039.008-.04.007-.039.006-.079.01-.08.007-.079.004-1.044.013-1.043.01v1.945l-.001.052-.002.052-.003.052-.004.052-.006.051-.007.05-.009.051-.009.05-.011.049-.012.049-.013.048-.014.048-.016.048-.016.047-.018.046-.019.046-.02.046-.02.044-.022.044-.023.044-.024.043-.025.042-.026.042-.027.041-.028.04-.029.039-.03.039-.03.038-.032.037-.032.037-.033.036-.035.034-.034.035-.036.033-.037.032-.037.032-.038.03-.039.03-.039.029-.04.028-.041.027-.042.026-.042.025-.043.024-.044.023-.044.021-.044.021-.046.02-.046.019-.046.018-.047.016-.048.016-.048.014-.048.013-.049.012-.049.011-.05.009-.051.009-.05.007-.051.006-.052.004-.052.003-.052.002-.052.001H8.033l-.052-.001-.052-.002-.052-.003-.052-.004-.051-.006-.05-.007-.051-.009-.05-.009-.049-.011-.049-.012-.048-.013-.048-.014-.048-.016-.047-.016-.046-.018-.046-.019-.046-.02-.044-.021-.044-.021-.044-.023-.043-.024-.042-.025-.042-.026-.041-.027-.04-.028-.039-.029-.039-.03-.038-.03-.037-.032-.037-.032-.036-.033-.034-.035-.035-.034-.033-.036-.032-.037-.032-.037-.03-.038-.03-.039-.029-.039-.028-.04-.027-.041-.026-.042-.025-.042-.024-.043-.023-.044-.022-.044-.02-.044-.02-.046-.019-.046-.018-.046-.016-.047-.016-.048-.014-.048-.013-.048-.012-.049-.011-.049-.009-.05-.009-.051-.007-.05-.006-.051-.004-.052-.003-.052-.002-.052L6 19.967v-1.969h-.516l-.533.003-.267.001h-.521l-.25-.003-.079-.004-.08-.007-.079-.01-.039-.006-.04-.007-.039-.008-.038-.008-.039-.01-.039-.01-.038-.011-.038-.011-.038-.013-.038-.013-.049-.019-.048-.02-.048-.021-.046-.022-.047-.024-.045-.025-.045-.026-.044-.027-.043-.028-.043-.03-.042-.03-.041-.032-.04-.032-.039-.034-.038-.035-.038-.035-.036-.037-.036-.037-.035-.039-.033-.039-.033-.04-.031-.041-.031-.042-.029-.043-.028-.043-.027-.044-.026-.045-.025-.046-.024-.046-.022-.047-.021-.048-.02-.048-.015-.04-.014-.041-.014-.041-.012-.041-.012-.041-.011-.041-.009-.042-.009-.042-.008-.042-.007-.042-.006-.043-.005-.042-.005-.043-.003-.042-.003-.043-.002-.043-.006-.511-.006-.511-.004-.511-.004-.511-.003-.51-.002-.511-.001-.511v-1.022l.001-.511.002-.511.003-.51.004-.511.004-.511.006-.511.006-.511.002-.043.003-.043.003-.042.005-.043.005-.042.006-.043.007-.042.008-.042.009-.042.009-.042.011-.041.012-.041.012-.041.014-.041.014-.041.015-.04.02-.048.021-.048.022-.047.024-.046.025-.046.026-.045.027-.044.028-.043.029-.043.031-.042.031-.041.033-.04.033-.039.035-.039.036-.037.036-.037.038-.035.038-.035.039-.034.04-.032.041-.032.042-.03.043-.03.043-.028.044-.027.045-.026.045-.025.047-.024.046-.022.048-.021.048-.02.049-.019.038-.013.038-.013.038-.011.038-.011.039-.01.039-.01.038-.008.039-.008.04-.007.039-.006.079-.01.08-.007.079-.004 1.041-.013 1.04-.01-.001-.516v-.517l.003-.516.002-.258.003-.258.002-.043.003-.043.003-.043.005-.042.005-.043.006-.042.007-.042.008-.042.009-.042.009-.042.011-.041.012-.042.012-.041.013-.04.015-.041.015-.04.02-.048.021-.048.022-.047.024-.046.025-.046.026-.045.027-.044.028-.043.029-.043.031-.042.031-.041.033-.04.033-.039.035-.039.035-.037.037-.037.037-.036.039-.034.039-.034.04-.032.041-.032.042-.03.042-.03.044-.028.044-.027.045-.026.045-.025.046-.024.047-.022.048-.021.048-.02.049-.019.037-.013.038-.013.039-.011.038-.011.039-.01.038-.01.039-.008.039-.008.039-.007.04-.006.079-.01.079-.007.08-.004.509-.006.508-.004.509-.003.508-.002.509-.001h.508zM8 13v6.973l.003.008.007.01.009.006.006.002.006.001H15.973l.002-.001h.002l.001-.001h.002l.001-.001.001-.001h.001l.001-.001h.001v-.001h.001l.001-.001.001-.001.001-.001h.001v-.001l.001-.001.001-.001.001-.001.002-.002v-.001l.001-.001v-.001h.001v-.001l.001-.001v-.002h.001v-.004l.001-.001V13H8zM4 8v8h2v-5h12v5h2V8H4zm4-4v1.962l1-.005 1-.004 1-.003 1-.001 1 .001 1 .003 1 .004 1 .005V4H8z"/><path fill-rule="nonzero" d="M9 14h6v2H9zM9 17h6v2H9z"/></svg>