<svg viewBox="0 0 24 24" xmlns="http://www.w3.org/2000/svg" fill-rule="evenodd" clip-rule="evenodd" stroke-linejoin="round" stroke-miterlimit="1.414"><g fill-rule="nonzero"><path d="M7.59 8.001a3.502 3.502 0 0 1 3.065 5.016 3.519 3.519 0 0 1-1.793 1.708 3.5 3.5 0 0 1-3.776-.692 3.503 3.503 0 0 1-.703-4.126A3.502 3.502 0 0 1 7.41 8.001h.18zm-.13 2a1.507 1.507 0 0 0-1.357.951 1.505 1.505 0 0 0 .781 1.916c.182.082.378.126.577.131a1.49 1.49 0 0 0 1.376-.819 1.503 1.503 0 0 0 .132-.984 1.511 1.511 0 0 0-.725-.998 1.51 1.51 0 0 0-.626-.193c-.053-.004-.105-.005-.158-.004zM16.59 8.001a3.502 3.502 0 0 1 3.065 5.016 3.519 3.519 0 0 1-1.793 1.708 3.5 3.5 0 0 1-3.776-.692 3.503 3.503 0 0 1-.703-4.126 3.502 3.502 0 0 1 3.027-1.906h.18zm-.13 2a1.52 1.52 0 0 0-.641.162 1.519 1.519 0 0 0-.762.926 1.522 1.522 0 0 0 .075 1.027 1.518 1.518 0 0 0 .752.752c.182.082.378.126.577.131a1.49 1.49 0 0 0 1.376-.819 1.503 1.503 0 0 0 .132-.984 1.511 1.511 0 0 0-.725-.998 1.51 1.51 0 0 0-.626-.193c-.053-.004-.105-.005-.158-.004z"/><path d="M12.1 9.001c.331.009.66.041.983.12.515.126 1.008.371 1.378.757.105.11.2.23.281.359.099.158.178.33.226.51l-1.936.506.009.029.007.019.002.004-.003-.006a.288.288 0 0 0-.049-.055c-.128-.113-.305-.165-.469-.198A2.76 2.76 0 0 0 12 11a2.98 2.98 0 0 0-.443.031c-.148.023-.297.06-.431.129a.576.576 0 0 0-.157.118c-.003.003-.021.032-.017.023l.012-.034.004-.014-1.936-.506c.048-.18.127-.352.226-.51.07-.112.151-.215.239-.314.351-.392.838-.646 1.341-.782a4.39 4.39 0 0 1 .868-.133c.131-.006.263-.008.394-.007zM19 10h3v2h-3zM2 10h3v2H2z"/></g></svg>