<svg viewBox="0 0 24 24" xmlns="http://www.w3.org/2000/svg" fill-rule="evenodd" clip-rule="evenodd" stroke-linejoin="round" stroke-miterlimit="1.414"><path d="M18 9a5.977 5.977 0 0 1-1.809 4.292 6.016 6.016 0 0 1-1.856 1.236A6.002 6.002 0 0 1 6 9h2a3.942 3.942 0 0 0 .529 1.988 4.038 4.038 0 0 0 1.916 1.698 4.005 4.005 0 0 0 4.279-.758c.341-.318.627-.695.839-1.11A3.95 3.95 0 0 0 16 9h2z"/><path d="M14.072 5.5a1.5 1.5 0 0 0-1.5-1.5h-1a1.5 1.5 0 0 0-1.5 1.5v4a1.5 1.5 0 0 0 1.5 1.5h1a1.5 1.5 0 0 0 1.5-1.5v-4zM11 13h2v7h-2z"/><path d="M15 20v-2H9v2h6z"/></svg>