<svg viewBox="0 0 24 24" xmlns="http://www.w3.org/2000/svg" fill-rule="evenodd" clip-rule="evenodd" stroke-linejoin="round" stroke-miterlimit="1.414"><path d="M20.999 16.101l-.003.076-.005.076-.006.075-.009.075-.01.074-.012.073-.014.073-.016.073-.018.072-.019.071-.021.071-.023.069-.024.069-.026.068-.027.067-.029.067-.031.065-.032.065-.033.064-.036.063-.036.062-.038.06-.04.06-.04.058-.043.059-.043.056-.045.056-.046.055-.047.053-.048.052-.05.051-.051.049-.052.049-.054.047-.054.046-.056.045-.057.044-.057.041-.058.041-.061.04-.061.038-.062.036-.062.035-.064.034-.065.032-.065.031-.066.029-.068.027-.068.026-.07.025-.068.022-.071.021-.072.019-.071.018-.072.016-.074.014-.074.012-.073.01-.075.009-.076.006-.074.005-.076.003-.071.001H5.969l-.071-.001-.076-.003-.074-.005-.076-.006-.075-.009-.073-.01-.074-.012-.074-.014-.072-.016-.071-.018-.072-.019-.071-.021-.068-.022-.07-.025-.068-.026-.068-.027-.066-.029-.065-.031-.065-.032-.064-.034-.062-.035-.062-.036-.061-.038-.061-.04-.058-.041-.057-.041-.057-.044-.056-.045-.054-.046-.054-.047-.052-.049-.051-.049-.05-.051-.048-.052-.047-.053-.046-.055-.045-.056-.043-.056-.043-.059-.04-.058-.04-.06-.038-.06-.036-.062-.036-.063-.033-.064-.032-.065-.031-.065-.029-.067-.027-.067-.026-.068-.024-.069-.023-.069-.021-.071-.019-.071-.018-.072-.016-.073-.014-.073-.012-.073-.01-.074-.009-.075-.006-.075-.005-.076-.003-.076-.001-.07V12h2v4.051l.001.025.002.025.002.025.003.024.003.025.004.024.005.024.005.023.006.024.006.022.007.023.007.023.008.022.008.022.009.022.01.022.01.021.01.022.011.02.012.02.012.021.012.02.013.019.014.02.013.019.014.018.016.019.014.017.016.018.016.018.017.016.016.017.018.016.017.016.018.015.018.014.019.014.019.015.02.013.02.013.019.012.02.012.021.012.021.011.021.01.022.01.021.01.022.009.022.008.022.008.023.007.022.007.023.006.024.006.024.005.023.005.024.003.025.004.024.003.025.002.026.002.025.001H18.05l.025-.001.026-.002.025-.002.024-.003.025-.004.024-.003.023-.005.024-.005.024-.006.023-.006.022-.007.023-.007.022-.008.022-.008.022-.009.021-.01.022-.01.021-.01.021-.011.021-.012.02-.012.019-.012.02-.013.02-.013.019-.015.019-.014.018-.014.018-.015.017-.016.018-.016.016-.017.017-.016.016-.018.016-.018.014-.017.016-.019.014-.018.013-.019.014-.02.013-.019.012-.02.012-.021.012-.02.011-.02.01-.022.01-.021.01-.022.009-.022.008-.022.008-.022.007-.023.007-.023.006-.022.006-.024.005-.023.005-.024.004-.024.003-.025.003-.024.002-.025.002-.025.001-.025V12h2v4.031l-.001.07z"/><path d="M13 12.5h-2V4h2v8.5z" fill-rule="nonzero"/><path d="M12 15l-4-5h8l-4 5z"/></svg>