<svg viewBox="0 0 24 24" xmlns="http://www.w3.org/2000/svg" fill-rule="evenodd" clip-rule="evenodd" stroke-linejoin="round" stroke-miterlimit="1.414"><path d="M12.153 2.001a11.372 11.372 0 0 1 1.065.073c.026.006.05.018.075.028l.144.056c.136.056.268.118.397.189.21.115.408.252.583.418a2.093 2.093 0 0 1 .473.668c.038.089.07.181.096.275.148.552.061 1.131-.097 1.67.093.041.185.083.276.127.395.196.769.423 1.126.682.054-.057.108-.112.164-.167.22-.209.456-.399.723-.545.179-.097.369-.174.567-.221a1.951 1.951 0 0 1 .693-.038c.588.072 1.104.393 1.549.766.091.123.09.122.18.247a10.355 10.355 0 0 1 .977 1.723c.021.047.044.092.061.14.008.025.009.052.014.078l.023.154a4 4 0 0 1 .035.437c.005.24-.015.481-.071.714-.037.155-.09.305-.161.448a1.906 1.906 0 0 1-.371.517c-.404.404-.949.618-1.494.751a7.804 7.804 0 0 1 0 1.618c.076.019.151.038.227.059.29.086.573.196.833.354.173.106.335.232.475.381a1.88 1.88 0 0 1 .379.581c.232.544.212 1.152.111 1.724-.061.14-.061.139-.124.279a10.567 10.567 0 0 1-1.003 1.708c-.03.041-.058.084-.091.123-.018.02-.041.034-.061.051l-.121.097a4.073 4.073 0 0 1-.362.249 2.802 2.802 0 0 1-.653.295 2.01 2.01 0 0 1-1.102.021c-.552-.147-1.01-.512-1.397-.918-.082.06-.165.118-.249.176-.367.244-.75.454-1.153.633.022.076.043.151.062.226.071.295.118.595.11.899a2.228 2.228 0 0 1-.092.601 2.015 2.015 0 0 1-.313.62c-.356.473-.892.759-1.438.958-.152.017-.151.017-.304.032a10.475 10.475 0 0 1-1.98-.015c-.051-.005-.102-.008-.152-.017-.026-.006-.05-.018-.075-.028a3.896 3.896 0 0 1-.541-.245 2.785 2.785 0 0 1-.583-.418 2.093 2.093 0 0 1-.473-.668 2.182 2.182 0 0 1-.096-.275c-.148-.552-.061-1.131.097-1.67a8.64 8.64 0 0 1-.276-.127 7.865 7.865 0 0 1-1.126-.682 6.457 6.457 0 0 1-.164.167c-.22.209-.456.399-.723.545a2.318 2.318 0 0 1-.567.221 1.951 1.951 0 0 1-.693.038c-.588-.072-1.104-.393-1.549-.766-.091-.123-.09-.122-.18-.247a10.355 10.355 0 0 1-.977-1.723c-.021-.047-.044-.092-.061-.14-.008-.025-.009-.052-.014-.078l-.023-.154a4 4 0 0 1-.035-.437c-.005-.24.015-.481.071-.714.037-.155.09-.305.161-.448a1.906 1.906 0 0 1 .371-.517c.404-.404.949-.618 1.494-.751-.01-.101-.02-.202-.027-.303a7.804 7.804 0 0 1 .027-1.315 9.473 9.473 0 0 1-.227-.059 3.516 3.516 0 0 1-.833-.354 2.29 2.29 0 0 1-.475-.381 1.88 1.88 0 0 1-.379-.581c-.232-.544-.212-1.152-.111-1.724.061-.14.061-.139.124-.279a10.567 10.567 0 0 1 1.003-1.708c.03-.041.058-.084.091-.123.018-.02.041-.034.061-.051l.121-.097c.116-.089.237-.173.362-.249.205-.124.423-.227.653-.295a2.01 2.01 0 0 1 1.102-.021c.552.147 1.01.512 1.397.918.082-.06.165-.118.249-.176.367-.244.75-.454 1.153-.633a6.965 6.965 0 0 1-.062-.226 3.454 3.454 0 0 1-.11-.899c.004-.203.033-.406.092-.601a2.015 2.015 0 0 1 .313-.62c.356-.473.892-.759 1.438-.958.152-.017.151-.017.304-.032.203-.017.405-.03.609-.037.153-.004.305-.005.458-.004zm-.275 2c-.111.003-.133.002-.244.007a4.986 4.986 0 0 0-.122.007c-.103.006-.141.01-.244.019h-.006c-.026.009-.052.024-.077.036a1.88 1.88 0 0 0-.124.07.717.717 0 0 0-.093.068c-.007.007-.021.017-.023.026-.007.034-.007.068-.007.102.005.142.037.282.074.419l.51 1.74c-.582.258-1.167.509-1.745.776a7.134 7.134 0 0 0-.262.132 6.544 6.544 0 0 0-.499.307l-.059.043-1.486 1.081c-.438-.459-.863-.931-1.315-1.375a1.784 1.784 0 0 0-.227-.188.534.534 0 0 0-.129-.069.44.44 0 0 0-.082.028 1.246 1.246 0 0 0-.178.1c-.023.015-.049.03-.07.048-.032.029-.049.07-.073.105a8.129 8.129 0 0 0-.556.947c-.047.094-.061.125-.106.22a.014.014 0 0 0-.002.006c-.006.027-.006.057-.008.085-.002.047-.004.095-.002.143a.75.75 0 0 0 .013.115c.002.009.004.026.011.032.026.023.055.04.085.057.126.067.262.109.4.145l1.761.428c-.067.633-.142 1.266-.2 1.9a7.138 7.138 0 0 0-.016.292c-.004.196.001.391.016.586l.007.073.193 1.827c-.616.15-1.237.282-1.847.452a1.762 1.762 0 0 0-.255.092.585.585 0 0 0-.144.086c-.012.01-.012.042-.015.056-.015.101-.01.204-.001.306l.002.013c.185.409.411.802.664 1.173.024.035.041.076.073.105.021.018.047.033.07.048.046.031.093.059.143.084a.82.82 0 0 0 .086.036c.008.002.024.01.033.007a.513.513 0 0 0 .091-.045c.121-.076.226-.173.326-.274l1.252-1.312c.515.375 1.025.756 1.545 1.124.081.055.163.108.245.16.168.102.34.194.516.279l.066.03 1.679.746c-.178.609-.374 1.212-.532 1.826a1.788 1.788 0 0 0-.05.291.518.518 0 0 0 .005.147c.019.022.042.039.065.057.056.039.115.073.175.104.025.012.051.027.077.036.041.013.085.007.128.011a8.108 8.108 0 0 0 1.098.008c.103-.006.141-.01.244-.019h.006c.026-.009.052-.024.077-.036a1.88 1.88 0 0 0 .124-.07.717.717 0 0 0 .093-.068c.007-.007.021-.017.023-.026.007-.034.007-.068.007-.102a1.87 1.87 0 0 0-.074-.419l-.51-1.74c.582-.258 1.167-.509 1.745-.776.088-.042.175-.086.262-.132.171-.095.337-.197.499-.307l.059-.043 1.486-1.081c.438.459.863.931 1.315 1.375.071.067.145.133.227.188.04.027.083.054.129.069a.44.44 0 0 0 .082-.028c.062-.028.121-.062.178-.1.023-.015.049-.03.07-.048.032-.029.049-.07.073-.105a8.129 8.129 0 0 0 .556-.947c.047-.094.061-.125.106-.22a.014.014 0 0 0 .002-.006c.006-.027.006-.057.008-.085.002-.047.004-.095.002-.142a.749.749 0 0 0-.013-.116c-.002-.009-.004-.026-.011-.032a.486.486 0 0 0-.085-.057 1.822 1.822 0 0 0-.4-.145l-1.761-.428c.067-.633.142-1.266.2-1.9a7.09 7.09 0 0 0 .016-.293 6.014 6.014 0 0 0-.016-.585l-.007-.073-.193-1.827c.616-.15 1.237-.282 1.847-.452.087-.025.173-.054.255-.092a.585.585 0 0 0 .144-.086c.012-.01.012-.042.015-.056.015-.101.01-.204.001-.306l-.002-.013a7.79 7.79 0 0 0-.664-1.173c-.024-.035-.041-.076-.073-.105-.021-.018-.047-.033-.07-.048a1.275 1.275 0 0 0-.143-.084c-.028-.013-.056-.026-.086-.036-.008-.002-.024-.01-.033-.007a.513.513 0 0 0-.091.045 1.858 1.858 0 0 0-.326.274l-1.252 1.312c-.515-.375-1.025-.756-1.545-1.124a9.332 9.332 0 0 0-.245-.16 6.118 6.118 0 0 0-.516-.279l-.066-.03-1.679-.746c.178-.609.374-1.212.532-1.826.023-.096.043-.192.05-.291a.518.518 0 0 0-.005-.147c-.019-.022-.042-.039-.065-.057a1.55 1.55 0 0 0-.175-.104c-.025-.012-.051-.027-.077-.036-.041-.013-.085-.007-.128-.011a8.967 8.967 0 0 0-.732-.022zm.273 5.054a2.922 2.922 0 0 1 1.256.354 2.951 2.951 0 0 1 1.449 3.327 2.972 2.972 0 0 1-1.707 1.98 2.964 2.964 0 0 1-2.298 0 2.963 2.963 0 0 1-1.74-2.124 2.96 2.96 0 0 1 .173-1.741 2.944 2.944 0 0 1 1.435-1.507A2.959 2.959 0 0 1 12 9.051l.151.004zm-.204 1.894a1.043 1.043 0 0 0-.758.381 1.06 1.06 0 0 0-.24.723c.022.436.321.822.739.952a1.063 1.063 0 0 0 .624 0 1.061 1.061 0 0 0 .693-1.318 1.06 1.06 0 0 0-.501-.611 1.113 1.113 0 0 0-.451-.127h-.106z" fill-rule="nonzero"/></svg>