<svg viewBox="0 0 24 24" xmlns="http://www.w3.org/2000/svg" fill-rule="evenodd" clip-rule="evenodd" stroke-linejoin="round" stroke-miterlimit="1.414"><path d="M14.045 2.001l.049.001.05.004.049.004.049.005.049.007.049.008.048.009.048.01.048.011.047.013.047.014.047.014.046.016.046.017.045.019.045.019.045.02.044.022.043.022.043.024.042.024.042.026.041.027.041.028.04.028.039.03.039.031.038.032.037.033.036.034.036.034.034.036.034.036.033.037.032.038.031.039.03.039.028.04.028.041.027.041.026.042.024.042.024.043.022.043.022.044.02.045.019.045.019.045.017.046.016.046.014.047.014.047.013.047.011.048.01.048.009.048.008.049.007.049.005.049.004.049.004.05.001.049.001.05V8H8V4.005l.001-.05.001-.049.004-.05.004-.049.005-.049.007-.049.008-.049.009-.048.01-.048.011-.048.013-.047.014-.047.014-.047.016-.046.017-.046.019-.045.019-.045.02-.045.022-.044.022-.043.024-.043.024-.042.026-.042.027-.041.028-.041.028-.04.03-.039.031-.039.032-.038.033-.037.034-.036.034-.036.036-.034.036-.034.037-.033.038-.032.039-.031.039-.03.04-.028.041-.028.041-.027.042-.026.042-.024.043-.024.043-.022.044-.022.045-.02.045-.019.045-.019.046-.017.046-.016.047-.014.047-.014.047-.013.048-.011.048-.01.048-.009.049-.008.049-.007.049-.005.049-.004.05-.004.049-.001.05-.001h3.99l.05.001zM10.017 4H10.003v.001h-.001v.001h-.001v.001L10 4.004V6h4V4.004l-.001-.001v-.001h-.001v-.001h-.001V4h-3.98zM16 19.995l-.001.05-.001.049-.004.05-.004.049-.005.049-.007.049-.008.049-.009.048-.01.048-.011.048-.013.047-.014.047-.014.047-.016.046-.017.046-.019.045-.019.045-.02.045-.022.044-.022.043-.024.043-.024.042-.026.042-.027.041-.028.041-.028.04-.03.039-.031.039-.032.038-.033.037-.034.036-.034.036-.036.034-.036.034-.037.033-.038.032-.039.031-.039.03-.04.028-.041.028-.041.027-.042.026-.042.024-.043.024-.043.022-.044.022-.045.02-.045.019-.045.019-.046.017-.046.016-.047.014-.047.014-.047.013-.048.011-.048.01-.048.009-.049.008-.049.007-.049.005-.049.004-.05.004-.049.001-.05.001h-3.99l-.05-.001-.049-.001-.05-.004-.049-.004-.049-.005-.049-.007-.049-.008-.048-.009-.048-.01-.048-.011-.047-.013-.047-.014-.047-.014-.046-.016-.046-.017-.045-.019-.045-.019-.045-.02-.044-.022-.043-.022-.043-.024-.042-.024-.042-.026-.041-.027-.041-.028-.04-.028-.039-.03-.039-.031-.038-.032-.037-.033-.036-.034-.036-.034-.034-.036-.034-.036-.033-.037-.032-.038-.031-.039-.03-.039-.028-.04-.028-.041-.027-.041-.026-.042-.024-.042-.024-.043-.022-.043-.022-.044-.02-.045-.019-.045-.019-.045-.017-.046-.016-.046-.014-.047-.014-.047-.013-.047-.011-.048-.01-.048-.009-.048-.008-.049-.007-.049-.005-.049-.004-.049-.004-.05-.001-.049-.001-.05V16h8v3.995zM10 18v1.996l.005.004h3.992v-.001h.001v-.001h.001v-.001l.001-.001V18h-4z"/><path d="M16.065 6.001l.051.002.051.003.05.004.05.006.05.007.049.008.048.009.049.011.047.012.048.012.047.014.046.015.046.017.045.017.045.018.044.019.044.021.043.021.043.023.042.023.041.025.04.025.04.026.04.027.038.029.038.029.037.029.037.031.035.032.035.032.034.034.034.034.032.035.032.035.031.037.029.037.029.038.029.038.027.04.026.04.025.04.025.041.023.042.023.043.021.043.021.044.019.044.018.045.017.045.017.046.015.046.014.047.012.048.012.047.011.049.009.048.008.049.007.05.006.05.004.05.003.051.002.051.001.051v8.028l-.001.051-.002.051-.003.051-.004.05-.006.05-.007.05-.008.049-.009.048-.011.049-.012.047-.012.048-.014.047-.015.046-.017.046-.017.045-.018.045-.019.044-.021.044-.021.043-.023.043-.023.042-.025.041-.025.04-.026.04-.027.04-.029.038-.029.038-.029.037-.031.037-.032.035-.032.035-.034.034-.034.034-.035.032-.035.032-.037.031-.037.029-.038.029-.038.029-.04.027-.04.026-.04.025-.041.025-.042.023-.043.023-.043.021-.044.021-.044.019-.045.018-.045.017-.046.017-.046.015-.047.014-.048.012-.047.012-.049.011-.048.009-.049.008-.05.007-.05.006-.05.004-.051.003-.051.002-.051.001H7.986l-.051-.001-.051-.002-.051-.003-.05-.004-.05-.006-.05-.007-.049-.008-.048-.009-.049-.011-.047-.012-.048-.012-.047-.014-.046-.015-.046-.017-.045-.017-.045-.018-.044-.019-.044-.021-.043-.021-.043-.023-.042-.023-.041-.025-.04-.025-.04-.026-.04-.027-.038-.029-.038-.029-.037-.029-.037-.031-.035-.032-.035-.032-.034-.034-.034-.034-.032-.035-.032-.035-.031-.037-.029-.037-.029-.038-.029-.038-.027-.04-.026-.04-.025-.04-.025-.041-.023-.042-.023-.043-.021-.043-.021-.044-.019-.044-.018-.045-.017-.045-.017-.046-.015-.046-.014-.047-.012-.048-.012-.047-.011-.049-.009-.048-.008-.049-.007-.05-.006-.05-.004-.05-.003-.051-.002-.051L6 16.014V7.986l.001-.051.002-.051.003-.051.004-.05.006-.05.007-.05.008-.049.009-.048.011-.049.012-.047.012-.048.014-.047.015-.046.017-.046.017-.045.018-.045.019-.044.021-.044.021-.043.023-.043.023-.042.025-.041.025-.04.026-.04.027-.04.029-.038.029-.038.029-.037.031-.037.032-.035.032-.035.034-.034.034-.034.035-.032.035-.032.037-.031.037-.029.038-.029.038-.029.04-.027.04-.026.04-.025.041-.025.042-.023.043-.023.043-.021.044-.021.044-.019.045-.018.045-.017.046-.017.046-.015.047-.014.048-.012.047-.012.049-.011.048-.009.049-.008.05-.007.05-.006.05-.004.051-.003.051-.002L7.986 6h8.028l.051.001zM8 8v8h8V8H8zM19 9.489A.49.49 0 0 0 18.511 9H18v3h.511a.49.49 0 0 0 .489-.489V9.489z"/></svg>