<svg viewBox="0 0 24 24" xmlns="http://www.w3.org/2000/svg" fill-rule="evenodd" clip-rule="evenodd" stroke-linejoin="round" stroke-miterlimit="1.414"><path d="M18.086 2.001l.051.002.05.003.05.004.049.006.049.007.048.008.049.009.047.01.048.012.047.013.046.013.046.015.045.016.045.017.044.018.044.02.043.02.043.021.042.022.041.023.041.024.04.025.04.026.039.027.038.028.037.029.037.03.036.03.035.031.035.032.034.033.033.034.032.035.031.035.03.036.03.037.029.037.028.038.027.039.026.04.025.04.024.041.023.041.022.042.021.043.02.043.02.044.018.044.017.045.016.045.015.046.013.046.013.047.012.048.01.047.009.049.008.048.007.049.006.049.004.05.003.05.002.051.001.05v16.072l-.001.05-.002.051-.003.05-.004.05-.006.049-.007.049-.008.048-.009.049-.01.047-.012.048-.013.047-.013.046-.015.046-.016.045-.017.045-.018.044-.02.044-.02.043-.021.043-.022.042-.023.041-.024.041-.025.04-.026.04-.027.039-.028.038-.029.037-.03.037-.03.036-.031.035-.032.035-.033.034-.034.033-.035.032-.035.031-.036.03-.037.03-.037.029-.038.028-.039.027-.04.026-.04.025-.041.024-.041.023-.042.022-.043.021-.043.02-.044.02-.044.018-.045.017-.045.016-.046.015-.046.013-.047.013-.048.012-.047.01-.049.009-.048.008-.049.007-.049.006-.05.004-.05.003-.051.002-.05.001H5.964l-.05-.001-.051-.002-.05-.003-.05-.004-.049-.006-.049-.007-.048-.008-.049-.009-.047-.01-.048-.012-.047-.013-.046-.013-.046-.015-.045-.016-.045-.017-.044-.018-.044-.02-.043-.02-.043-.021-.042-.022-.041-.023-.041-.024-.04-.025-.04-.026-.039-.027-.038-.028-.037-.029-.037-.03-.036-.03-.035-.031-.035-.032-.034-.033-.033-.034-.032-.035-.031-.035-.03-.036-.03-.037-.029-.037-.028-.038-.027-.039-.026-.04-.025-.04-.024-.041-.023-.041-.022-.042-.021-.043-.02-.043-.02-.044-.018-.044-.017-.045-.016-.045-.015-.046-.013-.046-.013-.047-.012-.048-.01-.047-.009-.049-.008-.048-.007-.049-.006-.049-.004-.05-.003-.05-.002-.051-.001-.05V3.964l.001-.05.002-.051.003-.05.004-.05.006-.049.007-.049.008-.048.009-.049.01-.047.012-.048.013-.047.013-.046.015-.046.016-.045.017-.045.018-.044.02-.044.02-.043.021-.043.022-.042.023-.041.024-.041.025-.04.026-.04.027-.039.028-.038.029-.037.03-.037.03-.036.031-.035.032-.035.033-.034.034-.033.035-.032.035-.031.036-.03.037-.03.037-.029.038-.028.039-.027.04-.026.04-.025.041-.024.041-.023.042-.022.043-.021.043-.02.044-.02.044-.018.045-.017.045-.016.046-.015.046-.013.047-.013.048-.012.047-.01.049-.009.048-.008.049-.007.049-.006.05-.004.05-.003.051-.002.05-.001h12.072l.05.001zM6 4v16h12V4H6z"/><path d="M12.103 11.001l.103.004.102.007.101.009.1.011.1.014.099.017.098.018.097.022.096.023.096.026.094.028.093.03.093.033.091.035.09.037.09.039.088.041.086.043.086.045.084.047.083.049.082.052.081.053.079.054.078.057.076.059.075.06.073.062.072.064.07.065.069.067.067.069.065.07.064.072.062.073.06.075.059.076.057.078.054.079.053.081.052.082.049.083.047.084.045.086.043.086.041.088.039.09.037.09.035.091.033.093.03.093.028.094.026.096.023.096.022.097.018.098.017.099.014.1.011.1.009.101.007.102.004.103L16 15l-.001.103-.004.103-.007.102-.009.101-.011.1-.014.1-.017.099-.018.098-.022.097-.023.096-.026.096-.028.094-.03.093-.033.093-.035.091-.037.09-.039.09-.041.088-.043.086-.045.086-.047.084-.049.083-.052.082-.053.081-.054.079-.057.078-.059.076-.06.075-.062.073-.064.072-.065.07-.067.069-.069.067-.07.065-.072.064-.073.062-.075.06-.076.059-.078.057-.079.054-.081.053-.082.052-.083.049-.084.047-.086.045-.086.043-.088.041-.09.039-.09.037-.091.035-.093.033-.093.03-.094.028-.096.026-.096.023-.097.022-.098.018-.099.017-.1.014-.1.011-.101.009-.102.007-.103.004L12 19l-.103-.001-.103-.004-.102-.007-.101-.009-.1-.011-.1-.014-.099-.017-.098-.018-.097-.022-.096-.023-.096-.026-.094-.028-.093-.03-.093-.033-.091-.035-.09-.037-.09-.039-.088-.041-.086-.043-.086-.045-.084-.047-.083-.049-.082-.052-.081-.053-.079-.054-.078-.057-.076-.059-.075-.06-.073-.062-.072-.064-.07-.065-.069-.067-.067-.069-.065-.07-.064-.072-.062-.073-.06-.075-.059-.076-.057-.078-.054-.079-.053-.081-.052-.082-.049-.083-.047-.084-.045-.086-.043-.086-.041-.088-.039-.09-.037-.09-.035-.091-.033-.093-.03-.093-.028-.094-.026-.096-.023-.096-.022-.097-.018-.098-.017-.099-.014-.1-.011-.1-.009-.101-.007-.102-.004-.103L8 15l.001-.103.004-.103.007-.102.009-.101.011-.1.014-.1.017-.099.018-.098.022-.097.023-.096.026-.096.028-.094.03-.093.033-.093.035-.091.037-.09.039-.09.041-.088.043-.086.045-.086.047-.084.049-.083.052-.082.053-.081.054-.079.057-.078.059-.076.06-.075.062-.073.064-.072.065-.07.067-.069.069-.067.07-.065.072-.064.073-.062.075-.06.076-.059.078-.057.079-.054.081-.053.082-.052.083-.049.084-.047.086-.045.086-.043.088-.041.09-.039.09-.037.091-.035.093-.033.093-.03.094-.028.096-.026.096-.023.097-.022.098-.018.099-.017.1-.014.1-.011.101-.009.102-.007.103-.004L12 11l.103.001zm-.155 2l-.052.002-.052.003-.05.005-.051.005-.049.007-.05.008-.048.01-.049.01-.047.012-.047.013-.047.014-.047.015-.046.016-.045.017-.045.018-.044.02-.044.02-.043.022-.043.022-.042.024-.041.024-.042.026-.04.027-.039.027-.039.029-.039.029-.038.03-.036.031-.037.033-.035.033-.034.033-.034.035-.034.036-.031.035-.032.037-.03.038-.029.038-.029.04-.027.039-.027.041-.025.04-.025.042-.024.042-.022.043-.022.043-.02.044-.02.045-.018.043-.017.046-.016.046-.015.046-.014.048-.013.047-.012.047-.01.049-.01.048-.008.049-.007.05-.005.051-.005.051-.003.051-.002.051L10 15l.001.053.002.051.003.051.005.051.005.051.007.05.008.049.01.048.01.049.012.047.013.047.014.048.015.046.016.046.017.046.018.043.02.045.02.044.022.043.022.043.024.042.025.042.025.04.027.041.027.039.029.04.029.038.03.038.032.037.031.035.034.036.034.035.034.033.035.033.037.033.036.031.038.03.039.029.039.029.039.027.04.027.042.026.041.024.042.024.043.022.043.022.044.02.044.02.045.018.045.017.046.016.047.015.047.014.047.013.047.012.049.01.048.01.05.008.049.007.051.005.05.005.052.003.052.002L12 17l.052-.001.052-.002.052-.003.05-.005.051-.005.049-.007.05-.008.048-.01.049-.01.047-.012.047-.013.047-.014.047-.015.046-.016.045-.017.045-.018.044-.02.044-.02.043-.022.043-.022.042-.024.041-.024.042-.026.04-.027.039-.027.039-.029.039-.029.038-.03.036-.031.037-.033.035-.033.034-.033.034-.035.034-.036.031-.035.032-.037.03-.038.029-.038.029-.04.027-.039.027-.041.025-.04.025-.042.024-.042.022-.043.022-.043.02-.044.02-.045.018-.043.017-.046.016-.046.015-.046.014-.048.013-.047.012-.047.01-.049.01-.048.008-.049.007-.05.005-.051.005-.051.003-.051.002-.051L14 15l-.001-.053-.002-.051-.003-.051-.005-.051-.005-.051-.007-.05-.008-.049-.01-.048-.01-.049-.012-.047-.013-.047-.014-.048-.015-.046-.016-.046-.017-.046-.018-.043-.02-.045-.02-.044-.022-.043-.022-.043-.024-.042-.025-.042-.025-.04-.027-.041-.027-.039-.029-.04-.029-.038-.03-.038-.032-.037-.031-.035-.034-.036-.034-.035-.034-.033-.035-.033-.037-.033-.036-.031-.038-.03-.039-.029-.039-.029-.039-.027-.04-.027-.042-.026-.041-.024-.042-.024-.043-.022-.043-.022-.044-.02-.044-.02-.045-.018-.045-.017-.046-.016-.047-.015-.047-.014-.047-.013-.047-.012-.049-.01-.048-.01-.05-.008-.049-.007-.051-.005-.05-.005-.052-.003-.052-.002L12 13l-.052.001z"/><circle cx="12.01" cy="7.5" r="2.5"/><circle cx="12" cy="15" r="1"/></svg>