<svg viewBox="0 0 24 24" xmlns="http://www.w3.org/2000/svg" fill-rule="evenodd" clip-rule="evenodd" stroke-linejoin="round" stroke-miterlimit="1.414"><path d="M12.129 2.001l.129.002.128.004.128.006.128.007.127.009.127.011.126.012.126.013.125.015.125.017.124.018.124.02.123.021.123.023.122.024.122.026.121.027.121.029.12.03.119.032.119.033.119.034.117.036.117.037.117.039.116.04.115.041.114.043.114.044.113.046.113.046.112.048.111.05.11.051.11.052.109.053.108.055.107.056.107.057.106.058.105.06.104.061.104.062.102.063.102.064.101.066.1.067.1.068.098.069.098.07.097.072.095.072.095.074.094.075.093.076.093.077.091.078.09.079.089.08.089.081.087.083.086.083.086.084.084.086.083.086.083.087.081.089.08.089.079.09.078.091.077.093.076.093.075.094.074.095.072.095.072.097.07.098.069.098.068.1.067.1.066.101.064.102.063.102.062.104.061.104.06.105.058.106.057.107.056.107.055.108.053.109.052.11.051.11.05.111.048.112.046.113.046.113.044.114.043.114.041.115.04.116.039.117.037.117.036.117.034.119.033.119.032.119.03.12.029.121.027.121.026.122.024.122.023.123.021.123.02.124.018.124.017.125.015.125.013.126.012.126.011.127.009.127.007.128.006.128.004.128.002.129L22 12l-.001.129-.002.129-.004.128-.006.128-.007.128-.009.127-.011.127-.012.126-.013.126-.015.125-.017.125-.018.124-.02.124-.021.123-.023.123-.024.122-.026.122-.027.121-.029.121-.03.12-.032.119-.033.119-.034.119-.036.117-.037.117-.039.117-.04.116-.041.115-.043.114-.044.114-.046.113-.046.113-.048.112-.05.111-.051.11-.052.11-.053.109-.055.108-.056.107-.057.107-.058.106-.06.105-.061.104-.062.104-.063.102-.064.102-.066.101-.067.1-.068.1-.069.098-.07.098-.072.097-.072.095-.074.095-.075.094-.076.093-.077.093-.078.091-.079.09-.08.089-.081.089-.083.087-.083.086-.084.086-.086.084-.086.083-.087.083-.089.081-.089.08-.09.079-.091.078-.093.077-.093.076-.094.075-.095.074-.095.072-.097.072-.098.07-.098.069-.1.068-.1.067-.101.066-.102.064-.102.063-.104.062-.104.061-.105.06-.106.058-.107.057-.107.056-.108.055-.109.053-.11.052-.11.051-.111.05-.112.048-.113.046-.113.046-.114.044-.114.043-.115.041-.116.04-.117.039-.117.037-.117.036-.119.034-.119.033-.119.032-.12.03-.121.029-.121.027-.122.026-.122.024-.123.023-.123.021-.124.02-.124.018-.125.017-.125.015-.126.013-.126.012-.127.011-.127.009-.128.007-.128.006-.128.004-.129.002L12 22l-.129-.001-.129-.002-.128-.004-.128-.006-.128-.007-.127-.009-.127-.011-.126-.012-.126-.013-.125-.015-.125-.017-.124-.018-.124-.02-.123-.021-.123-.023-.122-.024-.122-.026-.121-.027-.121-.029-.12-.03-.119-.032-.119-.033-.119-.034-.117-.036-.117-.037-.117-.039-.116-.04-.115-.041-.114-.043-.114-.044-.113-.046-.113-.046-.112-.048-.111-.05-.11-.051-.11-.052-.109-.053-.108-.055-.107-.056-.107-.057-.106-.058-.105-.06-.104-.061-.104-.062-.102-.063-.102-.064-.101-.066-.1-.067-.1-.068-.098-.069-.098-.07-.097-.072-.095-.072-.095-.074-.094-.075-.093-.076-.093-.077-.091-.078-.09-.079-.089-.08-.089-.081-.087-.083-.086-.083-.086-.084-.084-.086-.083-.086-.083-.087-.081-.089-.08-.089-.079-.09-.078-.091-.077-.093-.076-.093-.075-.094-.074-.095-.072-.095-.072-.097-.07-.098-.069-.098-.068-.1-.067-.1-.066-.101-.064-.102-.063-.102-.062-.104-.061-.104-.06-.105-.058-.106-.057-.107-.056-.107-.055-.108-.053-.109-.052-.11-.051-.11-.05-.111-.048-.112-.046-.113-.046-.113-.044-.114-.043-.114-.041-.115-.04-.116-.039-.117-.037-.117-.036-.117-.034-.119-.033-.119-.032-.119-.03-.12-.029-.121-.027-.121-.026-.122-.024-.122-.023-.123-.021-.123-.02-.124-.018-.124-.017-.125-.015-.125-.013-.126-.012-.126-.011-.127-.009-.127-.007-.128-.006-.128-.004-.128-.002-.129L2 12l.001-.129.002-.129.004-.128.006-.128.007-.128.009-.127.011-.127.012-.126.013-.126.015-.125.017-.125.018-.124.02-.124.021-.123.023-.123.024-.122.026-.122.027-.121.029-.121.03-.12.032-.119.033-.119.034-.119.036-.117.037-.117.039-.117.04-.116.041-.115.043-.114.044-.114.046-.113.046-.113.048-.112.05-.111.051-.11.052-.11.053-.109.055-.108.056-.107.057-.107.058-.106.06-.105.061-.104.062-.104.063-.102.064-.102.066-.101.067-.1.068-.1.069-.098.07-.098.072-.097.072-.095.074-.095.075-.094.076-.093.077-.093.078-.091.079-.09.08-.089.081-.089.083-.087.083-.086.084-.086.086-.084.086-.083.087-.083.089-.081.089-.08.09-.079.091-.078.093-.077.093-.076.094-.075.095-.074.095-.072.097-.072.098-.07.098-.069.1-.068.1-.067.101-.066.102-.064.102-.063.104-.062.104-.061.105-.06.106-.058.107-.057.107-.056.108-.055.109-.053.11-.052.11-.051.111-.05.112-.048.113-.046.113-.046.114-.044.114-.043.115-.041.116-.04.117-.039.117-.037.117-.036.119-.034.119-.033.119-.032.12-.03.121-.029.121-.027.122-.026.122-.024.123-.023.123-.021.124-.02.124-.018.125-.017.125-.015.126-.013.126-.012.127-.011.127-.009.128-.007.128-.006.128-.004.129-.002L12 2l.129.001zm-.233 2l-.103.002-.103.003-.103.004-.102.006-.102.007-.101.009-.101.009-.102.011-.1.012-.099.014-.099.014-.1.016-.098.017-.098.018-.098.02-.097.02-.097.022-.096.023-.096.024-.096.025-.094.026-.095.028-.094.029-.093.029-.093.031-.093.032-.092.033-.091.034-.091.036-.091.036-.089.037-.09.039-.088.039-.088.041-.088.041-.087.043-.087.044-.086.044-.085.046-.085.047-.083.047-.084.049-.083.05-.082.05-.081.052-.081.052-.081.054-.079.054-.079.056-.078.056-.078.057-.076.058-.076.059-.076.06-.074.061-.074.062-.073.062-.072.064-.072.064-.071.065-.07.066-.069.067-.068.068-.068.068-.067.069-.066.07-.065.071-.064.072-.064.072-.062.073-.062.074-.061.074-.06.076-.059.076-.058.077-.057.077-.056.078-.056.079-.054.079-.053.08-.053.081-.052.082-.05.082-.05.083-.049.083-.047.084-.047.085-.046.085-.044.086-.044.087-.043.087-.041.087-.041.089-.039.088-.039.09-.037.09-.037.09-.035.091-.034.091-.033.092-.032.093-.031.093-.029.093-.029.094-.028.095-.026.095-.025.095-.024.096-.023.096-.022.097-.02.097-.02.098-.018.098-.017.098-.016.099-.014.1-.014.1-.012.1-.011.101-.009.101-.009.101-.007.102-.006.102-.004.103-.003.103-.002.103L4 12l.001.104.002.103.003.103.004.103.006.102.007.102.009.101.009.101.011.101.012.1.014.1.014.1.016.099.017.098.018.098.02.098.02.097.022.097.023.096.024.096.025.095.026.095.028.095.029.094.029.093.031.093.032.093.033.092.034.091.035.091.037.09.037.09.039.09.039.088.041.089.041.087.043.087.044.087.044.086.046.085.047.085.047.084.049.083.05.083.05.082.052.082.053.081.053.08.054.079.056.079.056.078.057.077.058.077.059.076.06.076.061.074.062.074.062.073.064.072.064.072.065.071.066.07.067.069.068.068.068.068.069.067.07.066.071.065.072.064.072.064.073.062.074.062.074.061.076.06.076.059.076.058.078.057.078.056.079.056.079.054.081.054.081.052.081.052.082.05.083.05.084.049.083.047.085.047.085.046.086.044.087.044.087.043.088.041.088.041.088.039.09.039.089.037.091.036.091.036.091.034.092.033.093.032.093.031.093.029.094.029.095.028.094.026.096.025.096.024.096.023.097.022.097.02.098.02.098.018.098.017.1.016.099.014.099.014.1.012.102.011.101.009.101.009.102.007.102.006.103.004.103.003.103.002L12 20l.104-.001.103-.002.103-.003.103-.004.102-.006.102-.007.101-.009.101-.009.102-.011.1-.012.099-.014.099-.014.1-.016.098-.017.098-.018.098-.02.097-.02.097-.022.096-.023.096-.024.096-.025.094-.026.095-.028.094-.029.093-.029.093-.031.093-.032.092-.033.091-.034.091-.036.091-.036.089-.037.09-.039.088-.039.088-.041.088-.041.087-.043.087-.044.086-.044.085-.046.085-.047.083-.047.084-.049.083-.05.082-.05.081-.052.081-.052.081-.054.079-.054.079-.056.078-.056.078-.057.076-.058.076-.059.076-.06.074-.061.074-.062.073-.062.072-.064.072-.064.071-.065.07-.066.069-.067.068-.068.068-.068.067-.069.066-.07.065-.071.064-.072.064-.072.062-.073.062-.074.061-.074.06-.076.059-.076.058-.077.057-.077.056-.078.056-.079.054-.079.053-.08.053-.081.052-.082.05-.082.05-.083.049-.083.047-.084.047-.085.046-.085.044-.086.044-.087.043-.087.041-.087.041-.089.039-.088.039-.09.037-.09.037-.09.035-.091.034-.091.033-.092.032-.093.031-.093.029-.093.029-.094.028-.095.026-.094.025-.096.024-.096.023-.096.022-.097.02-.097.02-.098.018-.098.017-.098.016-.099.014-.1.014-.1.012-.1.011-.1.009-.102.009-.101.007-.102.006-.102.004-.103.003-.103.002-.103L20 12l-.001-.104-.002-.103-.003-.103-.004-.103-.006-.102-.007-.102-.009-.101-.009-.102-.011-.1-.012-.1-.014-.1-.014-.1-.016-.099-.017-.098-.018-.098-.02-.098-.02-.097-.022-.097-.023-.096-.024-.096-.025-.096-.026-.094-.028-.095-.029-.094-.029-.093-.031-.093-.032-.093-.033-.092-.034-.091-.035-.091-.037-.09-.037-.09-.039-.09-.039-.088-.041-.089-.041-.087-.043-.087-.044-.087-.044-.086-.046-.085-.047-.085-.047-.084-.049-.083-.05-.083-.05-.082-.052-.082-.053-.081-.053-.08-.054-.079-.056-.079-.056-.078-.057-.077-.058-.077-.059-.076-.06-.076-.061-.074-.062-.074-.062-.073-.064-.072-.064-.072-.065-.071-.066-.07-.067-.069-.068-.068-.068-.068-.069-.067-.07-.066-.071-.065-.072-.064-.072-.064-.073-.062-.074-.062-.074-.061-.076-.06-.076-.059-.076-.058-.078-.057-.078-.056-.079-.056-.079-.054-.081-.054-.081-.052-.081-.052-.082-.05-.083-.05-.084-.049-.083-.047-.085-.047-.085-.046-.086-.044-.087-.044-.087-.043-.088-.041-.088-.041-.088-.039-.09-.039-.089-.037-.091-.036-.091-.036-.091-.034-.092-.033-.093-.032-.093-.031-.093-.029-.094-.029-.095-.028-.094-.026-.096-.025-.096-.024-.096-.023-.097-.022-.097-.02-.098-.02-.098-.018-.098-.017-.1-.016-.099-.014-.099-.014-.1-.012-.102-.011-.101-.009-.101-.009-.102-.007-.102-.006-.103-.004-.103-.003-.103-.002L12 4l-.104.001z"/><path d="M6.343 4.929L4.929 6.343l12.728 12.728 1.414-1.414L6.343 4.929z"/></svg>