<svg viewBox="0 0 24 24" xmlns="http://www.w3.org/2000/svg" fill-rule="evenodd" clip-rule="evenodd" stroke-linejoin="round" stroke-miterlimit="1.414"><path d="M18 21H6v-9h12v9zM8 14v5h8v-5H8z"/><path d="M16.052 3.001l.049.001.049.004.049.004.049.005.049.007.048.008.049.009.047.01.048.011.047.013.047.013.047.015.046.016.045.017.046.018.044.019.045.021.044.021.043.022.043.024.042.024.041.026.041.027.041.027.04.029.039.03.038.03.038.032.037.033.036.034.036.034.034.036.034.036.033.037.032.038.03.038.03.039.029.04.027.041.027.041.026.041.024.042.024.043.022.043.021.044.021.045.019.044.018.046.017.045.016.046.015.047.013.047.013.047.011.048.01.047.009.049.008.048.007.049.005.049.004.049.004.049.001.049L18 5l2.333 3L22 10h-1v9l-.001.05-.001.049-.004.05-.004.049-.005.049-.007.048-.008.049-.009.048-.01.048-.011.047-.013.048-.013.047-.015.046-.016.046-.017.046-.018.045-.019.045-.021.045-.021.043-.023.044-.023.043-.025.042-.025.042-.027.041-.028.04-.028.04-.03.039-.031.039-.032.037-.032.037-.034.037-.035.035-.035.035-.037.034-.037.032-.037.032-.039.031-.039.03-.04.028-.04.028-.041.027-.042.025-.042.025-.043.023-.044.023-.043.021-.045.021-.045.019-.045.018-.046.017-.046.016-.046.015-.047.013-.048.013-.047.011-.048.01-.048.009-.049.008-.048.007-.049.005-.049.004-.05.004-.049.001L19 21H5l-.05-.001-.049-.001-.05-.004-.049-.004-.049-.005-.048-.007-.049-.008-.048-.009-.048-.01-.047-.011-.048-.013-.047-.013-.046-.015-.046-.016-.046-.017-.045-.018-.045-.019-.045-.021-.043-.021-.044-.023-.043-.023-.042-.025-.042-.025-.041-.027-.04-.028-.04-.028-.039-.03-.039-.031-.037-.032-.037-.032-.037-.034-.035-.035-.035-.035-.034-.037-.032-.037-.032-.037-.031-.039-.03-.039-.028-.04-.028-.04-.027-.041-.025-.042-.025-.042-.023-.043-.023-.044-.021-.043-.021-.045-.019-.045-.018-.045-.017-.046-.016-.046-.015-.046-.013-.047-.013-.048-.011-.047-.01-.048-.009-.048-.008-.049-.007-.048-.005-.049-.004-.049-.004-.05-.001-.049L3 19v-9H2l1-1.2.667-.8L6 5v-.002l.001-.05.001-.049.004-.049.004-.049.005-.049.007-.049.008-.048.009-.049.01-.047.011-.048.013-.047.013-.047.015-.047.016-.046.017-.045.018-.046.019-.044.021-.045.021-.044.022-.043.024-.043.024-.042.026-.041.027-.041.027-.041.029-.04.03-.039.03-.038.032-.038.033-.037.034-.036.034-.036.036-.034.036-.034.037-.033.038-.032.038-.03.039-.03.04-.029.041-.027.041-.027.041-.026.042-.024.043-.024.043-.022.044-.021.045-.021.044-.019.046-.018.045-.017.046-.016.047-.015.047-.013.047-.013.048-.011.047-.01.049-.009.048-.008.049-.007.049-.005.049-.004.049-.004.049-.001.05-.001h8.004l.05.001zM8.011 5H8v.686L5.225 9.254 5 9.524V19h14V9.524l-.225-.27L16 5.686V5H8.011z"/><path fill-rule="nonzero" d="M4 8h16v2H4zM11 13h2v7h-2z"/></svg>