<svg viewBox="0 0 24 24" xmlns="http://www.w3.org/2000/svg" fill-rule="evenodd" clip-rule="evenodd" stroke-linejoin="round" stroke-miterlimit="1.414"><path d="M20.034 4c.227.003.45.039.663.115.549.197.991.639 1.188 1.188.071.198.107.404.114.614.055 4.388.055 8.778 0 13.166a2.007 2.007 0 0 1-.131.659 1.978 1.978 0 0 1-1.171 1.143 2.009 2.009 0 0 1-.614.114c-5.388.067-10.778.067-16.166 0a2.007 2.007 0 0 1-.659-.131 1.978 1.978 0 0 1-1.143-1.171 2.009 2.009 0 0 1-.114-.614 525.304 525.304 0 0 1 0-13.166c.008-.226.049-.448.131-.659a1.978 1.978 0 0 1 1.171-1.143c.198-.071.404-.107.614-.114C9.289 3.934 14.662 4 20.034 4zM20 18H4v1h16v-1zM4 9v7h16V9H4zm16-2V6H4v1h16z"/></svg>