<svg viewBox="0 0 24 24" xmlns="http://www.w3.org/2000/svg" fill-rule="evenodd" clip-rule="evenodd" stroke-linejoin="round" stroke-miterlimit="1.414"><path d="M12.053 3.011c.36.013.71.113 1.016.305.111.069.213.15.309.239a409.757 409.757 0 0 1 7.253 7.19c.147.156.27.33.362.523.249.522.258 1.138.024 1.667-.093.211-.223.4-.38.569a406.54 406.54 0 0 1-7.133 7.133 2.053 2.053 0 0 1-.569.38 2.012 2.012 0 0 1-1.667-.025 2.069 2.069 0 0 1-.523-.361 414.826 414.826 0 0 1-7.172-7.239 2.027 2.027 0 0 1-.543-1.321c-.029-2.367-.03-4.734 0-7.1.009-.234.052-.463.137-.68a2.014 2.014 0 0 1 1.17-1.144c.204-.075.417-.112.634-.121 2.36-.035 4.722-.039 7.082-.015zM5.038 5.025h-.009c-.029 2.328 0 4.656 0 6.985v.01c2.334 2.416 4.728 4.773 7.092 7.159l.007.007c2.378-2.323 4.701-4.701 7.052-7.052l.006-.006c-2.361-2.4-4.781-4.74-7.171-7.109l-.008-.008c-2.323-.024-4.646.009-6.969.014z" fill-rule="nonzero"/><path d="M10 7.172A2 2 0 1 1 7.172 10 2 2 0 0 1 10 7.172z"/></svg>