<svg viewBox="0 0 24 24" xmlns="http://www.w3.org/2000/svg" fill-rule="evenodd" clip-rule="evenodd" stroke-linejoin="round" stroke-miterlimit="1.414"><path d="M16.972 2.537l.048.002.049.002.047.004.048.006.048.006.047.007.048.009.047.009.046.011.047.012.046.013.046.014.046.015.045.017.044.017.045.018.044.02.043.02.043.022.043.023.042.023.041.025.041.026.041.026.039.028.04.029.038.03.038.031.037.032.037.033.035.033.035.035.034.036.034.037.032.037.032.039.031.04.03.04.029.042.029.042.027.044.026.044 1 1.732-.044.026-.044.028-.042.028-.042.03-.04.03-.04.031-.039.032-.037.032-.037.034-.036.034-.035.035-.034.036-.033.037-.032.037-.03.038-.03.038-.029.04-.028.04-.027.04-.025.041-.025.042-.024.042-.023.042-.021.043-.021.044-.019.044-.019.044-.017.045-.016.045-.015.046-.014.046-.013.046-.012.046-.011.047-.009.047-.009.047-.007.048-.007.047-.005.048-.004.048-.003.048-.001.048-.001.049.001.048.002.048.003.049.004.048.005.048.007.048.008.049.009.048.01.048.011.048.013.047.014.048.015.047.016.047.018.047.019.047.02.046.021.046.023.046.024.045.025.045.027.044.027.044.028.042.029.042.03.04.031.04.032.039.033.037.033.037.034.036.035.035.036.033.036.033.038.032.037.031.039.03.039.029.04.027.04.027.041.026.042.025.042.023.042.023.043.022.044.02.044.02.044.018.045.017.045.017.045.015.046.014.047.013.046.012.047.01.047.01.047.009.048.007.047.006.048.005.048.004.048.003.048.002h.097l.048-.002.049-.003.048-.004.049-.005.048-.007.048-.008.048-.009.048-.01.048-.011.048-.013.048-.014.047-.015.047-.016.047-.018.047-.019.047-.02.046-.021.046-.023.045-.024.045-.025 1 1.732.025.045.024.045.023.046.021.046.021.046.018.047.018.047.016.047.015.047.014.048.013.047.011.048.011.048.009.048.007.049.007.048.005.048.005.049.003.048.001.048.001.049v.048l-.002.048-.003.048-.004.048-.005.048-.006.047-.008.048-.008.047-.01.047-.01.047-.012.046-.013.046-.014.046-.015.046-.017.045-.017.045-.018.044-.02.044-.02.044-.022.043-.023.042-.023.043-.025.041-.026.041-.027.041-.027.039-.029.04-.03.038-.031.038-.032.037-.033.037-.034.036-.034.035-.036.034-.037.034-.038.032-.039.032-.039.031-.041.031-.041.029-.043.028-.043.028-.045.026-13.856 8-.045.025-.046.024-.045.023-.046.021-.047.021-.046.018-.047.018-.047.016-.048.015-.047.014-.048.013-.048.011-.048.011-.048.009-.048.007-.049.007-.048.005-.049.005-.048.003-.048.001-.049.001h-.048l-.048-.002-.048-.003-.048-.004-.048-.005-.048-.006-.047-.008-.047-.008-.047-.01-.047-.011-.047-.011-.046-.013-.046-.014-.045-.016-.046-.016-.044-.017-.045-.019-.044-.019-.043-.021-.043-.021-.043-.023-.042-.024-.042-.024-.041-.026-.04-.027-.04-.028-.039-.029-.039-.029-.037-.031-.038-.032-.036-.033-.036-.034-.035-.035-.034-.036-.034-.036-.032-.038-.032-.039-.031-.039-.03-.041-.029-.042-.029-.042-.027-.044-.026-.044-1-1.732.044-.026.044-.028.042-.028.042-.03.04-.03.04-.031.039-.032.037-.032.037-.034.036-.034.035-.035.034-.036.033-.037.032-.037.03-.038.03-.038.029-.04.028-.04.027-.04.025-.041.025-.042.024-.042.023-.042.021-.043.021-.044.019-.044.019-.044.017-.045.016-.045.015-.046.014-.046.013-.046.012-.046.011-.047.009-.047.009-.047.007-.048.007-.047.005-.048.004-.048.003-.048.001-.048.001-.049-.001-.048-.002-.048-.003-.049-.004-.048-.005-.048-.007-.048-.008-.049-.009-.048-.01-.048-.011-.048-.013-.047-.014-.048-.015-.047-.016-.047-.018-.047-.019-.047-.02-.046-.021-.046-.023-.046-.024-.045L5.072 16l-.027-.044-.027-.044-.028-.042-.029-.042-.03-.04-.031-.04-.032-.039-.033-.037-.033-.037-.034-.036-.035-.035-.036-.033-.036-.033-.038-.032-.037-.031-.039-.03-.039-.029-.04-.027-.04-.027-.041-.026-.042-.025-.042-.023-.042-.023-.043-.022-.044-.02-.044-.02-.044-.018-.045-.017-.045-.017-.045-.015-.046-.014-.047-.013-.046-.012-.047-.01-.047-.01-.047-.009-.048-.007-.047-.006-.048-.005-.048-.004-.048-.003-.048-.002h-.097l-.048.002-.049.003-.048.004-.049.005-.048.007-.048.008-.048.009-.048.01-.048.011-.048.013-.048.014-.047.015-.047.016-.047.018-.047.019-.047.02-.046.021-.046.023-.045.024-.045.025-1-1.732-.025-.045-.024-.045-.023-.046-.021-.046-.021-.046-.018-.047-.018-.047-.016-.047-.015-.047-.014-.048-.013-.047-.011-.048-.011-.048-.009-.048-.007-.049-.007-.048-.005-.048-.005-.049-.003-.048-.001-.048-.001-.049v-.048l.002-.048.003-.048.004-.048.005-.048.006-.047.008-.048.008-.047.01-.047.01-.047.012-.046.013-.046.014-.046.015-.046.017-.045.017-.045.018-.044.02-.044.02-.044.022-.043.023-.042.023-.043.025-.041.026-.041.027-.041.027-.039.029-.04.03-.038.031-.038.032-.037.033-.037.034-.036.034-.035.036-.034.037-.034.038-.032.039-.032.039-.031.041-.031.041-.029.043-.028.043-.028.045-.026 13.856-8 .045-.025.046-.024.046-.023.046-.021.046-.02.047-.019.047-.018.047-.016.048-.015.047-.014.048-.013.048-.011.048-.01.048-.009.049-.008.048-.007.048-.005.049-.004.048-.003.049-.002.048-.001.048.001zm-.046 2l-.01.006-13.832 7.986-.01.006-.001.001-.001.001.006.01.262.453.089.001.096.004.097.005.096.008.095.011.095.012.094.015.095.017.094.019.094.022.092.023.092.026.091.028.091.03.09.033.089.034.088.037.089.039.087.041.086.043.085.046.084.047.082.049.082.052.081.053.08.056.079.058.077.061.076.061.075.064.073.066.072.068.07.07.069.072.067.074.065.075.064.078.062.079.06.081.058.084.057.084.054.086.052.087.05.09.048.091.045.09.042.092.041.093.037.093.035.094.033.094.031.096.028.095.025.095.023.097.021.096.018.097.015.096.014.098.01.096.009.097.006.098.003.096.002.097-.001.097-.004.096-.005.096-.008.096-.01.095-.013.095-.014.094-.017.095-.02.094-.021.093-.024.092-.026.093-.027.091-.031.091-.032.09-.034.089-.037.089-.039.088-.041.087-.043.086-.046.085-.043.078.261.453.007.011.011-.006 13.832-7.987.011-.006h.001v-.001l.001-.001-.006-.01L20.66 11l-.089-.001-.096-.004-.097-.005-.095-.008-.096-.011-.096-.012-.093-.015-.095-.017-.094-.019-.092-.021-.094-.024-.092-.026-.091-.028-.091-.03-.09-.033-.09-.035-.088-.036-.087-.039-.086-.041-.088-.043-.085-.046-.084-.047-.082-.049-.082-.052-.082-.054-.08-.056-.078-.057-.077-.06-.076-.062-.075-.064-.073-.066-.072-.068-.071-.07-.068-.072-.067-.073-.065-.076-.064-.078-.062-.08-.06-.08-.058-.083-.057-.085-.054-.086L17.196 9l-.05-.089-.047-.09-.046-.091-.042-.092-.041-.093-.037-.093-.036-.094-.032-.094-.031-.095-.028-.096-.025-.096-.023-.096-.021-.096-.018-.097-.015-.097-.013-.096-.011-.098-.009-.097-.006-.096-.003-.097-.002-.097.001-.096.004-.097.005-.096.008-.095.01-.096.013-.095.014-.095.017-.094.02-.094.021-.093.024-.092.025-.093.028-.091.031-.09.032-.091.035-.089.036-.089.039-.088.041-.087.043-.085.045-.086.044-.078-.262-.453-.005-.01h-.003z"/><path fill="none" d="M0 0h24v24H0z"/></svg>