<svg viewBox="0 0 24 24" xmlns="http://www.w3.org/2000/svg" fill-rule="evenodd" clip-rule="evenodd" stroke-linejoin="round" stroke-miterlimit="1.414"><path d="M8 4.937v2.321a7.068 7.068 0 0 0-2.196 2.483 6.976 6.976 0 0 0-.736 4.239c.096.683.293 1.351.585 1.975a7.035 7.035 0 0 0 3.625 3.495 6.978 6.978 0 0 0 2.631.549 6.997 6.997 0 0 0 2.656-.484 7.05 7.05 0 0 0 3.708-3.407 6.942 6.942 0 0 0 .646-2.041 6.964 6.964 0 0 0-.646-4.175A7.079 7.079 0 0 0 16 7.257v-2.32a9.095 9.095 0 0 1 4.015 3.967 8.988 8.988 0 0 1 .097 7.996 9.043 9.043 0 0 1-4.711 4.434A8.995 8.995 0 0 1 12 22a8.995 8.995 0 0 1-3.401-.666 9.02 9.02 0 0 1-5.512-7.076 8.988 8.988 0 0 1 .898-5.354A9.095 9.095 0 0 1 8 4.937z"/><path fill-rule="nonzero" d="M11 3h2v9h-2z"/></svg>