<svg viewBox="0 0 24 24" xmlns="http://www.w3.org/2000/svg" fill-rule="evenodd" clip-rule="evenodd" stroke-linejoin="round" stroke-miterlimit="1.414"><path d="M20.047 4.001l.049.001.05.004.049.004.049.005.049.007.048.008.048.009.048.01.048.011.047.013.047.014.047.014.046.016.046.017.045.018.045.02.045.02.044.021.043.023.043.024.042.024.042.026.041.027.041.027.04.029.039.03.038.031.038.031.037.033.037.034.035.035.035.035.034.037.033.037.031.038.031.038.03.039.029.04.027.041.027.041.026.042.024.042.024.043.023.043.021.044.02.045.02.045.018.045.017.046.016.046.014.047.014.047.013.047.011.048.01.048.009.048.008.048.007.049.005.049.004.049.004.05.001.049.001.05v9.994l-.001.05-.001.049-.004.05-.004.049-.005.049-.007.049-.008.048-.009.048-.01.048-.011.048-.013.047-.014.047-.014.047-.016.046-.017.046-.018.045-.02.045-.02.045-.021.044-.023.043-.024.043-.024.042-.026.042-.027.041-.027.041-.029.04-.03.039-.031.038-.031.038-.033.037-.034.037-.035.035-.035.035-.037.034-.037.033-.038.031-.038.031-.039.03-.04.029-.041.027-.041.027-.042.026-.042.024-.043.024-.043.023-.044.021-.045.02-.045.02-.045.018-.046.017-.046.016-.047.014-.047.014-.047.013-.048.011-.048.01-.048.009-.048.008-.049.007-.049.005-.049.004-.05.004-.049.001-.05.001H4.003l-.05-.001-.049-.001-.05-.004-.049-.004-.049-.005-.049-.007-.048-.008-.048-.009-.048-.01-.048-.011-.047-.013-.047-.014-.047-.014-.046-.016-.046-.017-.045-.018-.045-.02-.045-.02-.044-.021-.043-.023-.043-.024-.042-.024-.042-.026-.041-.027-.041-.027-.04-.029-.039-.03-.038-.031-.038-.031-.037-.033-.037-.034-.035-.035-.035-.035-.034-.037-.033-.037-.031-.038-.031-.038-.03-.039-.029-.04-.027-.041-.027-.041-.026-.042-.024-.042-.024-.043-.023-.043-.021-.044-.02-.045-.02-.045-.018-.045-.017-.046-.016-.046-.014-.047-.014-.047-.013-.047-.011-.048-.01-.048-.009-.048-.008-.048-.007-.049-.005-.049-.004-.049-.004-.05-.001-.049-.001-.05V6.003l.001-.05.001-.049.004-.05.004-.049.005-.049.007-.049.008-.048.009-.048.01-.048.011-.048.013-.047.014-.047.014-.047.016-.046.017-.046.018-.045.02-.045.02-.045.021-.044.023-.043.024-.043.024-.042.026-.042.027-.041.027-.041.029-.04.03-.039.031-.038.031-.038.033-.037.034-.037.035-.035.035-.035.037-.034.037-.033.038-.031.038-.031.039-.03.04-.029.041-.027.041-.027.042-.026.042-.024.043-.024.043-.023.044-.021.045-.02.045-.02.045-.018.046-.017.046-.016.047-.014.047-.014.047-.013.048-.011.048-.01.048-.009.048-.008.049-.007.049-.005.049-.004.05-.004.049-.001.05-.001h15.994l.05.001zM4.016 6H4.002v.001h-.001v.001H4V15.998l.003.002h15.995v-.001h.001l.001-.001V6.002h-.001v-.001h-.001V6H4.016z"/><path d="M18.002 20H6.024l2.994-2h5.989l2.995 2z"/></svg>