<svg viewBox="0 0 24 24" xmlns="http://www.w3.org/2000/svg" fill-rule="evenodd" clip-rule="evenodd" stroke-linejoin="round" stroke-miterlimit="1.414"><path d="M21.999 5.925a8.277 8.277 0 0 1-2.357.646 4.115 4.115 0 0 0 1.804-2.27 8.233 8.233 0 0 1-2.606.994A4.095 4.095 0 0 0 15.845 4a4.102 4.102 0 0 0-3.996 5.038 11.664 11.664 0 0 1-8.458-4.285 4.049 4.049 0 0 0-.555 2.062c0 1.425.725 2.679 1.825 3.415a4.102 4.102 0 0 1-1.859-.512v.05a4.108 4.108 0 0 0 3.292 4.025 4.196 4.196 0 0 1-1.853.07 4.11 4.11 0 0 0 3.834 2.849 8.24 8.24 0 0 1-5.096 1.755c-.332 0-.658-.018-.979-.056a11.623 11.623 0 0 0 6.29 1.843c7.547 0 11.675-6.25 11.675-11.673 0-.178-.005-.355-.013-.531.8-.579 1.498-1.3 2.048-2.125h-.001z" fill-rule="nonzero"/></svg>