<svg viewBox="0 0 24 24" xmlns="http://www.w3.org/2000/svg" fill-rule="evenodd" clip-rule="evenodd" stroke-linejoin="round" stroke-miterlimit="1.414"><path d="M18.052 9.001c.234.009.463.052.681.138.527.208.951.642 1.146 1.174.075.204.112.418.12.635.039 3.035.039 6.069 0 9.104a2.053 2.053 0 0 1-.12.635 2.021 2.021 0 0 1-1.146 1.174 2.061 2.061 0 0 1-.681.138 478.8 478.8 0 0 1-12.104 0 2.061 2.061 0 0 1-.681-.138 2.021 2.021 0 0 1-1.146-1.174 2.053 2.053 0 0 1-.12-.635 354.215 354.215 0 0 1 0-9.104c.008-.217.045-.431.12-.635a2.021 2.021 0 0 1 1.146-1.174c.218-.086.447-.129.681-.138a478.8 478.8 0 0 1 12.104 0zM6.013 11c-.005 0-.01-.002-.013 0-.003.003 0 .009 0 .013v8.974c0 .004-.003.01 0 .013.003.002.008 0 .013 0h11.974c.005 0 .01.002.013 0 .003-.003 0-.009 0-.013v-8.974c0-.004.003-.01 0-.013-.003-.002-.008 0-.013 0H6.013z" fill-rule="nonzero"/><circle cx="12" cy="16" r="2"/><path d="M18 11H6c0-1.376-.029-2.753.002-4.129a4.347 4.347 0 0 1 .559-1.983c.135-.24.291-.469.464-.683.821-1.011 2.007-1.687 3.262-1.998A7.273 7.273 0 0 1 11.923 2h.154c.576.01 1.149.08 1.706.225 1.249.324 2.426 1.011 3.232 2.03.183.233.347.481.484.744.146.277.263.57.347.872L17.88 6h-2.115c-.332-.687-.966-1.208-1.645-1.534a4.554 4.554 0 0 0-1.041-.353A5.375 5.375 0 0 0 11.944 4a5.38 5.38 0 0 0-.868.082 4.887 4.887 0 0 0-1.11.344 4.209 4.209 0 0 0-.378.194c-.711.411-1.342 1.061-1.531 1.883A2.255 2.255 0 0 0 8 6.966V9h10v2z"/></svg>