<svg viewBox="0 0 24 24" xmlns="http://www.w3.org/2000/svg" fill-rule="evenodd" clip-rule="evenodd" stroke-linejoin="round" stroke-miterlimit="1.414"><path d="M17.012 15.922l-.013 1.119a2.085 2.085 0 0 1-.121.64 2.03 2.03 0 0 1-1.152 1.18c-.219.086-.45.129-.685.138-3.694.047-7.388.047-11.082 0a2.085 2.085 0 0 1-.64-.121 2.03 2.03 0 0 1-1.18-1.152 2.084 2.084 0 0 1-.138-.685 352.505 352.505 0 0 1 0-9.082c.009-.235.052-.466.138-.685a2.03 2.03 0 0 1 1.18-1.152c.206-.075.421-.113.64-.121C7.635 5.954 11.312 6 14.989 6c.237.003.469.041.692.122.55.202.995.647 1.197 1.197.075.206.113.421.121.64.009.697.016 1.394.021 2.091 1.206-.524 2.413-1.045 3.649-1.493.079-.026.158-.043.241-.052a1.049 1.049 0 0 1 .45.065 1.011 1.011 0 0 1 .638.873 76.031 76.031 0 0 1 0 7.114c-.01.134-.043.264-.103.384a1.012 1.012 0 0 1-.893.557 1.037 1.037 0 0 1-.392-.077l-3.598-1.499zM15 10.917V8.025c0-.009.003-.016-.004-.022-.002-.002-.003-.003-.006-.003-3.655-.046-7.311 0-10.966 0-.012 0-.017-.002-.023.006-.004.005-.001.013-.001.019v8.95c0 .009-.003.016.004.022.002.002.003.003.006.003 3.655.046 7.311 0 10.966 0 .01 0 .016.002.022-.004.004-.006.002-.015.002-.021v-6.058zm2.028 1.321c0 .508 0 1.015-.002 1.523L20 15v-4l-2.972 1.238z"/></svg>