<svg viewBox="0 0 24 24" xmlns="http://www.w3.org/2000/svg" fill-rule="evenodd" clip-rule="evenodd" stroke-linejoin="round" stroke-miterlimit="1.414"><path d="M12.102 5.001c.396.012.789.048 1.179.119 1.678.305 3.212 1.151 4.545 2.189a18.345 18.345 0 0 1 1.435 1.255c.331.323.65.657.958 1.001.512.572.996 1.17 1.437 1.799l.434.636c-.165.242-.328.487-.498.727a20.366 20.366 0 0 1-2.805 3.154c-.253.229-.511.451-.777.665-1.444 1.159-3.133 2.104-4.986 2.376a7.22 7.22 0 0 1-1.982.018 8.478 8.478 0 0 1-2.218-.617c-1.152-.489-2.212-1.192-3.166-1.998a19.777 19.777 0 0 1-2.176-2.156 19.5 19.5 0 0 1-1.201-1.532L1.846 12c.166-.242.328-.487.498-.726a20.88 20.88 0 0 1 2.643-3.006c.891-.828 1.867-1.576 2.938-2.156a9.297 9.297 0 0 1 2.603-.968 7.958 7.958 0 0 1 1.172-.139c.134-.004.268-.005.402-.004zm-.23 2a5.593 5.593 0 0 0-.764.071 6.821 6.821 0 0 0-1.869.613c-.798.386-1.535.893-2.218 1.457a16.29 16.29 0 0 0-1.586 1.507c-.392.423-.764.864-1.117 1.319L4.294 12c.393.515.816 1.008 1.261 1.479.461.488.949.951 1.467 1.379.81.67 1.7 1.263 2.676 1.663a6.343 6.343 0 0 0 1.695.447c.255.028.511.038.767.028 1.263-.048 2.463-.558 3.516-1.231a11.98 11.98 0 0 0 1.16-.843c.258-.209.508-.428.751-.654.316-.294.621-.601.914-.917.393-.423.764-.863 1.117-1.319l.025-.032a18.361 18.361 0 0 0-2.056-2.268c-.218-.203-.442-.4-.672-.59-.683-.564-1.419-1.071-2.218-1.457a6.814 6.814 0 0 0-1.868-.613 5.574 5.574 0 0 0-.957-.071z" fill-rule="nonzero"/><circle cx="12" cy="12" r="3"/></svg>