<svg viewBox="0 0 24 24" xmlns="http://www.w3.org/2000/svg" fill-rule="evenodd" clip-rule="evenodd" stroke-linejoin="round" stroke-miterlimit="1.414"><path d="M15 9.614c1.205.63 2 1.916 2 3.386 0 1.47-.795 2.756-2 3.386V9.614zM13 22l-6-6H5l-.052-.001-.051-.004-.051-.007-.05-.01-.051-.011-.049-.015-.05-.017-.049-.019-.048-.021-.049-.024-.047-.025-.047-.028-.047-.03-.046-.032-.046-.034-.045-.036-.045-.037-.044-.039-.043-.041-.043-.042-.042-.044-.042-.046-.041-.047-.04-.048-.039-.05-.039-.051-.038-.052-.038-.053-.037-.054-.035-.055-.036-.056-.034-.057-.033-.058-.033-.058-.032-.06-.031-.059-.03-.061-.029-.061-.029-.061-.027-.062-.027-.062-.025-.062-.025-.062-.023-.063-.023-.063-.022-.062-.02-.063-.02-.063-.018-.062-.018-.062-.016-.062-.015-.061-.014-.061-.013-.061-.012-.06-.01-.059-.01-.059-.008-.058-.007-.057-.006-.056-.004-.056-.003-.054-.002-.054L3 13v-2l.001-.052.002-.054.003-.054.004-.056.006-.056.007-.057.008-.058.01-.059.01-.059.012-.06.013-.061.014-.061.015-.061.016-.062.018-.062.018-.062.02-.063.02-.063.022-.062.023-.063.023-.063.025-.062.025-.062.027-.062.027-.062.029-.061.029-.061.03-.061.031-.059.032-.06.033-.058.033-.058.034-.057.036-.056.035-.055.037-.054.038-.053.038-.052.039-.051.039-.05.04-.048.041-.047.042-.046.042-.044.043-.042.043-.041.044-.039.045-.037.045-.036.046-.034.046-.032.047-.03.047-.028.047-.025.049-.024.048-.021.049-.019.05-.017.049-.015.051-.011.05-.01.051-.007.051-.004L5 8h2l6-5v19zM7.724 10h-2.35l-.016.024-.017.025-.017.027-.017.029-.017.029-.017.031-.017.032-.016.031-.017.033-.016.034-.016.035-.016.035-.015.035-.014.036-.015.036-.013.035-.013.036-.012.035-.011.034-.011.036-.01.034-.009.032-.009.033-.008.03-.006.03-.007.029-.005.026-.004.025-.004.024-.003.021-.002.02-.002.016-.001.012-.001.009v2.014l.001.017.001.012.002.016.002.02.003.021.004.024.004.025.005.026.007.029.006.03.008.03.009.033.009.032.01.034.011.036.011.034.012.036.013.035.013.035.015.037.014.035.015.035.016.035.016.035.016.034.017.033.016.032.017.031.017.031.017.029.017.029.017.027.017.025.016.024h2.454L11 17.172V7.27L7.724 10z"/></svg>